<svg id="Layer_1" data-name="Layer 1" xmlns="http://www.w3.org/2000/svg" width="2500" height="1114.4" viewBox="0 0 2500 1114.4"><title>amces-finals</title><rect width="2500" height="1114.38" fill="#fff"/><path d="M596.3,107.4a.9.9,0,0,0-1.2-.5L209,248.9a1,1,0,0,0-.7.8,1.3,1.3,0,0,0,.4,1L412,409.1l.6.2a.9.9,0,0,0,.7-.3,1,1,0,0,0,0-1.4L287.9,264.1l308-155.4A.9.9,0,0,0,596.3,107.4Z" fill="#231f20"/><path d="M590.7,121.7a.8.8,0,0,0-1.2-.2l-99.8,55.1a.9.9,0,0,0-.5,1.1,1.1,1.1,0,0,0,.9.8l17.4,1.2L420.2,394.3a1,1,0,0,0,.5,1.3h.5a.9.9,0,0,0,.8-.5L590.8,122.9A.9.9,0,0,0,590.7,121.7Z" fill="#231f20"/><path d="M625.6,360v1.4l-4.6.3a7.6,7.6,0,0,1,1.8,4.9,6.6,6.6,0,0,1-2.1,5.1,7.4,7.4,0,0,1-5.6,2H613a4.5,4.5,0,0,0-1.8,1.5,2.8,2.8,0,0,0-.6,1.8,1.6,1.6,0,0,0,.7,1.5,6.2,6.2,0,0,0,2.7.5h3.8a9.5,9.5,0,0,1,5.5,1.4,5,5,0,0,1,1.9,4.3,5.9,5.9,0,0,1-2.8,5.3c-1.9,1.3-4.6,1.9-8,1.9s-4.9-.5-6.4-1.6a5,5,0,0,1-2.3-4.4,5.6,5.6,0,0,1,1.4-3.8,7.3,7.3,0,0,1,3.8-2,4.8,4.8,0,0,1-1.6-1.2,2.8,2.8,0,0,1-.6-1.8c0-1.4,1-2.7,2.8-3.9a6.2,6.2,0,0,1-2.9-2.4,6.4,6.4,0,0,1-1.1-3.9,7.1,7.1,0,0,1,2.1-5.3,7.8,7.8,0,0,1,5.6-1.9,10.5,10.5,0,0,1,3.4.4Zm-17.8,25.6c0,3,2.3,4.5,6.7,4.5s8.7-1.8,8.7-5.5a3,3,0,0,0-1.4-2.8,8,8,0,0,0-4.4-.9h-3.5C609.8,380.9,607.8,382.4,607.8,385.6Zm1.7-18.8a5.4,5.4,0,0,0,1.5,4,6.3,6.3,0,0,0,4.2,1.4,6.1,6.1,0,0,0,4.2-1.4,5.8,5.8,0,0,0,1.4-4.1,5.7,5.7,0,0,0-1.5-4.2,6.1,6.1,0,0,0-4.2-1.4,5.6,5.6,0,0,0-4.1,1.5A5.7,5.7,0,0,0,609.5,366.8Z" fill="#231f20"/><path d="M638.7,359.6l3,.2-.4,2a9,9,0,0,0-2.8-.4,5.5,5.5,0,0,0-4.6,2.4,9.7,9.7,0,0,0-1.8,6v12.1h-2V360h1.7l.2,3.9h.1a10.1,10.1,0,0,1,2.9-3.4A7,7,0,0,1,638.7,359.6Z" fill="#231f20"/><path d="M664.3,370.9c0,3.6-.9,6.4-2.6,8.4a9.2,9.2,0,0,1-7.2,3,9.8,9.8,0,0,1-5.1-1.4,8.4,8.4,0,0,1-3.4-4,15.7,15.7,0,0,1-1.1-6c0-3.6.8-6.4,2.6-8.3a9.9,9.9,0,0,1,14.2,0A12.5,12.5,0,0,1,664.3,370.9Zm-17.3,0c0,3,.6,5.4,1.9,7.1a7.6,7.6,0,0,0,11.3,0,11.5,11.5,0,0,0,2-7.1,11,11,0,0,0-2-7,7,7,0,0,0-5.7-2.5,6.6,6.6,0,0,0-5.6,2.5C647.6,365.5,647,367.9,647,370.9Z" fill="#231f20"/><path d="M687.8,381.9,683,367.2c-.3-1-.7-2.4-1.1-4.3h-.2l-.4,1.5-.9,2.9-4.9,14.6h-2L667.3,360h2.1l3.5,12.7c.8,3.1,1.4,5.4,1.6,6.9h.2c.8-3.1,1.3-5.2,1.7-6.3l4.5-13.3h1.8l4.3,13.3q1.5,4.8,1.8,6.3h.1c.1-.9.7-3.2,1.6-7l3.4-12.6h2l-6,21.9Z" fill="#231f20"/><path d="M806.5,353.9c0-1.3.4-1.9,1.2-1.9a1,1,0,0,1,1,.5,3.4,3.4,0,0,1,0,2.8,1.1,1.1,0,0,1-1,.6C806.9,355.9,806.5,355.2,806.5,353.9Zm2.2,28h-2V360h2Z" fill="#231f20"/><path d="M831.3,381.9V367.7c0-2.2-.4-3.8-1.3-4.8a5.9,5.9,0,0,0-4.4-1.5c-2.6,0-4.5.6-5.7,2s-1.8,3.4-1.8,6.4v12.1h-2V360h1.7l.3,3h.2c1.4-2.3,3.9-3.4,7.6-3.4s7.4,2.6,7.4,8v14.3Z" fill="#231f20"/><path d="M854,376.2a5,5,0,0,1-2.2,4.5c-1.5,1.1-3.6,1.6-6.4,1.6a14.3,14.3,0,0,1-7-1.4v-2.1a15.6,15.6,0,0,0,7,1.6,9.2,9.2,0,0,0,4.9-1,3.3,3.3,0,0,0,1.7-2.9,3.5,3.5,0,0,0-1.3-2.8,16.1,16.1,0,0,0-4.4-2.2,23,23,0,0,1-4.6-2.1,5.3,5.3,0,0,1-2-1.9,4.4,4.4,0,0,1-.7-2.6,4.4,4.4,0,0,1,2.1-3.9c1.3-1,3.3-1.4,5.7-1.4a17.5,17.5,0,0,1,6.8,1.3l-.8,1.8a15.1,15.1,0,0,0-6-1.3,8.2,8.2,0,0,0-4.2.9,2.6,2.6,0,0,0-1.6,2.4,3.5,3.5,0,0,0,1.2,2.8,21.4,21.4,0,0,0,4.8,2.3,20.4,20.4,0,0,1,4.3,1.9,6.1,6.1,0,0,1,2,1.9A4.6,4.6,0,0,1,854,376.2Z" fill="#231f20"/><path d="M869,382.3a8.1,8.1,0,0,1-7.4-3.8h-.1v13.3h-2V360h1.7l.4,3.1h.1c1.6-2.4,4-3.5,7.3-3.5s5.2.9,6.7,2.9,2.4,4.7,2.4,8.5a12.8,12.8,0,0,1-2.5,8.3A8.2,8.2,0,0,1,869,382.3Zm0-1.8a6,6,0,0,0,5.2-2.5c1.2-1.6,1.8-4,1.8-7q0-9.6-6.9-9.6-3.9,0-5.7,2.1c-1.2,1.4-1.8,3.7-1.8,6.8v.7c0,3.4.6,5.9,1.8,7.3S866.4,380.5,869,380.5Z" fill="#231f20"/><path d="M883.9,353.9c0-1.3.5-1.9,1.3-1.9a1,1,0,0,1,1,.5,3.4,3.4,0,0,1,0,2.8,1.1,1.1,0,0,1-1,.6C884.4,355.9,883.9,355.2,883.9,353.9Zm2.3,28h-2V360h2Z" fill="#231f20"/><path d="M902.2,359.6l3,.2-.4,2a9.2,9.2,0,0,0-2.9-.4,5.6,5.6,0,0,0-4.6,2.4,10.4,10.4,0,0,0-1.7,6v12.1h-2V360h1.7l.2,3.9h.1a10.1,10.1,0,0,1,2.9-3.4A7,7,0,0,1,902.2,359.6Z" fill="#231f20"/><path d="M918.5,382.3a9.9,9.9,0,0,1-7.5-2.9c-1.8-2-2.6-4.8-2.6-8.3s.8-6.3,2.5-8.4a8.7,8.7,0,0,1,7-3.1,7.5,7.5,0,0,1,6.1,2.7c1.5,1.8,2.2,4.2,2.2,7.3v1.6H910.5q0,4.5,2.1,6.9a7.2,7.2,0,0,0,5.9,2.4,16.9,16.9,0,0,0,3.3-.3,22.4,22.4,0,0,0,3.6-1.1v1.8a19.8,19.8,0,0,1-3.5,1.1A17.9,17.9,0,0,1,918.5,382.3Zm-.6-21a6.6,6.6,0,0,0-5.1,2.1,9.6,9.6,0,0,0-2.2,6h13.5a9.4,9.4,0,0,0-1.6-5.9A5.7,5.7,0,0,0,917.9,361.3Z" fill="#231f20"/><path d="M1062.8,376.2a5.2,5.2,0,0,1-2.2,4.5,10.8,10.8,0,0,1-6.4,1.6,14.3,14.3,0,0,1-7-1.4v-2.1a15.6,15.6,0,0,0,7,1.6,9.2,9.2,0,0,0,4.9-1,3.3,3.3,0,0,0,1.7-2.9,3.5,3.5,0,0,0-1.3-2.8,16.1,16.1,0,0,0-4.4-2.2,20.6,20.6,0,0,1-4.6-2.1,6.5,6.5,0,0,1-2.1-1.9,5.3,5.3,0,0,1-.6-2.6,4.5,4.5,0,0,1,2-3.9,9.8,9.8,0,0,1,5.8-1.4,16.7,16.7,0,0,1,6.7,1.3l-.7,1.8a15.1,15.1,0,0,0-6-1.3,8.2,8.2,0,0,0-4.2.9,2.6,2.6,0,0,0-1.6,2.4,3.5,3.5,0,0,0,1.2,2.8,21.4,21.4,0,0,0,4.8,2.3,20.4,20.4,0,0,1,4.3,1.9,6.1,6.1,0,0,1,2,1.9A4.6,4.6,0,0,1,1062.8,376.2Z" fill="#231f20"/><path d="M1070.2,360v14.2c0,2.2.4,3.8,1.4,4.8a5.5,5.5,0,0,0,4.3,1.5c2.6,0,4.5-.7,5.7-2s1.9-3.5,1.9-6.4V360h2v21.9h-1.7l-.4-3h-.1c-1.5,2.3-4,3.4-7.6,3.4s-7.5-2.7-7.5-8V360Z" fill="#231f20"/><path d="M1101.5,382.3a9.3,9.3,0,0,1-7.3-3c-1.8-1.9-2.7-4.7-2.7-8.2s.9-6.5,2.8-8.5a9.6,9.6,0,0,1,7.5-3,16.7,16.7,0,0,1,5.5.9l-.6,1.8a16.5,16.5,0,0,0-4.9-.9c-2.7,0-4.7.8-6.1,2.5s-2.1,4-2.1,7.1a10.6,10.6,0,0,0,2.1,7,7.3,7.3,0,0,0,5.8,2.5,14.2,14.2,0,0,0,5.5-1.1v1.9A12.3,12.3,0,0,1,1101.5,382.3Z" fill="#231f20"/><path d="M1121.2,382.3a9.4,9.4,0,0,1-7.4-3c-1.8-1.9-2.7-4.7-2.7-8.2s1-6.5,2.8-8.5a9.8,9.8,0,0,1,7.6-3,16.1,16.1,0,0,1,5.4.9l-.5,1.8a17.1,17.1,0,0,0-5-.9c-2.7,0-4.7.8-6.1,2.5s-2.1,4-2.1,7.1a10.6,10.6,0,0,0,2.1,7,7.3,7.3,0,0,0,5.8,2.5,14.7,14.7,0,0,0,5.6-1.1v1.9A12.6,12.6,0,0,1,1121.2,382.3Z" fill="#231f20"/><path d="M1140.9,382.3a9.9,9.9,0,0,1-7.5-2.9c-1.8-2-2.7-4.8-2.7-8.3a13,13,0,0,1,2.6-8.4,8.6,8.6,0,0,1,7-3.1,7.5,7.5,0,0,1,6.1,2.7c1.5,1.8,2.2,4.2,2.2,7.3v1.6h-15.8c.1,3,.8,5.3,2.2,6.9a7.2,7.2,0,0,0,5.9,2.4,16.9,16.9,0,0,0,3.3-.3,22.4,22.4,0,0,0,3.6-1.1v1.8a19.8,19.8,0,0,1-3.5,1.1A17.9,17.9,0,0,1,1140.9,382.3Zm-.6-21a6.6,6.6,0,0,0-5.1,2.1,9.6,9.6,0,0,0-2.2,6h13.5a9.4,9.4,0,0,0-1.6-5.9A5.7,5.7,0,0,0,1140.3,361.3Z" fill="#231f20"/><path d="M1163.5,382.3a9.6,9.6,0,0,1-7.4-2.9c-1.8-2-2.7-4.8-2.7-8.3a13,13,0,0,1,2.6-8.4,8.4,8.4,0,0,1,6.9-3.1,7.7,7.7,0,0,1,6.2,2.7,11.5,11.5,0,0,1,2.2,7.3v1.6h-15.8q0,4.5,2.1,6.9a7.5,7.5,0,0,0,5.9,2.4,15.5,15.5,0,0,0,3.3-.3,17.7,17.7,0,0,0,3.6-1.1v1.8a15.6,15.6,0,0,1-6.9,1.4Zm-.6-21a6.3,6.3,0,0,0-5,2.1,9.7,9.7,0,0,0-2.3,6h13.6a9.4,9.4,0,0,0-1.7-5.9A5.6,5.6,0,0,0,1162.9,361.3Z" fill="#231f20"/><path d="M1185.4,359.6a9.1,9.1,0,0,1,4.1.8,8.8,8.8,0,0,1,3.1,3h.1c-.1-1.7-.1-3.4-.1-5v-7.9h2v31.4h-1.4l-.5-3.3h-.1a8.4,8.4,0,0,1-7.2,3.7c-3,0-5.3-.9-6.9-2.8s-2.4-4.6-2.4-8.2.8-6.7,2.3-8.7S1182.3,359.6,1185.4,359.6Zm0,1.8a6.1,6.1,0,0,0-5.4,2.5c-1.2,1.7-1.8,4.1-1.8,7.3q0,9.3,7.2,9.3,3.8,0,5.4-2.1c1.2-1.5,1.8-3.8,1.8-7.1v-.4c0-3.4-.6-5.8-1.7-7.3S1187.9,361.4,1185.4,361.4Z" fill="#231f20"/><path d="M684.8,308.6l-6.3-16h-.8c-5.4,6.8-11,11.5-16.8,14.2s-13.2,4-22.4,4c-11.4,0-20.3-3.3-26.8-9.8s-9.8-15.7-9.8-27.7,4.4-21.8,13.1-27.7,22.1-9.3,39.7-9.9l20.6-.7v-5.1c0-12-6.2-18-18.4-18-9.5,0-20.6,2.8-33.3,8.5l-10.7-21.7c13.6-7.2,28.7-10.7,45.2-10.7s28.1,3.4,36.5,10.4,12.7,17.4,12.7,31.5v78.7Zm-9.5-54.7-12.5.4q-14.1.4-21,5.1c-4.5,3.1-6.8,7.8-6.8,14.1,0,9.1,5.2,13.7,15.6,13.7,7.5,0,13.5-2.2,17.9-6.5s6.8-10,6.8-17.1Z" fill="#231f20"/><path d="M829,308.6H796.8v-69c0-8.5-1.5-14.9-4.3-19.2S785.1,214,779,214c-8.2,0-14.2,3-18,9.1s-5.6,16-5.6,29.9v55.6H723.2V190.4h24.6l4.3,15.1h1.8a33.3,33.3,0,0,1,13.8-12.7,44.3,44.3,0,0,1,20.6-4.6c17.7,0,29.7,5.8,36,17.3h2.8a32.9,32.9,0,0,1,14-12.8,47.5,47.5,0,0,1,20.9-4.5c13.4,0,23.5,3.4,30.4,10.3s10.3,17.9,10.3,33.1v77H870.4v-69c0-8.5-1.5-14.9-4.3-19.2s-7.4-6.4-13.5-6.4c-7.9,0-13.8,2.8-17.7,8.5s-5.9,14.6-5.9,26.8Z" fill="#231f20"/><path d="M971,310.8c-16.4,0-29.2-5.2-38.6-15.6s-13.9-24.8-13.9-43.3,4.8-33.9,14.5-44.5,22.9-15.9,39.6-15.9a78.8,78.8,0,0,1,28.6,5.2l-2.9,9.3c-9.9-3.3-18.6-5-25.9-5-14.1,0-24.8,4.3-32,13.1s-10.9,21.2-10.9,37.5,3.6,27.7,10.9,36.5,17.4,13.1,30.4,13.1a73.3,73.3,0,0,0,29.1-5.6v9.8C992.6,309,983,310.8,971,310.8Z" fill="#231f20"/><path d="M1061.5,310.8c-16.7,0-29.8-5.2-39.1-15.5s-14-24.7-14-43.2,4.5-33,13.5-44.1,21.2-16.5,36.5-16.5c13.5,0,24.2,4.7,32,14.1s11.8,22.3,11.8,38.5v8.5h-82.8c.1,15.8,3.8,27.8,11,36.2s17.6,12.4,31.1,12.4a97.2,97.2,0,0,0,17.2-1.3,106.6,106.6,0,0,0,18.9-6v9.6a84,84,0,0,1-18,5.7A99.9,99.9,0,0,1,1061.5,310.8Zm-3.1-110c-11.1,0-20,3.6-26.7,10.9s-10.6,17.8-11.7,31.6h71.1c0-13.3-2.9-23.7-8.7-31.3S1068.6,200.8,1058.4,200.8Z" fill="#231f20"/><path d="M1196.5,278.7q0,15.4-11.7,23.7t-33.3,8.4c-15.4,0-27.6-2.4-36.6-7.1V292.4a81.4,81.4,0,0,0,36.6,8.6c11.3,0,19.9-1.9,25.8-5.6s8.8-8.8,8.8-15.1-2.3-10.6-7-14.6-12.4-7.8-23.1-11.6-19.6-7.8-24.2-10.8a31.9,31.9,0,0,1-10.5-10.1,25.3,25.3,0,0,1-3.6-13.8c0-8.6,3.6-15.4,10.9-20.4s17.3-7.5,30.3-7.5a90,90,0,0,1,35.3,7l-3.9,9.5c-11.3-4.7-21.8-7-31.4-7s-16.9,1.5-22.4,4.6-8.2,7.4-8.2,12.9,2.1,10.8,6.4,14.4,12.6,7.6,25,12.1c10.4,3.7,17.9,7.1,22.6,10.1a32.9,32.9,0,0,1,10.7,10.2A25.5,25.5,0,0,1,1196.5,278.7Z" fill="#231f20"/><path d="M1752.8,107.4a.9.9,0,0,0-1.2-.5l-386.1,142a1,1,0,0,0-.7.8,1.3,1.3,0,0,0,.4,1l203.3,158.4.6.2a.9.9,0,0,0,.7-.3,1,1,0,0,0,0-1.4L1444.4,264.1l308-155.4A1,1,0,0,0,1752.8,107.4Z" fill="#00538b"/><path d="M1747.2,121.7a.8.8,0,0,0-1.2-.2l-99.8,55.1a.9.9,0,0,0-.5,1.1,1.1,1.1,0,0,0,.9.8l17.4,1.2-87.3,214.6a1,1,0,0,0,.5,1.3h.5a.9.9,0,0,0,.8-.5l168.8-272.3A.9.9,0,0,0,1747.2,121.7Z" fill="#76777a"/><path d="M1782.1,360v1.4l-4.6.3a7.6,7.6,0,0,1,1.8,4.9,6.6,6.6,0,0,1-2.1,5.1,7.4,7.4,0,0,1-5.6,2h-2.1a4.5,4.5,0,0,0-1.8,1.5,2.8,2.8,0,0,0-.6,1.8,1.6,1.6,0,0,0,.7,1.5,6.2,6.2,0,0,0,2.7.5h3.8a9.5,9.5,0,0,1,5.5,1.4,5,5,0,0,1,1.9,4.3,5.9,5.9,0,0,1-2.8,5.3c-1.9,1.3-4.6,1.9-8,1.9s-4.9-.5-6.4-1.6a5,5,0,0,1-2.3-4.4,5.6,5.6,0,0,1,1.4-3.8,7.3,7.3,0,0,1,3.8-2,4.8,4.8,0,0,1-1.6-1.2,2.8,2.8,0,0,1-.6-1.8c0-1.4,1-2.7,2.8-3.9a6.2,6.2,0,0,1-2.9-2.4,6.4,6.4,0,0,1-1.1-3.9,7.1,7.1,0,0,1,2.1-5.3,7.8,7.8,0,0,1,5.6-1.9,10.5,10.5,0,0,1,3.4.4Zm-17.8,25.6c0,3,2.3,4.5,6.7,4.5s8.7-1.8,8.7-5.5a3,3,0,0,0-1.4-2.8,8,8,0,0,0-4.4-.9h-3.5C1766.3,380.9,1764.3,382.4,1764.3,385.6Zm1.7-18.8a5.4,5.4,0,0,0,1.5,4,6.3,6.3,0,0,0,4.2,1.4,6.1,6.1,0,0,0,4.2-1.4,5.8,5.8,0,0,0,1.4-4.1,5.7,5.7,0,0,0-1.5-4.2,6.1,6.1,0,0,0-4.2-1.4,5.6,5.6,0,0,0-4.1,1.5A5.7,5.7,0,0,0,1766,366.8Z" fill="#76777a"/><path d="M1795.2,359.6l3,.2-.4,2a9,9,0,0,0-2.8-.4,5.5,5.5,0,0,0-4.6,2.4,9.7,9.7,0,0,0-1.8,6v12.1h-2V360h1.7l.2,3.9h.1a10.1,10.1,0,0,1,2.9-3.4A7,7,0,0,1,1795.2,359.6Z" fill="#76777a"/><path d="M1820.8,370.9c0,3.6-.9,6.4-2.6,8.4a9.2,9.2,0,0,1-7.2,3,9.8,9.8,0,0,1-5.1-1.4,8.4,8.4,0,0,1-3.4-4,15.7,15.7,0,0,1-1.1-6c0-3.6.8-6.4,2.6-8.3a9.9,9.9,0,0,1,14.2,0A12.5,12.5,0,0,1,1820.8,370.9Zm-17.3,0c0,3,.6,5.4,1.9,7.1a7.6,7.6,0,0,0,11.3,0,11.5,11.5,0,0,0,2-7.1,11,11,0,0,0-2-7,7,7,0,0,0-5.7-2.5,6.6,6.6,0,0,0-5.6,2.5C1804.1,365.5,1803.5,367.9,1803.5,370.9Z" fill="#76777a"/><path d="M1844.3,381.9l-4.8-14.7c-.3-1-.7-2.4-1.1-4.3h-.2l-.4,1.5-.9,2.9-4.9,14.6h-2l-6.2-21.9h2.1l3.5,12.7c.8,3.1,1.4,5.4,1.6,6.9h.2a58.1,58.1,0,0,1,1.7-6.3l4.5-13.3h1.8l4.3,13.3q1.5,4.8,1.8,6.3h.1c.1-.9.7-3.2,1.6-7l3.4-12.6h2l-6,21.9Z" fill="#76777a"/><path d="M1963,353.9c0-1.3.4-1.9,1.2-1.9a1,1,0,0,1,1,.5,3.4,3.4,0,0,1,0,2.8,1.1,1.1,0,0,1-1,.6C1963.4,355.9,1963,355.2,1963,353.9Zm2.2,28h-2V360h2Z" fill="#76777a"/><path d="M1987.8,381.9V367.7c0-2.2-.4-3.8-1.3-4.8a5.9,5.9,0,0,0-4.4-1.5c-2.6,0-4.5.6-5.7,2s-1.8,3.4-1.8,6.4v12.1h-2V360h1.7l.3,3h.2c1.4-2.3,3.9-3.4,7.6-3.4s7.4,2.6,7.4,8v14.3Z" fill="#76777a"/><path d="M2010.5,376.2a5,5,0,0,1-2.2,4.5c-1.5,1.1-3.6,1.6-6.4,1.6a14.3,14.3,0,0,1-7-1.4v-2.1a15.6,15.6,0,0,0,7,1.6,9.2,9.2,0,0,0,4.9-1,3.3,3.3,0,0,0,1.7-2.9,3.5,3.5,0,0,0-1.3-2.8,16.1,16.1,0,0,0-4.4-2.2,23,23,0,0,1-4.6-2.1,5.3,5.3,0,0,1-2-1.9,4.4,4.4,0,0,1-.7-2.6,4.4,4.4,0,0,1,2.1-3.9c1.3-1,3.3-1.4,5.7-1.4a17.5,17.5,0,0,1,6.8,1.3l-.8,1.8a15.1,15.1,0,0,0-6-1.3,8.2,8.2,0,0,0-4.2.9,2.6,2.6,0,0,0-1.6,2.4,3.5,3.5,0,0,0,1.2,2.8,21.4,21.4,0,0,0,4.8,2.3,20.4,20.4,0,0,1,4.3,1.9,6.1,6.1,0,0,1,2,1.9A4.6,4.6,0,0,1,2010.5,376.2Z" fill="#76777a"/><path d="M2025.5,382.3a8.1,8.1,0,0,1-7.4-3.8h-.1v13.3h-2V360h1.7l.4,3.1h.1c1.6-2.4,4-3.5,7.3-3.5s5.2.9,6.7,2.9,2.4,4.7,2.4,8.5a12.8,12.8,0,0,1-2.5,8.3A8.2,8.2,0,0,1,2025.5,382.3Zm0-1.8a6,6,0,0,0,5.2-2.5c1.2-1.6,1.8-4,1.8-7q0-9.6-6.9-9.6-3.9,0-5.7,2.1c-1.2,1.4-1.8,3.7-1.8,6.8v.7c0,3.4.6,5.9,1.8,7.3S2022.9,380.5,2025.5,380.5Z" fill="#76777a"/><path d="M2040.4,353.9c0-1.3.5-1.9,1.3-1.9a1,1,0,0,1,1,.5,3.4,3.4,0,0,1,0,2.8,1.1,1.1,0,0,1-1,.6C2040.9,355.9,2040.4,355.2,2040.4,353.9Zm2.3,28h-2V360h2Z" fill="#76777a"/><path d="M2058.7,359.6l3,.2-.4,2a9.2,9.2,0,0,0-2.9-.4,5.6,5.6,0,0,0-4.6,2.4,10.4,10.4,0,0,0-1.7,6v12.1h-2V360h1.7l.2,3.9h.1a10.1,10.1,0,0,1,2.9-3.4A7,7,0,0,1,2058.7,359.6Z" fill="#76777a"/><path d="M2075,382.3a9.9,9.9,0,0,1-7.5-2.9c-1.8-2-2.6-4.8-2.6-8.3s.8-6.3,2.5-8.4a8.7,8.7,0,0,1,7-3.1,7.5,7.5,0,0,1,6.1,2.7c1.5,1.8,2.2,4.2,2.2,7.3v1.6H2067q0,4.5,2.1,6.9a7.2,7.2,0,0,0,5.9,2.4,16.9,16.9,0,0,0,3.3-.3,22.4,22.4,0,0,0,3.6-1.1v1.8a19.8,19.8,0,0,1-3.5,1.1A17.9,17.9,0,0,1,2075,382.3Zm-.6-21a6.6,6.6,0,0,0-5.1,2.1,9.6,9.6,0,0,0-2.2,6h13.5a9.4,9.4,0,0,0-1.6-5.9A5.7,5.7,0,0,0,2074.4,361.3Z" fill="#76777a"/><path d="M2219.3,376.2a5.2,5.2,0,0,1-2.2,4.5,10.8,10.8,0,0,1-6.4,1.6,14.1,14.1,0,0,1-7-1.4v-2.1a15.6,15.6,0,0,0,7,1.6,9.2,9.2,0,0,0,4.9-1,3.3,3.3,0,0,0,1.7-2.9,3.5,3.5,0,0,0-1.3-2.8,16.1,16.1,0,0,0-4.4-2.2,20.6,20.6,0,0,1-4.6-2.1,6.5,6.5,0,0,1-2.1-1.9,5.3,5.3,0,0,1-.6-2.6,4.5,4.5,0,0,1,2-3.9,9.8,9.8,0,0,1,5.8-1.4,16.7,16.7,0,0,1,6.7,1.3l-.7,1.8a15.1,15.1,0,0,0-6-1.3,8.2,8.2,0,0,0-4.2.9,2.6,2.6,0,0,0-1.6,2.4,3.5,3.5,0,0,0,1.2,2.8,21.4,21.4,0,0,0,4.8,2.3,20.4,20.4,0,0,1,4.3,1.9,6.1,6.1,0,0,1,2,1.9A4.6,4.6,0,0,1,2219.3,376.2Z" fill="#76777a"/><path d="M2226.7,360v14.2c0,2.2.4,3.8,1.4,4.8a5.5,5.5,0,0,0,4.3,1.5c2.6,0,4.5-.7,5.7-2s1.9-3.5,1.9-6.4V360h2v21.9h-1.7l-.4-3h-.1c-1.5,2.3-4,3.4-7.6,3.4s-7.5-2.7-7.5-8V360Z" fill="#76777a"/><path d="M2258,382.3a9.3,9.3,0,0,1-7.3-3c-1.8-1.9-2.7-4.7-2.7-8.2s.9-6.5,2.8-8.5a9.6,9.6,0,0,1,7.5-3,16.7,16.7,0,0,1,5.5.9l-.6,1.8a16.5,16.5,0,0,0-4.9-.9c-2.7,0-4.7.8-6.1,2.5s-2.1,4-2.1,7.1a10.6,10.6,0,0,0,2.1,7,7.3,7.3,0,0,0,5.8,2.5,14.2,14.2,0,0,0,5.5-1.1v1.9A12.3,12.3,0,0,1,2258,382.3Z" fill="#76777a"/><path d="M2277.7,382.3a9.4,9.4,0,0,1-7.4-3c-1.8-1.9-2.7-4.7-2.7-8.2s1-6.5,2.8-8.5a9.8,9.8,0,0,1,7.6-3,16.1,16.1,0,0,1,5.4.9l-.5,1.8a17.1,17.1,0,0,0-5-.9c-2.7,0-4.7.8-6.1,2.5s-2.1,4-2.1,7.1a10.6,10.6,0,0,0,2.1,7,7.3,7.3,0,0,0,5.8,2.5,14.7,14.7,0,0,0,5.6-1.1v1.9A12.6,12.6,0,0,1,2277.7,382.3Z" fill="#76777a"/><path d="M2297.4,382.3a9.9,9.9,0,0,1-7.5-2.9c-1.8-2-2.7-4.8-2.7-8.3a13,13,0,0,1,2.6-8.4,8.6,8.6,0,0,1,7-3.1,7.5,7.5,0,0,1,6.1,2.7c1.5,1.8,2.2,4.2,2.2,7.3v1.6h-15.8c.1,3,.8,5.3,2.2,6.9a7.2,7.2,0,0,0,5.9,2.4,16.9,16.9,0,0,0,3.3-.3,22.4,22.4,0,0,0,3.6-1.1v1.8a19.8,19.8,0,0,1-3.5,1.1A17.9,17.9,0,0,1,2297.4,382.3Zm-.6-21a6.6,6.6,0,0,0-5.1,2.1,9.6,9.6,0,0,0-2.2,6H2303a9.4,9.4,0,0,0-1.6-5.9A5.7,5.7,0,0,0,2296.8,361.3Z" fill="#76777a"/><path d="M2320,382.3a9.6,9.6,0,0,1-7.4-2.9c-1.8-2-2.7-4.8-2.7-8.3a13,13,0,0,1,2.6-8.4,8.4,8.4,0,0,1,6.9-3.1,7.7,7.7,0,0,1,6.2,2.7,11.5,11.5,0,0,1,2.2,7.3v1.6H2312q0,4.5,2.1,6.9a7.5,7.5,0,0,0,5.9,2.4,15.5,15.5,0,0,0,3.3-.3,17.7,17.7,0,0,0,3.6-1.1v1.8a15.6,15.6,0,0,1-6.9,1.4Zm-.6-21a6.3,6.3,0,0,0-5,2.1,9.7,9.7,0,0,0-2.3,6h13.6a9.4,9.4,0,0,0-1.7-5.9A5.6,5.6,0,0,0,2319.4,361.3Z" fill="#76777a"/><path d="M2341.9,359.6a9.1,9.1,0,0,1,4.1.8,8.8,8.8,0,0,1,3.1,3h.1c-.1-1.7-.1-3.4-.1-5v-7.9h2v31.4h-1.4l-.5-3.3h-.1a8.4,8.4,0,0,1-7.2,3.7c-3,0-5.3-.9-6.9-2.8s-2.4-4.6-2.4-8.2.8-6.7,2.3-8.7S2338.8,359.6,2341.9,359.6Zm0,1.8a6.1,6.1,0,0,0-5.4,2.5c-1.2,1.7-1.8,4.1-1.8,7.3q0,9.3,7.2,9.3,3.8,0,5.4-2.1c1.2-1.5,1.8-3.8,1.8-7.1v-.4c0-3.4-.6-5.8-1.7-7.3S2344.4,361.4,2341.9,361.4Z" fill="#76777a"/><path d="M1841.3,308.6l-6.3-16h-.8c-5.4,6.8-11,11.5-16.8,14.2s-13.2,4-22.4,4c-11.4,0-20.3-3.3-26.8-9.8s-9.8-15.7-9.8-27.7,4.4-21.8,13.1-27.7,22.1-9.3,39.7-9.9l20.6-.7v-5.1c0-12-6.2-18-18.4-18-9.5,0-20.6,2.8-33.3,8.5l-10.7-21.7c13.6-7.2,28.7-10.7,45.2-10.7s28.1,3.4,36.5,10.4,12.7,17.4,12.7,31.5v78.7Zm-9.5-54.7-12.5.4q-14.1.4-21,5.1c-4.5,3.1-6.8,7.8-6.8,14.1,0,9.1,5.2,13.7,15.6,13.7,7.5,0,13.5-2.2,17.9-6.5s6.8-10,6.8-17.1Z" fill="#00538b"/><path d="M1985.5,308.6h-32.2v-69c0-8.5-1.5-14.9-4.3-19.2s-7.4-6.4-13.5-6.4c-8.2,0-14.2,3-18,9.1s-5.6,16-5.6,29.9v55.6h-32.2V190.4h24.6l4.3,15.1h1.8a33.3,33.3,0,0,1,13.8-12.7,44.3,44.3,0,0,1,20.6-4.6c17.7,0,29.7,5.8,36,17.3h2.8a32.9,32.9,0,0,1,14-12.8,47.5,47.5,0,0,1,20.9-4.5c13.4,0,23.5,3.4,30.4,10.3s10.3,17.9,10.3,33.1v77h-32.3v-69c0-8.5-1.5-14.9-4.3-19.2s-7.4-6.4-13.5-6.4c-7.9,0-13.8,2.8-17.7,8.5s-5.9,14.6-5.9,26.8Z" fill="#00538b"/><path d="M2127.5,310.8c-16.4,0-29.2-5.2-38.6-15.6s-13.9-24.8-13.9-43.3,4.8-33.9,14.5-44.5,22.9-15.9,39.6-15.9a78.8,78.8,0,0,1,28.6,5.2l-2.9,9.3c-9.9-3.3-18.6-5-25.9-5-14.1,0-24.8,4.3-32,13.1s-10.9,21.2-10.9,37.5,3.6,27.7,10.9,36.5,17.4,13.1,30.4,13.1a73.3,73.3,0,0,0,29.1-5.6v9.8C2149.1,309,2139.5,310.8,2127.5,310.8Z" fill="#76777a"/><path d="M2218,310.8c-16.7,0-29.8-5.2-39.1-15.5s-14-24.7-14-43.2,4.5-33,13.5-44.1,21.2-16.5,36.5-16.5c13.5,0,24.2,4.7,32,14.1s11.8,22.3,11.8,38.5v8.5h-82.8c.1,15.8,3.8,27.8,11,36.2s17.6,12.4,31.1,12.4a97.2,97.2,0,0,0,17.2-1.3,106.6,106.6,0,0,0,18.9-6v9.6a84,84,0,0,1-18,5.7A99.9,99.9,0,0,1,2218,310.8Zm-3.1-110c-11.1,0-20,3.6-26.7,10.9s-10.6,17.8-11.7,31.6h71.1c0-13.3-2.9-23.7-8.7-31.3S2225.1,200.8,2214.9,200.8Z" fill="#76777a"/><path d="M2353,278.7q0,15.4-11.7,23.7t-33.3,8.4c-15.4,0-27.6-2.4-36.6-7.1V292.4A81.4,81.4,0,0,0,2308,301c11.3,0,19.9-1.9,25.8-5.6s8.8-8.8,8.8-15.1-2.3-10.6-7-14.6-12.4-7.8-23.1-11.6-19.6-7.8-24.2-10.8a31.9,31.9,0,0,1-10.5-10.1,25.3,25.3,0,0,1-3.6-13.8c0-8.6,3.6-15.4,10.9-20.4s17.3-7.5,30.3-7.5a90,90,0,0,1,35.3,7l-3.9,9.5c-11.3-4.7-21.8-7-31.4-7s-16.9,1.5-22.4,4.6-8.2,7.4-8.2,12.9,2.1,10.8,6.4,14.4,12.6,7.6,25,12.1c10.4,3.7,17.9,7.1,22.6,10.1a32.9,32.9,0,0,1,10.7,10.2A25.5,25.5,0,0,1,2353,278.7Z" fill="#76777a"/><rect x="107.8" y="582.1" width="1189.3" height="424.48" fill="#231f20"/><path d="M596.3,643.7a1,1,0,0,0-1.2-.5L209,785.2a1.3,1.3,0,0,0-.7.8,1.2,1.2,0,0,0,.4,1L412,945.4l.6.2a.9.9,0,0,0,.7-.3,1,1,0,0,0,0-1.4L287.9,800.4l308-155.3A1,1,0,0,0,596.3,643.7Z" fill="#fff"/><path d="M590.7,658a1.1,1.1,0,0,0-1.2-.2l-99.8,55.1a1,1,0,0,0-.5,1.1.9.9,0,0,0,.9.8l17.4,1.2L420.2,930.7a1,1,0,0,0,.5,1.3h.5a.9.9,0,0,0,.8-.5L590.8,659.2A.9.9,0,0,0,590.7,658Z" fill="#fff"/><path d="M625.6,896.3v1.4l-4.6.3a7.9,7.9,0,0,1,1.8,5,6.6,6.6,0,0,1-2.1,5.1,7.8,7.8,0,0,1-5.6,2l-2.1-.2a4.5,4.5,0,0,0-1.8,1.5,3.2,3.2,0,0,0-.6,1.8,1.6,1.6,0,0,0,.7,1.5,5,5,0,0,0,2.7.5h3.8a8.8,8.8,0,0,1,5.5,1.5,4.7,4.7,0,0,1,1.9,4.2,6.1,6.1,0,0,1-2.8,5.4,15,15,0,0,1-8,1.9,11.4,11.4,0,0,1-6.4-1.6,5.6,5.6,0,0,1-.9-8.2,7.4,7.4,0,0,1,3.8-2.1,3.1,3.1,0,0,1-1.6-1.2,2.7,2.7,0,0,1-.6-1.7c0-1.5,1-2.8,2.8-3.9a6.4,6.4,0,0,1-2.9-2.5,6.3,6.3,0,0,1-1.1-3.8,6.9,6.9,0,0,1,2.1-5.3,7.8,7.8,0,0,1,5.6-2,10.5,10.5,0,0,1,3.4.4Zm-17.8,25.6c0,3.1,2.3,4.6,6.7,4.6s8.7-1.9,8.7-5.5a3.2,3.2,0,0,0-1.4-2.9,8,8,0,0,0-4.4-.9h-3.5C609.8,917.2,607.8,918.8,607.8,921.9Zm1.7-18.7a5,5,0,0,0,1.5,3.9,6.3,6.3,0,0,0,4.2,1.4,6.1,6.1,0,0,0,4.2-1.4,5.6,5.6,0,0,0,1.4-4,5.4,5.4,0,0,0-1.5-4.2,5.7,5.7,0,0,0-9.8,4.3Z" fill="#fff"/><path d="M638.7,895.9l3,.3-.4,1.9a13.3,13.3,0,0,0-2.8-.3,5.4,5.4,0,0,0-4.6,2.3,9.7,9.7,0,0,0-1.8,6v12.1h-2V896.3h1.7l.2,4h.1a9.2,9.2,0,0,1,2.9-3.4A6.2,6.2,0,0,1,638.7,895.9Z" fill="#fff"/><path d="M664.3,907.2c0,3.6-.9,6.4-2.6,8.4a9.2,9.2,0,0,1-7.2,3,8.9,8.9,0,0,1-5.1-1.4,8.7,8.7,0,0,1-3.4-3.9,16.6,16.6,0,0,1-1.1-6.1c0-3.5.8-6.3,2.6-8.3a9.9,9.9,0,0,1,14.2,0A12.7,12.7,0,0,1,664.3,907.2Zm-17.3,0c0,3.1.6,5.4,1.9,7.1a7.6,7.6,0,0,0,11.3,0,11.3,11.3,0,0,0,2-7.1,11.2,11.2,0,0,0-2-7,7,7,0,0,0-5.7-2.5,6.6,6.6,0,0,0-5.6,2.5C647.6,901.9,647,904.2,647,907.2Z" fill="#fff"/><path d="M687.8,918.2,683,903.6c-.3-1-.7-2.5-1.1-4.4h-.2l-.4,1.5-.9,2.9-4.9,14.6h-2l-6.2-21.9h2.1l3.5,12.7c.8,3.2,1.4,5.5,1.6,7h.2c.8-3.2,1.3-5.3,1.7-6.3l4.5-13.4h1.8l4.3,13.3q1.5,4.8,1.8,6.3h.1c.1-.9.7-3.2,1.6-7l3.4-12.6h2l-6,21.9Z" fill="#fff"/><path d="M806.5,890.2c0-1.3.4-1.9,1.2-1.9a1.2,1.2,0,0,1,1,.5,2.6,2.6,0,0,1,.3,1.4,3.3,3.3,0,0,1-.3,1.5,1.2,1.2,0,0,1-1,.5C806.9,892.2,806.5,891.5,806.5,890.2Zm2.2,28h-2V896.3h2Z" fill="#fff"/><path d="M831.3,918.2V904c0-2.2-.4-3.8-1.3-4.8a5.9,5.9,0,0,0-4.4-1.5c-2.6,0-4.5.7-5.7,2s-1.8,3.5-1.8,6.4v12.1h-2V896.3h1.7l.3,3h.2c1.4-2.3,3.9-3.4,7.6-3.4s7.4,2.7,7.4,8v14.3Z" fill="#fff"/><path d="M854,912.5a5.3,5.3,0,0,1-2.2,4.6,11.4,11.4,0,0,1-6.4,1.5,15.6,15.6,0,0,1-7-1.3v-2.2a15.7,15.7,0,0,0,7,1.7,9.1,9.1,0,0,0,4.9-1.1,3.2,3.2,0,0,0,1.7-2.9,3.2,3.2,0,0,0-1.3-2.7,15.9,15.9,0,0,0-4.4-2.3,24.2,24.2,0,0,1-4.6-2,6.1,6.1,0,0,1-2-1.9,4.7,4.7,0,0,1-.7-2.7,4.6,4.6,0,0,1,2.1-3.9,10.2,10.2,0,0,1,5.7-1.4,17.5,17.5,0,0,1,6.8,1.3l-.8,1.8a17.1,17.1,0,0,0-6-1.3,8.2,8.2,0,0,0-4.2.9,2.7,2.7,0,0,0-1.6,2.5,3.4,3.4,0,0,0,1.2,2.7,15.1,15.1,0,0,0,4.8,2.3,27.4,27.4,0,0,1,4.3,1.9,5.5,5.5,0,0,1,2,2A4.1,4.1,0,0,1,854,912.5Z" fill="#fff"/><path d="M869,918.6c-3.4,0-5.8-1.2-7.4-3.8h-.1v13.4h-2V896.3h1.7l.4,3.1h.1a8.3,8.3,0,0,1,7.3-3.5,8.1,8.1,0,0,1,6.7,2.9c1.6,2,2.4,4.8,2.4,8.5a13.1,13.1,0,0,1-2.5,8.4A8.4,8.4,0,0,1,869,918.6Zm0-1.7a6.3,6.3,0,0,0,5.2-2.5,11.9,11.9,0,0,0,1.8-7c0-6.5-2.3-9.7-6.9-9.7q-3.9,0-5.7,2.1t-1.8,6.9v.6c0,3.5.6,5.9,1.8,7.4S866.4,916.9,869,916.9Z" fill="#fff"/><path d="M883.9,890.2c0-1.3.5-1.9,1.3-1.9a1.2,1.2,0,0,1,1,.5,2.6,2.6,0,0,1,.3,1.4,3.3,3.3,0,0,1-.3,1.5,1.2,1.2,0,0,1-1,.5C884.4,892.2,883.9,891.5,883.9,890.2Zm2.3,28h-2V896.3h2Z" fill="#fff"/><path d="M902.2,895.9l3,.3-.4,1.9a13.6,13.6,0,0,0-2.9-.3,5.5,5.5,0,0,0-4.6,2.3,10.4,10.4,0,0,0-1.7,6v12.1h-2V896.3h1.7l.2,4h.1a9.2,9.2,0,0,1,2.9-3.4A6.2,6.2,0,0,1,902.2,895.9Z" fill="#fff"/><path d="M918.5,918.6c-3.2,0-5.7-.9-7.5-2.9s-2.6-4.7-2.6-8.2.8-6.3,2.5-8.4a8.8,8.8,0,0,1,7-3.2,7.5,7.5,0,0,1,6.1,2.7c1.5,1.8,2.2,4.2,2.2,7.3v1.7H910.5c0,3,.7,5.3,2.1,6.8a7.2,7.2,0,0,0,5.9,2.4l3.3-.2a24.9,24.9,0,0,0,3.6-1.2v1.8a10.8,10.8,0,0,1-3.5,1.1A17.9,17.9,0,0,1,918.5,918.6Zm-.6-20.9a6.6,6.6,0,0,0-5.1,2.1,9.6,9.6,0,0,0-2.2,6h13.5a9.7,9.7,0,0,0-1.6-6A5.6,5.6,0,0,0,917.9,897.7Z" fill="#fff"/><path d="M1062.8,912.5a5.6,5.6,0,0,1-2.2,4.6,11.7,11.7,0,0,1-6.4,1.5,15.6,15.6,0,0,1-7-1.3v-2.2a15.7,15.7,0,0,0,7,1.7,9.1,9.1,0,0,0,4.9-1.1,3.2,3.2,0,0,0,1.7-2.9,3.2,3.2,0,0,0-1.3-2.7,15.9,15.9,0,0,0-4.4-2.3,21.5,21.5,0,0,1-4.6-2,7.8,7.8,0,0,1-2.1-1.9,5.7,5.7,0,0,1-.6-2.7,4.7,4.7,0,0,1,2-3.9,10.6,10.6,0,0,1,5.8-1.4,16.7,16.7,0,0,1,6.7,1.3l-.7,1.8a17.1,17.1,0,0,0-6-1.3,8.2,8.2,0,0,0-4.2.9,2.7,2.7,0,0,0-1.6,2.5,3.4,3.4,0,0,0,1.2,2.7,15.1,15.1,0,0,0,4.8,2.3,27.4,27.4,0,0,1,4.3,1.9,5.5,5.5,0,0,1,2,2A4.1,4.1,0,0,1,1062.8,912.5Z" fill="#fff"/><path d="M1070.2,896.3v14.2c0,2.2.4,3.8,1.4,4.8a5.5,5.5,0,0,0,4.3,1.5c2.6,0,4.5-.6,5.7-2s1.9-3.4,1.9-6.4V896.3h2v21.9h-1.7l-.4-3h-.1c-1.5,2.3-4,3.4-7.6,3.4s-7.5-2.6-7.5-8V896.3Z" fill="#fff"/><path d="M1101.5,918.6a9.2,9.2,0,0,1-7.3-2.9c-1.8-2-2.7-4.8-2.7-8.3s.9-6.4,2.8-8.5a9.6,9.6,0,0,1,7.5-3,14.5,14.5,0,0,1,5.5,1l-.6,1.8a14.2,14.2,0,0,0-4.9-1c-2.7,0-4.7.8-6.1,2.5s-2.1,4.1-2.1,7.2a10.5,10.5,0,0,0,2.1,6.9,7,7,0,0,0,5.8,2.5,14.2,14.2,0,0,0,5.5-1v1.8A12.3,12.3,0,0,1,1101.5,918.6Z" fill="#fff"/><path d="M1121.2,918.6c-3.2,0-5.6-.9-7.4-2.9s-2.7-4.8-2.7-8.3a12.6,12.6,0,0,1,2.8-8.5,9.8,9.8,0,0,1,7.6-3,14,14,0,0,1,5.4,1l-.5,1.8a14.7,14.7,0,0,0-5-1c-2.7,0-4.7.8-6.1,2.5s-2.1,4.1-2.1,7.2a10.5,10.5,0,0,0,2.1,6.9,7,7,0,0,0,5.8,2.5,14.7,14.7,0,0,0,5.6-1v1.8A12.6,12.6,0,0,1,1121.2,918.6Z" fill="#fff"/><path d="M1140.9,918.6c-3.2,0-5.7-.9-7.5-2.9s-2.7-4.7-2.7-8.2a13,13,0,0,1,2.6-8.4,8.6,8.6,0,0,1,7-3.2,7.5,7.5,0,0,1,6.1,2.7c1.5,1.8,2.2,4.2,2.2,7.3v1.7h-15.8c.1,3,.8,5.3,2.2,6.8a7.2,7.2,0,0,0,5.9,2.4l3.3-.2a24.9,24.9,0,0,0,3.6-1.2v1.8a10.8,10.8,0,0,1-3.5,1.1A17.9,17.9,0,0,1,1140.9,918.6Zm-.6-20.9a6.6,6.6,0,0,0-5.1,2.1,9.6,9.6,0,0,0-2.2,6h13.5a9.7,9.7,0,0,0-1.6-6A5.6,5.6,0,0,0,1140.3,897.7Z" fill="#fff"/><path d="M1163.5,918.6c-3.2,0-5.6-.9-7.4-2.9s-2.7-4.7-2.7-8.2a13,13,0,0,1,2.6-8.4,8.5,8.5,0,0,1,6.9-3.2,7.7,7.7,0,0,1,6.2,2.7,11.5,11.5,0,0,1,2.2,7.3v1.7h-15.8c0,3,.7,5.3,2.1,6.8a7.5,7.5,0,0,0,5.9,2.4l3.3-.2a18.8,18.8,0,0,0,3.6-1.2v1.8a10.3,10.3,0,0,1-3.4,1.1A19,19,0,0,1,1163.5,918.6Zm-.6-20.9a6.3,6.3,0,0,0-5,2.1,9.7,9.7,0,0,0-2.3,6h13.6a9.7,9.7,0,0,0-1.7-6A5.5,5.5,0,0,0,1162.9,897.7Z" fill="#fff"/><path d="M1185.4,895.9a9.1,9.1,0,0,1,4.1.9,7.7,7.7,0,0,1,3.1,2.9h.1c-.1-1.7-.1-3.3-.1-4.9v-7.9h2v31.3h-1.4l-.5-3.3h-.1a8.2,8.2,0,0,1-7.2,3.7c-3,0-5.3-.9-6.9-2.8s-2.4-4.6-2.4-8.2.8-6.7,2.3-8.7S1182.3,895.9,1185.4,895.9Zm0,1.8a6.4,6.4,0,0,0-5.4,2.5c-1.2,1.7-1.8,4.2-1.8,7.4q0,9.3,7.2,9.3c2.5,0,4.3-.8,5.4-2.2s1.8-3.8,1.8-7.1v-.4c0-3.3-.6-5.8-1.7-7.3A6.9,6.9,0,0,0,1185.4,897.7Z" fill="#fff"/><path d="M684.8,845l-6.3-16.1h-.8c-5.4,6.8-11,11.6-16.8,14.2s-13.2,4-22.4,4c-11.4,0-20.3-3.3-26.8-9.7s-9.8-15.8-9.8-27.7,4.4-21.8,13.1-27.8,22.1-9.3,39.7-9.9l20.6-.6v-5.2c0-12-6.2-18-18.4-18-9.5,0-20.6,2.9-33.3,8.6L612.9,735a96.3,96.3,0,0,1,45.2-10.7c15.9,0,28.1,3.5,36.5,10.4s12.7,17.4,12.7,31.5V845Zm-9.5-54.8-12.5.4q-14.1.4-21,5.1c-4.5,3.1-6.8,7.8-6.8,14.2,0,9.1,5.2,13.6,15.6,13.6,7.5,0,13.5-2.1,17.9-6.4s6.8-10,6.8-17.2Z" fill="#fff"/><path d="M829,845H796.8V775.9c0-8.5-1.5-14.9-4.3-19.2s-7.4-6.4-13.5-6.4c-8.2,0-14.2,3.1-18,9.1s-5.6,16.1-5.6,30V845H723.2V726.8h24.6l4.3,15.1h1.8a33.6,33.6,0,0,1,13.8-12.8,45.6,45.6,0,0,1,20.6-4.6q26.6,0,36,17.4h2.8a32.3,32.3,0,0,1,14-12.8,47.5,47.5,0,0,1,20.9-4.6c13.4,0,23.5,3.5,30.4,10.3s10.3,17.9,10.3,33.1V845H870.4V775.9c0-8.5-1.5-14.9-4.3-19.2s-7.4-6.4-13.5-6.4c-7.9,0-13.8,2.9-17.7,8.5s-5.9,14.6-5.9,26.9Z" fill="#fff"/><path d="M971,847.1c-16.4,0-29.2-5.2-38.6-15.6s-13.9-24.8-13.9-43.3,4.8-33.9,14.5-44.5,22.9-15.9,39.6-15.9a78.8,78.8,0,0,1,28.6,5.2l-2.9,9.3c-9.9-3.3-18.6-5-25.9-5-14.1,0-24.8,4.4-32,13.1s-10.9,21.2-10.9,37.6,3.6,27.6,10.9,36.4,17.4,13.2,30.4,13.2a75.1,75.1,0,0,0,29.1-5.6v9.7C992.6,845.3,983,847.1,971,847.1Z" fill="#fff"/><path d="M1061.5,847.1c-16.7,0-29.8-5.2-39.1-15.4s-14-24.8-14-43.3,4.5-33,13.5-44,21.2-16.6,36.5-16.6c13.5,0,24.2,4.7,32,14.2s11.8,22.3,11.8,38.5v8.4h-82.8c.1,15.8,3.8,27.9,11,36.2s17.6,12.5,31.1,12.5a96.4,96.4,0,0,0,17.2-1.4,105,105,0,0,0,18.9-5.9v9.5a90.8,90.8,0,0,1-18,5.8A100.3,100.3,0,0,1,1061.5,847.1Zm-3.1-110c-11.1,0-20,3.7-26.7,11s-10.6,17.8-11.7,31.5h71.1q0-20-8.7-31.2C1076.6,740.9,1068.6,737.1,1058.4,737.1Z" fill="#fff"/><path d="M1196.5,815.1c0,10.2-3.9,18.2-11.7,23.7s-19,8.3-33.3,8.3-27.6-2.4-36.6-7.1V828.7a80.2,80.2,0,0,0,36.6,8.7q16.9,0,25.8-5.7c5.9-3.8,8.8-8.8,8.8-15.1a18.5,18.5,0,0,0-7-14.6c-4.7-3.9-12.4-7.8-23.1-11.6s-19.6-7.7-24.2-10.7a32.1,32.1,0,0,1-10.5-10.2q-3.6-5.6-3.6-13.8c0-8.6,3.6-15.4,10.9-20.4s17.3-7.5,30.3-7.5a90,90,0,0,1,35.3,7l-3.9,9.5c-11.3-4.6-21.8-7-31.4-7s-16.9,1.6-22.4,4.7-8.2,7.4-8.2,12.9,2.1,10.8,6.4,14.4,12.6,7.6,25,12c10.4,3.8,17.9,7.1,22.6,10.1a32.9,32.9,0,0,1,10.7,10.2A25.6,25.6,0,0,1,1196.5,815.1Z" fill="#fff"/><rect x="1444.7" y="732.8" width="123.2" height="123.21" rx="30.5" ry="30.5" fill="#00538b"/><rect x="1938.8" y="732.8" width="123.2" height="123.21" rx="30.5" ry="30.5" fill="#76777a"/><path d="M1637.2,787.8a6.4,6.4,0,0,1-2.3,5.2,10.9,10.9,0,0,1-6.5,1.7h-2.6v8.7h-2.6v-22h5.7C1634.4,781.4,1637.2,783.5,1637.2,787.8Zm-11.4,4.8h2.3a8.6,8.6,0,0,0,4.9-1.1,4.3,4.3,0,0,0,1.5-3.6,3.6,3.6,0,0,0-1.4-3.2,7.3,7.3,0,0,0-4.4-1.1h-2.9Z" fill="#76777a"/><path d="M1651.5,803.4l-7.4-19.5h-.2a45.3,45.3,0,0,1,.2,5.5v14h-2.3v-22h3.8l7,18.1h.1l7-18.1h3.9v22H1661V789.2c0-1.6.1-3.4.2-5.3h-.1l-7.5,19.5Z" fill="#76777a"/><path d="M1682,797.5a5.5,5.5,0,0,1-2.1,4.6,9,9,0,0,1-5.7,1.6,13.8,13.8,0,0,1-6-1v-2.5a14,14,0,0,0,2.9.9,17.5,17.5,0,0,0,3.2.4,6.4,6.4,0,0,0,3.8-1,3.2,3.2,0,0,0,1.3-2.7,3.6,3.6,0,0,0-.4-1.9,4.3,4.3,0,0,0-1.6-1.3,21.1,21.1,0,0,0-3.2-1.4,10.4,10.4,0,0,1-4.4-2.6,5.7,5.7,0,0,1-1.3-4,4.7,4.7,0,0,1,1.9-4,7.6,7.6,0,0,1,5-1.5,14.6,14.6,0,0,1,6,1.2l-.8,2.2a14.3,14.3,0,0,0-5.2-1.1,4.9,4.9,0,0,0-3.2.9,2.6,2.6,0,0,0-1.2,2.4,3.2,3.2,0,0,0,.5,1.8,3.1,3.1,0,0,0,1.4,1.4,18.7,18.7,0,0,0,3,1.3c2.3.9,3.9,1.7,4.8,2.7A4.8,4.8,0,0,1,1682,797.5Z" fill="#76777a"/><path d="M1695.8,803.4l9.1-19.7h-12v-2.3h14.6v2l-9,20Z" fill="#76777a"/><path d="M1726.1,798.3h-3.3v5.1h-2.4v-5.1h-10.7v-2.1l10.5-14.9h2.6v14.8h3.3Zm-5.7-2.2v-7.3c0-1.5.1-3.1.2-4.9h-.1a22.1,22.1,0,0,1-1.4,2.4l-6.9,9.8Z" fill="#76777a"/><path d="M1728.5,794c0-4.3.8-7.6,2.5-9.7a8.9,8.9,0,0,1,7.4-3.2,9.1,9.1,0,0,1,2.7.3v2.1a10.3,10.3,0,0,0-2.6-.3,6.5,6.5,0,0,0-5.4,2.2q-1.9,2.1-2.1,6.9h.2a5.7,5.7,0,0,1,5.2-2.6,6.1,6.1,0,0,1,4.7,1.8,6.9,6.9,0,0,1,1.7,4.8,7.3,7.3,0,0,1-1.9,5.4,6.5,6.5,0,0,1-5,2,6.5,6.5,0,0,1-5.4-2.6C1729.1,799.4,1728.5,797,1728.5,794Zm7.3,7.6a4.3,4.3,0,0,0,3.4-1.4,6.2,6.2,0,0,0,1.1-3.9,4.7,4.7,0,0,0-1.1-3.4,4.1,4.1,0,0,0-3.2-1.2,6.6,6.6,0,0,0-2.5.5,4,4,0,0,0-1.8,1.6,3.1,3.1,0,0,0-.7,2,7.2,7.2,0,0,0,.6,2.9,5.1,5.1,0,0,0,1.7,2.1A4.6,4.6,0,0,0,1735.8,801.6Z" fill="#76777a"/><path d="M1760.3,803.4h-14.5v-2.2l5.8-5.8a41.2,41.2,0,0,0,3.5-3.8,10.5,10.5,0,0,0,1.3-2.2,8.6,8.6,0,0,0,.4-2.4,3.5,3.5,0,0,0-1.1-2.7,4.1,4.1,0,0,0-3-1.1,7,7,0,0,0-2.5.5,9,9,0,0,0-2.8,1.6l-1.3-1.7a9.9,9.9,0,0,1,6.6-2.5,6.9,6.9,0,0,1,4.9,1.6,5.2,5.2,0,0,1,1.7,4.2,9.4,9.4,0,0,1-1.1,4.2,31.8,31.8,0,0,1-4.4,5.2L1749,801h11.3Z" fill="#76777a"/><path d="M1782.4,783.4a7.3,7.3,0,0,0-5.8,2.4,9.7,9.7,0,0,0-2.1,6.6,9.8,9.8,0,0,0,2.1,6.7,7.2,7.2,0,0,0,5.7,2.3,18,18,0,0,0,5.3-.8v2.2a15.5,15.5,0,0,1-5.7.9,9.6,9.6,0,0,1-7.5-3c-1.7-1.9-2.6-4.7-2.6-8.3a12.6,12.6,0,0,1,1.3-6,8.5,8.5,0,0,1,3.6-3.9,11.5,11.5,0,0,1,5.7-1.4,12.6,12.6,0,0,1,6,1.3l-1,2.2A11.8,11.8,0,0,0,1782.4,783.4Z" fill="#76777a"/><path d="M2131.3,787.8a6.4,6.4,0,0,1-2.3,5.2,10.9,10.9,0,0,1-6.5,1.7h-2.6v8.7h-2.6v-22h5.7C2128.5,781.4,2131.3,783.5,2131.3,787.8Zm-11.4,4.8h2.3a8.6,8.6,0,0,0,4.9-1.1,4.3,4.3,0,0,0,1.5-3.6,3.6,3.6,0,0,0-1.4-3.2,7.3,7.3,0,0,0-4.4-1.1h-2.9Z" fill="#76777a"/><path d="M2145.6,803.4l-7.4-19.5h-.2a45.3,45.3,0,0,1,.2,5.5v14h-2.3v-22h3.8l7,18.1h.1l7-18.1h3.9v22h-2.6V789.2c0-1.6.1-3.4.2-5.3h-.1l-7.5,19.5Z" fill="#76777a"/><path d="M2176.1,797.5a5.5,5.5,0,0,1-2.1,4.6,9,9,0,0,1-5.7,1.6,13.8,13.8,0,0,1-6-1v-2.5a14,14,0,0,0,2.9.9,17.5,17.5,0,0,0,3.2.4,6.4,6.4,0,0,0,3.8-1,3.2,3.2,0,0,0,1.3-2.7,3.6,3.6,0,0,0-.4-1.9,4.3,4.3,0,0,0-1.6-1.3,21.1,21.1,0,0,0-3.2-1.4,10.4,10.4,0,0,1-4.4-2.6,5.7,5.7,0,0,1-1.3-4,4.7,4.7,0,0,1,1.9-4,7.6,7.6,0,0,1,5-1.5,14.6,14.6,0,0,1,6,1.2l-.7,2.2a15.2,15.2,0,0,0-5.3-1.1,4.9,4.9,0,0,0-3.2.9,2.6,2.6,0,0,0-1.2,2.4,3.2,3.2,0,0,0,.5,1.8,3.1,3.1,0,0,0,1.4,1.4,18.7,18.7,0,0,0,3,1.3c2.3.9,3.9,1.7,4.8,2.7A4.8,4.8,0,0,1,2176.1,797.5Z" fill="#76777a"/><path d="M2198,783.4a7.2,7.2,0,0,0-5.7,2.4,9.7,9.7,0,0,0-2.1,6.6,10.3,10.3,0,0,0,2,6.7,7.5,7.5,0,0,0,5.8,2.3,17.4,17.4,0,0,0,5.2-.8v2.2a15.3,15.3,0,0,1-5.6.9,9.6,9.6,0,0,1-7.5-3c-1.8-1.9-2.6-4.7-2.6-8.3a14,14,0,0,1,1.2-6,9.3,9.3,0,0,1,3.7-3.9,11.3,11.3,0,0,1,5.6-1.4,12.8,12.8,0,0,1,6.1,1.3l-1.1,2.2A11.5,11.5,0,0,0,2198,783.4Z" fill="#76777a"/><path d="M2221.9,795.1a9.3,9.3,0,0,1-2,6.3,7.5,7.5,0,0,1-5.7,2.3,7.6,7.6,0,0,1-3.9-1,7,7,0,0,1-2.6-3,10.8,10.8,0,0,1-1-4.6,8.8,8.8,0,0,1,2.1-6.2,7.1,7.1,0,0,1,5.6-2.3,6.8,6.8,0,0,1,5.4,2.3A8.8,8.8,0,0,1,2221.9,795.1Zm-12.6,0a7.9,7.9,0,0,0,1.3,4.9,5.1,5.1,0,0,0,7.4,0,7.5,7.5,0,0,0,1.3-4.9,7.1,7.1,0,0,0-1.3-4.7,4.4,4.4,0,0,0-3.7-1.7,4.5,4.5,0,0,0-3.7,1.6A7.4,7.4,0,0,0,2209.3,795.1Z" fill="#76777a"/><path d="M2240.5,795.1a9.3,9.3,0,0,1-2,6.3,7.5,7.5,0,0,1-5.7,2.3,7.6,7.6,0,0,1-3.9-1,7,7,0,0,1-2.6-3,10.8,10.8,0,0,1-1-4.6,8.8,8.8,0,0,1,2.1-6.2,7.1,7.1,0,0,1,5.6-2.3,7.2,7.2,0,0,1,5.5,2.3A9.2,9.2,0,0,1,2240.5,795.1Zm-12.6,0a8.6,8.6,0,0,0,1.3,4.9,5.1,5.1,0,0,0,7.4,0,7.5,7.5,0,0,0,1.3-4.9,7.1,7.1,0,0,0-1.3-4.7,4.4,4.4,0,0,0-3.7-1.7,4.5,4.5,0,0,0-3.7,1.6A7.4,7.4,0,0,0,2227.9,795.1Z" fill="#76777a"/><path d="M2247.4,803.4h-2.5V780h2.5Z" fill="#76777a"/><path d="M2270.7,791.9h7.5v10.7l-3.6.8a25.8,25.8,0,0,1-4.2.3c-3.3,0-5.9-1-7.7-3s-2.8-4.7-2.8-8.3a11.6,11.6,0,0,1,1.4-6,9.2,9.2,0,0,1,3.9-3.9,12.2,12.2,0,0,1,6.1-1.4,15.7,15.7,0,0,1,6.5,1.3l-.9,2.2a15.4,15.4,0,0,0-5.8-1.2,8,8,0,0,0-6.2,2.4c-1.6,1.6-2.3,3.8-2.3,6.6s.7,5.2,2.2,6.8,3.5,2.3,6.4,2.3a16.1,16.1,0,0,0,4.4-.6v-6.7h-4.9Z" fill="#76777a"/><path d="M2290.6,786.6l2,.2-.4,2.3-1.8-.2a4.3,4.3,0,0,0-3.4,1.6,6.2,6.2,0,0,0-1.4,4.1v8.8h-2.5V786.9h2l.3,3.1h.1a8,8,0,0,1,2.3-2.5A4.7,4.7,0,0,1,2290.6,786.6Z" fill="#76777a"/><path d="M2305.8,803.4l-.5-2.3h-.1a6.3,6.3,0,0,1-2.5,2,6.7,6.7,0,0,1-3,.6,5.3,5.3,0,0,1-3.9-1.3,4.6,4.6,0,0,1-1.4-3.6c0-3.3,2.7-5,8-5.2h2.8v-1a4.6,4.6,0,0,0-.8-2.9,3.7,3.7,0,0,0-2.7-.9,10.5,10.5,0,0,0-4.7,1.3l-.7-1.9a11.9,11.9,0,0,1,2.6-1.1,15.4,15.4,0,0,1,3-.4,6,6,0,0,1,4.3,1.4c1,.8,1.4,2.2,1.4,4.1v11.3Zm-5.6-1.8a5.2,5.2,0,0,0,3.6-1.2,4.8,4.8,0,0,0,1.3-3.6v-1.5h-2.5a9.7,9.7,0,0,0-4.2.9,2.9,2.9,0,0,0-1.4,2.6,2.3,2.3,0,0,0,.9,2A3.2,3.2,0,0,0,2300.2,801.6Z" fill="#76777a"/><path d="M2310.2,786.9h2.6l3.7,9.4c.7,2.2,1.2,3.7,1.4,4.7h.1l.9-2.7c.4-1.2,1.7-5,4.1-11.4h2.6l-7.1,18.8a9.3,9.3,0,0,1-2.4,3.9,5.3,5.3,0,0,1-3.5,1.2,8.3,8.3,0,0,1-2.2-.3v-2a5,5,0,0,0,1.8.2,3.8,3.8,0,0,0,3.7-2.9l.9-2.3Z" fill="#76777a"/><path d="M2346.1,783.4a7.2,7.2,0,0,0-5.7,2.4,9.7,9.7,0,0,0-2.1,6.6,10.3,10.3,0,0,0,2,6.7,7.4,7.4,0,0,0,5.8,2.3,17.4,17.4,0,0,0,5.2-.8v2.2a15.3,15.3,0,0,1-5.6.9q-4.9,0-7.5-3c-1.8-1.9-2.7-4.7-2.7-8.3a14,14,0,0,1,1.3-6,9.3,9.3,0,0,1,3.7-3.9,11.3,11.3,0,0,1,5.6-1.4,13.3,13.3,0,0,1,6.1,1.3l-1.1,2.2A11.5,11.5,0,0,0,2346.1,783.4Z" fill="#76777a"/></svg>