<svg id="Layer_1" data-name="Layer 1" xmlns="http://www.w3.org/2000/svg" width="2500" height="1406" viewBox="0 0 2500 1406"><title>amces-finals</title><rect width="2500" height="1406" fill="#fff"/><path d="M403.5,208c-.1-.2-.4-.4-.6-.3L208.4,279.3c-.2,0-.3.2-.3.4a.6.6,0,0,0,.2.5l102.3,79.7h.7a.6.6,0,0,0,.1-.7l-63.2-72.3,155.1-78.2A.6.6,0,0,0,403.5,208Z" fill="#00538b"/><path d="M400.7,215.2a.6.6,0,0,0-.7-.1l-50.2,27.7a.7.7,0,0,0-.3.6.7.7,0,0,0,.5.4l8.8.6-44,108.1c-.1.3,0,.5.3.7h.2l.4-.2,85-137.2A.5.5,0,0,0,400.7,215.2Z" fill="#76777a"/><path d="M418.2,335.2v.7l-2.3.2a3.3,3.3,0,0,1,1,2.5,3.3,3.3,0,0,1-1.1,2.5,3.9,3.9,0,0,1-2.8,1h-1.1a2.2,2.2,0,0,0-.9.7,1.6,1.6,0,0,0-.3.9.8.8,0,0,0,.4.8l1.3.2h1.9a4.4,4.4,0,0,1,2.8.8,2.5,2.5,0,0,1,.9,2.1,2.9,2.9,0,0,1-1.4,2.7,7.4,7.4,0,0,1-4,.9,4.9,4.9,0,0,1-3.2-.8,2.4,2.4,0,0,1-1.2-2.2,3.2,3.2,0,0,1,.7-1.9,3.8,3.8,0,0,1,2-1,1.2,1.2,0,0,1-.8-.6,1.6,1.6,0,0,1-.3-.9,2.4,2.4,0,0,1,1.4-2,2.3,2.3,0,0,1-1.5-1.2,3.3,3.3,0,0,1-.6-1.9A3.6,3.6,0,0,1,413,335l1.7.2Zm-8.9,12.9c0,1.5,1.1,2.3,3.4,2.3s4.3-.9,4.3-2.8a1.5,1.5,0,0,0-.7-1.4,3.7,3.7,0,0,0-2.2-.5h-1.8Q409.3,345.7,409.3,348.1Zm.8-9.4a2.4,2.4,0,0,0,.8,1.9,3.5,3.5,0,0,0,4.2,0,2.4,2.4,0,0,0,.7-2,3,3,0,0,0-4.9-2.1A3.3,3.3,0,0,0,410.1,338.7Z" fill="#76777a"/><path d="M424.8,335h1.5v1l-1.5-.2a2.8,2.8,0,0,0-2.3,1.2,5,5,0,0,0-.9,3.1v6h-1v-11h.8l.2,2h0a5.2,5.2,0,0,1,1.5-1.7A3.5,3.5,0,0,1,424.8,335Z" fill="#76777a"/><path d="M437.7,340.7a6,6,0,0,1-1.3,4.2,4.7,4.7,0,0,1-3.6,1.6,5.6,5.6,0,0,1-2.6-.7,5.1,5.1,0,0,1-1.7-2.1,6.7,6.7,0,0,1-.6-3,6.1,6.1,0,0,1,1.4-4.2,4.3,4.3,0,0,1,3.6-1.5,4.3,4.3,0,0,1,3.5,1.5A6,6,0,0,1,437.7,340.7Zm-8.7,0a5.7,5.7,0,0,0,1,3.6,3.5,3.5,0,0,0,2.8,1.2,3.7,3.7,0,0,0,2.9-1.2,6.4,6.4,0,0,0,1-3.6,5.2,5.2,0,0,0-1.1-3.5,3.2,3.2,0,0,0-2.8-1.3,3.3,3.3,0,0,0-2.8,1.3A5.2,5.2,0,0,0,429,340.7Z" fill="#76777a"/><path d="M449.6,346.2l-2.4-7.3a16.2,16.2,0,0,1-.6-2.2h-.1l-.2.7-.5,1.5-2.4,7.3h-1l-3.2-11h1.1l1.8,6.4c.4,1.6.7,2.8.8,3.5h.1c.4-1.6.6-2.6.8-3.2l2.3-6.7h.9l2.2,6.7c.5,1.6.8,2.7.9,3.2h0c.1-.5.4-1.6.8-3.6l1.7-6.3h1l-3,11Z" fill="#76777a"/><path d="M509.3,332.1c0-.6.2-.9.7-.9l.5.2a1.5,1.5,0,0,1,.1.7,1.7,1.7,0,0,1-.1.8l-.5.2C509.5,333.1,509.3,332.8,509.3,332.1Zm1.2,14.1h-1v-11h1Z" fill="#76777a"/><path d="M521.9,346.2v-7.1a3.8,3.8,0,0,0-.7-2.4,2.9,2.9,0,0,0-2.2-.8,3.7,3.7,0,0,0-2.9,1,5,5,0,0,0-.9,3.3v6h-1v-11h.8l.2,1.5h.1a4.2,4.2,0,0,1,3.8-1.7c2.5,0,3.8,1.3,3.8,4v7.2Z" fill="#76777a"/><path d="M533.3,343.4a2.8,2.8,0,0,1-1.1,2.3,6.1,6.1,0,0,1-3.2.8,8.8,8.8,0,0,1-3.6-.7v-1.1a8.6,8.6,0,0,0,3.6.8,5.1,5.1,0,0,0,2.4-.5,1.7,1.7,0,0,0,.2-2.9,7.4,7.4,0,0,0-2.2-1.1,10.8,10.8,0,0,1-2.3-1,2.4,2.4,0,0,1-1-1,2,2,0,0,1-.4-1.3,2.4,2.4,0,0,1,1.1-2,4.6,4.6,0,0,1,2.9-.7,8,8,0,0,1,3.4.7l-.4.9a7.2,7.2,0,0,0-3-.7,4.5,4.5,0,0,0-2.2.5,1.4,1.4,0,0,0-.8,1.2,1.8,1.8,0,0,0,.6,1.4,14.2,14.2,0,0,0,2.4,1.1,12,12,0,0,1,2.2,1,2.4,2.4,0,0,1,1,1A2,2,0,0,1,533.3,343.4Z" fill="#76777a"/><path d="M540.8,346.5a4,4,0,0,1-3.7-2h0v6.7h-1v-16h.9l.2,1.6h0a4.7,4.7,0,0,1,7.1-.3,7,7,0,0,1,1.1,4.2,6.7,6.7,0,0,1-1.2,4.3A4.1,4.1,0,0,1,540.8,346.5Zm0-.9a3,3,0,0,0,2.6-1.3,5.2,5.2,0,0,0,1-3.5c0-3.3-1.2-4.9-3.5-4.9A3.7,3.7,0,0,0,538,337a5.1,5.1,0,0,0-.9,3.4v.4a6.1,6.1,0,0,0,.9,3.7A3.5,3.5,0,0,0,540.8,345.6Z" fill="#76777a"/><path d="M548.4,332.1q0-.9.6-.9l.5.2a1.4,1.4,0,0,1,.2.7,1.5,1.5,0,0,1-.2.8l-.5.2C548.6,333.1,548.4,332.8,548.4,332.1Zm1.1,14.1h-1v-11h1Z" fill="#76777a"/><path d="M557.5,335H559v1l-1.5-.2a2.8,2.8,0,0,0-2.3,1.2,5,5,0,0,0-.9,3.1v6h-1v-11h.8l.2,2h0a5.2,5.2,0,0,1,1.5-1.7A3.5,3.5,0,0,1,557.5,335Z" fill="#76777a"/><path d="M565.7,346.5A4.7,4.7,0,0,1,562,345a6.1,6.1,0,0,1-1.4-4.2,6.8,6.8,0,0,1,1.3-4.2,4.4,4.4,0,0,1,3.6-1.6,3.6,3.6,0,0,1,3,1.4,5.3,5.3,0,0,1,1.2,3.7v.8h-8a5,5,0,0,0,1.1,3.4,3.7,3.7,0,0,0,2.9,1.2h1.7l1.8-.6v1l-1.7.5Zm-.2-10.6a3.3,3.3,0,0,0-2.6,1,4.8,4.8,0,0,0-1.1,3.1h6.8a5.1,5.1,0,0,0-.8-3A3,3,0,0,0,565.5,335.9Z" fill="#76777a"/><path d="M638.4,343.4a2.6,2.6,0,0,1-1.1,2.3,5.8,5.8,0,0,1-3.2.8,8.3,8.3,0,0,1-3.5-.7v-1.1a8.5,8.5,0,0,0,3.5.8,5.5,5.5,0,0,0,2.5-.5,1.9,1.9,0,0,0,.8-1.5,2,2,0,0,0-.6-1.4,8.2,8.2,0,0,0-2.3-1.1l-2.3-1a3.2,3.2,0,0,1-1-1,2.8,2.8,0,0,1-.3-1.3,2.3,2.3,0,0,1,1-2,5,5,0,0,1,2.9-.7,8,8,0,0,1,3.4.7l-.4.9a7.2,7.2,0,0,0-3-.7,4.1,4.1,0,0,0-2.1.5,1.2,1.2,0,0,0-.8,1.2,1.8,1.8,0,0,0,.6,1.4,9.2,9.2,0,0,0,2.4,1.1l2.2,1a3.2,3.2,0,0,1,1,1A2.8,2.8,0,0,1,638.4,343.4Z" fill="#76777a"/><path d="M642.1,335.2v7.2a3.8,3.8,0,0,0,.7,2.4,2.9,2.9,0,0,0,2.2.7,3.7,3.7,0,0,0,2.9-1,4.5,4.5,0,0,0,.9-3.2v-6.1h1v11H649l-.2-1.5h-.1a4.1,4.1,0,0,1-3.8,1.8c-2.5,0-3.8-1.4-3.8-4.1v-7.2Z" fill="#76777a"/><path d="M657.9,346.5a4.8,4.8,0,0,1-3.7-1.5,6,6,0,0,1-1.3-4.2,6.3,6.3,0,0,1,1.4-4.3,4.9,4.9,0,0,1,3.8-1.5,8.1,8.1,0,0,1,2.7.5l-.2.9a9.2,9.2,0,0,0-2.5-.5,3.6,3.6,0,0,0-3.1,1.3,5.3,5.3,0,0,0-1,3.6,5.4,5.4,0,0,0,1,3.5,3.7,3.7,0,0,0,2.9,1.2,6.4,6.4,0,0,0,2.8-.5v.9A5.5,5.5,0,0,1,657.9,346.5Z" fill="#76777a"/><path d="M667.8,346.5a4.7,4.7,0,0,1-3.7-1.5,6,6,0,0,1-1.3-4.2,5.9,5.9,0,0,1,1.4-4.3A4.9,4.9,0,0,1,668,335a8.6,8.6,0,0,1,2.7.5l-.3.9a7.9,7.9,0,0,0-2.4-.5,3.6,3.6,0,0,0-3.1,1.3,5.3,5.3,0,0,0-1.1,3.6,5.4,5.4,0,0,0,1.1,3.5,3.6,3.6,0,0,0,2.9,1.2,6.6,6.6,0,0,0,2.8-.5v.9A5.5,5.5,0,0,1,667.8,346.5Z" fill="#76777a"/><path d="M677.7,346.5A4.7,4.7,0,0,1,674,345a6,6,0,0,1-1.3-4.2,6.2,6.2,0,0,1,1.3-4.2,4.1,4.1,0,0,1,3.5-1.6,3.6,3.6,0,0,1,3,1.4,5.3,5.3,0,0,1,1.2,3.7v.8h-8a5,5,0,0,0,1.1,3.4,3.7,3.7,0,0,0,2.9,1.2h1.7l1.8-.6v1l-1.7.5Zm-.2-10.6a3.3,3.3,0,0,0-2.6,1,5.5,5.5,0,0,0-1.1,3.1h6.8a5.1,5.1,0,0,0-.8-3A3,3,0,0,0,677.5,335.9Z" fill="#76777a"/><path d="M689.2,346.5a4.9,4.9,0,0,1-3.8-1.5,6,6,0,0,1-1.3-4.2,6.2,6.2,0,0,1,1.3-4.2,4.1,4.1,0,0,1,3.5-1.6,3.6,3.6,0,0,1,3,1.4,5.3,5.3,0,0,1,1.2,3.7v.8h-8a5,5,0,0,0,1.1,3.4,3.8,3.8,0,0,0,3,1.2h1.6l1.8-.6v1l-1.7.5Zm-.3-10.6a3.4,3.4,0,0,0-2.6,1,5.5,5.5,0,0,0-1.1,3.1H692a5.1,5.1,0,0,0-.8-3A3,3,0,0,0,688.9,335.9Z" fill="#76777a"/><path d="M700.2,335a4.2,4.2,0,0,1,2,.4,4.5,4.5,0,0,1,1.6,1.5h.1a20.9,20.9,0,0,1-.1-2.5v-3.9h1v15.7h-.7l-.2-1.6h-.1a4.6,4.6,0,0,1-7.1.4,6.1,6.1,0,0,1-1.2-4.1,7,7,0,0,1,1.2-4.4A4.1,4.1,0,0,1,700.2,335Zm0,.9a3.2,3.2,0,0,0-2.8,1.3,6.3,6.3,0,0,0-.9,3.7c0,3.1,1.2,4.7,3.7,4.7a3.4,3.4,0,0,0,2.7-1.1,5.8,5.8,0,0,0,.9-3.6v-.2a6.1,6.1,0,0,0-.9-3.7A3.2,3.2,0,0,0,700.2,335.9Z" fill="#76777a"/><path d="M448,309.4l-3.1-8.1h-.4c-2.8,3.4-5.6,5.8-8.5,7.1s-6.6,2-11.3,2-10.2-1.6-13.5-4.9-4.9-7.9-4.9-13.9,2.2-11,6.6-14,11.1-4.7,20-5l10.4-.3v-2.6c0-6.1-3.1-9.1-9.3-9.1s-10.4,1.5-16.8,4.3L411.8,254a48.5,48.5,0,0,1,22.8-5.4c8,0,14.1,1.7,18.4,5.2s6.4,8.8,6.4,15.9v39.7Zm-4.7-27.6-6.3.2c-4.7.1-8.3,1-10.6,2.5s-3.4,4-3.4,7.2,2.6,6.8,7.8,6.8,6.8-1,9.1-3.2a11.6,11.6,0,0,0,3.4-8.6Z" fill="#00538b"/><path d="M520.7,309.4H504.5V274.6c0-4.3-.8-7.5-2.2-9.7s-3.7-3.2-6.8-3.2-7.2,1.5-9,4.6-2.9,8-2.9,15v28.1H467.4V249.8h12.4l2.2,7.6h.9a17.1,17.1,0,0,1,6.9-6.4,23.1,23.1,0,0,1,10.4-2.3c8.9,0,14.9,2.9,18.1,8.7h1.4a16.4,16.4,0,0,1,7.1-6.4,23.8,23.8,0,0,1,10.5-2.3c6.8,0,11.9,1.7,15.3,5.2s5.2,9,5.2,16.6v38.9H541.5V274.6c0-4.3-.7-7.5-2.1-9.7a7.8,7.8,0,0,0-6.8-3.2c-4,0-7,1.4-8.9,4.3s-3,7.3-3,13.5Z" fill="#00538b"/><path d="M592.2,310.4c-8.3,0-14.7-2.6-19.4-7.8s-7-12.5-7-21.8,2.4-17.1,7.2-22.4,11.6-8.1,20-8.1a39.2,39.2,0,0,1,14.4,2.7l-1.4,4.6a44.5,44.5,0,0,0-13.1-2.5c-7.1,0-12.5,2.2-16.1,6.6s-5.5,10.7-5.5,19,1.8,13.9,5.5,18.3,8.7,6.6,15.3,6.6a37.7,37.7,0,0,0,14.7-2.8v4.9C603.1,309.5,598.2,310.4,592.2,310.4Z" fill="#76777a"/><path d="M637.8,310.4c-8.5,0-15-2.6-19.7-7.8s-7.1-12.4-7.1-21.7,2.3-16.7,6.8-22.2,10.7-8.4,18.4-8.4,12.2,2.4,16.1,7.2,6,11.2,6,19.4v4.2H616.6c0,8,1.9,14.1,5.5,18.2s8.9,6.3,15.7,6.3a45.1,45.1,0,0,0,8.7-.7A50.4,50.4,0,0,0,656,302v4.7a38,38,0,0,1-9.1,2.9A43.4,43.4,0,0,1,637.8,310.4ZM636.2,255a17.6,17.6,0,0,0-13.4,5.5c-3.4,3.7-5.3,9-5.9,15.9h35.8c0-6.7-1.5-11.9-4.4-15.7S641.4,255,636.2,255Z" fill="#76777a"/><path d="M705.8,294.3c0,5.2-2,9.2-5.9,11.9s-9.6,4.2-16.8,4.2-13.9-1.2-18.4-3.5v-5.7a40.5,40.5,0,0,0,18.4,4.3c5.7,0,10-.9,13-2.8a8.6,8.6,0,0,0,4.4-7.6,9.2,9.2,0,0,0-3.5-7.4c-2.4-2-6.2-3.9-11.6-5.8s-9.9-3.9-12.2-5.4a16.3,16.3,0,0,1-5.3-5.1,13,13,0,0,1-1.8-7,12.1,12.1,0,0,1,5.4-10.3c3.7-2.5,8.8-3.8,15.3-3.8a44.6,44.6,0,0,1,17.8,3.6l-2,4.8a40.7,40.7,0,0,0-15.8-3.6c-4.7,0-8.5.8-11.2,2.4s-4.2,3.7-4.2,6.5a9,9,0,0,0,3.2,7.2c2.2,1.8,6.4,3.9,12.6,6.1a61.8,61.8,0,0,1,11.4,5.1,16.6,16.6,0,0,1,5.4,5.1A12.5,12.5,0,0,1,705.8,294.3Z" fill="#76777a"/><path d="M403.5,627.1a.5.5,0,0,0-.6-.2L208.4,698.4c-.2.1-.3.2-.3.4s0,.4.2.5l102.3,79.8h.4l.3-.2a.6.6,0,0,0,.1-.7L248.2,706l155.1-78.2A.6.6,0,0,0,403.5,627.1Z" fill="#007298"/><path d="M399.6,631.5a.6.6,0,0,0-.7-.1l-51.1,28.4a.6.6,0,0,0-.3.6.7.7,0,0,0,.5.4l8.8.6L313.4,775a.5.5,0,0,0,.3.7h.2a.5.5,0,0,0,.4-.2l85.3-143.4C399.8,631.9,399.7,631.7,399.6,631.5Z" fill="#76777a"/><path d="M418.2,754.3v.7l-2.3.2a3.5,3.5,0,0,1,1,2.5,3.6,3.6,0,0,1-1.1,2.6,4.3,4.3,0,0,1-2.8,1h-1.1a3.5,3.5,0,0,0-.9.7,1.6,1.6,0,0,0-.3.9c0,.4.1.7.4.8a2.1,2.1,0,0,0,1.3.3h1.9a4.5,4.5,0,0,1,2.8.7,2.6,2.6,0,0,1,.9,2.1,2.9,2.9,0,0,1-1.4,2.7,6.6,6.6,0,0,1-4,1,5.6,5.6,0,0,1-3.2-.8,2.7,2.7,0,0,1-1.2-2.3,2.9,2.9,0,0,1,.7-1.8,3.9,3.9,0,0,1,2-1.1,1.2,1.2,0,0,1-.8-.6,1.2,1.2,0,0,1-.3-.9,2.2,2.2,0,0,1,1.4-1.9,2.8,2.8,0,0,1-1.5-1.3,3.1,3.1,0,0,1-.6-1.9,3.7,3.7,0,0,1,1.1-2.7,4.1,4.1,0,0,1,2.8-1l1.7.2Zm-8.9,12.9c0,1.6,1.1,2.3,3.4,2.3s4.3-.9,4.3-2.7a1.6,1.6,0,0,0-.7-1.5,3.9,3.9,0,0,0-2.2-.4h-1.8C410.3,764.9,409.3,765.7,409.3,767.2Zm.8-9.4a2.8,2.8,0,0,0,.8,2,3.5,3.5,0,0,0,4.2,0,3.5,3.5,0,0,0,0-4.2,3.3,3.3,0,0,0-2.1-.7,2.7,2.7,0,0,0-2.9,2.9Z" fill="#76777a"/><path d="M424.8,754.1l1.5.2v.9h-1.5a2.8,2.8,0,0,0-2.3,1.2,4.9,4.9,0,0,0-.9,3v6.1h-1V754.3h.8l.2,2h0a6.5,6.5,0,0,1,1.5-1.7A3.5,3.5,0,0,1,424.8,754.1Z" fill="#76777a"/><path d="M437.7,759.8a6.3,6.3,0,0,1-1.3,4.3,5.1,5.1,0,0,1-6.2.8,5.5,5.5,0,0,1-1.7-2,7.5,7.5,0,0,1-.6-3.1,6.1,6.1,0,0,1,1.4-4.2,4.3,4.3,0,0,1,3.6-1.5,4.1,4.1,0,0,1,3.5,1.6A5.9,5.9,0,0,1,437.7,759.8Zm-8.7,0a5.5,5.5,0,0,0,1,3.6,3.6,3.6,0,0,0,2.8,1.3,3.8,3.8,0,0,0,2.9-1.3,6.2,6.2,0,0,0,1-3.6,5.2,5.2,0,0,0-1.1-3.5,3.4,3.4,0,0,0-2.8-1.3,3.6,3.6,0,0,0-2.8,1.3A5.2,5.2,0,0,0,429,759.8Z" fill="#76777a"/><path d="M449.6,765.4l-2.4-7.4a12.9,12.9,0,0,1-.6-2.2h-.1l-.2.7-.5,1.5-2.4,7.4h-1l-3.2-11.1h1.1l1.8,6.4c.4,1.6.7,2.8.8,3.5h.1c.4-1.6.6-2.6.8-3.1l2.3-6.8h.9l2.2,6.8a31,31,0,0,1,.9,3.1h0c.1-.4.4-1.6.8-3.5l1.7-6.4h1l-3,11.1Z" fill="#76777a"/><path d="M509.3,751.3c0-.7.2-1,.7-1s.3.1.5.3.1.4.1.7a1.5,1.5,0,0,1-.1.7c-.2.2-.3.3-.5.3S509.3,751.9,509.3,751.3Zm1.2,14.1h-1V754.3h1Z" fill="#76777a"/><path d="M521.9,765.4v-7.2a3.8,3.8,0,0,0-.7-2.4,2.9,2.9,0,0,0-2.2-.8,4,4,0,0,0-2.9,1,5,5,0,0,0-.9,3.3v6.1h-1V754.3h.8l.2,1.6h.1a4.1,4.1,0,0,1,3.8-1.8c2.5,0,3.8,1.4,3.8,4.1v7.2Z" fill="#76777a"/><path d="M533.3,762.5a2.7,2.7,0,0,1-1.1,2.3,6.1,6.1,0,0,1-3.2.8,7.4,7.4,0,0,1-3.6-.7v-1.1a7.3,7.3,0,0,0,3.6.8,4.1,4.1,0,0,0,2.4-.5,1.6,1.6,0,0,0,.9-1.4,1.5,1.5,0,0,0-.7-1.4,7.2,7.2,0,0,0-2.2-1.2,10.8,10.8,0,0,1-2.3-1,2.4,2.4,0,0,1-1-1,1.8,1.8,0,0,1-.4-1.3,2.1,2.1,0,0,1,1.1-1.9,4.6,4.6,0,0,1,2.9-.8,9.8,9.8,0,0,1,3.4.7l-.4.9a9.2,9.2,0,0,0-3-.7,4.5,4.5,0,0,0-2.2.5,1.4,1.4,0,0,0-.8,1.2,1.7,1.7,0,0,0,.6,1.4,13.1,13.1,0,0,0,2.4,1.2,13.5,13.5,0,0,1,2.2.9,3.1,3.1,0,0,1,1,1A2,2,0,0,1,533.3,762.5Z" fill="#76777a"/><path d="M540.8,765.6a4.2,4.2,0,0,1-3.7-1.9h0v6.7h-1V754.3h.9l.2,1.6h0a4.7,4.7,0,0,1,7.1-.3,7.4,7.4,0,0,1,1.1,4.3,6.6,6.6,0,0,1-1.2,4.2A4.1,4.1,0,0,1,540.8,765.6Zm0-.9a2.8,2.8,0,0,0,2.6-1.3,5.2,5.2,0,0,0,1-3.5c0-3.2-1.2-4.9-3.5-4.9a3.7,3.7,0,0,0-2.9,1.1,5.4,5.4,0,0,0-.9,3.5v.3a6.1,6.1,0,0,0,.9,3.7A3.5,3.5,0,0,0,540.8,764.7Z" fill="#76777a"/><path d="M548.4,751.3c0-.7.2-1,.6-1a.5.5,0,0,1,.5.3,1.2,1.2,0,0,1,.2.7,1.4,1.4,0,0,1-.2.7.5.5,0,0,1-.5.3C548.6,752.3,548.4,751.9,548.4,751.3Zm1.1,14.1h-1V754.3h1Z" fill="#76777a"/><path d="M557.5,754.1l1.5.2v.9h-1.5a2.8,2.8,0,0,0-2.3,1.2,4.9,4.9,0,0,0-.9,3v6.1h-1V754.3h.8l.2,2h0a6.5,6.5,0,0,1,1.5-1.7A3.5,3.5,0,0,1,557.5,754.1Z" fill="#76777a"/><path d="M565.7,765.6a4.7,4.7,0,0,1-3.7-1.5,6.1,6.1,0,0,1-1.4-4.2,7,7,0,0,1,1.3-4.2,4.7,4.7,0,0,1,3.6-1.6,3.6,3.6,0,0,1,3,1.4,5.3,5.3,0,0,1,1.2,3.7v.8h-8a5.2,5.2,0,0,0,1.1,3.5,3.7,3.7,0,0,0,2.9,1.2l1.7-.2a4.9,4.9,0,0,0,1.8-.5v.9a6.4,6.4,0,0,1-1.7.5Zm-.2-10.6a3.3,3.3,0,0,0-2.6,1.1,4.5,4.5,0,0,0-1.1,3h6.8a5.1,5.1,0,0,0-.8-3A3,3,0,0,0,565.5,755Z" fill="#76777a"/><path d="M638.4,762.5a2.5,2.5,0,0,1-1.1,2.3,5.8,5.8,0,0,1-3.2.8,7,7,0,0,1-3.5-.7v-1.1a7.2,7.2,0,0,0,3.5.8,4.4,4.4,0,0,0,2.5-.5,1.7,1.7,0,0,0,.8-1.4,1.7,1.7,0,0,0-.6-1.4,7.9,7.9,0,0,0-2.3-1.2l-2.3-1a3.2,3.2,0,0,1-1-1,2.5,2.5,0,0,1-.3-1.3,2.1,2.1,0,0,1,1-1.9,5,5,0,0,1,2.9-.8,9.8,9.8,0,0,1,3.4.7l-.4.9a9.2,9.2,0,0,0-3-.7,4.1,4.1,0,0,0-2.1.5,1.2,1.2,0,0,0-.8,1.2,1.7,1.7,0,0,0,.6,1.4,8.6,8.6,0,0,0,2.4,1.2,19,19,0,0,1,2.2.9,4.7,4.7,0,0,1,1,1A2.8,2.8,0,0,1,638.4,762.5Z" fill="#76777a"/><path d="M642.1,754.3v7.2a3.8,3.8,0,0,0,.7,2.4,2.9,2.9,0,0,0,2.2.8,4,4,0,0,0,2.9-1,5,5,0,0,0,.9-3.3v-6.1h1v11.1H649l-.2-1.5h-.1a4.2,4.2,0,0,1-3.8,1.7c-2.5,0-3.8-1.4-3.8-4v-7.3Z" fill="#76777a"/><path d="M657.9,765.6a4.8,4.8,0,0,1-3.7-1.5,7.2,7.2,0,0,1,.1-8.4,4.6,4.6,0,0,1,3.8-1.6,8.1,8.1,0,0,1,2.7.5l-.2.9a9.2,9.2,0,0,0-2.5-.5,3.9,3.9,0,0,0-3.1,1.3,5.3,5.3,0,0,0-1,3.6,5.2,5.2,0,0,0,1,3.5,3.8,3.8,0,0,0,2.9,1.3,6.4,6.4,0,0,0,2.8-.6v1A7,7,0,0,1,657.9,765.6Z" fill="#76777a"/><path d="M667.8,765.6a4.7,4.7,0,0,1-3.7-1.5,6,6,0,0,1-1.3-4.2,5.6,5.6,0,0,1,1.4-4.2,4.6,4.6,0,0,1,3.8-1.6,8.6,8.6,0,0,1,2.7.5l-.3.9a7.9,7.9,0,0,0-2.4-.5,3.9,3.9,0,0,0-3.1,1.3,5.3,5.3,0,0,0-1.1,3.6,5.2,5.2,0,0,0,1.1,3.5,3.6,3.6,0,0,0,2.9,1.3,6.7,6.7,0,0,0,2.8-.6v1A7,7,0,0,1,667.8,765.6Z" fill="#76777a"/><path d="M677.7,765.6a4.7,4.7,0,0,1-3.7-1.5,6,6,0,0,1-1.3-4.2,6.4,6.4,0,0,1,1.3-4.2,4.3,4.3,0,0,1,3.5-1.6,3.6,3.6,0,0,1,3,1.4,5.3,5.3,0,0,1,1.2,3.7v.8h-8a5.2,5.2,0,0,0,1.1,3.5,3.7,3.7,0,0,0,2.9,1.2l1.7-.2a4.9,4.9,0,0,0,1.8-.5v.9a6.4,6.4,0,0,1-1.7.5Zm-.2-10.6a3.3,3.3,0,0,0-2.6,1.1,5.1,5.1,0,0,0-1.1,3h6.8a5.1,5.1,0,0,0-.8-3A3,3,0,0,0,677.5,755Z" fill="#76777a"/><path d="M689.2,765.6a4.9,4.9,0,0,1-3.8-1.5,6,6,0,0,1-1.3-4.2,6.4,6.4,0,0,1,1.3-4.2,4.3,4.3,0,0,1,3.5-1.6,3.6,3.6,0,0,1,3,1.4,5.3,5.3,0,0,1,1.2,3.7v.8h-8a5.2,5.2,0,0,0,1.1,3.5,3.8,3.8,0,0,0,3,1.2l1.6-.2a4.9,4.9,0,0,0,1.8-.5v.9a6.4,6.4,0,0,1-1.7.5Zm-.3-10.6a3.5,3.5,0,0,0-2.6,1.1,5.1,5.1,0,0,0-1.1,3H692a5.1,5.1,0,0,0-.8-3A3,3,0,0,0,688.9,755Z" fill="#76777a"/><path d="M700.2,754.1a4.2,4.2,0,0,1,2,.5,4.5,4.5,0,0,1,1.6,1.5h.1a21.8,21.8,0,0,1-.1-2.5v-4h1v15.8h-.7l-.2-1.7h-.1a4,4,0,0,1-3.6,1.9,4.5,4.5,0,0,1-3.5-1.4,6.6,6.6,0,0,1-1.2-4.2,7.2,7.2,0,0,1,1.2-4.4A4.1,4.1,0,0,1,700.2,754.1Zm0,.9a3.4,3.4,0,0,0-2.8,1.3,6.5,6.5,0,0,0-.9,3.7c0,3.1,1.2,4.7,3.7,4.7a3.4,3.4,0,0,0,2.7-1.1,5.6,5.6,0,0,0,.9-3.6v-.2a5.6,5.6,0,0,0-.9-3.6A3,3,0,0,0,700.2,755Z" fill="#76777a"/><path d="M448,728.5l-3.1-8.1h-.4a26.1,26.1,0,0,1-8.5,7.2,27.6,27.6,0,0,1-11.3,2c-5.7,0-10.2-1.7-13.5-4.9s-4.9-8-4.9-14,2.2-11,6.6-14,11.1-4.6,20-5l10.4-.3v-2.6q0-9-9.3-9c-4.8,0-10.4,1.4-16.8,4.3l-5.4-11a48.5,48.5,0,0,1,22.8-5.4c8,0,14.1,1.8,18.4,5.2s6.4,8.8,6.4,15.9v39.7Zm-4.7-27.6-6.3.2c-4.7.2-8.3,1-10.6,2.6s-3.4,3.9-3.4,7.1,2.6,6.9,7.8,6.9a12.6,12.6,0,0,0,9.1-3.3,11.4,11.4,0,0,0,3.4-8.6Z" fill="#007298"/><path d="M520.7,728.5H504.5V693.7c0-4.3-.8-7.5-2.2-9.7s-3.7-3.2-6.8-3.2-7.2,1.6-9,4.6-2.9,8.1-2.9,15.1v28H467.4V668.9h12.4l2.2,7.7h.9a16.7,16.7,0,0,1,6.9-6.5,23.1,23.1,0,0,1,10.4-2.3c8.9,0,14.9,2.9,18.1,8.8h1.4a16,16,0,0,1,7.1-6.5,23.8,23.8,0,0,1,10.5-2.3c6.8,0,11.9,1.8,15.3,5.2s5.2,9,5.2,16.7v38.8H541.5V693.7c0-4.3-.7-7.5-2.1-9.7a7.8,7.8,0,0,0-6.8-3.2c-4,0-7,1.4-8.9,4.3s-3,7.3-3,13.5Z" fill="#007298"/><path d="M592.2,729.6c-8.3,0-14.7-2.7-19.4-7.9s-7-12.5-7-21.8,2.4-17.1,7.2-22.4,11.6-8,20-8a41.3,41.3,0,0,1,14.4,2.6l-1.4,4.7a41.5,41.5,0,0,0-13.1-2.5c-7.1,0-12.5,2.2-16.1,6.6s-5.5,10.6-5.5,18.9,1.8,13.9,5.5,18.3,8.7,6.7,15.3,6.7a37.8,37.8,0,0,0,14.7-2.9v4.9C603.1,728.6,598.2,729.6,592.2,729.6Z" fill="#76777a"/><path d="M637.8,729.6c-8.5,0-15-2.6-19.7-7.8S611,709.3,611,700s2.3-16.6,6.8-22.2,10.7-8.3,18.4-8.3,12.2,2.4,16.1,7.1,6,11.2,6,19.4v4.3H616.6c0,7.9,1.9,14,5.5,18.2s8.9,6.3,15.7,6.3a54.7,54.7,0,0,0,8.7-.7,61.3,61.3,0,0,0,9.5-3v4.8a43.1,43.1,0,0,1-9.1,2.9A51.4,51.4,0,0,1,637.8,729.6Zm-1.6-55.4c-5.6,0-10,1.8-13.4,5.5s-5.3,9-5.9,15.9h35.8c0-6.7-1.5-12-4.4-15.8S641.4,674.2,636.2,674.2Z" fill="#76777a"/><path d="M705.8,713.4a13.9,13.9,0,0,1-5.9,12q-6,4.2-16.8,4.2c-7.8,0-13.9-1.2-18.4-3.6v-5.7a40.6,40.6,0,0,0,18.4,4.4c5.7,0,10-1,13-2.9a8.5,8.5,0,0,0,4.4-7.6,9,9,0,0,0-3.5-7.3c-2.4-2-6.2-4-11.6-5.9s-9.9-3.9-12.2-5.4a16.3,16.3,0,0,1-5.3-5.1,12.8,12.8,0,0,1-1.8-7,11.8,11.8,0,0,1,5.4-10.2c3.7-2.6,8.8-3.8,15.3-3.8a46.3,46.3,0,0,1,17.8,3.5l-2,4.8a40.5,40.5,0,0,0-15.8-3.5c-4.7,0-8.5.8-11.2,2.3s-4.2,3.7-4.2,6.5a9.4,9.4,0,0,0,3.2,7.3q3.3,2.7,12.6,6a61.8,61.8,0,0,1,11.4,5.1,15.9,15.9,0,0,1,5.4,5.2A12.2,12.2,0,0,1,705.8,713.4Z" fill="#76777a"/><path d="M403.5,1046.3a.4.4,0,0,0-.6-.3l-194.5,71.5c-.2.1-.3.2-.3.4s0,.4.2.5l102.3,79.8h.4l.3-.2a.6.6,0,0,0,.1-.7l-63.2-72.2,155.1-78.3A.5.5,0,0,0,403.5,1046.3Z" fill="#5b89b4"/><path d="M399.6,1050.6a.8.8,0,0,0-.7-.1l-51.1,28.4a.7.7,0,0,0-.3.6.7.7,0,0,0,.5.4l8.8.6-43.4,113.7a.4.4,0,0,0,.3.6h.2c.2,0,.3-.1.4-.3l85.3-143.4C399.8,1051,399.7,1050.8,399.6,1050.6Z" fill="#76777a"/><path d="M418.2,1173.5v.7h-2.3a3.6,3.6,0,0,1,1,2.5,3.5,3.5,0,0,1-1.1,2.6,3.9,3.9,0,0,1-2.8,1h-1.1a2.4,2.4,0,0,0-.9.8,1.6,1.6,0,0,0-.3.9.7.7,0,0,0,.4.7,2.1,2.1,0,0,0,1.3.3h1.9a4.5,4.5,0,0,1,2.8.7,2.7,2.7,0,0,1,.9,2.2,3.1,3.1,0,0,1-1.4,2.7,7.4,7.4,0,0,1-4,.9,5.6,5.6,0,0,1-3.2-.8,2.5,2.5,0,0,1-1.2-2.2,2.9,2.9,0,0,1,.7-1.9,3.2,3.2,0,0,1,2-1,2.8,2.8,0,0,1-.8-.6,1.6,1.6,0,0,1-.3-.9c0-.8.4-1.4,1.4-2a3.1,3.1,0,0,1-1.5-1.2,3.6,3.6,0,0,1-.6-2,3.3,3.3,0,0,1,1.1-2.6,3.7,3.7,0,0,1,2.8-1,4.2,4.2,0,0,1,1.7.2Zm-8.9,12.9c0,1.5,1.1,2.3,3.4,2.3s4.3-1,4.3-2.8a1.6,1.6,0,0,0-.7-1.5,3.9,3.9,0,0,0-2.2-.4h-1.8Q409.3,1184,409.3,1186.4Zm.8-9.5a2.6,2.6,0,0,0,.8,2,3.5,3.5,0,0,0,4.2,0,2.6,2.6,0,0,0,.7-2,2.5,2.5,0,0,0-.7-2.1,3.5,3.5,0,0,0-4.2,0A2.9,2.9,0,0,0,410.1,1176.9Z" fill="#76777a"/><path d="M424.8,1173.3h1.5v1l-1.5-.2a2.8,2.8,0,0,0-2.3,1.2,4.9,4.9,0,0,0-.9,3v6.1h-1v-11h.8l.2,2h0a5.2,5.2,0,0,1,1.5-1.7A2.7,2.7,0,0,1,424.8,1173.3Z" fill="#76777a"/><path d="M437.7,1179a6,6,0,0,1-1.3,4.2,5.1,5.1,0,0,1-6.2.8,4.8,4.8,0,0,1-1.7-2,7.3,7.3,0,0,1-.6-3,6.1,6.1,0,0,1,1.4-4.2,4.3,4.3,0,0,1,3.6-1.5,4.3,4.3,0,0,1,3.5,1.5A6,6,0,0,1,437.7,1179Zm-8.7,0a5.2,5.2,0,0,0,1,3.5,3.3,3.3,0,0,0,2.8,1.3,3.5,3.5,0,0,0,2.9-1.3,5.8,5.8,0,0,0,1-3.5,5.7,5.7,0,0,0-1.1-3.6,3.4,3.4,0,0,0-2.8-1.2,3.5,3.5,0,0,0-2.8,1.2A5.7,5.7,0,0,0,429,1179Z" fill="#76777a"/><path d="M449.6,1184.5l-2.4-7.4a12.9,12.9,0,0,1-.6-2.2h-.1l-.2.8-.5,1.5-2.4,7.3h-1l-3.2-11h1.1l1.8,6.4c.4,1.6.7,2.7.8,3.5h.1c.4-1.6.6-2.7.8-3.2l2.3-6.7h.9l2.2,6.7c.5,1.6.8,2.6.9,3.1h0c.1-.4.4-1.6.8-3.5l1.7-6.3h1l-3,11Z" fill="#76777a"/><path d="M509.3,1170.4c0-.6.2-1,.7-1s.3.1.5.3a1.5,1.5,0,0,1,.1.7c0,.3,0,.6-.1.7s-.3.3-.5.3S509.3,1171.1,509.3,1170.4Zm1.2,14.1h-1v-11h1Z" fill="#76777a"/><path d="M521.9,1184.5v-7.1a3.9,3.9,0,0,0-.7-2.5,2.9,2.9,0,0,0-2.2-.7,3.7,3.7,0,0,0-2.9,1,4.5,4.5,0,0,0-.9,3.2v6.1h-1v-11h.8l.2,1.5h.1c.7-1.2,2-1.7,3.8-1.7s3.8,1.3,3.8,4v7.2Z" fill="#76777a"/><path d="M533.3,1181.6a2.7,2.7,0,0,1-1.1,2.3,5.3,5.3,0,0,1-3.2.8,7.4,7.4,0,0,1-3.6-.7v-1.1a7.4,7.4,0,0,0,3.6.9,4,4,0,0,0,2.4-.6,1.5,1.5,0,0,0,.9-1.4,1.6,1.6,0,0,0-.7-1.4,5.6,5.6,0,0,0-2.2-1.1,9.9,9.9,0,0,1-2.3-1.1,2.2,2.2,0,0,1-1-.9,2.1,2.1,0,0,1-.4-1.4,2.3,2.3,0,0,1,1.1-1.9,4.6,4.6,0,0,1,2.9-.7,9.7,9.7,0,0,1,3.4.6l-.4.9a8.9,8.9,0,0,0-3-.6,4.6,4.6,0,0,0-2.2.4,1.4,1.4,0,0,0-.8,1.3,1.6,1.6,0,0,0,.6,1.3,8.8,8.8,0,0,0,2.4,1.2,12,12,0,0,1,2.2,1,3,3,0,0,1,1,.9A2,2,0,0,1,533.3,1181.6Z" fill="#76777a"/><path d="M540.8,1184.7a4,4,0,0,1-3.7-1.9h0v6.7h-1v-16h.9l.2,1.6h0a4.1,4.1,0,0,1,3.7-1.8,4.3,4.3,0,0,1,3.4,1.4,7.4,7.4,0,0,1,1.1,4.3,6.6,6.6,0,0,1-1.2,4.2A4.1,4.1,0,0,1,540.8,1184.7Zm0-.9a3,3,0,0,0,2.6-1.2,5.7,5.7,0,0,0,1-3.6c0-3.2-1.2-4.8-3.5-4.8a3.7,3.7,0,0,0-2.9,1,5.4,5.4,0,0,0-.9,3.5v.3a5.9,5.9,0,0,0,.9,3.7A3.2,3.2,0,0,0,540.8,1183.8Z" fill="#76777a"/><path d="M548.4,1170.4c0-.6.2-1,.6-1a.5.5,0,0,1,.5.3,1.4,1.4,0,0,1,.2.7,1.2,1.2,0,0,1-.2.7.5.5,0,0,1-.5.3C548.6,1171.4,548.4,1171.1,548.4,1170.4Zm1.1,14.1h-1v-11h1Z" fill="#76777a"/><path d="M557.5,1173.3H559v1l-1.5-.2a2.8,2.8,0,0,0-2.3,1.2,4.9,4.9,0,0,0-.9,3v6.1h-1v-11h.8l.2,2h0a5.2,5.2,0,0,1,1.5-1.7A2.7,2.7,0,0,1,557.5,1173.3Z" fill="#76777a"/><path d="M565.7,1184.7a4.7,4.7,0,0,1-3.7-1.5,5.8,5.8,0,0,1-1.4-4.1,6.6,6.6,0,0,1,1.3-4.2,4.4,4.4,0,0,1,3.6-1.6,3.5,3.5,0,0,1,3,1.3,5.5,5.5,0,0,1,1.2,3.7v.8h-8a5.2,5.2,0,0,0,1.1,3.5,3.7,3.7,0,0,0,2.9,1.2h1.7l1.8-.6v.9l-1.7.6Zm-.2-10.5a3.3,3.3,0,0,0-2.6,1,4.5,4.5,0,0,0-1.1,3h6.8a5.6,5.6,0,0,0-.8-3A2.9,2.9,0,0,0,565.5,1174.2Z" fill="#76777a"/><path d="M638.4,1181.6a2.5,2.5,0,0,1-1.1,2.3,5.1,5.1,0,0,1-3.2.8,7,7,0,0,1-3.5-.7v-1.1a7.3,7.3,0,0,0,3.5.9,4.4,4.4,0,0,0,2.5-.6,1.6,1.6,0,0,0,.8-1.4,1.8,1.8,0,0,0-.6-1.4,6.1,6.1,0,0,0-2.3-1.1,12.5,12.5,0,0,1-2.3-1.1,2.3,2.3,0,0,1-1.3-2.3,2.2,2.2,0,0,1,1-1.9,5,5,0,0,1,2.9-.7,9.7,9.7,0,0,1,3.4.6l-.4.9a8.9,8.9,0,0,0-3-.6,4.1,4.1,0,0,0-2.1.4,1.3,1.3,0,0,0-.8,1.3,1.6,1.6,0,0,0,.6,1.3,6.5,6.5,0,0,0,2.4,1.2l2.2,1a4.5,4.5,0,0,1,1,.9A2.8,2.8,0,0,1,638.4,1181.6Z" fill="#76777a"/><path d="M642.1,1173.5v7.1a3.8,3.8,0,0,0,.7,2.4,2.9,2.9,0,0,0,2.2.8,3.7,3.7,0,0,0,2.9-1,4.7,4.7,0,0,0,.9-3.2v-6.1h1v11H649l-.2-1.5h-.1a4.2,4.2,0,0,1-3.8,1.7c-2.5,0-3.8-1.3-3.8-4v-7.2Z" fill="#76777a"/><path d="M657.9,1184.7a4.8,4.8,0,0,1-3.7-1.5,5.9,5.9,0,0,1-1.3-4.1,6.2,6.2,0,0,1,1.4-4.3,4.9,4.9,0,0,1,3.8-1.5,6.2,6.2,0,0,1,2.7.5l-.2.9a6.5,6.5,0,0,0-2.5-.5,3.9,3.9,0,0,0-3.1,1.2,5.7,5.7,0,0,0-1,3.6,5.2,5.2,0,0,0,1,3.5,3.5,3.5,0,0,0,2.9,1.3,8.2,8.2,0,0,0,2.8-.5v.9A7,7,0,0,1,657.9,1184.7Z" fill="#76777a"/><path d="M667.8,1184.7a4.7,4.7,0,0,1-3.7-1.5,5.9,5.9,0,0,1-1.3-4.1,5.7,5.7,0,0,1,1.4-4.3,4.9,4.9,0,0,1,3.8-1.5,6.5,6.5,0,0,1,2.7.5l-.3.9a5.7,5.7,0,0,0-2.4-.5,3.9,3.9,0,0,0-3.1,1.2,5.7,5.7,0,0,0-1.1,3.6,5.2,5.2,0,0,0,1.1,3.5,3.4,3.4,0,0,0,2.9,1.3,8.7,8.7,0,0,0,2.8-.5v.9A7,7,0,0,1,667.8,1184.7Z" fill="#76777a"/><path d="M677.7,1184.7a4.7,4.7,0,0,1-3.7-1.5,5.8,5.8,0,0,1-1.3-4.1,6,6,0,0,1,1.3-4.2,4.1,4.1,0,0,1,3.5-1.6,3.5,3.5,0,0,1,3,1.3,5.5,5.5,0,0,1,1.2,3.7v.8h-8a5.2,5.2,0,0,0,1.1,3.5,3.7,3.7,0,0,0,2.9,1.2h1.7l1.8-.6v.9l-1.7.6Zm-.2-10.5a3.3,3.3,0,0,0-2.6,1,5.1,5.1,0,0,0-1.1,3h6.8a5.6,5.6,0,0,0-.8-3A2.9,2.9,0,0,0,677.5,1174.2Z" fill="#76777a"/><path d="M689.2,1184.7a4.9,4.9,0,0,1-3.8-1.5,5.8,5.8,0,0,1-1.3-4.1,6,6,0,0,1,1.3-4.2,4.1,4.1,0,0,1,3.5-1.6,3.5,3.5,0,0,1,3,1.3,5.5,5.5,0,0,1,1.2,3.7v.8h-8a5.2,5.2,0,0,0,1.1,3.5,3.8,3.8,0,0,0,3,1.2h1.6l1.8-.6v.9l-1.7.6Zm-.3-10.5a3.4,3.4,0,0,0-2.6,1,5.1,5.1,0,0,0-1.1,3H692a5.6,5.6,0,0,0-.8-3A2.9,2.9,0,0,0,688.9,1174.2Z" fill="#76777a"/><path d="M700.2,1173.3a4.2,4.2,0,0,1,2,.4,4.5,4.5,0,0,1,1.6,1.5h.1a21.8,21.8,0,0,1-.1-2.5v-4h1v15.8h-.7l-.2-1.7h-.1a4,4,0,0,1-3.6,1.9,4.5,4.5,0,0,1-3.5-1.4,6.3,6.3,0,0,1-1.2-4.1,6.8,6.8,0,0,1,1.2-4.4A4.1,4.1,0,0,1,700.2,1173.3Zm0,.9a3.4,3.4,0,0,0-2.8,1.2,6.5,6.5,0,0,0-.9,3.7c0,3.2,1.2,4.7,3.7,4.7a3.1,3.1,0,0,0,2.7-1.1,5.4,5.4,0,0,0,.9-3.5v-.2a5.9,5.9,0,0,0-.9-3.7A3.2,3.2,0,0,0,700.2,1174.2Z" fill="#76777a"/><path d="M448,1147.6l-3.1-8.1h-.4c-2.8,3.5-5.6,5.9-8.5,7.2a27.6,27.6,0,0,1-11.3,2c-5.7,0-10.2-1.7-13.5-4.9s-4.9-7.9-4.9-14,2.2-10.9,6.6-13.9,11.1-4.7,20-5l10.4-.3v-2.7q0-9-9.3-9c-4.8,0-10.4,1.4-16.8,4.3l-5.4-11a48.5,48.5,0,0,1,22.8-5.3c8,0,14.1,1.7,18.4,5.2s6.4,8.7,6.4,15.8v39.7Zm-4.7-27.6-6.3.2c-4.7.2-8.3,1-10.6,2.6s-3.4,3.9-3.4,7.1,2.6,6.9,7.8,6.9a12.9,12.9,0,0,0,9.1-3.2,11.8,11.8,0,0,0,3.4-8.7Z" fill="#5b89b4"/><path d="M520.7,1147.6H504.5v-34.8c0-4.3-.8-7.5-2.2-9.6s-3.7-3.2-6.8-3.2-7.2,1.5-9,4.5-2.9,8.1-2.9,15.1v28H467.4v-59.5h12.4l2.2,7.6h.9a16.5,16.5,0,0,1,6.9-6.4,21.8,21.8,0,0,1,10.4-2.3c8.9,0,14.9,2.9,18.1,8.7h1.4a15.8,15.8,0,0,1,7.1-6.4,22.5,22.5,0,0,1,10.5-2.3c6.8,0,11.9,1.7,15.3,5.2s5.2,9,5.2,16.6v38.8H541.5v-34.8q0-6.5-2.1-9.6c-1.5-2.2-3.7-3.2-6.8-3.2s-7,1.4-8.9,4.2-3,7.4-3,13.5Z" fill="#5b89b4"/><path d="M592.2,1148.7c-8.3,0-14.7-2.6-19.4-7.8s-7-12.5-7-21.9,2.4-17,7.2-22.4,11.6-8,20-8a41.3,41.3,0,0,1,14.4,2.6l-1.4,4.7a41.5,41.5,0,0,0-13.1-2.5c-7.1,0-12.5,2.2-16.1,6.6s-5.5,10.7-5.5,18.9,1.8,13.9,5.5,18.4,8.7,6.6,15.3,6.6a39.6,39.6,0,0,0,14.7-2.8v4.9C603.1,1147.8,598.2,1148.7,592.2,1148.7Z" fill="#76777a"/><path d="M637.8,1148.7c-8.5,0-15-2.6-19.7-7.8s-7.1-12.4-7.1-21.8,2.3-16.6,6.8-22.2,10.7-8.3,18.4-8.3,12.2,2.4,16.1,7.1,6,11.3,6,19.4v4.3H616.6c0,7.9,1.9,14,5.5,18.2s8.9,6.3,15.7,6.3a45.1,45.1,0,0,0,8.7-.7,61.3,61.3,0,0,0,9.5-3v4.8a43.1,43.1,0,0,1-9.1,2.9A51.4,51.4,0,0,1,637.8,1148.7Zm-1.6-55.4c-5.6,0-10,1.8-13.4,5.5s-5.3,9-5.9,15.9h35.8c0-6.7-1.5-11.9-4.4-15.7S641.4,1093.3,636.2,1093.3Z" fill="#76777a"/><path d="M705.8,1132.5a13.9,13.9,0,0,1-5.9,12q-6,4.2-16.8,4.2c-7.8,0-13.9-1.2-18.4-3.6v-5.7a40.6,40.6,0,0,0,18.4,4.4c5.7,0,10-1,13-2.9a8.5,8.5,0,0,0,4.4-7.6,9,9,0,0,0-3.5-7.3c-2.4-2-6.2-3.9-11.6-5.9s-9.9-3.9-12.2-5.4a16.3,16.3,0,0,1-5.3-5.1,12.7,12.7,0,0,1-1.8-6.9,11.8,11.8,0,0,1,5.4-10.3c3.7-2.5,8.8-3.8,15.3-3.8a46.3,46.3,0,0,1,17.8,3.5l-2,4.8a42.4,42.4,0,0,0-15.8-3.5c-4.7,0-8.5.8-11.2,2.3s-4.2,3.8-4.2,6.5a9.1,9.1,0,0,0,3.2,7.3c2.2,1.8,6.4,3.8,12.6,6.1a56.6,56.6,0,0,1,11.4,5,18,18,0,0,1,5.4,5.2A12.4,12.4,0,0,1,705.8,1132.5Z" fill="#76777a"/><path d="M1194,208a.6.6,0,0,0-.7-.3L998.9,279.3c-.2,0-.3.2-.3.4s0,.3.1.5l102.4,79.7h.7a.5.5,0,0,0,0-.7l-63.2-72.3,155.1-78.2A.5.5,0,0,0,1194,208Z" fill="#76777a"/><path d="M1191.1,215.2c-.1-.2-.4-.2-.6-.1l-50.2,27.7c-.2.1-.4.4-.3.6a.5.5,0,0,0,.5.4l8.8.6-44,108.1a.6.6,0,0,0,.2.7h.3l.4-.2,85-137.2C1191.3,215.6,1191.3,215.3,1191.1,215.2Z" fill="#00538b"/><path d="M1208.7,335.2v.7l-2.3.2a3.7,3.7,0,0,1,.9,2.5,3.2,3.2,0,0,1-1,2.5,3.9,3.9,0,0,1-2.9,1h-1l-1,.7a1.6,1.6,0,0,0-.3.9,1,1,0,0,0,.4.8l1.4.2h1.9a4.7,4.7,0,0,1,2.8.8,2.5,2.5,0,0,1,.9,2.1,3.1,3.1,0,0,1-1.4,2.7,7.4,7.4,0,0,1-4,.9,5.4,5.4,0,0,1-3.3-.8,2.5,2.5,0,0,1-1.1-2.2,2.6,2.6,0,0,1,.7-1.9,3.9,3.9,0,0,1,1.9-1,1.6,1.6,0,0,1-.8-.6,1.6,1.6,0,0,1-.3-.9,2.6,2.6,0,0,1,1.4-2,2.9,2.9,0,0,1-1.5-1.2,4.1,4.1,0,0,1-.5-1.9,3.6,3.6,0,0,1,1-2.7,3.9,3.9,0,0,1,2.9-1l1.7.2Zm-8.9,12.9c0,1.5,1.1,2.3,3.3,2.3s4.4-.9,4.4-2.8a1.5,1.5,0,0,0-.7-1.4,4,4,0,0,0-2.2-.5h-1.8Q1199.8,345.7,1199.8,348.1Zm.8-9.4a2.4,2.4,0,0,0,.8,1.9,3.5,3.5,0,0,0,4.2,0,2.4,2.4,0,0,0,.7-2,2.8,2.8,0,0,0-.7-2.1,3.1,3.1,0,0,0-2.2-.7,2.7,2.7,0,0,0-2,.7A3.3,3.3,0,0,0,1200.6,338.7Z" fill="#76777a"/><path d="M1215.3,335h1.5l-.2,1-1.4-.2a2.7,2.7,0,0,0-2.3,1.2,5,5,0,0,0-.9,3.1v6h-1v-11h.8v2h.1a3.4,3.4,0,0,1,3.3-2.2Z" fill="#76777a"/><path d="M1228.2,340.7a6.6,6.6,0,0,1-1.3,4.2,4.7,4.7,0,0,1-3.6,1.6,5.3,5.3,0,0,1-2.6-.7,5.1,5.1,0,0,1-1.7-2.1,6.7,6.7,0,0,1-.6-3,6,6,0,0,1,1.3-4.2,5.1,5.1,0,0,1,7.2,0A6.6,6.6,0,0,1,1228.2,340.7Zm-8.7,0a5.7,5.7,0,0,0,1,3.6,3.9,3.9,0,0,0,5.6,0,5.7,5.7,0,0,0,1-3.6,5.2,5.2,0,0,0-1-3.5,3.3,3.3,0,0,0-2.8-1.3,3.2,3.2,0,0,0-2.8,1.3A5.2,5.2,0,0,0,1219.5,340.7Z" fill="#76777a"/><path d="M1240.1,346.2l-2.5-7.3a19.4,19.4,0,0,0-.6-2.2h0l-.2.7-.5,1.5-2.4,7.3h-1l-3.2-11h1.1l1.7,6.4c.5,1.6.7,2.8.9,3.5h0c.4-1.6.7-2.6.9-3.2l2.3-6.7h.9l2.1,6.7c.5,1.6.8,2.7.9,3.2h.1c.1-.5.3-1.6.8-3.6l1.7-6.3h1l-3,11Z" fill="#76777a"/><path d="M1316.9,332.1q0-.9.6-.9a.6.6,0,0,1,.5.2.8.8,0,0,1,.2.7c0,.4,0,.6-.2.8a.6.6,0,0,1-.5.2C1317.1,333.1,1316.9,332.8,1316.9,332.1Zm1.2,14.1H1317v-11h1.1Z" fill="#76777a"/><path d="M1329.4,346.2v-7.1a3.3,3.3,0,0,0-.7-2.4,2.6,2.6,0,0,0-2.1-.8,3.7,3.7,0,0,0-2.9,1,5,5,0,0,0-.9,3.3v6h-1v-11h.8l.2,1.5h.1a4.2,4.2,0,0,1,3.8-1.7c2.5,0,3.7,1.3,3.7,4v7.2Z" fill="#76777a"/><path d="M1340.9,343.4a2.7,2.7,0,0,1-1.2,2.3,5.6,5.6,0,0,1-3.2.8,8.7,8.7,0,0,1-3.5-.7v-1.1a8.5,8.5,0,0,0,3.5.8,5.2,5.2,0,0,0,2.5-.5,1.8,1.8,0,0,0,.9-1.5,2.1,2.1,0,0,0-.7-1.4,8.9,8.9,0,0,0-2.2-1.1l-2.4-1-1-1a2.8,2.8,0,0,1-.3-1.3,2.3,2.3,0,0,1,1-2,5,5,0,0,1,2.9-.7,7.7,7.7,0,0,1,3.4.7l-.3.9a7.3,7.3,0,0,0-3.1-.7,4.1,4.1,0,0,0-2.1.5,1.4,1.4,0,0,0-.8,1.2,1.8,1.8,0,0,0,.6,1.4,9.2,9.2,0,0,0,2.4,1.1l2.2,1a2.4,2.4,0,0,1,1,1A2.8,2.8,0,0,1,1340.9,343.4Z" fill="#76777a"/><path d="M1348.4,346.5a4,4,0,0,1-3.7-2h-.1v6.7h-1v-16h.9v1.6h.1a4,4,0,0,1,3.6-1.8,3.9,3.9,0,0,1,3.4,1.5,6.4,6.4,0,0,1,1.2,4.2,6.7,6.7,0,0,1-1.2,4.3A4.2,4.2,0,0,1,1348.4,346.5Zm0-.9a3.2,3.2,0,0,0,2.6-1.3,5.8,5.8,0,0,0,1-3.5c0-3.3-1.2-4.9-3.6-4.9a3.6,3.6,0,0,0-2.8,1.1,5.1,5.1,0,0,0-.9,3.4v.4a6.1,6.1,0,0,0,.9,3.7A3.5,3.5,0,0,0,1348.4,345.6Z" fill="#76777a"/><path d="M1355.9,332.1c0-.6.2-.9.7-.9l.5.2a1.5,1.5,0,0,1,.1.7,1.7,1.7,0,0,1-.1.8l-.5.2C1356.1,333.1,1355.9,332.8,1355.9,332.1Zm1.2,14.1h-1v-11h1Z" fill="#76777a"/><path d="M1365.1,335h1.5l-.2,1-1.4-.2a2.8,2.8,0,0,0-2.3,1.2,5,5,0,0,0-.9,3.1v6h-1v-11h.8v2h.1a4.3,4.3,0,0,1,1.5-1.7A3.5,3.5,0,0,1,1365.1,335Z" fill="#76777a"/><path d="M1373.3,346.5a4.7,4.7,0,0,1-3.7-1.5,6.1,6.1,0,0,1-1.4-4.2,6.8,6.8,0,0,1,1.3-4.2,4.3,4.3,0,0,1,3.5-1.6,3.8,3.8,0,0,1,3.1,1.4,5.3,5.3,0,0,1,1.1,3.7v.8h-7.9a5.5,5.5,0,0,0,1,3.4,3.8,3.8,0,0,0,3,1.2h1.7l1.8-.6v1l-1.7.5Zm-.3-10.6a3.2,3.2,0,0,0-2.5,1,5.5,5.5,0,0,0-1.2,3.1h6.9a4.5,4.5,0,0,0-.9-3A2.7,2.7,0,0,0,1373,335.9Z" fill="#76777a"/><path d="M1433.2,343.4a2.6,2.6,0,0,1-1.1,2.3,5.6,5.6,0,0,1-3.2.8,8.3,8.3,0,0,1-3.5-.7v-1.1a8.5,8.5,0,0,0,3.5.8,5.5,5.5,0,0,0,2.5-.5,1.7,1.7,0,0,0,.8-1.5,2,2,0,0,0-.6-1.4,8.2,8.2,0,0,0-2.3-1.1l-2.3-1a3.2,3.2,0,0,1-1-1,2.8,2.8,0,0,1-.3-1.3,2.3,2.3,0,0,1,1-2,5,5,0,0,1,2.9-.7,8,8,0,0,1,3.4.7l-.4.9a6.9,6.9,0,0,0-3-.7,4.1,4.1,0,0,0-2.1.5,1.2,1.2,0,0,0-.8,1.2,1.8,1.8,0,0,0,.6,1.4,9.2,9.2,0,0,0,2.4,1.1l2.2,1a3.2,3.2,0,0,1,1,1A2.8,2.8,0,0,1,1433.2,343.4Z" fill="#76777a"/><path d="M1436.9,335.2v7.2a3.3,3.3,0,0,0,.8,2.4,2.5,2.5,0,0,0,2.1.7,3.7,3.7,0,0,0,2.9-1,4.5,4.5,0,0,0,1-3.2v-6.1h.9v11h-.8l-.2-1.5h-.1c-.7,1.2-1.9,1.8-3.8,1.8s-3.7-1.4-3.7-4.1v-7.2Z" fill="#76777a"/><path d="M1452.7,346.5a4.8,4.8,0,0,1-3.7-1.5,6,6,0,0,1-1.3-4.2,6.3,6.3,0,0,1,1.4-4.3,4.9,4.9,0,0,1,3.8-1.5,7.6,7.6,0,0,1,2.7.5l-.2.9a9.2,9.2,0,0,0-2.5-.5,3.6,3.6,0,0,0-3.1,1.3,5.3,5.3,0,0,0-1,3.6,5.4,5.4,0,0,0,1,3.5,3.7,3.7,0,0,0,2.9,1.2,6.4,6.4,0,0,0,2.8-.5v.9A5.5,5.5,0,0,1,1452.7,346.5Z" fill="#76777a"/><path d="M1462.6,346.5a4.7,4.7,0,0,1-3.7-1.5,6,6,0,0,1-1.3-4.2,5.9,5.9,0,0,1,1.4-4.3,4.9,4.9,0,0,1,3.8-1.5,8.6,8.6,0,0,1,2.7.5l-.3.9a7.9,7.9,0,0,0-2.4-.5,3.6,3.6,0,0,0-3.1,1.3,5.3,5.3,0,0,0-1.1,3.6,5.4,5.4,0,0,0,1.1,3.5,3.7,3.7,0,0,0,2.9,1.2,6.6,6.6,0,0,0,2.8-.5v.9A5.5,5.5,0,0,1,1462.6,346.5Z" fill="#76777a"/><path d="M1472.6,346.5a4.9,4.9,0,0,1-3.8-1.5,6,6,0,0,1-1.3-4.2,6.2,6.2,0,0,1,1.3-4.2,4.1,4.1,0,0,1,3.5-1.6,3.6,3.6,0,0,1,3,1.4,5.3,5.3,0,0,1,1.2,3.7v.8h-8a5,5,0,0,0,1.1,3.4,3.8,3.8,0,0,0,3,1.2h1.6l1.8-.6v1l-1.7.5Zm-.3-10.6a3.3,3.3,0,0,0-2.6,1,5.5,5.5,0,0,0-1.1,3.1h6.8a5.1,5.1,0,0,0-.8-3A3,3,0,0,0,1472.3,335.9Z" fill="#76777a"/><path d="M1484,346.5a4.9,4.9,0,0,1-3.8-1.5,6,6,0,0,1-1.3-4.2,6.2,6.2,0,0,1,1.3-4.2,4.1,4.1,0,0,1,3.5-1.6,3.6,3.6,0,0,1,3,1.4,5.3,5.3,0,0,1,1.2,3.7v.8h-8a5,5,0,0,0,1.1,3.4,3.8,3.8,0,0,0,3,1.2h1.6l1.8-.6v1l-1.7.5Zm-.3-10.6a3.4,3.4,0,0,0-2.6,1,5.5,5.5,0,0,0-1.1,3.1h6.8a5.1,5.1,0,0,0-.8-3A2.8,2.8,0,0,0,1483.7,335.9Z" fill="#76777a"/><path d="M1495,335a4,4,0,0,1,2,.4,4.5,4.5,0,0,1,1.6,1.5h.1a20.9,20.9,0,0,1-.1-2.5v-3.9h1v15.7h-.7l-.2-1.6h-.1a4.1,4.1,0,0,1-3.6,1.9,4.3,4.3,0,0,1-3.5-1.5,6.1,6.1,0,0,1-1.2-4.1,7,7,0,0,1,1.2-4.4A4.1,4.1,0,0,1,1495,335Zm0,.9a3.3,3.3,0,0,0-2.8,1.3,6.3,6.3,0,0,0-.9,3.7c0,3.1,1.3,4.7,3.7,4.7a3.4,3.4,0,0,0,2.7-1.1,5.8,5.8,0,0,0,.9-3.6v-.2a6.1,6.1,0,0,0-.9-3.7A3.2,3.2,0,0,0,1495,335.9Z" fill="#76777a"/><path d="M1238.5,309.4l-3.1-8.1h-.5a23.4,23.4,0,0,1-8.4,7.1c-2.9,1.4-6.7,2-11.3,2s-10.2-1.6-13.5-4.9-4.9-7.9-4.9-13.9,2.2-11,6.6-14,11.1-4.7,20-5l10.3-.3v-2.6c0-6.1-3.1-9.1-9.2-9.1s-10.4,1.5-16.8,4.3l-5.4-10.9a48.5,48.5,0,0,1,22.8-5.4c8,0,14.1,1.7,18.4,5.2s6.4,8.8,6.4,15.9v39.7Zm-4.8-27.6-6.3.2c-4.7.1-8.2,1-10.5,2.5a8.2,8.2,0,0,0-3.5,7.2c0,4.6,2.7,6.8,7.9,6.8s6.8-1,9-3.2a11.2,11.2,0,0,0,3.4-8.6Z" fill="#76777a"/><path d="M1311.2,309.4h-16.3V274.6c0-4.3-.7-7.5-2.1-9.7a7.8,7.8,0,0,0-6.8-3.2c-4.2,0-7.2,1.5-9.1,4.6s-2.8,8-2.8,15v28.1h-16.2V249.8h12.4l2.1,7.6h1a16.5,16.5,0,0,1,6.9-6.4,23.1,23.1,0,0,1,10.4-2.3c8.9,0,14.9,2.9,18.1,8.7h1.4a16.4,16.4,0,0,1,7.1-6.4,23.8,23.8,0,0,1,10.5-2.3c6.7,0,11.8,1.7,15.3,5.2s5.2,9,5.2,16.6v38.9H1332V274.6c0-4.3-.7-7.5-2.2-9.7s-3.7-3.2-6.8-3.2-6.9,1.4-8.9,4.3-2.9,7.3-2.9,13.5Z" fill="#76777a"/><path d="M1382.7,310.4q-12.5,0-19.5-7.8c-4.6-5.2-7-12.5-7-21.8s2.5-17.1,7.3-22.4,11.5-8.1,20-8.1a39.2,39.2,0,0,1,14.4,2.7l-1.5,4.6a44,44,0,0,0-13-2.5q-10.7,0-16.2,6.6c-3.6,4.4-5.4,10.7-5.4,19s1.8,13.9,5.4,18.3,8.8,6.6,15.4,6.6a37.2,37.2,0,0,0,14.6-2.8v4.9C1393.5,309.5,1388.7,310.4,1382.7,310.4Z" fill="#00538b"/><path d="M1428.2,310.4c-8.4,0-15-2.6-19.7-7.8s-7-12.4-7-21.7,2.3-16.7,6.8-22.2,10.7-8.4,18.4-8.4,12.2,2.4,16.1,7.2,5.9,11.2,5.9,19.4v4.2H1407c.1,8,2,14.1,5.6,18.2s8.8,6.3,15.6,6.3a45.1,45.1,0,0,0,8.7-.7,48.3,48.3,0,0,0,9.5-2.9v4.7a36,36,0,0,1-9,2.9A43.8,43.8,0,0,1,1428.2,310.4Zm-1.5-55.4c-5.6,0-10.1,1.9-13.4,5.5s-5.4,9-6,15.9h35.8c0-6.7-1.4-11.9-4.3-15.7A14.4,14.4,0,0,0,1426.7,255Z" fill="#00538b"/><path d="M1496.2,294.3c0,5.2-1.9,9.2-5.9,11.9s-9.5,4.2-16.8,4.2-13.8-1.2-18.4-3.5v-5.7a40.8,40.8,0,0,0,18.4,4.3c5.8,0,10.1-.9,13.1-2.8a8.8,8.8,0,0,0,4.4-7.6,9.5,9.5,0,0,0-3.5-7.4c-2.4-2-6.3-3.9-11.7-5.8a69.3,69.3,0,0,1-12.2-5.4,17.3,17.3,0,0,1-5.3-5.1,13.9,13.9,0,0,1-1.7-7,12.1,12.1,0,0,1,5.4-10.3c3.7-2.5,8.7-3.8,15.3-3.8a45.3,45.3,0,0,1,17.8,3.6l-2,4.8a41.1,41.1,0,0,0-15.8-3.6c-4.7,0-8.5.8-11.3,2.4a7.2,7.2,0,0,0-4.1,6.5,9,9,0,0,0,3.2,7.2c2.2,1.8,6.4,3.9,12.6,6.1a65.2,65.2,0,0,1,11.4,5.1,15.3,15.3,0,0,1,5.3,5.1A12.5,12.5,0,0,1,1496.2,294.3Z" fill="#00538b"/><path d="M1194,627.1a.6.6,0,0,0-.7-.2L998.9,698.4c-.2.1-.3.2-.3.4a.4.4,0,0,0,.1.5l102.4,79.8h.3l.4-.2a.5.5,0,0,0,0-.7L1038.6,706l155.1-78.2A.5.5,0,0,0,1194,627.1Z" fill="#76777a"/><path d="M1190,631.5c-.1-.2-.4-.2-.6-.1l-51.1,28.4a.6.6,0,0,0-.3.6c.1.2.2.4.5.4l8.8.6L1103.9,775a.6.6,0,0,0,.2.7h.3l.4-.2,85.3-143.4A.5.5,0,0,0,1190,631.5Z" fill="#007298"/><path d="M1208.7,754.3v.7l-2.3.2a3.8,3.8,0,0,1,.9,2.5,3.5,3.5,0,0,1-1,2.6,4.4,4.4,0,0,1-2.9,1h-1l-1,.7a1.6,1.6,0,0,0-.3.9.9.9,0,0,0,.4.8,2.6,2.6,0,0,0,1.4.3h1.9a4.7,4.7,0,0,1,2.8.7,2.6,2.6,0,0,1,.9,2.1,3.1,3.1,0,0,1-1.4,2.7,6.6,6.6,0,0,1-4,1,6.2,6.2,0,0,1-3.3-.8,2.8,2.8,0,0,1-1.1-2.3,2.4,2.4,0,0,1,.7-1.8,4,4,0,0,1,1.9-1.1,1.6,1.6,0,0,1-.8-.6,1.2,1.2,0,0,1-.3-.9,2.3,2.3,0,0,1,1.4-1.9,3.7,3.7,0,0,1-1.5-1.3,3.8,3.8,0,0,1-.5-1.9,3.6,3.6,0,0,1,1-2.7,4.4,4.4,0,0,1,2.9-1l1.7.2Zm-8.9,12.9c0,1.6,1.1,2.3,3.3,2.3s4.4-.9,4.4-2.7a1.6,1.6,0,0,0-.7-1.5,4.1,4.1,0,0,0-2.2-.4h-1.8C1200.8,764.9,1199.8,765.7,1199.8,767.2Zm.8-9.4a2.8,2.8,0,0,0,.8,2,3.5,3.5,0,0,0,4.2,0,3.5,3.5,0,0,0,0-4.2,3.6,3.6,0,0,0-2.2-.7,2.8,2.8,0,0,0-2,.8A2.9,2.9,0,0,0,1200.6,757.8Z" fill="#76777a"/><path d="M1215.3,754.1l1.5.2-.2.9h-1.4a2.7,2.7,0,0,0-2.3,1.2,4.9,4.9,0,0,0-.9,3v6.1h-1V754.3h.8v2h.1a4.9,4.9,0,0,1,1.4-1.7A4.1,4.1,0,0,1,1215.3,754.1Z" fill="#76777a"/><path d="M1228.2,759.8a6.9,6.9,0,0,1-1.3,4.3,4.6,4.6,0,0,1-3.6,1.5,4.4,4.4,0,0,1-2.6-.7,5.5,5.5,0,0,1-1.7-2,7.5,7.5,0,0,1-.6-3.1,6,6,0,0,1,1.3-4.2,4.6,4.6,0,0,1,3.6-1.5,4.4,4.4,0,0,1,3.6,1.6A6.5,6.5,0,0,1,1228.2,759.8Zm-8.7,0a5.5,5.5,0,0,0,1,3.6,3.7,3.7,0,0,0,5.6,0,5.5,5.5,0,0,0,1-3.6,5.2,5.2,0,0,0-1-3.5,3.6,3.6,0,0,0-2.8-1.3,3.4,3.4,0,0,0-2.8,1.3A5.2,5.2,0,0,0,1219.5,759.8Z" fill="#76777a"/><path d="M1240.1,765.4l-2.5-7.4c-.1-.5-.3-1.2-.6-2.2h0l-.2.7-.5,1.5-2.4,7.4h-1l-3.2-11.1h1.1l1.7,6.4c.5,1.6.7,2.8.9,3.5h0a28.3,28.3,0,0,1,.9-3.1l2.3-6.8h.9l2.1,6.8a31,31,0,0,1,.9,3.1h.1c.1-.4.3-1.6.8-3.5l1.7-6.4h1l-3,11.1Z" fill="#76777a"/><path d="M1316.9,751.3c0-.7.2-1,.6-1a.5.5,0,0,1,.5.3c.2.1.2.4.2.7a.8.8,0,0,1-.2.7.5.5,0,0,1-.5.3C1317.1,752.3,1316.9,751.9,1316.9,751.3Zm1.2,14.1H1317V754.3h1.1Z" fill="#76777a"/><path d="M1329.4,765.4v-7.2a3.3,3.3,0,0,0-.7-2.4,2.6,2.6,0,0,0-2.1-.8,4,4,0,0,0-2.9,1,5,5,0,0,0-.9,3.3v6.1h-1V754.3h.8l.2,1.6h.1a4.1,4.1,0,0,1,3.8-1.8c2.5,0,3.7,1.4,3.7,4.1v7.2Z" fill="#76777a"/><path d="M1340.9,762.5a2.6,2.6,0,0,1-1.2,2.3,5.6,5.6,0,0,1-3.2.8,7.3,7.3,0,0,1-3.5-.7v-1.1a7.2,7.2,0,0,0,3.5.8,4.3,4.3,0,0,0,2.5-.5,1.6,1.6,0,0,0,.9-1.4,1.7,1.7,0,0,0-.7-1.4,8.6,8.6,0,0,0-2.2-1.2l-2.4-1-1-1a2.5,2.5,0,0,1-.3-1.3,2.1,2.1,0,0,1,1-1.9,5,5,0,0,1,2.9-.8,9.4,9.4,0,0,1,3.4.7l-.3.9a9.2,9.2,0,0,0-3.1-.7,4.1,4.1,0,0,0-2.1.5,1.4,1.4,0,0,0-.8,1.2,1.7,1.7,0,0,0,.6,1.4,8.6,8.6,0,0,0,2.4,1.2,19,19,0,0,1,2.2.9,3.1,3.1,0,0,1,1,1A2.8,2.8,0,0,1,1340.9,762.5Z" fill="#76777a"/><path d="M1348.4,765.6a4.2,4.2,0,0,1-3.7-1.9h-.1v6.7h-1V754.3h.9v1.6h.1a4,4,0,0,1,3.6-1.8,3.9,3.9,0,0,1,3.4,1.5,6.7,6.7,0,0,1,1.2,4.3,6.6,6.6,0,0,1-1.2,4.2A4.2,4.2,0,0,1,1348.4,765.6Zm0-.9a2.9,2.9,0,0,0,2.6-1.3,5.8,5.8,0,0,0,1-3.5c0-3.2-1.2-4.9-3.6-4.9a3.6,3.6,0,0,0-2.8,1.1,5.4,5.4,0,0,0-.9,3.5v.3a6.1,6.1,0,0,0,.9,3.7A3.5,3.5,0,0,0,1348.4,764.7Z" fill="#76777a"/><path d="M1355.9,751.3c0-.7.2-1,.7-1s.3.1.5.3.1.4.1.7a1.5,1.5,0,0,1-.1.7c-.2.2-.3.3-.5.3S1355.9,751.9,1355.9,751.3Zm1.2,14.1h-1V754.3h1Z" fill="#76777a"/><path d="M1365.1,754.1l1.5.2-.2.9H1365a2.8,2.8,0,0,0-2.3,1.2,4.9,4.9,0,0,0-.9,3v6.1h-1V754.3h.8v2h.1a5.1,5.1,0,0,1,1.5-1.7A3.5,3.5,0,0,1,1365.1,754.1Z" fill="#76777a"/><path d="M1373.3,765.6a4.7,4.7,0,0,1-3.7-1.5,6.1,6.1,0,0,1-1.4-4.2,7,7,0,0,1,1.3-4.2,4.6,4.6,0,0,1,3.5-1.6,3.8,3.8,0,0,1,3.1,1.4,5.3,5.3,0,0,1,1.1,3.7v.8h-7.9a5.8,5.8,0,0,0,1,3.5,3.8,3.8,0,0,0,3,1.2l1.7-.2a4.9,4.9,0,0,0,1.8-.5v.9a6.4,6.4,0,0,1-1.7.5ZM1373,755a3.3,3.3,0,0,0-2.5,1.1,5.2,5.2,0,0,0-1.2,3h6.9a4.5,4.5,0,0,0-.9-3A2.7,2.7,0,0,0,1373,755Z" fill="#76777a"/><path d="M1433.2,762.5a2.5,2.5,0,0,1-1.1,2.3,5.6,5.6,0,0,1-3.2.8,7,7,0,0,1-3.5-.7v-1.1a7.2,7.2,0,0,0,3.5.8,4.4,4.4,0,0,0,2.5-.5,1.5,1.5,0,0,0,.8-1.4,1.7,1.7,0,0,0-.6-1.4,7.9,7.9,0,0,0-2.3-1.2l-2.3-1a3.2,3.2,0,0,1-1-1,2.5,2.5,0,0,1-.3-1.3,2.1,2.1,0,0,1,1-1.9,5,5,0,0,1,2.9-.8,9.8,9.8,0,0,1,3.4.7l-.4.9a8.7,8.7,0,0,0-3-.7,4.1,4.1,0,0,0-2.1.5,1.2,1.2,0,0,0-.8,1.2,1.7,1.7,0,0,0,.6,1.4,8.6,8.6,0,0,0,2.4,1.2,19,19,0,0,1,2.2.9,4.7,4.7,0,0,1,1,1A2.8,2.8,0,0,1,1433.2,762.5Z" fill="#76777a"/><path d="M1436.9,754.3v7.2a3.3,3.3,0,0,0,.8,2.4,2.6,2.6,0,0,0,2.1.8,4,4,0,0,0,2.9-1,5,5,0,0,0,1-3.3v-6.1h.9v11.1h-.8l-.2-1.5h-.1c-.7,1.1-1.9,1.7-3.8,1.7s-3.7-1.4-3.7-4v-7.3Z" fill="#76777a"/><path d="M1452.7,765.6a4.8,4.8,0,0,1-3.7-1.5,7.2,7.2,0,0,1,.1-8.4,4.6,4.6,0,0,1,3.8-1.6,7.6,7.6,0,0,1,2.7.5l-.2.9a9.2,9.2,0,0,0-2.5-.5,3.9,3.9,0,0,0-3.1,1.3,5.3,5.3,0,0,0-1,3.6,5.2,5.2,0,0,0,1,3.5,3.8,3.8,0,0,0,2.9,1.3,6.4,6.4,0,0,0,2.8-.6v1A7,7,0,0,1,1452.7,765.6Z" fill="#76777a"/><path d="M1462.6,765.6a4.7,4.7,0,0,1-3.7-1.5,6,6,0,0,1-1.3-4.2,5.6,5.6,0,0,1,1.4-4.2,4.6,4.6,0,0,1,3.8-1.6,8.6,8.6,0,0,1,2.7.5l-.3.9a7.9,7.9,0,0,0-2.4-.5,3.9,3.9,0,0,0-3.1,1.3,5.3,5.3,0,0,0-1.1,3.6,5.2,5.2,0,0,0,1.1,3.5,3.8,3.8,0,0,0,2.9,1.3,6.7,6.7,0,0,0,2.8-.6v1A7,7,0,0,1,1462.6,765.6Z" fill="#76777a"/><path d="M1472.6,765.6a4.9,4.9,0,0,1-3.8-1.5,6,6,0,0,1-1.3-4.2,6.4,6.4,0,0,1,1.3-4.2,4.3,4.3,0,0,1,3.5-1.6,3.6,3.6,0,0,1,3,1.4,5.3,5.3,0,0,1,1.2,3.7v.8h-8a5.2,5.2,0,0,0,1.1,3.5,3.8,3.8,0,0,0,3,1.2l1.6-.2a4.9,4.9,0,0,0,1.8-.5v.9a6.4,6.4,0,0,1-1.7.5Zm-.3-10.6a3.3,3.3,0,0,0-2.6,1.1,5.1,5.1,0,0,0-1.1,3h6.8a5.1,5.1,0,0,0-.8-3A3,3,0,0,0,1472.3,755Z" fill="#76777a"/><path d="M1484,765.6a4.9,4.9,0,0,1-3.8-1.5,6,6,0,0,1-1.3-4.2,6.4,6.4,0,0,1,1.3-4.2,4.3,4.3,0,0,1,3.5-1.6,3.6,3.6,0,0,1,3,1.4,5.3,5.3,0,0,1,1.2,3.7v.8h-8a5.2,5.2,0,0,0,1.1,3.5,3.8,3.8,0,0,0,3,1.2l1.6-.2a4.9,4.9,0,0,0,1.8-.5v.9a6.4,6.4,0,0,1-1.7.5Zm-.3-10.6a3.5,3.5,0,0,0-2.6,1.1,5.1,5.1,0,0,0-1.1,3h6.8a5.1,5.1,0,0,0-.8-3A2.8,2.8,0,0,0,1483.7,755Z" fill="#76777a"/><path d="M1495,754.1a3.9,3.9,0,0,1,2,.5,4.5,4.5,0,0,1,1.6,1.5h.1a21.8,21.8,0,0,1-.1-2.5v-4h1v15.8h-.7l-.2-1.7h-.1a3.9,3.9,0,0,1-3.6,1.9,4.5,4.5,0,0,1-3.5-1.4,6.6,6.6,0,0,1-1.2-4.2,7.2,7.2,0,0,1,1.2-4.4A4.1,4.1,0,0,1,1495,754.1Zm0,.9a3.6,3.6,0,0,0-2.8,1.3,6.5,6.5,0,0,0-.9,3.7c0,3.1,1.3,4.7,3.7,4.7a3.4,3.4,0,0,0,2.7-1.1,5.6,5.6,0,0,0,.9-3.6v-.2a5.6,5.6,0,0,0-.9-3.6A3,3,0,0,0,1495,755Z" fill="#76777a"/><path d="M1238.5,728.5l-3.1-8.1h-.5a24.9,24.9,0,0,1-8.4,7.2,27.9,27.9,0,0,1-11.3,2c-5.7,0-10.2-1.7-13.5-4.9s-4.9-8-4.9-14,2.2-11,6.6-14,11.1-4.6,20-5l10.3-.3v-2.6c0-6-3.1-9-9.2-9s-10.4,1.4-16.8,4.3l-5.4-11a48.5,48.5,0,0,1,22.8-5.4c8,0,14.1,1.8,18.4,5.2s6.4,8.8,6.4,15.9v39.7Zm-4.8-27.6-6.3.2c-4.7.2-8.2,1-10.5,2.6a7.9,7.9,0,0,0-3.5,7.1c0,4.6,2.7,6.9,7.9,6.9s6.8-1.1,9-3.3a11.1,11.1,0,0,0,3.4-8.6Z" fill="#76777a"/><path d="M1311.2,728.5h-16.3V693.7c0-4.3-.7-7.5-2.1-9.7a7.8,7.8,0,0,0-6.8-3.2c-4.2,0-7.2,1.6-9.1,4.6s-2.8,8.1-2.8,15.1v28h-16.2V668.9h12.4l2.1,7.7h1a16.1,16.1,0,0,1,6.9-6.5,23.1,23.1,0,0,1,10.4-2.3c8.9,0,14.9,2.9,18.1,8.8h1.4a16,16,0,0,1,7.1-6.5,23.8,23.8,0,0,1,10.5-2.3c6.7,0,11.8,1.8,15.3,5.2s5.2,9,5.2,16.7v38.8H1332V693.7c0-4.3-.7-7.5-2.2-9.7s-3.7-3.2-6.8-3.2-6.9,1.4-8.9,4.3-2.9,7.3-2.9,13.5Z" fill="#76777a"/><path d="M1382.7,729.6c-8.3,0-14.8-2.7-19.5-7.9s-7-12.5-7-21.8,2.5-17.1,7.3-22.4,11.5-8,20-8a41.3,41.3,0,0,1,14.4,2.6l-1.5,4.7a41,41,0,0,0-13-2.5q-10.7,0-16.2,6.6t-5.4,18.9q0,11.7,5.4,18.3c3.7,4.4,8.8,6.7,15.4,6.7a37.3,37.3,0,0,0,14.6-2.9v4.9C1393.5,728.6,1388.7,729.6,1382.7,729.6Z" fill="#007298"/><path d="M1428.2,729.6c-8.4,0-15-2.6-19.7-7.8s-7-12.5-7-21.8,2.3-16.6,6.8-22.2,10.7-8.3,18.4-8.3,12.2,2.4,16.1,7.1,5.9,11.2,5.9,19.4v4.3H1407c.1,7.9,2,14,5.6,18.2s8.8,6.3,15.6,6.3a54.7,54.7,0,0,0,8.7-.7,58.2,58.2,0,0,0,9.5-3v4.8a40.6,40.6,0,0,1-9,2.9A51.7,51.7,0,0,1,1428.2,729.6Zm-1.5-55.4c-5.6,0-10.1,1.8-13.4,5.5s-5.4,9-6,15.9h35.8c0-6.7-1.4-12-4.3-15.8A14.6,14.6,0,0,0,1426.7,674.2Z" fill="#007298"/><path d="M1496.2,713.4c0,5.2-1.9,9.2-5.9,12s-9.5,4.2-16.8,4.2-13.8-1.2-18.4-3.6v-5.7a40.9,40.9,0,0,0,18.4,4.4c5.8,0,10.1-1,13.1-2.9a8.7,8.7,0,0,0,4.4-7.6,9.3,9.3,0,0,0-3.5-7.3c-2.4-2-6.3-4-11.7-5.9a69.3,69.3,0,0,1-12.2-5.4,17.3,17.3,0,0,1-5.3-5.1,13.7,13.7,0,0,1-1.7-7,11.8,11.8,0,0,1,5.4-10.2c3.7-2.6,8.7-3.8,15.3-3.8a47.1,47.1,0,0,1,17.8,3.5l-2,4.8a40.9,40.9,0,0,0-15.8-3.5c-4.7,0-8.5.8-11.3,2.3s-4.1,3.7-4.1,6.5a9.4,9.4,0,0,0,3.2,7.3q3.3,2.7,12.6,6a65.2,65.2,0,0,1,11.4,5.1,14.7,14.7,0,0,1,5.3,5.2A12.2,12.2,0,0,1,1496.2,713.4Z" fill="#007298"/><path d="M1194,1046.3a.5.5,0,0,0-.7-.3l-194.4,71.5c-.2.1-.3.2-.3.4a.4.4,0,0,0,.1.5l102.4,79.8h.3l.4-.2a.5.5,0,0,0,0-.7l-63.2-72.2,155.1-78.3A.4.4,0,0,0,1194,1046.3Z" fill="#76777a"/><path d="M1190,1050.6a.6.6,0,0,0-.6-.1l-51.1,28.4a.7.7,0,0,0-.3.6c.1.2.2.4.5.4l8.8.6-43.4,113.7a.5.5,0,0,0,.2.6h.3a.5.5,0,0,0,.4-.3l85.3-143.4A.5.5,0,0,0,1190,1050.6Z" fill="#5b89b4"/><path d="M1208.7,1173.5v.7h-2.3a4,4,0,0,1,.9,2.5,3.4,3.4,0,0,1-1,2.6,3.9,3.9,0,0,1-2.9,1h-1a3.9,3.9,0,0,0-1,.8,1.6,1.6,0,0,0-.3.9.8.8,0,0,0,.4.7,2.6,2.6,0,0,0,1.4.3h1.9a4.7,4.7,0,0,1,2.8.7,2.7,2.7,0,0,1,.9,2.2,3.3,3.3,0,0,1-1.4,2.7,7.4,7.4,0,0,1-4,.9,6.2,6.2,0,0,1-3.3-.8,2.7,2.7,0,0,1-1.1-2.2,2.5,2.5,0,0,1,.7-1.9,3.2,3.2,0,0,1,1.9-1l-.8-.6a1.6,1.6,0,0,1-.3-.9c0-.8.5-1.4,1.4-2a4.4,4.4,0,0,1-1.5-1.2,4.6,4.6,0,0,1-.5-2,3.3,3.3,0,0,1,1-2.6,3.9,3.9,0,0,1,2.9-1,4.2,4.2,0,0,1,1.7.2Zm-8.9,12.9c0,1.5,1.1,2.3,3.3,2.3s4.4-1,4.4-2.8a1.6,1.6,0,0,0-.7-1.5,4.1,4.1,0,0,0-2.2-.4h-1.8Q1199.8,1184,1199.8,1186.4Zm.8-9.5a2.6,2.6,0,0,0,.8,2,3.5,3.5,0,0,0,4.2,0,2.6,2.6,0,0,0,.7-2,2.5,2.5,0,0,0-.7-2.1,3.1,3.1,0,0,0-2.2-.7,2.7,2.7,0,0,0-2,.7A2.9,2.9,0,0,0,1200.6,1176.9Z" fill="#76777a"/><path d="M1215.3,1173.3h1.5l-.2,1-1.4-.2a2.7,2.7,0,0,0-2.3,1.2,4.9,4.9,0,0,0-.9,3v6.1h-1v-11h.8v2h.1a4.1,4.1,0,0,1,1.4-1.7A3.2,3.2,0,0,1,1215.3,1173.3Z" fill="#76777a"/><path d="M1228.2,1179a6.6,6.6,0,0,1-1.3,4.2,4.6,4.6,0,0,1-3.6,1.5,4.4,4.4,0,0,1-2.6-.7,4.8,4.8,0,0,1-1.7-2,7.3,7.3,0,0,1-.6-3,6,6,0,0,1,1.3-4.2,5.1,5.1,0,0,1,7.2,0A6.6,6.6,0,0,1,1228.2,1179Zm-8.7,0a5.2,5.2,0,0,0,1,3.5,3.7,3.7,0,0,0,5.6,0,5.2,5.2,0,0,0,1-3.5,5.7,5.7,0,0,0-1-3.6,3.5,3.5,0,0,0-2.8-1.2,3.4,3.4,0,0,0-2.8,1.2A5.7,5.7,0,0,0,1219.5,1179Z" fill="#76777a"/><path d="M1240.1,1184.5l-2.5-7.4c-.1-.5-.3-1.2-.6-2.2h0l-.2.8-.5,1.5-2.4,7.3h-1l-3.2-11h1.1l1.7,6.4c.5,1.6.7,2.7.9,3.5h0a32.8,32.8,0,0,1,.9-3.2l2.3-6.7h.9l2.1,6.7c.5,1.6.8,2.6.9,3.1h.1c.1-.4.3-1.6.8-3.5l1.7-6.3h1l-3,11Z" fill="#76777a"/><path d="M1316.9,1170.4c0-.6.2-1,.6-1a.5.5,0,0,1,.5.3.8.8,0,0,1,.2.7c0,.3,0,.6-.2.7a.5.5,0,0,1-.5.3C1317.1,1171.4,1316.9,1171.1,1316.9,1170.4Zm1.2,14.1H1317v-11h1.1Z" fill="#76777a"/><path d="M1329.4,1184.5v-7.1a3.4,3.4,0,0,0-.7-2.5,2.5,2.5,0,0,0-2.1-.7,3.7,3.7,0,0,0-2.9,1,4.5,4.5,0,0,0-.9,3.2v6.1h-1v-11h.8l.2,1.5h.1c.7-1.2,2-1.7,3.8-1.7s3.7,1.3,3.7,4v7.2Z" fill="#76777a"/><path d="M1340.9,1181.6a2.6,2.6,0,0,1-1.2,2.3,4.9,4.9,0,0,1-3.2.8,7.3,7.3,0,0,1-3.5-.7v-1.1a7.3,7.3,0,0,0,3.5.9,4.2,4.2,0,0,0,2.5-.6,1.5,1.5,0,0,0,.9-1.4,1.9,1.9,0,0,0-.7-1.4,6.4,6.4,0,0,0-2.2-1.1,14.2,14.2,0,0,1-2.4-1.1,4.3,4.3,0,0,1-1-.9,2.9,2.9,0,0,1-.3-1.4,2.2,2.2,0,0,1,1-1.9,5,5,0,0,1,2.9-.7,9.3,9.3,0,0,1,3.4.6l-.3.9a8.9,8.9,0,0,0-3.1-.6,4.1,4.1,0,0,0-2.1.4,1.4,1.4,0,0,0-.8,1.3,1.6,1.6,0,0,0,.6,1.3,6.5,6.5,0,0,0,2.4,1.2l2.2,1a3,3,0,0,1,1,.9A2.8,2.8,0,0,1,1340.9,1181.6Z" fill="#76777a"/><path d="M1348.4,1184.7a4,4,0,0,1-3.7-1.9h-.1v6.7h-1v-16h.9v1.6h.1a4,4,0,0,1,3.6-1.8,4.2,4.2,0,0,1,3.4,1.4,6.7,6.7,0,0,1,1.2,4.3,6.6,6.6,0,0,1-1.2,4.2A4.2,4.2,0,0,1,1348.4,1184.7Zm0-.9a3.1,3.1,0,0,0,2.6-1.2,6.4,6.4,0,0,0,1-3.6q0-4.8-3.6-4.8a3.6,3.6,0,0,0-2.8,1,5.4,5.4,0,0,0-.9,3.5v.3a5.9,5.9,0,0,0,.9,3.7A3.2,3.2,0,0,0,1348.4,1183.8Z" fill="#76777a"/><path d="M1355.9,1170.4c0-.6.2-1,.7-1s.3.1.5.3a1.5,1.5,0,0,1,.1.7c0,.3,0,.6-.1.7s-.3.3-.5.3S1355.9,1171.1,1355.9,1170.4Zm1.2,14.1h-1v-11h1Z" fill="#76777a"/><path d="M1365.1,1173.3h1.5l-.2,1-1.4-.2a2.8,2.8,0,0,0-2.3,1.2,4.9,4.9,0,0,0-.9,3v6.1h-1v-11h.8v2h.1a4.3,4.3,0,0,1,1.5-1.7A2.7,2.7,0,0,1,1365.1,1173.3Z" fill="#76777a"/><path d="M1373.3,1184.7a4.7,4.7,0,0,1-3.7-1.5,5.8,5.8,0,0,1-1.4-4.1,6.6,6.6,0,0,1,1.3-4.2,4.3,4.3,0,0,1,3.5-1.6,3.7,3.7,0,0,1,3.1,1.3,5.4,5.4,0,0,1,1.1,3.7v.8h-7.9a5.8,5.8,0,0,0,1,3.5,3.8,3.8,0,0,0,3,1.2h1.7l1.8-.6v.9l-1.7.6Zm-.3-10.5a3.2,3.2,0,0,0-2.5,1,5.2,5.2,0,0,0-1.2,3h6.9a4.9,4.9,0,0,0-.9-3A2.6,2.6,0,0,0,1373,1174.2Z" fill="#76777a"/><path d="M1433.2,1181.6a2.5,2.5,0,0,1-1.1,2.3,4.9,4.9,0,0,1-3.2.8,7,7,0,0,1-3.5-.7v-1.1a7.3,7.3,0,0,0,3.5.9,4.4,4.4,0,0,0,2.5-.6,1.4,1.4,0,0,0,.8-1.4,1.8,1.8,0,0,0-.6-1.4,6.1,6.1,0,0,0-2.3-1.1,12.5,12.5,0,0,1-2.3-1.1,2.3,2.3,0,0,1-1.3-2.3,2.2,2.2,0,0,1,1-1.9,5,5,0,0,1,2.9-.7,9.7,9.7,0,0,1,3.4.6l-.4.9a8.4,8.4,0,0,0-3-.6,4.1,4.1,0,0,0-2.1.4,1.3,1.3,0,0,0-.8,1.3,1.6,1.6,0,0,0,.6,1.3,6.5,6.5,0,0,0,2.4,1.2l2.2,1a4.5,4.5,0,0,1,1,.9A2.8,2.8,0,0,1,1433.2,1181.6Z" fill="#76777a"/><path d="M1436.9,1173.5v7.1a3.3,3.3,0,0,0,.8,2.4,2.6,2.6,0,0,0,2.1.8,3.7,3.7,0,0,0,2.9-1,4.7,4.7,0,0,0,1-3.2v-6.1h.9v11h-.8l-.2-1.5h-.1c-.7,1.1-1.9,1.7-3.8,1.7s-3.7-1.3-3.7-4v-7.2Z" fill="#76777a"/><path d="M1452.7,1184.7a4.8,4.8,0,0,1-3.7-1.5,5.9,5.9,0,0,1-1.3-4.1,6.2,6.2,0,0,1,1.4-4.3,4.9,4.9,0,0,1,3.8-1.5,5.9,5.9,0,0,1,2.7.5l-.2.9a6.5,6.5,0,0,0-2.5-.5,3.9,3.9,0,0,0-3.1,1.2,5.7,5.7,0,0,0-1,3.6,5.2,5.2,0,0,0,1,3.5,3.5,3.5,0,0,0,2.9,1.3,8.2,8.2,0,0,0,2.8-.5v.9A7,7,0,0,1,1452.7,1184.7Z" fill="#76777a"/><path d="M1462.6,1184.7a4.7,4.7,0,0,1-3.7-1.5,5.9,5.9,0,0,1-1.3-4.1,5.7,5.7,0,0,1,1.4-4.3,4.9,4.9,0,0,1,3.8-1.5,6.5,6.5,0,0,1,2.7.5l-.3.9a5.7,5.7,0,0,0-2.4-.5,3.9,3.9,0,0,0-3.1,1.2,5.7,5.7,0,0,0-1.1,3.6,5.2,5.2,0,0,0,1.1,3.5,3.5,3.5,0,0,0,2.9,1.3,8.7,8.7,0,0,0,2.8-.5v.9A7,7,0,0,1,1462.6,1184.7Z" fill="#76777a"/><path d="M1472.6,1184.7a4.9,4.9,0,0,1-3.8-1.5,5.8,5.8,0,0,1-1.3-4.1,6,6,0,0,1,1.3-4.2,4.1,4.1,0,0,1,3.5-1.6,3.5,3.5,0,0,1,3,1.3,5.5,5.5,0,0,1,1.2,3.7v.8h-8a5.2,5.2,0,0,0,1.1,3.5,3.8,3.8,0,0,0,3,1.2h1.6l1.8-.6v.9l-1.7.6Zm-.3-10.5a3.3,3.3,0,0,0-2.6,1,5.1,5.1,0,0,0-1.1,3h6.8a5.6,5.6,0,0,0-.8-3A2.9,2.9,0,0,0,1472.3,1174.2Z" fill="#76777a"/><path d="M1484,1184.7a4.9,4.9,0,0,1-3.8-1.5,5.8,5.8,0,0,1-1.3-4.1,6,6,0,0,1,1.3-4.2,4.1,4.1,0,0,1,3.5-1.6,3.5,3.5,0,0,1,3,1.3,5.5,5.5,0,0,1,1.2,3.7v.8h-8a5.2,5.2,0,0,0,1.1,3.5,3.8,3.8,0,0,0,3,1.2h1.6l1.8-.6v.9l-1.7.6Zm-.3-10.5a3.4,3.4,0,0,0-2.6,1,5.1,5.1,0,0,0-1.1,3h6.8a5.6,5.6,0,0,0-.8-3A2.8,2.8,0,0,0,1483.7,1174.2Z" fill="#76777a"/><path d="M1495,1173.3a4,4,0,0,1,2,.4,4.5,4.5,0,0,1,1.6,1.5h.1a21.8,21.8,0,0,1-.1-2.5v-4h1v15.8h-.7l-.2-1.7h-.1a3.9,3.9,0,0,1-3.6,1.9,4.5,4.5,0,0,1-3.5-1.4,6.3,6.3,0,0,1-1.2-4.1,6.8,6.8,0,0,1,1.2-4.4A4.1,4.1,0,0,1,1495,1173.3Zm0,.9a3.5,3.5,0,0,0-2.8,1.2,6.5,6.5,0,0,0-.9,3.7c0,3.2,1.3,4.7,3.7,4.7a3.1,3.1,0,0,0,2.7-1.1,5.4,5.4,0,0,0,.9-3.5v-.2a5.9,5.9,0,0,0-.9-3.7A3.2,3.2,0,0,0,1495,1174.2Z" fill="#76777a"/><path d="M1238.5,1147.6l-3.1-8.1h-.5a22.8,22.8,0,0,1-8.4,7.2,27.9,27.9,0,0,1-11.3,2c-5.7,0-10.2-1.7-13.5-4.9s-4.9-7.9-4.9-14,2.2-10.9,6.6-13.9,11.1-4.7,20-5l10.3-.3v-2.7c0-6-3.1-9-9.2-9s-10.4,1.4-16.8,4.3l-5.4-11a48.5,48.5,0,0,1,22.8-5.3c8,0,14.1,1.7,18.4,5.2s6.4,8.7,6.4,15.8v39.7Zm-4.8-27.6-6.3.2c-4.7.2-8.2,1-10.5,2.6a8,8,0,0,0-3.5,7.1c0,4.6,2.7,6.9,7.9,6.9a12.5,12.5,0,0,0,9-3.2,11.5,11.5,0,0,0,3.4-8.7Z" fill="#76777a"/><path d="M1311.2,1147.6h-16.3v-34.8q0-6.5-2.1-9.6c-1.5-2.2-3.7-3.2-6.8-3.2s-7.2,1.5-9.1,4.5-2.8,8.1-2.8,15.1v28h-16.2v-59.5h12.4l2.1,7.6h1a15.9,15.9,0,0,1,6.9-6.4,21.8,21.8,0,0,1,10.4-2.3c8.9,0,14.9,2.9,18.1,8.7h1.4a15.8,15.8,0,0,1,7.1-6.4,22.5,22.5,0,0,1,10.5-2.3c6.7,0,11.8,1.7,15.3,5.2s5.2,9,5.2,16.6v38.8H1332v-34.8c0-4.3-.7-7.5-2.2-9.6s-3.7-3.2-6.8-3.2-6.9,1.4-8.9,4.2-2.9,7.4-2.9,13.5Z" fill="#76777a"/><path d="M1382.7,1148.7q-12.5,0-19.5-7.8c-4.6-5.3-7-12.5-7-21.9s2.5-17,7.3-22.4,11.5-8,20-8a41.3,41.3,0,0,1,14.4,2.6l-1.5,4.7a41,41,0,0,0-13-2.5q-10.7,0-16.2,6.6t-5.4,18.9c0,7.8,1.8,13.9,5.4,18.4s8.8,6.6,15.4,6.6a39.1,39.1,0,0,0,14.6-2.8v4.9C1393.5,1147.8,1388.7,1148.7,1382.7,1148.7Z" fill="#5b89b4"/><path d="M1428.2,1148.7c-8.4,0-15-2.6-19.7-7.8s-7-12.4-7-21.8,2.3-16.6,6.8-22.2,10.7-8.3,18.4-8.3,12.2,2.4,16.1,7.1,5.9,11.3,5.9,19.4v4.3H1407c.1,7.9,2,14,5.6,18.2s8.8,6.3,15.6,6.3a45.1,45.1,0,0,0,8.7-.7,58.2,58.2,0,0,0,9.5-3v4.8a40.6,40.6,0,0,1-9,2.9A51.7,51.7,0,0,1,1428.2,1148.7Zm-1.5-55.4c-5.6,0-10.1,1.8-13.4,5.5s-5.4,9-6,15.9h35.8c0-6.7-1.4-11.9-4.3-15.7A14.4,14.4,0,0,0,1426.7,1093.3Z" fill="#5b89b4"/><path d="M1496.2,1132.5c0,5.2-1.9,9.2-5.9,12s-9.5,4.2-16.8,4.2-13.8-1.2-18.4-3.6v-5.7a40.9,40.9,0,0,0,18.4,4.4c5.8,0,10.1-1,13.1-2.9a8.7,8.7,0,0,0,4.4-7.6,9.3,9.3,0,0,0-3.5-7.3c-2.4-2-6.3-3.9-11.7-5.9a69.3,69.3,0,0,1-12.2-5.4,17.3,17.3,0,0,1-5.3-5.1,13.6,13.6,0,0,1-1.7-6.9,11.8,11.8,0,0,1,5.4-10.3c3.7-2.5,8.7-3.8,15.3-3.8a47.1,47.1,0,0,1,17.8,3.5l-2,4.8a42.8,42.8,0,0,0-15.8-3.5c-4.7,0-8.5.8-11.3,2.3s-4.1,3.8-4.1,6.5a9.1,9.1,0,0,0,3.2,7.3c2.2,1.8,6.4,3.8,12.6,6.1a59.4,59.4,0,0,1,11.4,5,16.5,16.5,0,0,1,5.3,5.2A12.4,12.4,0,0,1,1496.2,1132.5Z" fill="#5b89b4"/><path d="M1984.4,208c-.1-.2-.4-.4-.6-.3l-194.4,71.6c-.2,0-.3.2-.4.4s.1.3.2.5l102.4,79.7h.7a.5.5,0,0,0,0-.7l-63.2-72.3,155.1-78.2A.5.5,0,0,0,1984.4,208Z" fill="#00538b"/><path d="M1981.6,215.2a.5.5,0,0,0-.6-.1l-50.3,27.7a.5.5,0,0,0-.2.6.4.4,0,0,0,.4.4l8.8.6-44,108.1c-.1.3.1.5.3.7h.2l.5-.2,85-137.2C1981.8,215.6,1981.8,215.3,1981.6,215.2Z" fill="#00538b"/><path d="M1999.2,335.2v.7l-2.3.2a3.7,3.7,0,0,1,.9,2.5,3.3,3.3,0,0,1-1.1,2.5,3.7,3.7,0,0,1-2.8,1h-1.1a2.2,2.2,0,0,0-.9.7,1.6,1.6,0,0,0-.3.9.8.8,0,0,0,.4.8l1.3.2h2a4.1,4.1,0,0,1,2.7.8,2.3,2.3,0,0,1,1,2.1,3.1,3.1,0,0,1-1.4,2.7,7.8,7.8,0,0,1-4.1.9,5.1,5.1,0,0,1-3.2-.8,2.3,2.3,0,0,1-1.1-2.2,2.6,2.6,0,0,1,.7-1.9,3.5,3.5,0,0,1,1.9-1,1.6,1.6,0,0,1-.8-.6,1.6,1.6,0,0,1-.3-.9,2.6,2.6,0,0,1,1.4-2,2.9,2.9,0,0,1-1.5-1.2,3.2,3.2,0,0,1-.5-1.9,3.6,3.6,0,0,1,1-2.7,3.9,3.9,0,0,1,2.8-1l1.7.2Zm-9,12.9c0,1.5,1.2,2.3,3.4,2.3s4.4-.9,4.4-2.8a1.7,1.7,0,0,0-.7-1.4,4.2,4.2,0,0,0-2.2-.5h-1.8C1991.2,345.7,1990.2,346.5,1990.2,348.1Zm.9-9.4a2.4,2.4,0,0,0,.7,1.9,3.1,3.1,0,0,0,2.1.7,2.7,2.7,0,0,0,2.1-.7,2.5,2.5,0,0,0,.8-2,2.9,2.9,0,0,0-.8-2.1,3.5,3.5,0,0,0-4.2,0A3.2,3.2,0,0,0,1991.1,338.7Z" fill="#76777a"/><path d="M2005.8,335h1.5l-.2,1-1.4-.2a2.9,2.9,0,0,0-2.4,1.2,5,5,0,0,0-.9,3.1v6h-1v-11h.9v2h.1a4.1,4.1,0,0,1,1.4-1.7A3.6,3.6,0,0,1,2005.8,335Z" fill="#76777a"/><path d="M2018.6,340.7a6,6,0,0,1-1.3,4.2,4.4,4.4,0,0,1-3.6,1.6,5.2,5.2,0,0,1-2.5-.7,4.4,4.4,0,0,1-1.7-2.1,6.7,6.7,0,0,1-.6-3,6,6,0,0,1,1.3-4.2,5.1,5.1,0,0,1,7.2,0A6.6,6.6,0,0,1,2018.6,340.7Zm-8.7,0a6.4,6.4,0,0,0,1,3.6,3.6,3.6,0,0,0,2.9,1.2,3.5,3.5,0,0,0,2.8-1.2,5.7,5.7,0,0,0,1-3.6,5.2,5.2,0,0,0-1-3.5,3.4,3.4,0,0,0-2.9-1.3,3.3,3.3,0,0,0-2.8,1.3A5.8,5.8,0,0,0,2009.9,340.7Z" fill="#76777a"/><path d="M2030.5,346.2l-2.4-7.3a19.4,19.4,0,0,0-.6-2.2h-.1l-.2.7-.4,1.5-2.5,7.3h-1l-3.1-11h1l1.8,6.4c.4,1.6.7,2.8.8,3.5h.1c.4-1.6.7-2.6.9-3.2l2.2-6.7h.9l2.2,6.7c.5,1.6.8,2.7.9,3.2h.1a25.1,25.1,0,0,1,.8-3.6l1.7-6.3h1l-3,11Z" fill="#76777a"/><path d="M2090.3,332.1q0-.9.6-.9l.5.2a1.4,1.4,0,0,1,.2.7,1.5,1.5,0,0,1-.2.8l-.5.2C2090.5,333.1,2090.3,332.8,2090.3,332.1Zm1.1,14.1h-1v-11h1Z" fill="#76777a"/><path d="M2102.8,346.2v-7.1a3.3,3.3,0,0,0-.7-2.4,2.9,2.9,0,0,0-2.2-.8,3.7,3.7,0,0,0-2.9,1,5,5,0,0,0-.9,3.3v6h-1v-11h.9v1.5h.1a4.2,4.2,0,0,1,3.8-1.7c2.5,0,3.8,1.3,3.8,4v7.2Z" fill="#76777a"/><path d="M2114.2,343.4a2.8,2.8,0,0,1-1.1,2.3,5.8,5.8,0,0,1-3.2.8,8,8,0,0,1-3.5-.7v-1.1a8.5,8.5,0,0,0,3.5.8,5.5,5.5,0,0,0,2.5-.5,1.9,1.9,0,0,0,.8-1.5,1.7,1.7,0,0,0-.7-1.4,7.4,7.4,0,0,0-2.2-1.1,10.8,10.8,0,0,1-2.3-1,2.4,2.4,0,0,1-1-1,2.8,2.8,0,0,1-.4-1.3,2.4,2.4,0,0,1,1.1-2,4.8,4.8,0,0,1,2.9-.7,8,8,0,0,1,3.4.7l-.4.9a7.2,7.2,0,0,0-3-.7,4.1,4.1,0,0,0-2.1.5,1.2,1.2,0,0,0-.8,1.2,1.8,1.8,0,0,0,.6,1.4,9.2,9.2,0,0,0,2.4,1.1,10.4,10.4,0,0,1,2.1,1,3.6,3.6,0,0,1,1.1,1A2.8,2.8,0,0,1,2114.2,343.4Z" fill="#76777a"/><path d="M2121.8,346.5a3.9,3.9,0,0,1-3.7-2h-.1v.9c0,.5.1,1,.1,1.6v4.2h-1v-16h.8l.2,1.6h.1a3.8,3.8,0,0,1,3.6-1.8,4.1,4.1,0,0,1,3.4,1.5,6.4,6.4,0,0,1,1.2,4.2,6.1,6.1,0,0,1-1.3,4.3A4,4,0,0,1,2121.8,346.5Zm0-.9a3.2,3.2,0,0,0,2.6-1.3,5.8,5.8,0,0,0,.9-3.5c0-3.3-1.2-4.9-3.5-4.9a3.5,3.5,0,0,0-2.8,1.1,5.1,5.1,0,0,0-.9,3.4v.4a6.2,6.2,0,0,0,.8,3.7A3.5,3.5,0,0,0,2121.8,345.6Z" fill="#76777a"/><path d="M2129.3,332.1q0-.9.6-.9l.5.2a1.4,1.4,0,0,1,.2.7,1.5,1.5,0,0,1-.2.8l-.5.2C2129.5,333.1,2129.3,332.8,2129.3,332.1Zm1.1,14.1h-1v-11h1Z" fill="#76777a"/><path d="M2138.5,335h1.5l-.2,1-1.4-.2a2.9,2.9,0,0,0-2.4,1.2,5,5,0,0,0-.9,3.1v6h-1v-11h.9v2h.1a4.1,4.1,0,0,1,1.4-1.7A3.6,3.6,0,0,1,2138.5,335Z" fill="#76777a"/><path d="M2146.7,346.5a4.9,4.9,0,0,1-3.8-1.5,6,6,0,0,1-1.3-4.2,6.2,6.2,0,0,1,1.3-4.2,4.1,4.1,0,0,1,3.5-1.6,4,4,0,0,1,3.1,1.4,5.8,5.8,0,0,1,1.1,3.7v.8h-8a5.5,5.5,0,0,0,1.1,3.4,3.8,3.8,0,0,0,3,1.2h1.6l1.9-.6v1l-1.8.5Zm-.3-10.6a3.4,3.4,0,0,0-2.6,1,5.5,5.5,0,0,0-1.1,3.1h6.8a5.1,5.1,0,0,0-.8-3A2.8,2.8,0,0,0,2146.4,335.9Z" fill="#76777a"/><path d="M2219.4,343.4a2.7,2.7,0,0,1-1.2,2.3,5.6,5.6,0,0,1-3.2.8,8.7,8.7,0,0,1-3.5-.7v-1.1a8.5,8.5,0,0,0,3.5.8,5.2,5.2,0,0,0,2.5-.5,1.8,1.8,0,0,0,.9-1.5,2.1,2.1,0,0,0-.7-1.4,8.9,8.9,0,0,0-2.2-1.1l-2.4-1a4.7,4.7,0,0,1-1-1,2.8,2.8,0,0,1-.3-1.3,2.3,2.3,0,0,1,1-2,5,5,0,0,1,2.9-.7,7.7,7.7,0,0,1,3.4.7l-.3.9a7.3,7.3,0,0,0-3.1-.7,4.1,4.1,0,0,0-2.1.5,1.4,1.4,0,0,0-.8,1.2,1.8,1.8,0,0,0,.6,1.4,9.2,9.2,0,0,0,2.4,1.1l2.2,1a2.4,2.4,0,0,1,1,1A2.8,2.8,0,0,1,2219.4,343.4Z" fill="#76777a"/><path d="M2223.1,335.2v7.2a3.3,3.3,0,0,0,.7,2.4,2.7,2.7,0,0,0,2.1.7,3.5,3.5,0,0,0,2.9-1,4.1,4.1,0,0,0,1-3.2v-6.1h1v11h-.9l-.2-1.5h0q-1,1.8-3.9,1.8c-2.5,0-3.7-1.4-3.7-4.1v-7.2Z" fill="#76777a"/><path d="M2238.9,346.5a4.7,4.7,0,0,1-3.7-1.5,6.1,6.1,0,0,1-1.4-4.2,6.3,6.3,0,0,1,1.4-4.3,4.9,4.9,0,0,1,3.8-1.5,8.7,8.7,0,0,1,2.8.5l-.3.9a9.2,9.2,0,0,0-2.5-.5,3.7,3.7,0,0,0-3.1,1.3,5.3,5.3,0,0,0-1,3.6,5.4,5.4,0,0,0,1,3.5,3.8,3.8,0,0,0,3,1.2,5.9,5.9,0,0,0,2.7-.5v.9A5.4,5.4,0,0,1,2238.9,346.5Z" fill="#76777a"/><path d="M2248.8,346.5a4.9,4.9,0,0,1-3.8-1.5,6.6,6.6,0,0,1-1.3-4.2,6.3,6.3,0,0,1,1.4-4.3,4.9,4.9,0,0,1,3.8-1.5,7.6,7.6,0,0,1,2.7.5l-.2.9a9.2,9.2,0,0,0-2.5-.5,3.6,3.6,0,0,0-3.1,1.3,5.3,5.3,0,0,0-1,3.6,5.4,5.4,0,0,0,1,3.5,3.7,3.7,0,0,0,2.9,1.2,6.4,6.4,0,0,0,2.8-.5v.9A5.4,5.4,0,0,1,2248.8,346.5Z" fill="#76777a"/><path d="M2258.7,346.5a4.9,4.9,0,0,1-3.8-1.5,6,6,0,0,1-1.3-4.2,6.2,6.2,0,0,1,1.3-4.2,4.1,4.1,0,0,1,3.5-1.6,4,4,0,0,1,3.1,1.4,5.8,5.8,0,0,1,1.1,3.7v.8h-8a5.5,5.5,0,0,0,1.1,3.4,3.8,3.8,0,0,0,3,1.2h1.6l1.9-.6v1l-1.8.5Zm-.3-10.6a3.4,3.4,0,0,0-2.6,1,5.5,5.5,0,0,0-1.1,3.1h6.8a5.1,5.1,0,0,0-.8-3A2.8,2.8,0,0,0,2258.4,335.9Z" fill="#76777a"/><path d="M2270.1,346.5a4.9,4.9,0,0,1-3.8-1.5,6,6,0,0,1-1.3-4.2,6.2,6.2,0,0,1,1.3-4.2,4.2,4.2,0,0,1,3.5-1.6,4,4,0,0,1,3.1,1.4,5.8,5.8,0,0,1,1.1,3.7v.8h-7.9a4.9,4.9,0,0,0,1,3.4,3.8,3.8,0,0,0,3,1.2h1.7l1.8-.6v1l-1.8.5Zm-.3-10.6a3.4,3.4,0,0,0-2.6,1,5.5,5.5,0,0,0-1.1,3.1h6.8a4.5,4.5,0,0,0-.8-3A2.8,2.8,0,0,0,2269.8,335.9Z" fill="#76777a"/><path d="M2281.1,335a4.6,4.6,0,0,1,2.1.4,4.3,4.3,0,0,1,1.5,1.5h.1a20.9,20.9,0,0,1-.1-2.5v-3.9h1v15.7h-.6l-.3-1.6h-.1a4.1,4.1,0,0,1-3.6,1.9,4.3,4.3,0,0,1-3.5-1.5,6.1,6.1,0,0,1-1.2-4.1,7,7,0,0,1,1.2-4.4A4.3,4.3,0,0,1,2281.1,335Zm0,.9a3,3,0,0,0-2.7,1.3,6.3,6.3,0,0,0-.9,3.7c0,3.1,1.2,4.7,3.6,4.7a3.1,3.1,0,0,0,2.7-1.1,5.8,5.8,0,0,0,.9-3.6v-.2a7,7,0,0,0-.8-3.7A3.5,3.5,0,0,0,2281.1,335.9Z" fill="#76777a"/><path d="M2029,309.4l-3.2-8.1h-.4a23.4,23.4,0,0,1-8.4,7.1c-2.9,1.4-6.7,2-11.3,2s-10.3-1.6-13.5-4.9-5-7.9-5-13.9,2.2-11,6.7-14,11-4.7,20-5l10.3-.3v-2.6c0-6.1-3.1-9.1-9.3-9.1s-10.3,1.5-16.8,4.3l-5.3-10.9a48,48,0,0,1,22.8-5.4c7.9,0,14.1,1.7,18.3,5.2s6.4,8.8,6.4,15.9v39.7Zm-4.8-27.6-6.3.2c-4.7.1-8.2,1-10.5,2.5a8.2,8.2,0,0,0-3.5,7.2c0,4.6,2.6,6.8,7.9,6.8,3.7,0,6.8-1,9-3.2a11.2,11.2,0,0,0,3.4-8.6Z" fill="#00538b"/><path d="M2101.6,309.4h-16.2V274.6c0-4.3-.7-7.5-2.2-9.7s-3.7-3.2-6.8-3.2-7.1,1.5-9,4.6-2.8,8-2.8,15v28.1h-16.3V249.8h12.4l2.2,7.6h.9a17.1,17.1,0,0,1,6.9-6.4,23.4,23.4,0,0,1,10.4-2.3c8.9,0,15,2.9,18.1,8.7h1.5a16.1,16.1,0,0,1,7-6.4,23.8,23.8,0,0,1,10.5-2.3c6.8,0,11.9,1.7,15.4,5.2s5.1,9,5.1,16.6v38.9h-16.3V274.6c0-4.3-.7-7.5-2.1-9.7s-3.7-3.2-6.8-3.2-6.9,1.4-8.9,4.3-3,7.3-3,13.5Z" fill="#00538b"/><path d="M2173.2,310.4q-12.4,0-19.5-7.8c-4.7-5.2-7-12.5-7-21.8s2.4-17.1,7.3-22.4,11.5-8.1,20-8.1a38.6,38.6,0,0,1,14.3,2.7l-1.4,4.6a44.5,44.5,0,0,0-13.1-2.5c-7.1,0-12.4,2.2-16.1,6.6s-5.5,10.7-5.5,19,1.9,13.9,5.5,18.3,8.8,6.6,15.3,6.6a37.4,37.4,0,0,0,14.7-2.8v4.9C2184,309.5,2179.2,310.4,2173.2,310.4Z" fill="#00538b"/><path d="M2218.7,310.4c-8.4,0-15-2.6-19.7-7.8s-7-12.4-7-21.7,2.2-16.7,6.8-22.2,10.6-8.4,18.3-8.4,12.2,2.4,16.2,7.2,5.9,11.2,5.9,19.4v4.2h-41.7c.1,8,1.9,14.1,5.6,18.2s8.8,6.3,15.6,6.3a45.1,45.1,0,0,0,8.7-.7,48.3,48.3,0,0,0,9.5-2.9v4.7a38,38,0,0,1-9.1,2.9A42.8,42.8,0,0,1,2218.7,310.4Zm-1.6-55.4a17.7,17.7,0,0,0-13.4,5.5c-3.3,3.7-5.3,9-5.9,15.9h35.8c0-6.7-1.5-11.9-4.4-15.7S2222.3,255,2217.1,255Z" fill="#00538b"/><path d="M2286.7,294.3c0,5.2-2,9.2-5.9,11.9s-9.5,4.2-16.8,4.2-13.9-1.2-18.4-3.5v-5.7a40.5,40.5,0,0,0,18.4,4.3c5.7,0,10.1-.9,13-2.8a8.7,8.7,0,0,0,4.5-7.6,9.3,9.3,0,0,0-3.6-7.4c-2.3-2-6.2-3.9-11.6-5.8s-9.9-3.9-12.2-5.4a17.3,17.3,0,0,1-5.3-5.1,13,13,0,0,1-1.8-7,11.9,11.9,0,0,1,5.5-10.3c3.6-2.5,8.7-3.8,15.2-3.8a44.6,44.6,0,0,1,17.8,3.6l-1.9,4.8a41.2,41.2,0,0,0-15.9-3.6c-4.7,0-8.4.8-11.2,2.4s-4.2,3.7-4.2,6.5a8.8,8.8,0,0,0,3.3,7.2c2.1,1.8,6.3,3.9,12.6,6.1a65.2,65.2,0,0,1,11.4,5.1,17.3,17.3,0,0,1,5.3,5.1A12.5,12.5,0,0,1,2286.7,294.3Z" fill="#00538b"/><path d="M1984.4,627.1a.5.5,0,0,0-.6-.2l-194.4,71.5a.8.8,0,0,0-.4.4.8.8,0,0,0,.2.5l102.4,79.8h.3l.4-.2a.5.5,0,0,0,0-.7L1829.1,706l155.1-78.2A.5.5,0,0,0,1984.4,627.1Z" fill="#007298"/><path d="M1980.5,631.5a.5.5,0,0,0-.6-.1l-51.2,28.4a.4.4,0,0,0-.2.6.4.4,0,0,0,.4.4l8.8.6L1894.4,775a.6.6,0,0,0,.2.7h.2l.5-.2,85.3-143.4A.5.5,0,0,0,1980.5,631.5Z" fill="#007298"/><path d="M1999.2,754.3v.7l-2.3.2a3.8,3.8,0,0,1,.9,2.5,3.6,3.6,0,0,1-1.1,2.6,4.1,4.1,0,0,1-2.8,1h-1.1a3.5,3.5,0,0,0-.9.7,1.6,1.6,0,0,0-.3.9c0,.4.1.7.4.8a2.3,2.3,0,0,0,1.3.3h2a4.1,4.1,0,0,1,2.7.7,2.4,2.4,0,0,1,1,2.1,3.1,3.1,0,0,1-1.4,2.7,6.9,6.9,0,0,1-4.1,1,5.8,5.8,0,0,1-3.2-.8,2.6,2.6,0,0,1-1.1-2.3,2.4,2.4,0,0,1,.7-1.8,3.6,3.6,0,0,1,1.9-1.1,1.6,1.6,0,0,1-.8-.6,1.2,1.2,0,0,1-.3-.9,2.3,2.3,0,0,1,1.4-1.9,3.7,3.7,0,0,1-1.5-1.3,3,3,0,0,1-.5-1.9,3.6,3.6,0,0,1,1-2.7,4.3,4.3,0,0,1,2.8-1l1.7.2Zm-9,12.9c0,1.6,1.2,2.3,3.4,2.3s4.4-.9,4.4-2.7a1.8,1.8,0,0,0-.7-1.5,4.3,4.3,0,0,0-2.2-.4h-1.8C1991.2,764.9,1990.2,765.7,1990.2,767.2Zm.9-9.4a2.7,2.7,0,0,0,.7,2,3.8,3.8,0,0,0,2.1.7,3.1,3.1,0,0,0,2.1-.7,3.2,3.2,0,0,0,0-4.2,3.3,3.3,0,0,0-2.1-.7,2.9,2.9,0,0,0-2.1.8A2.8,2.8,0,0,0,1991.1,757.8Z" fill="#76777a"/><path d="M2005.8,754.1l1.5.2-.2.9h-1.4a2.9,2.9,0,0,0-2.4,1.2,4.9,4.9,0,0,0-.9,3v6.1h-1V754.3h.9v2h.1a4.9,4.9,0,0,1,1.4-1.7A3.6,3.6,0,0,1,2005.8,754.1Z" fill="#76777a"/><path d="M2018.6,759.8a6.3,6.3,0,0,1-1.3,4.3,5,5,0,0,1-6.1.8,4.7,4.7,0,0,1-1.7-2,7.5,7.5,0,0,1-.6-3.1,6,6,0,0,1,1.3-4.2,4.6,4.6,0,0,1,3.6-1.5,4.4,4.4,0,0,1,3.6,1.6A6.5,6.5,0,0,1,2018.6,759.8Zm-8.7,0a6.2,6.2,0,0,0,1,3.6,3.6,3.6,0,0,0,2.9,1.3,3.6,3.6,0,0,0,2.8-1.3,5.5,5.5,0,0,0,1-3.6,5.2,5.2,0,0,0-1-3.5,3.6,3.6,0,0,0-2.9-1.3,3.6,3.6,0,0,0-2.8,1.3A5.8,5.8,0,0,0,2009.9,759.8Z" fill="#76777a"/><path d="M2030.5,765.4l-2.4-7.4c-.1-.5-.3-1.2-.6-2.2h-.1l-.2.7-.4,1.5-2.5,7.4h-1l-3.1-11.1h1l1.8,6.4c.4,1.6.7,2.8.8,3.5h.1a28.3,28.3,0,0,1,.9-3.1l2.2-6.8h.9l2.2,6.8a31,31,0,0,1,.9,3.1h.1a25.1,25.1,0,0,1,.8-3.5l1.7-6.4h1l-3,11.1Z" fill="#76777a"/><path d="M2090.3,751.3c0-.7.2-1,.6-1a.5.5,0,0,1,.5.3,1.2,1.2,0,0,1,.2.7,1.4,1.4,0,0,1-.2.7.5.5,0,0,1-.5.3C2090.5,752.3,2090.3,751.9,2090.3,751.3Zm1.1,14.1h-1V754.3h1Z" fill="#76777a"/><path d="M2102.8,765.4v-7.2a3.3,3.3,0,0,0-.7-2.4,2.9,2.9,0,0,0-2.2-.8,4,4,0,0,0-2.9,1,5,5,0,0,0-.9,3.3v6.1h-1V754.3h.9v1.6h.1a4.1,4.1,0,0,1,3.8-1.8c2.5,0,3.8,1.4,3.8,4.1v7.2Z" fill="#76777a"/><path d="M2114.2,762.5a2.7,2.7,0,0,1-1.1,2.3,5.8,5.8,0,0,1-3.2.8,6.8,6.8,0,0,1-3.5-.7v-1.1a7.2,7.2,0,0,0,3.5.8,4.4,4.4,0,0,0,2.5-.5,1.7,1.7,0,0,0,.8-1.4,1.5,1.5,0,0,0-.7-1.4,7.2,7.2,0,0,0-2.2-1.2,10.8,10.8,0,0,1-2.3-1,2.4,2.4,0,0,1-1-1,2.5,2.5,0,0,1-.4-1.3,2.1,2.1,0,0,1,1.1-1.9,4.8,4.8,0,0,1,2.9-.8,9.8,9.8,0,0,1,3.4.7l-.4.9a9.2,9.2,0,0,0-3-.7,4.1,4.1,0,0,0-2.1.5,1.2,1.2,0,0,0-.8,1.2,1.7,1.7,0,0,0,.6,1.4,8.6,8.6,0,0,0,2.4,1.2,11.6,11.6,0,0,1,2.1.9,5.5,5.5,0,0,1,1.1,1A2.8,2.8,0,0,1,2114.2,762.5Z" fill="#76777a"/><path d="M2121.8,765.6a4.1,4.1,0,0,1-3.7-1.9h-.1v.8c0,.5.1,1.1.1,1.7v4.2h-1V754.3h.8l.2,1.6h.1a3.8,3.8,0,0,1,3.6-1.8,4.1,4.1,0,0,1,3.4,1.5,6.7,6.7,0,0,1,1.2,4.3,6,6,0,0,1-1.3,4.2A4,4,0,0,1,2121.8,765.6Zm0-.9a2.9,2.9,0,0,0,2.6-1.3,5.8,5.8,0,0,0,.9-3.5c0-3.2-1.2-4.9-3.5-4.9a3.5,3.5,0,0,0-2.8,1.1,5.4,5.4,0,0,0-.9,3.5v.3a6.2,6.2,0,0,0,.8,3.7A3.5,3.5,0,0,0,2121.8,764.7Z" fill="#76777a"/><path d="M2129.3,751.3c0-.7.2-1,.6-1a.5.5,0,0,1,.5.3,1.2,1.2,0,0,1,.2.7,1.4,1.4,0,0,1-.2.7.5.5,0,0,1-.5.3C2129.5,752.3,2129.3,751.9,2129.3,751.3Zm1.1,14.1h-1V754.3h1Z" fill="#76777a"/><path d="M2138.5,754.1l1.5.2-.2.9h-1.4a2.9,2.9,0,0,0-2.4,1.2,4.9,4.9,0,0,0-.9,3v6.1h-1V754.3h.9v2h.1a4.9,4.9,0,0,1,1.4-1.7A3.6,3.6,0,0,1,2138.5,754.1Z" fill="#76777a"/><path d="M2146.7,765.6a4.9,4.9,0,0,1-3.8-1.5,6,6,0,0,1-1.3-4.2,6.4,6.4,0,0,1,1.3-4.2,4.3,4.3,0,0,1,3.5-1.6,4,4,0,0,1,3.1,1.4,5.8,5.8,0,0,1,1.1,3.7v.8h-8a5.8,5.8,0,0,0,1.1,3.5,3.8,3.8,0,0,0,3,1.2l1.6-.2a5.9,5.9,0,0,0,1.9-.5v.9a7,7,0,0,1-1.8.5Zm-.3-10.6a3.5,3.5,0,0,0-2.6,1.1,5.1,5.1,0,0,0-1.1,3h6.8a5.1,5.1,0,0,0-.8-3A2.8,2.8,0,0,0,2146.4,755Z" fill="#76777a"/><path d="M2219.4,762.5a2.6,2.6,0,0,1-1.2,2.3,5.6,5.6,0,0,1-3.2.8,7.3,7.3,0,0,1-3.5-.7v-1.1a7.2,7.2,0,0,0,3.5.8,4.3,4.3,0,0,0,2.5-.5,1.6,1.6,0,0,0,.9-1.4,1.7,1.7,0,0,0-.7-1.4,8.6,8.6,0,0,0-2.2-1.2l-2.4-1a4.7,4.7,0,0,1-1-1,2.5,2.5,0,0,1-.3-1.3,2.1,2.1,0,0,1,1-1.9,5,5,0,0,1,2.9-.8,9.4,9.4,0,0,1,3.4.7l-.3.9a9.2,9.2,0,0,0-3.1-.7,4.1,4.1,0,0,0-2.1.5,1.4,1.4,0,0,0-.8,1.2,1.7,1.7,0,0,0,.6,1.4,8.6,8.6,0,0,0,2.4,1.2,19,19,0,0,1,2.2.9,3.1,3.1,0,0,1,1,1A2.8,2.8,0,0,1,2219.4,762.5Z" fill="#76777a"/><path d="M2223.1,754.3v7.2a3.3,3.3,0,0,0,.7,2.4,2.7,2.7,0,0,0,2.1.8,3.9,3.9,0,0,0,2.9-1,4.5,4.5,0,0,0,1-3.3v-6.1h1v11.1h-.9l-.2-1.5h0c-.7,1.1-2,1.7-3.9,1.7s-3.7-1.4-3.7-4v-7.3Z" fill="#76777a"/><path d="M2238.9,765.6a4.7,4.7,0,0,1-3.7-1.5,7,7,0,0,1,0-8.4,4.6,4.6,0,0,1,3.8-1.6,8.7,8.7,0,0,1,2.8.5l-.3.9a9.2,9.2,0,0,0-2.5-.5,4.1,4.1,0,0,0-3.1,1.3,5.3,5.3,0,0,0-1,3.6,5.2,5.2,0,0,0,1,3.5,3.8,3.8,0,0,0,3,1.3,6,6,0,0,0,2.7-.6v1A6.8,6.8,0,0,1,2238.9,765.6Z" fill="#76777a"/><path d="M2248.8,765.6a4.9,4.9,0,0,1-3.8-1.5,6.6,6.6,0,0,1-1.3-4.2,6.1,6.1,0,0,1,1.4-4.2,4.6,4.6,0,0,1,3.8-1.6,7.6,7.6,0,0,1,2.7.5l-.2.9a9.2,9.2,0,0,0-2.5-.5,3.9,3.9,0,0,0-3.1,1.3,5.3,5.3,0,0,0-1,3.6,5.2,5.2,0,0,0,1,3.5,3.8,3.8,0,0,0,2.9,1.3,6.4,6.4,0,0,0,2.8-.6v1A6.8,6.8,0,0,1,2248.8,765.6Z" fill="#76777a"/><path d="M2258.7,765.6a4.9,4.9,0,0,1-3.8-1.5,6,6,0,0,1-1.3-4.2,6.4,6.4,0,0,1,1.3-4.2,4.3,4.3,0,0,1,3.5-1.6,4,4,0,0,1,3.1,1.4,5.8,5.8,0,0,1,1.1,3.7v.8h-8a5.8,5.8,0,0,0,1.1,3.5,3.8,3.8,0,0,0,3,1.2l1.6-.2a5.9,5.9,0,0,0,1.9-.5v.9a7,7,0,0,1-1.8.5Zm-.3-10.6a3.5,3.5,0,0,0-2.6,1.1,5.1,5.1,0,0,0-1.1,3h6.8a5.1,5.1,0,0,0-.8-3A2.8,2.8,0,0,0,2258.4,755Z" fill="#76777a"/><path d="M2270.1,765.6a4.9,4.9,0,0,1-3.8-1.5,6,6,0,0,1-1.3-4.2,6.4,6.4,0,0,1,1.3-4.2,4.5,4.5,0,0,1,3.5-1.6,4,4,0,0,1,3.1,1.4,5.8,5.8,0,0,1,1.1,3.7v.8h-7.9a5.2,5.2,0,0,0,1,3.5,3.8,3.8,0,0,0,3,1.2l1.7-.2a6.2,6.2,0,0,0,1.8-.5v.9a7,7,0,0,1-1.8.5Zm-.3-10.6a3.5,3.5,0,0,0-2.6,1.1,5.1,5.1,0,0,0-1.1,3h6.8a4.5,4.5,0,0,0-.8-3A2.8,2.8,0,0,0,2269.8,755Z" fill="#76777a"/><path d="M2281.1,754.1a4.6,4.6,0,0,1,2.1.5,4.3,4.3,0,0,1,1.5,1.5h.1a21.8,21.8,0,0,1-.1-2.5v-4h1v15.8h-.6l-.3-1.7h-.1a3.9,3.9,0,0,1-3.6,1.9,4.5,4.5,0,0,1-3.5-1.4,6.6,6.6,0,0,1-1.2-4.2,7.2,7.2,0,0,1,1.2-4.4A4.3,4.3,0,0,1,2281.1,754.1Zm0,.9a3.2,3.2,0,0,0-2.7,1.3,6.5,6.5,0,0,0-.9,3.7c0,3.1,1.2,4.7,3.6,4.7a3.1,3.1,0,0,0,2.7-1.1,5.6,5.6,0,0,0,.9-3.6v-.2a6.4,6.4,0,0,0-.8-3.6A3.2,3.2,0,0,0,2281.1,755Z" fill="#76777a"/><path d="M2029,728.5l-3.2-8.1h-.4a24.9,24.9,0,0,1-8.4,7.2,27.9,27.9,0,0,1-11.3,2c-5.8,0-10.3-1.7-13.5-4.9s-5-8-5-14,2.2-11,6.7-14,11-4.6,20-5l10.3-.3v-2.6q0-9-9.3-9c-4.7,0-10.3,1.4-16.8,4.3l-5.3-11a48,48,0,0,1,22.8-5.4c7.9,0,14.1,1.8,18.3,5.2s6.4,8.8,6.4,15.9v39.7Zm-4.8-27.6-6.3.2c-4.7.2-8.2,1-10.5,2.6a7.9,7.9,0,0,0-3.5,7.1c0,4.6,2.6,6.9,7.9,6.9a12.3,12.3,0,0,0,9-3.3,11.1,11.1,0,0,0,3.4-8.6Z" fill="#007298"/><path d="M2101.6,728.5h-16.2V693.7c0-4.3-.7-7.5-2.2-9.7s-3.7-3.2-6.8-3.2-7.1,1.6-9,4.6-2.8,8.1-2.8,15.1v28h-16.3V668.9h12.4l2.2,7.7h.9a16.7,16.7,0,0,1,6.9-6.5,23.4,23.4,0,0,1,10.4-2.3c8.9,0,15,2.9,18.1,8.8h1.5a15.8,15.8,0,0,1,7-6.5,23.8,23.8,0,0,1,10.5-2.3c6.8,0,11.9,1.8,15.4,5.2s5.1,9,5.1,16.7v38.8h-16.3V693.7c0-4.3-.7-7.5-2.1-9.7s-3.7-3.2-6.8-3.2-6.9,1.4-8.9,4.3-3,7.3-3,13.5Z" fill="#007298"/><path d="M2173.2,729.6c-8.3,0-14.8-2.7-19.5-7.9s-7-12.5-7-21.8,2.4-17.1,7.3-22.4,11.5-8,20-8a40.7,40.7,0,0,1,14.3,2.6l-1.4,4.7a41.5,41.5,0,0,0-13.1-2.5c-7.1,0-12.4,2.2-16.1,6.6s-5.5,10.6-5.5,18.9,1.9,13.9,5.5,18.3,8.8,6.7,15.3,6.7a37.4,37.4,0,0,0,14.7-2.9v4.9C2184,728.6,2179.2,729.6,2173.2,729.6Z" fill="#007298"/><path d="M2218.7,729.6c-8.4,0-15-2.6-19.7-7.8s-7-12.5-7-21.8,2.2-16.6,6.8-22.2,10.6-8.3,18.3-8.3,12.2,2.4,16.2,7.1,5.9,11.2,5.9,19.4v4.3h-41.7c.1,7.9,1.9,14,5.6,18.2s8.8,6.3,15.6,6.3a54.7,54.7,0,0,0,8.7-.7,58.2,58.2,0,0,0,9.5-3v4.8a43.1,43.1,0,0,1-9.1,2.9A50.5,50.5,0,0,1,2218.7,729.6Zm-1.6-55.4c-5.5,0-10,1.8-13.4,5.5s-5.3,9-5.9,15.9h35.8c0-6.7-1.5-12-4.4-15.8S2222.3,674.2,2217.1,674.2Z" fill="#007298"/><path d="M2286.7,713.4a13.9,13.9,0,0,1-5.9,12c-4,2.8-9.5,4.2-16.8,4.2s-13.9-1.2-18.4-3.6v-5.7a40.6,40.6,0,0,0,18.4,4.4c5.7,0,10.1-1,13-2.9s4.5-4.4,4.5-7.6a9.1,9.1,0,0,0-3.6-7.3c-2.3-2-6.2-4-11.6-5.9s-9.9-3.9-12.2-5.4a17.3,17.3,0,0,1-5.3-5.1,12.8,12.8,0,0,1-1.8-7,11.7,11.7,0,0,1,5.5-10.2c3.6-2.6,8.7-3.8,15.2-3.8a46.3,46.3,0,0,1,17.8,3.5l-1.9,4.8a40.9,40.9,0,0,0-15.9-3.5c-4.7,0-8.4.8-11.2,2.3s-4.2,3.7-4.2,6.5a9.2,9.2,0,0,0,3.3,7.3q3.2,2.7,12.6,6a65.2,65.2,0,0,1,11.4,5.1,16.5,16.5,0,0,1,5.3,5.2A12.2,12.2,0,0,1,2286.7,713.4Z" fill="#007298"/><path d="M1984.4,1046.3a.4.4,0,0,0-.6-.3l-194.4,71.5a.8.8,0,0,0-.4.4.8.8,0,0,0,.2.5l102.4,79.8h.3l.4-.2a.5.5,0,0,0,0-.7l-63.2-72.2,155.1-78.3C1984.4,1046.8,1984.6,1046.5,1984.4,1046.3Z" fill="#5b89b4"/><path d="M1980.5,1050.6a.7.7,0,0,0-.6-.1l-51.2,28.4a.5.5,0,0,0-.2.6.4.4,0,0,0,.4.4l8.8.6-43.3,113.7a.5.5,0,0,0,.2.6h.2a.5.5,0,0,0,.5-.3l85.3-143.4A.5.5,0,0,0,1980.5,1050.6Z" fill="#5b89b4"/><path d="M1999.2,1173.5v.7h-2.3a4,4,0,0,1,.9,2.5,3.5,3.5,0,0,1-1.1,2.6,3.7,3.7,0,0,1-2.8,1h-1.1a2.4,2.4,0,0,0-.9.8,1.6,1.6,0,0,0-.3.9.7.7,0,0,0,.4.7,2.3,2.3,0,0,0,1.3.3h2a4.1,4.1,0,0,1,2.7.7,2.5,2.5,0,0,1,1,2.2,3.3,3.3,0,0,1-1.4,2.7,7.8,7.8,0,0,1-4.1.9,5.8,5.8,0,0,1-3.2-.8,2.4,2.4,0,0,1-1.1-2.2,2.5,2.5,0,0,1,.7-1.9,2.9,2.9,0,0,1,1.9-1l-.8-.6a1.6,1.6,0,0,1-.3-.9c0-.8.5-1.4,1.4-2a4.4,4.4,0,0,1-1.5-1.2,3.5,3.5,0,0,1-.5-2,3.3,3.3,0,0,1,1-2.6,3.9,3.9,0,0,1,2.8-1,3.9,3.9,0,0,1,1.7.2Zm-9,12.9c0,1.5,1.2,2.3,3.4,2.3s4.4-1,4.4-2.8a1.8,1.8,0,0,0-.7-1.5,4.3,4.3,0,0,0-2.2-.4h-1.8C1991.2,1184,1990.2,1184.8,1990.2,1186.4Zm.9-9.5a2.6,2.6,0,0,0,.7,2,3.1,3.1,0,0,0,2.1.7,2.7,2.7,0,0,0,2.1-.7,2.6,2.6,0,0,0,.8-2,2.6,2.6,0,0,0-.8-2.1,2.8,2.8,0,0,0-4.9,2.1Z" fill="#76777a"/><path d="M2005.8,1173.3h1.5l-.2,1-1.4-.2a2.9,2.9,0,0,0-2.4,1.2,4.9,4.9,0,0,0-.9,3v6.1h-1v-11h.9v2h.1a4.1,4.1,0,0,1,1.4-1.7A2.9,2.9,0,0,1,2005.8,1173.3Z" fill="#76777a"/><path d="M2018.6,1179a6,6,0,0,1-1.3,4.2,5,5,0,0,1-6.1.8,4.2,4.2,0,0,1-1.7-2,7.3,7.3,0,0,1-.6-3,6,6,0,0,1,1.3-4.2,5.1,5.1,0,0,1,7.2,0A6.6,6.6,0,0,1,2018.6,1179Zm-8.7,0a5.8,5.8,0,0,0,1,3.5,3.4,3.4,0,0,0,2.9,1.3,3.3,3.3,0,0,0,2.8-1.3,5.2,5.2,0,0,0,1-3.5,5.7,5.7,0,0,0-1-3.6,3.6,3.6,0,0,0-2.9-1.2,3.5,3.5,0,0,0-2.8,1.2A6.4,6.4,0,0,0,2009.9,1179Z" fill="#76777a"/><path d="M2030.5,1184.5l-2.4-7.4c-.1-.5-.3-1.2-.6-2.2h-.1l-.2.8-.4,1.5-2.5,7.3h-1l-3.1-11h1l1.8,6.4c.4,1.6.7,2.7.8,3.5h.1a32.8,32.8,0,0,1,.9-3.2l2.2-6.7h.9l2.2,6.7c.5,1.6.8,2.6.9,3.1h.1a25.1,25.1,0,0,1,.8-3.5l1.7-6.3h1l-3,11Z" fill="#76777a"/><path d="M2090.3,1170.4c0-.6.2-1,.6-1a.5.5,0,0,1,.5.3,1.4,1.4,0,0,1,.2.7,1.2,1.2,0,0,1-.2.7.5.5,0,0,1-.5.3C2090.5,1171.4,2090.3,1171.1,2090.3,1170.4Zm1.1,14.1h-1v-11h1Z" fill="#76777a"/><path d="M2102.8,1184.5v-7.1a3.4,3.4,0,0,0-.7-2.5,2.9,2.9,0,0,0-2.2-.7,3.7,3.7,0,0,0-2.9,1,4.5,4.5,0,0,0-.9,3.2v6.1h-1v-11h.9v1.5h.1c.7-1.2,2-1.7,3.8-1.7s3.8,1.3,3.8,4v7.2Z" fill="#76777a"/><path d="M2114.2,1181.6a2.7,2.7,0,0,1-1.1,2.3,5.1,5.1,0,0,1-3.2.8,6.8,6.8,0,0,1-3.5-.7v-1.1a7.3,7.3,0,0,0,3.5.9,4.4,4.4,0,0,0,2.5-.6,1.6,1.6,0,0,0,.8-1.4,1.6,1.6,0,0,0-.7-1.4,5.6,5.6,0,0,0-2.2-1.1,9.9,9.9,0,0,1-2.3-1.1,2.2,2.2,0,0,1-1-.9,2.9,2.9,0,0,1-.4-1.4,2.3,2.3,0,0,1,1.1-1.9,4.8,4.8,0,0,1,2.9-.7,9.7,9.7,0,0,1,3.4.6l-.4.9a8.9,8.9,0,0,0-3-.6,4.1,4.1,0,0,0-2.1.4,1.3,1.3,0,0,0-.8,1.3,1.6,1.6,0,0,0,.6,1.3,6.5,6.5,0,0,0,2.4,1.2,10.4,10.4,0,0,1,2.1,1,5.3,5.3,0,0,1,1.1.9A2.8,2.8,0,0,1,2114.2,1181.6Z" fill="#76777a"/><path d="M2121.8,1184.7a3.9,3.9,0,0,1-3.7-1.9h-.1v.9c0,.5.1,1,.1,1.6v4.2h-1v-16h.8l.2,1.6h.1a3.8,3.8,0,0,1,3.6-1.8,4.3,4.3,0,0,1,3.4,1.4,6.7,6.7,0,0,1,1.2,4.3,6,6,0,0,1-1.3,4.2A4,4,0,0,1,2121.8,1184.7Zm0-.9a3.1,3.1,0,0,0,2.6-1.2,6.4,6.4,0,0,0,.9-3.6c0-3.2-1.2-4.8-3.5-4.8a3.4,3.4,0,0,0-2.8,1,5.4,5.4,0,0,0-.9,3.5v.3c0,1.7.2,3,.8,3.7A3.3,3.3,0,0,0,2121.8,1183.8Z" fill="#76777a"/><path d="M2129.3,1170.4c0-.6.2-1,.6-1a.5.5,0,0,1,.5.3,1.4,1.4,0,0,1,.2.7,1.2,1.2,0,0,1-.2.7.5.5,0,0,1-.5.3C2129.5,1171.4,2129.3,1171.1,2129.3,1170.4Zm1.1,14.1h-1v-11h1Z" fill="#76777a"/><path d="M2138.5,1173.3h1.5l-.2,1-1.4-.2a2.9,2.9,0,0,0-2.4,1.2,4.9,4.9,0,0,0-.9,3v6.1h-1v-11h.9v2h.1a4.1,4.1,0,0,1,1.4-1.7A2.9,2.9,0,0,1,2138.5,1173.3Z" fill="#76777a"/><path d="M2146.7,1184.7a4.9,4.9,0,0,1-3.8-1.5,5.8,5.8,0,0,1-1.3-4.1,6,6,0,0,1,1.3-4.2,4.1,4.1,0,0,1,3.5-1.6,3.9,3.9,0,0,1,3.1,1.3,6,6,0,0,1,1.1,3.7v.8h-8a5.8,5.8,0,0,0,1.1,3.5,3.8,3.8,0,0,0,3,1.2h1.6l1.9-.6v.9a7.6,7.6,0,0,1-1.8.6Zm-.3-10.5a3.4,3.4,0,0,0-2.6,1,5.1,5.1,0,0,0-1.1,3h6.8a5.6,5.6,0,0,0-.8-3A2.8,2.8,0,0,0,2146.4,1174.2Z" fill="#76777a"/><path d="M2219.4,1181.6a2.6,2.6,0,0,1-1.2,2.3,4.9,4.9,0,0,1-3.2.8,7.3,7.3,0,0,1-3.5-.7v-1.1a7.3,7.3,0,0,0,3.5.9,4.2,4.2,0,0,0,2.5-.6,1.5,1.5,0,0,0,.9-1.4,1.9,1.9,0,0,0-.7-1.4,6.4,6.4,0,0,0-2.2-1.1,14.2,14.2,0,0,1-2.4-1.1,4.3,4.3,0,0,1-1-.9,2.9,2.9,0,0,1-.3-1.4,2.2,2.2,0,0,1,1-1.9,5,5,0,0,1,2.9-.7,9.3,9.3,0,0,1,3.4.6l-.3.9a8.9,8.9,0,0,0-3.1-.6,4.1,4.1,0,0,0-2.1.4,1.4,1.4,0,0,0-.8,1.3,1.6,1.6,0,0,0,.6,1.3,6.5,6.5,0,0,0,2.4,1.2l2.2,1a3,3,0,0,1,1,.9A2.8,2.8,0,0,1,2219.4,1181.6Z" fill="#76777a"/><path d="M2223.1,1173.5v7.1a3.3,3.3,0,0,0,.7,2.4,2.7,2.7,0,0,0,2.1.8,3.5,3.5,0,0,0,2.9-1,4.2,4.2,0,0,0,1-3.2v-6.1h1v11h-.9l-.2-1.5h0c-.7,1.1-2,1.7-3.9,1.7s-3.7-1.3-3.7-4v-7.2Z" fill="#76777a"/><path d="M2238.9,1184.7a4.7,4.7,0,0,1-3.7-1.5,6,6,0,0,1-1.4-4.1,6.2,6.2,0,0,1,1.4-4.3,4.9,4.9,0,0,1,3.8-1.5,6.6,6.6,0,0,1,2.8.5l-.3.9a6.5,6.5,0,0,0-2.5-.5,4,4,0,0,0-3.1,1.2,5.7,5.7,0,0,0-1,3.6,5.2,5.2,0,0,0,1,3.5,3.5,3.5,0,0,0,3,1.3,7.6,7.6,0,0,0,2.7-.5v.9A6.8,6.8,0,0,1,2238.9,1184.7Z" fill="#76777a"/><path d="M2248.8,1184.7a4.9,4.9,0,0,1-3.8-1.5,6.5,6.5,0,0,1-1.3-4.1,6.2,6.2,0,0,1,1.4-4.3,4.9,4.9,0,0,1,3.8-1.5,5.9,5.9,0,0,1,2.7.5l-.2.9a6.5,6.5,0,0,0-2.5-.5,3.9,3.9,0,0,0-3.1,1.2,5.7,5.7,0,0,0-1,3.6,5.2,5.2,0,0,0,1,3.5,3.5,3.5,0,0,0,2.9,1.3,8.2,8.2,0,0,0,2.8-.5v.9A6.8,6.8,0,0,1,2248.8,1184.7Z" fill="#76777a"/><path d="M2258.7,1184.7a4.9,4.9,0,0,1-3.8-1.5,5.8,5.8,0,0,1-1.3-4.1,6,6,0,0,1,1.3-4.2,4.1,4.1,0,0,1,3.5-1.6,3.9,3.9,0,0,1,3.1,1.3,6,6,0,0,1,1.1,3.7v.8h-8a5.8,5.8,0,0,0,1.1,3.5,3.8,3.8,0,0,0,3,1.2h1.6l1.9-.6v.9a7.6,7.6,0,0,1-1.8.6Zm-.3-10.5a3.4,3.4,0,0,0-2.6,1,5.1,5.1,0,0,0-1.1,3h6.8a5.6,5.6,0,0,0-.8-3A2.8,2.8,0,0,0,2258.4,1174.2Z" fill="#76777a"/><path d="M2270.1,1184.7a4.9,4.9,0,0,1-3.8-1.5,5.8,5.8,0,0,1-1.3-4.1,6,6,0,0,1,1.3-4.2,4.2,4.2,0,0,1,3.5-1.6,3.9,3.9,0,0,1,3.1,1.3,6,6,0,0,1,1.1,3.7v.8h-7.9a5.2,5.2,0,0,0,1,3.5,3.8,3.8,0,0,0,3,1.2h1.7l1.8-.6v.9a7.6,7.6,0,0,1-1.8.6Zm-.3-10.5a3.4,3.4,0,0,0-2.6,1,5.1,5.1,0,0,0-1.1,3h6.8a4.8,4.8,0,0,0-.8-3A2.8,2.8,0,0,0,2269.8,1174.2Z" fill="#76777a"/><path d="M2281.1,1173.3a4.6,4.6,0,0,1,2.1.4,4.3,4.3,0,0,1,1.5,1.5h.1a21.8,21.8,0,0,1-.1-2.5v-4h1v15.8h-.6l-.3-1.7h-.1a3.9,3.9,0,0,1-3.6,1.9,4.5,4.5,0,0,1-3.5-1.4,6.3,6.3,0,0,1-1.2-4.1,6.8,6.8,0,0,1,1.2-4.4A4.3,4.3,0,0,1,2281.1,1173.3Zm0,.9a3.2,3.2,0,0,0-2.7,1.2,6.5,6.5,0,0,0-.9,3.7c0,3.2,1.2,4.7,3.6,4.7a2.9,2.9,0,0,0,2.7-1.1,5.4,5.4,0,0,0,.9-3.5v-.2a6.8,6.8,0,0,0-.8-3.7A3.5,3.5,0,0,0,2281.1,1174.2Z" fill="#76777a"/><path d="M2029,1147.6l-3.2-8.1h-.4a22.8,22.8,0,0,1-8.4,7.2,27.9,27.9,0,0,1-11.3,2c-5.8,0-10.3-1.7-13.5-4.9s-5-7.9-5-14,2.2-10.9,6.7-13.9,11-4.7,20-5l10.3-.3v-2.7q0-9-9.3-9c-4.7,0-10.3,1.4-16.8,4.3l-5.3-11a47.9,47.9,0,0,1,22.8-5.3c7.9,0,14.1,1.7,18.3,5.2s6.4,8.7,6.4,15.8v39.7Zm-4.8-27.6-6.3.2c-4.7.2-8.2,1-10.5,2.6a8,8,0,0,0-3.5,7.1c0,4.6,2.6,6.9,7.9,6.9a12.7,12.7,0,0,0,9-3.2,11.5,11.5,0,0,0,3.4-8.7Z" fill="#5b89b4"/><path d="M2101.6,1147.6h-16.2v-34.8c0-4.3-.7-7.5-2.2-9.6s-3.7-3.2-6.8-3.2-7.1,1.5-9,4.5-2.8,8.1-2.8,15.1v28h-16.3v-59.5h12.4l2.2,7.6h.9a16.5,16.5,0,0,1,6.9-6.4,22.1,22.1,0,0,1,10.4-2.3c8.9,0,15,2.9,18.1,8.7h1.5a15.6,15.6,0,0,1,7-6.4,22.5,22.5,0,0,1,10.5-2.3c6.8,0,11.9,1.7,15.4,5.2s5.1,9,5.1,16.6v38.8h-16.3v-34.8q0-6.5-2.1-9.6c-1.4-2.2-3.7-3.2-6.8-3.2s-6.9,1.4-8.9,4.2-3,7.4-3,13.5Z" fill="#5b89b4"/><path d="M2173.2,1148.7q-12.4,0-19.5-7.8c-4.7-5.3-7-12.5-7-21.9s2.4-17,7.3-22.4,11.5-8,20-8a40.7,40.7,0,0,1,14.3,2.6l-1.4,4.7a41.5,41.5,0,0,0-13.1-2.5c-7.1,0-12.4,2.2-16.1,6.6s-5.5,10.7-5.5,18.9,1.9,13.9,5.5,18.4,8.8,6.6,15.3,6.6a39.3,39.3,0,0,0,14.7-2.8v4.9C2184,1147.8,2179.2,1148.7,2173.2,1148.7Z" fill="#5b89b4"/><path d="M2218.7,1148.7c-8.4,0-15-2.6-19.7-7.8s-7-12.4-7-21.8,2.2-16.6,6.8-22.2,10.6-8.3,18.3-8.3,12.2,2.4,16.2,7.1,5.9,11.3,5.9,19.4v4.3h-41.7c.1,7.9,1.9,14,5.6,18.2s8.8,6.3,15.6,6.3a45.1,45.1,0,0,0,8.7-.7,58.2,58.2,0,0,0,9.5-3v4.8a43.1,43.1,0,0,1-9.1,2.9A50.5,50.5,0,0,1,2218.7,1148.7Zm-1.6-55.4c-5.5,0-10,1.8-13.4,5.5s-5.3,9-5.9,15.9h35.8c0-6.7-1.5-11.9-4.4-15.7S2222.3,1093.3,2217.1,1093.3Z" fill="#5b89b4"/><path d="M2286.7,1132.5a13.9,13.9,0,0,1-5.9,12c-4,2.8-9.5,4.2-16.8,4.2s-13.9-1.2-18.4-3.6v-5.7a40.6,40.6,0,0,0,18.4,4.4c5.7,0,10.1-1,13-2.9s4.5-4.4,4.5-7.6a9.1,9.1,0,0,0-3.6-7.3c-2.3-2-6.2-3.9-11.6-5.9s-9.9-3.9-12.2-5.4a17.3,17.3,0,0,1-5.3-5.1,12.7,12.7,0,0,1-1.8-6.9,11.7,11.7,0,0,1,5.5-10.3c3.6-2.5,8.7-3.8,15.2-3.8a46.3,46.3,0,0,1,17.8,3.5l-1.9,4.8a42.8,42.8,0,0,0-15.9-3.5c-4.7,0-8.4.8-11.2,2.3s-4.2,3.8-4.2,6.5a8.9,8.9,0,0,0,3.3,7.3c2.1,1.8,6.3,3.8,12.6,6.1a59.4,59.4,0,0,1,11.4,5,18.8,18.8,0,0,1,5.3,5.2A12.4,12.4,0,0,1,2286.7,1132.5Z" fill="#5b89b4"/></svg>