<?xml version="1.0" encoding="utf-8"?>
<!-- Generator: Adobe Illustrator 22.1.0, SVG Export Plug-In . SVG Version: 6.00 Build 0)  -->
<svg version="1.1" id="Layer_1" xmlns="http://www.w3.org/2000/svg" xmlns:xlink="http://www.w3.org/1999/xlink" x="0px" y="0px"
	 viewBox="0 0 2500 1114.4" style="enable-background:new 0 0 2500 1114.4;" xml:space="preserve">
<style type="text/css">
	.st0{fill:#FFFFFF;}
	.st1{fill:#231F20;}
	.st2{fill:#00538B;}
	.st3{fill:#76777A;}
</style>
<title>amces-finals</title>
<rect class="st0" width="2500" height="1114.4"/>
<rect x="107.8" y="582.1" class="st1" width="1189.3" height="424.5"/>
<path class="st2" d="M1475.2,732.8h62.2c16.8,0,30.5,13.7,30.5,30.5v62.2c0,16.8-13.7,30.5-30.5,30.5h-62.2
	c-16.8,0-30.5-13.7-30.5-30.5v-62.2C1444.7,746.5,1458.4,732.8,1475.2,732.8z"/>
<path class="st3" d="M1969.3,732.8h62.2c16.8,0,30.5,13.7,30.5,30.5v62.2c0,16.8-13.7,30.5-30.5,30.5h-62.2
	c-16.8,0-30.5-13.7-30.5-30.5v-62.2C1938.8,746.5,1952.5,732.8,1969.3,732.8z"/>
<path class="st3" d="M1637.2,787.8c0.1,2-0.8,3.9-2.3,5.2c-1.9,1.2-4.2,1.8-6.5,1.7h-2.6v8.7h-2.6v-22h5.7
	C1634.4,781.4,1637.2,783.5,1637.2,787.8z M1625.8,792.6h2.3c1.7,0.1,3.4-0.3,4.9-1.1c1-0.9,1.6-2.2,1.5-3.6
	c0.1-1.2-0.4-2.4-1.4-3.2c-1.3-0.8-2.9-1.2-4.4-1.1h-2.9V792.6z"/>
<path class="st3" d="M1651.5,803.4l-7.4-19.5h-0.2c0.2,1.8,0.2,3.7,0.2,5.5v14h-2.3v-22h3.8l7,18.1h0.1l7-18.1h3.9v22h-2.6v-14.2
	c0-1.6,0.1-3.4,0.2-5.3h-0.1l-7.5,19.5H1651.5z"/>
<path class="st3" d="M1682,797.5c0.1,1.8-0.7,3.5-2.1,4.6c-1.7,1.2-3.7,1.7-5.7,1.6c-2,0.1-4.1-0.2-6-1v-2.5
	c0.9,0.4,1.9,0.7,2.9,0.9c1.1,0.2,2.1,0.4,3.2,0.4c1.3,0.1,2.7-0.3,3.8-1c0.9-0.6,1.3-1.6,1.3-2.7c0-0.7-0.1-1.3-0.4-1.9
	c-0.4-0.6-1-1-1.6-1.3c-1-0.6-2.1-1-3.2-1.4c-1.7-0.5-3.2-1.4-4.4-2.6c-0.9-1.1-1.4-2.5-1.3-4c-0.1-1.6,0.6-3.1,1.9-4
	c1.4-1.1,3.2-1.6,5-1.5c2.1,0,4.1,0.4,6,1.2l-0.8,2.2c-1.6-0.7-3.4-1.1-5.2-1.1c-1.1-0.1-2.3,0.2-3.2,0.9c-0.8,0.5-1.3,1.4-1.2,2.4
	c0,0.6,0.2,1.3,0.5,1.8c0.3,0.6,0.8,1.1,1.4,1.4c1,0.5,2,1,3,1.3c2.3,0.9,3.9,1.7,4.8,2.7C1681.6,794.9,1682.1,796.2,1682,797.5z"/>
<path class="st3" d="M1695.8,803.4l9.1-19.7h-12v-2.3h14.6v2l-9,20H1695.8z"/>
<path class="st3" d="M1726.1,798.3h-3.3v5.1h-2.4v-5.1h-10.7v-2.1l10.5-14.9h2.6v14.8h3.3V798.3z M1720.4,796.1v-7.3
	c0-1.5,0.1-3.1,0.2-4.9h-0.1c-0.4,0.8-0.9,1.6-1.4,2.4l-6.9,9.8H1720.4z"/>
<path class="st3" d="M1728.5,794c0-4.3,0.8-7.6,2.5-9.7c1.8-2.2,4.6-3.4,7.4-3.2c0.9,0,1.8,0.1,2.7,0.3v2.1
	c-0.9-0.2-1.7-0.3-2.6-0.3c-2-0.2-4,0.7-5.4,2.2c-1.3,1.4-2,3.7-2.1,6.9h0.2c1.1-1.8,3.1-2.7,5.2-2.6c1.8-0.1,3.5,0.6,4.7,1.8
	c1.2,1.3,1.8,3,1.7,4.8c0.1,2-0.6,3.9-1.9,5.4c-1.3,1.4-3.1,2.1-5,2c-2.1,0.1-4.1-0.9-5.4-2.6C1729.1,799.4,1728.5,797,1728.5,794z
	 M1735.8,801.6c1.3,0.1,2.5-0.4,3.4-1.4c0.8-1.1,1.2-2.5,1.1-3.9c0.1-1.2-0.3-2.5-1.1-3.4c-0.8-0.8-2-1.3-3.2-1.2
	c-0.9,0-1.7,0.2-2.5,0.5c-0.8,0.3-1.4,0.9-1.8,1.6c-0.5,0.6-0.7,1.3-0.7,2c0,1,0.2,2,0.6,2.9c0.4,0.8,1,1.6,1.7,2.1
	C1734,801.3,1734.9,801.6,1735.8,801.6z"/>
<path class="st3" d="M1760.3,803.4h-14.5v-2.2l5.8-5.8c1.2-1.2,2.4-2.5,3.5-3.8c0.5-0.7,1-1.4,1.3-2.2c0.2-0.8,0.4-1.6,0.4-2.4
	c0-1-0.4-2-1.1-2.7c-0.8-0.8-1.9-1.2-3-1.1c-0.9,0-1.7,0.2-2.5,0.5c-1,0.4-2,0.9-2.8,1.6l-1.3-1.7c1.8-1.6,4.2-2.5,6.6-2.5
	c1.8-0.1,3.5,0.5,4.9,1.6c1.2,1.1,1.8,2.6,1.7,4.2c0,1.5-0.4,2.9-1.1,4.2c-1.3,1.9-2.8,3.6-4.4,5.2l-4.8,4.7h11.3V803.4z"/>
<path class="st3" d="M1782.4,783.4c-2.2-0.1-4.3,0.8-5.8,2.4c-1.5,1.9-2.2,4.2-2.1,6.6c-0.2,2.4,0.6,4.8,2.1,6.7
	c1.5,1.6,3.6,2.4,5.7,2.3c1.8,0,3.6-0.3,5.3-0.8v2.2c-1.8,0.7-3.8,1-5.7,0.9c-2.8,0.2-5.6-0.9-7.5-3c-1.7-1.9-2.6-4.7-2.6-8.3
	c-0.1-2.1,0.4-4.1,1.3-6c0.8-1.7,2-3,3.6-3.9c1.7-1,3.7-1.4,5.7-1.4c2.1-0.1,4.1,0.4,6,1.3l-1,2.2
	C1785.8,783.8,1784.1,783.4,1782.4,783.4z"/>
<path class="st3" d="M2131.3,787.8c0.1,2-0.8,3.9-2.3,5.2c-1.9,1.2-4.2,1.8-6.5,1.7h-2.6v8.7h-2.6v-22h5.7
	C2128.5,781.4,2131.3,783.5,2131.3,787.8z M2119.9,792.6h2.3c1.7,0.1,3.4-0.3,4.9-1.1c1-0.9,1.6-2.2,1.5-3.6
	c0.1-1.2-0.4-2.4-1.4-3.2c-1.3-0.8-2.9-1.2-4.4-1.1h-2.9L2119.9,792.6z"/>
<path class="st3" d="M2145.6,803.4l-7.4-19.5h-0.2c0.2,1.8,0.2,3.7,0.2,5.5v14h-2.3v-22h3.8l7,18.1h0.1l7-18.1h3.9v22h-2.6v-14.2
	c0-1.6,0.1-3.4,0.2-5.3h-0.1l-7.5,19.5H2145.6z"/>
<path class="st3" d="M2176.1,797.5c0.1,1.8-0.7,3.5-2.1,4.6c-1.7,1.2-3.7,1.7-5.7,1.6c-2,0.1-4.1-0.2-6-1v-2.5
	c0.9,0.4,1.9,0.7,2.9,0.9c1.1,0.2,2.1,0.4,3.2,0.4c1.3,0.1,2.7-0.3,3.8-1c0.9-0.6,1.3-1.6,1.3-2.7c0-0.7-0.1-1.3-0.4-1.9
	c-0.4-0.6-1-1-1.6-1.3c-1-0.6-2.1-1-3.2-1.4c-1.7-0.5-3.2-1.4-4.4-2.6c-0.9-1.1-1.4-2.5-1.3-4c-0.1-1.6,0.6-3.1,1.9-4
	c1.4-1.1,3.2-1.6,5-1.5c2.1,0,4.1,0.4,6,1.2l-0.7,2.2c-1.7-0.7-3.5-1.1-5.3-1.1c-1.1-0.1-2.3,0.2-3.2,0.9c-0.8,0.5-1.3,1.4-1.2,2.4
	c0,0.6,0.2,1.3,0.5,1.8c0.3,0.6,0.8,1.1,1.4,1.4c1,0.5,2,1,3,1.3c2.3,0.9,3.9,1.7,4.8,2.7C2175.7,794.9,2176.2,796.2,2176.1,797.5z"
	/>
<path class="st3" d="M2198,783.4c-2.2-0.1-4.3,0.8-5.7,2.4c-1.5,1.9-2.2,4.2-2.1,6.6c-0.1,2.4,0.6,4.8,2,6.7
	c1.5,1.6,3.6,2.4,5.8,2.3c1.8,0,3.5-0.3,5.2-0.8v2.2c-1.8,0.6-3.7,1-5.6,0.9c-2.8,0.2-5.6-0.9-7.5-3c-1.8-1.9-2.6-4.7-2.6-8.3
	c0-2.1,0.4-4.1,1.2-6c0.8-1.6,2.1-3,3.7-3.9c1.7-0.9,3.6-1.4,5.6-1.4c2.1-0.1,4.2,0.4,6.1,1.3l-1.1,2.2
	C2201.4,783.8,2199.7,783.4,2198,783.4z"/>
<path class="st3" d="M2221.9,795.1c0.1,2.3-0.6,4.5-2,6.3c-1.5,1.5-3.6,2.4-5.7,2.3c-1.4,0-2.7-0.3-3.9-1c-1.1-0.7-2-1.8-2.6-3
	c-0.7-1.4-1-3-1-4.6c-0.1-2.3,0.6-4.5,2.1-6.2c1.4-1.6,3.5-2.4,5.6-2.3c2.1-0.1,4,0.8,5.4,2.3C2221.3,790.6,2222,792.8,2221.9,795.1
	z M2209.3,795.1c-0.1,1.7,0.3,3.5,1.3,4.9c1.9,2,5.2,2.1,7.2,0.2c0.1-0.1,0.1-0.1,0.2-0.2c1-1.4,1.4-3.2,1.3-4.9
	c0.1-1.7-0.3-3.3-1.3-4.7c-0.9-1.1-2.3-1.8-3.7-1.7c-1.4-0.1-2.8,0.5-3.7,1.6C2209.6,791.7,2209.2,793.4,2209.3,795.1L2209.3,795.1z
	"/>
<path class="st3" d="M2240.5,795.1c0.1,2.3-0.6,4.5-2,6.3c-1.5,1.5-3.6,2.4-5.7,2.3c-1.4,0-2.7-0.3-3.9-1c-1.1-0.7-2-1.8-2.6-3
	c-0.7-1.4-1-3-1-4.6c-0.1-2.3,0.6-4.5,2.1-6.2c1.4-1.6,3.5-2.4,5.6-2.3c2.1-0.1,4.1,0.8,5.5,2.3
	C2239.9,790.7,2240.6,792.9,2240.5,795.1z M2227.9,795.1c-0.1,1.7,0.4,3.4,1.3,4.9c1.9,2,5.2,2.1,7.2,0.2c0.1-0.1,0.1-0.1,0.2-0.2
	c1-1.4,1.4-3.2,1.3-4.9c0.1-1.7-0.3-3.3-1.3-4.7c-0.9-1.1-2.3-1.8-3.7-1.7c-1.4-0.1-2.8,0.5-3.7,1.6
	C2228.2,791.7,2227.8,793.4,2227.9,795.1z"/>
<path class="st3" d="M2247.4,803.4h-2.5V780h2.5V803.4z"/>
<path class="st3" d="M2270.7,791.9h7.5v10.7l-3.6,0.8c-1.4,0.2-2.8,0.3-4.2,0.3c-3.3,0-5.9-1-7.7-3s-2.8-4.7-2.8-8.3
	c-0.1-2.1,0.4-4.2,1.4-6c0.9-1.7,2.2-3,3.9-3.9c1.9-1,4-1.5,6.1-1.4c2.2,0,4.5,0.4,6.5,1.3l-0.9,2.2c-1.8-0.8-3.8-1.2-5.8-1.2
	c-2.3-0.1-4.6,0.7-6.2,2.4c-1.6,1.6-2.3,3.8-2.3,6.6s0.7,5.2,2.2,6.8s3.5,2.3,6.4,2.3c1.5,0,3-0.2,4.4-0.6v-6.7h-4.9L2270.7,791.9z"
	/>
<path class="st3" d="M2290.6,786.6l2,0.2l-0.4,2.3l-1.8-0.2c-1.3,0-2.6,0.6-3.4,1.6c-0.9,1.2-1.4,2.6-1.4,4.1v8.8h-2.5v-16.5h2
	l0.3,3.1h0.1c0.6-1,1.4-1.8,2.3-2.5C2288.6,786.9,2289.6,786.6,2290.6,786.6z"/>
<path class="st3" d="M2305.8,803.4l-0.5-2.3h-0.1c-0.6,0.9-1.5,1.6-2.5,2c-0.9,0.4-2,0.6-3,0.6c-1.4,0.1-2.8-0.4-3.9-1.3
	c-1-0.9-1.5-2.3-1.4-3.6c0-3.3,2.7-5,8-5.2h2.8v-1c0.1-1-0.2-2.1-0.8-2.9c-0.7-0.6-1.7-1-2.7-0.9c-1.6,0.1-3.3,0.5-4.7,1.3l-0.7-1.9
	c0.8-0.5,1.7-0.8,2.6-1.1c1-0.2,2-0.4,3-0.4c1.6-0.1,3.1,0.4,4.3,1.4c1,0.8,1.4,2.2,1.4,4.1v11.3L2305.8,803.4z M2300.2,801.6
	c1.3,0.1,2.6-0.4,3.6-1.2c0.9-1,1.4-2.3,1.3-3.6v-1.5h-2.5c-1.4,0-2.9,0.3-4.2,0.9c-0.9,0.5-1.4,1.5-1.4,2.6c-0.1,0.8,0.3,1.5,0.9,2
	C2298.5,801.4,2299.4,801.6,2300.2,801.6L2300.2,801.6z"/>
<path class="st3" d="M2310.2,786.9h2.6l3.7,9.4c0.7,2.2,1.2,3.7,1.4,4.7h0.1l0.9-2.7c0.4-1.2,1.7-5,4.1-11.4h2.6l-7.1,18.8
	c-0.5,1.5-1.3,2.8-2.4,3.9c-1,0.8-2.2,1.2-3.5,1.2c-0.7,0-1.5-0.1-2.2-0.3v-2c0.6,0.2,1.2,0.2,1.8,0.2c1.8,0,3.3-1.2,3.7-2.9
	l0.9-2.3L2310.2,786.9z"/>
<path class="st3" d="M2346.1,783.4c-2.2-0.1-4.3,0.8-5.7,2.4c-1.5,1.9-2.2,4.2-2.1,6.6c-0.1,2.4,0.6,4.8,2,6.7
	c1.5,1.6,3.6,2.4,5.8,2.3c1.8,0,3.5-0.3,5.2-0.8v2.2c-1.8,0.6-3.7,1-5.6,0.9c-3.3,0-5.8-1-7.5-3c-1.8-1.9-2.7-4.7-2.7-8.3
	c0-2.1,0.4-4.1,1.3-6c0.8-1.6,2.1-3,3.7-3.9c1.7-0.9,3.6-1.4,5.6-1.4c2.1-0.1,4.2,0.4,6.1,1.3l-1.1,2.2
	C2349.5,783.8,2347.8,783.4,2346.1,783.4z"/>
<g>
	<g>
		<path class="st1" d="M211.6,275.6c8.9,9.8,19,20.9,25.2,27.7c3,3.3,7.5,4.7,11.9,3.8c75.3-15.9,365.2-95.7,445.1-213.3
			c2.4-3.5-2-7.6-5.3-5.1c-172.6,129.1-393.8,159-468.5,165.6C209.4,255.2,204.5,267.8,211.6,275.6z"/>
		<path class="st1" d="M269.8,339.2l19.2,21.1c3.4,3.7,8.6,5.1,13.4,3.5c43.7-14.4,257.5-88.8,340.2-188c2.8-3.3-1.3-7.9-4.9-5.5
			C537.1,236,372.3,296.7,276.4,318.2C266.8,320.4,263.2,332,269.8,339.2z"/>
		<path class="st1" d="M319.6,394L347,424c4,4.4,10.7,5.5,15.8,2.4c26.9-15.7,109.5-66.9,185.8-143c3-3-0.6-7.9-4.4-5.9
			c-92.9,49.3-182.1,82.6-219.4,95.7C316.2,376.4,313.4,387.2,319.6,394z"/>
	</g>
	<g>
		<g>
			<path class="st1" d="M757.9,327.5L742,287h-51l-15.7,40.5h-15l50.3-127.9h12.5l50.1,127.9H757.9z M737.4,273.7l-14.8-39.5
				c-1.9-5-3.9-11.1-5.9-18.4c-1.3,5.6-3.1,11.7-5.5,18.4l-15,39.5H737.4z"/>
			<path class="st1" d="M832.8,327.5l-43.2-112.9h-0.7c0.8,8.9,1.2,19.6,1.2,31.9v81h-13.7V200.2h22.3l40.3,105.1h0.7l40.7-105.1
				h22.1v127.4h-14.8v-82.1c0-9.4,0.4-19.6,1.2-30.7h-0.7l-43.6,112.7H832.8z"/>
			<path class="st1" d="M981.3,211.6c-14,0-25,4.7-33.1,14c-8.1,9.3-12.2,22.1-12.2,38.3c0,16.7,3.9,29.5,11.7,38.6
				c7.8,9.1,18.9,13.6,33.4,13.6c8.9,0,19-1.6,30.4-4.8v13c-8.8,3.3-19.7,5-32.7,5c-18.8,0-33.2-5.7-43.4-17.1
				c-10.2-11.4-15.3-27.6-15.3-48.5c0-13.1,2.5-24.6,7.4-34.5c4.9-9.9,12-17.5,21.3-22.8c9.3-5.3,20.2-8,32.7-8
				c13.4,0,25,2.4,35,7.3l-6.3,12.7C1000.6,213.9,991,211.6,981.3,211.6z"/>
			<path class="st1" d="M1099.6,327.5h-71V200.2h71v13.2h-56.2v41h52.8v13.1h-52.8v46.9h56.2V327.5z"/>
			<path class="st1" d="M1192.6,293.7c0,11.2-4.1,19.9-12.2,26.2c-8.1,6.3-19.2,9.4-33.1,9.4c-15.1,0-26.7-1.9-34.8-5.8v-14.3
				c5.2,2.2,10.9,3.9,17.1,5.2c6.2,1.3,12.3,1.9,18.3,1.9c9.9,0,17.3-1.9,22.3-5.6c5-3.7,7.5-9,7.5-15.6c0-4.4-0.9-8-2.7-10.8
				c-1.8-2.8-4.7-5.4-8.9-7.8c-4.2-2.4-10.5-5.1-18.9-8.1c-11.8-4.2-20.3-9.3-25.4-15.1c-5.1-5.8-7.6-13.4-7.6-22.7
				c0-9.8,3.7-17.6,11.1-23.4c7.4-5.8,17.1-8.7,29.3-8.7c12.7,0,24.3,2.3,34.9,7l-4.6,12.9c-10.5-4.4-20.7-6.6-30.7-6.6
				c-7.8,0-14,1.7-18.4,5.1c-4.4,3.4-6.6,8-6.6,14c0,4.4,0.8,8,2.4,10.8c1.6,2.8,4.4,5.4,8.2,7.8c3.9,2.4,9.8,5,17.7,7.8
				c13.4,4.8,22.5,9.9,27.6,15.3C1190.1,277.9,1192.6,284.9,1192.6,293.7z"/>
		</g>
	</g>
	<g>
		<path class="st1" d="M676,374.7l-2.7-6.9h-8.7l-2.7,6.9h-2.6l8.6-21.9h2.1l8.6,21.9H676z M672.5,365.5l-2.5-6.8
			c-0.3-0.9-0.7-1.9-1-3.1c-0.2,1-0.5,2-0.9,3.1l-2.6,6.8H672.5z"/>
		<path class="st1" d="M691.8,370.3c0,1.5-0.6,2.7-1.7,3.5c-1.1,0.8-2.7,1.2-4.8,1.2c-2.2,0-3.9-0.3-5.1-1v-2.3
			c0.8,0.4,1.6,0.7,2.5,0.9c0.9,0.2,1.8,0.3,2.6,0.3c1.3,0,2.3-0.2,3-0.6c0.7-0.4,1-1,1-1.9c0-0.6-0.3-1.2-0.8-1.6
			c-0.6-0.5-1.6-1-3.2-1.6c-1.5-0.6-2.6-1.1-3.2-1.5c-0.6-0.4-1.1-0.9-1.4-1.4c-0.3-0.5-0.5-1.2-0.5-1.9c0-1.3,0.5-2.4,1.6-3.2
			c1.1-0.8,2.6-1.2,4.5-1.2c1.8,0,3.5,0.4,5.2,1.1l-0.9,2c-1.6-0.7-3.1-1-4.5-1c-1.2,0-2.1,0.2-2.7,0.6c-0.6,0.4-0.9,0.9-0.9,1.5
			c0,0.4,0.1,0.8,0.3,1.1c0.2,0.3,0.6,0.6,1.1,0.9c0.5,0.3,1.5,0.7,2.9,1.2c1.9,0.7,3.2,1.4,3.9,2.1
			C691.5,368.3,691.8,369.2,691.8,370.3z"/>
		<path class="st1" d="M706.4,370.3c0,1.5-0.6,2.7-1.7,3.5c-1.1,0.8-2.7,1.2-4.8,1.2c-2.2,0-3.9-0.3-5.1-1v-2.3
			c0.8,0.4,1.6,0.7,2.5,0.9c0.9,0.2,1.8,0.3,2.6,0.3c1.3,0,2.3-0.2,3-0.6c0.7-0.4,1-1,1-1.9c0-0.6-0.3-1.2-0.8-1.6
			c-0.6-0.5-1.6-1-3.2-1.6c-1.5-0.6-2.6-1.1-3.2-1.5c-0.6-0.4-1.1-0.9-1.4-1.4c-0.3-0.5-0.5-1.2-0.5-1.9c0-1.3,0.5-2.4,1.6-3.2
			c1.1-0.8,2.6-1.2,4.5-1.2c1.8,0,3.5,0.4,5.2,1.1l-0.9,2c-1.6-0.7-3.1-1-4.5-1c-1.2,0-2.1,0.2-2.7,0.6c-0.6,0.4-0.9,0.9-0.9,1.5
			c0,0.4,0.1,0.8,0.3,1.1c0.2,0.3,0.6,0.6,1.1,0.9c0.5,0.3,1.5,0.7,2.9,1.2c1.9,0.7,3.2,1.4,3.9,2.1
			C706.1,368.3,706.4,369.2,706.4,370.3z"/>
		<path class="st1" d="M723.9,366.6c0,2.7-0.7,4.7-2,6.2s-3.2,2.2-5.6,2.2c-1.5,0-2.8-0.3-3.9-1c-1.1-0.7-2-1.7-2.6-3
			c-0.6-1.3-0.9-2.8-0.9-4.5c0-2.7,0.7-4.7,2-6.2c1.3-1.5,3.2-2.2,5.5-2.2c2.3,0,4.1,0.8,5.4,2.3C723.3,361.9,723.9,364,723.9,366.6
			z M711.5,366.6c0,2.1,0.4,3.7,1.3,4.8c0.8,1.1,2.1,1.6,3.7,1.6c1.6,0,2.9-0.5,3.7-1.6c0.8-1.1,1.3-2.7,1.3-4.8
			c0-2.1-0.4-3.7-1.3-4.7s-2.1-1.6-3.7-1.6c-1.6,0-2.8,0.5-3.7,1.6C711.9,362.9,711.5,364.4,711.5,366.6z"/>
		<path class="st1" d="M733.6,375c-2.4,0-4.2-0.7-5.5-2.2c-1.3-1.5-1.9-3.5-1.9-6.2c0-2.7,0.7-4.8,2-6.3c1.3-1.5,3.2-2.2,5.6-2.2
			c0.8,0,1.6,0.1,2.4,0.3c0.8,0.2,1.4,0.4,1.8,0.6l-0.8,2.1c-0.5-0.2-1.1-0.4-1.8-0.5c-0.6-0.1-1.2-0.2-1.7-0.2c-3.3,0-5,2.1-5,6.4
			c0,2,0.4,3.5,1.2,4.6c0.8,1.1,2,1.6,3.6,1.6c1.4,0,2.8-0.3,4.2-0.9v2.2C736.6,374.8,735.2,375,733.6,375z"/>
		<path class="st1" d="M741.4,354c0-0.6,0.1-1,0.4-1.2c0.3-0.3,0.6-0.4,1-0.4c0.4,0,0.7,0.1,1,0.4c0.3,0.3,0.4,0.7,0.4,1.2
			c0,0.6-0.1,1-0.4,1.2c-0.3,0.3-0.6,0.4-1,0.4c-0.4,0-0.8-0.1-1-0.4C741.5,354.9,741.4,354.5,741.4,354z M744.1,374.7h-2.5v-16.3
			h2.5V374.7z"/>
		<path class="st1" d="M759.4,374.7l-0.5-2.3h-0.1c-0.8,1-1.6,1.7-2.4,2.1c-0.8,0.4-1.8,0.5-3,0.5c-1.6,0-2.9-0.4-3.8-1.3
			c-0.9-0.8-1.4-2-1.4-3.6c0-3.3,2.6-5,7.9-5.2l2.8-0.1v-1c0-1.3-0.3-2.2-0.8-2.8c-0.6-0.6-1.4-0.9-2.6-0.9c-1.4,0-2.9,0.4-4.6,1.3
			l-0.8-1.9c0.8-0.4,1.7-0.8,2.6-1c1-0.2,1.9-0.4,2.9-0.4c1.9,0,3.4,0.4,4.3,1.3c0.9,0.9,1.4,2.3,1.4,4.2v11.2H759.4z M753.8,373
			c1.5,0,2.8-0.4,3.6-1.3s1.3-2,1.3-3.5v-1.5l-2.5,0.1c-2,0.1-3.4,0.4-4.3,0.9c-0.9,0.5-1.3,1.4-1.3,2.5c0,0.9,0.3,1.6,0.8,2
			C752,372.8,752.8,373,753.8,373z"/>
		<path class="st1" d="M771.6,373c0.4,0,0.9,0,1.3-0.1c0.4-0.1,0.7-0.1,1-0.2v1.9c-0.3,0.1-0.7,0.2-1.2,0.3c-0.5,0.1-1,0.1-1.4,0.1
			c-3.2,0-4.7-1.7-4.7-5v-9.7h-2.3v-1.2l2.3-1l1-3.5h1.4v3.8h4.7v1.9H769v9.6c0,1,0.2,1.7,0.7,2.3C770.1,372.7,770.8,373,771.6,373z
			"/>
		<path class="st1" d="M776.9,354c0-0.6,0.1-1,0.4-1.2c0.3-0.3,0.6-0.4,1-0.4c0.4,0,0.7,0.1,1,0.4s0.4,0.7,0.4,1.2
			c0,0.6-0.1,1-0.4,1.2s-0.6,0.4-1,0.4c-0.4,0-0.8-0.1-1-0.4C777,354.9,776.9,354.5,776.9,354z M779.6,374.7h-2.5v-16.3h2.5V374.7z"
			/>
		<path class="st1" d="M797.7,366.6c0,2.7-0.7,4.7-2,6.2s-3.2,2.2-5.6,2.2c-1.5,0-2.8-0.3-3.9-1c-1.1-0.7-2-1.7-2.6-3
			c-0.6-1.3-0.9-2.8-0.9-4.5c0-2.7,0.7-4.7,2-6.2c1.3-1.5,3.2-2.2,5.5-2.2c2.3,0,4.1,0.8,5.4,2.3C797,361.9,797.7,364,797.7,366.6z
			 M785.2,366.6c0,2.1,0.4,3.7,1.3,4.8c0.8,1.1,2.1,1.6,3.7,1.6c1.6,0,2.9-0.5,3.7-1.6c0.8-1.1,1.3-2.7,1.3-4.8
			c0-2.1-0.4-3.7-1.3-4.7s-2.1-1.6-3.7-1.6c-1.6,0-2.8,0.5-3.7,1.6C785.6,362.9,785.2,364.4,785.2,366.6z"/>
		<path class="st1" d="M812,374.7v-10.6c0-1.3-0.3-2.3-0.9-3c-0.6-0.7-1.6-1-2.8-1c-1.7,0-3,0.5-3.8,1.4c-0.8,0.9-1.2,2.5-1.2,4.6
			v8.6h-2.5v-16.3h2l0.4,2.2h0.1c0.5-0.8,1.2-1.4,2.1-1.9c0.9-0.4,1.9-0.7,3.1-0.7c2,0,3.4,0.5,4.4,1.4s1.5,2.5,1.5,4.6v10.7H812z"
			/>
		<path class="st1" d="M837.5,374.7l-7.4-19.3H830c0.1,1.5,0.2,3.3,0.2,5.5v13.9h-2.3v-21.8h3.8l6.9,18h0.1l7-18h3.8v21.8h-2.5v-14
			c0-1.6,0.1-3.4,0.2-5.2H847l-7.5,19.3H837.5z"/>
		<path class="st1" d="M864.5,374.7l-0.5-2.3h-0.1c-0.8,1-1.6,1.7-2.4,2.1c-0.8,0.4-1.8,0.5-3,0.5c-1.6,0-2.9-0.4-3.8-1.3
			c-0.9-0.8-1.4-2-1.4-3.6c0-3.3,2.6-5,7.9-5.2l2.8-0.1v-1c0-1.3-0.3-2.2-0.8-2.8c-0.6-0.6-1.4-0.9-2.6-0.9c-1.4,0-2.9,0.4-4.6,1.3
			l-0.8-1.9c0.8-0.4,1.7-0.8,2.6-1c1-0.2,1.9-0.4,2.9-0.4c1.9,0,3.4,0.4,4.3,1.3c0.9,0.9,1.4,2.3,1.4,4.2v11.2H864.5z M858.9,373
			c1.5,0,2.8-0.4,3.6-1.3s1.3-2,1.3-3.5v-1.5l-2.5,0.1c-2,0.1-3.4,0.4-4.3,0.9c-0.9,0.5-1.3,1.4-1.3,2.5c0,0.9,0.3,1.6,0.8,2
			S857.9,373,858.9,373z"/>
		<path class="st1" d="M881.4,374.7v-10.6c0-1.3-0.3-2.3-0.9-3s-1.6-1-2.8-1c-1.7,0-3,0.5-3.8,1.4c-0.8,0.9-1.2,2.5-1.2,4.6v8.6
			h-2.5v-16.3h2l0.4,2.2h0.1c0.5-0.8,1.2-1.4,2.1-1.9c0.9-0.4,1.9-0.7,3.1-0.7c2,0,3.4,0.5,4.4,1.4c1,0.9,1.5,2.5,1.5,4.6v10.7
			H881.4z"/>
		<path class="st1" d="M898.4,374.7l-0.5-2.3h-0.1c-0.8,1-1.6,1.7-2.4,2.1c-0.8,0.4-1.8,0.5-3,0.5c-1.6,0-2.9-0.4-3.8-1.3
			c-0.9-0.8-1.4-2-1.4-3.6c0-3.3,2.6-5,7.9-5.2l2.8-0.1v-1c0-1.3-0.3-2.2-0.8-2.8c-0.6-0.6-1.4-0.9-2.6-0.9c-1.4,0-2.9,0.4-4.6,1.3
			l-0.8-1.9c0.8-0.4,1.7-0.8,2.6-1c1-0.2,1.9-0.4,2.9-0.4c1.9,0,3.4,0.4,4.3,1.3c0.9,0.9,1.4,2.3,1.4,4.2v11.2H898.4z M892.8,373
			c1.5,0,2.8-0.4,3.6-1.3c0.9-0.8,1.3-2,1.3-3.5v-1.5l-2.5,0.1c-2,0.1-3.4,0.4-4.3,0.9c-0.9,0.5-1.3,1.4-1.3,2.5
			c0,0.9,0.3,1.6,0.8,2S891.8,373,892.8,373z"/>
		<path class="st1" d="M918.7,358.4v1.6l-3,0.4c0.3,0.3,0.5,0.8,0.7,1.4c0.2,0.6,0.3,1.2,0.3,1.9c0,1.6-0.5,2.9-1.6,3.8
			c-1.1,1-2.6,1.4-4.5,1.4c-0.5,0-0.9,0-1.4-0.1c-1.1,0.6-1.6,1.3-1.6,2.1c0,0.4,0.2,0.8,0.6,1c0.4,0.2,1,0.3,1.9,0.3h2.9
			c1.8,0,3.1,0.4,4.1,1.1c0.9,0.7,1.4,1.8,1.4,3.3c0,1.8-0.7,3.2-2.2,4.1s-3.6,1.4-6.4,1.4c-2.1,0-3.8-0.4-4.9-1.2
			c-1.2-0.8-1.7-1.9-1.7-3.4c0-1,0.3-1.9,1-2.6c0.6-0.7,1.5-1.2,2.7-1.5c-0.4-0.2-0.8-0.5-1.1-0.9c-0.3-0.4-0.4-0.9-0.4-1.4
			c0-0.6,0.2-1.1,0.5-1.6c0.3-0.4,0.8-0.9,1.5-1.3c-0.8-0.3-1.5-0.9-2.1-1.8s-0.8-1.8-0.8-2.9c0-1.8,0.5-3.2,1.6-4.1
			c1.1-1,2.6-1.5,4.6-1.5c0.9,0,1.6,0.1,2.3,0.3H918.7z M905.7,377.5c0,0.9,0.4,1.6,1.1,2c0.7,0.5,1.8,0.7,3.2,0.7
			c2.1,0,3.6-0.3,4.6-0.9c1-0.6,1.5-1.5,1.5-2.5c0-0.9-0.3-1.5-0.8-1.8c-0.5-0.3-1.6-0.5-3.1-0.5h-3c-1.1,0-2,0.3-2.6,0.8
			C906,375.7,905.7,376.5,905.7,377.5z M907,363.6c0,1.1,0.3,2,1,2.6c0.6,0.6,1.5,0.9,2.7,0.9c2.4,0,3.6-1.2,3.6-3.5
			c0-2.5-1.2-3.7-3.7-3.7c-1.2,0-2.1,0.3-2.7,0.9C907.3,361.5,907,362.4,907,363.6z"/>
		<path class="st1" d="M929,375c-2.4,0-4.3-0.7-5.7-2.2c-1.4-1.5-2.1-3.5-2.1-6.1c0-2.6,0.6-4.7,1.9-6.3c1.3-1.6,3-2.3,5.2-2.3
			c2,0,3.7,0.7,4.9,2c1.2,1.3,1.8,3.1,1.8,5.3v1.6h-11.3c0,1.9,0.5,3.4,1.5,4.4s2.2,1.5,3.9,1.5c1.8,0,3.5-0.4,5.2-1.1v2.2
			c-0.9,0.4-1.7,0.6-2.5,0.8C931,375,930.1,375,929,375z M928.3,360.2c-1.3,0-2.4,0.4-3.1,1.3c-0.8,0.9-1.2,2-1.4,3.5h8.5
			c0-1.6-0.3-2.8-1-3.6C930.6,360.6,929.6,360.2,928.3,360.2z"/>
		<path class="st1" d="M958.8,374.7v-10.6c0-1.3-0.3-2.3-0.8-2.9c-0.6-0.7-1.4-1-2.6-1c-1.5,0-2.7,0.4-3.4,1.3
			c-0.7,0.9-1.1,2.2-1.1,4.1v9.1h-2.5v-10.6c0-1.3-0.3-2.3-0.8-2.9c-0.6-0.7-1.4-1-2.6-1c-1.6,0-2.7,0.5-3.4,1.4
			c-0.7,0.9-1.1,2.5-1.1,4.6v8.6H938v-16.3h2l0.4,2.2h0.1c0.5-0.8,1.1-1.4,2-1.9c0.9-0.4,1.8-0.7,2.9-0.7c2.6,0,4.2,0.9,5,2.8h0.1
			c0.5-0.9,1.2-1.5,2.1-2c0.9-0.5,2-0.7,3.2-0.7c1.8,0,3.2,0.5,4.2,1.4c0.9,0.9,1.4,2.5,1.4,4.6v10.7H958.8z"/>
		<path class="st1" d="M972.1,375c-2.4,0-4.3-0.7-5.7-2.2c-1.4-1.5-2.1-3.5-2.1-6.1c0-2.6,0.6-4.7,1.9-6.3c1.3-1.6,3-2.3,5.2-2.3
			c2,0,3.7,0.7,4.9,2c1.2,1.3,1.8,3.1,1.8,5.3v1.6h-11.3c0,1.9,0.5,3.4,1.5,4.4s2.2,1.5,3.9,1.5c1.8,0,3.5-0.4,5.2-1.1v2.2
			c-0.9,0.4-1.7,0.6-2.5,0.8C974.1,375,973.2,375,972.1,375z M971.4,360.2c-1.3,0-2.4,0.4-3.1,1.3c-0.8,0.9-1.2,2-1.4,3.5h8.5
			c0-1.6-0.3-2.8-1-3.6C973.7,360.6,972.7,360.2,971.4,360.2z"/>
		<path class="st1" d="M992.9,374.7v-10.6c0-1.3-0.3-2.3-0.9-3c-0.6-0.7-1.6-1-2.8-1c-1.7,0-3,0.5-3.8,1.4c-0.8,0.9-1.2,2.5-1.2,4.6
			v8.6h-2.5v-16.3h2l0.4,2.2h0.1c0.5-0.8,1.2-1.4,2.1-1.9c0.9-0.4,1.9-0.7,3.1-0.7c2,0,3.4,0.5,4.4,1.4s1.5,2.5,1.5,4.6v10.7H992.9z
			"/>
		<path class="st1" d="M1005.1,373c0.4,0,0.9,0,1.3-0.1c0.4-0.1,0.7-0.1,1-0.2v1.9c-0.3,0.1-0.7,0.2-1.2,0.3c-0.5,0.1-1,0.1-1.4,0.1
			c-3.2,0-4.7-1.7-4.7-5v-9.7h-2.3v-1.2l2.3-1l1-3.5h1.4v3.8h4.7v1.9h-4.7v9.6c0,1,0.2,1.7,0.7,2.3
			C1003.6,372.7,1004.3,373,1005.1,373z"/>
		<path class="st1" d="M1017.6,369.1c0-1.3,0.3-2.4,1-3.4c0.7-1,1.9-2,3.7-3c-0.8-0.9-1.4-1.7-1.7-2.1c-0.3-0.5-0.5-1-0.7-1.5
			c-0.2-0.5-0.3-1.1-0.3-1.6c0-1.5,0.5-2.7,1.5-3.5c1-0.8,2.3-1.3,4.1-1.3c1.6,0,2.9,0.4,3.8,1.2c0.9,0.8,1.4,2,1.4,3.5
			c0,1.1-0.3,2-1,2.9c-0.7,0.9-1.8,1.8-3.4,2.7l6.1,5.8c0.6-0.6,1-1.3,1.3-2.2c0.3-0.8,0.6-1.7,0.8-2.7h2.5c-0.7,2.8-1.7,5-3.1,6.5
			l4.5,4.3h-3.4l-2.8-2.7c-1.2,1.1-2.4,1.8-3.6,2.3c-1.2,0.5-2.6,0.7-4.1,0.7c-2.1,0-3.8-0.5-5-1.6
			C1018.2,372.4,1017.6,370.9,1017.6,369.1z M1024.4,372.8c2.4,0,4.4-0.8,6-2.3l-6.5-6.3c-1.1,0.7-1.9,1.2-2.3,1.7
			c-0.5,0.4-0.8,0.9-1,1.4c-0.2,0.5-0.3,1.1-0.3,1.7c0,1.2,0.4,2.1,1.2,2.8C1022.1,372.5,1023.1,372.8,1024.4,372.8z M1022.1,357.3
			c0,0.7,0.2,1.3,0.5,2s1,1.4,1.8,2.2c1.3-0.7,2.2-1.4,2.7-2.1c0.5-0.6,0.8-1.4,0.8-2.2c0-0.8-0.3-1.4-0.8-1.9s-1.2-0.7-2.1-0.7
			c-0.9,0-1.6,0.2-2.2,0.7C1022.3,355.8,1022.1,356.5,1022.1,357.3z"/>
		<path class="st1" d="M1058.5,354.9c-2.4,0-4.3,0.8-5.7,2.4s-2.1,3.8-2.1,6.6c0,2.9,0.7,5.1,2,6.6c1.3,1.6,3.2,2.3,5.7,2.3
			c1.5,0,3.3-0.3,5.2-0.8v2.2c-1.5,0.6-3.4,0.9-5.6,0.9c-3.2,0-5.7-1-7.4-2.9c-1.7-1.9-2.6-4.7-2.6-8.3c0-2.2,0.4-4.2,1.3-5.9
			c0.8-1.7,2.1-3,3.6-3.9c1.6-0.9,3.5-1.4,5.6-1.4c2.3,0,4.3,0.4,6,1.3l-1.1,2.2C1061.8,355.3,1060.1,354.9,1058.5,354.9z"/>
		<path class="st1" d="M1080.9,366.6c0,2.7-0.7,4.7-2,6.2c-1.3,1.5-3.2,2.2-5.6,2.2c-1.5,0-2.8-0.3-3.9-1c-1.1-0.7-2-1.7-2.6-3
			c-0.6-1.3-0.9-2.8-0.9-4.5c0-2.7,0.7-4.7,2-6.2c1.3-1.5,3.2-2.2,5.5-2.2c2.3,0,4.1,0.8,5.4,2.3
			C1080.2,361.9,1080.9,364,1080.9,366.6z M1068.5,366.6c0,2.1,0.4,3.7,1.3,4.8c0.8,1.1,2.1,1.6,3.7,1.6s2.9-0.5,3.7-1.6
			c0.8-1.1,1.3-2.7,1.3-4.8c0-2.1-0.4-3.7-1.3-4.7s-2.1-1.6-3.7-1.6c-1.6,0-2.8,0.5-3.7,1.6S1068.5,364.4,1068.5,366.6z"/>
		<path class="st1" d="M1095.2,374.7v-10.6c0-1.3-0.3-2.3-0.9-3c-0.6-0.7-1.6-1-2.8-1c-1.7,0-3,0.5-3.8,1.4
			c-0.8,0.9-1.2,2.5-1.2,4.6v8.6h-2.5v-16.3h2l0.4,2.2h0.1c0.5-0.8,1.2-1.4,2.1-1.9c0.9-0.4,1.9-0.7,3.1-0.7c2,0,3.4,0.5,4.4,1.4
			c1,0.9,1.5,2.5,1.5,4.6v10.7H1095.2z"/>
		<path class="st1" d="M1112.7,370.3c0,1.5-0.6,2.7-1.7,3.5c-1.1,0.8-2.7,1.2-4.8,1.2c-2.2,0-3.9-0.3-5.1-1v-2.3
			c0.8,0.4,1.6,0.7,2.5,0.9c0.9,0.2,1.8,0.3,2.6,0.3c1.3,0,2.3-0.2,3-0.6c0.7-0.4,1-1,1-1.9c0-0.6-0.3-1.2-0.8-1.6
			c-0.6-0.5-1.6-1-3.2-1.6c-1.5-0.6-2.6-1.1-3.2-1.5c-0.6-0.4-1.1-0.9-1.4-1.4c-0.3-0.5-0.5-1.2-0.5-1.9c0-1.3,0.5-2.4,1.6-3.2
			c1.1-0.8,2.6-1.2,4.5-1.2c1.8,0,3.5,0.4,5.2,1.1l-0.9,2c-1.6-0.7-3.1-1-4.5-1c-1.2,0-2.1,0.2-2.7,0.6c-0.6,0.4-0.9,0.9-0.9,1.5
			c0,0.4,0.1,0.8,0.3,1.1c0.2,0.3,0.6,0.6,1.1,0.9c0.5,0.3,1.5,0.7,2.9,1.2c1.9,0.7,3.2,1.4,3.9,2.1
			C1112.4,368.3,1112.7,369.2,1112.7,370.3z"/>
		<path class="st1" d="M1118.4,358.4V369c0,1.3,0.3,2.3,0.9,3c0.6,0.7,1.6,1,2.8,1c1.7,0,3-0.5,3.8-1.4c0.8-0.9,1.2-2.5,1.2-4.6
			v-8.6h2.5v16.3h-2l-0.4-2.2h-0.1c-0.5,0.8-1.2,1.4-2.1,1.8c-0.9,0.4-1.9,0.6-3.1,0.6c-2,0-3.5-0.5-4.5-1.4c-1-0.9-1.5-2.5-1.5-4.5
			v-10.7H1118.4z"/>
		<path class="st1" d="M1136.7,374.7h-2.5v-23.2h2.5V374.7z"/>
		<path class="st1" d="M1147.2,373c0.4,0,0.9,0,1.3-0.1s0.7-0.1,1-0.2v1.9c-0.3,0.1-0.7,0.2-1.2,0.3c-0.5,0.1-1,0.1-1.4,0.1
			c-3.2,0-4.7-1.7-4.7-5v-9.7h-2.3v-1.2l2.3-1l1-3.5h1.4v3.8h4.7v1.9h-4.7v9.6c0,1,0.2,1.7,0.7,2.3
			C1145.8,372.7,1146.4,373,1147.2,373z"/>
		<path class="st1" d="M1152.5,354c0-0.6,0.1-1,0.4-1.2c0.3-0.3,0.6-0.4,1-0.4c0.4,0,0.7,0.1,1,0.4s0.4,0.7,0.4,1.2
			c0,0.6-0.1,1-0.4,1.2s-0.6,0.4-1,0.4c-0.4,0-0.8-0.1-1-0.4C1152.7,354.9,1152.5,354.5,1152.5,354z M1155.2,374.7h-2.5v-16.3h2.5
			V374.7z"/>
		<path class="st1" d="M1171.7,374.7v-10.6c0-1.3-0.3-2.3-0.9-3c-0.6-0.7-1.6-1-2.8-1c-1.7,0-3,0.5-3.8,1.4
			c-0.8,0.9-1.2,2.5-1.2,4.6v8.6h-2.5v-16.3h2l0.4,2.2h0.1c0.5-0.8,1.2-1.4,2.1-1.9c0.9-0.4,1.9-0.7,3.1-0.7c2,0,3.4,0.5,4.4,1.4
			c1,0.9,1.5,2.5,1.5,4.6v10.7H1171.7z"/>
		<path class="st1" d="M1192.6,358.4v1.6l-3,0.4c0.3,0.3,0.5,0.8,0.7,1.4c0.2,0.6,0.3,1.2,0.3,1.9c0,1.6-0.5,2.9-1.6,3.8
			c-1.1,1-2.6,1.4-4.5,1.4c-0.5,0-0.9,0-1.4-0.1c-1.1,0.6-1.6,1.3-1.6,2.1c0,0.4,0.2,0.8,0.6,1c0.4,0.2,1,0.3,1.9,0.3h2.9
			c1.8,0,3.1,0.4,4.1,1.1c0.9,0.7,1.4,1.8,1.4,3.3c0,1.8-0.7,3.2-2.2,4.1c-1.5,0.9-3.6,1.4-6.4,1.4c-2.1,0-3.8-0.4-4.9-1.2
			c-1.2-0.8-1.7-1.9-1.7-3.4c0-1,0.3-1.9,1-2.6c0.6-0.7,1.5-1.2,2.7-1.5c-0.4-0.2-0.8-0.5-1.1-0.9c-0.3-0.4-0.4-0.9-0.4-1.4
			c0-0.6,0.2-1.1,0.5-1.6c0.3-0.4,0.8-0.9,1.5-1.3c-0.8-0.3-1.5-0.9-2.1-1.8s-0.8-1.8-0.8-2.9c0-1.8,0.5-3.2,1.6-4.1
			c1.1-1,2.6-1.5,4.6-1.5c0.9,0,1.6,0.1,2.3,0.3H1192.6z M1179.6,377.5c0,0.9,0.4,1.6,1.1,2c0.7,0.5,1.8,0.7,3.2,0.7
			c2.1,0,3.6-0.3,4.6-0.9c1-0.6,1.5-1.5,1.5-2.5c0-0.9-0.3-1.5-0.8-1.8c-0.5-0.3-1.6-0.5-3.1-0.5h-3c-1.1,0-2,0.3-2.6,0.8
			C1179.9,375.7,1179.6,376.5,1179.6,377.5z M1180.9,363.6c0,1.1,0.3,2,1,2.6c0.6,0.6,1.5,0.9,2.7,0.9c2.4,0,3.6-1.2,3.6-3.5
			c0-2.5-1.2-3.7-3.7-3.7c-1.2,0-2.1,0.3-2.7,0.9C1181.2,361.5,1180.9,362.4,1180.9,363.6z"/>
	</g>
</g>
<g>
	<g>
		<path class="st0" d="M211.6,811.8c8.9,9.8,19,20.9,25.2,27.7c3,3.3,7.5,4.7,11.9,3.8C324,827.5,613.9,747.6,693.8,630
			c2.4-3.5-2-7.6-5.3-5.1C515.9,754.1,294.6,784,219.9,790.6C209.4,791.5,204.5,804,211.6,811.8z"/>
		<path class="st0" d="M269.8,875.5l19.2,21.1c3.4,3.7,8.6,5.1,13.4,3.5c43.7-14.4,257.5-88.8,340.2-188c2.8-3.3-1.3-7.9-4.9-5.5
			C537.1,772.3,372.3,833,276.4,854.5C266.8,856.6,263.2,868.3,269.8,875.5z"/>
		<path class="st0" d="M319.6,930.2l27.4,30.1c4,4.4,10.7,5.5,15.8,2.4c26.9-15.7,109.5-66.9,185.8-143c3-3-0.6-7.9-4.4-5.9
			c-92.9,49.3-182.1,82.6-219.4,95.7C316.2,912.6,313.4,923.5,319.6,930.2z"/>
	</g>
	<g>
		<g>
			<path class="st0" d="M757.9,863.8L742,823.3h-51l-15.7,40.5h-15l50.3-127.9h12.5l50.1,127.9H757.9z M737.4,810l-14.8-39.5
				c-1.9-5-3.9-11.1-5.9-18.4c-1.3,5.6-3.1,11.7-5.5,18.4l-15,39.5H737.4z"/>
			<path class="st0" d="M832.8,863.8l-43.2-112.9h-0.7c0.8,8.9,1.2,19.6,1.2,31.9v81h-13.7V736.5h22.3l40.3,105.1h0.7l40.7-105.1
				h22.1v127.4h-14.8v-82.1c0-9.4,0.4-19.6,1.2-30.7h-0.7l-43.6,112.7H832.8z"/>
			<path class="st0" d="M981.3,747.9c-14,0-25,4.7-33.1,14c-8.1,9.3-12.2,22.1-12.2,38.3c0,16.7,3.9,29.5,11.7,38.6
				c7.8,9.1,18.9,13.6,33.4,13.6c8.9,0,19-1.6,30.4-4.8v13c-8.8,3.3-19.7,5-32.7,5c-18.8,0-33.2-5.7-43.4-17.1
				c-10.2-11.4-15.3-27.6-15.3-48.5c0-13.1,2.5-24.6,7.4-34.5c4.9-9.9,12-17.5,21.3-22.8c9.3-5.3,20.2-8,32.7-8
				c13.4,0,25,2.4,35,7.3l-6.3,12.7C1000.6,750.1,991,747.9,981.3,747.9z"/>
			<path class="st0" d="M1099.6,863.8h-71V736.5h71v13.2h-56.2v41h52.8v13.1h-52.8v46.9h56.2V863.8z"/>
			<path class="st0" d="M1192.6,829.9c0,11.2-4.1,19.9-12.2,26.2c-8.1,6.3-19.2,9.4-33.1,9.4c-15.1,0-26.7-1.9-34.8-5.8v-14.3
				c5.2,2.2,10.9,3.9,17.1,5.2c6.2,1.3,12.3,1.9,18.3,1.9c9.9,0,17.3-1.9,22.3-5.6c5-3.7,7.5-9,7.5-15.6c0-4.4-0.9-8-2.7-10.8
				c-1.8-2.8-4.7-5.4-8.9-7.8c-4.2-2.4-10.5-5.1-18.9-8.1c-11.8-4.2-20.3-9.3-25.4-15.1c-5.1-5.8-7.6-13.4-7.6-22.7
				c0-9.8,3.7-17.6,11.1-23.4c7.4-5.8,17.1-8.7,29.3-8.7c12.7,0,24.3,2.3,34.9,7l-4.6,12.9c-10.5-4.4-20.7-6.6-30.7-6.6
				c-7.8,0-14,1.7-18.4,5.1c-4.4,3.4-6.6,8-6.6,14c0,4.4,0.8,8,2.4,10.8c1.6,2.8,4.4,5.4,8.2,7.8c3.9,2.4,9.8,5,17.7,7.8
				c13.4,4.8,22.5,9.9,27.6,15.3C1190.1,814.1,1192.6,821.2,1192.6,829.9z"/>
		</g>
	</g>
	<g>
		<path class="st0" d="M676,911l-2.7-6.9h-8.7l-2.7,6.9h-2.6l8.6-21.9h2.1l8.6,21.9H676z M672.5,901.8L670,895
			c-0.3-0.9-0.7-1.9-1-3.1c-0.2,1-0.5,2-0.9,3.1l-2.6,6.8H672.5z"/>
		<path class="st0" d="M691.8,906.6c0,1.5-0.6,2.7-1.7,3.5c-1.1,0.8-2.7,1.2-4.8,1.2c-2.2,0-3.9-0.3-5.1-1V908
			c0.8,0.4,1.6,0.7,2.5,0.9c0.9,0.2,1.8,0.3,2.6,0.3c1.3,0,2.3-0.2,3-0.6s1-1,1-1.9c0-0.6-0.3-1.2-0.8-1.6c-0.6-0.5-1.6-1-3.2-1.6
			c-1.5-0.6-2.6-1.1-3.2-1.5c-0.6-0.4-1.1-0.9-1.4-1.4c-0.3-0.5-0.5-1.2-0.5-1.9c0-1.3,0.5-2.4,1.6-3.2c1.1-0.8,2.6-1.2,4.5-1.2
			c1.8,0,3.5,0.4,5.2,1.1l-0.9,2c-1.6-0.7-3.1-1-4.5-1c-1.2,0-2.1,0.2-2.7,0.6c-0.6,0.4-0.9,0.9-0.9,1.5c0,0.4,0.1,0.8,0.3,1.1
			c0.2,0.3,0.6,0.6,1.1,0.9c0.5,0.3,1.5,0.7,2.9,1.2c1.9,0.7,3.2,1.4,3.9,2.1C691.5,904.6,691.8,905.5,691.8,906.6z"/>
		<path class="st0" d="M706.4,906.6c0,1.5-0.6,2.7-1.7,3.5c-1.1,0.8-2.7,1.2-4.8,1.2c-2.2,0-3.9-0.3-5.1-1V908
			c0.8,0.4,1.6,0.7,2.5,0.9c0.9,0.2,1.8,0.3,2.6,0.3c1.3,0,2.3-0.2,3-0.6s1-1,1-1.9c0-0.6-0.3-1.2-0.8-1.6c-0.6-0.5-1.6-1-3.2-1.6
			c-1.5-0.6-2.6-1.1-3.2-1.5c-0.6-0.4-1.1-0.9-1.4-1.4c-0.3-0.5-0.5-1.2-0.5-1.9c0-1.3,0.5-2.4,1.6-3.2c1.1-0.8,2.6-1.2,4.5-1.2
			c1.8,0,3.5,0.4,5.2,1.1l-0.9,2c-1.6-0.7-3.1-1-4.5-1c-1.2,0-2.1,0.2-2.7,0.6c-0.6,0.4-0.9,0.9-0.9,1.5c0,0.4,0.1,0.8,0.3,1.1
			c0.2,0.3,0.6,0.6,1.1,0.9c0.5,0.3,1.5,0.7,2.9,1.2c1.9,0.7,3.2,1.4,3.9,2.1C706.1,904.6,706.4,905.5,706.4,906.6z"/>
		<path class="st0" d="M723.9,902.8c0,2.7-0.7,4.7-2,6.2s-3.2,2.2-5.6,2.2c-1.5,0-2.8-0.3-3.9-1c-1.1-0.7-2-1.7-2.6-3
			c-0.6-1.3-0.9-2.8-0.9-4.5c0-2.7,0.7-4.7,2-6.2c1.3-1.5,3.2-2.2,5.5-2.2c2.3,0,4.1,0.8,5.4,2.3
			C723.3,898.2,723.9,900.2,723.9,902.8z M711.5,902.8c0,2.1,0.4,3.7,1.3,4.8c0.8,1.1,2.1,1.6,3.7,1.6c1.6,0,2.9-0.5,3.7-1.6
			c0.8-1.1,1.3-2.7,1.3-4.8c0-2.1-0.4-3.7-1.3-4.7s-2.1-1.6-3.7-1.6c-1.6,0-2.8,0.5-3.7,1.6C711.9,899.1,711.5,900.7,711.5,902.8z"
			/>
		<path class="st0" d="M733.6,911.3c-2.4,0-4.2-0.7-5.5-2.2c-1.3-1.5-1.9-3.5-1.9-6.2c0-2.7,0.7-4.8,2-6.3c1.3-1.5,3.2-2.2,5.6-2.2
			c0.8,0,1.6,0.1,2.4,0.3c0.8,0.2,1.4,0.4,1.8,0.6l-0.8,2.1c-0.5-0.2-1.1-0.4-1.8-0.5c-0.6-0.1-1.2-0.2-1.7-0.2c-3.3,0-5,2.1-5,6.4
			c0,2,0.4,3.5,1.2,4.6c0.8,1.1,2,1.6,3.6,1.6c1.4,0,2.8-0.3,4.2-0.9v2.2C736.6,911,735.2,911.3,733.6,911.3z"/>
		<path class="st0" d="M741.4,890.2c0-0.6,0.1-1,0.4-1.2c0.3-0.3,0.6-0.4,1-0.4c0.4,0,0.7,0.1,1,0.4c0.3,0.3,0.4,0.7,0.4,1.2
			c0,0.6-0.1,1-0.4,1.2c-0.3,0.3-0.6,0.4-1,0.4c-0.4,0-0.8-0.1-1-0.4C741.5,891.2,741.4,890.8,741.4,890.2z M744.1,911h-2.5v-16.3
			h2.5V911z"/>
		<path class="st0" d="M759.4,911l-0.5-2.3h-0.1c-0.8,1-1.6,1.7-2.4,2.1c-0.8,0.4-1.8,0.5-3,0.5c-1.6,0-2.9-0.4-3.8-1.3
			c-0.9-0.8-1.4-2-1.4-3.6c0-3.3,2.6-5,7.9-5.2l2.8-0.1v-1c0-1.3-0.3-2.2-0.8-2.8c-0.6-0.6-1.4-0.9-2.6-0.9c-1.4,0-2.9,0.4-4.6,1.3
			l-0.8-1.9c0.8-0.4,1.7-0.8,2.6-1c1-0.2,1.9-0.4,2.9-0.4c1.9,0,3.4,0.4,4.3,1.3c0.9,0.9,1.4,2.3,1.4,4.2V911H759.4z M753.8,909.3
			c1.5,0,2.8-0.4,3.6-1.3c0.9-0.8,1.3-2,1.3-3.5V903l-2.5,0.1c-2,0.1-3.4,0.4-4.3,0.9c-0.9,0.5-1.3,1.4-1.3,2.5c0,0.9,0.3,1.6,0.8,2
			C752,909,752.8,909.3,753.8,909.3z"/>
		<path class="st0" d="M771.6,909.3c0.4,0,0.9,0,1.3-0.1c0.4-0.1,0.7-0.1,1-0.2v1.9c-0.3,0.1-0.7,0.2-1.2,0.3s-1,0.1-1.4,0.1
			c-3.2,0-4.7-1.7-4.7-5v-9.7h-2.3v-1.2l2.3-1l1-3.5h1.4v3.8h4.7v1.9H769v9.6c0,1,0.2,1.7,0.7,2.3S770.8,909.3,771.6,909.3z"/>
		<path class="st0" d="M776.9,890.2c0-0.6,0.1-1,0.4-1.2c0.3-0.3,0.6-0.4,1-0.4c0.4,0,0.7,0.1,1,0.4c0.3,0.3,0.4,0.7,0.4,1.2
			c0,0.6-0.1,1-0.4,1.2s-0.6,0.4-1,0.4c-0.4,0-0.8-0.1-1-0.4C777,891.2,776.9,890.8,776.9,890.2z M779.6,911h-2.5v-16.3h2.5V911z"/>
		<path class="st0" d="M797.7,902.8c0,2.7-0.7,4.7-2,6.2s-3.2,2.2-5.6,2.2c-1.5,0-2.8-0.3-3.9-1c-1.1-0.7-2-1.7-2.6-3
			c-0.6-1.3-0.9-2.8-0.9-4.5c0-2.7,0.7-4.7,2-6.2c1.3-1.5,3.2-2.2,5.5-2.2c2.3,0,4.1,0.8,5.4,2.3C797,898.2,797.7,900.2,797.7,902.8
			z M785.2,902.8c0,2.1,0.4,3.7,1.3,4.8c0.8,1.1,2.1,1.6,3.7,1.6c1.6,0,2.9-0.5,3.7-1.6c0.8-1.1,1.3-2.7,1.3-4.8
			c0-2.1-0.4-3.7-1.3-4.7s-2.1-1.6-3.7-1.6c-1.6,0-2.8,0.5-3.7,1.6C785.6,899.1,785.2,900.7,785.2,902.8z"/>
		<path class="st0" d="M812,911v-10.6c0-1.3-0.3-2.3-0.9-3c-0.6-0.7-1.6-1-2.8-1c-1.7,0-3,0.5-3.8,1.4c-0.8,0.9-1.2,2.5-1.2,4.6v8.6
			h-2.5v-16.3h2l0.4,2.2h0.1c0.5-0.8,1.2-1.4,2.1-1.9c0.9-0.4,1.9-0.7,3.1-0.7c2,0,3.4,0.5,4.4,1.4s1.5,2.5,1.5,4.6V911H812z"/>
		<path class="st0" d="M837.5,911l-7.4-19.3H830c0.1,1.5,0.2,3.3,0.2,5.5V911h-2.3v-21.8h3.8l6.9,18h0.1l7-18h3.8V911h-2.5v-14
			c0-1.6,0.1-3.4,0.2-5.2H847l-7.5,19.3H837.5z"/>
		<path class="st0" d="M864.5,911l-0.5-2.3h-0.1c-0.8,1-1.6,1.7-2.4,2.1c-0.8,0.4-1.8,0.5-3,0.5c-1.6,0-2.9-0.4-3.8-1.3
			c-0.9-0.8-1.4-2-1.4-3.6c0-3.3,2.6-5,7.9-5.2l2.8-0.1v-1c0-1.3-0.3-2.2-0.8-2.8c-0.6-0.6-1.4-0.9-2.6-0.9c-1.4,0-2.9,0.4-4.6,1.3
			l-0.8-1.9c0.8-0.4,1.7-0.8,2.6-1c1-0.2,1.9-0.4,2.9-0.4c1.9,0,3.4,0.4,4.3,1.3c0.9,0.9,1.4,2.3,1.4,4.2V911H864.5z M858.9,909.3
			c1.5,0,2.8-0.4,3.6-1.3c0.9-0.8,1.3-2,1.3-3.5V903l-2.5,0.1c-2,0.1-3.4,0.4-4.3,0.9c-0.9,0.5-1.3,1.4-1.3,2.5c0,0.9,0.3,1.6,0.8,2
			S857.9,909.3,858.9,909.3z"/>
		<path class="st0" d="M881.4,911v-10.6c0-1.3-0.3-2.3-0.9-3s-1.6-1-2.8-1c-1.7,0-3,0.5-3.8,1.4c-0.8,0.9-1.2,2.5-1.2,4.6v8.6h-2.5
			v-16.3h2l0.4,2.2h0.1c0.5-0.8,1.2-1.4,2.1-1.9c0.9-0.4,1.9-0.7,3.1-0.7c2,0,3.4,0.5,4.4,1.4c1,0.9,1.5,2.5,1.5,4.6V911H881.4z"/>
		<path class="st0" d="M898.4,911l-0.5-2.3h-0.1c-0.8,1-1.6,1.7-2.4,2.1c-0.8,0.4-1.8,0.5-3,0.5c-1.6,0-2.9-0.4-3.8-1.3
			c-0.9-0.8-1.4-2-1.4-3.6c0-3.3,2.6-5,7.9-5.2l2.8-0.1v-1c0-1.3-0.3-2.2-0.8-2.8c-0.6-0.6-1.4-0.9-2.6-0.9c-1.4,0-2.9,0.4-4.6,1.3
			l-0.8-1.9c0.8-0.4,1.7-0.8,2.6-1c1-0.2,1.9-0.4,2.9-0.4c1.9,0,3.4,0.4,4.3,1.3c0.9,0.9,1.4,2.3,1.4,4.2V911H898.4z M892.8,909.3
			c1.5,0,2.8-0.4,3.6-1.3c0.9-0.8,1.3-2,1.3-3.5V903l-2.5,0.1c-2,0.1-3.4,0.4-4.3,0.9s-1.3,1.4-1.3,2.5c0,0.9,0.3,1.6,0.8,2
			S891.8,909.3,892.8,909.3z"/>
		<path class="st0" d="M918.7,894.7v1.6l-3,0.4c0.3,0.3,0.5,0.8,0.7,1.4s0.3,1.2,0.3,1.9c0,1.6-0.5,2.9-1.6,3.8
			c-1.1,1-2.6,1.4-4.5,1.4c-0.5,0-0.9,0-1.4-0.1c-1.1,0.6-1.6,1.3-1.6,2.1c0,0.4,0.2,0.8,0.6,1c0.4,0.2,1,0.3,1.9,0.3h2.9
			c1.8,0,3.1,0.4,4.1,1.1c0.9,0.7,1.4,1.8,1.4,3.3c0,1.8-0.7,3.2-2.2,4.1s-3.6,1.4-6.4,1.4c-2.1,0-3.8-0.4-4.9-1.2
			c-1.2-0.8-1.7-1.9-1.7-3.4c0-1,0.3-1.9,1-2.6c0.6-0.7,1.5-1.2,2.7-1.5c-0.4-0.2-0.8-0.5-1.1-0.9c-0.3-0.4-0.4-0.9-0.4-1.4
			c0-0.6,0.2-1.1,0.5-1.6c0.3-0.4,0.8-0.9,1.5-1.3c-0.8-0.3-1.5-0.9-2.1-1.8c-0.5-0.8-0.8-1.8-0.8-2.9c0-1.8,0.5-3.2,1.6-4.1
			c1.1-1,2.6-1.5,4.6-1.5c0.9,0,1.6,0.1,2.3,0.3H918.7z M905.7,913.8c0,0.9,0.4,1.6,1.1,2c0.7,0.5,1.8,0.7,3.2,0.7
			c2.1,0,3.6-0.3,4.6-0.9c1-0.6,1.5-1.5,1.5-2.5c0-0.9-0.3-1.5-0.8-1.8c-0.5-0.3-1.6-0.5-3.1-0.5h-3c-1.1,0-2,0.3-2.6,0.8
			C906,912,905.7,912.8,905.7,913.8z M907,899.9c0,1.1,0.3,2,1,2.6c0.6,0.6,1.5,0.9,2.7,0.9c2.4,0,3.6-1.2,3.6-3.5
			c0-2.5-1.2-3.7-3.7-3.7c-1.2,0-2.1,0.3-2.7,0.9C907.3,897.7,907,898.7,907,899.9z"/>
		<path class="st0" d="M929,911.3c-2.4,0-4.3-0.7-5.7-2.2c-1.4-1.5-2.1-3.5-2.1-6.1c0-2.6,0.6-4.7,1.9-6.3c1.3-1.6,3-2.3,5.2-2.3
			c2,0,3.7,0.7,4.9,2c1.2,1.3,1.8,3.1,1.8,5.3v1.6h-11.3c0,1.9,0.5,3.4,1.5,4.4s2.2,1.5,3.9,1.5c1.8,0,3.5-0.4,5.2-1.1v2.2
			c-0.9,0.4-1.7,0.6-2.5,0.8C931,911.2,930.1,911.3,929,911.3z M928.3,896.4c-1.3,0-2.4,0.4-3.1,1.3c-0.8,0.9-1.2,2-1.4,3.5h8.5
			c0-1.6-0.3-2.8-1-3.6C930.6,896.9,929.6,896.4,928.3,896.4z"/>
		<path class="st0" d="M958.8,911v-10.6c0-1.3-0.3-2.3-0.8-2.9c-0.6-0.7-1.4-1-2.6-1c-1.5,0-2.7,0.4-3.4,1.3
			c-0.7,0.9-1.1,2.2-1.1,4.1v9.1h-2.5v-10.6c0-1.3-0.3-2.3-0.8-2.9c-0.6-0.7-1.4-1-2.6-1c-1.6,0-2.7,0.5-3.4,1.4
			c-0.7,0.9-1.1,2.5-1.1,4.6v8.6H938v-16.3h2l0.4,2.2h0.1c0.5-0.8,1.1-1.4,2-1.9c0.9-0.4,1.8-0.7,2.9-0.7c2.6,0,4.2,0.9,5,2.8h0.1
			c0.5-0.9,1.2-1.5,2.1-2c0.9-0.5,2-0.7,3.2-0.7c1.8,0,3.2,0.5,4.2,1.4c0.9,0.9,1.4,2.5,1.4,4.6V911H958.8z"/>
		<path class="st0" d="M972.1,911.3c-2.4,0-4.3-0.7-5.7-2.2c-1.4-1.5-2.1-3.5-2.1-6.1c0-2.6,0.6-4.7,1.9-6.3c1.3-1.6,3-2.3,5.2-2.3
			c2,0,3.7,0.7,4.9,2c1.2,1.3,1.8,3.1,1.8,5.3v1.6h-11.3c0,1.9,0.5,3.4,1.5,4.4s2.2,1.5,3.9,1.5c1.8,0,3.5-0.4,5.2-1.1v2.2
			c-0.9,0.4-1.7,0.6-2.5,0.8C974.1,911.2,973.2,911.3,972.1,911.3z M971.4,896.4c-1.3,0-2.4,0.4-3.1,1.3c-0.8,0.9-1.2,2-1.4,3.5h8.5
			c0-1.6-0.3-2.8-1-3.6C973.7,896.9,972.7,896.4,971.4,896.4z"/>
		<path class="st0" d="M992.9,911v-10.6c0-1.3-0.3-2.3-0.9-3c-0.6-0.7-1.6-1-2.8-1c-1.7,0-3,0.5-3.8,1.4c-0.8,0.9-1.2,2.5-1.2,4.6
			v8.6h-2.5v-16.3h2l0.4,2.2h0.1c0.5-0.8,1.2-1.4,2.1-1.9c0.9-0.4,1.9-0.7,3.1-0.7c2,0,3.4,0.5,4.4,1.4s1.5,2.5,1.5,4.6V911H992.9z"
			/>
		<path class="st0" d="M1005.1,909.3c0.4,0,0.9,0,1.3-0.1c0.4-0.1,0.7-0.1,1-0.2v1.9c-0.3,0.1-0.7,0.2-1.2,0.3
			c-0.5,0.1-1,0.1-1.4,0.1c-3.2,0-4.7-1.7-4.7-5v-9.7h-2.3v-1.2l2.3-1l1-3.5h1.4v3.8h4.7v1.9h-4.7v9.6c0,1,0.2,1.7,0.7,2.3
			C1003.6,909,1004.3,909.3,1005.1,909.3z"/>
		<path class="st0" d="M1017.6,905.4c0-1.3,0.3-2.4,1-3.4c0.7-1,1.9-2,3.7-3c-0.8-0.9-1.4-1.7-1.7-2.1c-0.3-0.5-0.5-1-0.7-1.5
			c-0.2-0.5-0.3-1.1-0.3-1.6c0-1.5,0.5-2.7,1.5-3.5c1-0.8,2.3-1.3,4.1-1.3c1.6,0,2.9,0.4,3.8,1.2c0.9,0.8,1.4,2,1.4,3.5
			c0,1.1-0.3,2-1,2.9c-0.7,0.9-1.8,1.8-3.4,2.7l6.1,5.8c0.6-0.6,1-1.3,1.3-2.2c0.3-0.8,0.6-1.7,0.8-2.7h2.5c-0.7,2.8-1.7,5-3.1,6.5
			l4.5,4.3h-3.4l-2.8-2.7c-1.2,1.1-2.4,1.8-3.6,2.3c-1.2,0.5-2.6,0.7-4.1,0.7c-2.1,0-3.8-0.5-5-1.6
			C1018.2,908.7,1017.6,907.2,1017.6,905.4z M1024.4,909.1c2.4,0,4.4-0.8,6-2.3l-6.5-6.3c-1.1,0.7-1.9,1.2-2.3,1.7
			c-0.5,0.4-0.8,0.9-1,1.4c-0.2,0.5-0.3,1.1-0.3,1.7c0,1.2,0.4,2.1,1.2,2.8C1022.1,908.8,1023.1,909.1,1024.4,909.1z M1022.1,893.6
			c0,0.7,0.2,1.3,0.5,2s1,1.4,1.8,2.2c1.3-0.7,2.2-1.4,2.7-2.1c0.5-0.6,0.8-1.4,0.8-2.2c0-0.8-0.3-1.4-0.8-1.9s-1.2-0.7-2.1-0.7
			c-0.9,0-1.6,0.2-2.2,0.7S1022.1,892.7,1022.1,893.6z"/>
		<path class="st0" d="M1058.5,891.2c-2.4,0-4.3,0.8-5.7,2.4s-2.1,3.8-2.1,6.6c0,2.9,0.7,5.1,2,6.6c1.3,1.6,3.2,2.3,5.7,2.3
			c1.5,0,3.3-0.3,5.2-0.8v2.2c-1.5,0.6-3.4,0.9-5.6,0.9c-3.2,0-5.7-1-7.4-2.9c-1.7-1.9-2.6-4.7-2.6-8.3c0-2.2,0.4-4.2,1.3-5.9
			c0.8-1.7,2.1-3,3.6-3.9c1.6-0.9,3.5-1.4,5.6-1.4c2.3,0,4.3,0.4,6,1.3l-1.1,2.2C1061.8,891.6,1060.1,891.2,1058.5,891.2z"/>
		<path class="st0" d="M1080.9,902.8c0,2.7-0.7,4.7-2,6.2c-1.3,1.5-3.2,2.2-5.6,2.2c-1.5,0-2.8-0.3-3.9-1s-2-1.7-2.6-3
			c-0.6-1.3-0.9-2.8-0.9-4.5c0-2.7,0.7-4.7,2-6.2c1.3-1.5,3.2-2.2,5.5-2.2c2.3,0,4.1,0.8,5.4,2.3
			C1080.2,898.2,1080.9,900.2,1080.9,902.8z M1068.5,902.8c0,2.1,0.4,3.7,1.3,4.8c0.8,1.1,2.1,1.6,3.7,1.6s2.9-0.5,3.7-1.6
			c0.8-1.1,1.3-2.7,1.3-4.8c0-2.1-0.4-3.7-1.3-4.7s-2.1-1.6-3.7-1.6c-1.6,0-2.8,0.5-3.7,1.6C1068.9,899.1,1068.5,900.7,1068.5,902.8
			z"/>
		<path class="st0" d="M1095.2,911v-10.6c0-1.3-0.3-2.3-0.9-3c-0.6-0.7-1.6-1-2.8-1c-1.7,0-3,0.5-3.8,1.4c-0.8,0.9-1.2,2.5-1.2,4.6
			v8.6h-2.5v-16.3h2l0.4,2.2h0.1c0.5-0.8,1.2-1.4,2.1-1.9c0.9-0.4,1.9-0.7,3.1-0.7c2,0,3.4,0.5,4.4,1.4c1,0.9,1.5,2.5,1.5,4.6V911
			H1095.2z"/>
		<path class="st0" d="M1112.7,906.6c0,1.5-0.6,2.7-1.7,3.5c-1.1,0.8-2.7,1.2-4.8,1.2c-2.2,0-3.9-0.3-5.1-1V908
			c0.8,0.4,1.6,0.7,2.5,0.9c0.9,0.2,1.8,0.3,2.6,0.3c1.3,0,2.3-0.2,3-0.6s1-1,1-1.9c0-0.6-0.3-1.2-0.8-1.6c-0.6-0.5-1.6-1-3.2-1.6
			c-1.5-0.6-2.6-1.1-3.2-1.5c-0.6-0.4-1.1-0.9-1.4-1.4s-0.5-1.2-0.5-1.9c0-1.3,0.5-2.4,1.6-3.2c1.1-0.8,2.6-1.2,4.5-1.2
			c1.8,0,3.5,0.4,5.2,1.1l-0.9,2c-1.6-0.7-3.1-1-4.5-1c-1.2,0-2.1,0.2-2.7,0.6c-0.6,0.4-0.9,0.9-0.9,1.5c0,0.4,0.1,0.8,0.3,1.1
			c0.2,0.3,0.6,0.6,1.1,0.9c0.5,0.3,1.5,0.7,2.9,1.2c1.9,0.7,3.2,1.4,3.9,2.1C1112.4,904.6,1112.7,905.5,1112.7,906.6z"/>
		<path class="st0" d="M1118.4,894.7v10.6c0,1.3,0.3,2.3,0.9,3c0.6,0.7,1.6,1,2.8,1c1.7,0,3-0.5,3.8-1.4c0.8-0.9,1.2-2.5,1.2-4.6
			v-8.6h2.5V911h-2l-0.4-2.2h-0.1c-0.5,0.8-1.2,1.4-2.1,1.8c-0.9,0.4-1.9,0.6-3.1,0.6c-2,0-3.5-0.5-4.5-1.4c-1-0.9-1.5-2.5-1.5-4.5
			v-10.7H1118.4z"/>
		<path class="st0" d="M1136.7,911h-2.5v-23.2h2.5V911z"/>
		<path class="st0" d="M1147.2,909.3c0.4,0,0.9,0,1.3-0.1s0.7-0.1,1-0.2v1.9c-0.3,0.1-0.7,0.2-1.2,0.3c-0.5,0.1-1,0.1-1.4,0.1
			c-3.2,0-4.7-1.7-4.7-5v-9.7h-2.3v-1.2l2.3-1l1-3.5h1.4v3.8h4.7v1.9h-4.7v9.6c0,1,0.2,1.7,0.7,2.3S1146.4,909.3,1147.2,909.3z"/>
		<path class="st0" d="M1152.5,890.2c0-0.6,0.1-1,0.4-1.2c0.3-0.3,0.6-0.4,1-0.4c0.4,0,0.7,0.1,1,0.4c0.3,0.3,0.4,0.7,0.4,1.2
			c0,0.6-0.1,1-0.4,1.2s-0.6,0.4-1,0.4c-0.4,0-0.8-0.1-1-0.4C1152.7,891.2,1152.5,890.8,1152.5,890.2z M1155.2,911h-2.5v-16.3h2.5
			V911z"/>
		<path class="st0" d="M1171.7,911v-10.6c0-1.3-0.3-2.3-0.9-3c-0.6-0.7-1.6-1-2.8-1c-1.7,0-3,0.5-3.8,1.4c-0.8,0.9-1.2,2.5-1.2,4.6
			v8.6h-2.5v-16.3h2l0.4,2.2h0.1c0.5-0.8,1.2-1.4,2.1-1.9c0.9-0.4,1.9-0.7,3.1-0.7c2,0,3.4,0.5,4.4,1.4c1,0.9,1.5,2.5,1.5,4.6V911
			H1171.7z"/>
		<path class="st0" d="M1192.6,894.7v1.6l-3,0.4c0.3,0.3,0.5,0.8,0.7,1.4s0.3,1.2,0.3,1.9c0,1.6-0.5,2.9-1.6,3.8
			c-1.1,1-2.6,1.4-4.5,1.4c-0.5,0-0.9,0-1.4-0.1c-1.1,0.6-1.6,1.3-1.6,2.1c0,0.4,0.2,0.8,0.6,1c0.4,0.2,1,0.3,1.9,0.3h2.9
			c1.8,0,3.1,0.4,4.1,1.1c0.9,0.7,1.4,1.8,1.4,3.3c0,1.8-0.7,3.2-2.2,4.1c-1.5,0.9-3.6,1.4-6.4,1.4c-2.1,0-3.8-0.4-4.9-1.2
			c-1.2-0.8-1.7-1.9-1.7-3.4c0-1,0.3-1.9,1-2.6c0.6-0.7,1.5-1.2,2.7-1.5c-0.4-0.2-0.8-0.5-1.1-0.9c-0.3-0.4-0.4-0.9-0.4-1.4
			c0-0.6,0.2-1.1,0.5-1.6c0.3-0.4,0.8-0.9,1.5-1.3c-0.8-0.3-1.5-0.9-2.1-1.8c-0.5-0.8-0.8-1.8-0.8-2.9c0-1.8,0.5-3.2,1.6-4.1
			c1.1-1,2.6-1.5,4.6-1.5c0.9,0,1.6,0.1,2.3,0.3H1192.6z M1179.6,913.8c0,0.9,0.4,1.6,1.1,2c0.7,0.5,1.8,0.7,3.2,0.7
			c2.1,0,3.6-0.3,4.6-0.9c1-0.6,1.5-1.5,1.5-2.5c0-0.9-0.3-1.5-0.8-1.8c-0.5-0.3-1.6-0.5-3.1-0.5h-3c-1.1,0-2,0.3-2.6,0.8
			C1179.9,912,1179.6,912.8,1179.6,913.8z M1180.9,899.9c0,1.1,0.3,2,1,2.6c0.6,0.6,1.5,0.9,2.7,0.9c2.4,0,3.6-1.2,3.6-3.5
			c0-2.5-1.2-3.7-3.7-3.7c-1.2,0-2.1,0.3-2.7,0.9C1181.2,897.7,1180.9,898.7,1180.9,899.9z"/>
	</g>
</g>
<g>
	<g>
		<path class="st2" d="M1370.1,275.6c8.9,9.8,19,20.9,25.2,27.7c3,3.3,7.5,4.7,11.9,3.8c75.3-15.9,365.2-95.7,445.1-213.3
			c2.4-3.5-2-7.6-5.3-5.1c-172.6,129.1-393.8,159-468.5,165.6C1367.9,255.2,1363,267.8,1370.1,275.6z"/>
		<path class="st3" d="M1428.2,339.2l19.2,21.1c3.4,3.7,8.6,5.1,13.4,3.5c43.7-14.4,257.5-88.8,340.2-188c2.8-3.3-1.3-7.9-4.9-5.5
			c-100.6,65.7-265.4,126.4-361.4,147.9C1425.3,320.4,1421.6,332,1428.2,339.2z"/>
		<path class="st2" d="M1478.1,394l27.4,30.1c4,4.4,10.7,5.5,15.8,2.4c26.9-15.7,109.5-66.9,185.8-143c3-3-0.6-7.9-4.4-5.9
			c-92.9,49.3-182.1,82.6-219.4,95.7C1474.6,376.4,1471.9,387.2,1478.1,394z"/>
	</g>
	<g>
		<g>
			<path class="st2" d="M1916.3,327.5l-15.9-40.5h-51l-15.7,40.5h-15l50.3-127.9h12.5l50.1,127.9H1916.3z M1895.9,273.7l-14.8-39.5
				c-1.9-5-3.9-11.1-5.9-18.4c-1.3,5.6-3.1,11.7-5.5,18.4l-15,39.5H1895.9z"/>
			<path class="st2" d="M1991.3,327.5l-43.2-112.9h-0.7c0.8,8.9,1.2,19.6,1.2,31.9v81h-13.7V200.2h22.3l40.3,105.1h0.7l40.7-105.1
				h22.1v127.4h-14.8v-82.1c0-9.4,0.4-19.6,1.2-30.7h-0.7l-43.6,112.7H1991.3z"/>
			<path class="st2" d="M2139.8,211.6c-14,0-25,4.7-33.1,14c-8.1,9.3-12.2,22.1-12.2,38.3c0,16.7,3.9,29.5,11.7,38.6
				c7.8,9.1,18.9,13.6,33.4,13.6c8.9,0,19-1.6,30.4-4.8v13c-8.8,3.3-19.7,5-32.7,5c-18.8,0-33.2-5.7-43.4-17.1
				c-10.2-11.4-15.3-27.6-15.3-48.5c0-13.1,2.5-24.6,7.4-34.5c4.9-9.9,12-17.5,21.3-22.8c9.3-5.3,20.2-8,32.7-8
				c13.4,0,25,2.4,35,7.3l-6.3,12.7C2159.1,213.9,2149.4,211.6,2139.8,211.6z"/>
			<path class="st2" d="M2258.1,327.5h-71V200.2h71v13.2h-56.2v41h52.8v13.1h-52.8v46.9h56.2V327.5z"/>
			<path class="st2" d="M2351.1,293.7c0,11.2-4.1,19.9-12.2,26.2c-8.1,6.3-19.2,9.4-33.1,9.4c-15.1,0-26.7-1.9-34.8-5.8v-14.3
				c5.2,2.2,10.9,3.9,17.1,5.2c6.2,1.3,12.3,1.9,18.3,1.9c9.9,0,17.3-1.9,22.3-5.6c5-3.7,7.5-9,7.5-15.6c0-4.4-0.9-8-2.7-10.8
				c-1.8-2.8-4.7-5.4-8.9-7.8c-4.2-2.4-10.5-5.1-18.9-8.1c-11.8-4.2-20.3-9.3-25.4-15.1c-5.1-5.8-7.6-13.4-7.6-22.7
				c0-9.8,3.7-17.6,11.1-23.4c7.4-5.8,17.1-8.7,29.3-8.7c12.7,0,24.3,2.3,34.9,7l-4.6,12.9c-10.5-4.4-20.7-6.6-30.7-6.6
				c-7.8,0-14,1.7-18.4,5.1c-4.4,3.4-6.6,8-6.6,14c0,4.4,0.8,8,2.4,10.8s4.4,5.4,8.2,7.8c3.9,2.4,9.8,5,17.7,7.8
				c13.4,4.8,22.5,9.9,27.6,15.3C2348.5,277.9,2351.1,284.9,2351.1,293.7z"/>
		</g>
	</g>
	<g>
		<path class="st3" d="M1834.5,374.7l-2.7-6.9h-8.7l-2.7,6.9h-2.6l8.6-21.9h2.1l8.6,21.9H1834.5z M1831,365.5l-2.5-6.8
			c-0.3-0.9-0.7-1.9-1-3.1c-0.2,1-0.5,2-0.9,3.1l-2.6,6.8H1831z"/>
		<path class="st3" d="M1850.3,370.3c0,1.5-0.6,2.7-1.7,3.5c-1.1,0.8-2.7,1.2-4.8,1.2c-2.2,0-3.9-0.3-5.1-1v-2.3
			c0.8,0.4,1.6,0.7,2.5,0.9c0.9,0.2,1.8,0.3,2.6,0.3c1.3,0,2.3-0.2,3-0.6c0.7-0.4,1-1,1-1.9c0-0.6-0.3-1.2-0.8-1.6
			c-0.6-0.5-1.6-1-3.2-1.6c-1.5-0.6-2.6-1.1-3.2-1.5c-0.6-0.4-1.1-0.9-1.4-1.4s-0.5-1.2-0.5-1.9c0-1.3,0.5-2.4,1.6-3.2
			c1.1-0.8,2.6-1.2,4.5-1.2c1.8,0,3.5,0.4,5.2,1.1l-0.9,2c-1.6-0.7-3.1-1-4.5-1c-1.2,0-2.1,0.2-2.7,0.6c-0.6,0.4-0.9,0.9-0.9,1.5
			c0,0.4,0.1,0.8,0.3,1.1c0.2,0.3,0.6,0.6,1.1,0.9c0.5,0.3,1.5,0.7,2.9,1.2c1.9,0.7,3.2,1.4,3.9,2.1
			C1850,368.3,1850.3,369.2,1850.3,370.3z"/>
		<path class="st3" d="M1864.9,370.3c0,1.5-0.6,2.7-1.7,3.5c-1.1,0.8-2.7,1.2-4.8,1.2c-2.2,0-3.9-0.3-5.1-1v-2.3
			c0.8,0.4,1.6,0.7,2.5,0.9c0.9,0.2,1.8,0.3,2.6,0.3c1.3,0,2.3-0.2,3-0.6c0.7-0.4,1-1,1-1.9c0-0.6-0.3-1.2-0.8-1.6
			c-0.6-0.5-1.6-1-3.2-1.6c-1.5-0.6-2.6-1.1-3.2-1.5c-0.6-0.4-1.1-0.9-1.4-1.4c-0.3-0.5-0.5-1.2-0.5-1.9c0-1.3,0.5-2.4,1.6-3.2
			c1.1-0.8,2.6-1.2,4.5-1.2c1.8,0,3.5,0.4,5.2,1.1l-0.9,2c-1.6-0.7-3.1-1-4.5-1c-1.2,0-2.1,0.2-2.7,0.6c-0.6,0.4-0.9,0.9-0.9,1.5
			c0,0.4,0.1,0.8,0.3,1.1c0.2,0.3,0.6,0.6,1.1,0.9s1.5,0.7,2.9,1.2c1.9,0.7,3.2,1.4,3.9,2.1C1864.5,368.3,1864.9,369.2,1864.9,370.3
			z"/>
		<path class="st3" d="M1882.4,366.6c0,2.7-0.7,4.7-2,6.2c-1.3,1.5-3.2,2.2-5.6,2.2c-1.5,0-2.8-0.3-3.9-1c-1.1-0.7-2-1.7-2.6-3
			s-0.9-2.8-0.9-4.5c0-2.7,0.7-4.7,2-6.2c1.3-1.5,3.2-2.2,5.5-2.2c2.3,0,4.1,0.8,5.4,2.3C1881.7,361.9,1882.4,364,1882.4,366.6z
			 M1869.9,366.6c0,2.1,0.4,3.7,1.3,4.8c0.8,1.1,2.1,1.6,3.7,1.6c1.6,0,2.9-0.5,3.7-1.6c0.8-1.1,1.3-2.7,1.3-4.8
			c0-2.1-0.4-3.7-1.3-4.7s-2.1-1.6-3.7-1.6c-1.6,0-2.8,0.5-3.7,1.6S1869.9,364.4,1869.9,366.6z"/>
		<path class="st3" d="M1892,375c-2.4,0-4.2-0.7-5.5-2.2c-1.3-1.5-1.9-3.5-1.9-6.2c0-2.7,0.7-4.8,2-6.3c1.3-1.5,3.2-2.2,5.6-2.2
			c0.8,0,1.6,0.1,2.4,0.3c0.8,0.2,1.4,0.4,1.8,0.6l-0.8,2.1c-0.5-0.2-1.1-0.4-1.8-0.5c-0.6-0.1-1.2-0.2-1.7-0.2c-3.3,0-5,2.1-5,6.4
			c0,2,0.4,3.5,1.2,4.6c0.8,1.1,2,1.6,3.6,1.6c1.4,0,2.8-0.3,4.2-0.9v2.2C1895.1,374.8,1893.7,375,1892,375z"/>
		<path class="st3" d="M1899.8,354c0-0.6,0.1-1,0.4-1.2c0.3-0.3,0.6-0.4,1-0.4c0.4,0,0.7,0.1,1,0.4s0.4,0.7,0.4,1.2
			c0,0.6-0.1,1-0.4,1.2c-0.3,0.3-0.6,0.4-1,0.4c-0.4,0-0.8-0.1-1-0.4C1900,354.9,1899.8,354.5,1899.8,354z M1902.5,374.7h-2.5v-16.3
			h2.5V374.7z"/>
		<path class="st3" d="M1917.8,374.7l-0.5-2.3h-0.1c-0.8,1-1.6,1.7-2.4,2.1c-0.8,0.4-1.8,0.5-3,0.5c-1.6,0-2.9-0.4-3.8-1.3
			c-0.9-0.8-1.4-2-1.4-3.6c0-3.3,2.6-5,7.9-5.2l2.8-0.1v-1c0-1.3-0.3-2.2-0.8-2.8c-0.6-0.6-1.4-0.9-2.6-0.9c-1.4,0-2.9,0.4-4.6,1.3
			l-0.8-1.9c0.8-0.4,1.7-0.8,2.6-1c1-0.2,1.9-0.4,2.9-0.4c1.9,0,3.4,0.4,4.3,1.3c0.9,0.9,1.4,2.3,1.4,4.2v11.2H1917.8z M1912.2,373
			c1.5,0,2.8-0.4,3.6-1.3c0.9-0.8,1.3-2,1.3-3.5v-1.5l-2.5,0.1c-2,0.1-3.4,0.4-4.3,0.9c-0.9,0.5-1.3,1.4-1.3,2.5
			c0,0.9,0.3,1.6,0.8,2C1910.5,372.8,1911.2,373,1912.2,373z"/>
		<path class="st3" d="M1930,373c0.4,0,0.9,0,1.3-0.1s0.7-0.1,1-0.2v1.9c-0.3,0.1-0.7,0.2-1.2,0.3c-0.5,0.1-1,0.1-1.4,0.1
			c-3.2,0-4.7-1.7-4.7-5v-9.7h-2.3v-1.2l2.3-1l1-3.5h1.4v3.8h4.7v1.9h-4.7v9.6c0,1,0.2,1.7,0.7,2.3
			C1928.6,372.7,1929.2,373,1930,373z"/>
		<path class="st3" d="M1935.3,354c0-0.6,0.1-1,0.4-1.2c0.3-0.3,0.6-0.4,1-0.4c0.4,0,0.7,0.1,1,0.4s0.4,0.7,0.4,1.2
			c0,0.6-0.1,1-0.4,1.2c-0.3,0.3-0.6,0.4-1,0.4c-0.4,0-0.8-0.1-1-0.4C1935.5,354.9,1935.3,354.5,1935.3,354z M1938,374.7h-2.5v-16.3
			h2.5V374.7z"/>
		<path class="st3" d="M1956.1,366.6c0,2.7-0.7,4.7-2,6.2c-1.3,1.5-3.2,2.2-5.6,2.2c-1.5,0-2.8-0.3-3.9-1c-1.1-0.7-2-1.7-2.6-3
			s-0.9-2.8-0.9-4.5c0-2.7,0.7-4.7,2-6.2c1.3-1.5,3.2-2.2,5.5-2.2c2.3,0,4.1,0.8,5.4,2.3C1955.5,361.9,1956.1,364,1956.1,366.6z
			 M1943.7,366.6c0,2.1,0.4,3.7,1.3,4.8c0.8,1.1,2.1,1.6,3.7,1.6c1.6,0,2.9-0.5,3.7-1.6c0.8-1.1,1.3-2.7,1.3-4.8
			c0-2.1-0.4-3.7-1.3-4.7s-2.1-1.6-3.7-1.6c-1.6,0-2.8,0.5-3.7,1.6S1943.7,364.4,1943.7,366.6z"/>
		<path class="st3" d="M1970.4,374.7v-10.6c0-1.3-0.3-2.3-0.9-3c-0.6-0.7-1.6-1-2.8-1c-1.7,0-3,0.5-3.8,1.4
			c-0.8,0.9-1.2,2.5-1.2,4.6v8.6h-2.5v-16.3h2l0.4,2.2h0.1c0.5-0.8,1.2-1.4,2.1-1.9c0.9-0.4,1.9-0.7,3.1-0.7c2,0,3.4,0.5,4.4,1.4
			c1,0.9,1.5,2.5,1.5,4.6v10.7H1970.4z"/>
		<path class="st3" d="M1996,374.7l-7.4-19.3h-0.1c0.1,1.5,0.2,3.3,0.2,5.5v13.9h-2.3v-21.8h3.8l6.9,18h0.1l7-18h3.8v21.8h-2.5v-14
			c0-1.6,0.1-3.4,0.2-5.2h-0.1l-7.5,19.3H1996z"/>
		<path class="st3" d="M2022.9,374.7l-0.5-2.3h-0.1c-0.8,1-1.6,1.7-2.4,2.1c-0.8,0.4-1.8,0.5-3,0.5c-1.6,0-2.9-0.4-3.8-1.3
			s-1.4-2-1.4-3.6c0-3.3,2.6-5,7.9-5.2l2.8-0.1v-1c0-1.3-0.3-2.2-0.8-2.8s-1.4-0.9-2.6-0.9c-1.4,0-2.9,0.4-4.6,1.3l-0.8-1.9
			c0.8-0.4,1.7-0.8,2.6-1c1-0.2,1.9-0.4,2.9-0.4c1.9,0,3.4,0.4,4.3,1.3c0.9,0.9,1.4,2.3,1.4,4.2v11.2H2022.9z M2017.4,373
			c1.5,0,2.8-0.4,3.6-1.3s1.3-2,1.3-3.5v-1.5l-2.5,0.1c-2,0.1-3.4,0.4-4.3,0.9c-0.9,0.5-1.3,1.4-1.3,2.5c0,0.9,0.3,1.6,0.8,2
			C2015.6,372.8,2016.4,373,2017.4,373z"/>
		<path class="st3" d="M2039.8,374.7v-10.6c0-1.3-0.3-2.3-0.9-3s-1.6-1-2.8-1c-1.7,0-3,0.5-3.8,1.4c-0.8,0.9-1.2,2.5-1.2,4.6v8.6
			h-2.5v-16.3h2l0.4,2.2h0.1c0.5-0.8,1.2-1.4,2.1-1.9c0.9-0.4,1.9-0.7,3.1-0.7c2,0,3.4,0.5,4.4,1.4c1,0.9,1.5,2.5,1.5,4.6v10.7
			H2039.8z"/>
		<path class="st3" d="M2056.8,374.7l-0.5-2.3h-0.1c-0.8,1-1.6,1.7-2.4,2.1c-0.8,0.4-1.8,0.5-3,0.5c-1.6,0-2.9-0.4-3.8-1.3
			c-0.9-0.8-1.4-2-1.4-3.6c0-3.3,2.6-5,7.9-5.2l2.8-0.1v-1c0-1.3-0.3-2.2-0.8-2.8c-0.6-0.6-1.4-0.9-2.6-0.9c-1.4,0-2.9,0.4-4.6,1.3
			l-0.8-1.9c0.8-0.4,1.7-0.8,2.6-1c1-0.2,1.9-0.4,2.9-0.4c1.9,0,3.4,0.4,4.3,1.3c0.9,0.9,1.4,2.3,1.4,4.2v11.2H2056.8z M2051.3,373
			c1.5,0,2.8-0.4,3.6-1.3c0.9-0.8,1.3-2,1.3-3.5v-1.5l-2.5,0.1c-2,0.1-3.4,0.4-4.3,0.9c-0.9,0.5-1.3,1.4-1.3,2.5
			c0,0.9,0.3,1.6,0.8,2C2049.5,372.8,2050.3,373,2051.3,373z"/>
		<path class="st3" d="M2077.2,358.4v1.6l-3,0.4c0.3,0.3,0.5,0.8,0.7,1.4s0.3,1.2,0.3,1.9c0,1.6-0.5,2.9-1.6,3.8
			c-1.1,1-2.6,1.4-4.5,1.4c-0.5,0-0.9,0-1.4-0.1c-1.1,0.6-1.6,1.3-1.6,2.1c0,0.4,0.2,0.8,0.6,1c0.4,0.2,1,0.3,1.9,0.3h2.9
			c1.8,0,3.1,0.4,4.1,1.1c0.9,0.7,1.4,1.8,1.4,3.3c0,1.8-0.7,3.2-2.2,4.1c-1.5,0.9-3.6,1.4-6.4,1.4c-2.1,0-3.8-0.4-4.9-1.2
			c-1.2-0.8-1.7-1.9-1.7-3.4c0-1,0.3-1.9,1-2.6c0.6-0.7,1.5-1.2,2.7-1.5c-0.4-0.2-0.8-0.5-1.1-0.9c-0.3-0.4-0.4-0.9-0.4-1.4
			c0-0.6,0.2-1.1,0.5-1.6s0.8-0.9,1.5-1.3c-0.8-0.3-1.5-0.9-2.1-1.8s-0.8-1.8-0.8-2.9c0-1.8,0.5-3.2,1.6-4.1c1.1-1,2.6-1.5,4.6-1.5
			c0.9,0,1.6,0.1,2.3,0.3H2077.2z M2064.1,377.5c0,0.9,0.4,1.6,1.1,2c0.7,0.5,1.8,0.7,3.2,0.7c2.1,0,3.6-0.3,4.6-0.9
			c1-0.6,1.5-1.5,1.5-2.5c0-0.9-0.3-1.5-0.8-1.8c-0.5-0.3-1.6-0.5-3.1-0.5h-3c-1.1,0-2,0.3-2.6,0.8
			C2064.4,375.7,2064.1,376.5,2064.1,377.5z M2065.5,363.6c0,1.1,0.3,2,1,2.6c0.6,0.6,1.5,0.9,2.7,0.9c2.4,0,3.6-1.2,3.6-3.5
			c0-2.5-1.2-3.7-3.7-3.7c-1.2,0-2.1,0.3-2.7,0.9C2065.8,361.5,2065.5,362.4,2065.5,363.6z"/>
		<path class="st3" d="M2087.4,375c-2.4,0-4.3-0.7-5.7-2.2c-1.4-1.5-2.1-3.5-2.1-6.1c0-2.6,0.6-4.7,1.9-6.3c1.3-1.6,3-2.3,5.2-2.3
			c2,0,3.7,0.7,4.9,2c1.2,1.3,1.8,3.1,1.8,5.3v1.6h-11.3c0,1.9,0.5,3.4,1.5,4.4c0.9,1,2.2,1.5,3.9,1.5c1.8,0,3.5-0.4,5.2-1.1v2.2
			c-0.9,0.4-1.7,0.6-2.5,0.8C2089.5,375,2088.5,375,2087.4,375z M2086.7,360.2c-1.3,0-2.4,0.4-3.1,1.3c-0.8,0.9-1.2,2-1.4,3.5h8.5
			c0-1.6-0.3-2.8-1-3.6C2089,360.6,2088,360.2,2086.7,360.2z"/>
		<path class="st3" d="M2117.3,374.7v-10.6c0-1.3-0.3-2.3-0.8-2.9c-0.6-0.7-1.4-1-2.6-1c-1.5,0-2.7,0.4-3.4,1.3
			c-0.7,0.9-1.1,2.2-1.1,4.1v9.1h-2.5v-10.6c0-1.3-0.3-2.3-0.8-2.9c-0.6-0.7-1.4-1-2.6-1c-1.6,0-2.7,0.5-3.4,1.4
			c-0.7,0.9-1.1,2.5-1.1,4.6v8.6h-2.5v-16.3h2l0.4,2.2h0.1c0.5-0.8,1.1-1.4,2-1.9c0.9-0.4,1.8-0.7,2.9-0.7c2.6,0,4.2,0.9,5,2.8h0.1
			c0.5-0.9,1.2-1.5,2.1-2c0.9-0.5,2-0.7,3.2-0.7c1.8,0,3.2,0.5,4.2,1.4s1.4,2.5,1.4,4.6v10.7H2117.3z"/>
		<path class="st3" d="M2130.5,375c-2.4,0-4.3-0.7-5.7-2.2c-1.4-1.5-2.1-3.5-2.1-6.1c0-2.6,0.6-4.7,1.9-6.3c1.3-1.6,3-2.3,5.2-2.3
			c2,0,3.7,0.7,4.9,2c1.2,1.3,1.8,3.1,1.8,5.3v1.6h-11.3c0,1.9,0.5,3.4,1.5,4.4c0.9,1,2.2,1.5,3.9,1.5c1.8,0,3.5-0.4,5.2-1.1v2.2
			c-0.9,0.4-1.7,0.6-2.5,0.8C2132.6,375,2131.6,375,2130.5,375z M2129.8,360.2c-1.3,0-2.4,0.4-3.1,1.3c-0.8,0.9-1.2,2-1.4,3.5h8.5
			c0-1.6-0.3-2.8-1-3.6C2132.1,360.6,2131.1,360.2,2129.8,360.2z"/>
		<path class="st3" d="M2151.3,374.7v-10.6c0-1.3-0.3-2.3-0.9-3c-0.6-0.7-1.6-1-2.8-1c-1.7,0-3,0.5-3.8,1.4
			c-0.8,0.9-1.2,2.5-1.2,4.6v8.6h-2.5v-16.3h2l0.4,2.2h0.1c0.5-0.8,1.2-1.4,2.1-1.9c0.9-0.4,1.9-0.7,3.1-0.7c2,0,3.4,0.5,4.4,1.4
			s1.5,2.5,1.5,4.6v10.7H2151.3z"/>
		<path class="st3" d="M2163.5,373c0.4,0,0.9,0,1.3-0.1c0.4-0.1,0.7-0.1,1-0.2v1.9c-0.3,0.1-0.7,0.2-1.2,0.3c-0.5,0.1-1,0.1-1.4,0.1
			c-3.2,0-4.7-1.7-4.7-5v-9.7h-2.3v-1.2l2.3-1l1-3.5h1.4v3.8h4.7v1.9h-4.7v9.6c0,1,0.2,1.7,0.7,2.3
			C2162.1,372.7,2162.7,373,2163.5,373z"/>
		<path class="st3" d="M2176,369.1c0-1.3,0.3-2.4,1-3.4c0.7-1,1.9-2,3.7-3c-0.8-0.9-1.4-1.7-1.7-2.1c-0.3-0.5-0.5-1-0.7-1.5
			c-0.2-0.5-0.3-1.1-0.3-1.6c0-1.5,0.5-2.7,1.5-3.5c1-0.8,2.3-1.3,4.1-1.3c1.6,0,2.9,0.4,3.8,1.2s1.4,2,1.4,3.5c0,1.1-0.3,2-1,2.9
			c-0.7,0.9-1.8,1.8-3.4,2.7l6.1,5.8c0.6-0.6,1-1.3,1.3-2.2c0.3-0.8,0.6-1.7,0.8-2.7h2.5c-0.7,2.8-1.7,5-3.1,6.5l4.5,4.3h-3.4
			l-2.8-2.7c-1.2,1.1-2.4,1.8-3.6,2.3c-1.2,0.5-2.6,0.7-4.1,0.7c-2.1,0-3.8-0.5-5-1.6C2176.6,372.4,2176,370.9,2176,369.1z
			 M2182.8,372.8c2.4,0,4.4-0.8,6-2.3l-6.5-6.3c-1.1,0.7-1.9,1.2-2.3,1.7c-0.5,0.4-0.8,0.9-1,1.4c-0.2,0.5-0.3,1.1-0.3,1.7
			c0,1.2,0.4,2.1,1.2,2.8C2180.5,372.5,2181.6,372.8,2182.8,372.8z M2180.5,357.3c0,0.7,0.2,1.3,0.5,2s1,1.4,1.8,2.2
			c1.3-0.7,2.2-1.4,2.7-2.1c0.5-0.6,0.8-1.4,0.8-2.2c0-0.8-0.3-1.4-0.8-1.9c-0.5-0.5-1.2-0.7-2.1-0.7c-0.9,0-1.6,0.2-2.2,0.7
			C2180.8,355.8,2180.5,356.5,2180.5,357.3z"/>
		<path class="st3" d="M2216.9,354.9c-2.4,0-4.3,0.8-5.7,2.4c-1.4,1.6-2.1,3.8-2.1,6.6c0,2.9,0.7,5.1,2,6.6c1.3,1.6,3.2,2.3,5.7,2.3
			c1.5,0,3.3-0.3,5.2-0.8v2.2c-1.5,0.6-3.4,0.9-5.6,0.9c-3.2,0-5.7-1-7.4-2.9c-1.7-1.9-2.6-4.7-2.6-8.3c0-2.2,0.4-4.2,1.3-5.9
			c0.8-1.7,2.1-3,3.6-3.9c1.6-0.9,3.5-1.4,5.6-1.4c2.3,0,4.3,0.4,6,1.3l-1.1,2.2C2220.2,355.3,2218.6,354.9,2216.9,354.9z"/>
		<path class="st3" d="M2239.4,366.6c0,2.7-0.7,4.7-2,6.2s-3.2,2.2-5.6,2.2c-1.5,0-2.8-0.3-3.9-1c-1.1-0.7-2-1.7-2.6-3
			s-0.9-2.8-0.9-4.5c0-2.7,0.7-4.7,2-6.2c1.3-1.5,3.2-2.2,5.5-2.2c2.3,0,4.1,0.8,5.4,2.3C2238.7,361.9,2239.4,364,2239.4,366.6z
			 M2226.9,366.6c0,2.1,0.4,3.7,1.3,4.8c0.8,1.1,2.1,1.6,3.7,1.6c1.6,0,2.9-0.5,3.7-1.6c0.8-1.1,1.3-2.7,1.3-4.8
			c0-2.1-0.4-3.7-1.3-4.7c-0.8-1.1-2.1-1.6-3.7-1.6c-1.6,0-2.8,0.5-3.7,1.6C2227.3,362.9,2226.9,364.4,2226.9,366.6z"/>
		<path class="st3" d="M2253.7,374.7v-10.6c0-1.3-0.3-2.3-0.9-3c-0.6-0.7-1.6-1-2.8-1c-1.7,0-3,0.5-3.8,1.4
			c-0.8,0.9-1.2,2.5-1.2,4.6v8.6h-2.5v-16.3h2l0.4,2.2h0.1c0.5-0.8,1.2-1.4,2.1-1.9c0.9-0.4,1.9-0.7,3.1-0.7c2,0,3.4,0.5,4.4,1.4
			s1.5,2.5,1.5,4.6v10.7H2253.7z"/>
		<path class="st3" d="M2271.1,370.3c0,1.5-0.6,2.7-1.7,3.5c-1.1,0.8-2.7,1.2-4.8,1.2c-2.2,0-3.9-0.3-5.1-1v-2.3
			c0.8,0.4,1.6,0.7,2.5,0.9c0.9,0.2,1.8,0.3,2.6,0.3c1.3,0,2.3-0.2,3-0.6c0.7-0.4,1-1,1-1.9c0-0.6-0.3-1.2-0.8-1.6
			c-0.6-0.5-1.6-1-3.2-1.6c-1.5-0.6-2.6-1.1-3.2-1.5c-0.6-0.4-1.1-0.9-1.4-1.4c-0.3-0.5-0.5-1.2-0.5-1.9c0-1.3,0.5-2.4,1.6-3.2
			c1.1-0.8,2.6-1.2,4.5-1.2c1.8,0,3.5,0.4,5.2,1.1l-0.9,2c-1.6-0.7-3.1-1-4.5-1c-1.2,0-2.1,0.2-2.7,0.6c-0.6,0.4-0.9,0.9-0.9,1.5
			c0,0.4,0.1,0.8,0.3,1.1c0.2,0.3,0.6,0.6,1.1,0.9c0.5,0.3,1.5,0.7,2.9,1.2c1.9,0.7,3.2,1.4,3.9,2.1
			C2270.8,368.3,2271.1,369.2,2271.1,370.3z"/>
		<path class="st3" d="M2276.9,358.4V369c0,1.3,0.3,2.3,0.9,3c0.6,0.7,1.6,1,2.8,1c1.7,0,3-0.5,3.8-1.4s1.2-2.5,1.2-4.6v-8.6h2.5
			v16.3h-2l-0.4-2.2h-0.1c-0.5,0.8-1.2,1.4-2.1,1.8c-0.9,0.4-1.9,0.6-3.1,0.6c-2,0-3.5-0.5-4.5-1.4c-1-0.9-1.5-2.5-1.5-4.5v-10.7
			H2276.9z"/>
		<path class="st3" d="M2295.2,374.7h-2.5v-23.2h2.5V374.7z"/>
		<path class="st3" d="M2305.7,373c0.4,0,0.9,0,1.3-0.1c0.4-0.1,0.7-0.1,1-0.2v1.9c-0.3,0.1-0.7,0.2-1.2,0.3c-0.5,0.1-1,0.1-1.4,0.1
			c-3.2,0-4.7-1.7-4.7-5v-9.7h-2.3v-1.2l2.3-1l1-3.5h1.4v3.8h4.7v1.9h-4.7v9.6c0,1,0.2,1.7,0.7,2.3
			C2304.2,372.7,2304.9,373,2305.7,373z"/>
		<path class="st3" d="M2311,354c0-0.6,0.1-1,0.4-1.2c0.3-0.3,0.6-0.4,1-0.4c0.4,0,0.7,0.1,1,0.4c0.3,0.3,0.4,0.7,0.4,1.2
			c0,0.6-0.1,1-0.4,1.2c-0.3,0.3-0.6,0.4-1,0.4c-0.4,0-0.8-0.1-1-0.4C2311.1,354.9,2311,354.5,2311,354z M2313.7,374.7h-2.5v-16.3
			h2.5V374.7z"/>
		<path class="st3" d="M2330.1,374.7v-10.6c0-1.3-0.3-2.3-0.9-3c-0.6-0.7-1.6-1-2.8-1c-1.7,0-3,0.5-3.8,1.4
			c-0.8,0.9-1.2,2.5-1.2,4.6v8.6h-2.5v-16.3h2l0.4,2.2h0.1c0.5-0.8,1.2-1.4,2.1-1.9c0.9-0.4,1.9-0.7,3.1-0.7c2,0,3.4,0.5,4.4,1.4
			c1,0.9,1.5,2.5,1.5,4.6v10.7H2330.1z"/>
		<path class="st3" d="M2351,358.4v1.6l-3,0.4c0.3,0.3,0.5,0.8,0.7,1.4s0.3,1.2,0.3,1.9c0,1.6-0.5,2.9-1.6,3.8
			c-1.1,1-2.6,1.4-4.5,1.4c-0.5,0-0.9,0-1.4-0.1c-1.1,0.6-1.6,1.3-1.6,2.1c0,0.4,0.2,0.8,0.6,1c0.4,0.2,1,0.3,1.9,0.3h2.9
			c1.8,0,3.1,0.4,4.1,1.1c0.9,0.7,1.4,1.8,1.4,3.3c0,1.8-0.7,3.2-2.2,4.1s-3.6,1.4-6.4,1.4c-2.1,0-3.8-0.4-4.9-1.2
			c-1.2-0.8-1.7-1.9-1.7-3.4c0-1,0.3-1.9,1-2.6c0.6-0.7,1.5-1.2,2.7-1.5c-0.4-0.2-0.8-0.5-1.1-0.9c-0.3-0.4-0.4-0.9-0.4-1.4
			c0-0.6,0.2-1.1,0.5-1.6c0.3-0.4,0.8-0.9,1.5-1.3c-0.8-0.3-1.5-0.9-2.1-1.8c-0.5-0.8-0.8-1.8-0.8-2.9c0-1.8,0.5-3.2,1.6-4.1
			c1.1-1,2.6-1.5,4.6-1.5c0.9,0,1.6,0.1,2.3,0.3H2351z M2338,377.5c0,0.9,0.4,1.6,1.1,2c0.7,0.5,1.8,0.7,3.2,0.7
			c2.1,0,3.6-0.3,4.6-0.9c1-0.6,1.5-1.5,1.5-2.5c0-0.9-0.3-1.5-0.8-1.8c-0.5-0.3-1.6-0.5-3.1-0.5h-3c-1.1,0-2,0.3-2.6,0.8
			C2338.3,375.7,2338,376.5,2338,377.5z M2339.4,363.6c0,1.1,0.3,2,1,2.6c0.6,0.6,1.5,0.9,2.7,0.9c2.4,0,3.6-1.2,3.6-3.5
			c0-2.5-1.2-3.7-3.7-3.7c-1.2,0-2.1,0.3-2.7,0.9S2339.4,362.4,2339.4,363.6z"/>
	</g>
</g>
</svg>
