<svg id="Layer_1" data-name="Layer 1" xmlns="http://www.w3.org/2000/svg" width="2500" height="1406" viewBox="0 0 2500 1406"><title>amces-finals</title><rect width="2500" height="1406" fill="#fff"/><path d="M596.3,218.7a.9.9,0,0,0-1.2-.6L209,360.1a1.3,1.3,0,0,0-.7.8,1.2,1.2,0,0,0,.4,1L412,520.3c.1.2.4.2.6.2a.9.9,0,0,0,.7-.3,1,1,0,0,0,0-1.4L287.9,375.3,595.9,220A.9.9,0,0,0,596.3,218.7Z" fill="#231f20"/><path d="M590.7,232.9a1.1,1.1,0,0,0-1.2-.2l-99.8,55.1a1,1,0,0,0-.5,1.1.9.9,0,0,0,.9.8l17.4,1.2L420.2,505.6a1,1,0,0,0,.5,1.3h.5a.9.9,0,0,0,.8-.5L590.8,234.1A.9.9,0,0,0,590.7,232.9Z" fill="#231f20"/><path d="M625.6,471.2v1.4l-4.6.3a7.9,7.9,0,0,1,1.8,5,6.6,6.6,0,0,1-2.1,5.1,7.8,7.8,0,0,1-5.6,2l-2.1-.2a5.5,5.5,0,0,0-1.8,1.5,3.2,3.2,0,0,0-.6,1.8,1.6,1.6,0,0,0,.7,1.5,5,5,0,0,0,2.7.5h3.8a8.8,8.8,0,0,1,5.5,1.5,4.7,4.7,0,0,1,1.9,4.2,6.1,6.1,0,0,1-2.8,5.4,15,15,0,0,1-8,1.9,11.4,11.4,0,0,1-6.4-1.6,5.6,5.6,0,0,1-.9-8.2,7.4,7.4,0,0,1,3.8-2.1,3.1,3.1,0,0,1-1.6-1.2,2.7,2.7,0,0,1-.6-1.7c0-1.5,1-2.8,2.8-3.9a6.4,6.4,0,0,1-2.9-2.5,6.3,6.3,0,0,1-1.1-3.8,6.9,6.9,0,0,1,2.1-5.3,7.8,7.8,0,0,1,5.6-2,10.5,10.5,0,0,1,3.4.4Zm-17.8,25.7c0,3,2.3,4.5,6.7,4.5s8.7-1.9,8.7-5.5a3.2,3.2,0,0,0-1.4-2.9,8,8,0,0,0-4.4-.9h-3.5C609.8,492.1,607.8,493.7,607.8,496.9Zm1.7-18.8A5,5,0,0,0,611,482a6.3,6.3,0,0,0,4.2,1.4,6.1,6.1,0,0,0,4.2-1.4,5.6,5.6,0,0,0,1.4-4,5.4,5.4,0,0,0-1.5-4.2,5.7,5.7,0,0,0-9.8,4.3Z" fill="#231f20"/><path d="M638.7,470.8l3,.3-.4,1.9a13.3,13.3,0,0,0-2.8-.3,5.6,5.6,0,0,0-4.6,2.3,9.7,9.7,0,0,0-1.8,6v12.1h-2V471.2h1.7l.2,4h.1a9.2,9.2,0,0,1,2.9-3.4A6.2,6.2,0,0,1,638.7,470.8Z" fill="#231f20"/><path d="M664.3,482.2a12.5,12.5,0,0,1-2.6,8.3,9.2,9.2,0,0,1-7.2,3,9.7,9.7,0,0,1-5.1-1.3,9.5,9.5,0,0,1-3.4-4,16.4,16.4,0,0,1-1.1-6c0-3.6.8-6.4,2.6-8.4a9.9,9.9,0,0,1,14.2,0A12.8,12.8,0,0,1,664.3,482.2Zm-17.3,0c0,3,.6,5.3,1.9,7a7.6,7.6,0,0,0,11.3,0,11.2,11.2,0,0,0,2-7,11.3,11.3,0,0,0-2-7.1,7.3,7.3,0,0,0-5.7-2.5,6.9,6.9,0,0,0-5.6,2.5C647.6,476.8,647,479.1,647,482.2Z" fill="#231f20"/><path d="M687.8,493.1,683,478.5c-.3-1-.7-2.5-1.1-4.4h-.2l-.4,1.5-.9,2.9-4.9,14.6h-2l-6.2-21.9h2.1l3.5,12.7c.8,3.2,1.4,5.5,1.6,7h.2c.8-3.2,1.3-5.3,1.7-6.3l4.5-13.4h1.8l4.3,13.4c1,3.1,1.6,5.2,1.8,6.2h.1c.1-.8.7-3.2,1.6-7l3.4-12.6h2l-6,21.9Z" fill="#231f20"/><path d="M806.5,465.1c0-1.2.4-1.9,1.2-1.9a1.2,1.2,0,0,1,1,.5,2.6,2.6,0,0,1,.3,1.4,3.3,3.3,0,0,1-.3,1.5,1.2,1.2,0,0,1-1,.5C806.9,467.1,806.5,466.4,806.5,465.1Zm2.2,28h-2V471.2h2Z" fill="#231f20"/><path d="M831.3,493.1V478.9c0-2.2-.4-3.8-1.3-4.8a5.9,5.9,0,0,0-4.4-1.5c-2.6,0-4.5.7-5.7,2s-1.8,3.5-1.8,6.4v12.1h-2V471.2h1.7l.3,3h.2c1.4-2.3,3.9-3.4,7.6-3.4s7.4,2.7,7.4,8v14.3Z" fill="#231f20"/><path d="M854,487.4a5.3,5.3,0,0,1-2.2,4.6,11.4,11.4,0,0,1-6.4,1.5,15.6,15.6,0,0,1-7-1.3V490a15.7,15.7,0,0,0,7,1.7,9.1,9.1,0,0,0,4.9-1.1,3.2,3.2,0,0,0,1.7-2.9,3.2,3.2,0,0,0-1.3-2.7,15.9,15.9,0,0,0-4.4-2.3,24.2,24.2,0,0,1-4.6-2,6.1,6.1,0,0,1-2-1.9,4.7,4.7,0,0,1-.7-2.7,4.6,4.6,0,0,1,2.1-3.9,10.2,10.2,0,0,1,5.7-1.4,17.5,17.5,0,0,1,6.8,1.3l-.8,1.9a15.3,15.3,0,0,0-6-1.4,8.2,8.2,0,0,0-4.2.9A2.7,2.7,0,0,0,841,476a3.4,3.4,0,0,0,1.2,2.7A15.1,15.1,0,0,0,847,481a27.4,27.4,0,0,1,4.3,1.9,6.3,6.3,0,0,1,2,2A4.3,4.3,0,0,1,854,487.4Z" fill="#231f20"/><path d="M869,493.5c-3.4,0-5.8-1.2-7.4-3.7h-.1v13.3h-2V471.2h1.7l.4,3.2h.1a9.2,9.2,0,0,1,14-.7c1.6,2,2.4,4.8,2.4,8.5a13.1,13.1,0,0,1-2.5,8.4A8.1,8.1,0,0,1,869,493.5Zm0-1.7a6.3,6.3,0,0,0,5.2-2.5,11.9,11.9,0,0,0,1.8-7c0-6.5-2.3-9.7-6.9-9.7q-3.9,0-5.7,2.1t-1.8,6.9v.6c0,3.5.6,5.9,1.8,7.4S866.4,491.8,869,491.8Z" fill="#231f20"/><path d="M883.9,465.1c0-1.2.5-1.9,1.3-1.9a1.2,1.2,0,0,1,1,.5,2.6,2.6,0,0,1,.3,1.4,3.3,3.3,0,0,1-.3,1.5,1.2,1.2,0,0,1-1,.5C884.4,467.1,883.9,466.4,883.9,465.1Zm2.3,28h-2V471.2h2Z" fill="#231f20"/><path d="M902.2,470.8l3,.3-.4,1.9a13.6,13.6,0,0,0-2.9-.3,5.8,5.8,0,0,0-4.6,2.3,10.4,10.4,0,0,0-1.7,6v12.1h-2V471.2h1.7l.2,4h.1a9.2,9.2,0,0,1,2.9-3.4A6.2,6.2,0,0,1,902.2,470.8Z" fill="#231f20"/><path d="M918.5,493.5c-3.2,0-5.7-.9-7.5-2.9s-2.6-4.7-2.6-8.2.8-6.3,2.5-8.4a8.8,8.8,0,0,1,7-3.2,7.5,7.5,0,0,1,6.1,2.7,11.2,11.2,0,0,1,2.2,7.3v1.7H910.5q0,4.5,2.1,6.9a7.5,7.5,0,0,0,5.9,2.3l3.3-.2a24.9,24.9,0,0,0,3.6-1.2v1.9a19.8,19.8,0,0,1-3.5,1.1Zm-.6-20.9a6.6,6.6,0,0,0-5.1,2.1,9.6,9.6,0,0,0-2.2,6h13.5a9.7,9.7,0,0,0-1.6-6A5.6,5.6,0,0,0,917.9,472.6Z" fill="#231f20"/><path d="M1062.8,487.4a5.6,5.6,0,0,1-2.2,4.6,11.7,11.7,0,0,1-6.4,1.5,15.6,15.6,0,0,1-7-1.3V490a15.7,15.7,0,0,0,7,1.7,9.1,9.1,0,0,0,4.9-1.1,3.2,3.2,0,0,0,1.7-2.9,3.2,3.2,0,0,0-1.3-2.7,15.9,15.9,0,0,0-4.4-2.3,21.5,21.5,0,0,1-4.6-2,7.8,7.8,0,0,1-2.1-1.9,5.7,5.7,0,0,1-.6-2.7,4.7,4.7,0,0,1,2-3.9,10.6,10.6,0,0,1,5.8-1.4,16.7,16.7,0,0,1,6.7,1.3l-.7,1.9a15.3,15.3,0,0,0-6-1.4,8.2,8.2,0,0,0-4.2.9,2.7,2.7,0,0,0-1.6,2.5,3.4,3.4,0,0,0,1.2,2.7,15.1,15.1,0,0,0,4.8,2.3,27.4,27.4,0,0,1,4.3,1.9,6.3,6.3,0,0,1,2,2A4.3,4.3,0,0,1,1062.8,487.4Z" fill="#231f20"/><path d="M1070.2,471.2v14.2c0,2.2.4,3.8,1.4,4.8a5.5,5.5,0,0,0,4.3,1.5c2.6,0,4.5-.6,5.7-1.9s1.9-3.5,1.9-6.5V471.2h2v21.9h-1.7l-.4-3h-.1c-1.5,2.3-4,3.4-7.6,3.4s-7.5-2.6-7.5-8V471.2Z" fill="#231f20"/><path d="M1101.5,493.5a9.2,9.2,0,0,1-7.3-2.9c-1.8-2-2.7-4.7-2.7-8.3s.9-6.4,2.8-8.5a9.6,9.6,0,0,1,7.5-3,14.5,14.5,0,0,1,5.5,1l-.6,1.8a14.2,14.2,0,0,0-4.9-1,7.7,7.7,0,0,0-6.1,2.5q-2.1,2.5-2.1,7.2a10.5,10.5,0,0,0,2.1,6.9,7,7,0,0,0,5.8,2.5,14.2,14.2,0,0,0,5.5-1v1.8A12.3,12.3,0,0,1,1101.5,493.5Z" fill="#231f20"/><path d="M1121.2,493.5c-3.2,0-5.6-.9-7.4-2.9s-2.7-4.7-2.7-8.3a12.6,12.6,0,0,1,2.8-8.5,9.8,9.8,0,0,1,7.6-3,14,14,0,0,1,5.4,1l-.5,1.8a14.7,14.7,0,0,0-5-1,7.7,7.7,0,0,0-6.1,2.5q-2.1,2.5-2.1,7.2a10.5,10.5,0,0,0,2.1,6.9,7,7,0,0,0,5.8,2.5,14.7,14.7,0,0,0,5.6-1v1.8A12.6,12.6,0,0,1,1121.2,493.5Z" fill="#231f20"/><path d="M1140.9,493.5c-3.2,0-5.7-.9-7.5-2.9s-2.7-4.7-2.7-8.2a13,13,0,0,1,2.6-8.4,8.6,8.6,0,0,1,7-3.2,7.5,7.5,0,0,1,6.1,2.7,11.2,11.2,0,0,1,2.2,7.3v1.7h-15.8c.1,3,.8,5.3,2.2,6.9a7.5,7.5,0,0,0,5.9,2.3l3.3-.2,3.6-1.2v1.9a19.8,19.8,0,0,1-3.5,1.1Zm-.6-20.9a6.6,6.6,0,0,0-5.1,2.1,9.6,9.6,0,0,0-2.2,6h13.5a9.7,9.7,0,0,0-1.6-6A5.6,5.6,0,0,0,1140.3,472.6Z" fill="#231f20"/><path d="M1163.5,493.5c-3.2,0-5.6-.9-7.4-2.9s-2.7-4.7-2.7-8.2a13,13,0,0,1,2.6-8.4,8.5,8.5,0,0,1,6.9-3.2,7.7,7.7,0,0,1,6.2,2.7,11.7,11.7,0,0,1,2.2,7.3v1.7h-15.8q0,4.5,2.1,6.9a7.8,7.8,0,0,0,5.9,2.3l3.3-.2a18.8,18.8,0,0,0,3.6-1.2v1.9a19,19,0,0,1-3.4,1.1Zm-.6-20.9a6.3,6.3,0,0,0-5,2.1,9.7,9.7,0,0,0-2.3,6h13.6a9.7,9.7,0,0,0-1.7-6A5.5,5.5,0,0,0,1162.9,472.6Z" fill="#231f20"/><path d="M1185.4,470.8a9.1,9.1,0,0,1,4.1.9,8.4,8.4,0,0,1,3.1,2.9h.1c-.1-1.7-.1-3.3-.1-4.9v-7.9h2v31.3h-1.4l-.5-3.3h-.1a8.2,8.2,0,0,1-7.2,3.7c-3,0-5.3-.9-6.9-2.8s-2.4-4.6-2.4-8.2.8-6.7,2.3-8.7S1182.3,470.8,1185.4,470.8Zm0,1.8a6.4,6.4,0,0,0-5.4,2.5c-1.2,1.7-1.8,4.2-1.8,7.4q0,9.3,7.2,9.3c2.5,0,4.3-.7,5.4-2.2s1.8-3.8,1.8-7.1v-.3c0-3.4-.6-5.9-1.7-7.4A6.9,6.9,0,0,0,1185.4,472.6Z" fill="#231f20"/><path d="M684.8,419.9l-6.3-16.1h-.8c-5.4,6.8-11,11.6-16.8,14.2s-13.2,4-22.4,4c-11.4,0-20.3-3.2-26.8-9.7s-9.8-15.7-9.8-27.7,4.4-21.8,13.1-27.8,22.1-9.2,39.7-9.9l20.6-.6v-5.2c0-12-6.2-18-18.4-18-9.5,0-20.6,2.9-33.3,8.6l-10.7-21.8a96.3,96.3,0,0,1,45.2-10.7c15.9,0,28.1,3.5,36.5,10.4s12.7,17.4,12.7,31.5v78.8Zm-9.5-54.8-12.5.4q-14.1.5-21,5.1c-4.5,3.1-6.8,7.8-6.8,14.2,0,9.1,5.2,13.6,15.6,13.6,7.5,0,13.5-2.1,17.9-6.4s6.8-10,6.8-17.2Z" fill="#231f20"/><path d="M829,419.9H796.8V350.8c0-8.5-1.5-14.9-4.3-19.2s-7.4-6.4-13.5-6.4c-8.2,0-14.2,3.1-18,9.1s-5.6,16.1-5.6,30v55.6H723.2V301.7h24.6l4.3,15.1h1.8A33.6,33.6,0,0,1,767.7,304a45.6,45.6,0,0,1,20.6-4.6q26.6,0,36,17.4h2.8a32.3,32.3,0,0,1,14-12.8,47.5,47.5,0,0,1,20.9-4.6c13.4,0,23.5,3.5,30.4,10.4s10.3,17.8,10.3,33v77.1H870.4V350.8c0-8.5-1.5-14.9-4.3-19.2s-7.4-6.4-13.5-6.4c-7.9,0-13.8,2.9-17.7,8.5s-5.9,14.6-5.9,26.9Z" fill="#231f20"/><path d="M971,422c-16.4,0-29.2-5.2-38.6-15.5s-13.9-24.9-13.9-43.4,4.8-33.9,14.5-44.5,22.9-15.9,39.6-15.9a78.8,78.8,0,0,1,28.6,5.2l-2.9,9.3c-9.9-3.3-18.6-5-25.9-5-14.1,0-24.8,4.4-32,13.1s-10.9,21.2-10.9,37.6,3.6,27.6,10.9,36.4,17.4,13.2,30.4,13.2a75.1,75.1,0,0,0,29.1-5.6v9.7C992.6,420.2,983,422,971,422Z" fill="#231f20"/><path d="M1061.5,422c-16.7,0-29.8-5.1-39.1-15.4s-14-24.7-14-43.3,4.5-33,13.5-44,21.2-16.6,36.5-16.6c13.5,0,24.2,4.7,32,14.2s11.8,22.3,11.8,38.5v8.4h-82.8c.1,15.8,3.8,27.9,11,36.2s17.6,12.5,31.1,12.5a96.4,96.4,0,0,0,17.2-1.4,105,105,0,0,0,18.9-5.9v9.5a90.8,90.8,0,0,1-18,5.8A100.3,100.3,0,0,1,1061.5,422Zm-3.1-110c-11.1,0-20,3.7-26.7,11s-10.6,17.8-11.7,31.5h71.1q0-20-8.7-31.2C1076.6,315.8,1068.6,312,1058.4,312Z" fill="#231f20"/><path d="M1196.5,390q0,15.5-11.7,23.7c-7.9,5.5-19,8.3-33.3,8.3s-27.6-2.4-36.6-7.1V403.6a80.2,80.2,0,0,0,36.6,8.7q16.9,0,25.8-5.7c5.9-3.8,8.8-8.8,8.8-15.1a18.2,18.2,0,0,0-7-14.5q-7-6-23.1-11.7c-11.5-4.1-19.6-7.7-24.2-10.7a32.1,32.1,0,0,1-10.5-10.2q-3.6-5.5-3.6-13.8c0-8.6,3.6-15.4,10.9-20.4s17.3-7.5,30.3-7.5a90,90,0,0,1,35.3,7l-3.9,9.5c-11.3-4.6-21.8-7-31.4-7s-16.9,1.6-22.4,4.7-8.2,7.4-8.2,12.9,2.1,10.8,6.4,14.4,12.6,7.6,25,12c10.4,3.8,17.9,7.1,22.6,10.1a32.9,32.9,0,0,1,10.7,10.2A25.6,25.6,0,0,1,1196.5,390Z" fill="#231f20"/><path d="M1752.8,218.7a.9.9,0,0,0-1.2-.6l-386.1,142a1.3,1.3,0,0,0-.7.8,1.2,1.2,0,0,0,.4,1l203.3,158.4c.1.2.4.2.6.2a.9.9,0,0,0,.7-.3,1,1,0,0,0,0-1.4L1444.4,375.3l308-155.3C1752.8,219.7,1753.1,219.1,1752.8,218.7Z" fill="#00538b"/><path d="M1747.2,232.9a1.1,1.1,0,0,0-1.2-.2l-99.8,55.1a1,1,0,0,0-.5,1.1.9.9,0,0,0,.9.8l17.4,1.2-87.3,214.7a1,1,0,0,0,.5,1.3h.5a.9.9,0,0,0,.8-.5l168.8-272.4A.9.9,0,0,0,1747.2,232.9Z" fill="#76777a"/><path d="M1782.1,471.2v1.4l-4.6.3a7.9,7.9,0,0,1,1.8,5,6.6,6.6,0,0,1-2.1,5.1,7.8,7.8,0,0,1-5.6,2l-2.1-.2a5.5,5.5,0,0,0-1.8,1.5,3.2,3.2,0,0,0-.6,1.8,1.6,1.6,0,0,0,.7,1.5,5,5,0,0,0,2.7.5h3.8a8.8,8.8,0,0,1,5.5,1.5,4.7,4.7,0,0,1,1.9,4.2,6.1,6.1,0,0,1-2.8,5.4,15,15,0,0,1-8,1.9,11.4,11.4,0,0,1-6.4-1.6,5.6,5.6,0,0,1-.9-8.2,7.4,7.4,0,0,1,3.8-2.1,3.1,3.1,0,0,1-1.6-1.2,2.7,2.7,0,0,1-.6-1.7c0-1.5,1-2.8,2.8-3.9a6.4,6.4,0,0,1-2.9-2.5,6.3,6.3,0,0,1-1.1-3.8,6.9,6.9,0,0,1,2.1-5.3,7.8,7.8,0,0,1,5.6-2,10.5,10.5,0,0,1,3.4.4Zm-17.8,25.7c0,3,2.3,4.5,6.7,4.5s8.7-1.9,8.7-5.5a3.2,3.2,0,0,0-1.4-2.9,8,8,0,0,0-4.4-.9h-3.5C1766.3,492.1,1764.3,493.7,1764.3,496.9Zm1.7-18.8a5,5,0,0,0,1.5,3.9,6.3,6.3,0,0,0,4.2,1.4,6.1,6.1,0,0,0,4.2-1.4,5.6,5.6,0,0,0,1.4-4,5.4,5.4,0,0,0-1.5-4.2,5.7,5.7,0,0,0-9.8,4.3Z" fill="#76777a"/><path d="M1795.2,470.8l3,.3-.4,1.9a13.3,13.3,0,0,0-2.8-.3,5.6,5.6,0,0,0-4.6,2.3,9.7,9.7,0,0,0-1.8,6v12.1h-2V471.2h1.7l.2,4h.1a9.2,9.2,0,0,1,2.9-3.4A6.2,6.2,0,0,1,1795.2,470.8Z" fill="#76777a"/><path d="M1820.8,482.2a12.5,12.5,0,0,1-2.6,8.3,9.2,9.2,0,0,1-7.2,3,9.7,9.7,0,0,1-5.1-1.3,9.5,9.5,0,0,1-3.4-4,16.4,16.4,0,0,1-1.1-6c0-3.6.8-6.4,2.6-8.4a9.9,9.9,0,0,1,14.2,0A12.8,12.8,0,0,1,1820.8,482.2Zm-17.3,0c0,3,.6,5.3,1.9,7a7.6,7.6,0,0,0,11.3,0,11.2,11.2,0,0,0,2-7,11.3,11.3,0,0,0-2-7.1,7.3,7.3,0,0,0-5.7-2.5,6.9,6.9,0,0,0-5.6,2.5C1804.1,476.8,1803.5,479.1,1803.5,482.2Z" fill="#76777a"/><path d="M1844.3,493.1l-4.8-14.6c-.3-1-.7-2.5-1.1-4.4h-.2l-.4,1.5-.9,2.9-4.9,14.6h-2l-6.2-21.9h2.1l3.5,12.7c.8,3.2,1.4,5.5,1.6,7h.2a46.9,46.9,0,0,1,1.7-6.3l4.5-13.4h1.8l4.3,13.4c1,3.1,1.6,5.2,1.8,6.2h.1c.1-.8.7-3.2,1.6-7l3.4-12.6h2l-6,21.9Z" fill="#76777a"/><path d="M1963,465.1c0-1.2.4-1.9,1.2-1.9a1.2,1.2,0,0,1,1,.5,2.6,2.6,0,0,1,.3,1.4,3.3,3.3,0,0,1-.3,1.5,1.2,1.2,0,0,1-1,.5C1963.4,467.1,1963,466.4,1963,465.1Zm2.2,28h-2V471.2h2Z" fill="#76777a"/><path d="M1987.8,493.1V478.9c0-2.2-.4-3.8-1.3-4.8a5.9,5.9,0,0,0-4.4-1.5c-2.6,0-4.5.7-5.7,2s-1.8,3.5-1.8,6.4v12.1h-2V471.2h1.7l.3,3h.2c1.4-2.3,3.9-3.4,7.6-3.4s7.4,2.7,7.4,8v14.3Z" fill="#76777a"/><path d="M2010.5,487.4a5.3,5.3,0,0,1-2.2,4.6,11.4,11.4,0,0,1-6.4,1.5,15.6,15.6,0,0,1-7-1.3V490a15.7,15.7,0,0,0,7,1.7,9.1,9.1,0,0,0,4.9-1.1,3.2,3.2,0,0,0,1.7-2.9,3.2,3.2,0,0,0-1.3-2.7,15.9,15.9,0,0,0-4.4-2.3,24.2,24.2,0,0,1-4.6-2,6.1,6.1,0,0,1-2-1.9,4.7,4.7,0,0,1-.7-2.7,4.6,4.6,0,0,1,2.1-3.9,10.2,10.2,0,0,1,5.7-1.4,17.5,17.5,0,0,1,6.8,1.3l-.8,1.9a15.3,15.3,0,0,0-6-1.4,8.2,8.2,0,0,0-4.2.9,2.7,2.7,0,0,0-1.6,2.5,3.4,3.4,0,0,0,1.2,2.7,15.1,15.1,0,0,0,4.8,2.3,27.4,27.4,0,0,1,4.3,1.9,6.3,6.3,0,0,1,2,2A4.3,4.3,0,0,1,2010.5,487.4Z" fill="#76777a"/><path d="M2025.5,493.5c-3.4,0-5.8-1.2-7.4-3.7h-.1v13.3h-2V471.2h1.7l.4,3.2h.1a9.2,9.2,0,0,1,14-.7c1.6,2,2.4,4.8,2.4,8.5a13.1,13.1,0,0,1-2.5,8.4A8.1,8.1,0,0,1,2025.5,493.5Zm0-1.7a6.3,6.3,0,0,0,5.2-2.5,11.9,11.9,0,0,0,1.8-7c0-6.5-2.3-9.7-6.9-9.7q-3.9,0-5.7,2.1t-1.8,6.9v.6c0,3.5.6,5.9,1.8,7.4S2022.9,491.8,2025.5,491.8Z" fill="#76777a"/><path d="M2040.4,465.1c0-1.2.5-1.9,1.3-1.9a1.2,1.2,0,0,1,1,.5,2.6,2.6,0,0,1,.3,1.4,3.3,3.3,0,0,1-.3,1.5,1.2,1.2,0,0,1-1,.5C2040.9,467.1,2040.4,466.4,2040.4,465.1Zm2.3,28h-2V471.2h2Z" fill="#76777a"/><path d="M2058.7,470.8l3,.3-.4,1.9a13.6,13.6,0,0,0-2.9-.3,5.8,5.8,0,0,0-4.6,2.3,10.4,10.4,0,0,0-1.7,6v12.1h-2V471.2h1.7l.2,4h.1a9.2,9.2,0,0,1,2.9-3.4A6.2,6.2,0,0,1,2058.7,470.8Z" fill="#76777a"/><path d="M2075,493.5c-3.2,0-5.7-.9-7.5-2.9s-2.6-4.7-2.6-8.2.8-6.3,2.5-8.4a8.8,8.8,0,0,1,7-3.2,7.5,7.5,0,0,1,6.1,2.7,11.2,11.2,0,0,1,2.2,7.3v1.7H2067q0,4.5,2.1,6.9a7.5,7.5,0,0,0,5.9,2.3l3.3-.2,3.6-1.2v1.9a19.8,19.8,0,0,1-3.5,1.1Zm-.6-20.9a6.6,6.6,0,0,0-5.1,2.1,9.6,9.6,0,0,0-2.2,6h13.5a9.7,9.7,0,0,0-1.6-6A5.6,5.6,0,0,0,2074.4,472.6Z" fill="#76777a"/><path d="M2219.3,487.4a5.6,5.6,0,0,1-2.2,4.6,11.7,11.7,0,0,1-6.4,1.5,15.3,15.3,0,0,1-7-1.3V490a15.7,15.7,0,0,0,7,1.7,9.1,9.1,0,0,0,4.9-1.1,3.2,3.2,0,0,0,1.7-2.9,3.2,3.2,0,0,0-1.3-2.7,15.9,15.9,0,0,0-4.4-2.3,21.5,21.5,0,0,1-4.6-2,7.8,7.8,0,0,1-2.1-1.9,5.7,5.7,0,0,1-.6-2.7,4.7,4.7,0,0,1,2-3.9,10.6,10.6,0,0,1,5.8-1.4,16.7,16.7,0,0,1,6.7,1.3l-.7,1.9a15.3,15.3,0,0,0-6-1.4,8.2,8.2,0,0,0-4.2.9,2.7,2.7,0,0,0-1.6,2.5,3.4,3.4,0,0,0,1.2,2.7,15.1,15.1,0,0,0,4.8,2.3,27.4,27.4,0,0,1,4.3,1.9,6.3,6.3,0,0,1,2,2A4.3,4.3,0,0,1,2219.3,487.4Z" fill="#76777a"/><path d="M2226.7,471.2v14.2c0,2.2.4,3.8,1.4,4.8a5.5,5.5,0,0,0,4.3,1.5c2.6,0,4.5-.6,5.7-1.9s1.9-3.5,1.9-6.5V471.2h2v21.9h-1.7l-.4-3h-.1c-1.5,2.3-4,3.4-7.6,3.4s-7.5-2.6-7.5-8V471.2Z" fill="#76777a"/><path d="M2258,493.5a9.2,9.2,0,0,1-7.3-2.9c-1.8-2-2.7-4.7-2.7-8.3s.9-6.4,2.8-8.5a9.6,9.6,0,0,1,7.5-3,14.5,14.5,0,0,1,5.5,1l-.6,1.8a14.2,14.2,0,0,0-4.9-1,7.7,7.7,0,0,0-6.1,2.5q-2.1,2.5-2.1,7.2a10.5,10.5,0,0,0,2.1,6.9,7,7,0,0,0,5.8,2.5,14.2,14.2,0,0,0,5.5-1v1.8A12.3,12.3,0,0,1,2258,493.5Z" fill="#76777a"/><path d="M2277.7,493.5c-3.2,0-5.6-.9-7.4-2.9s-2.7-4.7-2.7-8.3a12.6,12.6,0,0,1,2.8-8.5,9.8,9.8,0,0,1,7.6-3,14,14,0,0,1,5.4,1l-.5,1.8a14.7,14.7,0,0,0-5-1,7.7,7.7,0,0,0-6.1,2.5q-2.1,2.5-2.1,7.2a10.5,10.5,0,0,0,2.1,6.9,7,7,0,0,0,5.8,2.5,14.7,14.7,0,0,0,5.6-1v1.8A12.6,12.6,0,0,1,2277.7,493.5Z" fill="#76777a"/><path d="M2297.4,493.5c-3.2,0-5.7-.9-7.5-2.9s-2.7-4.7-2.7-8.2a13,13,0,0,1,2.6-8.4,8.6,8.6,0,0,1,7-3.2,7.5,7.5,0,0,1,6.1,2.7,11.2,11.2,0,0,1,2.2,7.3v1.7h-15.8c.1,3,.8,5.3,2.2,6.9a7.5,7.5,0,0,0,5.9,2.3l3.3-.2a24.9,24.9,0,0,0,3.6-1.2v1.9a19.8,19.8,0,0,1-3.5,1.1Zm-.6-20.9a6.6,6.6,0,0,0-5.1,2.1,9.6,9.6,0,0,0-2.2,6H2303a9.7,9.7,0,0,0-1.6-6A5.6,5.6,0,0,0,2296.8,472.6Z" fill="#76777a"/><path d="M2320,493.5c-3.2,0-5.6-.9-7.4-2.9s-2.7-4.7-2.7-8.2a13,13,0,0,1,2.6-8.4,8.5,8.5,0,0,1,6.9-3.2,7.7,7.7,0,0,1,6.2,2.7,11.7,11.7,0,0,1,2.2,7.3v1.7H2312q0,4.5,2.1,6.9a7.8,7.8,0,0,0,5.9,2.3l3.3-.2a18.8,18.8,0,0,0,3.6-1.2v1.9a19,19,0,0,1-3.4,1.1Zm-.6-20.9a6.3,6.3,0,0,0-5,2.1,9.7,9.7,0,0,0-2.3,6h13.6a9.7,9.7,0,0,0-1.7-6A5.5,5.5,0,0,0,2319.4,472.6Z" fill="#76777a"/><path d="M2341.9,470.8a9.1,9.1,0,0,1,4.1.9,8.4,8.4,0,0,1,3.1,2.9h.1c-.1-1.7-.1-3.3-.1-4.9v-7.9h2v31.3h-1.4l-.5-3.3h-.1a8.2,8.2,0,0,1-7.2,3.7c-3,0-5.3-.9-6.9-2.8s-2.4-4.6-2.4-8.2.8-6.7,2.3-8.7S2338.8,470.8,2341.9,470.8Zm0,1.8a6.4,6.4,0,0,0-5.4,2.5c-1.2,1.7-1.8,4.2-1.8,7.4q0,9.3,7.2,9.3c2.5,0,4.3-.7,5.4-2.2s1.8-3.8,1.8-7.1v-.3c0-3.4-.6-5.9-1.7-7.4A6.9,6.9,0,0,0,2341.9,472.6Z" fill="#76777a"/><path d="M1841.3,419.9l-6.3-16.1h-.8c-5.4,6.8-11,11.6-16.8,14.2s-13.2,4-22.4,4c-11.4,0-20.3-3.2-26.8-9.7s-9.8-15.7-9.8-27.7,4.4-21.8,13.1-27.8,22.1-9.2,39.7-9.9l20.6-.6v-5.2c0-12-6.2-18-18.4-18-9.5,0-20.6,2.9-33.3,8.6l-10.7-21.8a96.3,96.3,0,0,1,45.2-10.7c15.9,0,28.1,3.5,36.5,10.4s12.7,17.4,12.7,31.5v78.8Zm-9.5-54.8-12.5.4q-14.1.5-21,5.1c-4.5,3.1-6.8,7.8-6.8,14.2,0,9.1,5.2,13.6,15.6,13.6,7.5,0,13.5-2.1,17.9-6.4s6.8-10,6.8-17.2Z" fill="#00538b"/><path d="M1985.5,419.9h-32.2V350.8c0-8.5-1.5-14.9-4.3-19.2s-7.4-6.4-13.5-6.4c-8.2,0-14.2,3.1-18,9.1s-5.6,16.1-5.6,30v55.6h-32.2V301.7h24.6l4.3,15.1h1.8a33.6,33.6,0,0,1,13.8-12.8,45.6,45.6,0,0,1,20.6-4.6q26.5,0,36,17.4h2.8a32.3,32.3,0,0,1,14-12.8,47.5,47.5,0,0,1,20.9-4.6c13.4,0,23.5,3.5,30.4,10.4s10.3,17.8,10.3,33v77.1h-32.3V350.8c0-8.5-1.5-14.9-4.3-19.2s-7.4-6.4-13.5-6.4c-7.9,0-13.8,2.9-17.7,8.5s-5.9,14.6-5.9,26.9Z" fill="#00538b"/><path d="M2127.5,422c-16.4,0-29.2-5.2-38.6-15.5s-13.9-24.9-13.9-43.4,4.8-33.9,14.5-44.5,22.9-15.9,39.6-15.9a78.8,78.8,0,0,1,28.6,5.2l-2.9,9.3c-9.9-3.3-18.6-5-25.9-5-14.1,0-24.8,4.4-32,13.1s-10.9,21.2-10.9,37.6,3.6,27.6,10.9,36.4,17.4,13.2,30.4,13.2a75.1,75.1,0,0,0,29.1-5.6v9.7C2149.1,420.2,2139.5,422,2127.5,422Z" fill="#76777a"/><path d="M2218,422c-16.7,0-29.8-5.1-39.1-15.4s-14-24.7-14-43.3,4.5-33,13.5-44,21.2-16.6,36.5-16.6c13.5,0,24.2,4.7,32,14.2s11.8,22.3,11.8,38.5v8.4h-82.8c.1,15.8,3.8,27.9,11,36.2s17.6,12.5,31.1,12.5a96.4,96.4,0,0,0,17.2-1.4,105,105,0,0,0,18.9-5.9v9.5a90.8,90.8,0,0,1-18,5.8A100.3,100.3,0,0,1,2218,422Zm-3.1-110c-11.1,0-20,3.7-26.7,11s-10.6,17.8-11.7,31.5h71.1q0-20-8.7-31.2C2233.1,315.8,2225.1,312,2214.9,312Z" fill="#76777a"/><path d="M2353,390q0,15.5-11.7,23.7c-7.9,5.5-19,8.3-33.3,8.3s-27.6-2.4-36.6-7.1V403.6a80.2,80.2,0,0,0,36.6,8.7q17,0,25.8-5.7c5.9-3.8,8.8-8.8,8.8-15.1a18.2,18.2,0,0,0-7-14.5q-7-6-23.1-11.7c-11.5-4.1-19.6-7.7-24.2-10.7a32.1,32.1,0,0,1-10.5-10.2q-3.6-5.5-3.6-13.8c0-8.6,3.6-15.4,10.9-20.4s17.3-7.5,30.3-7.5a90,90,0,0,1,35.3,7l-3.9,9.5c-11.3-4.6-21.8-7-31.4-7s-16.9,1.6-22.4,4.7-8.2,7.4-8.2,12.9,2.1,10.8,6.4,14.4,12.6,7.6,25,12c10.4,3.8,17.9,7.1,22.6,10.1a32.9,32.9,0,0,1,10.7,10.2A25.6,25.6,0,0,1,2353,390Z" fill="#76777a"/><rect x="107.8" y="873.8" width="1189.3" height="424.48" fill="#231f20"/><path d="M596.3,935.4a.9.9,0,0,0-1.2-.6L209,1076.9a1,1,0,0,0-.7.8,1.1,1.1,0,0,0,.4.9L412,1237c.1.2.4.2.6.2a.9.9,0,0,0,.7-.3,1,1,0,0,0,0-1.4L287.9,1092l308-155.3A.9.9,0,0,0,596.3,935.4Z" fill="#fff"/><path d="M590.7,949.6a1.1,1.1,0,0,0-1.2-.2l-99.8,55.1a1,1,0,0,0-.5,1.1.9.9,0,0,0,.9.8l17.4,1.2-87.3,214.7a1,1,0,0,0,.5,1.3h.5a.9.9,0,0,0,.8-.5L590.8,950.8A.9.9,0,0,0,590.7,949.6Z" fill="#fff"/><path d="M625.6,1187.9v1.4l-4.6.3a7.9,7.9,0,0,1,1.8,5,6.6,6.6,0,0,1-2.1,5.1,7.8,7.8,0,0,1-5.6,2H613a5.4,5.4,0,0,0-1.8,1.4,3.2,3.2,0,0,0-.6,1.8,1.9,1.9,0,0,0,.7,1.6,6.4,6.4,0,0,0,2.7.4h3.8a8.8,8.8,0,0,1,5.5,1.5,4.8,4.8,0,0,1,1.9,4.2,6,6,0,0,1-2.8,5.4,15,15,0,0,1-8,1.9,11.4,11.4,0,0,1-6.4-1.6,5.3,5.3,0,0,1-2.3-4.4,5.4,5.4,0,0,1,1.4-3.8,6.7,6.7,0,0,1,3.8-2,4.8,4.8,0,0,1-1.6-1.2,3,3,0,0,1-.6-1.8c0-1.5,1-2.8,2.8-3.9a5.9,5.9,0,0,1-2.9-2.5,6.3,6.3,0,0,1-1.1-3.8,6.9,6.9,0,0,1,2.1-5.3,7.8,7.8,0,0,1,5.6-2,14.4,14.4,0,0,1,3.4.4Zm-17.8,25.7c0,3,2.3,4.5,6.7,4.5s8.7-1.9,8.7-5.5a3.3,3.3,0,0,0-1.4-2.9,8,8,0,0,0-4.4-.9h-3.5C609.8,1208.8,607.8,1210.4,607.8,1213.6Zm1.7-18.8a5,5,0,0,0,1.5,3.9,5.8,5.8,0,0,0,4.2,1.4,5.6,5.6,0,0,0,4.2-1.4,6.5,6.5,0,0,0-.1-8.2,6.1,6.1,0,0,0-4.2-1.4,5.6,5.6,0,0,0-4.1,1.5A5.7,5.7,0,0,0,609.5,1194.8Z" fill="#fff"/><path d="M638.7,1187.5l3,.3-.4,1.9a13.3,13.3,0,0,0-2.8-.3,5.5,5.5,0,0,0-4.6,2.4,9.3,9.3,0,0,0-1.8,6v12.1h-2v-22h1.7l.2,4h.1a10.1,10.1,0,0,1,2.9-3.4A6.2,6.2,0,0,1,638.7,1187.5Z" fill="#fff"/><path d="M664.3,1198.9a12.5,12.5,0,0,1-2.6,8.3,9,9,0,0,1-7.2,3.1,9.8,9.8,0,0,1-5.1-1.4,9.5,9.5,0,0,1-3.4-4,16.4,16.4,0,0,1-1.1-6c0-3.6.8-6.4,2.6-8.4a8.9,8.9,0,0,1,7.1-3,8.6,8.6,0,0,1,7.1,3.1A12.5,12.5,0,0,1,664.3,1198.9Zm-17.3,0c0,3,.6,5.3,1.9,7a7.6,7.6,0,0,0,11.3,0,11.2,11.2,0,0,0,2-7,11.3,11.3,0,0,0-2-7.1,7.3,7.3,0,0,0-5.7-2.5,6.9,6.9,0,0,0-5.6,2.5C647.6,1193.5,647,1195.8,647,1198.9Z" fill="#fff"/><path d="M687.8,1209.9l-4.8-14.7c-.3-1-.7-2.4-1.1-4.4h-.2l-.4,1.5-.9,2.9-4.9,14.7h-2l-6.2-22h2.1l3.5,12.7c.8,3.2,1.4,5.5,1.6,7h.2c.8-3.2,1.3-5.3,1.7-6.3l4.5-13.4h1.8l4.3,13.4c1,3.1,1.6,5.2,1.8,6.2h.1c.1-.8.7-3.2,1.6-7l3.4-12.6h2l-6,22Z" fill="#fff"/><path d="M806.5,1181.9c0-1.3.4-2,1.2-2a1.2,1.2,0,0,1,1,.5,3.1,3.1,0,0,1,.3,1.5,2.9,2.9,0,0,1-.3,1.4,1.2,1.2,0,0,1-1,.5C806.9,1183.8,806.5,1183.2,806.5,1181.9Zm2.2,28h-2v-22h2Z" fill="#fff"/><path d="M831.3,1209.9v-14.3c0-2.2-.4-3.8-1.3-4.8a5.9,5.9,0,0,0-4.4-1.5c-2.6,0-4.5.7-5.7,2s-1.8,3.5-1.8,6.5v12.1h-2v-22h1.7l.3,3.1h.2c1.4-2.3,3.9-3.5,7.6-3.5s7.4,2.7,7.4,8v14.4Z" fill="#fff"/><path d="M854,1204.2a5.2,5.2,0,0,1-2.2,4.5,11.4,11.4,0,0,1-6.4,1.6,15.5,15.5,0,0,1-7-1.4v-2.1a15.6,15.6,0,0,0,7,1.6,9.1,9.1,0,0,0,4.9-1.1,3,3,0,0,0,1.7-2.8,3.4,3.4,0,0,0-1.3-2.8,13.7,13.7,0,0,0-4.4-2.2,23,23,0,0,1-4.6-2.1,6.1,6.1,0,0,1-2-1.9,4.5,4.5,0,0,1-.7-2.7,4.3,4.3,0,0,1,2.1-3.8,9.4,9.4,0,0,1,5.7-1.5,17.6,17.6,0,0,1,6.8,1.4l-.8,1.8a15.3,15.3,0,0,0-6-1.4,8.2,8.2,0,0,0-4.2.9,2.7,2.7,0,0,0-1.6,2.5,3.4,3.4,0,0,0,1.2,2.7,15.1,15.1,0,0,0,4.8,2.3,27.4,27.4,0,0,1,4.3,1.9,6.3,6.3,0,0,1,2,2A4.4,4.4,0,0,1,854,1204.2Z" fill="#fff"/><path d="M869,1210.3a8.1,8.1,0,0,1-7.4-3.8h-.1v13.3h-2v-31.9h1.7l.4,3.2h.1a9.2,9.2,0,0,1,14-.7c1.6,2,2.4,4.8,2.4,8.5a13.1,13.1,0,0,1-2.5,8.4A8.2,8.2,0,0,1,869,1210.3Zm0-1.8a6,6,0,0,0,5.2-2.5,11.9,11.9,0,0,0,1.8-7c0-6.4-2.3-9.7-6.9-9.7q-3.9,0-5.7,2.1t-1.8,6.9v.7c0,3.4.6,5.8,1.8,7.3S866.4,1208.5,869,1208.5Z" fill="#fff"/><path d="M883.9,1181.9c0-1.3.5-2,1.3-2a1.2,1.2,0,0,1,1,.5,3.1,3.1,0,0,1,.3,1.5,2.9,2.9,0,0,1-.3,1.4,1.2,1.2,0,0,1-1,.5C884.4,1183.8,883.9,1183.2,883.9,1181.9Zm2.3,28h-2v-22h2Z" fill="#fff"/><path d="M902.2,1187.5l3,.3-.4,1.9a13.6,13.6,0,0,0-2.9-.3,5.6,5.6,0,0,0-4.6,2.4,9.9,9.9,0,0,0-1.7,6v12.1h-2v-22h1.7l.2,4h.1a10.1,10.1,0,0,1,2.9-3.4A6.2,6.2,0,0,1,902.2,1187.5Z" fill="#fff"/><path d="M918.5,1210.3a9.6,9.6,0,0,1-7.5-3c-1.8-1.9-2.6-4.7-2.6-8.2s.8-6.3,2.5-8.4a8.8,8.8,0,0,1,7-3.2,7.5,7.5,0,0,1,6.1,2.7c1.5,1.8,2.2,4.3,2.2,7.4v1.6H910.5q0,4.5,2.1,6.9c1.3,1.6,3.3,2.3,5.9,2.3a17.2,17.2,0,0,0,3.3-.2l3.6-1.1v1.8a19.8,19.8,0,0,1-3.5,1.1A17.9,17.9,0,0,1,918.5,1210.3Zm-.6-21a6.6,6.6,0,0,0-5.1,2.1,9.6,9.6,0,0,0-2.2,6h13.5a9.9,9.9,0,0,0-1.6-6A5.6,5.6,0,0,0,917.9,1189.3Z" fill="#fff"/><path d="M1062.8,1204.2a5.5,5.5,0,0,1-2.2,4.5,11.6,11.6,0,0,1-6.4,1.6,15.5,15.5,0,0,1-7-1.4v-2.1a15.6,15.6,0,0,0,7,1.6,9.1,9.1,0,0,0,4.9-1.1,3,3,0,0,0,1.7-2.8,3.4,3.4,0,0,0-1.3-2.8,13.7,13.7,0,0,0-4.4-2.2,20.6,20.6,0,0,1-4.6-2.1,7.8,7.8,0,0,1-2.1-1.9,5.4,5.4,0,0,1-.6-2.7,4.4,4.4,0,0,1,2-3.8,9.8,9.8,0,0,1,5.8-1.5,16.7,16.7,0,0,1,6.7,1.4l-.7,1.8a15.3,15.3,0,0,0-6-1.4,8.2,8.2,0,0,0-4.2.9,2.7,2.7,0,0,0-1.6,2.5,3.4,3.4,0,0,0,1.2,2.7,15.1,15.1,0,0,0,4.8,2.3,27.4,27.4,0,0,1,4.3,1.9,6.3,6.3,0,0,1,2,2A4.4,4.4,0,0,1,1062.8,1204.2Z" fill="#fff"/><path d="M1070.2,1187.9v14.2c0,2.2.4,3.8,1.4,4.8a5.5,5.5,0,0,0,4.3,1.5c2.6,0,4.5-.6,5.7-1.9s1.9-3.5,1.9-6.5v-12.1h2v22h-1.7l-.4-3.1h-.1c-1.5,2.3-4,3.5-7.6,3.5s-7.5-2.7-7.5-8v-14.4Z" fill="#fff"/><path d="M1101.5,1210.3a9.3,9.3,0,0,1-7.3-3c-1.8-2-2.7-4.7-2.7-8.3s.9-6.4,2.8-8.4a9.3,9.3,0,0,1,7.5-3.1,16.8,16.8,0,0,1,5.5,1l-.6,1.8a17,17,0,0,0-4.9-1,7.7,7.7,0,0,0-6.1,2.5q-2.1,2.5-2.1,7.2t2.1,6.9a7,7,0,0,0,5.8,2.5,14.2,14.2,0,0,0,5.5-1v1.8A12.2,12.2,0,0,1,1101.5,1210.3Z" fill="#fff"/><path d="M1121.2,1210.3a9.4,9.4,0,0,1-7.4-3c-1.8-2-2.7-4.7-2.7-8.3a12.1,12.1,0,0,1,2.8-8.4,9.5,9.5,0,0,1,7.6-3.1,16.2,16.2,0,0,1,5.4,1l-.5,1.8a17.6,17.6,0,0,0-5-1,7.7,7.7,0,0,0-6.1,2.5q-2.1,2.5-2.1,7.2t2.1,6.9a7,7,0,0,0,5.8,2.5,14.7,14.7,0,0,0,5.6-1v1.8A12.5,12.5,0,0,1,1121.2,1210.3Z" fill="#fff"/><path d="M1140.9,1210.3a9.6,9.6,0,0,1-7.5-3c-1.8-1.9-2.7-4.7-2.7-8.2a13,13,0,0,1,2.6-8.4,8.6,8.6,0,0,1,7-3.2,7.5,7.5,0,0,1,6.1,2.7c1.5,1.8,2.2,4.3,2.2,7.4v1.6h-15.8c.1,3,.8,5.3,2.2,6.9s3.3,2.3,5.9,2.3a17.2,17.2,0,0,0,3.3-.2l3.6-1.1v1.8a19.8,19.8,0,0,1-3.5,1.1A17.9,17.9,0,0,1,1140.9,1210.3Zm-.6-21a6.6,6.6,0,0,0-5.1,2.1,9.6,9.6,0,0,0-2.2,6h13.5a9.9,9.9,0,0,0-1.6-6A5.6,5.6,0,0,0,1140.3,1189.3Z" fill="#fff"/><path d="M1163.5,1210.3a9.4,9.4,0,0,1-7.4-3c-1.8-1.9-2.7-4.7-2.7-8.2a13,13,0,0,1,2.6-8.4,8.5,8.5,0,0,1,6.9-3.2,7.7,7.7,0,0,1,6.2,2.7,11.8,11.8,0,0,1,2.2,7.4v1.6h-15.8q0,4.5,2.1,6.9a7.4,7.4,0,0,0,5.9,2.3,16.2,16.2,0,0,0,3.3-.2,27.6,27.6,0,0,0,3.6-1.1v1.8a15.6,15.6,0,0,1-6.9,1.4Zm-.6-21a6.3,6.3,0,0,0-5,2.1,9.7,9.7,0,0,0-2.3,6h13.6a9.9,9.9,0,0,0-1.7-6A5.5,5.5,0,0,0,1162.9,1189.3Z" fill="#fff"/><path d="M1185.4,1187.5a9.1,9.1,0,0,1,4.1.9,8.8,8.8,0,0,1,3.1,3h.1c-.1-1.7-.1-3.4-.1-5v-7.9h2v31.4h-1.4l-.5-3.4h-.1a8.2,8.2,0,0,1-7.2,3.8,8.5,8.5,0,0,1-6.9-2.9c-1.6-1.8-2.4-4.6-2.4-8.2s.8-6.7,2.3-8.7S1182.3,1187.5,1185.4,1187.5Zm0,1.8a6.2,6.2,0,0,0-5.4,2.6c-1.2,1.6-1.8,4.1-1.8,7.3q0,9.3,7.2,9.3c2.5,0,4.3-.7,5.4-2.2s1.8-3.8,1.8-7.1v-.3c0-3.4-.6-5.9-1.7-7.3A6.6,6.6,0,0,0,1185.4,1189.3Z" fill="#fff"/><path d="M684.8,1136.6l-6.3-16.1h-.8c-5.4,6.9-11,11.6-16.8,14.2s-13.2,4-22.4,4c-11.4,0-20.3-3.2-26.8-9.7s-9.8-15.7-9.8-27.7,4.4-21.8,13.1-27.8,22.1-9.2,39.7-9.9l20.6-.6v-5.2c0-12-6.2-18-18.4-18-9.5,0-20.6,2.9-33.3,8.6l-10.7-21.8a96.3,96.3,0,0,1,45.2-10.7c15.9,0,28.1,3.5,36.5,10.4s12.7,17.4,12.7,31.5v78.8Zm-9.5-54.8-12.5.4q-14.1.5-21,5.1c-4.5,3.1-6.8,7.8-6.8,14.2,0,9.1,5.2,13.6,15.6,13.6,7.5,0,13.5-2.1,17.9-6.4s6.8-10,6.8-17.1Z" fill="#fff"/><path d="M829,1136.6H796.8v-69.1c0-8.5-1.5-14.9-4.3-19.1s-7.4-6.4-13.5-6.4c-8.2,0-14.2,3-18,9.1s-5.6,16-5.6,29.9v55.6H723.2V1018.4h24.6l4.3,15.1h1.8a32.7,32.7,0,0,1,13.8-12.7,44.3,44.3,0,0,1,20.6-4.6c17.7,0,29.7,5.7,36,17.3h2.8a32.3,32.3,0,0,1,14-12.8,47.5,47.5,0,0,1,20.9-4.5c13.4,0,23.5,3.4,30.4,10.3s10.3,17.9,10.3,33v77.1H870.4v-69.1c0-8.5-1.5-14.9-4.3-19.1s-7.4-6.4-13.5-6.4q-11.9,0-17.7,8.4c-3.9,5.7-5.9,14.6-5.9,26.9Z" fill="#fff"/><path d="M971,1138.7c-16.4,0-29.2-5.2-38.6-15.5s-13.9-24.8-13.9-43.4,4.8-33.8,14.5-44.4,22.9-16,39.6-16a81,81,0,0,1,28.6,5.2l-2.9,9.3c-9.9-3.3-18.6-4.9-25.9-4.9-14.1,0-24.8,4.3-32,13s-10.9,21.3-10.9,37.6,3.6,27.7,10.9,36.4,17.4,13.2,30.4,13.2a75.1,75.1,0,0,0,29.1-5.6v9.7C992.6,1136.9,983,1138.7,971,1138.7Z" fill="#fff"/><path d="M1061.5,1138.7c-16.7,0-29.8-5.1-39.1-15.4s-14-24.7-14-43.3,4.5-33,13.5-44,21.2-16.6,36.5-16.6c13.5,0,24.2,4.8,32,14.2s11.8,22.3,11.8,38.5v8.5h-82.8c.1,15.7,3.8,27.8,11,36.1s17.6,12.5,31.1,12.5a96.4,96.4,0,0,0,17.2-1.4,105,105,0,0,0,18.9-5.9v9.5a84.7,84.7,0,0,1-18,5.8A100.3,100.3,0,0,1,1061.5,1138.7Zm-3.1-110c-11.1,0-20,3.7-26.7,11s-10.6,17.8-11.7,31.6h71.1c0-13.4-2.9-23.8-8.7-31.3S1068.6,1028.7,1058.4,1028.7Z" fill="#fff"/><path d="M1196.5,1106.7q0,15.5-11.7,23.7c-7.9,5.5-19,8.3-33.3,8.3s-27.6-2.3-36.6-7.1v-11.3a80.2,80.2,0,0,0,36.6,8.7q16.9,0,25.8-5.7c5.9-3.7,8.8-8.8,8.8-15a18.2,18.2,0,0,0-7-14.6q-7-6-23.1-11.7c-11.5-4.1-19.6-7.7-24.2-10.7a32.9,32.9,0,0,1-10.5-10.1,25.3,25.3,0,0,1-3.6-13.8c0-8.6,3.6-15.4,10.9-20.5s17.3-7.5,30.3-7.5a91.9,91.9,0,0,1,35.3,7l-3.9,9.5c-11.3-4.6-21.8-6.9-31.4-6.9s-16.9,1.5-22.4,4.6-8.2,7.4-8.2,12.9,2.1,10.8,6.4,14.4,12.6,7.6,25,12c10.4,3.8,17.9,7.1,22.6,10.1a32.9,32.9,0,0,1,10.7,10.2A25.6,25.6,0,0,1,1196.5,1106.7Z" fill="#fff"/><rect x="1444.7" y="1024.4" width="123.2" height="123.21" rx="30.5" ry="30.5" fill="#00538b"/><rect x="1938.8" y="1024.4" width="123.2" height="123.21" rx="30.5" ry="30.5" fill="#76777a"/><path d="M1637.2,1079.4a6.3,6.3,0,0,1-2.3,5.2,10.3,10.3,0,0,1-6.5,1.8h-2.6v8.6h-2.6v-22h5.7C1634.4,1073,1637.2,1075.2,1637.2,1079.4Zm-11.4,4.8h2.3a8.6,8.6,0,0,0,4.9-1.1,4.1,4.1,0,0,0,1.5-3.5,3.7,3.7,0,0,0-1.4-3.3,7.3,7.3,0,0,0-4.4-1.1h-2.9Z" fill="#76777a"/><path d="M1651.5,1095l-7.4-19.5h-.2a46.1,46.1,0,0,1,.2,5.5v14h-2.3v-22h3.8l7,18.2h.1l7-18.2h3.9v22H1661v-14.1c0-1.7.1-3.4.2-5.3h-.1l-7.5,19.4Z" fill="#76777a"/><path d="M1682,1089.2a5.4,5.4,0,0,1-2.1,4.5,9,9,0,0,1-5.7,1.6,13.8,13.8,0,0,1-6-1v-2.5a14,14,0,0,0,2.9.9,11.7,11.7,0,0,0,3.2.4,5.8,5.8,0,0,0,3.8-1,3,3,0,0,0,1.3-2.7,3.6,3.6,0,0,0-.4-1.9,5.6,5.6,0,0,0-1.6-1.3,21.1,21.1,0,0,0-3.2-1.4,9.5,9.5,0,0,1-4.4-2.6,5.6,5.6,0,0,1-1.3-3.9,4.9,4.9,0,0,1,1.9-4.1,7.6,7.6,0,0,1,5-1.5,14.6,14.6,0,0,1,6,1.2l-.8,2.2a14.3,14.3,0,0,0-5.2-1.1,4.9,4.9,0,0,0-3.2.9,2.9,2.9,0,0,0-1.2,2.4,3.6,3.6,0,0,0,.5,1.9,3,3,0,0,0,1.4,1.3,17.4,17.4,0,0,0,3,1.4,13,13,0,0,1,4.8,2.6A5.1,5.1,0,0,1,1682,1089.2Z" fill="#76777a"/><path d="M1695.8,1095l9.1-19.7h-12V1073h14.6v2l-9,20Z" fill="#76777a"/><path d="M1726.1,1090h-3.3v5h-2.4v-5h-10.7v-2.2l10.5-14.9h2.6v14.8h3.3Zm-5.7-2.3v-7.3c0-1.4.1-3.1.2-4.9h-.1a22.1,22.1,0,0,1-1.4,2.4l-6.9,9.8Z" fill="#76777a"/><path d="M1728.5,1085.6c0-4.3.8-7.5,2.5-9.7a8.9,8.9,0,0,1,7.4-3.2,9.1,9.1,0,0,1,2.7.3v2.2a7.1,7.1,0,0,0-2.6-.4,6.5,6.5,0,0,0-5.4,2.2c-1.3,1.4-2,3.8-2.1,6.9h.2a5.7,5.7,0,0,1,5.2-2.6,6.1,6.1,0,0,1,4.7,1.8,6.9,6.9,0,0,1,1.7,4.9,7.4,7.4,0,0,1-1.9,5.4,6.5,6.5,0,0,1-5,1.9,6.4,6.4,0,0,1-5.4-2.5C1729.1,1091,1728.5,1088.7,1728.5,1085.6Zm7.3,7.6a4.2,4.2,0,0,0,3.4-1.3,6.2,6.2,0,0,0,1.1-3.9,4.9,4.9,0,0,0-1.1-3.5,4.1,4.1,0,0,0-3.2-1.2,6.6,6.6,0,0,0-2.5.5,4,4,0,0,0-1.8,1.6,3.1,3.1,0,0,0-.7,2,7.2,7.2,0,0,0,.6,2.9,5.1,5.1,0,0,0,1.7,2.1A4.6,4.6,0,0,0,1735.8,1093.2Z" fill="#76777a"/><path d="M1760.3,1095h-14.5v-2.1l5.8-5.9a31.2,31.2,0,0,0,3.5-3.8,6.8,6.8,0,0,0,1.7-4.5,3.8,3.8,0,0,0-1.1-2.8,4,4,0,0,0-3-1,6.9,6.9,0,0,0-2.5.4,11.7,11.7,0,0,0-2.8,1.6l-1.3-1.7a10.4,10.4,0,0,1,6.6-2.5,6.9,6.9,0,0,1,4.9,1.6,5.4,5.4,0,0,1,1.7,4.3,9,9,0,0,1-1.1,4.1,28.1,28.1,0,0,1-4.4,5.2l-4.8,4.7h11.3Z" fill="#76777a"/><path d="M1782.4,1075a7.3,7.3,0,0,0-5.8,2.4,9.7,9.7,0,0,0-2.1,6.6,9.8,9.8,0,0,0,2.1,6.7c1.3,1.6,3.2,2.3,5.7,2.3a18,18,0,0,0,5.3-.8v2.3a18.2,18.2,0,0,1-5.7.8,9.9,9.9,0,0,1-7.5-2.9c-1.7-2-2.6-4.8-2.6-8.4a12.6,12.6,0,0,1,1.3-6,8.5,8.5,0,0,1,3.6-3.9,11.5,11.5,0,0,1,5.7-1.4,12.6,12.6,0,0,1,6,1.3l-1,2.2A11.8,11.8,0,0,0,1782.4,1075Z" fill="#76777a"/><path d="M2131.3,1079.4a6.3,6.3,0,0,1-2.3,5.2,10.3,10.3,0,0,1-6.5,1.8h-2.6v8.6h-2.6v-22h5.7C2128.5,1073,2131.3,1075.2,2131.3,1079.4Zm-11.4,4.8h2.3a8.6,8.6,0,0,0,4.9-1.1,4.1,4.1,0,0,0,1.5-3.5,3.7,3.7,0,0,0-1.4-3.3,7.3,7.3,0,0,0-4.4-1.1h-2.9Z" fill="#76777a"/><path d="M2145.6,1095l-7.4-19.5h-.2a46.1,46.1,0,0,1,.2,5.5v14h-2.3v-22h3.8l7,18.2h.1l7-18.2h3.9v22h-2.6v-14.1c0-1.7.1-3.4.2-5.3h-.1l-7.5,19.4Z" fill="#76777a"/><path d="M2176.1,1089.2a5.4,5.4,0,0,1-2.1,4.5,9,9,0,0,1-5.7,1.6,13.8,13.8,0,0,1-6-1v-2.5a14,14,0,0,0,2.9.9,11.7,11.7,0,0,0,3.2.4,5.8,5.8,0,0,0,3.8-1,3,3,0,0,0,1.3-2.7,3.6,3.6,0,0,0-.4-1.9,5.6,5.6,0,0,0-1.6-1.3,21.1,21.1,0,0,0-3.2-1.4,9.5,9.5,0,0,1-4.4-2.6,5.6,5.6,0,0,1-1.3-3.9,4.9,4.9,0,0,1,1.9-4.1,7.6,7.6,0,0,1,5-1.5,14.6,14.6,0,0,1,6,1.2l-.7,2.2a15.2,15.2,0,0,0-5.3-1.1,4.9,4.9,0,0,0-3.2.9,2.9,2.9,0,0,0-1.2,2.4,3.6,3.6,0,0,0,.5,1.9,3,3,0,0,0,1.4,1.3,17.4,17.4,0,0,0,3,1.4,13,13,0,0,1,4.8,2.6A5.1,5.1,0,0,1,2176.1,1089.2Z" fill="#76777a"/><path d="M2198,1075a7.2,7.2,0,0,0-5.7,2.4,9.7,9.7,0,0,0-2.1,6.6,10.3,10.3,0,0,0,2,6.7,7.2,7.2,0,0,0,5.8,2.3,17.4,17.4,0,0,0,5.2-.8v2.3a17.9,17.9,0,0,1-5.6.8,9.9,9.9,0,0,1-7.5-2.9c-1.8-2-2.6-4.8-2.6-8.4a14,14,0,0,1,1.2-6,9.3,9.3,0,0,1,3.7-3.9,11.3,11.3,0,0,1,5.6-1.4,12.8,12.8,0,0,1,6.1,1.3l-1.1,2.2A11.5,11.5,0,0,0,2198,1075Z" fill="#76777a"/><path d="M2221.9,1086.8a9.5,9.5,0,0,1-2,6.3,7.4,7.4,0,0,1-5.7,2.2,7.6,7.6,0,0,1-3.9-1,7,7,0,0,1-2.6-3,10.6,10.6,0,0,1-1-4.5,8.9,8.9,0,0,1,2.1-6.3,7.1,7.1,0,0,1,5.6-2.3,6.8,6.8,0,0,1,5.4,2.3A9,9,0,0,1,2221.9,1086.8Zm-12.6,0a7.4,7.4,0,0,0,1.3,4.8,5.1,5.1,0,0,0,7.4,0,9.5,9.5,0,0,0,0-9.6,4.3,4.3,0,0,0-3.7-1.6,4.2,4.2,0,0,0-3.7,1.6C2209.7,1083,2209.3,1084.6,2209.3,1086.8Z" fill="#76777a"/><path d="M2240.5,1086.8a9.5,9.5,0,0,1-2,6.3,7.4,7.4,0,0,1-5.7,2.2,7.6,7.6,0,0,1-3.9-1,7,7,0,0,1-2.6-3,10.6,10.6,0,0,1-1-4.5,8.9,8.9,0,0,1,2.1-6.3,7.1,7.1,0,0,1,5.6-2.3,7.2,7.2,0,0,1,5.5,2.3A9.5,9.5,0,0,1,2240.5,1086.8Zm-12.6,0a8.1,8.1,0,0,0,1.3,4.8,5.1,5.1,0,0,0,7.4,0,9.5,9.5,0,0,0,0-9.6,4.3,4.3,0,0,0-3.7-1.6,4.2,4.2,0,0,0-3.7,1.6C2228.3,1083,2227.9,1084.6,2227.9,1086.8Z" fill="#76777a"/><path d="M2247.4,1095h-2.5v-23.4h2.5Z" fill="#76777a"/><path d="M2270.7,1083.5h7.5v10.7a23.3,23.3,0,0,1-3.6.8,25.8,25.8,0,0,1-4.2.3c-3.3,0-5.9-1-7.7-3s-2.8-4.7-2.8-8.3a11.6,11.6,0,0,1,1.4-6,9.2,9.2,0,0,1,3.9-3.9,13.4,13.4,0,0,1,6.1-1.4,15.7,15.7,0,0,1,6.5,1.3l-.9,2.3a13.9,13.9,0,0,0-5.8-1.3,8,8,0,0,0-6.2,2.4c-1.6,1.6-2.3,3.8-2.3,6.6s.7,5.2,2.2,6.8,3.5,2.3,6.4,2.3a21.2,21.2,0,0,0,4.4-.5v-6.8h-4.9Z" fill="#76777a"/><path d="M2290.6,1078.2l2,.2-.4,2.3-1.8-.2a4.3,4.3,0,0,0-3.4,1.6,6.4,6.4,0,0,0-1.4,4.1v8.8h-2.5v-16.5h2l.3,3.1h.1a8,8,0,0,1,2.3-2.5A4.7,4.7,0,0,1,2290.6,1078.2Z" fill="#76777a"/><path d="M2305.8,1095l-.5-2.3h-.1a7.8,7.8,0,0,1-2.5,2.1,8.5,8.5,0,0,1-3,.5,5.7,5.7,0,0,1-3.9-1.2,4.9,4.9,0,0,1-1.4-3.6c0-3.4,2.7-5.1,8-5.3h2.8v-1a4.3,4.3,0,0,0-.8-2.8,3.3,3.3,0,0,0-2.7-1,10.5,10.5,0,0,0-4.7,1.3l-.7-1.9a11.9,11.9,0,0,1,2.6-1.1l3-.3a6,6,0,0,1,4.3,1.3c1,.8,1.4,2.2,1.4,4.2V1095Zm-5.6-1.7a5.3,5.3,0,0,0,3.6-1.3,4.8,4.8,0,0,0,1.3-3.6v-1.5h-2.5a9.7,9.7,0,0,0-4.2.9,2.9,2.9,0,0,0-1.4,2.6,2.6,2.6,0,0,0,.9,2.1A3.7,3.7,0,0,0,2300.2,1093.3Z" fill="#76777a"/><path d="M2310.2,1078.5h2.6l3.7,9.4c.7,2.2,1.2,3.7,1.4,4.7h.1l.9-2.6c.4-1.3,1.7-5.1,4.1-11.5h2.6l-7.1,18.8a9.8,9.8,0,0,1-2.4,4,5.8,5.8,0,0,1-3.5,1.1l-2.2-.2v-2h1.8a3.8,3.8,0,0,0,3.7-2.8l.9-2.4Z" fill="#76777a"/><path d="M2346.1,1075a7.2,7.2,0,0,0-5.7,2.4,9.7,9.7,0,0,0-2.1,6.6,10.3,10.3,0,0,0,2,6.7c1.3,1.6,3.3,2.3,5.8,2.3a17.4,17.4,0,0,0,5.2-.8v2.3a17.9,17.9,0,0,1-5.6.8c-3.3,0-5.8-1-7.5-2.9s-2.7-4.8-2.7-8.4a14,14,0,0,1,1.3-6,9.3,9.3,0,0,1,3.7-3.9,11.3,11.3,0,0,1,5.6-1.4,13.3,13.3,0,0,1,6.1,1.3l-1.1,2.2A11.5,11.5,0,0,0,2346.1,1075Z" fill="#76777a"/></svg>