<svg xmlns="http://www.w3.org/2000/svg" width="6.2in" height="6.2in" viewBox="0 0 445.9 445.9"><path d="M222.9 22.1c110.9 0 200.8 89.9 200.8 200.8s-89.8 200.9-200.8 200.9S22.1 333.9 22.1 222.9 112 22.1 222.9 22.1m0-22.1a223 223 0 0 0-86.8 428.4A223 223 0 0 0 309.7 17.5 221.6 221.6 0 0 0 222.9 0z"/><path fill="#5e0d8b" d="M222.9 22.1c110.9 0 200.8 89.9 200.8 200.8s-89.8 200.9-200.8 200.9S22.1 333.9 22.1 222.9 112 22.1 222.9 22.1m0-15.6a216.5 216.5 0 0 0-84.3 415.9A216.5 216.5 0 0 0 307.2 23.5a215.1 215.1 0 0 0-84.3-17z"/><path fill="#fff" d="M222.9 22.1c110.9 0 200.8 89.9 200.8 200.8s-89.8 200.9-200.8 200.9S22.1 333.9 22.1 222.9 112 22.1 222.9 22.1m0-6.5A207.4 207.4 0 0 0 142.2 414 207.4 207.4 0 0 0 303.7 31.9 206 206 0 0 0 223 15.6z"/><circle cx="222.9" cy="222.9" r="200.8" fill="#f47d30"/><ellipse cx="222.9" cy="216.1" fill="none" stroke="#fff" stroke-miterlimit="10" stroke-width="9.11" rx="202.6" ry="135"/><path fill="none" stroke="#fff" stroke-miterlimit="10" stroke-width="7.81" d="M423.8 222.9v-.2c-53.6-7.8-123.9-12.5-200.8-12.5S75.7 215 22.1 222.7v.2"/></svg>