<svg xmlns="http://www.w3.org/2000/svg" width="960" height="960" viewBox="0 0 720 720"><g style="isolation:isolate"><path d="M352.9 231.1c122.9 0 222.5 99.6 222.5 222.5s-99.6 222.5-222.5 222.5-222.5-99.6-222.5-222.5S230 231.1 352.9 231.1m0-24.5a246.3 246.3 0 1 0 96.2 19.4 245.5 245.5 0 0 0-96.2-19.4z"/><path fill="#5e0d8b" d="M352.9 231.1c122.9 0 222.5 99.6 222.5 222.5s-99.6 222.5-222.5 222.5-222.5-99.6-222.5-222.5S230 231.1 352.9 231.1m0-17.3a239.1 239.1 0 1 0 93.3 18.9 238.3 238.3 0 0 0-93.3-18.9z"/><path fill="#fff" d="M352.9 231.1c122.9 0 222.5 99.6 222.5 222.5s-99.6 222.5-222.5 222.5-222.5-99.6-222.5-222.5S230 231.1 352.9 231.1m0-7.2a229 229 0 1 0 89.4 18.1 228.3 228.3 0 0 0-89.4-18.1z"/><circle cx="352.9" cy="453.6" r="222.5" fill="#f47d30"/><ellipse cx="352.9" cy="446" fill="none" stroke="#fff" stroke-miterlimit="10" stroke-width="10.09" rx="224.4" ry="149.6"/><path d="M408.6 442l-17.5-.2-4.8-228.4c4 .5 7.9 1.2 11.9 1.9z" opacity=".25"/><path fill="#bbb6b4" d="M314.2 388.1l-1.1 53.8c-47.4.8-92.1 3.1-132.3 6.7l-1.1-53.6c40.9-3.7 86.3-6.1 134.5-6.9z"/><path d="M130.6 378.6l-7.7.9 13.7-32.8 13.8-1.7s-6.9 12.9-7.9 15-11.9 18.6-11.9 18.6z" opacity=".25" style="mix-blend-mode:darken"/><path fill="#5e0d8b" d="M179.3 373.4c-17.1 1.5-33.4 3.2-48.7 5.2l6-28.7q17.8-2.2 37.1-3.9z"/><path fill="#cdc9c8" d="M391.1 441.8q-19.2-.4-39-.3t-39 .3l5.7-281.8h66.6z"/><path fill="#5e0d8b" d="M315.2 153.7H389v16.19h-73.8zm-.5 212.9l-.4 21.5c-48.2.8-93.7 3.2-134.5 6.8l-.4-21.4c41-3.7 86.7-6.1 135.3-6.9z"/><path fill="#cdc9c8" d="M180.9 448.5c-17.1 1.5-33.4 3.2-48.7 5.1l-1.5-75c15.3-2 31.6-3.7 48.7-5.2z"/><path fill="#98918f" d="M167.5 434l-22.8 1.9-.8-35.9c3.9-.3 7.8-8.6 11.8-8.9s7.3 7.3 11 7z"/><path fill="#bbb6b4" d="M390 388.1l1.1 53.8c47.4.8 92.1 3.1 132.3 6.7l1.1-53.6c-40.8-3.7-86.2-6.1-134.5-6.9z"/><path d="M573.7 378.6l7.6.8-10.1-32.4-15.7-1.8s6.9 13.1 7.8 15.2 10.4 18.2 10.4 18.2z" opacity=".25" style="mix-blend-mode:darken"/><path fill="#5e0d8b" d="M524.9 373.4c17.1 1.5 33.4 3.2 48.7 5.2l-6-28.7q-17.8-2.2-37.1-3.9zm-135.3-6.8l.4 21.5c48.2.8 93.7 3.2 134.5 6.8l.4-21.4c-41-3.7-86.7-6.1-135.3-6.9z"/><path fill="#cdc9c8" d="M523.4 448.5c17.1 1.5 33.4 3.2 48.7 5.1l1.5-75c-15.3-2-31.6-3.7-48.7-5.2z"/><path fill="#5e0d8b" d="M337.1 96.8L322.8 160h58.6l-14.3-63.2h-30z"/><path d="M179.3 373.4l8.4-.7 1 75.1-7.8.7-1.6-75.1z" opacity=".25" style="mix-blend-mode:darken"/><path fill="#98918f" d="M208.8 432.2l-15.1 1.3-.5-23.8c2.6-.2 4.3-5.7 7-5.9s5.7 4.8 8.2 4.6zm30.2-2l-15.1 1-.5-23.9c2.6-.2 4.3-5.6 7-5.7s5.7 4.9 8.2 4.8zm30.3-1.6l-15.1.7-.5-23.9c2.6-.1 4.3-5.5 7-5.6s5.7 5 8.2 4.9zm30.3-1l-15.1.4-.5-23.9c2.6-.1 4.3-5.4 7-5.5s5.7 5.1 8.2 5zm195.9 4.6l15.1 1.3.5-23.8c-2.6-.2-4.3-5.7-7-5.9s-5.7 4.8-8.2 4.6zm-30.3-2l15.1 1 .5-23.9c-2.6-.2-4.3-5.6-7-5.7s-5.7 4.9-8.2 4.8zm-30.3-1.6l15.1.7.5-23.9c-2.6-.1-4.3-5.5-7-5.6s-5.7 5-8.2 4.9zm-30.3-1l15.1.4.5-23.9c-2.6-.1-4.3-5.4-7-5.5s-5.7 5.1-8.2 5z"/><path d="M389.6 366.6l15.5.3 3.5 75.1-17.5-.2-1.5-75.2z" opacity=".25" style="mix-blend-mode:darken"/><g fill="none" stroke="#000" stroke-miterlimit="10" stroke-width="2.24" opacity=".25" style="mix-blend-mode:darken"><circle cx="353.3" cy="211.5" r="19.6"/><circle cx="352.1" cy="210.4" r="19.6"/></g><circle cx="352.1" cy="210.4" r="19.6" fill="#fff"/><circle cx="352.1" cy="210.4" r="19.6" fill="none" stroke="#5e0d8b" stroke-miterlimit="10" stroke-width="2.24"/><circle cx="352.1" cy="210.4" r="2.4"/><path d="M354.6 211.9a2.8 2.8 0 0 1-1.4 1.2l12.8 5.4-11-8.4a2.8 2.8 0 0 1-.4 1.8zm-13-1.5l7.8 1a2.7 2.7 0 0 1 0-1.9z"/><path fill="none" stroke="#000" stroke-linecap="round" stroke-miterlimit="10" stroke-width=".56" d="M352.1 223.5v3.8m0-1.9v1.9m10.6-6.3l1.4 1.4m-1.4-22.6l1.4-1.3m-22.6 1.3l-1.3-1.3m1.3 22.5l-1.3 1.4m25-12h3.8m-16.9-13v-3.9m-13 16.9h-3.9"/><path fill="#98918f" d="M536.8 434l22.8 1.9.8-35.9c-3.9-.3-7.8-8.6-11.8-8.9s-7.3 7.3-11 7zm-164 7.6v-58.2c-9-1.3-14.6-12.6-20.6-12.6s-11.6 11.3-20.6 12.6v58.2h41.2z"/><path d="M360.4 153.7v-23.3c-3.6-.5-5.8-5-8.2-5s-4.6 4.5-8.2 5v23.3h16.5z" opacity=".25" style="mix-blend-mode:darken"/><path fill="#98918f" d="M345.9 346h-12.5l1.2-96.6h11.7l-.4 96.6zm24.9 0h-12.5l-.3-96.6h11.7l1.1 96.6z"/><path fill="none" stroke="#fff" stroke-miterlimit="10" stroke-width="8.65" d="M575.4 453.6v-.2c-59.4-8.6-137.2-13.8-222.5-13.8s-163.1 5.2-222.5 13.8v.2"/><path fill="none" stroke="#000" stroke-linejoin="round" stroke-width="21.63" d="M103 495.3c-1.1-12.4 6.1-19.7 20.8-21.1l17.5-1.6c14.7-1.4 23.1 4.5 24.3 16.9l5 54.4c1.1 12.4-6.1 19.7-20.8 21.1l-17.5 1.6c-14.7 1.4-23.1-4.5-24.3-16.9zm41.8 53c4.1-.4 6.1-2.3 5.8-5.9l-4.4-47.8c-.3-3.4-2.7-5.1-6.7-4.7l-10 .9c-4.1.4-6.1 2.4-5.8 5.9l4.4 47.8c.3 3.6 2.7 5.1 6.7 4.7zm102.4-82.6c1.7-.1 2.6.7 2.6 2l.7 13.2c.1 1.3-.7 2.2-2.4 2.3l-18.2 1 3.9 73.1c.1 1.5-.7 2.2-2.4 2.3l-16.3.9c-1.6.1-2.5-.5-2.6-2l-3.9-73.1-18.2 1c-1.6.1-2.6-.7-2.6-2l-.7-13.2c-.1-1.3.8-2.2 2.4-2.3zm78.3-2.1c1.7 0 2.5.7 2.6 2.1l.3 13.3c0 1.3-.7 2.1-2.5 2.2l-18.2.4 1.7 73.2c0 1.5-.7 2.1-2.5 2.2l-16.3.4c-1.6 0-2.5-.6-2.6-2.1l-1.7-73.3-18.2.4c-1.6 0-2.5-.7-2.6-2.1l-.3-13.3c0-1.3.9-2.1 2.5-2.2zm70.8 92.9a2.3 2.3 0 0 1-2.5-1.9l-4.9-16.7h-29.6l-5 16.7a2.3 2.3 0 0 1-2.5 1.8h-15.4c-1.7 0-2.5-.8-2-2.3l26.5-88.6a2.4 2.4 0 0 1 2.7-1.8h21.8a2.4 2.4 0 0 1 2.7 1.9l25.7 88.9c.5 1.5-.3 2.3-2.2 2.2zm-22-70.1l-10.1 36H384zm154.2-18.3c2.2.1 3.3 1.2 2.9 2.9l-18.8 87c-.4 1.6-1.5 2.3-3.6 2.2l-17-.7a3.2 3.2 0 0 1-3.4-2.5l-12.1-54.9-16.9 53.7a3.2 3.2 0 0 1-3.6 2.2l-17.3-.7c-2-.1-3.1-.9-3.3-2.7l-10.7-88.1c-.2-1.7.9-2.7 3.1-2.7l14.8.6c1.9.1 2.9.9 3.2 2.7l5.3 55.7h.8l17.7-55a3.2 3.2 0 0 1 3.5-2.1l9.6.4a3.2 3.2 0 0 1 3.4 2.4l13 56.3h.8l10.4-55.1c.4-1.7 1.4-2.5 3.4-2.4zm68.9 99.2a2.3 2.3 0 0 1-2.3-2.1l-3.5-17.1-29.4-2.6-6.3 16.2a2.3 2.3 0 0 1-2.7 1.6l-15.4-1.3c-1.7-.2-2.4-1-1.8-2.4l33.9-86.1a2.4 2.4 0 0 1 2.8-1.6l21.8 1.9a2.4 2.4 0 0 1 2.5 2.1l18 90.7c.3 1.5-.5 2.2-2.4 2.1zm-16-71.7l-13.1 35.1 19.7 1.8z"/><path fill="none" stroke="#5e0d8b" stroke-linejoin="round" stroke-width="14.42" d="M103 495.3c-1.1-12.4 6.1-19.7 20.8-21.1l17.5-1.6c14.7-1.4 23.1 4.5 24.3 16.9l5 54.4c1.1 12.4-6.1 19.7-20.8 21.1l-17.5 1.6c-14.7 1.4-23.1-4.5-24.3-16.9zm41.8 53c4.1-.4 6.1-2.3 5.8-5.9l-4.4-47.8c-.3-3.4-2.7-5.1-6.7-4.7l-10 .9c-4.1.4-6.1 2.4-5.8 5.9l4.4 47.8c.3 3.6 2.7 5.1 6.7 4.7zm102.4-82.6c1.7-.1 2.6.7 2.6 2l.7 13.2c.1 1.3-.7 2.2-2.4 2.3l-18.2 1 3.9 73.1c.1 1.5-.7 2.2-2.4 2.3l-16.3.9c-1.6.1-2.5-.5-2.6-2l-3.9-73.1-18.2 1c-1.6.1-2.6-.7-2.6-2l-.7-13.2c-.1-1.3.8-2.2 2.4-2.3zm78.3-2.1c1.7 0 2.5.7 2.6 2.1l.3 13.3c0 1.3-.7 2.1-2.5 2.2l-18.2.4 1.7 73.2c0 1.5-.7 2.1-2.5 2.2l-16.3.4c-1.6 0-2.5-.6-2.6-2.1l-1.7-73.3-18.2.4c-1.6 0-2.5-.7-2.6-2.1l-.3-13.3c0-1.3.9-2.1 2.5-2.2zm70.8 92.9a2.3 2.3 0 0 1-2.5-1.9l-4.9-16.7h-29.6l-5 16.7a2.3 2.3 0 0 1-2.5 1.8h-15.4c-1.7 0-2.5-.8-2-2.3l26.5-88.6a2.4 2.4 0 0 1 2.7-1.8h21.8a2.4 2.4 0 0 1 2.7 1.9l25.7 88.9c.5 1.5-.3 2.3-2.2 2.2zm-22-70.1l-10.1 36H384zm154.2-18.3c2.2.1 3.3 1.2 2.9 2.9l-18.8 87c-.4 1.6-1.5 2.3-3.6 2.2l-17-.7a3.2 3.2 0 0 1-3.4-2.5l-12.1-54.9-16.9 53.7a3.2 3.2 0 0 1-3.6 2.2l-17.3-.7c-2-.1-3.1-.9-3.3-2.7l-10.7-88.1c-.2-1.7.9-2.7 3.1-2.7l14.8.6c1.9.1 2.9.9 3.2 2.7l5.3 55.7h.8l17.7-55a3.2 3.2 0 0 1 3.5-2.1l9.6.4a3.2 3.2 0 0 1 3.4 2.4l13 56.3h.8l10.4-55.1c.4-1.7 1.4-2.5 3.4-2.4zm68.9 99.2a2.3 2.3 0 0 1-2.3-2.1l-3.5-17.1-29.4-2.6-6.3 16.2a2.3 2.3 0 0 1-2.7 1.6l-15.4-1.3c-1.7-.2-2.4-1-1.8-2.4l33.9-86.1a2.4 2.4 0 0 1 2.8-1.6l21.8 1.9a2.4 2.4 0 0 1 2.5 2.1l18 90.7c.3 1.5-.5 2.2-2.4 2.1zm-16-71.7l-13.1 35.1 19.7 1.8z"/><path fill="#fff" d="M103 495.3c-1.1-12.4 6.1-19.7 20.8-21.1l17.5-1.6c14.7-1.4 23.1 4.5 24.3 16.9l5 54.4c1.1 12.4-6.1 19.7-20.8 21.1l-17.5 1.6c-14.7 1.4-23.1-4.5-24.3-16.9zm41.8 53c4.1-.4 6.1-2.3 5.8-5.9l-4.4-47.8c-.3-3.4-2.7-5.1-6.7-4.7l-10 .9c-4.1.4-6.1 2.4-5.8 5.9l4.4 47.8c.3 3.6 2.7 5.1 6.7 4.7zm102.4-82.6c1.7-.1 2.6.7 2.6 2l.7 13.2c.1 1.3-.7 2.2-2.4 2.3l-18.2 1 3.9 73.1c.1 1.5-.7 2.2-2.4 2.3l-16.3.9c-1.6.1-2.5-.5-2.6-2l-3.9-73.1-18.2 1c-1.6.1-2.6-.7-2.6-2l-.7-13.2c-.1-1.3.8-2.2 2.4-2.3zm78.3-2.1c1.7 0 2.5.7 2.6 2.1l.3 13.3c0 1.3-.7 2.1-2.5 2.2l-18.2.4 1.7 73.2c0 1.5-.7 2.1-2.5 2.2l-16.3.4c-1.6 0-2.5-.6-2.6-2.1l-1.7-73.3-18.2.4c-1.6 0-2.5-.7-2.6-2.1l-.3-13.3c0-1.3.9-2.1 2.5-2.2zm70.8 92.9a2.3 2.3 0 0 1-2.5-1.9l-4.9-16.7h-29.6l-5 16.7a2.3 2.3 0 0 1-2.5 1.8h-15.4c-1.7 0-2.5-.8-2-2.3l26.5-88.6a2.4 2.4 0 0 1 2.7-1.8h21.8a2.4 2.4 0 0 1 2.7 1.9l25.7 88.9c.5 1.5-.3 2.3-2.2 2.2zm-22-70.1l-10.1 36H384zm154.2-18.3c2.2.1 3.3 1.2 2.9 2.9l-18.8 87c-.4 1.6-1.5 2.3-3.6 2.2l-17-.7a3.2 3.2 0 0 1-3.4-2.5l-12.1-54.9-16.9 53.7a3.2 3.2 0 0 1-3.6 2.2l-17.3-.7c-2-.1-3.1-.9-3.3-2.7l-10.7-88.1c-.2-1.7.9-2.7 3.1-2.7l14.8.6c1.9.1 2.9.9 3.2 2.7l5.3 55.7h.8l17.7-55a3.2 3.2 0 0 1 3.5-2.1l9.6.4a3.2 3.2 0 0 1 3.4 2.4l13 56.3h.8l10.4-55.1c.4-1.7 1.4-2.5 3.4-2.4zm68.9 99.2a2.3 2.3 0 0 1-2.3-2.1l-3.5-17.1-29.4-2.6-6.3 16.2a2.3 2.3 0 0 1-2.7 1.6l-15.4-1.3c-1.7-.2-2.4-1-1.8-2.4l33.9-86.1a2.4 2.4 0 0 1 2.8-1.6l21.8 1.9a2.4 2.4 0 0 1 2.5 2.1l18 90.7c.3 1.5-.5 2.2-2.4 2.1zm-16-71.7l-13.1 35.1 19.7 1.8z"/><path fill="none" stroke="#000" stroke-linejoin="round" stroke-width="21.63" d="M218.1 584.8c11.5-.6 18 4.2 18.5 13.9l.4 6.8c.1 1-.5 1.7-1.9 1.8l-12.4.7c-1.2.1-2-.5-2.1-1.5l-.2-4.4c-.1-2.7-1.8-4.1-5.1-3.9l-6.8.4c-3.1.2-4.8 1.7-4.7 4.4l.5 8.8 30.2 6.4c2.1.5 3.3 1.7 3.4 3.7l1.1 19.5c.5 9.7-5.3 15.3-16.9 15.9l-13.8.8c-11.4.6-18-4.2-18.5-13.9l-.4-6.7c-.1-1.1.6-1.7 1.9-1.8l12.4-.7c1.4-.1 2 .4 2.1 1.5l.2 4.4c.2 2.8 2.1 4 5.1 3.9l6.6-.4c3.2-.2 4.8-1.6 4.7-4.4l-.6-10.5-29.8-6.4c-2.2-.5-3.4-1.7-3.5-3.7l-1-17.9c-.5-9.7 5.4-15.3 16.9-15.9zm44.3 13c-.3-9.8 5.8-15.1 17.3-15.4l13.8-.4c11.6-.3 17.8 4.7 18.1 14.5l1.1 42.8c.3 9.8-5.8 15.1-17.3 15.4l-13.8.4c-11.6.3-17.8-4.7-18.1-14.5zm29.9 43.6c3.2-.1 4.9-1.5 4.8-4.3l-1-37.6c-.1-2.7-1.8-4.1-5-4l-7.9.2c-3.2.1-4.9 1.6-4.8 4.3l1 37.6c.1 2.8 1.8 4.1 5 4zm91.7-60.1a2.3 2.3 0 0 1 2.5 2.1V639c0 9.8-6.2 14.9-17.7 14.9h-13.9c-11.6 0-17.7-5.2-17.7-15v-55.6a2.3 2.3 0 0 1 2.5-2.1h11.8a2.3 2.3 0 0 1 2.5 2.1V636c0 2.8 1.7 4.2 4.9 4.2h6.4c3.2 0 4.9-1.3 4.9-4.1v-52.8a2.3 2.3 0 0 1 2.5-2.1zm73.2 1.5c1.4 0 2 .7 1.9 1.7l-.3 10.4c0 1-.7 1.6-2 1.6l-14.3-.4-1.5 57.3c0 1.1-.7 1.6-2 1.6l-12.8-.3c-1.2 0-2-.6-1.9-1.7l1.5-57.3-14.3-.4c-1.2 0-1.9-.7-1.9-1.7l.3-10.4c0-1 .8-1.6 2-1.6zm58 4.5c.1-1 .8-1.6 2.1-1.5l12.6.7c1.5.1 2.1.7 2 1.8l-3.8 69.2c-.1 1-.7 1.6-2.2 1.5l-12.6-.7c-1.2-.1-1.9-.7-1.9-1.8l1.5-27.6-15.7-.9-1.5 27.6c-.1 1-.8 1.6-2.1 1.5l-12.6-.7c-1.5-.1-2.1-.7-2-1.8l3.8-69.2c.1-1 .7-1.6 2.2-1.5l12.6.7c1.2.1 1.9.7 1.9 1.8l-1.6 28 15.7.9z"/><path fill="none" stroke="#5e0d8b" stroke-linejoin="round" stroke-width="14.42" d="M218.1 584.8c11.5-.6 18 4.2 18.5 13.9l.4 6.8c.1 1-.5 1.7-1.9 1.8l-12.4.7c-1.2.1-2-.5-2.1-1.5l-.2-4.4c-.1-2.7-1.8-4.1-5.1-3.9l-6.8.4c-3.1.2-4.8 1.7-4.7 4.4l.5 8.8 30.2 6.4c2.1.5 3.3 1.7 3.4 3.7l1.1 19.5c.5 9.7-5.3 15.3-16.9 15.9l-13.8.8c-11.4.6-18-4.2-18.5-13.9l-.4-6.7c-.1-1.1.6-1.7 1.9-1.8l12.4-.7c1.4-.1 2 .4 2.1 1.5l.2 4.4c.2 2.8 2.1 4 5.1 3.9l6.6-.4c3.2-.2 4.8-1.6 4.7-4.4l-.6-10.5-29.8-6.4c-2.2-.5-3.4-1.7-3.5-3.7l-1-17.9c-.5-9.7 5.4-15.3 16.9-15.9zm44.3 13c-.3-9.8 5.8-15.1 17.3-15.4l13.8-.4c11.6-.3 17.8 4.7 18.1 14.5l1.1 42.8c.3 9.8-5.8 15.1-17.3 15.4l-13.8.4c-11.6.3-17.8-4.7-18.1-14.5zm29.9 43.6c3.2-.1 4.9-1.5 4.8-4.3l-1-37.6c-.1-2.7-1.8-4.1-5-4l-7.9.2c-3.2.1-4.9 1.6-4.8 4.3l1 37.6c.1 2.8 1.8 4.1 5 4zm91.7-60.1a2.3 2.3 0 0 1 2.5 2.1V639c0 9.8-6.2 14.9-17.7 14.9h-13.9c-11.6 0-17.7-5.2-17.7-15v-55.6a2.3 2.3 0 0 1 2.5-2.1h11.8a2.3 2.3 0 0 1 2.5 2.1V636c0 2.8 1.7 4.2 4.9 4.2h6.4c3.2 0 4.9-1.3 4.9-4.1v-52.8a2.3 2.3 0 0 1 2.5-2.1zm73.2 1.5c1.4 0 2 .7 1.9 1.7l-.3 10.4c0 1-.7 1.6-2 1.6l-14.3-.4-1.5 57.3c0 1.1-.7 1.6-2 1.6l-12.8-.3c-1.2 0-2-.6-1.9-1.7l1.5-57.3-14.3-.4c-1.2 0-1.9-.7-1.9-1.7l.3-10.4c0-1 .8-1.6 2-1.6zm58 4.5c.1-1 .8-1.6 2.1-1.5l12.6.7c1.5.1 2.1.7 2 1.8l-3.8 69.2c-.1 1-.7 1.6-2.2 1.5l-12.6-.7c-1.2-.1-1.9-.7-1.9-1.8l1.5-27.6-15.7-.9-1.5 27.6c-.1 1-.8 1.6-2.1 1.5l-12.6-.7c-1.5-.1-2.1-.7-2-1.8l3.8-69.2c.1-1 .7-1.6 2.2-1.5l12.6.7c1.2.1 1.9.7 1.9 1.8l-1.6 28 15.7.9z"/><path fill="#fff" d="M218.1 584.8c11.5-.6 18 4.2 18.5 13.9l.4 6.8c.1 1-.5 1.7-1.9 1.8l-12.4.7c-1.2.1-2-.5-2.1-1.5l-.2-4.4c-.1-2.7-1.8-4.1-5.1-3.9l-6.8.4c-3.1.2-4.8 1.7-4.7 4.4l.5 8.8 30.2 6.4c2.1.5 3.3 1.7 3.4 3.7l1.1 19.5c.5 9.7-5.3 15.3-16.9 15.9l-13.8.8c-11.4.6-18-4.2-18.5-13.9l-.4-6.7c-.1-1.1.6-1.7 1.9-1.8l12.4-.7c1.4-.1 2 .4 2.1 1.5l.2 4.4c.2 2.8 2.1 4 5.1 3.9l6.6-.4c3.2-.2 4.8-1.6 4.7-4.4l-.6-10.5-29.8-6.4c-2.2-.5-3.4-1.7-3.5-3.7l-1-17.9c-.5-9.7 5.4-15.3 16.9-15.9zm44.3 13c-.3-9.8 5.8-15.1 17.3-15.4l13.8-.4c11.6-.3 17.8 4.7 18.1 14.5l1.1 42.8c.3 9.8-5.8 15.1-17.3 15.4l-13.8.4c-11.6.3-17.8-4.7-18.1-14.5zm29.9 43.6c3.2-.1 4.9-1.5 4.8-4.3l-1-37.6c-.1-2.7-1.8-4.1-5-4l-7.9.2c-3.2.1-4.9 1.6-4.8 4.3l1 37.6c.1 2.8 1.8 4.1 5 4zm91.7-60.1a2.3 2.3 0 0 1 2.5 2.1V639c0 9.8-6.2 14.9-17.7 14.9h-13.9c-11.6 0-17.7-5.2-17.7-15v-55.6a2.3 2.3 0 0 1 2.5-2.1h11.8a2.3 2.3 0 0 1 2.5 2.1V636c0 2.8 1.7 4.2 4.9 4.2h6.4c3.2 0 4.9-1.3 4.9-4.1v-52.8a2.3 2.3 0 0 1 2.5-2.1zm73.2 1.5c1.4 0 2 .7 1.9 1.7l-.3 10.4c0 1-.7 1.6-2 1.6l-14.3-.4-1.5 57.3c0 1.1-.7 1.6-2 1.6l-12.8-.3c-1.2 0-2-.6-1.9-1.7l1.5-57.3-14.3-.4c-1.2 0-1.9-.7-1.9-1.7l.3-10.4c0-1 .8-1.6 2-1.6zm58 4.5c.1-1 .8-1.6 2.1-1.5l12.6.7c1.5.1 2.1.7 2 1.8l-3.8 69.2c-.1 1-.7 1.6-2.2 1.5l-12.6-.7c-1.2-.1-1.9-.7-1.9-1.8l1.5-27.6-15.7-.9-1.5 27.6c-.1 1-.8 1.6-2.1 1.5l-12.6-.7c-1.5-.1-2.1-.7-2-1.8l3.8-69.2c.1-1 .7-1.6 2.2-1.5l12.6.7c1.2.1 1.9.7 1.9 1.8l-1.6 28 15.7.9z"/><path fill="#cdc9c8" d="M350.6 47.1h3.1v49.72h-3.1z"/><circle cx="352.1" cy="45.9" r="2" fill="#5e0d8b"/><path fill="#5e0d8b" d="M386.8 48.3v15.6c-11.1 4.9-22.1-3.9-33.2 1V47.3c11.1-4.2 22.2 5.3 33.2 1z"/><path fill="#fff" stroke="#fff" stroke-miterlimit="10" stroke-width="1.11" d="M378.5 65.5c-5.5-.1-11.1-2-16.6-2.1V46.3c5.5.5 11.1 2.6 16.6 3.1z"/><path fill="#5e0d8b" d="M370 62.4v-2.9a.4.4 0 0 0-.2-.3H367v-.8a.4.4 0 0 0-.1-.4l-2.1-2-.7-.7h.6c.1 0 .1-.1.1-.2v-.5l-.4-1.4 1.2.5h.3a.2.2 0 0 0 .3-.1l.2-.7h.1l.7.9.5.7.2.2c.1.1.2 0 .3-.1a.7.7 0 0 0 0-.3V51l.7.5h.5l.2-.2.9-1.4v.2l.9 1.9.3.2h.2l.7-.2-.2.9-.2 1.1v.7a.5.5 0 0 0 0 .2.2.2 0 0 0 .3.2h.2l1.1-1 .2-.2v.7a.3.3 0 0 0 .3.2h1.6l-.5 1.6a.2.2 0 0 0 .1.2h.2l.4.2h-.1l-1.1.7-1.1.7-.4.3a.3.3 0 0 0-.1.4l.2.8-.6-.2-.6-.2-.6-.2-.5-.2h-.6a.2.2 0 0 0-.1.2V62z"/></g></svg>