<svg xmlns="http://www.w3.org/2000/svg" width="10in" height="10in" viewBox="0 0 720 720"><title>logo</title><g style="isolation:isolate"><g id="Layer_1" data-name="Layer 1"><path d="M352.9,231.1c122.9,0,222.5,99.6,222.5,222.5S475.8,676.1,352.9,676.1,130.4,576.5,130.4,453.6,230,231.1,352.9,231.1m0-24.5A246.3,246.3,0,1,0,449.1,226a245.5,245.5,0,0,0-96.2-19.4Z"/><path d="M352.9,231.1c122.9,0,222.5,99.6,222.5,222.5S475.8,676.1,352.9,676.1,130.4,576.5,130.4,453.6,230,231.1,352.9,231.1m0-17.3a239.1,239.1,0,1,0,93.3,18.9,238.3,238.3,0,0,0-93.3-18.9Z" fill="#5e0d8b"/><path d="M352.9,231.1c122.9,0,222.5,99.6,222.5,222.5S475.8,676.1,352.9,676.1,130.4,576.5,130.4,453.6,230,231.1,352.9,231.1m0-7.2A229,229,0,1,0,442.3,242a228.3,228.3,0,0,0-89.4-18.1Z" fill="#fff"/><circle cx="352.9" cy="453.6" r="222.5" fill="#f47d30"/><ellipse cx="352.9" cy="446" rx="224.4" ry="149.6" fill="none" stroke="#fff" stroke-miterlimit="10" stroke-width="10.09"/><path d="M408.6,442l-17.5-.2-4.8-228.4c4,.5,7.9,1.2,11.9,1.9Z" opacity="0.25"/><path d="M314.2,388.1l-1.1,53.8c-47.4.8-92.1,3.1-132.3,6.7l-1.1-53.6C220.6,391.3,266,388.9,314.2,388.1Z" fill="#bbb6b4"/><path d="M130.6,378.6l-7.7.9,13.7-32.8,13.8-1.7s-6.9,12.9-7.9,15S130.6,378.6,130.6,378.6Z" opacity="0.25" style="mix-blend-mode:darken"/><path d="M179.3,373.4c-17.1,1.5-33.4,3.2-48.7,5.2h0l6-28.7q17.8-2.2,37.1-3.9Z" fill="#5e0d8b"/><path d="M391.1,441.8q-19.2-.4-39-.3t-39,.3L318.8,160h66.6Z" fill="#cdc9c8"/><rect x="315.2" y="153.7" width="73.8" height="16.19" fill="#5e0d8b"/><path d="M314.7,366.6l-.4,21.5c-48.2.8-93.7,3.2-134.5,6.8l-.4-21.4C220.4,369.8,266.1,367.4,314.7,366.6Z" fill="#5e0d8b"/><path d="M180.9,448.5c-17.1,1.5-33.4,3.2-48.7,5.1l-1.5-75c15.3-2,31.6-3.7,48.7-5.2Z" fill="#cdc9c8"/><path d="M167.5,434l-22.8,1.9-.8-35.9c3.9-.3,7.8-8.6,11.8-8.9s7.3,7.3,11,7Z" fill="#98918f"/><path d="M390,388.1l1.1,53.8c47.4.8,92.1,3.1,132.3,6.7l1.1-53.6C483.7,391.3,438.3,388.9,390,388.1Z" fill="#bbb6b4"/><path d="M573.7,378.6l7.6.8L571.2,347l-15.7-1.8s6.9,13.1,7.8,15.2S573.7,378.6,573.7,378.6Z" opacity="0.25" style="mix-blend-mode:darken"/><path d="M524.9,373.4c17.1,1.5,33.4,3.2,48.7,5.2h0l-6-28.7q-17.8-2.2-37.1-3.9Z" fill="#5e0d8b"/><path d="M389.6,366.6l.4,21.5c48.2.8,93.7,3.2,134.5,6.8l.4-21.4C483.9,369.8,438.2,367.4,389.6,366.6Z" fill="#5e0d8b"/><path d="M523.4,448.5c17.1,1.5,33.4,3.2,48.7,5.1l1.5-75c-15.3-2-31.6-3.7-48.7-5.2Z" fill="#cdc9c8"/><polygon points="337.1 96.8 322.8 160 381.4 160 367.1 96.8 337.1 96.8" fill="#5e0d8b"/><polygon points="179.3 373.4 187.7 372.7 188.7 447.8 180.9 448.5 179.3 373.4" opacity="0.25" style="mix-blend-mode:darken"/><path d="M208.8,432.2l-15.1,1.3-.5-23.8c2.6-.2,4.3-5.7,7-5.9s5.7,4.8,8.2,4.6Z" fill="#98918f"/><path d="M239,430.2l-15.1,1-.5-23.9c2.6-.2,4.3-5.6,7-5.7s5.7,4.9,8.2,4.8Z" fill="#98918f"/><path d="M269.3,428.6l-15.1.7-.5-23.9c2.6-.1,4.3-5.5,7-5.6s5.7,5,8.2,4.9Z" fill="#98918f"/><path d="M299.6,427.6l-15.1.4-.5-23.9c2.6-.1,4.3-5.4,7-5.5s5.7,5.1,8.2,5Z" fill="#98918f"/><path d="M495.5,432.2l15.1,1.3.5-23.8c-2.6-.2-4.3-5.7-7-5.9s-5.7,4.8-8.2,4.6Z" fill="#98918f"/><path d="M465.2,430.2l15.1,1,.5-23.9c-2.6-.2-4.3-5.6-7-5.7s-5.7,4.9-8.2,4.8Z" fill="#98918f"/><path d="M434.9,428.6l15.1.7.5-23.9c-2.6-.1-4.3-5.5-7-5.6s-5.7,5-8.2,4.9Z" fill="#98918f"/><path d="M404.6,427.6l15.1.4.5-23.9c-2.6-.1-4.3-5.4-7-5.5s-5.7,5.1-8.2,5Z" fill="#98918f"/><polygon points="389.6 366.6 405.1 366.9 408.6 442 391.1 441.8 389.6 366.6" opacity="0.25" style="mix-blend-mode:darken"/><g opacity="0.25" style="mix-blend-mode:darken"><circle cx="353.3" cy="211.5" r="19.6" fill="none" stroke="#000" stroke-miterlimit="10" stroke-width="2.24"/><circle cx="352.1" cy="210.4" r="19.6" fill="none" stroke="#000" stroke-miterlimit="10" stroke-width="2.24"/></g><circle cx="352.1" cy="210.4" r="19.6" fill="#fff"/><circle cx="352.1" cy="210.4" r="19.6" fill="none" stroke="#5e0d8b" stroke-miterlimit="10" stroke-width="2.24"/><circle cx="352.1" cy="210.4" r="2.4"/><path d="M354.6,211.9a2.8,2.8,0,0,1-1.4,1.2l12.8,5.4L355,210.1A2.8,2.8,0,0,1,354.6,211.9Z"/><path d="M341.6,210.4l7.8,1a2.7,2.7,0,0,1,0-1.9Z"/><line x1="352.1" y1="223.5" x2="352.1" y2="227.3" fill="none" stroke="#000" stroke-linecap="round" stroke-miterlimit="10" stroke-width="0.56"/><line x1="352.1" y1="225.4" x2="352.1" y2="227.3" fill="none" stroke="#000" stroke-linecap="round" stroke-miterlimit="10" stroke-width="0.56"/><line x1="362.7" y1="221" x2="364.1" y2="222.4" fill="none" stroke="#000" stroke-linecap="round" stroke-miterlimit="10" stroke-width="0.56"/><line x1="362.7" y1="199.8" x2="364.1" y2="198.5" fill="none" stroke="#000" stroke-linecap="round" stroke-miterlimit="10" stroke-width="0.56"/><line x1="341.5" y1="199.8" x2="340.2" y2="198.5" fill="none" stroke="#000" stroke-linecap="round" stroke-miterlimit="10" stroke-width="0.56"/><line x1="341.5" y1="221" x2="340.2" y2="222.4" fill="none" stroke="#000" stroke-linecap="round" stroke-miterlimit="10" stroke-width="0.56"/><line x1="365.2" y1="210.4" x2="369" y2="210.4" fill="none" stroke="#000" stroke-linecap="round" stroke-miterlimit="10" stroke-width="0.56"/><line x1="352.1" y1="197.4" x2="352.1" y2="193.5" fill="none" stroke="#000" stroke-linecap="round" stroke-miterlimit="10" stroke-width="0.56"/><line x1="339.1" y1="210.4" x2="335.2" y2="210.4" fill="none" stroke="#000" stroke-linecap="round" stroke-miterlimit="10" stroke-width="0.56"/><path d="M536.8,434l22.8,1.9.8-35.9c-3.9-.3-7.8-8.6-11.8-8.9s-7.3,7.3-11,7Z" fill="#98918f"/><path d="M372.8,441.6V383.4c-9-1.3-14.6-12.6-20.6-12.6s-11.6,11.3-20.6,12.6v58.2h41.2Z" fill="#98918f"/><g opacity="0.25" style="mix-blend-mode:darken"><path d="M360.4,153.7V130.4c-3.6-.5-5.8-5-8.2-5s-4.6,4.5-8.2,5v23.3h16.5Z"/></g><polygon points="345.9 346 333.4 346 334.6 249.4 346.3 249.4 345.9 346" fill="#98918f"/><polygon points="370.8 346 358.3 346 358 249.4 369.7 249.4 370.8 346" fill="#98918f"/><path d="M575.4,453.6v-.2c-59.4-8.6-137.2-13.8-222.5-13.8s-163.1,5.2-222.5,13.8v.2" fill="none" stroke="#fff" stroke-miterlimit="10" stroke-width="8.65"/><path d="M103,495.3c-1.1-12.4,6.1-19.7,20.8-21.1l17.5-1.6c14.7-1.4,23.1,4.5,24.3,16.9l5,54.4c1.1,12.4-6.1,19.7-20.8,21.1l-17.5,1.6c-14.7,1.4-23.1-4.5-24.3-16.9Zm41.8,53c4.1-.4,6.1-2.3,5.8-5.9l-4.4-47.8c-.3-3.4-2.7-5.1-6.7-4.7l-10,.9c-4.1.4-6.1,2.4-5.8,5.9l4.4,47.8c.3,3.6,2.7,5.1,6.7,4.7Z" fill="none" stroke="#000" stroke-linejoin="round" stroke-width="21.63"/><path d="M247.2,465.7c1.7-.1,2.6.7,2.6,2l.7,13.2c.1,1.3-.7,2.2-2.4,2.3l-18.2,1,3.9,73.1c.1,1.5-.7,2.2-2.4,2.3l-16.3.9c-1.6.1-2.5-.5-2.6-2l-3.9-73.1-18.2,1c-1.6.1-2.6-.7-2.6-2l-.7-13.2c-.1-1.3.8-2.2,2.4-2.3Z" fill="none" stroke="#000" stroke-linejoin="round" stroke-width="21.63"/><path d="M325.5,463.6c1.7,0,2.5.7,2.6,2.1l.3,13.3c0,1.3-.7,2.1-2.5,2.2l-18.2.4,1.7,73.2c0,1.5-.7,2.1-2.5,2.2l-16.3.4c-1.6,0-2.5-.6-2.6-2.1L286.3,482l-18.2.4c-1.6,0-2.5-.7-2.6-2.1l-.3-13.3c0-1.3.9-2.1,2.5-2.2Z" fill="none" stroke="#000" stroke-linejoin="round" stroke-width="21.63"/><path d="M396.3,556.5a2.3,2.3,0,0,1-2.5-1.9l-4.9-16.7H359.3l-5,16.7a2.3,2.3,0,0,1-2.5,1.8H336.4c-1.7,0-2.5-.8-2-2.3l26.5-88.6a2.4,2.4,0,0,1,2.7-1.8h21.8a2.4,2.4,0,0,1,2.7,1.9l25.7,88.9c.5,1.5-.3,2.3-2.2,2.2Zm-22-70.1-10.1,36h19.8Z" fill="none" stroke="#000" stroke-linejoin="round" stroke-width="21.63"/><path d="M528.5,468.1c2.2.1,3.3,1.2,2.9,2.9l-18.8,87c-.4,1.6-1.5,2.3-3.6,2.2l-17-.7a3.2,3.2,0,0,1-3.4-2.5l-12.1-54.9-16.9,53.7a3.2,3.2,0,0,1-3.6,2.2l-17.3-.7c-2-.1-3.1-.9-3.3-2.7l-10.7-88.1c-.2-1.7.9-2.7,3.1-2.7l14.8.6c1.9.1,2.9.9,3.2,2.7l5.3,55.7h.8l17.7-55a3.2,3.2,0,0,1,3.5-2.1l9.6.4a3.2,3.2,0,0,1,3.4,2.4l13,56.3h.8l10.4-55.1c.4-1.7,1.4-2.5,3.4-2.4Z" fill="none" stroke="#000" stroke-linejoin="round" stroke-width="21.63"/><path d="M597.4,567.3a2.3,2.3,0,0,1-2.3-2.1l-3.5-17.1-29.4-2.6-6.3,16.2a2.3,2.3,0,0,1-2.7,1.6L537.8,562c-1.7-.2-2.4-1-1.8-2.4l33.9-86.1a2.4,2.4,0,0,1,2.8-1.6l21.8,1.9a2.4,2.4,0,0,1,2.5,2.1L615,566.6c.3,1.5-.5,2.2-2.4,2.1Zm-16-71.7-13.1,35.1,19.7,1.8Z" fill="none" stroke="#000" stroke-linejoin="round" stroke-width="21.63"/><path d="M103,495.3c-1.1-12.4,6.1-19.7,20.8-21.1l17.5-1.6c14.7-1.4,23.1,4.5,24.3,16.9l5,54.4c1.1,12.4-6.1,19.7-20.8,21.1l-17.5,1.6c-14.7,1.4-23.1-4.5-24.3-16.9Zm41.8,53c4.1-.4,6.1-2.3,5.8-5.9l-4.4-47.8c-.3-3.4-2.7-5.1-6.7-4.7l-10,.9c-4.1.4-6.1,2.4-5.8,5.9l4.4,47.8c.3,3.6,2.7,5.1,6.7,4.7Z" fill="none" stroke="#5e0d8b" stroke-linejoin="round" stroke-width="14.42"/><path d="M247.2,465.7c1.7-.1,2.6.7,2.6,2l.7,13.2c.1,1.3-.7,2.2-2.4,2.3l-18.2,1,3.9,73.1c.1,1.5-.7,2.2-2.4,2.3l-16.3.9c-1.6.1-2.5-.5-2.6-2l-3.9-73.1-18.2,1c-1.6.1-2.6-.7-2.6-2l-.7-13.2c-.1-1.3.8-2.2,2.4-2.3Z" fill="none" stroke="#5e0d8b" stroke-linejoin="round" stroke-width="14.42"/><path d="M325.5,463.6c1.7,0,2.5.7,2.6,2.1l.3,13.3c0,1.3-.7,2.1-2.5,2.2l-18.2.4,1.7,73.2c0,1.5-.7,2.1-2.5,2.2l-16.3.4c-1.6,0-2.5-.6-2.6-2.1L286.3,482l-18.2.4c-1.6,0-2.5-.7-2.6-2.1l-.3-13.3c0-1.3.9-2.1,2.5-2.2Z" fill="none" stroke="#5e0d8b" stroke-linejoin="round" stroke-width="14.42"/><path d="M396.3,556.5a2.3,2.3,0,0,1-2.5-1.9l-4.9-16.7H359.3l-5,16.7a2.3,2.3,0,0,1-2.5,1.8H336.4c-1.7,0-2.5-.8-2-2.3l26.5-88.6a2.4,2.4,0,0,1,2.7-1.8h21.8a2.4,2.4,0,0,1,2.7,1.9l25.7,88.9c.5,1.5-.3,2.3-2.2,2.2Zm-22-70.1-10.1,36h19.8Z" fill="none" stroke="#5e0d8b" stroke-linejoin="round" stroke-width="14.42"/><path d="M528.5,468.1c2.2.1,3.3,1.2,2.9,2.9l-18.8,87c-.4,1.6-1.5,2.3-3.6,2.2l-17-.7a3.2,3.2,0,0,1-3.4-2.5l-12.1-54.9-16.9,53.7a3.2,3.2,0,0,1-3.6,2.2l-17.3-.7c-2-.1-3.1-.9-3.3-2.7l-10.7-88.1c-.2-1.7.9-2.7,3.1-2.7l14.8.6c1.9.1,2.9.9,3.2,2.7l5.3,55.7h.8l17.7-55a3.2,3.2,0,0,1,3.5-2.1l9.6.4a3.2,3.2,0,0,1,3.4,2.4l13,56.3h.8l10.4-55.1c.4-1.7,1.4-2.5,3.4-2.4Z" fill="none" stroke="#5e0d8b" stroke-linejoin="round" stroke-width="14.42"/><path d="M597.4,567.3a2.3,2.3,0,0,1-2.3-2.1l-3.5-17.1-29.4-2.6-6.3,16.2a2.3,2.3,0,0,1-2.7,1.6L537.8,562c-1.7-.2-2.4-1-1.8-2.4l33.9-86.1a2.4,2.4,0,0,1,2.8-1.6l21.8,1.9a2.4,2.4,0,0,1,2.5,2.1L615,566.6c.3,1.5-.5,2.2-2.4,2.1Zm-16-71.7-13.1,35.1,19.7,1.8Z" fill="none" stroke="#5e0d8b" stroke-linejoin="round" stroke-width="14.42"/><path d="M103,495.3c-1.1-12.4,6.1-19.7,20.8-21.1l17.5-1.6c14.7-1.4,23.1,4.5,24.3,16.9l5,54.4c1.1,12.4-6.1,19.7-20.8,21.1l-17.5,1.6c-14.7,1.4-23.1-4.5-24.3-16.9Zm41.8,53c4.1-.4,6.1-2.3,5.8-5.9l-4.4-47.8c-.3-3.4-2.7-5.1-6.7-4.7l-10,.9c-4.1.4-6.1,2.4-5.8,5.9l4.4,47.8c.3,3.6,2.7,5.1,6.7,4.7Z" fill="#fff"/><path d="M247.2,465.7c1.7-.1,2.6.7,2.6,2l.7,13.2c.1,1.3-.7,2.2-2.4,2.3l-18.2,1,3.9,73.1c.1,1.5-.7,2.2-2.4,2.3l-16.3.9c-1.6.1-2.5-.5-2.6-2l-3.9-73.1-18.2,1c-1.6.1-2.6-.7-2.6-2l-.7-13.2c-.1-1.3.8-2.2,2.4-2.3Z" fill="#fff"/><path d="M325.5,463.6c1.7,0,2.5.7,2.6,2.1l.3,13.3c0,1.3-.7,2.1-2.5,2.2l-18.2.4,1.7,73.2c0,1.5-.7,2.1-2.5,2.2l-16.3.4c-1.6,0-2.5-.6-2.6-2.1L286.3,482l-18.2.4c-1.6,0-2.5-.7-2.6-2.1l-.3-13.3c0-1.3.9-2.1,2.5-2.2Z" fill="#fff"/><path d="M396.3,556.5a2.3,2.3,0,0,1-2.5-1.9l-4.9-16.7H359.3l-5,16.7a2.3,2.3,0,0,1-2.5,1.8H336.4c-1.7,0-2.5-.8-2-2.3l26.5-88.6a2.4,2.4,0,0,1,2.7-1.8h21.8a2.4,2.4,0,0,1,2.7,1.9l25.7,88.9c.5,1.5-.3,2.3-2.2,2.2Zm-22-70.1-10.1,36h19.8Z" fill="#fff"/><path d="M528.5,468.1c2.2.1,3.3,1.2,2.9,2.9l-18.8,87c-.4,1.6-1.5,2.3-3.6,2.2l-17-.7a3.2,3.2,0,0,1-3.4-2.5l-12.1-54.9-16.9,53.7a3.2,3.2,0,0,1-3.6,2.2l-17.3-.7c-2-.1-3.1-.9-3.3-2.7l-10.7-88.1c-.2-1.7.9-2.7,3.1-2.7l14.8.6c1.9.1,2.9.9,3.2,2.7l5.3,55.7h.8l17.7-55a3.2,3.2,0,0,1,3.5-2.1l9.6.4a3.2,3.2,0,0,1,3.4,2.4l13,56.3h.8l10.4-55.1c.4-1.7,1.4-2.5,3.4-2.4Z" fill="#fff"/><path d="M597.4,567.3a2.3,2.3,0,0,1-2.3-2.1l-3.5-17.1-29.4-2.6-6.3,16.2a2.3,2.3,0,0,1-2.7,1.6L537.8,562c-1.7-.2-2.4-1-1.8-2.4l33.9-86.1a2.4,2.4,0,0,1,2.8-1.6l21.8,1.9a2.4,2.4,0,0,1,2.5,2.1L615,566.6c.3,1.5-.5,2.2-2.4,2.1Zm-16-71.7-13.1,35.1,19.7,1.8Z" fill="#fff"/><path d="M218.1,584.8c11.5-.6,18,4.2,18.5,13.9l.4,6.8c.1,1-.5,1.7-1.9,1.8l-12.4.7c-1.2.1-2-.5-2.1-1.5l-.2-4.4c-.1-2.7-1.8-4.1-5.1-3.9l-6.8.4c-3.1.2-4.8,1.7-4.7,4.4l.5,8.8,30.2,6.4c2.1.5,3.3,1.7,3.4,3.7l1.1,19.5c.5,9.7-5.3,15.3-16.9,15.9l-13.8.8c-11.4.6-18-4.2-18.5-13.9l-.4-6.7c-.1-1.1.6-1.7,1.9-1.8l12.4-.7c1.4-.1,2,.4,2.1,1.5l.2,4.4c.2,2.8,2.1,4,5.1,3.9l6.6-.4c3.2-.2,4.8-1.6,4.7-4.4l-.6-10.5L192,623.1c-2.2-.5-3.4-1.7-3.5-3.7l-1-17.9c-.5-9.7,5.4-15.3,16.9-15.9Z" fill="none" stroke="#000" stroke-linejoin="round" stroke-width="21.63"/><path d="M262.4,597.8c-.3-9.8,5.8-15.1,17.3-15.4l13.8-.4c11.6-.3,17.8,4.7,18.1,14.5l1.1,42.8c.3,9.8-5.8,15.1-17.3,15.4l-13.8.4c-11.6.3-17.8-4.7-18.1-14.5Zm29.9,43.6c3.2-.1,4.9-1.5,4.8-4.3l-1-37.6c-.1-2.7-1.8-4.1-5-4l-7.9.2c-3.2.1-4.9,1.6-4.8,4.3l1,37.6c.1,2.8,1.8,4.1,5,4Z" fill="none" stroke="#000" stroke-linejoin="round" stroke-width="21.63"/><path d="M384,581.3a2.3,2.3,0,0,1,2.5,2.1V639c0,9.8-6.2,14.9-17.7,14.9H354.9c-11.6,0-17.7-5.2-17.7-15V583.3a2.3,2.3,0,0,1,2.5-2.1h11.8a2.3,2.3,0,0,1,2.5,2.1V636c0,2.8,1.7,4.2,4.9,4.2h6.4c3.2,0,4.9-1.3,4.9-4.1V583.3a2.3,2.3,0,0,1,2.5-2.1Z" fill="none" stroke="#000" stroke-linejoin="round" stroke-width="21.63"/><path d="M457.2,582.8c1.4,0,2,.7,1.9,1.7l-.3,10.4c0,1-.7,1.6-2,1.6l-14.3-.4-1.5,57.3c0,1.1-.7,1.6-2,1.6l-12.8-.3c-1.2,0-2-.6-1.9-1.7l1.5-57.3-14.3-.4c-1.2,0-1.9-.7-1.9-1.7l.3-10.4c0-1,.8-1.6,2-1.6Z" fill="none" stroke="#000" stroke-linejoin="round" stroke-width="21.63"/><path d="M515.2,587.3c.1-1,.8-1.6,2.1-1.5l12.6.7c1.5.1,2.1.7,2,1.8l-3.8,69.2c-.1,1-.7,1.6-2.2,1.5l-12.6-.7c-1.2-.1-1.9-.7-1.9-1.8l1.5-27.6-15.7-.9-1.5,27.6c-.1,1-.8,1.6-2.1,1.5l-12.6-.7c-1.5-.1-2.1-.7-2-1.8l3.8-69.2c.1-1,.7-1.6,2.2-1.5l12.6.7c1.2.1,1.9.7,1.9,1.8l-1.6,28,15.7.9Z" fill="none" stroke="#000" stroke-linejoin="round" stroke-width="21.63"/><path d="M218.1,584.8c11.5-.6,18,4.2,18.5,13.9l.4,6.8c.1,1-.5,1.7-1.9,1.8l-12.4.7c-1.2.1-2-.5-2.1-1.5l-.2-4.4c-.1-2.7-1.8-4.1-5.1-3.9l-6.8.4c-3.1.2-4.8,1.7-4.7,4.4l.5,8.8,30.2,6.4c2.1.5,3.3,1.7,3.4,3.7l1.1,19.5c.5,9.7-5.3,15.3-16.9,15.9l-13.8.8c-11.4.6-18-4.2-18.5-13.9l-.4-6.7c-.1-1.1.6-1.7,1.9-1.8l12.4-.7c1.4-.1,2,.4,2.1,1.5l.2,4.4c.2,2.8,2.1,4,5.1,3.9l6.6-.4c3.2-.2,4.8-1.6,4.7-4.4l-.6-10.5L192,623.1c-2.2-.5-3.4-1.7-3.5-3.7l-1-17.9c-.5-9.7,5.4-15.3,16.9-15.9Z" fill="none" stroke="#5e0d8b" stroke-linejoin="round" stroke-width="14.42"/><path d="M262.4,597.8c-.3-9.8,5.8-15.1,17.3-15.4l13.8-.4c11.6-.3,17.8,4.7,18.1,14.5l1.1,42.8c.3,9.8-5.8,15.1-17.3,15.4l-13.8.4c-11.6.3-17.8-4.7-18.1-14.5Zm29.9,43.6c3.2-.1,4.9-1.5,4.8-4.3l-1-37.6c-.1-2.7-1.8-4.1-5-4l-7.9.2c-3.2.1-4.9,1.6-4.8,4.3l1,37.6c.1,2.8,1.8,4.1,5,4Z" fill="none" stroke="#5e0d8b" stroke-linejoin="round" stroke-width="14.42"/><path d="M384,581.3a2.3,2.3,0,0,1,2.5,2.1V639c0,9.8-6.2,14.9-17.7,14.9H354.9c-11.6,0-17.7-5.2-17.7-15V583.3a2.3,2.3,0,0,1,2.5-2.1h11.8a2.3,2.3,0,0,1,2.5,2.1V636c0,2.8,1.7,4.2,4.9,4.2h6.4c3.2,0,4.9-1.3,4.9-4.1V583.3a2.3,2.3,0,0,1,2.5-2.1Z" fill="none" stroke="#5e0d8b" stroke-linejoin="round" stroke-width="14.42"/><path d="M457.2,582.8c1.4,0,2,.7,1.9,1.7l-.3,10.4c0,1-.7,1.6-2,1.6l-14.3-.4-1.5,57.3c0,1.1-.7,1.6-2,1.6l-12.8-.3c-1.2,0-2-.6-1.9-1.7l1.5-57.3-14.3-.4c-1.2,0-1.9-.7-1.9-1.7l.3-10.4c0-1,.8-1.6,2-1.6Z" fill="none" stroke="#5e0d8b" stroke-linejoin="round" stroke-width="14.42"/><path d="M515.2,587.3c.1-1,.8-1.6,2.1-1.5l12.6.7c1.5.1,2.1.7,2,1.8l-3.8,69.2c-.1,1-.7,1.6-2.2,1.5l-12.6-.7c-1.2-.1-1.9-.7-1.9-1.8l1.5-27.6-15.7-.9-1.5,27.6c-.1,1-.8,1.6-2.1,1.5l-12.6-.7c-1.5-.1-2.1-.7-2-1.8l3.8-69.2c.1-1,.7-1.6,2.2-1.5l12.6.7c1.2.1,1.9.7,1.9,1.8l-1.6,28,15.7.9Z" fill="none" stroke="#5e0d8b" stroke-linejoin="round" stroke-width="14.42"/><path d="M218.1,584.8c11.5-.6,18,4.2,18.5,13.9l.4,6.8c.1,1-.5,1.7-1.9,1.8l-12.4.7c-1.2.1-2-.5-2.1-1.5l-.2-4.4c-.1-2.7-1.8-4.1-5.1-3.9l-6.8.4c-3.1.2-4.8,1.7-4.7,4.4l.5,8.8,30.2,6.4c2.1.5,3.3,1.7,3.4,3.7l1.1,19.5c.5,9.7-5.3,15.3-16.9,15.9l-13.8.8c-11.4.6-18-4.2-18.5-13.9l-.4-6.7c-.1-1.1.6-1.7,1.9-1.8l12.4-.7c1.4-.1,2,.4,2.1,1.5l.2,4.4c.2,2.8,2.1,4,5.1,3.9l6.6-.4c3.2-.2,4.8-1.6,4.7-4.4l-.6-10.5L192,623.1c-2.2-.5-3.4-1.7-3.5-3.7l-1-17.9c-.5-9.7,5.4-15.3,16.9-15.9Z" fill="#fff"/><path d="M262.4,597.8c-.3-9.8,5.8-15.1,17.3-15.4l13.8-.4c11.6-.3,17.8,4.7,18.1,14.5l1.1,42.8c.3,9.8-5.8,15.1-17.3,15.4l-13.8.4c-11.6.3-17.8-4.7-18.1-14.5Zm29.9,43.6c3.2-.1,4.9-1.5,4.8-4.3l-1-37.6c-.1-2.7-1.8-4.1-5-4l-7.9.2c-3.2.1-4.9,1.6-4.8,4.3l1,37.6c.1,2.8,1.8,4.1,5,4Z" fill="#fff"/><path d="M384,581.3a2.3,2.3,0,0,1,2.5,2.1V639c0,9.8-6.2,14.9-17.7,14.9H354.9c-11.6,0-17.7-5.2-17.7-15V583.3a2.3,2.3,0,0,1,2.5-2.1h11.8a2.3,2.3,0,0,1,2.5,2.1V636c0,2.8,1.7,4.2,4.9,4.2h6.4c3.2,0,4.9-1.3,4.9-4.1V583.3a2.3,2.3,0,0,1,2.5-2.1Z" fill="#fff"/><path d="M457.2,582.8c1.4,0,2,.7,1.9,1.7l-.3,10.4c0,1-.7,1.6-2,1.6l-14.3-.4-1.5,57.3c0,1.1-.7,1.6-2,1.6l-12.8-.3c-1.2,0-2-.6-1.9-1.7l1.5-57.3-14.3-.4c-1.2,0-1.9-.7-1.9-1.7l.3-10.4c0-1,.8-1.6,2-1.6Z" fill="#fff"/><path d="M515.2,587.3c.1-1,.8-1.6,2.1-1.5l12.6.7c1.5.1,2.1.7,2,1.8l-3.8,69.2c-.1,1-.7,1.6-2.2,1.5l-12.6-.7c-1.2-.1-1.9-.7-1.9-1.8l1.5-27.6-15.7-.9-1.5,27.6c-.1,1-.8,1.6-2.1,1.5l-12.6-.7c-1.5-.1-2.1-.7-2-1.8l3.8-69.2c.1-1,.7-1.6,2.2-1.5l12.6.7c1.2.1,1.9.7,1.9,1.8l-1.6,28,15.7.9Z" fill="#fff"/><rect x="350.6" y="47.1" width="3.1" height="49.72" fill="#cdc9c8"/><circle cx="352.1" cy="45.9" r="2" fill="#5e0d8b"/><path d="M386.8,48.3V63.9c-11.1,4.9-22.1-3.9-33.2,1V47.3C364.7,43.1,375.8,52.6,386.8,48.3Z" fill="#5e0d8b"/><path d="M378.5,65.5c-5.5-.1-11.1-2-16.6-2.1V46.3c5.5.5,11.1,2.6,16.6,3.1Z" fill="#fff" stroke="#fff" stroke-miterlimit="10" stroke-width="1.11"/><path d="M370,62.4c0-.1,0-.2,0-.2V59.5a.4.4,0,0,0-.2-.3h-2.8v-.8a.4.4,0,0,0-.1-.4l-2.1-2-.7-.7h.6c.1,0,.1-.1.1-.2v-.5l-.4-1.4h0l1.2.5h.3a.2.2,0,0,0,.3-.1l.2-.7h.1l.7.9.5.7.2.2c.1.1.2,0,.3-.1a.7.7,0,0,0,0-.3V51h0l.7.5h.5l.2-.2.9-1.4h0v.2l.9,1.9.3.2h.2l.7-.2h0l-.2.9-.2,1.1v.7a.5.5,0,0,0,0,.2.2.2,0,0,0,.3.2h.2l1.1-1,.2-.2h0v.7a.3.3,0,0,0,.3.2h1.6l-.5,1.6h0a.2.2,0,0,0,.1.2h.2l.4.2h-.1l-1.1.7-1.1.7-.4.3a.3.3,0,0,0-.1.4l.2.8h0l-.6-.2-.6-.2-.6-.2-.5-.2h-.6a.2.2,0,0,0-.1.2c0,.2,0,.4,0,.7v2.2Z" fill="#5e0d8b"/></g></g></svg>