<svg id="Layer_1" data-name="Layer 1" xmlns="http://www.w3.org/2000/svg" width="6.8in" height="2.8in" viewBox="0 0 488.2 200.3"><title>ottawa-south_1</title><path d="M13,40.6c-1-11.2,5.5-17.8,18.8-19l15.8-1.5c13.3-1.2,20.9,4.1,21.9,15.3l4.5,49.1c1,11.2-5.5,17.8-18.8,19L39.5,105c-13.3,1.2-20.9-4.1-21.9-15.3ZM50.8,88.5c3.7-.3,5.5-2.1,5.2-5.3L52,40c-.3-3.1-2.4-4.6-6.1-4.2l-9,.8c-3.7.3-5.5,2.2-5.2,5.3l4,43.2c.3,3.2,2.4,4.6,6.1,4.2Z" fill="none" stroke="#000" stroke-linejoin="round" stroke-width="19.52"/><path d="M143.2,13.9c1.6-.1,2.3.6,2.4,1.8l.6,12c.1,1.2-.6,2-2.2,2l-16.4.9,3.5,66c.1,1.3-.6,2-2.2,2l-14.7.8c-1.4.1-2.3-.5-2.4-1.8l-3.5-66-16.4.9c-1.4.1-2.3-.6-2.4-1.8l-.6-12c-.1-1.2.7-2,2.2-2Z" fill="none" stroke="#000" stroke-linejoin="round" stroke-width="19.52"/><path d="M213.9,12c1.6,0,2.3.7,2.3,1.9l.3,12c0,1.2-.7,1.9-2.2,2l-16.4.4,1.5,66.1c0,1.3-.7,1.9-2.2,2l-14.7.3c-1.4,0-2.3-.5-2.3-1.9l-1.5-66.1-16.4.4c-1.4,0-2.3-.7-2.3-1.9l-.3-12c0-1.2.8-1.9,2.2-2Z" fill="none" stroke="#000" stroke-linejoin="round" stroke-width="19.52"/><path d="M277.8,95.9a2.1,2.1,0,0,1-2.3-1.7l-4.5-15.1H244.4L239.9,94a2.1,2.1,0,0,1-2.3,1.7H223.7c-1.6,0-2.3-.7-1.8-2l23.9-80a2.1,2.1,0,0,1,2.4-1.7H268a2.1,2.1,0,0,1,2.4,1.7l23.2,80.2c.4,1.3-.3,2-2,2ZM257.9,32.6l-9.1,32.5h17.9Z" fill="none" stroke="#000" stroke-linejoin="round" stroke-width="19.52"/><path d="M397.1,16.1c2,.1,2.9,1.1,2.6,2.6l-17,78.5c-.3,1.4-1.4,2.1-3.2,2l-15.3-.6a2.9,2.9,0,0,1-3-2.3l-11-49.6L334.9,95.2a2.9,2.9,0,0,1-3.2,2l-15.6-.7c-1.8-.1-2.8-.8-3-2.4l-9.7-79.5c-.2-1.6.8-2.5,2.8-2.4l13.3.6c1.7.1,2.7.8,2.9,2.4l4.8,50.3h.7l16-49.7a2.9,2.9,0,0,1,3.2-1.9l8.6.4a2.9,2.9,0,0,1,3,2.2l11.8,50.8h.7l9.3-49.7c.3-1.5,1.2-2.2,3.1-2.1Z" fill="none" stroke="#000" stroke-linejoin="round" stroke-width="19.52"/><path d="M459.3,105.6a2.1,2.1,0,0,1-2.1-1.9L454,88.3,427.4,86l-5.7,14.6a2.1,2.1,0,0,1-2.4,1.5l-13.8-1.2c-1.6-.1-2.2-.9-1.7-2.2l30.6-77.7a2.1,2.1,0,0,1,2.6-1.5l19.6,1.8a2.1,2.1,0,0,1,2.3,1.9L475.2,105c.3,1.3-.5,2-2.2,1.9ZM444.9,40.9,433.1,72.5l17.8,1.6Z" fill="none" stroke="#000" stroke-linejoin="round" stroke-width="19.52"/><path d="M13,40.6c-1-11.2,5.5-17.8,18.8-19l15.8-1.5c13.3-1.2,20.9,4.1,21.9,15.3l4.5,49.1c1,11.2-5.5,17.8-18.8,19L39.5,105c-13.3,1.2-20.9-4.1-21.9-15.3ZM50.8,88.5c3.7-.3,5.5-2.1,5.2-5.3L52,40c-.3-3.1-2.4-4.6-6.1-4.2l-9,.8c-3.7.3-5.5,2.2-5.2,5.3l4,43.2c.3,3.2,2.4,4.6,6.1,4.2Z" fill="none" stroke="#5e0d8b" stroke-linejoin="round" stroke-width="13.01"/><path d="M143.2,13.9c1.6-.1,2.3.6,2.4,1.8l.6,12c.1,1.2-.6,2-2.2,2l-16.4.9,3.5,66c.1,1.3-.6,2-2.2,2l-14.7.8c-1.4.1-2.3-.5-2.4-1.8l-3.5-66-16.4.9c-1.4.1-2.3-.6-2.4-1.8l-.6-12c-.1-1.2.7-2,2.2-2Z" fill="none" stroke="#5e0d8b" stroke-linejoin="round" stroke-width="13.01"/><path d="M213.9,12c1.6,0,2.3.7,2.3,1.9l.3,12c0,1.2-.7,1.9-2.2,2l-16.4.4,1.5,66.1c0,1.3-.7,1.9-2.2,2l-14.7.3c-1.4,0-2.3-.5-2.3-1.9l-1.5-66.1-16.4.4c-1.4,0-2.3-.7-2.3-1.9l-.3-12c0-1.2.8-1.9,2.2-2Z" fill="none" stroke="#5e0d8b" stroke-linejoin="round" stroke-width="13.01"/><path d="M277.8,95.9a2.1,2.1,0,0,1-2.3-1.7l-4.5-15.1H244.4L239.9,94a2.1,2.1,0,0,1-2.3,1.7H223.7c-1.6,0-2.3-.7-1.8-2l23.9-80a2.1,2.1,0,0,1,2.4-1.7H268a2.1,2.1,0,0,1,2.4,1.7l23.2,80.2c.4,1.3-.3,2-2,2ZM257.9,32.6l-9.1,32.5h17.9Z" fill="none" stroke="#5e0d8b" stroke-linejoin="round" stroke-width="13.01"/><path d="M397.1,16.1c2,.1,2.9,1.1,2.6,2.6l-17,78.5c-.3,1.4-1.4,2.1-3.2,2l-15.3-.6a2.9,2.9,0,0,1-3-2.3l-11-49.6L334.9,95.2a2.9,2.9,0,0,1-3.2,2l-15.6-.7c-1.8-.1-2.8-.8-3-2.4l-9.7-79.5c-.2-1.6.8-2.5,2.8-2.4l13.3.6c1.7.1,2.7.8,2.9,2.4l4.8,50.3h.7l16-49.7a2.9,2.9,0,0,1,3.2-1.9l8.6.4a2.9,2.9,0,0,1,3,2.2l11.8,50.8h.7l9.3-49.7c.3-1.5,1.2-2.2,3.1-2.1Z" fill="none" stroke="#5e0d8b" stroke-linejoin="round" stroke-width="13.01"/><path d="M459.3,105.6a2.1,2.1,0,0,1-2.1-1.9L454,88.3,427.4,86l-5.7,14.6a2.1,2.1,0,0,1-2.4,1.5l-13.8-1.2c-1.6-.1-2.2-.9-1.7-2.2l30.6-77.7a2.1,2.1,0,0,1,2.6-1.5l19.6,1.8a2.1,2.1,0,0,1,2.3,1.9L475.2,105c.3,1.3-.5,2-2.2,1.9ZM444.9,40.9,433.1,72.5l17.8,1.6Z" fill="none" stroke="#5e0d8b" stroke-linejoin="round" stroke-width="13.01"/><path d="M13,40.6c-1-11.2,5.5-17.8,18.8-19l15.8-1.5c13.3-1.2,20.9,4.1,21.9,15.3l4.5,49.1c1,11.2-5.5,17.8-18.8,19L39.5,105c-13.3,1.2-20.9-4.1-21.9-15.3ZM50.8,88.5c3.7-.3,5.5-2.1,5.2-5.3L52,40c-.3-3.1-2.4-4.6-6.1-4.2l-9,.8c-3.7.3-5.5,2.2-5.2,5.3l4,43.2c.3,3.2,2.4,4.6,6.1,4.2Z" fill="#fff"/><path d="M143.2,13.9c1.6-.1,2.3.6,2.4,1.8l.6,12c.1,1.2-.6,2-2.2,2l-16.4.9,3.5,66c.1,1.3-.6,2-2.2,2l-14.7.8c-1.4.1-2.3-.5-2.4-1.8l-3.5-66-16.4.9c-1.4.1-2.3-.6-2.4-1.8l-.6-12c-.1-1.2.7-2,2.2-2Z" fill="#fff"/><path d="M213.9,12c1.6,0,2.3.7,2.3,1.9l.3,12c0,1.2-.7,1.9-2.2,2l-16.4.4,1.5,66.1c0,1.3-.7,1.9-2.2,2l-14.7.3c-1.4,0-2.3-.5-2.3-1.9l-1.5-66.1-16.4.4c-1.4,0-2.3-.7-2.3-1.9l-.3-12c0-1.2.8-1.9,2.2-2Z" fill="#fff"/><path d="M277.8,95.9a2.1,2.1,0,0,1-2.3-1.7l-4.5-15.1H244.4L239.9,94a2.1,2.1,0,0,1-2.3,1.7H223.7c-1.6,0-2.3-.7-1.8-2l23.9-80a2.1,2.1,0,0,1,2.4-1.7H268a2.1,2.1,0,0,1,2.4,1.7l23.2,80.2c.4,1.3-.3,2-2,2ZM257.9,32.6l-9.1,32.5h17.9Z" fill="#fff"/><path d="M397.1,16.1c2,.1,2.9,1.1,2.6,2.6l-17,78.5c-.3,1.4-1.4,2.1-3.2,2l-15.3-.6a2.9,2.9,0,0,1-3-2.3l-11-49.6L334.9,95.2a2.9,2.9,0,0,1-3.2,2l-15.6-.7c-1.8-.1-2.8-.8-3-2.4l-9.7-79.5c-.2-1.6.8-2.5,2.8-2.4l13.3.6c1.7.1,2.7.8,2.9,2.4l4.8,50.3h.7l16-49.7a2.9,2.9,0,0,1,3.2-1.9l8.6.4a2.9,2.9,0,0,1,3,2.2l11.8,50.8h.7l9.3-49.7c.3-1.5,1.2-2.2,3.1-2.1Z" fill="#fff"/><path d="M459.3,105.6a2.1,2.1,0,0,1-2.1-1.9L454,88.3,427.4,86l-5.7,14.6a2.1,2.1,0,0,1-2.4,1.5l-13.8-1.2c-1.6-.1-2.2-.9-1.7-2.2l30.6-77.7a2.1,2.1,0,0,1,2.6-1.5l19.6,1.8a2.1,2.1,0,0,1,2.3,1.9L475.2,105c.3,1.3-.5,2-2.2,1.9ZM444.9,40.9,433.1,72.5l17.8,1.6Z" fill="#fff"/><path d="M116.3,121.4c10.4-.6,16.2,3.8,16.7,12.6l.3,6.2c.1.9-.5,1.5-1.7,1.6l-11.2.6c-1.1.1-1.8-.5-1.9-1.4l-.2-3.9c-.1-2.4-1.6-3.7-4.6-3.5l-6.1.3c-2.8.2-4.4,1.6-4.2,4l.4,8,27.2,5.8c1.9.5,3,1.5,3.1,3.3l1,17.6c.5,8.8-4.8,13.8-15.2,14.4l-12.4.7c-10.3.6-16.2-3.8-16.7-12.6l-.3-6.1c-.1-1,.6-1.5,1.7-1.6l11.2-.6c1.2-.1,1.8.4,1.9,1.4l.2,3.9c.1,2.5,1.9,3.6,4.6,3.5l6-.3c2.9-.2,4.4-1.5,4.2-4l-.5-9.4-27-5.8c-2-.5-3.1-1.5-3.2-3.3l-.9-16.2c-.5-8.8,4.9-13.8,15.2-14.4Z" fill="none" stroke="#000" stroke-linejoin="round" stroke-width="19.52"/><path d="M156.3,133.1c-.2-8.8,5.2-13.6,15.6-13.9l12.4-.3c10.4-.3,16.1,4.3,16.3,13.1l1,38.6c.2,8.8-5.2,13.6-15.6,13.9l-12.4.3c-10.4.3-16.1-4.3-16.3-13.1Zm27,39.3c2.9-.1,4.4-1.3,4.3-3.9l-.9-33.9c-.1-2.4-1.7-3.7-4.5-3.6l-7.1.2c-2.9.1-4.4,1.4-4.3,3.9l.9,33.9c.1,2.5,1.7,3.7,4.5,3.6Z" fill="none" stroke="#000" stroke-linejoin="round" stroke-width="19.52"/><path d="M266,118.2a2.1,2.1,0,0,1,2.2,1.9v50.2c0,8.8-5.6,13.5-16,13.5H239.8c-10.4,0-16-4.7-16-13.5V120a2.1,2.1,0,0,1,2.2-1.9h10.7a2.1,2.1,0,0,1,2.2,1.9v47.6c0,2.5,1.5,3.7,4.4,3.8h5.8c2.9,0,4.4-1.2,4.4-3.7V120.1a2.1,2.1,0,0,1,2.2-1.9Z" fill="none" stroke="#000" stroke-linejoin="round" stroke-width="19.52"/><path d="M332.1,119.6c1.2,0,1.8.6,1.7,1.5l-.3,9.4c0,.9-.6,1.5-1.8,1.5l-12.9-.3-1.4,51.7c0,1-.6,1.5-1.8,1.5l-11.5-.3c-1.1,0-1.8-.5-1.7-1.5l1.4-51.7-12.9-.3c-1.1,0-1.8-.6-1.7-1.5l.3-9.4c0-.9.7-1.5,1.8-1.5Z" fill="none" stroke="#000" stroke-linejoin="round" stroke-width="19.52"/><path d="M384.4,123.7c.1-.9.7-1.5,1.9-1.4l11.4.6c1.3.1,1.9.7,1.8,1.6L396.1,187c-.1.9-.6,1.5-2,1.4l-11.4-.6c-1.1-.1-1.7-.7-1.7-1.6l1.4-24.9-14.2-.8-1.4,24.9c-.1.9-.7,1.5-1.9,1.4l-11.4-.6c-1.3-.1-1.9-.7-1.8-1.6l3.5-62.5c.1-.9.6-1.5,2-1.4l11.4.6c1.1.1,1.7.7,1.7,1.6l-1.4,25.3,14.2.8Z" fill="none" stroke="#000" stroke-linejoin="round" stroke-width="19.52"/><path d="M116.3,121.4c10.4-.6,16.2,3.8,16.7,12.6l.3,6.2c.1.9-.5,1.5-1.7,1.6l-11.2.6c-1.1.1-1.8-.5-1.9-1.4l-.2-3.9c-.1-2.4-1.6-3.7-4.6-3.5l-6.1.3c-2.8.2-4.4,1.6-4.2,4l.4,8,27.2,5.8c1.9.5,3,1.5,3.1,3.3l1,17.6c.5,8.8-4.8,13.8-15.2,14.4l-12.4.7c-10.3.6-16.2-3.8-16.7-12.6l-.3-6.1c-.1-1,.6-1.5,1.7-1.6l11.2-.6c1.2-.1,1.8.4,1.9,1.4l.2,3.9c.1,2.5,1.9,3.6,4.6,3.5l6-.3c2.9-.2,4.4-1.5,4.2-4l-.5-9.4-27-5.8c-2-.5-3.1-1.5-3.2-3.3l-.9-16.2c-.5-8.8,4.9-13.8,15.2-14.4Z" fill="none" stroke="#5e0d8b" stroke-linejoin="round" stroke-width="13.01"/><path d="M156.3,133.1c-.2-8.8,5.2-13.6,15.6-13.9l12.4-.3c10.4-.3,16.1,4.3,16.3,13.1l1,38.6c.2,8.8-5.2,13.6-15.6,13.9l-12.4.3c-10.4.3-16.1-4.3-16.3-13.1Zm27,39.3c2.9-.1,4.4-1.3,4.3-3.9l-.9-33.9c-.1-2.4-1.7-3.7-4.5-3.6l-7.1.2c-2.9.1-4.4,1.4-4.3,3.9l.9,33.9c.1,2.5,1.7,3.7,4.5,3.6Z" fill="none" stroke="#5e0d8b" stroke-linejoin="round" stroke-width="13.01"/><path d="M266,118.2a2.1,2.1,0,0,1,2.2,1.9v50.2c0,8.8-5.6,13.5-16,13.5H239.8c-10.4,0-16-4.7-16-13.5V120a2.1,2.1,0,0,1,2.2-1.9h10.7a2.1,2.1,0,0,1,2.2,1.9v47.6c0,2.5,1.5,3.7,4.4,3.8h5.8c2.9,0,4.4-1.2,4.4-3.7V120.1a2.1,2.1,0,0,1,2.2-1.9Z" fill="none" stroke="#5e0d8b" stroke-linejoin="round" stroke-width="13.01"/><path d="M332.1,119.6c1.2,0,1.8.6,1.7,1.5l-.3,9.4c0,.9-.6,1.5-1.8,1.5l-12.9-.3-1.4,51.7c0,1-.6,1.5-1.8,1.5l-11.5-.3c-1.1,0-1.8-.5-1.7-1.5l1.4-51.7-12.9-.3c-1.1,0-1.8-.6-1.7-1.5l.3-9.4c0-.9.7-1.5,1.8-1.5Z" fill="none" stroke="#5e0d8b" stroke-linejoin="round" stroke-width="13.01"/><path d="M384.4,123.7c.1-.9.7-1.5,1.9-1.4l11.4.6c1.3.1,1.9.7,1.8,1.6L396.1,187c-.1.9-.6,1.5-2,1.4l-11.4-.6c-1.1-.1-1.7-.7-1.7-1.6l1.4-24.9-14.2-.8-1.4,24.9c-.1.9-.7,1.5-1.9,1.4l-11.4-.6c-1.3-.1-1.9-.7-1.8-1.6l3.5-62.5c.1-.9.6-1.5,2-1.4l11.4.6c1.1.1,1.7.7,1.7,1.6l-1.4,25.3,14.2.8Z" fill="none" stroke="#5e0d8b" stroke-linejoin="round" stroke-width="13.01"/><path d="M116.3,121.4c10.4-.6,16.2,3.8,16.7,12.6l.3,6.2c.1.9-.5,1.5-1.7,1.6l-11.2.6c-1.1.1-1.8-.5-1.9-1.4l-.2-3.9c-.1-2.4-1.6-3.7-4.6-3.5l-6.1.3c-2.8.2-4.4,1.6-4.2,4l.4,8,27.2,5.8c1.9.5,3,1.5,3.1,3.3l1,17.6c.5,8.8-4.8,13.8-15.2,14.4l-12.4.7c-10.3.6-16.2-3.8-16.7-12.6l-.3-6.1c-.1-1,.6-1.5,1.7-1.6l11.2-.6c1.2-.1,1.8.4,1.9,1.4l.2,3.9c.1,2.5,1.9,3.6,4.6,3.5l6-.3c2.9-.2,4.4-1.5,4.2-4l-.5-9.4-27-5.8c-2-.5-3.1-1.5-3.2-3.3l-.9-16.2c-.5-8.8,4.9-13.8,15.2-14.4Z" fill="#fff"/><path d="M156.3,133.1c-.2-8.8,5.2-13.6,15.6-13.9l12.4-.3c10.4-.3,16.1,4.3,16.3,13.1l1,38.6c.2,8.8-5.2,13.6-15.6,13.9l-12.4.3c-10.4.3-16.1-4.3-16.3-13.1Zm27,39.3c2.9-.1,4.4-1.3,4.3-3.9l-.9-33.9c-.1-2.4-1.7-3.7-4.5-3.6l-7.1.2c-2.9.1-4.4,1.4-4.3,3.9l.9,33.9c.1,2.5,1.7,3.7,4.5,3.6Z" fill="#fff"/><path d="M266,118.2a2.1,2.1,0,0,1,2.2,1.9v50.2c0,8.8-5.6,13.5-16,13.5H239.8c-10.4,0-16-4.7-16-13.5V120a2.1,2.1,0,0,1,2.2-1.9h10.7a2.1,2.1,0,0,1,2.2,1.9v47.6c0,2.5,1.5,3.7,4.4,3.8h5.8c2.9,0,4.4-1.2,4.4-3.7V120.1a2.1,2.1,0,0,1,2.2-1.9Z" fill="#fff"/><path d="M332.1,119.6c1.2,0,1.8.6,1.7,1.5l-.3,9.4c0,.9-.6,1.5-1.8,1.5l-12.9-.3-1.4,51.7c0,1-.6,1.5-1.8,1.5l-11.5-.3c-1.1,0-1.8-.5-1.7-1.5l1.4-51.7-12.9-.3c-1.1,0-1.8-.6-1.7-1.5l.3-9.4c0-.9.7-1.5,1.8-1.5Z" fill="#fff"/><path d="M384.4,123.7c.1-.9.7-1.5,1.9-1.4l11.4.6c1.3.1,1.9.7,1.8,1.6L396.1,187c-.1.9-.6,1.5-2,1.4l-11.4-.6c-1.1-.1-1.7-.7-1.7-1.6l1.4-24.9-14.2-.8-1.4,24.9c-.1.9-.7,1.5-1.9,1.4l-11.4-.6c-1.3-.1-1.9-.7-1.8-1.6l3.5-62.5c.1-.9.6-1.5,2-1.4l11.4.6c1.1.1,1.7.7,1.7,1.6l-1.4,25.3,14.2.8Z" fill="#fff"/></svg>