<svg id="Layer_1" data-name="Layer 1" xmlns="http://www.w3.org/2000/svg" xmlns:xlink="http://www.w3.org/1999/xlink" width="1000" height="1000" viewBox="0 0 1000 1000"><defs><linearGradient id="linear-gradient" x2="997.19" y2="997.19" gradientUnits="userSpaceOnUse"><stop offset="0" stop-color="#55ba70"/><stop offset="0.83" stop-color="#039a2c"/><stop offset="1" stop-color="#007e29"/></linearGradient></defs><title>logo</title><rect width="997.2" height="997.19" fill="url(#linear-gradient)"/><path d="M515.7,355.3H426.8a4.1,4.1,0,0,0-4.1,4.1,4.1,4.1,0,0,0,4.1,4.1h88.9a4.1,4.1,0,0,0,4.1-4.1A4.1,4.1,0,0,0,515.7,355.3Z" fill="#fff"/><path d="M287.5,384.2a3.5,3.5,0,0,0,1.7.4,4.1,4.1,0,0,0,3.8-2.5l13.9-31.5a4.1,4.1,0,0,0-7.6-3.3l-13.9,31.5A4.2,4.2,0,0,0,287.5,384.2Z" fill="#fff"/><path d="M671.6,355.1h.4a4.1,4.1,0,0,0,4.1-3.7l2-24.6a4.2,4.2,0,0,0-3.8-4.5,4.1,4.1,0,0,0-4.4,3.8l-2.1,24.6A4.2,4.2,0,0,0,671.6,355.1Z" fill="#fff"/><path d="M688.8,438.1l-79.1-27.5a4.1,4.1,0,0,0-5.2,2.6,4,4,0,0,0,2.5,5.2l79.1,27.4a3.1,3.1,0,0,0,1.3.3,4.2,4.2,0,0,0,3.9-2.8A4.1,4.1,0,0,0,688.8,438.1Z" fill="#fff"/><path d="M777.7,454.1H720.6l4.3-12.6a8.1,8.1,0,0,0-2.2-8.7l-40.6-37.3c0-.1.1-.2.1-.3h0a20.9,20.9,0,0,0,.5-12.6l69-52.1a8.2,8.2,0,0,0,3.2-7.1,8.2,8.2,0,0,0-4-6.6l-43.5-25.4a8.5,8.5,0,0,0-5.2-1.1l-34.6,4.3-34.9-16.2a8.1,8.1,0,0,0-8.9,1.3,8.3,8.3,0,0,0-2.4,8.7l26.5,83.2a22.2,22.2,0,0,0-6.5,9.4.4.4,0,0,1-.1.3l-55,4.2a8,8,0,0,0-7.1,5.5l-21.9,63.1H547.1V359.4a8.3,8.3,0,0,0-2.4-5.8l-65.2-65.2V275.8a8.3,8.3,0,1,0-16.5,0v12.6l-65.2,65.2a7.8,7.8,0,0,0-2.4,5.8v94.7h-.1l-31.7-75.5a8.1,8.1,0,0,0-7.1-5,8.4,8.4,0,0,0-7.7,4.1l-2.5,4.6-27-69.8a40.4,40.4,0,0,0-21.4-22.3,40.5,40.5,0,0,0-53.3,20.6,40.6,40.6,0,0,0-.7,31L271,411.5l-5-1.6a8.2,8.2,0,0,0-8.4,1.9,8.4,8.4,0,0,0-2,8.4l11.1,33.9H222.3a8.2,8.2,0,1,0,0,16.4h17.9l25.3,254.6a8.2,8.2,0,0,0,8.2,7.4H726.3a8.2,8.2,0,0,0,8.2-7.4l25.3-254.6h17.9a8.2,8.2,0,1,0,0-16.4ZM662.8,310.5a7.8,7.8,0,0,0,4.5.7l34.2-4.2,30.4,17.8-59.1,44.7a17.3,17.3,0,0,0-3.9-1.8,23.8,23.8,0,0,0-5.3-1.1l-20.8-65.4Zm-69.9,91,49.7-3.7a21.6,21.6,0,0,0,12.1,10.7,22.5,22.5,0,0,0,7.1,1.2,21.7,21.7,0,0,0,9.1-2.1l36.7,33.6-4.4,12.9H574.7ZM411.8,362.8l59.4-59.4,59.5,59.4v91.3H411.8ZM259.7,317.5a23.8,23.8,0,0,1,13.2-12.7,24.3,24.3,0,0,1,8.7-1.6,23.9,23.9,0,0,1,9.7,2.1,23.4,23.4,0,0,1,12.6,13.2l26.5,68.3-2.7-.9a8.2,8.2,0,0,0-9.7,3.8l-7.2,12.8-4.5-1.5L317,376.7a4.1,4.1,0,1,0-7.5-3.3l-11.1,25-1.5-.5a8.1,8.1,0,0,0-9.8,3.8l-1.4,2.4-26.4-68.3A23.7,23.7,0,0,1,259.7,317.5Zm16.6,113.1,4.9,1.6a8.1,8.1,0,0,0,9.7-3.8l7.2-12.7,14,4.5a8,8,0,0,0,9.7-3.8l7.2-12.7,14,4.6a8.2,8.2,0,0,0,9.7-3.8l2.3-4,22.4,53.6H284ZM718.8,716H281.2L256.7,470.5H743.3Z" fill="#fff"/><path d="M431.5,626.1a43.9,43.9,0,0,0,32.6-13.6v9.1c0,8.2-.5,16.9-5.4,24.8s-13.1,13.2-25,13.2c-9.8,0-17.3-3-22.9-9.1a30.2,30.2,0,0,1-6.9-14.9,7.8,7.8,0,0,0-7.7-6.8h-5.9a7.9,7.9,0,0,0-7.8,8.7A46.3,46.3,0,0,0,395.9,665c5.3,5.4,17.3,14.3,37.5,14.3,17.6,0,33-7.2,42.2-19.6s10.1-30.1,10.1-41v-93a7.8,7.8,0,0,0-7.7-7.8h-6.2a7.7,7.7,0,0,0-7.7,7.8v3.1c-8.6-8.7-19.7-13.3-32.6-13.3s-26.8,5.1-36.1,14.2-15.2,23.8-15.2,40.7c0,22.8,9.5,35.8,15.2,41.5C404.6,621.1,417.4,626.1,431.5,626.1Zm-19.5-82a29.3,29.3,0,0,1,21.4-8.9c8.3,0,16.2,3.1,21.5,8.4S465,559.8,465,570.7s-4,21.2-10.8,27.8-12.2,7.9-20.8,7.9a28.9,28.9,0,0,1-20.3-7.7c-7.2-6.8-10.8-16-10.8-28.3S405.5,550.8,412,544.1Z" fill="#fff"/><path d="M564.1,626.1c31.8,0,55.7-23.7,55.7-55.2s-23.4-55.4-55.7-55.4-55.7,23.3-55.7,55.4S532.4,626.1,564.1,626.1Zm0-90.9c16.7,0,33.6,11,33.6,35.7s-17.4,35.5-33.6,35.5-33.5-11.1-33.5-35.5S548,535.2,564.1,535.2Z" fill="#fff"/><path d="M616.4,649,597,636.3a4,4,0,0,0-4.1-.2,4.2,4.2,0,0,0-2.2,3.6v4.5h-78a4.1,4.1,0,0,0-4.1,4.1v8.3a4.1,4.1,0,0,0,4.1,4.1h78v4.5a4.3,4.3,0,0,0,2.2,3.6,4.5,4.5,0,0,0,4.1-.2l19.4-12.8a4,4,0,0,0,1.8-3.4A4.3,4.3,0,0,0,616.4,649Z" fill="#fff"/></svg>