<?xml version="1.0" encoding="utf-8"?>
<!-- Generator: Adobe Illustrator 22.0.1, SVG Export Plug-In . SVG Version: 6.00 Build 0)  -->
<svg version="1.1" id="Layer_1" xmlns="http://www.w3.org/2000/svg" xmlns:xlink="http://www.w3.org/1999/xlink" x="0px" y="0px"
	 viewBox="0 0 792 922.9" style="enable-background:new 0 0 792 922.9;" xml:space="preserve">
<style type="text/css">
	.st0{fill:#DCBF30;}
	.st1{fill:#231F20;}
	.st2{fill:#FFFFFF;}
</style>
<g>
	<circle class="st0" cx="274.1" cy="268.8" r="214.5"/>
	<circle class="st1" cx="274.1" cy="268.8" r="205.9"/>
	<path class="st2" d="M115.1,296.6c4.8,2.9,8.3,7.5,9.7,13c1.6,5.4,0.9,11.1-1.9,16c-2.6,4.9-7.1,8.4-12.4,9.8
		c-4.6,1.3-9.5,0.8-13.7-1.4l-3.2,4.6l-6.3-4.4l3.3-4.9c-2.6-2.4-4.5-5.5-5.3-9c-1.6-5.4-1-11.2,1.7-16.1
		c5.2-9.7,17.4-13.4,27.1-8.1c0.3,0.2,0.6,0.3,0.9,0.5H115.1z M95.2,322.4l4.2-6.3l6.4,4.3l-4.3,6.4c2.2,0.7,4.7,0.7,6.9,0
		c3.2-0.8,6-2.9,7.6-5.8c1.7-2.8,2.2-6.2,1.3-9.4c-1.9-6.7-8.8-10.6-15.5-8.8c-3.1,0.9-5.8,2.9-7.5,5.8c-1.6,2.9-2,6.4-1.1,9.6
		C93.5,319.8,94.2,321.2,95.2,322.4L95.2,322.4z M139.8,348.7l5.3,7l-18.2,13.7c-5.1,3.9-6,8-2.8,12.3s7.4,4.5,12.6,0.7l18.2-13.7
		l5.3,7l-18.9,14.2c-4.3,3.2-8.5,4.4-12.8,3.6c-4.3-0.9-8.2-3.4-10.7-7c-2.8-3.5-4.2-7.9-3.9-12.3c0.4-4.3,2.7-8,7-11.3L139.8,348.7
		z M155.5,423.8l23.5-32.1l7.1,5.2L162.7,429L155.5,423.8z M194.3,447.7l12.9-37.6l14.2,4.9c6.4,2.2,10.7,5.6,12.9,10.3
		s2.5,9.8,0.5,15.4s-5.3,9.6-9.9,11.9s-10,2.2-16.5,0L194.3,447.7z M205.2,443l5.4,1.9c8.8,3,13.5-0.1,15.9-7
		c1.2-3.5,1.3-6.6,0.1-9.2s-3.9-4.7-8.3-6.2l-5.4-1.9L205.2,443z M264.4,464.4l-1.5-39.7l15-0.6c6.7-0.3,12,1.4,15.8,4.9
		s5.8,8.2,6.1,14.2s-1.4,10.9-4.9,14.6s-8.6,5.7-15.3,5.9L264.4,464.4z M272.9,456.1l5.8-0.2c9.3-0.4,12.6-5,12.3-12.3
		c-0.1-3.7-1.2-6.6-3.2-8.7s-5.3-3-10-2.8l-5.7,0.2L272.9,456.1z M334.5,454.4l-13.1-37.5l8.3-2.9l13.1,37.5L334.5,454.4z
		 M381.7,431.6l-18.1-26.1l-8.8,6.1l-4.5-6.6l24.7-17.1l4.5,6.6l-8.7,6.1l18.1,26.1L381.7,431.6z M416,349.6l0.5,7.8
		c-3.8,0.3-7.4,2.3-9.6,5.4c-2,2.6-2.9,6-2.4,9.3c0.4,3.3,2.3,6.3,5,8.2c2.6,2,6,2.9,9.3,2.4c3.3-0.5,6.2-2.3,8.2-5
		c2.4-3.1,3.3-7.1,2.4-10.9l7.6-1.8c1.4,6,0.1,12.4-3.6,17.4c-3.2,4.6-8.2,7.7-13.7,8.7c-11.1,1.9-21.6-5.6-23.5-16.7
		c0-0.2-0.1-0.4-0.1-0.7c-1.3-12,7.3-22.7,19.3-24C415.6,349.6,415.8,349.6,416,349.6L416,349.6z M457.6,337.2l-38.3-10.5l2.3-8.5
		l14.2,3.9l4.5-16.6l-14.1-3.8l2.3-8.5l38.3,10.5l-2.3,8.5l-16.4-4.5l-4.5,16.6l16.4,4.5L457.6,337.2z M123.3,231.3l-42.6,5.2l2.5-9
		l28.8-3.3l-23.1-17.6l2.5-9l34,26.2L123.3,231.3z M133.9,198.8L110.1,163l4.4-6.5l42.1,8.6l-5.2,7.8l-7-1.5l-9.3,13.8l4,5.9
		L133.9,198.8z M130.7,179.1l6.5-9.6l-15.2-3.3L130.7,179.1z M172.3,150.9l-23.8-31.8l7-5.2l19,25.4l12.4-9.3l4.8,6.4L172.3,150.9z
		 M211.4,126.1l-13.1-37.5L223,80l2.6,7.5l-16.4,5.7l2.7,7.7l15-5.2l2.6,7.4l-15,5.2l5.2,14.9L211.4,126.1z M258.2,113.5L258,73.8
		h16.6c3.6-0.1,7,1.3,9.5,3.8c2.7,2.4,4.2,5.8,4.1,9.3c0.2,4.8-2.6,9.3-7,11.3l9.8,15.3h-9.9l-8.3-13.2h-5.9v13.2L258.2,113.5z
		 M266.8,92.5h7c3.4,0,5.7-2.2,5.7-5.6c0.1-2.8-2-5.1-4.8-5.2c-0.1,0-0.1,0-0.2,0h-7.7V92.5z M311.6,117.5l12.8-37.6l25.7,8.7
		l-2.6,7.6l-17.4-5.9l-2.4,7.1l16.2,5.5l-2.5,7.4l-16.2-5.6l-2.7,8l17.8,6l-2.6,7.6L311.6,117.5z M365.9,143.4l9.1-11.7l3.7-28.6
		l7.5,5.8l-2.6,18.8l17.6-7.3l7.5,5.8l-26.8,10.7l-9.1,11.8L365.9,143.4z M400.1,164.9c0.4,1.1,1,2.1,1.7,3c2.3,3.1,4.5,2.7,7.5,0.5
		l21.5-15.7l5.2,7.1l-21.1,15.3c-2.1,1.7-4.5,3-7.1,3.8c-3.9,1.3-7.5-0.1-11.7-5.6c-0.9-1.2-1.7-2.5-2.4-3.9L400.1,164.9z
		 M414.6,199.6l42.9,2.8l2.5,7.4l-32.3,28.3l-3-8.8l5.4-4.7l-5.4-15.7l-7.2-0.4L414.6,199.6z M432.2,209l3.7,11l11.8-10.1L432.2,209
		z"/>
	<circle class="st0" cx="274.1" cy="268.8" r="143"/>
	<circle class="st2" cx="274.1" cy="268.8" r="137.3"/>
	<path class="st0" d="M310.1,261.2l-64.3-111.5l-87.7,151.9h46.3l18.2-31.4h-10.1l33.3-57.6l28.3,49.2L310.1,261.2z"/>
	<path class="st0" d="M297.5,221.3l-18.2-31.4l23.2-40.2l87.7,151.9H261.5l17.5-31.4h56.7l-33.2-57.6L297.5,221.3L297.5,221.3z"/>
	<path class="st0" d="M250.8,239.3l18.5,30.9l-28.4,49.1h66.5l-4.9-8.4l36.1-0.3l23.2,40.2H186.4L250.8,239.3L250.8,239.3z"/>
	<g>
		<path class="st1" d="M390.7,703.6c4.8,2.8,8.2,7.4,9.6,12.8c1.6,5.3,0.9,11-1.8,15.8c-2.5,4.8-6.9,8.2-12.2,9.6
			c-4.5,1.3-9.3,0.7-13.4-1.4l-3.1,4.5l-6.2-4.3l3.2-4.8c-2.6-2.4-4.4-5.5-5.2-8.9c-1.6-5.3-1-11,1.7-15.9
			c5.2-9.6,17.2-13.1,26.8-7.9c0.2,0.1,0.5,0.3,0.7,0.4L390.7,703.6z M371.1,729l4.1-6.2l6.3,4.3l-4.3,6.3c2.2,0.7,4.5,0.7,6.7,0
			c3.2-0.8,5.9-2.8,7.5-5.7c1.7-2.7,2.2-6.1,1.3-9.2c-1.9-6.6-8.7-10.4-15.3-8.6c-3.1,0.9-5.7,2.9-7.3,5.6c-1.6,2.9-2,6.3-1,9.4
			C369.5,726.4,370.1,727.8,371.1,729L371.1,729z M415,754.8l5.2,6.9l-17.8,13.4c-5,3.7-5.9,7.9-2.7,12.2c3.2,4.3,7.4,4.5,12.4,0.6
			l17.8-13.4l5.2,6.9l-18.6,14c-4.3,3.2-8.4,4.4-12.5,3.6c-4.3-0.9-8.1-3.4-10.6-7c-2.8-3.4-4.2-7.7-3.9-12c0.4-4.3,2.7-7.9,7-11.1
			L415,754.8z M430.4,828.7l23-31.6l7,5l-23,31.6L430.4,828.7z M468.6,852.2l12.8-37l14,4.8c6.2,2.2,10.5,5.6,12.7,10.1
			s2.5,9.6,0.5,15.1c-1.9,5.6-5.2,9.4-9.7,11.6c-4.5,2.2-9.8,2.2-16.2,0L468.6,852.2z M479.3,847.5l5.3,1.8c8.7,3,13.3-0.1,15.6-6.9
			c1.2-2.9,1.2-6.1,0.1-9.1c-1-2.6-3.7-4.7-8.1-6.1l-5.3-1.8L479.3,847.5z M537.6,868.6l-1.6-39.1l14.7-0.5
			c6.6-0.3,11.8,1.3,15.5,4.9c3.7,3.6,5.7,8.1,5.9,14s-1.4,10.7-4.8,14.4s-8.4,5.6-15.1,5.8L537.6,868.6z M545.9,860.5l5.7-0.3
			c9.2-0.4,12.4-4.9,12.2-12c0-3.2-1.1-6.2-3.2-8.5c-1.9-1.9-5.2-3-9.8-2.7l-5.6,0.3L545.9,860.5z M606.5,858.8l-12.9-36.9l8.1-2.8
			l12.9,36.9L606.5,858.8z M653,836.4l-17.8-25.7l-8.7,6.1l-4.5-6.5l24.3-16.9l4.5,6.5l-8.5,5.9l17.8,25.7L653,836.4z M686.7,755.7
			l0.5,7.8c-3.8,0.3-7.2,2.2-9.4,5.3c-2,2.6-2.8,5.9-2.3,9.2c0.4,3.3,2.2,6.2,4.9,8.1c2.6,2,5.9,2.9,9.2,2.3c3.2-0.5,6.1-2.4,8-5
			c2.3-3,3.2-7,2.3-10.7l7.5-1.8c1.4,5.9,0.1,12.2-3.5,17.1c-3.2,4.5-8,7.7-13.4,8.7c-10.9,1.8-21.2-5.6-23.1-16.5
			c0-0.2-0.1-0.4-0.1-0.6c-1.3-11.8,7.1-22.4,18.9-23.7c0.2,0,0.4,0,0.6-0.1L686.7,755.7z M727.7,743.6l-37.6-10.3l2.3-8.3l14,3.9
			l4.5-16.3l-14-3.9l2.3-8.3l37.8,10.3l-2.3,8.3l-16.2-4.4l-4.7,16.3l16.2,4.4L727.7,743.6z M398.7,639.3l-41.9,5l2.5-8.9l28.3-3.2
			L364.9,615l2.5-8.9l33.5,25.9L398.7,639.3z M409.2,607.3L385.8,572l4.3-6.3l41.4,8.4l-5.2,7.6l-6.9-1.4l-9.1,13.6l4,5.8
			L409.2,607.3z M406,587.9l6.3-9.4l-14.9-3.2L406,587.9z M447,560.2l-23.4-31.3l7-5.2l18.7,25.1l12.3-9.2l4.7,6.3L447,560.2z
			 M485.5,535.9l-12.8-36.9l24.3-8.5l2.6,7.4l-16.2,5.7l2.6,7.6l14.7-5.2l2.6,7.2l-14.7,5.2l5.2,14.6L485.5,535.9z M531.5,523.5
			l-0.3-39.1h16.4c3.5-0.1,6.9,1.3,9.4,3.7c2.6,2.3,4.1,5.7,4,9.2c0.1,4.7-2.6,9.1-6.9,11.1l9.6,15h-9.7l-8.3-12.9h-5.8v13.1
			L531.5,523.5z M539.9,502.8h7c2.8,0.2,5.3-1.9,5.6-4.8c0-0.2,0-0.4,0-0.7c0.1-2.7-1.9-5-4.6-5.2c-0.1,0-0.2,0-0.3,0h-7.6V502.8z
			 M584,527.4l12.5-37l25.3,8.5l-2.6,7.4l-17.1-5.8l-2.3,7l16,5.4l-2.5,7.2l-16-5.4l-2.7,8l17.5,5.9l-2.6,7.5L584,527.4z
			 M637.4,552.8l8.9-11.5l3.6-28.2l7.4,5.7l-2.6,18.5l17.3-7.1l7.4,5.7l-26.4,10.6l-8.9,11.5L637.4,552.8z M671.2,574
			c0.4,1.1,1,2.1,1.7,3c2.2,3.1,4.5,2.6,7.4,0.5l21.2-15.4l5,7l-20.8,15.1c-2.1,1.7-4.4,3-7,3.7c-3.7,1.3-7.4-0.1-11.5-5.4
			c-0.9-1.2-1.7-2.5-2.3-3.9L671.2,574z M685.4,608.2l42.3,2.7l2.5,7.2l-31.8,27.8l-3-8.7l5.4-4.7l-5.3-15.4l-7.1-0.4L685.4,608.2z
			 M702.7,617.4l3.6,10.7l11.6-10L702.7,617.4z"/>
		<path class="st0" d="M582.6,668.7L519.2,559L433,708.5h45.5l17.8-31h-9.8l32.7-56.6l27.9,48.4L582.6,668.7z"/>
		<path class="st0" d="M570.1,629.5l-17.8-31l22.9-39.4l86.2,149.5H534.8l17.2-31h55.7l-32.6-56.6L570.1,629.5L570.1,629.5z"/>
		<path class="st0" d="M524.2,647.1l18.2,30.4l-27.9,48.4h65.4l-4.8-8.3l35.6-0.3l22.8,39.6H460.8L524.2,647.1L524.2,647.1z"/>
	</g>
</g>
</svg>
