<svg id="Layer_1" data-name="Layer 1" xmlns="http://www.w3.org/2000/svg" xmlns:xlink="http://www.w3.org/1999/xlink" width="1600" height="900" viewBox="0 0 1600 900"><defs><clipPath id="clip-path"><path d="M1190.1,418.6l-4.7,19.6H1539l-2.9-12.3c-.5-2.1-2.2-5.6-1.6-7.8l5.1-21.4,11.9-50.2c-8.6-.5-17.7-1-25.9-4.2-20.7-8.1-35.1-30.2-47.5-47.7s-23.4-36.4-38.5-51.7-35.1-27-58-29.9a115.6,115.6,0,0,0-62.9,10.4c-41,19.6-64,59.8-94.5,91.4a161.6,161.6,0,0,1-22.8,20.1,75,75,0,0,1-13.1,7.7c-1.9.8-15,5.4-15,5.6l16.8,70.4Z" fill="none"/></clipPath><clipPath id="clip-path-2"><path d="M1526.6,722.3l4.7,19.6H1177.7l2.9-12.3c.5-2.1,2.2-5.6,1.6-7.8l-5.1-21.4-11.9-50.2c8.6-.6,17.7-1,25.9-4.2,20.7-8.1,35.1-30.3,47.5-47.7s23.5-36.4,38.5-51.7,35.1-27.1,58-29.9a115.6,115.6,0,0,1,62.9,10.4c41,19.6,64,59.7,94.5,91.4a167.4,167.4,0,0,0,22.8,20.1,75,75,0,0,0,13.1,7.7c1.9.8,15,5.4,15,5.6l-16.8,70.4Z" fill="none"/></clipPath><clipPath id="clip-path-3"><path d="M859.9,799.3h254.4V345.9c0-1.1-6.9-2.3-8.1-2.7-11-3.4-20.6-8.6-28.2-17.3-13.8-15.7-18.8-37.4-20.8-57.7-4.1-42.6-.4-86.7,4.7-129,.1-.6,1-7,.8-7l-2.1-.6-13.4-3.6-46.8-12.6-44.5-11.9-10.2-2.8c-2-.5-8,6.4-10,7.9-17.6,13.1-40.7,13.1-61.7,13.1s-43.9,1.4-65.3-2.5a57.7,57.7,0,0,1-28.4-13.7c-3.2-2.8-4.2-5.4-8.2-4.3l-13.7,3.7-91.2,24.6-9.7,2.6c-1,.3.7,9.8.9,11.2,1.3,11,2.3,22,3.2,33.1,1.7,21.8,2.6,43.7,2.3,65.5s-1.5,42.5-9.2,62.2A70.7,70.7,0,0,1,637.9,330c-8,7.7-18.3,11.6-28.8,14.5-2.2.6-3.7.1-3.7,2.2V793.4c0,.7-.3,5.9.3,5.9Z" fill="none"/></clipPath><clipPath id="clip-path-4"><path d="M303,791H554.7c1.8,0,.9-2.8.9-4.4V339c0,.3-13.7-.5-15-.6a45.2,45.2,0,0,1-15.2-4.1c-19.8-9.5-29-30.1-32.6-50.9-7.4-43.1,1.4-88.4,10.2-130.7l.9-4.6c.1-.6-2.8-1.1-3.4-1.3l-7.5-2.2L477.8,140,447,130.8c-20.9-6.2-41.9-12.3-62.6-19.1l-1,5.5c-3.7,20.9-10.2,40.7-25.2,56.3s-37.3,20.1-58.1,20.1-42.2-8.1-56-24.1-19-37.1-22.5-57.8c-29.7,9.7-59.8,18.3-89.7,27.2l-15.2,4.6-8.2,2.4c-1.7.5-6.7,1.1-6.3,2.9,2.3,10.8,4.4,21.5,6.3,32.2,3.8,22,6.8,44.2,7.1,66.6s-1.5,43.3-11,62.6c-4.7,9.4-11.4,17.2-20.5,22.4S64,339,53.4,339c-2.7,0-3-.8-3,1.4V785.1c0,.6-.4,5.8.3,5.8H303Z" fill="none"/></clipPath><clipPath id="clip-path-5"><path d="M298.5,814.5H575.4c2,0,1.1-3,1.1-4.8V317.4c0,.3-15.2-.5-16.5-.7a54.2,54.2,0,0,1-16.8-4.4c-21.7-10.5-29.5-25.3-29.5-25.3-11.4-30.9,1.6-97.3,11.2-143.8l1-5c.1-.7-8.5-2.8-9.2-3.1l-2.7-.8-16.8-5c-11.3-3.4-29.9-10.3-41.2-13.7-23-6.8-60.1-17.9-82.9-25.4-.4,2.1.3.1-.4,2.1-9.9,30.3-9,35.6-17.5,53.2-10.4,21.5-30.7,25.3-53.7,25.2s-45.8-11.4-53.6-33.4c-6.8-19.2-6.8-19.2-13.8-46.3-32.7,10.7-80.1,21.9-113,31.7-5.6,1.7-19.2,7.1-24.8,8.8l-8.9,2.6c-1.9.6-7.4,1.2-7,3.3,2.5,11.7,4.9,23.5,6.9,35.3,4.2,24.2,4.8,19.5,5.2,44.1s-1.7,47.6-12.2,68.9c-5.1,10.3-12.5,18.8-22.6,24.5s-22,7-33.8,7.1c-2.8,0-3.2-.8-3.2,1.5V808.1c0,.7-.4,6.4.3,6.4Z" fill="none"/></clipPath><linearGradient id="linear-gradient" x1="9.34" y1="560.32" x2="578.5" y2="560.32" gradientTransform="matrix(1, 0, 0, -1, 0, 903.63)" gradientUnits="userSpaceOnUse"><stop offset="0" stop-color="#fff" stop-opacity="0.8"/><stop offset="0.1" stop-color="#fff" stop-opacity="0.88"/><stop offset="0.21" stop-color="#fff" stop-opacity="0.95"/><stop offset="0.34" stop-color="#fff" stop-opacity="0.99"/><stop offset="0.5" stop-color="#fff"/><stop offset="0.66" stop-color="#fff" stop-opacity="0.99"/><stop offset="0.79" stop-color="#fff" stop-opacity="0.95"/><stop offset="0.9" stop-color="#fff" stop-opacity="0.88"/><stop offset="1" stop-color="#fff" stop-opacity="0.8"/></linearGradient><linearGradient id="linear-gradient-2" x1="20.53" y1="447.89" x2="578.5" y2="447.89" gradientTransform="matrix(1, 0, 0, -1, 0, 903.63)" gradientUnits="userSpaceOnUse"><stop offset="0" stop-color="#231f20"/><stop offset="0.07" stop-color="#282526"/><stop offset="0.26" stop-color="#312f30"/><stop offset="0.49" stop-color="#333133"/><stop offset="0.73" stop-color="#312f30"/><stop offset="0.93" stop-color="#282526"/><stop offset="1" stop-color="#231f20"/></linearGradient><linearGradient id="linear-gradient-3" x1="27.52" y1="447.54" x2="578.5" y2="447.54" xlink:href="#linear-gradient-2"/></defs><title>Artboard 1</title><path d="M785.8,161.2c-2,.5-3.7,1.3-5.5.1a5.9,5.9,0,0,0-5-.6,12.5,12.5,0,0,1-5.1.1l-16-1.9a28.8,28.8,0,0,0-4.1-.2,4.3,4.3,0,0,0-2,.7.9.9,0,0,0,.1,1.6l1.7.4,24.7,3.6,2.4.4c.3.1.5.2.5.5a.7.7,0,0,1-.5.7l-.8.2a54.9,54.9,0,0,1-11.4,1c-12.2.4-24.2-1.1-36.1-3.2a241.5,241.5,0,0,1-25.2-5.7,87.6,87.6,0,0,1-22.4-9.8,78.2,78.2,0,0,1-11.2-9.5l-1.8-1.7a.6.6,0,0,1-.1-.6c.1-.3.4-.2.6-.2l1.5.5c5.9,2.8,12.1,4.4,18.4,6A531.9,531.9,0,0,0,756,156.4c4.4.6,8.8.9,13.2,1.3a95,95,0,0,1,14,2.3A4.1,4.1,0,0,1,785.8,161.2Z" fill="#e6e7e8"/><path d="M770.4,172.9l-2.2.6c-3.9,1-7.7,2.1-11.6,3a14.5,14.5,0,0,0-2.2.9c-.6.3-.7.7-.1,1.2a2.9,2.9,0,0,0,2,.7,8.6,8.6,0,0,0,2.8-.3l10.4-2.4a3.9,3.9,0,0,1,2.4,0c-.1.7-.6,1-1.1,1.3a12,12,0,0,1-4.5,1.5c-12.7,1.2-25.3,2.5-38,2.6-3.3,0-6.6.3-9.8.5a15.1,15.1,0,0,1-7-.9,2.6,2.6,0,0,0-2.3.1.9.9,0,0,1-.7.3c-.6.2-1.5.4-1.7-.2s.7-.8,1.2-1l.5-.2c.6-.2,1.2-.5,1.1-1.2s-.8-.6-1.3-.6l-6.6-.6a26.5,26.5,0,0,1-15.9-7.2l-.6-.6c-1.3-1.4-1.2-2,.5-2.7a18.1,18.1,0,0,1,11-1.3l5.8,1.6c5.5,1.4,11.1,1.8,16.6,2.3,8.3.9,16.6,1.6,24.8,3.2a42.1,42.1,0,0,0,14.6.3l9.8-1.2A2.1,2.1,0,0,1,770.4,172.9Z" fill="#e6e7e8"/><path d="M791.9,176.9a35.5,35.5,0,0,1-6.6,3.1c-3.4,1.6-6.9,3-10.4,4.4s-4.3,1.8-6.4,2.9c-.6.3-1.7.5-1.2,1.5s1.2.4,1.8.2l14.1-4.6a12.3,12.3,0,0,1,2.9-.7,1.4,1.4,0,0,1-1,.8,135.5,135.5,0,0,1-19.3,9l-18.2,6.9a62.3,62.3,0,0,1-13.4,3.2,21.8,21.8,0,0,0-4.4,1.1,8.9,8.9,0,0,1-6.4-.6l-4.5-2.3c-1.1-.6-1.2-.7-.5-1.8s2-2.7,2.9-4.1,1.8-1.6.7-2.9.1-.5.3-.6h.9a149.6,149.6,0,0,0,24.8-3.5c4.3-.8,8.5-1.8,12.8-2.8a25.4,25.4,0,0,0,6.5-2.4,13.3,13.3,0,0,1,5.2-1.7,42.7,42.7,0,0,0,11-3.5l4.1-1.7A4.4,4.4,0,0,1,791.9,176.9Z" fill="#e6e7e8"/><path d="M824.8,153.9a.8.8,0,0,1,.8.2,26.4,26.4,0,0,1,6.7,7.4,10.6,10.6,0,0,1,1.2,7.2,6.6,6.6,0,0,0,2,6.3c2,2,3.9,4,4.8,6.8a4,4,0,0,0,1.6,1.8,5.9,5.9,0,0,1,2.2,6.5,3.3,3.3,0,0,0,1.6,4.3l1.7,1.4c3.3,2.5,4.1,6.2,4.8,9.9a1.1,1.1,0,0,1-.4,1.2,6.3,6.3,0,0,1-4.9,1.7,2.9,2.9,0,0,1-2.4-2.3c-.8-3.6-2.7-6.5-4.7-9.5a10.7,10.7,0,0,1-1.9-6.9,3.9,3.9,0,0,0-.6-3,47.1,47.1,0,0,0-4.4-5.6,7,7,0,0,0-2.5-1.7,3.2,3.2,0,0,1-1.9-2.6l-1.2-5.6-.3-1.3c-.2-.7-.4-1.6-1.3-1.6s-1.2,1-1.3,1.8a12.9,12.9,0,0,1-.4,1.9c-.3,2.3-1.5.9-3.8,1.4a9.3,9.3,0,0,1-3.7.2c-3.8-.9-7.6.5-11.1-1.5s-12.1-3.4-14.9-3.5c-1.2-.1-1.4-.6-1-1.8,1.4-4.1,11.3-3.6,13.8-7,.6-.8,1.4-1.1,2-.1s1.1.7,1.8.4l.8-.3a9.2,9.2,0,0,1,6.3-.4l6,1.8,1.2.3c2.3.5,2.8.1,2.9-2.2s-.1-2.4,0-3.6A2.9,2.9,0,0,1,824.8,153.9Z" fill="#e6e7e8"/><path d="M797.2,186.1a6.4,6.4,0,0,1-2.9,2.6l-9.7,6.1-9.1,5.9c-.7.5-1.9,1.2-1.5,2.1s1.7.1,2.5-.2a44.3,44.3,0,0,0,9.4-4.9,132.9,132.9,0,0,1,14.1-9.4,3.3,3.3,0,0,1,2.7-.6c1,.3,1.2.9.4,1.5-3,2.4-6,4.9-9.9,5.9a15.9,15.9,0,0,0-6.4,3.4,84.2,84.2,0,0,1-9.4,7.3,60.7,60.7,0,0,1-9,5c-2.4,1-4.7,2.3-7.1,3.3a81,81,0,0,1-13.5,5c-1,.2-2.3.9-2.9-.1s.7-1.6,1.3-2.4a18,18,0,0,1,5.3-4.6c5.9-3.6,11.7-7.2,17.4-11.1a101.5,101.5,0,0,1,13.4-8.1c4.1-2.1,8.4-3.8,12.5-6A6.8,6.8,0,0,1,797.2,186.1Z" fill="#e6e7e8"/><path d="M796.7,206.5a6.3,6.3,0,0,0,2.4-1.4l13.3-11.3a5.3,5.3,0,0,1,3.6-1.3l-2.5,2.7a187.3,187.3,0,0,1-20.7,17.9,138.7,138.7,0,0,1-12.9,8.7,22.8,22.8,0,0,1-6.1,2.4c-.8.2-.9-.2-.7-.7v-.2a31,31,0,0,1,9-10.1,6.8,6.8,0,0,1,2.5-.9,2.7,2.7,0,0,0,1.9-1c2.6-3.7,6.2-6.6,9.6-9.6L808,191.1l1.5-1.2c.5-.5,1.1-.6,1.5-.2s.2.9-.2,1.3a31.9,31.9,0,0,1-4.2,4c-2.7,2.3-5.3,4.7-7.7,7.2a12.5,12.5,0,0,0-2.1,3A1.2,1.2,0,0,0,796.7,206.5Z" fill="#e6e7e8"/><path d="M820.7,200.5a5.8,5.8,0,0,1,.1,3.9c-.3,1.2-.7,2.3-.9,3.5s.5,1.6,1.7,1a3.9,3.9,0,0,0,1.8-2.2,16.7,16.7,0,0,1,2.5-4.3,2.7,2.7,0,0,1,1.1-1c.8-.3,1.4,0,1.2.9a12.1,12.1,0,0,1-.5,1.8,40.6,40.6,0,0,1-4.7,8.7l-6.5,9.4a5.8,5.8,0,0,1-1.8,2,1.3,1.3,0,0,1-2.1-1v-.3c1.2-7.6,2.9-15.2,7.5-21.8Z" fill="#e6e7e8"/><path d="M804.8,210.6a16,16,0,0,1-1,3.1c-.3.9-.7,1.7-1,2.6s-.4,1.2.2,1.5,1.1,0,1.5-.4l2.1-2.2a1.1,1.1,0,0,1,0,1.1,20.2,20.2,0,0,1-1.4,3,34.7,34.7,0,0,1-7.3,8.5l-.6.5c-.7.5-1.1.3-1.1-.5a9.1,9.1,0,0,1,.3-2.3,37.6,37.6,0,0,1,7.4-14.3A1.2,1.2,0,0,1,804.8,210.6Z" fill="#e6e7e8"/><path d="M826.6,221.1c-.2-.4-.3-.5-.3-.7-.4-3.3-.4-3.3,2.1-5.4l1.8-1.4c.2-.1.4-.4.7-.2a.5.5,0,0,1,.1.8A17.7,17.7,0,0,1,826.6,221.1Z" fill="#e6e7e8"/><path d="M813.4,205c-.4,1.4-1.4,2.3-2.1,3.7C811.1,206.3,811.7,205.3,813.4,205Z" fill="#e6e7e8"/><path d="M777.4,174.5l3.9-.3C779.7,175.6,778.9,175.7,777.4,174.5Z" fill="#e6e7e8"/><path d="M933.9,161.2c2,.5,3.7,1.3,5.5.1a5.7,5.7,0,0,1,4.9-.6,13,13,0,0,0,5.2.1l16-1.9a28.2,28.2,0,0,1,4.1-.2,4.8,4.8,0,0,1,2,.7.9.9,0,0,1-.2,1.6l-1.6.4L945.1,165l-2.4.4c-.3.1-.6.2-.5.5a.7.7,0,0,0,.5.7l.8.2a54.3,54.3,0,0,0,11.4,1c12.1.4,24.1-1.1,36.1-3.2a234.1,234.1,0,0,0,25.1-5.7,88.3,88.3,0,0,0,22.5-9.8,78.2,78.2,0,0,0,11.2-9.5,13.7,13.7,0,0,0,1.7-1.7.5.5,0,0,0,.2-.6c-.2-.3-.4-.2-.6-.2l-1.5.5c-5.9,2.8-12.2,4.4-18.4,6a531.9,531.9,0,0,1-67.5,12.8c-4.4.6-8.8.9-13.2,1.3a92.9,92.9,0,0,0-14,2.3A3.9,3.9,0,0,0,933.9,161.2Z" fill="#e6e7e8"/><path d="M949.3,172.9l2.2.6,11.5,3a15.7,15.7,0,0,1,2.3.9c.6.3.7.7.1,1.2a3.1,3.1,0,0,1-2.1.7,8.3,8.3,0,0,1-2.7-.3l-10.4-2.4a3.9,3.9,0,0,0-2.4,0c0,.7.5,1,1,1.3a13.1,13.1,0,0,0,4.6,1.5c12.6,1.2,25.3,2.5,38,2.6,3.3,0,6.5.3,9.8.5a15.1,15.1,0,0,0,7-.9,2.6,2.6,0,0,1,2.3.1.9.9,0,0,0,.6.3c.7.2,1.5.4,1.8-.2s-.7-.8-1.3-1l-.4-.2c-.6-.2-1.2-.5-1.1-1.2s.8-.6,1.3-.6l6.6-.6a26.5,26.5,0,0,0,15.9-7.2l.6-.6c1.2-1.4,1.2-2-.5-2.7a18.1,18.1,0,0,0-11-1.3l-5.9,1.6c-5.4,1.4-11,1.8-16.6,2.3-8.2.9-16.5,1.6-24.7,3.2a42.1,42.1,0,0,1-14.6.3l-9.8-1.2C950.7,172.5,950,172.2,949.3,172.9Z" fill="#e6e7e8"/><path d="M927.8,176.9a32.7,32.7,0,0,0,6.6,3.1c3.4,1.6,6.9,3,10.3,4.4s4.4,1.8,6.5,2.9c.6.3,1.7.5,1.2,1.5s-1.2.4-1.8.2l-14.1-4.6a12.3,12.3,0,0,0-2.9-.7,1.4,1.4,0,0,0,1,.8,135.5,135.5,0,0,0,19.3,9l18.2,6.9a62.3,62.3,0,0,0,13.4,3.2,21.8,21.8,0,0,1,4.4,1.1,8.9,8.9,0,0,0,6.4-.6l4.5-2.3c1.1-.6,1.2-.7.5-1.8s-2-2.7-3-4.1-1.8-1.6-.6-2.9-.1-.5-.3-.6h-.9a148.1,148.1,0,0,1-24.8-3.5c-4.3-.8-8.5-1.8-12.8-2.8a25.4,25.4,0,0,1-6.5-2.4,13.3,13.3,0,0,0-5.2-1.7,42.7,42.7,0,0,1-11-3.5l-4.1-1.7A4.4,4.4,0,0,0,927.8,176.9Z" fill="#e6e7e8"/><path d="M894.9,153.9a.8.8,0,0,0-.8.2,26.4,26.4,0,0,0-6.7,7.4,10.1,10.1,0,0,0-1.2,7.2,6.6,6.6,0,0,1-2,6.3c-2,2-3.9,4-4.8,6.8a4,4,0,0,1-1.6,1.8,5.9,5.9,0,0,0-2.2,6.5,3.3,3.3,0,0,1-1.6,4.3l-1.7,1.4c-3.4,2.5-4.1,6.2-4.8,9.9a1.1,1.1,0,0,0,.4,1.2,6.3,6.3,0,0,0,4.9,1.7,3,3,0,0,0,2.4-2.3c.8-3.6,2.7-6.5,4.7-9.5a10,10,0,0,0,1.8-6.9,4.5,4.5,0,0,1,.7-3,59.3,59.3,0,0,1,4.3-5.6,8.3,8.3,0,0,1,2.6-1.7,3.2,3.2,0,0,0,1.9-2.6l1.2-5.6a6.1,6.1,0,0,1,.3-1.3c.2-.7.4-1.6,1.3-1.6s1.2,1,1.3,1.8a12.5,12.5,0,0,0,.3,1.9c.4,2.3,1.6.9,3.9,1.4a9.2,9.2,0,0,0,3.7.2c3.8-.9,7.6.5,11.1-1.5s12.1-3.4,14.9-3.5c1.2-.1,1.4-.6,1-1.8-1.5-4.1-11.3-3.6-13.8-7-.6-.8-1.4-1.1-2-.1s-1.1.7-1.8.4l-.9-.3a8.8,8.8,0,0,0-6.2-.4l-6,1.8a5.3,5.3,0,0,1-1.2.3c-2.4.5-2.8.1-2.9-2.2v-3.6A2.9,2.9,0,0,0,894.9,153.9Z" fill="#e6e7e8"/><path d="M922.5,186.1a6.4,6.4,0,0,0,2.9,2.6l9.7,6.1,9.1,5.9c.7.5,1.9,1.2,1.5,2.1s-1.7.1-2.5-.2a44.3,44.3,0,0,1-9.4-4.9,134.2,134.2,0,0,0-14.2-9.4,3,3,0,0,0-2.6-.6c-1,.3-1.2.9-.4,1.5,3,2.4,6,4.9,9.9,5.9a15.9,15.9,0,0,1,6.4,3.4,84.2,84.2,0,0,0,9.4,7.3,60.7,60.7,0,0,0,9,5c2.4,1,4.7,2.3,7.1,3.3a81,81,0,0,0,13.5,5c1,.2,2.3.9,2.9-.1s-.8-1.6-1.3-2.4a19.3,19.3,0,0,0-5.3-4.6c-5.9-3.6-11.7-7.2-17.4-11.1a101.5,101.5,0,0,0-13.4-8.1c-4.1-2.1-8.5-3.8-12.5-6A7.6,7.6,0,0,0,922.5,186.1Z" fill="#e6e7e8"/><path d="M923,206.5a6.3,6.3,0,0,1-2.4-1.4l-13.3-11.3a5.4,5.4,0,0,0-3.7-1.3l2.5,2.7a198,198,0,0,0,20.8,17.9,151.9,151.9,0,0,0,12.8,8.7,23.4,23.4,0,0,0,6.2,2.4c.8.2.8-.2.6-.7v-.2a32.2,32.2,0,0,0-9-10.1,8.4,8.4,0,0,0-2.5-.9,2.7,2.7,0,0,1-1.9-1c-2.6-3.7-6.2-6.6-9.6-9.6l-11.8-10.6-1.5-1.2a1.1,1.1,0,0,0-1.6-.2c-.6.4-.1.9.2,1.3a40.7,40.7,0,0,0,4.3,4c2.7,2.3,5.3,4.7,7.7,7.2a12.5,12.5,0,0,1,2.1,3A1.2,1.2,0,0,1,923,206.5Z" fill="#e6e7e8"/><path d="M899,200.5a5.3,5.3,0,0,0-.1,3.9c.3,1.2.7,2.3.9,3.5s-.5,1.6-1.7,1a3.9,3.9,0,0,1-1.8-2.2,20.2,20.2,0,0,0-2.5-4.3,2.7,2.7,0,0,0-1.1-1c-.8-.3-1.4,0-1.3.9l.6,1.8a40.6,40.6,0,0,0,4.7,8.7l6.5,9.4a5.8,5.8,0,0,0,1.8,2,1.3,1.3,0,0,0,2.1-1v-.3c-1.2-7.6-3-15.2-7.5-21.8Z" fill="#e6e7e8"/><path d="M914.9,210.6a16,16,0,0,0,1,3.1c.3.9.7,1.7,1,2.6s.4,1.2-.2,1.5-1.1,0-1.5-.4l-2.2-2.2a1.4,1.4,0,0,0,.1,1.1,20.2,20.2,0,0,0,1.4,3,36.5,36.5,0,0,0,7.2,8.5c.3.1.5.4.7.5s1.1.3,1.1-.5a9.1,9.1,0,0,0-.3-2.3,37.6,37.6,0,0,0-7.4-14.3A1.2,1.2,0,0,0,914.9,210.6Z" fill="#e6e7e8"/><path d="M893.1,221.1l.3-.7c.4-3.3.4-3.3-2.1-5.4l-1.8-1.4c-.2-.1-.5-.4-.8-.2a.8.8,0,0,0-.1.8A19.2,19.2,0,0,0,893.1,221.1Z" fill="#e6e7e8"/><path d="M906.2,205c.4,1.4,1.5,2.3,2.2,3.7C908.6,206.3,908,205.3,906.2,205Z" fill="#e6e7e8"/><path d="M942.3,174.5l-3.9-.3C940,175.6,940.8,175.7,942.3,174.5Z" fill="#e6e7e8"/><path d="M791.7,253.7V222.1h5.4L815.2,244V222.1h5.9v31.6h-5l-18.5-22.3v22.3Z" fill="#dcbf30"/><path d="M826,253.7l14.3-31.6h5.2l14.3,31.6h-6.5l-2.8-6.3H835.3l-2.8,6.3Zm11.2-11h11.4l-5.7-12.8Z" fill="#dcbf30"/><path d="M864.7,253.7V222.1h5.2l12.3,17.7,12.2-17.7h5.2v31.6h-5.8V232.3L882.2,249l-11.7-16.6v21.3Z" fill="#dcbf30"/><path d="M907.2,253.7V222.1H929v5.1H913.3v7.6H928v5.1H913.3v8.7h16v5.1Z" fill="#dcbf30"/><path d="M851.2,377.3c0,16.6-.2,27.1-.6,31.9a49.5,49.5,0,0,1-17.5,32.9c-10.1,8.9-21.9,13.2-36,13.2s-26-4.3-36.2-13.2a49.6,49.6,0,0,1-17.2-32.9c-.4-4.8-.6-15.3-.6-31.9s.2-27,.6-31.7a49.8,49.8,0,0,1,17.2-33c10.2-8.8,22.2-13.1,36.2-13.1s25.9,4.3,36,13.1,16,19.8,17.5,33C851,350.3,851.2,360.9,851.2,377.3Zm-26.3,0c0-15.3-.2-24.8-.4-28.5a25.3,25.3,0,0,0-9-17.6,26,26,0,0,0-18.4-7.2,26.8,26.8,0,0,0-18.5,7.2,25.4,25.4,0,0,0-8.8,17.6c-.2,3.7-.4,13.2-.4,28.5s.2,25.4.6,29.1c1.1,14,12.7,24.3,27.1,24.3s26.1-10.3,27.2-24.3Q824.9,400.9,824.9,377.3Z" fill="#dcbf30"/><path d="M976.6,377.3c0,16.6-.2,27.1-.6,31.9a49.5,49.5,0,0,1-17.5,32.9c-10.1,8.9-22,13.2-36,13.2s-26-4.3-36.2-13.2a49.6,49.6,0,0,1-17.2-32.9c-.4-4.8-.6-15.3-.6-31.9s.2-27,.6-31.7a49.8,49.8,0,0,1,17.2-33c10.2-8.8,22.2-13.1,36.2-13.1s25.9,4.3,36,13.1,16,19.8,17.5,33C976.4,350.3,976.6,360.9,976.6,377.3Zm-26.3,0c0-15.3-.2-24.8-.4-28.5a25.3,25.3,0,0,0-9-17.6,26,26,0,0,0-18.4-7.2,26.8,26.8,0,0,0-18.5,7.2,25.4,25.4,0,0,0-8.8,17.6c-.2,3.7-.5,13.2-.5,28.5s.3,25.4.7,29.1c1.1,14,12.7,24.3,27.1,24.3s26.1-10.3,27.2-24.3Q950.3,400.9,950.3,377.3Z" fill="#dcbf30"/><path d="M859.8,165.9a12.9,12.9,0,1,1,12.9-12.8A12.8,12.8,0,0,1,859.8,165.9Zm0-23A10.2,10.2,0,1,0,870,153.1,10.2,10.2,0,0,0,859.8,142.9Z" fill="#231f20"/><path d="M851.6,177.9A12.9,12.9,0,1,1,864.5,165,12.8,12.8,0,0,1,851.6,177.9Zm0-23a10.2,10.2,0,0,0,0,20.3,10.2,10.2,0,1,0,0-20.3Z" fill="#231f20"/><path d="M868.1,177.9A12.9,12.9,0,1,1,880.9,165,12.9,12.9,0,0,1,868.1,177.9Zm0-23A10.2,10.2,0,1,0,878.2,165,10.1,10.1,0,0,0,868.1,154.9Z" fill="#231f20"/><path d="M847,181.6a1.4,1.4,0,1,1,2.8,0v3a1.9,1.9,0,0,1-.2.8h.4v.8h-.2c-.4,0-.6-.1-.7-.4h-.7a1.3,1.3,0,0,1-1.4-1.4Zm1,3c0,.5.1.6.4.6s.5-.1.5-.6v-3.1c0-.4-.2-.5-.5-.5s-.4.1-.4.5Z" fill="#231f20"/><path d="M851.3,180.2v4.5c0,.4.1.5.4.5s.5-.1.5-.5v-4.5h.9v4.4a1.3,1.3,0,0,1-1.4,1.5c-.9,0-1.3-.6-1.3-1.5v-4.4Z" fill="#231f20"/><path d="M853.7,180.2h.9V186h-.9Z" fill="#231f20"/><path d="M855.3,180.2h1.4c.9,0,1.3.5,1.3,1.4v2.9c0,1-.4,1.5-1.3,1.5h-1.4Zm.9.8v4.2h.5c.3,0,.4-.2.4-.6v-3c0-.4-.1-.6-.4-.6Z" fill="#231f20"/><path d="M858.6,180.2h1.5c.9,0,1.3.5,1.3,1.4v2.9c0,1-.4,1.5-1.3,1.5h-1.5Zm.9.8v4.2h.5c.3,0,.5-.2.5-.6v-3c0-.4-.2-.6-.5-.6Z" fill="#231f20"/><path d="M862,180.2h.9V186H862Z" fill="#231f20"/><path d="M863.3,180.2h2.8v.8h-.9v5h-1v-5h-.9Z" fill="#231f20"/><path d="M869.1,183.8v.8c0,.9-.4,1.4-1.3,1.4a1.3,1.3,0,0,1-1.4-1.4v-3a1.3,1.3,0,0,1,1.4-1.5c.9,0,1.3.6,1.3,1.5v.5h-.8v-.6c0-.4-.2-.5-.5-.5s-.5.1-.5.5v3.1c0,.5.2.6.5.6s.5-.1.5-.6v-.8Z" fill="#231f20"/><path d="M870.6,186h-.9v-5.8h.9v2.5h1v-2.5h1V186h-1v-2.5h-1Z" fill="#231f20"/><g clip-path="url(#clip-path)"><path d="M1170.8,424.2c-6.2-25.8-8.3-57.5-14.4-83.3-.1-.2,14.4-5.3,16.5-6.2,5.1-2.1,9.9-5.3,14.4-8.4a188.9,188.9,0,0,0,25.1-22.2c33.5-34.8,54.7-73,99.8-94.6a127,127,0,0,1,69.2-11.4c25.2,3.1,46.1,14.9,63.8,32.8s28.5,29.4,42.1,48.5,29.5,43.6,52.3,52.5c8.9,3.5,19,4,28.5,4.6-4.4,18.4-8.6,45.3-13,63.7l-5.5,23.5c-.6,2.4,1.2,6.2,1.7,8.5l3.2,13.6H1165.6l5.2-21.6Z" fill="#231f20"/></g><path d="M1190.1,418.6l-4.7,19.6H1539l-2.9-12.3c-.5-2.1-2.2-5.6-1.6-7.8l5.1-21.4,11.9-50.2c-8.6-.5-17.7-1-25.9-4.2-20.7-8.1-35.1-30.2-47.5-47.7s-23.4-36.4-38.5-51.7-35.1-27-58-29.9a115.6,115.6,0,0,0-62.9,10.4c-41,19.6-64,59.8-94.5,91.4a161.6,161.6,0,0,1-22.8,20.1,75,75,0,0,1-13.1,7.7c-1.9.8-15,5.4-15,5.6l16.8,70.4Z" fill="none" stroke="#fff" stroke-linejoin="bevel" stroke-width="0.82"/><path d="M1346.5,373.6l-41.7-43.7,16,3.3h2a1.5,1.5,0,0,0,1.1-.4h.2a2.4,2.4,0,0,0,.6-1.1l2.3-7.7,13.1,15.2,1.9,1.2,1.1.4h.3l14.2,32.7h-10.3" fill="#e13227"/><path d="M1302.3,355.8l7-3.4.4-.3h0a1.5,1.5,0,0,0,.4-1.1v-.7l-5.3-20.4,41.7,43.8h-23.3m20.2-32.8h.1a3.6,3.6,0,0,0,.7-1l.3-.7c0-.2.1-.4.1-.6v-.7l-5.8-33.3,6.4,3.6,2.3,1.2a4.2,4.2,0,0,0,1.6.4l.7-.2h.1l.7-.3h.1a5.2,5.2,0,0,0,1.5-1.8l.7-1.3,9.4-18.8.3,86.4h-5.1Zm79.1,15-20.9,17.8H1381l39-43.7-5,18.9a5.9,5.9,0,0,0-.1,1.9v.3h0a2.8,2.8,0,0,0,1.2,1.6l.7.5Z" fill="#b62626"/><path d="M1420.1,329.9,1381,373.6h-18.4l-.3-86.4,10.7,21,.8.8h.1a2.5,2.5,0,0,0,1.7.4h1.1a3,3,0,0,0,1.6-.5l7.9-4.2-5.9,32.2V339a2.7,2.7,0,0,0,.6,1.2l.2.2.7.4h.5a2.5,2.5,0,0,0,1.6-.6l1.2-1,.2-.2,12.8-15.1,1.9,7a5.6,5.6,0,0,0,1.1,2,1.2,1.2,0,0,0,.9.5h1.9Z" fill="#e13227"/><path d="M1362.5,375.5V336.2" fill="none" stroke="#fff" stroke-miterlimit="10" stroke-width="1.11"/><circle cx="1362.5" cy="327.3" r="8.8" fill="none" stroke="#fff" stroke-miterlimit="10" stroke-width="1.11"/><path d="M1334,373.6v-8.3" fill="none" stroke="#fff" stroke-miterlimit="10" stroke-width="1.11"/><circle cx="1334" cy="356.5" r="8.8" fill="none" stroke="#fff" stroke-miterlimit="10" stroke-width="1.11"/><path d="M1390.8,373.6V360.5" fill="none" stroke="#fff" stroke-miterlimit="10" stroke-width="1.11"/><circle cx="1390.8" cy="351.7" r="8.8" fill="none" stroke="#fff" stroke-miterlimit="10" stroke-width="1.11"/><path d="M1325,376.1a5.3,5.3,0,0,1,3.8-1.4,5,5,0,0,1,3.7,1.4,5.1,5.1,0,0,1,1.5,3.7,4.7,4.7,0,0,1-1.3,3.4l1,1.2-1.2,1-1-1.2a5.3,5.3,0,0,1-2.7.8,5.4,5.4,0,0,1-3.8-1.5,5.2,5.2,0,0,1,0-7.3h0Zm1.3,6.2a3.2,3.2,0,0,0,2.5,1,2.6,2.6,0,0,0,1.5-.4l-1.4-1.7,1.2-1,1.5,1.7a3.1,3.1,0,0,0,.6-2.1,3.1,3.1,0,0,0-1-2.5,2.8,2.8,0,0,0-2.4-1,2.9,2.9,0,0,0-2.5,1,3.6,3.6,0,0,0,0,5Zm9.3-7.5h1.7v6c0,1.7.9,2.5,2.3,2.5s2.3-.8,2.3-2.5v-6h1.7V381a4,4,0,0,1-1.1,2.9,4.5,4.5,0,0,1-5.8,0,3.5,3.5,0,0,1-1.1-2.9Zm10.2,10v-10h1.8v10Zm4,0v-10h3.6a5.2,5.2,0,0,1,3.8,1.4,5.1,5.1,0,0,1,1.4,3.6,4.9,4.9,0,0,1-1.4,3.6,5.1,5.1,0,0,1-3.8,1.4Zm1.8-1.6h1.7a3.1,3.1,0,0,0,3.5-3.4c0-2-1-3.4-3.5-3.4h-1.7Zm8.7,1.6v-10h3.6a5.2,5.2,0,0,1,3.8,1.4,5.1,5.1,0,0,1,1.4,3.6,4.9,4.9,0,0,1-1.4,3.6,5.2,5.2,0,0,1-3.8,1.4Zm1.8-1.6h1.6c2.5,0,3.6-1.4,3.6-3.4s-1.1-3.4-3.6-3.4h-1.6Zm8.7,1.6v-10h1.8v10Zm5.9,0v-8.4H1374v-1.6h7.2v1.6h-2.7v8.4Zm14.2-8.4-1.2,1.1a3.3,3.3,0,0,0-2.7-1.2,3.5,3.5,0,0,0-3.5,3.6,3.5,3.5,0,0,0,6.2,2.2l1.2,1a5,5,0,0,1-3.9,1.8,5.3,5.3,0,0,1-3.8-1.4,5.2,5.2,0,0,1,0-7.3h0a5.3,5.3,0,0,1,7.7.3Zm1.5,8.4v-10h1.7v3.9h4.8v-3.9h1.8v10h-1.8v-4.5h-4.8v4.5Z" fill="#b62626"/><path d="M1335.4,388.9l-1.6,1.3a4,4,0,0,0-3.4-1.5,3.9,3.9,0,0,0-3.2,1.3,4.8,4.8,0,0,0,0,6.5,4.6,4.6,0,0,0,3.2,1.3,4.6,4.6,0,0,0,3.5-1.7l1.5,1.4a6.4,6.4,0,0,1-5,2.3,6.6,6.6,0,0,1-4.8-1.8,6.8,6.8,0,0,1,0-9.5,7.1,7.1,0,0,1,4.8-1.9,6.6,6.6,0,0,1,5,2.3Zm.9,10.7,5.2-12.8h2l5.3,12.8h-2.4l-1.1-2.6h-5.6l-1,2.6Zm4.1-4.5h4.2l-2.1-5.1Zm10.2,4.4V386.8h2l6.7,8.8v-8.9h2.3v12.8h-1.9l-6.9-9v9Zm12.7,0,5.3-12.8h1.9l5.3,12.8h-2.4l-1-2.6h-5.7l-1,2.6Zm4.2-4.4h4.2l-2.1-5.2Zm10.2,4.4V386.7h4.5a6.2,6.2,0,0,1,6.7,6.4,6,6,0,0,1-1.8,4.6,6.8,6.8,0,0,1-4.9,1.8Zm2.2-2.1h2.1c3.2,0,4.6-1.7,4.5-4.3s-1.3-4.4-4.5-4.4h-2.1Zm9.4,2,5.2-12.8h1.9l5.4,12.8h-2.4l-1.1-2.5h-5.6l-1.1,2.5Zm4.1-4.4h4.2l-2.1-5.2Z" fill="#fff"/><g clip-path="url(#clip-path-2)"><path d="M1544.5,727.7l5.2,21.6h-389l3.2-13.5c.6-2.4,2.4-6.2,1.8-8.6l-5.6-23.5c-4.4-18.4-8.5-45.2-12.9-63.6,9.5-.7,19.5-1.2,28.5-4.7,22.8-8.9,38.6-33.3,52.2-52.4s25.6-31.7,42.2-48.5,38.6-29.8,63.8-32.8a125.7,125.7,0,0,1,69.1,11.4c45.2,21.6,66.4,59.8,99.9,94.6a175.8,175.8,0,0,0,25.1,22.1,74.2,74.2,0,0,0,14.4,8.4c2.1.9,16.5,6,16.5,6.3-6.2,25.8-8.3,57.5-14.4,83.3Z" fill="#231f20"/></g><path d="M1526.6,722.3l4.7,19.6H1177.7l2.9-12.3c.5-2.1,2.2-5.6,1.6-7.8l-5.1-21.4-11.9-50.2c8.6-.6,17.7-1,25.9-4.2,20.7-8.1,35.1-30.3,47.5-47.7s23.5-36.4,38.5-51.7,35.1-27.1,58-29.9a115.6,115.6,0,0,1,62.9,10.4c41,19.6,64,59.7,94.5,91.4a167.4,167.4,0,0,0,22.8,20.1,75,75,0,0,0,13.1,7.7c1.9.8,15,5.4,15,5.6l-16.8,70.4Z" fill="none" stroke="#fff" stroke-linejoin="bevel" stroke-width="0.82"/><path d="M1350.1,656.4c0,8.1-.1,13.2-.3,15.5a24.1,24.1,0,0,1-8.4,15.9,27.1,27.1,0,0,1-35,0,24.3,24.3,0,0,1-8.4-15.9c-.2-2.3-.3-7.5-.3-15.5s.1-13,.3-15.3a24.5,24.5,0,0,1,8.4-16,27.1,27.1,0,0,1,35,0,24.1,24.1,0,0,1,8.4,16C1350,643.3,1350.1,648.5,1350.1,656.4Zm-12.7,0c0-7.4-.1-12-.2-13.8a12.3,12.3,0,0,0-4.4-8.5,12.8,12.8,0,0,0-8.9-3.5,13.2,13.2,0,0,0-9,3.5,12.5,12.5,0,0,0-4.3,8.5c-.1,1.8-.2,6.4-.2,13.8s.1,12.3.3,14.1c.5,6.8,6.2,11.8,13.2,11.8a12.8,12.8,0,0,0,13.1-11.8c.3-1.8.4-6.5.4-14.1Zm73.5,0c0,8.1-.1,13.2-.3,15.5a24.2,24.2,0,0,1-8.5,15.9,25.3,25.3,0,0,1-17.4,6.4,25.8,25.8,0,0,1-17.6-6.4,23.7,23.7,0,0,1-8.3-15.9c-.2-2.3-.3-7.5-.3-15.5s.1-13,.3-15.3a23.9,23.9,0,0,1,8.3-16,25.8,25.8,0,0,1,17.6-6.4,25.3,25.3,0,0,1,17.4,6.4,24.6,24.6,0,0,1,8.5,16C1410.8,643.3,1410.9,648.5,1410.9,656.4Zm-12.8,0c0-7.4-.1-12-.2-13.8a12.3,12.3,0,0,0-4.4-8.5,12.7,12.7,0,0,0-8.8-3.5,13,13,0,0,0-9,3.5,12.1,12.1,0,0,0-4.3,8.5c-.1,1.8-.2,6.4-.2,13.8s.1,12.3.3,14.1a12.8,12.8,0,0,0,13.1,11.8c7,0,12.7-5,13.2-11.8.2-1.8.4-6.5.4-14.1Z" fill="#dcbf2f"/><g clip-path="url(#clip-path-3)"><path d="M854.7,833.1h279.9V334.3c0-1.1-7.7-2.5-9-2.9-12.1-3.8-22.6-9.5-31-19.1-15.2-17.3-18-31.2-20.2-53.6-4.5-46.1-.3-96.4,5.2-141.9.1-.6,1.1-7.6.9-7.7l-2.4-.6-14.7-4-51.5-13.8L963,77.5c-3.7-1-8.7-2.8-12.4-3.8s-7.6,7.8-9.8,9.4c-19.4,14.5-44.8,14.5-68,14.5s-48.3,1.5-71.8-2.8a63.6,63.6,0,0,1-31.2-15c-3.5-3.1-4.6-5.9-9-4.7l-15.1,4.1-100.3,27L634.7,109c-1.1.3.8,10.8,1,12.4,1.4,12.1,2.5,24.2,3.5,36.4,1.9,24,2.8,48,2.5,72.1s-4.3,36.9-12.8,58.5c-4.1,10.5-10.1,20.7-18.4,28.5s-20.2,12.7-31.7,16c-2.4.6-4,0-4,2.4V826.6c0,.7-.4,6.5.3,6.5Z" fill="#231f20"/></g><path d="M859.9,799.3h254.4V345.9c0-1.1-6.9-2.3-8.1-2.7-11-3.4-20.6-8.6-28.2-17.3-13.8-15.7-18.8-37.4-20.8-57.7-4.1-42.6-.4-86.7,4.7-129,.1-.6,1-7,.8-7l-2.1-.6-13.4-3.6-46.8-12.6-44.5-11.9-10.2-2.8c-2-.5-8,6.4-10,7.9-17.6,13.1-40.7,13.1-61.7,13.1s-43.9,1.4-65.3-2.5a57.7,57.7,0,0,1-28.4-13.7c-3.2-2.8-4.2-5.4-8.2-4.3l-13.7,3.7-91.2,24.6-9.7,2.6c-1,.3.7,9.8.9,11.2,1.3,11,2.3,22,3.2,33.1,1.7,21.8,2.6,43.7,2.3,65.5s-1.5,42.5-9.2,62.2A70.7,70.7,0,0,1,637.9,330c-8,7.7-18.3,11.6-28.8,14.5-2.2.6-3.7.1-3.7,2.2V793.4c0,.7-.3,5.9.3,5.9Z" fill="none" stroke="#fff" stroke-linejoin="bevel" stroke-width="0.82"/><path d="M785.8,161.2c-2,.4-3.7,1.3-5.5.1a5.6,5.6,0,0,0-5-.6,12.5,12.5,0,0,1-5.1.1l-16-1.9a28.8,28.8,0,0,0-4.1-.2,4.8,4.8,0,0,0-2,.7.9.9,0,0,0,.1,1.6,5.3,5.3,0,0,0,1.7.4l24.7,3.6,2.4.4c.3.1.5.2.5.5a.6.6,0,0,1-.5.6l-.8.2c-3.8,1-7.6,1-11.4,1.1-12.2.4-24.2-1.1-36.1-3.2a241.5,241.5,0,0,1-25.2-5.7,86.6,86.6,0,0,1-22.4-9.8,78.2,78.2,0,0,1-11.2-9.5l-1.7-1.7a.5.5,0,0,1-.2-.6c.2-.3.4-.2.6-.2l1.5.5c5.9,2.8,12.2,4.4,18.4,6a533.8,533.8,0,0,0,67.4,12.8l13.3,1.3a110.2,110.2,0,0,1,14,2.2,4.9,4.9,0,0,1,2.6,1.3Zm-15.4,11.7-2.3.6-11.5,3.1-2.3.8c-.6.3-.6.7-.1,1.2a3.6,3.6,0,0,0,2.1.8,8.4,8.4,0,0,0,2.7-.4l10.5-2.3a3.6,3.6,0,0,1,2.3-.1c0,.8-.5,1-1,1.3a12.5,12.5,0,0,1-4.6,1.5c-12.6,1.2-25.2,2.5-38,2.6-3.2,0-6.5.3-9.8.5a15.2,15.2,0,0,1-7-.9,2.4,2.4,0,0,0-2.3.2l-.6.3c-.7.2-1.5.4-1.8-.2s.7-.9,1.3-1.1l.5-.2c.5-.2,1.1-.5,1-1.2s-.8-.5-1.3-.6l-6.5-.5a27,27,0,0,1-15.9-7.3l-.6-.6c-1.3-1.4-1.2-2,.4-2.7a17.5,17.5,0,0,1,11-1.2c2,.4,3.9,1,5.9,1.5,5.4,1.5,11,1.8,16.6,2.4,8.2.8,16.5,1.5,24.7,3.1a42.1,42.1,0,0,0,14.6.3l9.8-1.2c.7-.1,1.4-.4,2.2.3Zm21.5,4a35.5,35.5,0,0,1-6.6,3.1c-3.4,1.6-6.9,3-10.4,4.4a60.3,60.3,0,0,0-6.4,2.9c-.6.3-1.7.4-1.3,1.5s1.3.3,1.9.2l14.1-4.7a15,15,0,0,1,2.9-.6,2.4,2.4,0,0,1-1,.8,151.8,151.8,0,0,1-19.2,8.9l-18.3,6.9a55.9,55.9,0,0,1-13.4,3.3,34.8,34.8,0,0,0-4.4,1,8,8,0,0,1-6.4-.6l-4.4-2.2c-1.1-.6-1.3-.8-.5-1.8s1.9-2.7,2.9-4.1,1.8-1.6.7-2.9,0-.5.3-.6h.8a159.2,159.2,0,0,0,24.8-3.5l12.8-2.8a24.1,24.1,0,0,0,6.5-2.4,13.8,13.8,0,0,1,5.2-1.7,42.7,42.7,0,0,0,11-3.5l4.1-1.7a4.4,4.4,0,0,1,4.3.2Zm32.9-23a.8.8,0,0,1,.8.1c2.5,2.2,5,4.5,6.6,7.4a10.5,10.5,0,0,1,1.3,7.3,6.3,6.3,0,0,0,1.9,6.3,18.3,18.3,0,0,1,4.9,6.8,3.8,3.8,0,0,0,1.5,1.8,5.6,5.6,0,0,1,2.2,6.5,3.5,3.5,0,0,0,1.7,4.3l1.7,1.4c3.3,2.5,4.1,6.1,4.8,9.9a1.4,1.4,0,0,1-.4,1.2,6.4,6.4,0,0,1-4.9,1.7,2.9,2.9,0,0,1-2.4-2.4c-.8-3.5-2.7-6.5-4.7-9.4a10.1,10.1,0,0,1-1.9-6.9,4.4,4.4,0,0,0-.6-3,40.2,40.2,0,0,0-4.4-5.6,7.2,7.2,0,0,0-2.5-1.8,3.2,3.2,0,0,1-1.9-2.5l-1.2-5.6L827,170c-.3-.6-.4-1.5-1.3-1.5s-1.2.9-1.3,1.8-.2.4-.4,1.8-1.6,1-3.8,1.5a7.7,7.7,0,0,1-3.7.1c-3.9-.8-7.7.6-11.1-1.4s-12.2-3.5-14.9-3.6-1.5-.5-1-1.8c1.4-4,11.3-3.6,13.8-7,.5-.7,1.3-1,1.9-.1s1.2.8,1.9.5l.8-.4a8.6,8.6,0,0,1,6.3-.3l5.9,1.7,1.3.4c2.3.4,2.8,0,2.8-2.3v-3.5a3.6,3.6,0,0,1,.6-2Zm-27.6,32.2a6.9,6.9,0,0,1-2.9,2.6l-9.7,6.1-9.1,5.9c-.7.5-1.9,1.2-1.5,2.1s1.7.1,2.4-.2a40.7,40.7,0,0,0,9.5-4.9,134.2,134.2,0,0,1,14.2-9.4,3.4,3.4,0,0,1,2.6-.6c1,.3,1.2.9.4,1.5-3,2.4-6,4.9-9.9,5.9a15.9,15.9,0,0,0-6.4,3.4,84.2,84.2,0,0,1-9.4,7.3,60.7,60.7,0,0,1-9,5l-7.2,3.3c-4.4,1.9-8.7,3.9-13.4,5-1,.2-2.4.9-2.9,0s.7-1.7,1.3-2.5a19.6,19.6,0,0,1,5.3-4.6c5.8-3.6,11.7-7.2,17.3-11.1a114.8,114.8,0,0,1,13.5-8.1c4.1-2.1,8.4-3.8,12.5-6a6.2,6.2,0,0,1,2.4-.7Zm-.5,20.4a7.2,7.2,0,0,0,2.4-1.4l13.3-11.2a4.9,4.9,0,0,1,3.6-1.3l-2.5,2.6a176,176,0,0,1-20.7,17.9,138.7,138.7,0,0,1-12.9,8.7,21.6,21.6,0,0,1-6.1,2.4c-.8.2-.8-.1-.7-.7v-.2a32.2,32.2,0,0,1,9-10.1,8.4,8.4,0,0,1,2.5-.9,2.6,2.6,0,0,0,1.9-1c2.6-3.7,6.2-6.6,9.6-9.6L808,191.1l1.5-1.2a1.1,1.1,0,0,1,1.6-.2c.5.3.1.9-.2,1.4a52.3,52.3,0,0,1-4.2,3.9q-4.1,3.5-7.8,7.2a16.1,16.1,0,0,0-2.1,3,1.2,1.2,0,0,0-.1,1.3Zm24-6a5.5,5.5,0,0,1,.1,3.8c-.3,1.3-.7,2.4-.9,3.6s.5,1.6,1.7,1,1.4-1.4,1.8-2.3a17.9,17.9,0,0,1,2.5-4.2,2.7,2.7,0,0,1,1.1-1c.5-.2,1.4,0,1.2.8a9.5,9.5,0,0,1-.5,1.8,43.9,43.9,0,0,1-4.7,8.8l-6.5,9.3a6.1,6.1,0,0,1-1.8,2.1,1.4,1.4,0,0,1-2.1-1.1c0-.1,0-.2.1-.2,1.2-7.7,2.9-15.2,7.4-21.9Zm-15.9,10.1a28.1,28.1,0,0,1-1,3.1c-.4,1-.7,1.7-1,2.6s-.4,1.2.2,1.6,1.1-.1,1.5-.5l2.1-2.2a1.1,1.1,0,0,1,0,1.1,20.2,20.2,0,0,1-1.4,3,34.7,34.7,0,0,1-7.3,8.5l-.7.5c-.7.5-1.1.3-1.1-.5a14.3,14.3,0,0,1,.4-2.2,35.8,35.8,0,0,1,7.3-14.4A1.7,1.7,0,0,1,804.8,210.6Zm21.8,10.5-.3-.7c-.4-3.3-.4-3.3,2.1-5.4l1.8-1.4c.2-.2.4-.4.7-.2s.3.4.2.7a18.7,18.7,0,0,1-4.5,7ZM813.4,205c-.4,1.4-1.4,2.3-2.2,3.7C811.1,206.3,811.7,205.3,813.4,205Zm-36-30.5,3.8-.3C779.6,175.6,778.9,175.7,777.4,174.5Zm156.5-13.3c2,.4,3.7,1.3,5.4.1a5.6,5.6,0,0,1,5-.6,13,13,0,0,0,5.2.1l15.9-1.9a29.5,29.5,0,0,1,4.2-.2,4,4,0,0,1,1.9.7c.7.5.7,1.3-.1,1.6a4.7,4.7,0,0,1-1.6.4L945.1,165l-2.4.4c-.3.1-.6.2-.6.5a.6.6,0,0,0,.5.6l.9.2c3.7,1,7.5,1,11.3,1.1,12.2.4,24.2-1.1,36.2-3.2a239.7,239.7,0,0,0,25.1-5.7,85.1,85.1,0,0,0,22.4-9.8,78.2,78.2,0,0,0,11.2-9.5l1.8-1.7c.2-.1.2-.4.1-.6s-.4-.2-.6-.2l-1.5.5c-5.8,2.8-12.1,4.4-18.4,6a530.4,530.4,0,0,1-67.4,12.8l-13.2,1.3a107.4,107.4,0,0,0-14,2.2,4.6,4.6,0,0,0-2.6,1.3Zm15.3,11.7,2.3.6,11.5,3.1,2.3.8c.6.3.7.7.1,1.2a3.6,3.6,0,0,1-2,.8,8.6,8.6,0,0,1-2.8-.4l-10.4-2.3a3.9,3.9,0,0,0-2.4-.1c.1.8.6,1,1.1,1.3a12,12,0,0,0,4.5,1.5c12.7,1.2,25.3,2.5,38,2.6,3.3,0,6.6.3,9.8.5a15.1,15.1,0,0,0,7-.9,2.6,2.6,0,0,1,2.4.2l.6.3c.6.2,1.5.4,1.7-.2s-.7-.9-1.2-1.1l-.5-.2c-.6-.2-1.2-.5-1.1-1.2s.8-.5,1.3-.6l6.6-.5a27.2,27.2,0,0,0,15.9-7.3l.6-.6c1.3-1.4,1.2-2-.5-2.7a17.3,17.3,0,0,0-11-1.2c-2,.4-3.9,1-5.8,1.5-5.5,1.5-11.1,1.8-16.6,2.4-8.3.8-16.6,1.5-24.7,3.1a42.7,42.7,0,0,1-14.7.3l-9.8-1.2c-.7-.1-1.4-.4-2.2.3Zm-21.5,4a36.2,36.2,0,0,0,6.7,3.1c3.4,1.6,6.9,3,10.3,4.4a53.7,53.7,0,0,1,6.5,2.9c.6.3,1.7.4,1.2,1.5s-1.2.3-1.8.2l-14.2-4.7a12.7,12.7,0,0,0-2.8-.6c.2.5.6.6.9.8a153.1,153.1,0,0,0,19.3,8.9l18.3,6.9a55.9,55.9,0,0,0,13.4,3.3,29.9,29.9,0,0,1,4.3,1,7.9,7.9,0,0,0,6.4-.6l4.5-2.2c1.1-.6,1.2-.8.5-1.8s-1.9-2.7-2.9-4.1-1.8-1.6-.7-2.9,0-.5-.3-.6h-.8a157.6,157.6,0,0,1-24.8-3.5L958.8,186a24.8,24.8,0,0,1-6.4-2.4,13.8,13.8,0,0,0-5.2-1.7,41.5,41.5,0,0,1-11-3.5l-4.2-1.7a4.4,4.4,0,0,0-4.3.2Zm-32.8-23a1,1,0,0,0-.9.1,31,31,0,0,0-6.6,7.4,10.4,10.4,0,0,0-1.2,7.3,6.6,6.6,0,0,1-2,6.3c-1.7,1.7-3.9,4-4.8,6.8a4,4,0,0,1-1.6,1.8,5.9,5.9,0,0,0-2.2,6.5c.6,2-.1,3.2-1.6,4.3l-1.7,1.4c-3.4,2.5-4.2,6.1-4.8,9.9a1.1,1.1,0,0,0,.4,1.2,6.3,6.3,0,0,0,4.9,1.7,3,3,0,0,0,2.4-2.4c.8-3.5,2.7-6.5,4.7-9.4a10.6,10.6,0,0,0,1.8-6.9,4.5,4.5,0,0,1,.7-3,39.6,39.6,0,0,1,4.3-5.6,6.8,6.8,0,0,1,2.6-1.8,3.5,3.5,0,0,0,1.9-2.5l1.2-5.6a3.5,3.5,0,0,1,.3-1.4c.2-.6.4-1.5,1.3-1.5s1.2.9,1.3,1.8a11.3,11.3,0,0,0,.3,1.8c.4,2.4,1.6,1,3.8,1.5a8.1,8.1,0,0,0,3.8.1c3.8-.8,7.6.6,11.1-1.4s12.1-3.5,14.9-3.6c1.2,0,1.4-.5,1-1.8-1.5-4-11.3-3.6-13.8-7-.6-.7-1.4-1-2-.1s-1.1.8-1.9.5l-.8-.4a8.3,8.3,0,0,0-6.2-.3l-6,1.7-1.3.4c-2.3.4-2.7,0-2.8-2.3v-3.5a2.9,2.9,0,0,0-.5-2Zm27.6,32.2a6.4,6.4,0,0,0,2.9,2.6l9.6,6.1,9.1,5.9c.8.5,2,1.2,1.6,2.1s-1.7.1-2.5-.2a42.1,42.1,0,0,1-9.4-4.9c-4.7-3.3-9.2-6.7-14.2-9.4a3.7,3.7,0,0,0-2.7-.6c-.9.3-1.2.9-.4,1.5,3.1,2.4,6.1,4.9,9.9,5.9a15.3,15.3,0,0,1,6.4,3.4,95.8,95.8,0,0,0,9.5,7.3,65.2,65.2,0,0,0,8.9,5c2.5,1,4.8,2.3,7.2,3.3a81,81,0,0,0,13.5,5c.9.2,2.3.9,2.8,0s-.7-1.7-1.3-2.5a19.1,19.1,0,0,0-5.2-4.6c-5.9-3.6-11.8-7.2-17.4-11.1a122.3,122.3,0,0,0-13.4-8.1c-4.1-2.1-8.4-3.8-12.5-6a7.6,7.6,0,0,0-2.4-.7Zm.4,20.4a7.9,7.9,0,0,1-2.3-1.4l-13.3-11.2a5,5,0,0,0-3.7-1.3l2.5,2.6a184.4,184.4,0,0,0,20.7,17.9,138.7,138.7,0,0,0,12.9,8.7,22.8,22.8,0,0,0,6.1,2.4c.8.2.9-.1.7-.7v-.2a31,31,0,0,0-9-10.1,6.8,6.8,0,0,0-2.5-.9,2.2,2.2,0,0,1-1.8-1c-2.6-3.7-6.3-6.6-9.7-9.6l-11.8-10.6-1.5-1.2a1,1,0,0,0-1.5-.2c-.5.3-.2.9.2,1.4A39.5,39.5,0,0,0,913,195c2.7,2.3,5.3,4.7,7.7,7.2a10.2,10.2,0,0,1,2.1,3,.9.9,0,0,1,.1,1.3Zm-23.9-6a5,5,0,0,0-.2,3.8,17.2,17.2,0,0,1,.9,3.6c.2,1.2-.4,1.6-1.6,1a3.1,3.1,0,0,1-1.8-2.3,22.6,22.6,0,0,0-2.6-4.2,2.7,2.7,0,0,0-1.1-1c-.5-.2-1.3,0-1.2.8a5.5,5.5,0,0,0,.6,1.8,43.4,43.4,0,0,0,4.6,8.8l6.5,9.3a6.1,6.1,0,0,0,1.8,2.1,1.3,1.3,0,0,0,2.1-1.1v-.2c-1.2-7.7-2.9-15.2-7.4-21.9Zm15.9,10.1a16,16,0,0,0,1,3.1c.4,1,.7,1.7,1,2.6s.4,1.2-.2,1.6-1.1-.1-1.6-.5l-2.1-2.2c-.3.4,0,.8.1,1.1a13.5,13.5,0,0,0,1.4,3,36.5,36.5,0,0,0,7.2,8.5l.7.5c.7.5,1.1.3,1.1-.5a7.8,7.8,0,0,0-.3-2.2,38.5,38.5,0,0,0-7.3-14.4,2.1,2.1,0,0,0-1-.6Zm-21.8,10.5a2.5,2.5,0,0,0,.2-.7c.5-3.3.5-3.3-2.1-5.4l-1.7-1.4c-.3-.2-.5-.4-.8-.2s-.2.4-.1.7a18.7,18.7,0,0,0,4.5,7ZM906.2,205c.4,1.4,1.5,2.3,2.2,3.7C908.6,206.3,907.9,205.3,906.2,205Zm36.1-30.5-3.9-.3C940,175.6,940.8,175.7,942.3,174.5Z" fill="#424243"/><path d="M791.7,253.7V222.1h5.4l18.1,22v-22h5.9v31.6h-5l-18.4-22.3v22.3Zm34.3,0,14.3-31.6h5.2l14.2,31.6h-6.4l-2.8-6.3H835.3l-2.8,6.3Zm11.2-11h11.4l-5.7-12.9Zm27.5,11V222.1h5.2l12.3,17.8,12.2-17.8h5.2v31.6h-5.8V232.3L882.1,249l-11.7-16.7v21.4Zm42.5,0V222.1H929v5.1H913.3v7.6H928v5.1H913.3v8.7h16v5.1Z" fill="#fff"/><path d="M851.2,377.3c0,16.6-.2,27.1-.6,31.8a50,50,0,0,1-17.5,33c-10.1,8.9-21.9,13.2-35.9,13.2S771.1,451,761,442.1s-15.7-19.8-17.3-33q-.6-7.1-.6-31.8c0-16.6.2-27,.6-31.7a49.5,49.5,0,0,1,17.3-33c10.1-8.8,22.2-13.1,36.2-13.1s25.8,4.3,35.9,13.1,16,19.8,17.5,33C851,350.3,851.2,360.9,851.2,377.3Zm-26.3,0c0-15.3-.2-24.8-.4-28.5a25,25,0,0,0-9.1-17.6c-5.4-4.5-11.2-7.2-18.3-7.2a26.8,26.8,0,0,0-18.5,7.2,25.1,25.1,0,0,0-8.8,17.6c-.3,3.7-.5,13.2-.5,28.5s.2,25.4.7,29.1c1,14,12.7,24.3,27.1,24.3s26.1-10.3,27.2-24.3q.6-5.5.6-29.1Zm151.7,0c0,16.6-.2,27.1-.7,31.8a49.8,49.8,0,0,1-17.4,33c-10.1,8.9-22,13.2-36,13.2s-26-4.3-36.2-13.2a49.6,49.6,0,0,1-17.2-33c-.4-4.7-.7-15.3-.7-31.8s.3-27,.7-31.7a49.8,49.8,0,0,1,17.2-33c10.2-8.8,22.2-13.1,36.2-13.1s25.9,4.3,36,13.1,15.9,19.8,17.4,33C976.4,350.3,976.6,360.9,976.6,377.3Zm-26.3,0c0-15.3-.2-24.8-.4-28.5a25.4,25.4,0,0,0-9.1-17.6c-5.4-4.5-11.2-7.2-18.3-7.2a26.8,26.8,0,0,0-18.5,7.2,25.6,25.6,0,0,0-8.9,17.6c-.2,3.7-.4,13.2-.4,28.5s.2,25.4.7,29.1c1,14,12.7,24.3,27.1,24.3s26.1-10.3,27.2-24.3q.6-5.5.6-29.1ZM859.8,165.9a12.8,12.8,0,1,1,12.8-12.8A12.8,12.8,0,0,1,859.8,165.9Zm0-23A10.2,10.2,0,1,0,870,153.1a10.2,10.2,0,0,0-10.2-10.2Z" fill="#dcbf2f"/><path d="M851.6,177.9A12.9,12.9,0,1,1,864.4,165h0A12.8,12.8,0,0,1,851.6,177.9Zm0-23A10.2,10.2,0,1,0,861.8,165a10.2,10.2,0,0,0-10.2-10.1Z" fill="#dcbf2f"/><path d="M868,177.9A12.9,12.9,0,1,1,880.9,165h0A13,13,0,0,1,868,177.9Zm0-23A10.2,10.2,0,1,0,878.2,165,10.1,10.1,0,0,0,868,154.9Zm-21,26.7a1.4,1.4,0,1,1,2.8,0v3a1.1,1.1,0,0,1-.2.8h.4v.9h-.2a1.2,1.2,0,0,1-.8-.4h-.6a1.3,1.3,0,0,1-1.4-1.5Zm.9,3c0,.5.2.6.5.6s.4-.1.4-.6v-3.1c0-.4-.1-.5-.4-.5s-.5.1-.5.5Zm3.4-4.4v4.4c0,.5.1.6.4.6s.5-.1.5-.6v-4.4h.8v4.4c0,.9-.4,1.4-1.3,1.4a1.3,1.3,0,0,1-1.4-1.4v-4.4Zm2.4,0h.9V186h-.9Zm1.5,0h1.5c.9,0,1.3.5,1.3,1.4v2.9c0,1-.4,1.5-1.3,1.5h-1.5Zm.9.8v4.1h.6c.3,0,.4-.1.4-.5v-3c0-.4-.1-.6-.4-.6Zm2.5-.8h1.5c.9,0,1.3.5,1.3,1.4v2.9c0,1-.4,1.5-1.3,1.5h-1.5Zm.9.8v4.1h.5c.3,0,.5-.1.5-.5v-3c0-.4-.2-.6-.5-.6Zm2.5-.8h.9V186H862Zm1.3,0h2.8v.8h-1v5h-.9v-5h-.9Zm5.8,3.6v.8c0,.9-.4,1.4-1.3,1.4a1.3,1.3,0,0,1-1.4-1.4v-3a1.3,1.3,0,0,1,1.4-1.5c.9,0,1.3.6,1.3,1.5v.6h-.8v-.7c0-.4-.2-.5-.5-.5s-.4.1-.4.5v3.1c0,.5.1.6.4.6s.5-.1.5-.6v-.8Zm1.5,2.2h-.9v-5.8h.9v2.5h1v-2.5h1V186h-1v-2.5h-1Z" fill="#dcbf2f"/><g clip-path="url(#clip-path-4)"><path d="M298.5,814.5H575.4c2,0,1.1-3,1.1-4.8V317.4c0,.3-15.2-.5-16.5-.7a54.2,54.2,0,0,1-16.8-4.4c-21.7-10.5-29.5-25.3-29.5-25.3-11.4-30.9,1.6-97.3,11.2-143.8l1-5c.1-.7-8.5-2.8-9.2-3.1l-2.7-.8-16.8-5c-11.3-3.4-29.9-10.3-41.2-13.7-23-6.8-60.1-17.9-82.9-25.4-.4,2.1.3.1-.4,2.1-9.9,30.3-9,35.6-17.5,53.2-10.4,21.5-30.7,25.3-53.7,25.2s-45.8-11.4-53.6-33.4c-6.8-19.2-6.8-19.2-13.8-46.3-32.7,10.7-80.1,21.9-113,31.7-5.6,1.7-19.2,7.1-24.8,8.8l-8.9,2.6c-1.9.6-7.4,1.2-7,3.3,2.5,11.7,4.9,23.5,6.9,35.3,4.2,24.2,4.8,19.5,5.2,44.1s-1.7,47.6-12.2,68.9c-5.1,10.3-12.5,18.8-22.6,24.5s-22,7-33.8,7.1c-2.8,0-3.2-.8-3.2,1.5V808.1c0,.7-.4,6.4.3,6.4Z" fill="#231f20"/><g clip-path="url(#clip-path-5)"><path d="M578.6,399.8,303,428.2,9.3,397.9V258.4L303,288.6l275.6-28.4Z" fill="url(#linear-gradient)"/><path d="M578.6,464.1,303,492.5,20.5,463.4V418.9L303,448l275.6-28.4" fill="url(#linear-gradient-2)"/><path d="M578.6,464.1,303,492.5,27.5,464.1V419.6L303,448l275.6-28.4Z" fill="url(#linear-gradient-3)"/><path d="M578.6,400.3,303,428.7,9.3,397.9m569.3,80.4L303,506.7,12.8,476.8M536.1,264.7,303,288.7,72.9,265" fill="none" stroke="#dcbf2f" stroke-miterlimit="10" stroke-width="7.69"/></g></g><circle cx="303" cy="358.1" r="86.2" fill="#dcbf2f"/><circle cx="303" cy="358.1" r="82.8" fill="#231f20"/><path d="M239.1,369.2a8.4,8.4,0,0,1,3.9,5.3,8,8,0,0,1-.7,6.4,7.6,7.6,0,0,1-5,3.9,8,8,0,0,1-5.5-.5l-1.3,1.8-2.5-1.7,1.3-2a7.3,7.3,0,0,1-2.1-3.6,8.6,8.6,0,0,1,.7-6.5,8,8,0,0,1,10.9-3.2Zm-8,10.4,1.7-2.5,2.6,1.7-1.8,2.6a4.5,4.5,0,0,0,2.8,0,4.7,4.7,0,0,0,3-2.3,5,5,0,0,0,.6-3.8,5.1,5.1,0,0,0-6.2-3.6,5.3,5.3,0,0,0-3.1,2.4,5.1,5.1,0,0,0-.4,3.8,3.4,3.4,0,0,0,.8,1.7Zm18,10.6,2.1,2.8-7.3,5.5c-2.1,1.6-2.5,3.2-1.1,4.9s2.9,1.9,5,.3l7.3-5.5,2.1,2.8-7.6,5.7a6.4,6.4,0,0,1-5.1,1.5,7.1,7.1,0,0,1-4.3-2.8,7.2,7.2,0,0,1-1.6-4.9,6.7,6.7,0,0,1,2.8-4.6Zm6.3,30.2,9.4-12.9,2.8,2-9.4,12.9Zm15.6,9.5,5.2-15.1,5.7,2a8.6,8.6,0,0,1,5.2,4.2,7.8,7.8,0,0,1,.2,6.2,7.3,7.3,0,0,1-4,4.7q-2.7,1.4-6.6,0Zm4.3-1.9,2.2.8c3.6,1.2,5.5,0,6.4-2.8a4.8,4.8,0,0,0,.1-3.7c-.5-1.1-1.6-1.9-3.4-2.5l-2.1-.8Zm23.8,8.7-.6-16,6.1-.2c2.7-.1,4.8.5,6.3,2a7.5,7.5,0,0,1,2.4,5.7,7.8,7.8,0,0,1-1.9,5.9,8.7,8.7,0,0,1-6.2,2.3Zm3.5-3.4h2.3c3.7-.1,5-2,4.9-4.9a5,5,0,0,0-1.3-3.5c-.8-.8-2.1-1.1-4-1.1h-2.3Zm24.7-.6L322,417.6l3.3-1.2,5.3,15.1Zm19-9.2L339,413l-3.6,2.5-1.8-2.7,10-6.9,1.8,2.7-3.5,2.4,7.3,10.5ZM360,390.6l.3,3.1a5.1,5.1,0,0,0-3.9,2.2,5,5,0,0,0,1,7.1,5.2,5.2,0,0,0,3.8.9,5,5,0,0,0,3.3-2,5.4,5.4,0,0,0,.9-4.4l3.1-.7a8.3,8.3,0,0,1-1.4,7,8.8,8.8,0,0,1-5.5,3.5,8.3,8.3,0,0,1-9.5-6.7v-.3a8.8,8.8,0,0,1,7.7-9.7Zm16.8-5-15.4-4.2.9-3.5,5.7,1.6,1.9-6.6-5.8-1.6,1-3.4,15.4,4.2-1,3.4-6.6-1.8-1.8,6.7,6.6,1.8ZM242.4,343l-17.1,2.1,1-3.7,11.6-1.3-9.3-7,1-3.7L243.3,340Zm4.3-13.1-9.6-14.4,1.8-2.6,16.9,3.5-2.1,3.1-2.8-.6-3.7,5.5,1.6,2.4Zm-1.3-7.9,2.6-3.8-6.1-1.4Zm16.7-11.3-9.5-12.8,2.8-2.1L263,306l5-3.7,1.9,2.6Zm15.7-10-5.2-15,9.9-3.5,1.1,3-6.6,2.4,1.1,3,6-2.1,1,3-6,2.1,2.1,6Zm18.9-5v-16h6.7a5.4,5.4,0,0,1,3.8,1.5,4.9,4.9,0,0,1,1.6,3.8,4.8,4.8,0,0,1-2.8,4.5l3.9,6.2h-3.9l-3.4-5.3h-2.4v5.3Zm3.4-8.5h2.8a2.1,2.1,0,0,0,2.3-2.2,2,2,0,0,0-2-2.1h-3.1Zm18,10.1,5.1-15.2,10.3,3.5-1,3.1-7-2.4-.9,2.9,6.5,2.2-1,3-6.5-2.3-1.1,3.3,7.1,2.4-1,3Zm21.8,10.4,3.7-4.8,1.5-11.4,3,2.3-1.1,7.6,7.1-3,3.1,2.4-10.8,4.3-3.7,4.7Zm13.8,8.6a3.5,3.5,0,0,0,.7,1.2c.9,1.3,1.8,1.1,3,.2l8.6-6.2,2.1,2.8-8.5,6.2a7.3,7.3,0,0,1-2.9,1.5c-1.5.5-3,0-4.7-2.2a8.3,8.3,0,0,1-.9-1.6Zm5.8,14,17.2,1.1,1,2.9-12.9,11.4-1.3-3.5,2.2-1.9-2.1-6.3-2.9-.2Zm7.1,3.7,1.5,4.4,4.7-4.1Z" fill="#fff"/><circle cx="303" cy="358.1" r="57.5" fill="#dcbf2f"/><circle cx="303" cy="358.1" r="55.2" fill="#fff"/><path d="M317.5,355l-25.9-44.8-35.2,61.1H275l7.3-12.7h-4l13.3-23.1L303,355.2Z" fill="#dcbf2f"/><path d="M312.4,339l-7.3-12.6,9.3-16.2,35.3,61.1H298l7-12.7h22.8l-13.4-23.1-2,3.5Z" fill="#dcbf2f"/><path d="M293.7,346.2l7.4,12.4-11.4,19.8h26.7l-2-3.4H329l9.3,16.1H267.8Z" fill="#dcbf2f"/><path d="M303,791H554.7c1.8,0,.9-2.8.9-4.4V339c0,.3-13.7-.5-15-.6a45.2,45.2,0,0,1-15.2-4.1c-19.8-9.5-29-30.1-32.6-50.9-7.4-43.1,1.4-88.4,10.2-130.7l.9-4.6c.1-.6-2.8-1.1-3.4-1.3l-7.5-2.2L477.8,140,447,130.8c-20.9-6.2-41.9-12.3-62.6-19.1l-1,5.5c-3.7,20.9-10.2,40.7-25.2,56.3s-37.3,20.1-58.1,20.1-42.2-8.1-56-24.1-19-37.1-22.5-57.8c-29.7,9.7-59.8,18.3-89.7,27.2l-15.2,4.6-8.2,2.4c-1.7.5-6.7,1.1-6.3,2.9,2.3,10.8,4.4,21.5,6.3,32.2,3.8,22,6.8,44.2,7.1,66.6s-1.5,43.3-11,62.6c-4.7,9.4-11.4,17.2-20.5,22.4S64,339,53.4,339c-2.7,0-3-.8-3,1.4V785.1c0,.6-.4,5.8.3,5.8H303Z" fill="none" stroke="#fff" stroke-linejoin="bevel" stroke-width="0.81"/></svg>