<svg id="Layer_1" data-name="Layer 1" xmlns="http://www.w3.org/2000/svg" xmlns:xlink="http://www.w3.org/1999/xlink" width="1600" height="900" viewBox="0 0 1600 900"><defs><clipPath id="clip-path"><path d="M303,793.4H556.5c1.9,0,1-2.8,1-4.4V338.2c0,.2-13.9-.5-15.1-.6a48.2,48.2,0,0,1-15.3-4.1c-20-9.6-29.3-30.4-32.9-51.3-7.4-43.5,1.4-89.1,10.2-131.7.3-1.5.7-3,1-4.5s-2.8-1.2-3.4-1.4l-7.6-2.2-15.3-4.6-31-9.3c-21.1-6.3-42.2-12.4-63.1-19.2-.3,1.8-.6,3.7-1,5.5-3.7,21.1-10.2,41-25.4,56.7s-37.5,20.3-58.5,20.2-42.5-8.1-56.4-24.2-19.1-37.4-22.7-58.2c-29.9,9.7-60.2,18.4-90.3,27.4l-15.4,4.6-8.2,2.4c-1.7.5-6.7,1.1-6.3,3,2.2,10.7,4.4,21.5,6.3,32.4,3.8,22.1,6.9,44.5,7.2,67s-1.6,43.7-11.2,63.1c-4.6,9.4-11.4,17.3-20.6,22.5s-20.2,6.4-30.9,6.5c-2.7,0-3.1-.8-3.1,1.4V787.5c0,.7-.3,5.9.3,5.9H303Z" fill="none"/></clipPath><clipPath id="clip-path-2"><path d="M298.6,817.1H577.4c2.1,0,1.1-3.1,1.1-4.8V316.4c0,.3-15.3-.5-16.6-.7a52.3,52.3,0,0,1-16.9-4.5c-21.9-10.6-29.7-25.4-29.7-25.4-11.5-31.1,1.5-98,11.2-144.8.3-1.7.7-3.4,1-5.1s-8.5-2.9-9.2-3.1l-2.8-.8-16.8-5c-11.4-3.4-30.2-10.4-41.6-13.8-23.1-6.9-60.5-18.1-83.5-25.6-.3,2.1.3.1-.3,2.1-10,30.6-9.1,35.9-17.7,53.6-10.5,21.7-30.9,25.5-54,25.4s-46.2-11.5-54.1-33.6c-6.9-19.4-6.9-19.4-13.9-46.7-32.9,10.8-80.7,22.1-113.8,32-5.6,1.7-19.3,7.1-25,8.8l-9,2.7c-1.9.5-7.4,1.2-7,3.2,2.5,11.9,4.9,23.7,7,35.7,4.2,24.3,4.8,19.5,5.2,44.3s-1.8,48-12.3,69.4A56.7,56.7,0,0,1,56,309.3c-10.5,5.9-22.2,7-34,7.1-3,0-3.4-.8-3.4,1.5V810.6c0,.8-.4,6.5.4,6.5H298.6Z" fill="none"/></clipPath><clipPath id="clip-path-3"><path d="M1190.1,418.6c-1.6,6.5-3.1,13.1-4.7,19.6H1539c-1-4.1-1.9-8.2-2.9-12.3-.5-2.1-2.1-5.6-1.6-7.8l5.1-21.3,12-50.3c-8.7-.5-17.8-1-26-4.2-20.7-8.1-35.1-30.2-47.5-47.6s-23.4-36.5-38.5-51.8-35.1-27-58-29.9a115.6,115.6,0,0,0-62.9,10.4c-41,19.6-64,59.7-94.5,91.4a161.6,161.6,0,0,1-22.8,20.1,75,75,0,0,1-13.1,7.7c-1.9.8-15,5.4-15,5.6l16.8,70.4Z" fill="none"/></clipPath><clipPath id="clip-path-4"><path d="M1170.8,424.2c-6.2-25.8-8.3-57.5-14.4-83.3-.1-.2,14.4-5.3,16.5-6.2,5.1-2.1,9.9-5.3,14.4-8.4a182.1,182.1,0,0,0,25.1-22.2c33.5-34.8,54.7-73,99.9-94.5a125.6,125.6,0,0,1,69.1-11.5c25.2,3.1,46.1,15,63.8,32.9s28.5,29.3,42.2,48.5,29.4,43.5,52.2,52.4c9,3.5,19,4,28.5,4.7-4.4,18.4-8.5,45.2-12.9,63.6-1.9,7.8-3.8,15.7-5.6,23.5-.6,2.4,1.2,6.2,1.8,8.6,1,4.5,2.1,9,3.2,13.5h-389c1.7-7.2,3.4-14.4,5.2-21.6Z" fill="none"/></clipPath><clipPath id="clip-path-5"><path d="M1526.6,722.3c1.6,6.5,3.1,13.1,4.7,19.6H1177.7c1-4.1,1.9-8.2,2.9-12.3.5-2.2,2.2-5.6,1.6-7.8l-5.1-21.4q-6-25-11.9-50.2c8.6-.5,17.7-1,25.9-4.2,20.7-8.1,35.1-30.3,47.5-47.7s23.4-36.4,38.5-51.7,35.1-27.1,58-29.9a115.6,115.6,0,0,1,62.9,10.4c41,19.6,64,59.7,94.5,91.3a156.2,156.2,0,0,0,22.8,20.2,68.7,68.7,0,0,0,13.1,7.6c1.9.9,15,5.5,15,5.7l-16.8,70.4Z" fill="none"/></clipPath><clipPath id="clip-path-6"><path d="M1544.5,727.7c1.7,7.2,3.4,14.4,5.2,21.6h-389c1.1-4.5,2.2-9,3.2-13.5.6-2.4,2.4-6.2,1.8-8.6-1.9-7.8-3.7-15.7-5.6-23.5-4.4-18.4-8.6-45.2-13-63.7,9.6-.6,19.6-1.1,28.6-4.6,22.7-8.9,38.6-33.3,52.2-52.4s25.6-31.7,42.2-48.5,38.6-29.8,63.7-32.9a126,126,0,0,1,69.2,11.5c45.2,21.5,66.4,59.7,99.9,94.5a176.4,176.4,0,0,0,25.1,22.2c4.5,3.1,9.3,6.3,14.4,8.4,2.1.9,16.5,6,16.5,6.2-6.2,25.8-8.2,57.5-14.4,83.3Z" fill="none"/></clipPath><clipPath id="clip-path-7"><path d="M859.9,799.3h254.5V345.9c0-1.1-7-2.3-8.2-2.7-11-3.4-20.6-8.6-28.2-17.3-13.8-15.7-18.8-37.4-20.8-57.7-4.2-42.6-.4-86.7,4.7-129,.1-.6,1-6.9.8-7l-2.2-.6-13.3-3.6-46.9-12.6-44.4-11.9-10.2-2.8c-2-.5-8,6.4-10,7.8-17.6,13.2-40.7,13.2-61.8,13.2s-43.9,1.4-65.3-2.5a58.6,58.6,0,0,1-28.3-13.7c-3.2-2.8-4.2-5.3-8.2-4.3l-13.7,3.7-91.2,24.6-9.8,2.6c-.9.3.8,9.8,1,11.2,1.2,11,2.3,22,3.2,33.1,1.7,21.8,2.5,43.7,2.3,65.5s-1.5,42.6-9.2,62.2c-3.8,9.6-9.3,18.8-16.8,25.9s-18.3,11.6-28.8,14.5c-2.2.6-3.7.1-3.7,2.2V793.4c0,.7-.3,5.9.3,5.9H859.9Z" fill="none"/></clipPath></defs><title>valhalla-jersey</title><g clip-path="url(#clip-path)"><g clip-path="url(#clip-path-2)"><rect x="-26.4" y="61.6" width="619.5" height="827.96" fill="#fff"/><polygon points="578.8 330.5 303.1 471.3 18.6 323.8 18.5 416 303.1 561.3 578.1 420.9 578.8 330.5" fill="#ececed"/><polygon points="578.5 475.8 303.1 616.3 18.6 471.1 19 561.3 303.1 706.3 578.5 565.7 578.5 475.8" fill="#f1f2f2"/><polygon points="578.5 620.8 303.1 761.4 18.5 616.1 19 817.1 577.4 817.1 578.5 620.8" fill="#f7f7f7"/><polygon points="568.7 190.7 303.1 326.3 37.5 190.7 37.5 280.6 303.1 416.2 568.7 280.6 568.7 190.7" fill="#e6e7e8"/><polygon points="276 392.2 170.3 268.9 224.1 296.4 303.1 388.5 382 296.4 435.9 268.9 330.1 392.2 303.1 406.3 276 392.2" fill="#dcbf30"/><line x1="64.5" y1="214.9" x2="170.3" y2="338.2" fill="none" stroke="#fff" stroke-miterlimit="10" stroke-width="3.31"/><line x1="64.5" y1="284.1" x2="170.5" y2="268.9" fill="none" stroke="#fff" stroke-miterlimit="10" stroke-width="3.31"/><line x1="117.4" y1="241.9" x2="223.2" y2="365.2" fill="none" stroke="#fff" stroke-miterlimit="10" stroke-width="3.31"/><line x1="117.4" y1="311.1" x2="223.4" y2="295.9" fill="none" stroke="#fff" stroke-miterlimit="10" stroke-width="3.31"/><line x1="170.3" y1="268.9" x2="276" y2="392.2" fill="none" stroke="#fff" stroke-miterlimit="10" stroke-width="3.31"/><line x1="170.3" y1="338.2" x2="276.3" y2="322.9" fill="none" stroke="#fff" stroke-miterlimit="10" stroke-width="3.31"/><line x1="64" y1="214.6" x2="169.8" y2="337.9" fill="none" stroke="#fff" stroke-miterlimit="10" stroke-width="3.31"/><line x1="64" y1="283.9" x2="170" y2="268.6" fill="none" stroke="#fff" stroke-miterlimit="10" stroke-width="3.31"/><line x1="37.5" y1="218.5" x2="116.7" y2="310.8" fill="none" stroke="#fff" stroke-miterlimit="10" stroke-width="3.31"/><line x1="37.5" y1="252.9" x2="116.9" y2="241.5" fill="none" stroke="#fff" stroke-miterlimit="10" stroke-width="3.31"/><polyline points="568.7 235.7 303.1 371.4 37.5 235.7" fill="none" stroke="#fff" stroke-miterlimit="10" stroke-width="3.31"/><line x1="541.6" y1="214.9" x2="435.9" y2="338.2" fill="none" stroke="#fff" stroke-miterlimit="10" stroke-width="3.31"/><line x1="541.6" y1="284.1" x2="435.6" y2="268.9" fill="none" stroke="#fff" stroke-miterlimit="10" stroke-width="3.31"/><line x1="488.7" y1="241.9" x2="383" y2="365.2" fill="none" stroke="#fff" stroke-miterlimit="10" stroke-width="3.31"/><line x1="488.7" y1="311.1" x2="382.8" y2="295.9" fill="none" stroke="#fff" stroke-miterlimit="10" stroke-width="3.31"/><line x1="435.9" y1="268.9" x2="330.1" y2="392.2" fill="none" stroke="#fff" stroke-miterlimit="10" stroke-width="3.31"/><line x1="435.9" y1="338.2" x2="329.9" y2="322.9" fill="none" stroke="#fff" stroke-miterlimit="10" stroke-width="3.31"/><line x1="542.1" y1="214.6" x2="436.3" y2="337.9" fill="none" stroke="#fff" stroke-miterlimit="10" stroke-width="3.31"/><line x1="542.1" y1="283.9" x2="436.1" y2="268.6" fill="none" stroke="#fff" stroke-miterlimit="10" stroke-width="3.31"/><line x1="568.6" y1="218.5" x2="489.5" y2="310.8" fill="none" stroke="#fff" stroke-miterlimit="10" stroke-width="3.31"/><line x1="568.7" y1="252.9" x2="489.2" y2="241.5" fill="none" stroke="#fff" stroke-miterlimit="10" stroke-width="3.31"/><polyline points="382 296.4 303.1 388.5 224.1 296.4" fill="none" stroke="#fff" stroke-miterlimit="10" stroke-width="3.31"/><polyline points="382 365.7 303.1 354.3 224.1 365.7" fill="none" stroke="#fff" stroke-miterlimit="10" stroke-width="3.31"/><polyline points="568.7 270.7 303.1 406.3 37.5 270.7" fill="none" stroke="#fff" stroke-miterlimit="10" stroke-width="6.63"/><polyline points="568.7 200.6 303.1 336.2 37.5 200.6" fill="none" stroke="#fff" stroke-miterlimit="10" stroke-width="6.63"/></g></g><g clip-path="url(#clip-path-3)"><g clip-path="url(#clip-path-4)"><rect x="1149" y="153.1" width="438" height="315.92" fill="#fff"/><polygon points="1160 211.7 1364.1 315.9 1568.3 211.7 1568.1 301.7 1364.1 405.9 1160 301.7 1160 211.7" fill="#e6e7e8"/></g></g><g clip-path="url(#clip-path-5)"><g clip-path="url(#clip-path-6)"><rect x="1149" y="489.2" width="438" height="315.92" fill="#fff"/><polygon points="1160 515.7 1364.1 619.9 1568.3 515.7 1568.1 605.8 1364.1 709.9 1160 605.7 1160 515.7" fill="#e6e7e8"/></g></g><path d="M1424.5,627.2a21,21,0,0,1-1.3-2.6l-.5-.9-.6-1.4a17.4,17.4,0,0,0-1-1.9,10.1,10.1,0,0,0-.7-1.5,11.9,11.9,0,0,1-.8-1.6l-1.8-3.7L1416,610l-.9-1.9-.6-1.2a3.6,3.6,0,0,1-.4-.9l-.5-.9h0a1.3,1.3,0,0,0-1.2-.9h-.4a1.8,1.8,0,0,0-.9.8h-.1l-.3.6a.1.1,0,0,1-.1.1l-1.3,2.3-1.8,3.1-.4.7-.3.6-.7,1.2-.9,1.5-1.2,2.1-1.6,2.9-1.5,2.5-1.4,2.3-2,3.4-.5,1-1.1,1.9-1.7,3.1-2.7,4.7-1.5,2.4c-.9,1.7-1.9,3.4-2.9,5.1s-.5.8-.7,1.3a7.5,7.5,0,0,0-.7,1.2l-1.8,3-1.1,1.9c-.5,1-1.1,1.9-1.6,2.8l-.8,1.3-1.3,2.3-.9,1.6-.8,1.5-1.7,2.8-1.3,2.3-1.5,2.7a14,14,0,0,0-1,1.6l-1.2,2.1-1.3,2.2-.3.5h-2.2l-.2-.3a.5.5,0,0,1-.2-.4l-.6-.8c0-.1-.1-.1-.1-.2h0l-.4-.5a.1.1,0,0,1-.1-.1l.3-.4-.7-.4v-.3h-.1V674h0l-.3-.4V673h-.3v-.2h.1l-.5-.5h.5l.4-.2h0l.3-.2h.1l.3-.3h0l.3-.3h0l.2-.3h.1c0-.1.1-.3.1-.4h0a.8.8,0,0,0,.1-.4,2.3,2.3,0,0,0-1.3-2.8l-.6-.2-.4.3-.3.3a.1.1,0,0,1-.1.1h-.5l-.2.4v-.2h0a.8.8,0,0,0,0-.8c-.1-.1-.1-.3-.2-.4a3.5,3.5,0,0,1-.7-2.1v-.9c-.1-1.4-.1-3-.1-4.4v-1.2a13.4,13.4,0,0,0-.1-2.8v-.7a4.4,4.4,0,0,0-1.1-3.2l-.9-1.3-.8-.8-.2-.2h-.1l-.4-.6h0c0-.1-.1-.1-.1-.2h0v-.2h0v-.2h0c.1,0,.1-.1.1-.2h0v-.2h0c0-.1,0-.1.1-.1v-.6h0l1-.3-.6-.6.6-.8-1-.4h-.1a1.1,1.1,0,0,1,.8.2l2.4,1.4-1.1-2.6c-.4-.9-1.7-1-2.3-1h-1.1l-.9.4V641h0v-.5a4.7,4.7,0,0,1,.6-1.5l.4-.9.8-1.6,2.2-2,1.2-.4a5.9,5.9,0,0,0-3.4-1.8h-2.1a.1.1,0,0,0-.1.1h-.5l-.4.2h-.1l-.3.2h0l-.7.4-.9.6a17.2,17.2,0,0,0-3.6,4c0,.1-.1.2-.1.3l-.4-.4-.7-1.6-.4-1.1a20.1,20.1,0,0,1,.5-7.5l.2-.5-.8.5-1.5,1.2h-.1l-.3.2-.4-.4a.1.1,0,0,0-.1.1,76,76,0,0,1,3.7-13.9l-.8-.4a14,14,0,0,1,1-1.6,27.5,27.5,0,0,1,1.9-2.8l.2-.3.7.4,1.4-1.8,1.7-1.8h-.1a1.1,1.1,0,0,0,.5-.4c0-.1,0-.1.1-.1l1.3-1.5h-2.3a2.2,2.2,0,0,0-1.8.8l-2.5,1.4a21.9,21.9,0,0,0-6.1,6.6l-.3.5h0l-.9,1.5-.5.8-.8,1.1.3-2v-.7h.1a.3.3,0,0,0,.1-.2,9.3,9.3,0,0,0,.4-1.3c.1-.5.3-.9.4-1.3s.3-1.1.5-1.6.3-1,.5-1.5a33.3,33.3,0,0,1,2.5-6,4.1,4.1,0,0,0,.5-.9l.8-1.3v-.2a.4.4,0,0,0,.1-.3,1.1,1.1,0,0,0-.2-.8l-.3-.5h-.7a8.2,8.2,0,0,0-4,2.9l-1.2,1.5-.5.6-.5.6a9.3,9.3,0,0,1-.5,1h-.1l-.5,1.2-.3.5h0l-.3.4h0a4.3,4.3,0,0,0-.4.7v.2h-.1v.2h0l-.2.3h-.1c0,.1-.1.1-.1.2h0a.4.4,0,0,0-.1.3.1.1,0,0,0-.1.1.3.3,0,0,1-.1.2v.2a.3.3,0,0,0-.1.2h0v.2h-.1a.7.7,0,0,1-.1.5l-.9,2.7-.5,2.2h-.1l-.7,1.7c-.1.1-.1.3-.2.5a1.3,1.3,0,0,1-.1.6c-.8-1.7-1.6-3.3-2.5-5l-.6-1.1c0-.1,0-.2-.1-.2l3.3-2.1-1-.8c0-.1-.1-.1-.1-.2l-.4-.2h-.1l-4.5-2.8a1.7,1.7,0,0,1-.6-.6l-.4-1a5.4,5.4,0,0,1-.5-1.1,2,2,0,0,0-.4-.8h0v-.2l-1-1.4a2.2,2.2,0,0,0-1-.9l-.7-.7a7,7,0,0,0-2-1.8h-.2l-.5-.4-1.9-.9-.8-.2h-.2l-.6-.2-1.5-.2h-16.1l-1.1-.2h-12.5l-.7.2a1.2,1.2,0,0,0-.7-.2h-1.6a2.8,2.8,0,0,0-1.3-.4h-.7l-.9-.2h-.5a8.6,8.6,0,0,0-2.3-.6h-3.2v.5h0l-1.3-.2h-.3l-1.6-.3a4.2,4.2,0,0,0-1.3-.3l-1,.2-1.3.6,1,.9a4.1,4.1,0,0,0,1.4.8l.5.2a4.7,4.7,0,0,0,1.5.6l.6.2h.4l-1.3,1,1.7.5h.9l1.4.2h1.5l1.8.2,1,.3.3.2.5.2.9.4.7.3,1.1.4v.8l.7.2h.4l.7.3-.2.2h0l-1.6.4a.9.9,0,0,0-.5.3h-.1l-.5-.4a.1.1,0,0,1-.1-.1l-.6-.3h-.5l-.4.3-.8.4.6.8h0a1.1,1.1,0,0,0,.7.6h.7l.5,1h1.4c.2,0,.2.1.2.1a1.4,1.4,0,0,0,.9.3h.3v.6c0,.1.1.1.1.2l-.5.7.6.6a2.7,2.7,0,0,0,1.2.3h1.8l1.2.3.7.2h.7a1.2,1.2,0,0,0-.7.7,1,1,0,0,0,.1.9,1.3,1.3,0,0,0,.8.7h0v.6l.5.3a1.1,1.1,0,0,0,.8.2h.9l.4.3c.1.1.1.3.2.4v.5h.1c-.8.3-.9,1.3-.9,1.7v.7l.5.2-.8.6.9.7h.3a1.4,1.4,0,0,0,.1,1.1l-.7.4,1,.9h.1a1.7,1.7,0,0,0,1.1.6h.8a1.3,1.3,0,0,0,.9.4,1.3,1.3,0,0,0,.8-.3.1.1,0,0,1,.1.1h.4l-.3.5-.2.4v.3h-.7a1.5,1.5,0,0,0-.4-.6,1.5,1.5,0,0,0-.7-.3h-1.1l-.3.6-.6.8.9.5h.1a.8.8,0,0,0,.6.2h.1l.5.5h0a.8.8,0,0,0,.7.5h.3a1.4,1.4,0,0,0,1.4.7h0v.4h-1l-.2.6a1.2,1.2,0,0,0,.1,1.2,1.1,1.1,0,0,0,1,.5h.1a1.1,1.1,0,0,1,.8.2,1.1,1.1,0,0,0,.8.3l-.6.4.2.7a2.7,2.7,0,0,0,1.9,1.8l.6.2v.6h-.8l-.2-.2-1.6-.6.2.8a.1.1,0,0,1-.1-.1,1,1,0,0,0-.9-.4,1.3,1.3,0,0,0-1.1.7l-.7,1.1,2.8.5v-.9h0v.3a3.8,3.8,0,0,0,.3,1,2.4,2.4,0,0,0,.9.6v.3h-.4l-1.3.2-1.2.6,1,.9a1.9,1.9,0,0,0,1,.6,3.4,3.4,0,0,1,2,.9,2,2,0,0,0,1.5.6h2.4l-.9.8,1,.6a.2.2,0,0,0,.2.2l.5.4h-.2l-.8.5.5.8a1.8,1.8,0,0,0,1.6,1h2.7c.1.2.1.5.3.7a1.5,1.5,0,0,0,1.2.5h.5l.3.9a1.6,1.6,0,0,0,.5,2h-.1l-.6.5-.9.4-.4.2a1.5,1.5,0,0,0-.9.5h0l-.8.6.8.7a2.2,2.2,0,0,0,1.6.7h1.2l1.8-.6h.8l.8.2h0a1.8,1.8,0,0,0-.5,1.9l.2.6h.8a1.3,1.3,0,0,0,.3.8l-.7.8a1.4,1.4,0,0,0-.4,1.1,1.3,1.3,0,0,0,.7,1l.5.3.5-.3.4-.2,1.1-.7.6-.6a1.1,1.1,0,0,0,.9.5l.6-.2h.3l-.2.8.9.4.4.2h0l-.3.4a2.5,2.5,0,0,0-.1.8h0v1h1.2l.6-.2h.1l.5.4a1.2,1.2,0,0,0,.1,1l.5.6c-.1,0-.1.1-.1.2a1.5,1.5,0,0,0,0,1.3,1.3,1.3,0,0,0,1.1.5,1.2,1.2,0,0,0,.4,1.4.9.9,0,0,0,.7.3.9.9,0,0,0,.8-.4c.1.3.1.6.2.9l.3,1,.5-.2a3,3,0,0,0,.1,1.6l.3,1,.6-.3c-.1,1.1.1,1.9,1.2,2.2h0a1.5,1.5,0,0,0,.4,1.4h0l1.2,2.3.6-.3a48.5,48.5,0,0,0,5.3,7.1l.4.5a66.3,66.3,0,0,0,5.3,5.3,10.7,10.7,0,0,0,1.6,1.4l1.5,1.4,1.8,1.5.9.7.4.3a9.1,9.1,0,0,0,.1,1.7,39.8,39.8,0,0,0,1.1,5.4,17.5,17.5,0,0,0,2.5,4.9,15,15,0,0,0,8.4,5.9,2.7,2.7,0,0,1,1.5,1.3h.1l-1.9,1.4,2.3.3h.2v.4a14.8,14.8,0,0,1-.1,2.2,7.8,7.8,0,0,1-.2,1.4c0,.3-.1.5-.1.8l-.3,1.7,1.5-.7.4-.2.7-.3a10,10,0,0,0,2.6-2.4l1.8-2.9.3-.4c.2-.4.3-.6.5-.7a18.4,18.4,0,0,0,3.3-2.7l1.2-.9.7-.6,1.2-.9a16.1,16.1,0,0,0,5.3-9,19.1,19.1,0,0,0,.2-4.1v-.4a4.1,4.1,0,0,0-.7-2.5c-.1-.2-.1-.2,0-.4l.4-.6c.8-1.3,1.7-2.5,2.6-3.8s2.1-3.2,3.2-4.7l14.6-21.7,2.9-4.3,3.6-5.3,1.6-2.3,11.7-17.4A2.3,2.3,0,0,0,1424.5,627.2Z" fill="#fff"/><path d="M1342.8,616.3c.3-.1.4-.4.5-.7l.5-.6,1.1-1.9a30,30,0,0,1,4.6-4.8l.7-.6h-.2a19.8,19.8,0,0,0-5.9,6.3l-.8,1.5-.5.7-.4.9a9.5,9.5,0,0,0-1.4,2.4l-.3,1.1-.9,1.8a1.4,1.4,0,0,1-.2.6h-.2c.1-1,0-2,.2-3l.6-4.6v-.9l.3-.5c.2-.9.5-1.8.7-2.6s.7-2,1-3a42.6,42.6,0,0,1,2.6-6.2l.9-1.5h-.2l-1.6,2.9a59.3,59.3,0,0,0-3.7,11c0,.2,0,.3-.1.4a31.8,31.8,0,0,0-.6,4.3c0,.2.1.5.1.8a.5.5,0,0,0-.2.4,14.6,14.6,0,0,0,.1,5.1c.2,1.8.6,3.5.9,5.3v.5h-.1l-1.7-2.7a.7.7,0,0,0,.1.5c1,1.7,2,3.5,3.1,5.2a2.6,2.6,0,0,1,.4,1.9c0,.8-.1,1.6-.1,2.4s.1.3.1.4h.2v-.7c.1-1.1.1-2.2.2-3.3a8.8,8.8,0,0,1,1.7-4.4l.7-.8a9.1,9.1,0,0,0-1.8,2.1,1.3,1.3,0,0,1-.1-.6,77.2,77.2,0,0,1,4.1-16.4,4.7,4.7,0,0,0-.5,1c-.5,1.4-1,2.8-1.4,4.2s-1.1,4.3-1.6,6.5a27.4,27.4,0,0,0-.7,5,7.2,7.2,0,0,1-.7,2.8,5.6,5.6,0,0,1-1.5-2.5l-1.2-6.3a5,5,0,0,1,.3-2.7,19.5,19.5,0,0,0,.8-2.2l.3-.4c.4-.9.8-1.9,1.3-2.8a.4.4,0,0,1,.1-.3Z" fill="#dcbf30"/><path d="M1364.2,675.1l.4.8,1.2,2h.1l-.7-1.2-.6-.7-.4-.8-.8-1.2a4.4,4.4,0,0,0-.8-1.1l-.3-.9-.2-.4h.7a2.4,2.4,0,0,0,2.2-1.7,1.6,1.6,0,0,0-.9-1.8c-.2.2-.5.6-.7.6s-.7-.1-1-.2a2,2,0,0,0,.9.5c.5.1.6-.5.9-.6a1.5,1.5,0,0,1,.3,2.1,2.2,2.2,0,0,1-2,1h-.7l.5.5c-.1.4.2.6.3.8l.9,1.2A1.5,1.5,0,0,0,1364.2,675.1Z" fill="#dcbf30"/><path d="M1348.1,640l-.3-.7h-.2l.5.6.5.7.2-.8Z" fill="#dcbf30"/><path d="M1358.3,650.4a1,1,0,0,0,.4.7h.2l-.6-.5-1.5-1.7a7.1,7.1,0,0,1,.3-3.8l.3-.5h-.1l-.2.6h-.1a5,5,0,0,0-.5,3.4c0,.1.2.2.3.2A3.6,3.6,0,0,0,1358.3,650.4Z" fill="#dcbf30"/><path d="M1338.2,609.3a4.6,4.6,0,0,0-1,2.5,26,26,0,0,0,1-2.5,10.9,10.9,0,0,1,.8-1.5l.3-1,1.7-2.4h-.2a12.8,12.8,0,0,0-1.5,2.5l-1,1.8A1.7,1.7,0,0,0,1338.2,609.3Z" fill="#dcbf30"/><path d="M1346.2,636.3a5.5,5.5,0,0,0,1.1,2.3l-1.1-2.2a14.4,14.4,0,0,1-.5-4.1,6.2,6.2,0,0,0,.3,3.8C1346,636.2,1346.1,636.2,1346.2,636.3Z" fill="#dcbf30"/><path d="M1353.6,634.4l-.4.2a12.7,12.7,0,0,0-3.9,4.1v.4a13.8,13.8,0,0,1,4.2-4.5c.1,0,.1-.1.1-.2l.7-.2,1.7-.7a4.2,4.2,0,0,1,2.9.2l.6.3C1358.2,632.7,1354.8,633.2,1353.6,634.4Z" fill="#dcbf30"/><path d="M1354.4,640.7l-.3.5a13,13,0,0,0,.2,4.4,3.3,3.3,0,0,1,4.7-2.5c-.2-.3-.7-.5-1.6-.5a3.4,3.4,0,0,0-1.7.5l-1.4,1.3a7.7,7.7,0,0,1,.1-3.7,15.7,15.7,0,0,1,1.2-3,6.8,6.8,0,0,0-1.2,2.4Z" fill="#dcbf30"/><path d="M1351.2,690.4c.4-.7,0-.9-.4-1.2a59.5,59.5,0,0,1-7-6.3c-1.3-1.4-2.6-2.8-3.8-4.3s-2.3-2.8-3.3-4.2a45.5,45.5,0,0,1-3.5-6.5,23.5,23.5,0,0,1-2.5-9.4,25.8,25.8,0,0,1,1.1-7.8,12.7,12.7,0,0,1,1.8-3.7,13.1,13.1,0,0,1,7-4.5l2.1-.3-.2-1a5.4,5.4,0,0,0-1.9.3,31.3,31.3,0,0,0-3.2,1.5,12.9,12.9,0,0,0-5.1,5,17.2,17.2,0,0,0-2.1,7,30.1,30.1,0,0,0,.1,6,28.7,28.7,0,0,0,3,9.1,41.6,41.6,0,0,0,6.5,9.6,62.3,62.3,0,0,0,5.7,5.8l3.1,2.7A27.5,27.5,0,0,0,1351.2,690.4Z" fill="#dcbf30"/><path d="M1361.7,668.4l-.3-.3a6.8,6.8,0,0,1-1.7-4c-.1-1.6-.1-3.2-.1-4.7s0-3-.1-4.5a6.7,6.7,0,0,0-1.5-3.8,27.3,27.3,0,0,0-2.3-2.5l-6.4-6.1a15,15,0,0,1-4-7,6.9,6.9,0,0,1,.2-4.9,6.4,6.4,0,0,0,.2-.7,3.7,3.7,0,0,0-1.3,2.9,12.2,12.2,0,0,0,1.5,6.5,22.6,22.6,0,0,0,5,6.5l5.1,5.3a9.5,9.5,0,0,1,2.6,6.6c0,1.9.1,3.7.1,5.5a6.9,6.9,0,0,0,1.5,4.1A3.5,3.5,0,0,0,1361.7,668.4Z" fill="#dcbf30"/><path d="M1343.8,664.1c-.1.4-.1.8-.2,1.1-.3,2.1-.6,4.2-1,6.3,0,.2,0,.5.1.6a3.9,3.9,0,0,0,2,1.8l4.4,1.3,1.2.4v-1l-7-2.2c.4-2.4.8-4.6,1.2-6.9h.2l2.1,3.4,1.1-.2-2.5-4,3.8,1.2c0-1.1,0-1.1-.8-1.4l-1.8-.5-1.7-.6a.9.9,0,0,1,.1-.5c.1-1,.3-2.1.5-3.2s-.2-1.1-.7-1.7c-.3,1.5-.5,2.8-.8,4.4l-3.3-5.3-.8.6,3,4.9v.2l-4.2-1.4c-.2,1-.2,1,.6,1.3l1.1.3Z" fill="#dcbf30"/><path d="M1356.3,682.2l-.5-.3-3.3-1.9a52.4,52.4,0,0,1-7.6-5,19.2,19.2,0,0,1-6.2-9.3,11.2,11.2,0,0,1-.3-6,3.7,3.7,0,0,1,1.2-2.2,3.8,3.8,0,0,1,3.8-.9l.8.2c-.4-.5-.3-1.2-.9-1.2a3.6,3.6,0,0,0-2.3.1,5.5,5.5,0,0,0-3.3,3.2,10.6,10.6,0,0,0-.1,6.8,20.4,20.4,0,0,0,2.4,5.2,4.7,4.7,0,0,0,.9,1.2,32.4,32.4,0,0,0,7.2,6.1l7.1,4.5.5.3.4-.5Z" fill="#dcbf30"/><path d="M1343.6,602.5h0a18.4,18.4,0,0,0-1.7,2.2c-.7,1.3-1.3,2.6-1.9,3.9a28.5,28.5,0,0,0-2.2,7c-.3,1.8-.5,3.6-.7,5.4s-.2,2.2-.2,3.2a2,2,0,0,0,.3,1.1l1.6,2.9.4.4a8.9,8.9,0,0,1-.2-1.5c-.2-1.4-.4-2.8-.5-4.2a23.1,23.1,0,0,1,.4-5.9c.4-2.2.9-4.4,1.4-6.5a20.1,20.1,0,0,1,1.6-4.7Z" fill="#dcbf30"/><path d="M1350.3,608.6h0c-.2.2-.5.3-.6.5a18,18,0,0,0-1.9,2,30.7,30.7,0,0,0-4.2,7.5,43.3,43.3,0,0,0-2.5,8.7,10.9,10.9,0,0,0,.5,5.1,5.4,5.4,0,0,0,.5,1.1c.2-.3.1-.6.2-.8a24.1,24.1,0,0,1,.1-3.8,40,40,0,0,1,.8-4.8c.5-2.2,1.2-4.3,1.9-6.4a17.2,17.2,0,0,1,2.4-4.9Z" fill="#dcbf30"/><path d="M1348.2,671.1a4.4,4.4,0,0,0,.2-1,.7.7,0,0,0-.4-.8.9.9,0,0,0-.9.2,1.6,1.6,0,0,0-.5,1.7,1.3,1.3,0,0,0,1.5.7l.7-.2a3.1,3.1,0,0,0,1.5-1.3,6.6,6.6,0,0,0,1.2-3.3,1.7,1.7,0,0,0,0-1,9.7,9.7,0,0,1-1-3.6l-2.1-1.1c.1.2.1.4.2.5a14.5,14.5,0,0,1,1.2,3.5,7.6,7.6,0,0,1-.6,4.9l-.5.6Z" fill="#dcbf30"/><path d="M1358.1,678.1l2.7.8c.8.4,1.4.1,2.2-.3l-4.7-1.5c.2-1.4.5-2.7.7-4.1h-1c-.2,1.3-.5,2.6-.7,3.9l-4.4-1.4v1l4.2,1.4-.6,3.8c.6.3.9.2,1.1-.4a.9.9,0,0,1,.1-.5C1357.8,679.9,1358,679,1358.1,678.1Z" fill="#dcbf30"/><path d="M1353.1,662.5c0,.1-.1.1-.1.2a4.3,4.3,0,0,1,.1.5h.5a1.1,1.1,0,0,0,.5-1.2c-.1-.3-.2-.5-.6-.5a1.4,1.4,0,0,0-1.5,1.7,1.2,1.2,0,0,0,1.5,1.2,2.2,2.2,0,0,0,1.5-1.7,4.1,4.1,0,0,0-.3-2.2,7.1,7.1,0,0,0-1.8-2.3,6.3,6.3,0,0,1-1.6-2.4,5.4,5.4,0,0,1,1.4-5l1.3-1.2c-.2-.4-.5-.3-.7-.1a8.1,8.1,0,0,0-2.5,3,4.6,4.6,0,0,0,.6,4.9,13,13,0,0,1,1.5,1.8,10.5,10.5,0,0,1,1.3,2.3,1.5,1.5,0,0,1-.5,2c-.4.1-.8.1-1-.2A.6.6,0,0,1,1353.1,662.5Z" fill="#dcbf30"/><path d="M1342.8,642.7a10.3,10.3,0,0,0-4.7,1.2,13.3,13.3,0,0,0,3.5,2.5l2,.7a2.2,2.2,0,0,0,.8,0Z" fill="#dcbf30"/><path d="M1334,668.7a5.4,5.4,0,0,0,1.8,1.9,5.3,5.3,0,0,0,1.5.8c.4.2.6.1.7-.4a15,15,0,0,0,.2-2.2c.1-.3-.1-.5-.4-.6a4.5,4.5,0,0,1-2.4-1.7l-.4-.5C1334.6,666.9,1334.3,667.8,1334,668.7Z" fill="#dcbf30"/><path d="M1350.9,661.7l-.7-.4a12.1,12.1,0,0,1-3-2,8.9,8.9,0,0,1-3-5.8,4.9,4.9,0,0,1,.9-3.3,2.9,2.9,0,0,1,2.7-1.3c.2,0,.5,0,.5.4h-.4a.8.8,0,0,0-.1,1.4,1.1,1.1,0,0,0,1.6-.8,1.6,1.6,0,0,0-1.4-1.7,3.1,3.1,0,0,0-2.7,1,5,5,0,0,0-1.5,4.3,9.1,9.1,0,0,0,3.6,6.4l2.8,1.8C1350.4,661.9,1350.6,662.1,1350.9,661.7Z" fill="#dcbf30"/><path d="M1347.1,683.8a8.5,8.5,0,0,0,3.5.8c.3.1.6,0,.6-.4a4.2,4.2,0,0,0-.2-2.2.6.6,0,0,0-.8-.5,7,7,0,0,1-3.2-.5Z" fill="#dcbf30"/><path d="M1338,672.3V675a.5.5,0,0,0,.4.6l1.6.7a3.1,3.1,0,0,0,1.7.1,17.6,17.6,0,0,0,0-2.3c0-.8-.1-.8-.8-.8a4.8,4.8,0,0,1-2.6-.9Z" fill="#dcbf30"/><path d="M1342.3,680.3a7.4,7.4,0,0,0,3.9-.3,10.2,10.2,0,0,0-1.1-2.8h-3Z" fill="#dcbf30"/><path d="M1358.1,658.1c-.1-.3-.1-.6-.2-.9a1.3,1.3,0,0,0-1.1-.9,2.3,2.3,0,0,0-2.3,1.6,1.6,1.6,0,0,0,1.1,2.1A1.9,1.9,0,0,0,1358.1,658.1Z" fill="#dcbf30"/><path d="M1357.3,672.2h.2c0-.2.1-.4.1-.6a3.5,3.5,0,0,0-1.5-2.8l-1-.6a6.9,6.9,0,0,1-3.4-4.4,1.9,1.9,0,0,1,1.2-2.6h.3a1.8,1.8,0,0,0-2.1,1.4,2,2,0,0,0,0,1.1,6.5,6.5,0,0,0,2.6,4.5l1.7,1.4a3.6,3.6,0,0,1,1.6,2.5C1357,672,1357.2,672.1,1357.3,672.2Z" fill="#dcbf30"/><path d="M1353.6,646.2c0-1.4-.1-2.6,0-3.8a8.4,8.4,0,0,1,.8-3.8,13.7,13.7,0,0,1,1.3-2l1.8-1.6a10.5,10.5,0,0,1,1.1-.7,2.6,2.6,0,0,0-1.8.6,8.8,8.8,0,0,0-2.3,2.4,12.3,12.3,0,0,0-2,7.2.7.7,0,0,0,.1.5A12.7,12.7,0,0,1,1353.6,646.2Z" fill="#dcbf30"/><path d="M1335,665.2a2.7,2.7,0,0,0,.7-2.1c0-.1-.2-.3-.3-.4a5,5,0,0,1-1-1.9,3,3,0,0,0-.4-1l-1.4,2.1A3.9,3.9,0,0,0,1335,665.2Z" fill="#dcbf30"/><path d="M1343.6,655.1a8.1,8.1,0,0,1,0-4.1c-1.5.1-3.4,2.7-3.4,4.5A5,5,0,0,1,1343.6,655.1Z" fill="#dcbf30"/><path d="M1335.1,646.2a7.5,7.5,0,0,0-2.8,5.2,3,3,0,0,0,2.5-1.3c.1-.1.1-.4.1-.6v-2A5.1,5.1,0,0,1,1335.1,646.2Z" fill="#dcbf30"/><path d="M1334.1,658.8a2.1,2.1,0,0,0,1.2-2.1,4.5,4.5,0,0,1,.3-2.3,6.4,6.4,0,0,0,.2-.7l-2.8,2.1A6.8,6.8,0,0,0,1334.1,658.8Z" fill="#dcbf30"/><path d="M1360.7,671.9l3.9,6.4.9-.3-4.1-6.6Z" fill="#dcbf30"/><path d="M1306.3,637.4a2.6,2.6,0,0,0-2-1.3,7.3,7.3,0,0,1-2.9-.4,2.3,2.3,0,0,0-1.8.1.9.9,0,0,0,.5.3,4.7,4.7,0,0,1,2.5,1.1,1.3,1.3,0,0,0,1,.4,2.2,2.2,0,0,1,.8,0Z" fill="#dcbf30"/><path d="M1336.5,652.7c2.4-1.5,4.6-2.7,7.4-2.7a3.7,3.7,0,0,0-1.8,0l-1.7.5-1.7.7-1.5.8v-.2a9.8,9.8,0,0,1,3.5-2.5,12.6,12.6,0,0,1,4.2-1.2c0-.5-.3-.5-.6-.4a8.6,8.6,0,0,0-1.7.3,33.6,33.6,0,0,0-3.3,1.6A6.3,6.3,0,0,0,1336.5,652.7Z" fill="#dcbf30"/><path d="M1357.8,655.5c-.1-.9-.1-1-.7-1.2-2.2-.9-4.2.4-4.3,2.9,0,.2.2.4.4.8C1353.8,655.3,1355.9,654.5,1357.8,655.5Z" fill="#dcbf30"/><path d="M1340.5,646.4c-1.5,1.2-2.5,2.6-2.4,3.4l2.2-1.3,2.6-1.1Z" fill="#dcbf30"/><path d="M1352.1,667.1a3,3,0,0,0-.3,1.2l-1.5,9.2c-.1.4.2.5.5.7s.1-.1.1-.2a69.3,69.3,0,0,1,1.6-10C1352.6,667.6,1352.4,667.4,1352.1,667.1Z" fill="#dcbf30"/><path d="M1352.5,679.3V678a21.7,21.7,0,0,1,.6-5.7l.9-2.9c.1-.3.2-.6-.2-.7a.5.5,0,0,0-.2.4,19.9,19.9,0,0,0-1.1,4,33.1,33.1,0,0,0-.6,5.4C1351.9,678.9,1352,679.2,1352.5,679.3Z" fill="#dcbf30"/><path d="M1336.7,642.9a3.8,3.8,0,0,0-4.1.7,2.1,2.1,0,0,0,1.4.7c.3,0,.8,0,1-.2A17.7,17.7,0,0,0,1336.7,642.9Z" fill="#dcbf30"/><path d="M1338.9,639.6v.2l.9.8a.9.9,0,0,0,1.1.2l1.1-.2c.3-.1.5-.1.5-.4s-.1-.4-.3-.5A5,5,0,0,0,1338.9,639.6Z" fill="#dcbf30"/><path d="M1353,676.8a3.6,3.6,0,0,0,2.6,4.3Z" fill="#dcbf30"/><path d="M1332.3,647.1a4.2,4.2,0,0,0-2.7,2.5c.8.4,1.4.3,1.7-.5A12.4,12.4,0,0,0,1332.3,647.1Z" fill="#dcbf30"/><path d="M1335.5,641.3a2.1,2.1,0,0,0,1.3,1c.2,0,.5.1.6,0l1.9-1A7,7,0,0,0,1335.5,641.3Z" fill="#dcbf30"/><path d="M1337.7,657.7h-1.3c-.4,0-.5.1-.5.4a4.9,4.9,0,0,0,.1,1.2,1.4,1.4,0,0,0,.7,1.1Z" fill="#dcbf30"/><path d="M1331.3,654.7a13.6,13.6,0,0,0-.2,2,3.1,3.1,0,0,0,.1,1.9,5.9,5.9,0,0,0,.9-2C1332.4,655.8,1332,655.2,1331.3,654.7Z" fill="#dcbf30"/><path d="M1331,646.1a1.1,1.1,0,0,0,1,.4h.8l1.3-1.5A4.6,4.6,0,0,0,1331,646.1Z" fill="#dcbf30"/><path d="M1360.3,655.2c0,1.6-.1,3-.1,4.4a25.1,25.1,0,0,0,.2,5.5,6.7,6.7,0,0,0,1,2.3.1.1,0,0,0,.1-.1l-.2-.3a5,5,0,0,1-.8-2.6c-.1-1.8-.1-3.5-.1-5.3A25.7,25.7,0,0,0,1360.3,655.2Z" fill="#dcbf30"/><path d="M1328.9,652.8c.5,0,1,.1,1.2-.4a13.9,13.9,0,0,0,.6-1.9A3.3,3.3,0,0,0,1328.9,652.8Z" fill="#dcbf30"/><path d="M1349,672.2a6.3,6.3,0,0,0,1.4,2.1c.5-1.1,0-1.8-.6-2.6Z" fill="#dcbf30"/><path d="M1354.4,670.1c.6,1.4,1.5,2.1,2.3,1.8a.8.8,0,0,0-.7-.8l.3-.4Z" fill="#dcbf30"/><path d="M1329.5,659a2.4,2.4,0,0,0-.5,2.7C1329.9,661.1,1329.9,660.7,1329.5,659Z" fill="#dcbf30"/><path d="M1331.2,660a7.2,7.2,0,0,0,.7,3.3,7.4,7.4,0,0,0,.4-1.4c.1-.1,0-.3-.1-.4Z" fill="#dcbf30"/><path d="M1355.6,647.9a14.2,14.2,0,0,1,.5-2.2c.2-.6.6-1.2.9-1.9a5,5,0,0,0-1.8,3C1355,647.3,1355.2,647.6,1355.6,647.9Z" fill="#dcbf30"/><path d="M1329.6,656.2a2.9,2.9,0,0,0-.8,2.5c.5-.2.8-.5.8-.9Z" fill="#dcbf30"/><path d="M1362.4,670.5c.3-.5.2-.8-.2-.9a1.4,1.4,0,0,0-1.5.2,4.6,4.6,0,0,0-1.2,1.2c.5.2.6-.1.8-.3a2.2,2.2,0,0,1,1.3-.8C1362,669.8,1362.2,669.9,1362.4,670.5Z" fill="#dcbf30"/><path d="M1336.7,662c-.9,1.1-.9,2.1.1,2.7Z" fill="#dcbf30"/><path d="M1329.9,661.9a2.8,2.8,0,0,0-.3,2.2c.6-.3.7-.4.6-.9A5,5,0,0,0,1329.9,661.9Z" fill="#dcbf30"/><path d="M1342.1,602.7a.2.2,0,0,0,.2-.2l2.9-2.3c.2-.2.5-.4.8,0a.9.9,0,0,0,.1-.5h-.1A10.6,10.6,0,0,0,1342.1,602.7Z" fill="#dcbf30"/><path d="M1328.2,660.9a10.9,10.9,0,0,0-.8,1.5,1.1,1.1,0,0,0,.2.5c.2.2.3,0,.4-.2A1.5,1.5,0,0,0,1328.2,660.9Z" fill="#dcbf30"/><path d="M1329.9,653.4a3.7,3.7,0,0,0-1,2.1.7.7,0,0,0,.9-.5C1329.8,654.5,1329.9,654,1329.9,653.4Z" fill="#dcbf30"/><path d="M1348.1,686.4a4.7,4.7,0,0,0-1.2-1.9.9.9,0,0,0-1.1-.2Z" fill="#dcbf30"/><path d="M1352.9,682.1v-.2l-1.9-1.3c-.2.3-.3.6,0,.8A4.5,4.5,0,0,0,1352.9,682.1Z" fill="#dcbf30"/><path d="M1355.4,662a1.4,1.4,0,0,0,1.6.6c.4-.1.9-.1,1.2-.6Z" fill="#dcbf30"/><path d="M1330.5,666.5c.3-.1.7-.2.6-.6a12.1,12.1,0,0,1-.5-1.4A2.7,2.7,0,0,0,1330.5,666.5Z" fill="#dcbf30"/><path d="M1332.3,669l-.9-2.1C1331.3,668.5,1331.4,668.8,1332.3,669Z" fill="#dcbf30"/><path d="M1338.7,652a4.9,4.9,0,0,0,2.9-1.3A11.1,11.1,0,0,0,1338.7,652Z" fill="#dcbf30"/><path d="M1361.1,671.1v-.2a9.4,9.4,0,0,1-1.2.9l-1.3.7C1359.7,672.7,1360.4,671.8,1361.1,671.1Z" fill="#dcbf30"/><path d="M1351.6,689.3V688l-1.4.2Z" fill="#dcbf30"/><path d="M1336.1,651.8h.2l.7-1h-1.1Z" fill="#dcbf30"/><path d="M1360.2,654.4a4.2,4.2,0,0,0-.9-2.7Z" fill="#dcbf30"/><path d="M1355.3,683.4l-.8-.5v1.4Z" fill="#dcbf30"/><path d="M1352.4,606.3c.3-.1.7-.4.9-.3s.5-.1.7-.3S1353.2,605.7,1352.4,606.3Z" fill="#dcbf30"/><path d="M1352.1,685.8h.2l.2-.7h-.8Z" fill="#dcbf30"/><path d="M1295.3,621.7l-.2.3h.9v-.2h-.4C1295.5,621.6,1295.4,621.7,1295.3,621.7Z" fill="#dcbf30"/><path d="M1333.7,672.3h.2c-.2-.3-.2-.6-.5-.7h-.1Z" fill="#dcbf30"/><path d="M1350.8,609.2h.1l.7-1h-.1Z" fill="#dcbf30"/><path d="M1332.7,669.9h-.1c-.1.4-.1.7.5.8Z" fill="#dcbf30"/><path d="M1352.2,607.5h.1l.6-.7h-.1Z" fill="#dcbf30"/><path d="M1298.3,632.3h.5s.1-.2,0-.2S1298.5,631.9,1298.3,632.3Z" fill="#dcbf30"/><path d="M1281.1,603.5l-.4-.3-.2.2c.1.1.1.2.2.2S1280.9,603.6,1281.1,603.5Z" fill="#dcbf30"/><path d="M1346.3,630.1h-.2l-.2.9h.1Z" fill="#dcbf30"/><path d="M1336.2,615.5h-.1l-.2.9h.1Z" fill="#dcbf30"/><path d="M1332.8,644.5c-.6-.3-.6-.3-.6.2Z" fill="#dcbf30"/><path d="M1294.2,616.4c-.1-.1-.2-.3-.3-.2h-.2c.1.1.1.2.2.2Z" fill="#dcbf30"/><path d="M1312.3,639.5h-.1v.5h.1Z" fill="#dcbf30"/><path d="M1346.2,628.8h.5v-.2Z" fill="#dcbf30"/><path d="M1357.4,635.6h0a.1.1,0,0,1,.1-.1l.2-.2h-.1Z" fill="#dcbf30"/><path d="M1365.9,717.4c.1-.9.3-1.6.3-2.3a17.7,17.7,0,0,0,.1-2.3c0-.6,0-1.2-1-1.3.7-.5.5-.9.2-1.4a3.4,3.4,0,0,0-2.1-1.6,14.7,14.7,0,0,1-7.9-5.7,16,16,0,0,1-2.3-4.5,33.3,33.3,0,0,1-1.1-5.3,15.3,15.3,0,0,1,1-7.3,2.9,2.9,0,0,1,1-1.5v2h.2a.3.3,0,0,0,.1-.2,13.9,13.9,0,0,1,8-6.5,16.1,16.1,0,0,1,6.9-1h.4l1.8-3.2,2.1-3.6,2.2-3.8,2.4-4.1,1.7-3.1,2.1-3.5,2.1-3.7,2.4-4c.4-.9.9-1.7,1.4-2.6l2.9-5c1.4-2.4,2.8-4.7,4.1-7.1l2.9-5,2.4-4.4c1-1.6,2-3.2,2.9-4.9l2.9-4.9a25.4,25.4,0,0,1,1.6-2.8,7.5,7.5,0,0,1,.7-1.2l3.1-5.4.3-.6.6-.5c.3-.1.4.3.5.5l.9,1.8,1.5,3.1,3.6,7.3,1.5,3.1c.6,1.1,1.1,2.2,1.6,3.3a38.4,38.4,0,0,0,1.8,3.5,1.3,1.3,0,0,1-.1,1.6l-13.3,19.7-6.5,9.6-14.7,21.7c-1.9,2.8-3.8,5.7-5.8,8.5a2.5,2.5,0,0,1-.4.7,1.3,1.3,0,0,0,0,1.2,4.2,4.2,0,0,1,.6,2.1,20.3,20.3,0,0,1-.2,4.3,15.2,15.2,0,0,1-5,8.5l-1.9,1.5-1.2,1a18.9,18.9,0,0,1-3.1,2.5,3.8,3.8,0,0,0-1,1.2l-2,3.1a7.7,7.7,0,0,1-2.3,2.1Zm2.7-12.2-.6-.5-1.3,1.1-.3.3-1.4.9c1.3,1.5,4.5,1.6,5.5.3a3.5,3.5,0,0,1-.5-.8,1.2,1.2,0,0,0-1.1-1.1Zm-5.4-.2h.5l.7,1.6,1.3-1-1-2.1h0c-.4-.6-.4-.6-1.4-.9.6-.1,1.2.1,1.7-.2h-.4l-3.5-.3-1.3-.3a1.2,1.2,0,0,0-1-.3c-.1,0-.1-.2-.2-.2a13.6,13.6,0,0,1-3.4-2.3l-.5-.3a3.7,3.7,0,0,0,2.8,4,3,3,0,0,1,.4-.8c.3-.5.3-.5.9-.4l.3.3-.7.9,1.6-.2h1.6c.4,0,.5.2.4.7l-3.3.5-.4-.3c0,1.4.5,2,1.7,2v-1.7h.8a2.2,2.2,0,0,0,.1.8c.1.4-.1.9.3,1.2v.5l.3.5a1.4,1.4,0,0,0,2,.4,4.9,4.9,0,0,0-.4-1.1C1363.1,705.5,1363,705.2,1363.2,705Zm15.8-10.7.5.3.5.6,1.8-1.1-1.9-1-.5-.3-1.2-.9.2-.3a.6.6,0,0,1,.7-.1l.8.5a4.8,4.8,0,0,0,1.2-1.6l-1.8-.6-.3-.2-.9-.5a.4.4,0,0,1-.3-.6l.3-.2,1.2.4h0l2.1,1a5.3,5.3,0,0,0-.3-2.8,1.4,1.4,0,0,0-.8-.9,19.3,19.3,0,0,0-3.4-1.1h-.7v.7a13.3,13.3,0,0,1,.1,4l-.3,2.4c-.6,1-.6,1.2,0,1.8l1,2.1a6.4,6.4,0,0,0,.2.7,13.1,13.1,0,0,1,.6,5.2c.3.1.3.1.5,1.1a.1.1,0,0,1,.1.1,4.4,4.4,0,0,0,2.9-4.2.8.8,0,0,1-.2-.4c-1.3.2-2.1-.1-2.3-.8a1.6,1.6,0,0,1,.5-1.8c-.2-.4-.7-.6-.6-1.2Zm-10.1-13.1,2.5-.5c-.9-1.6-3.7-1.8-5.6-.4a3.9,3.9,0,0,1,.8,2.1l2.1-1.1Zm-7.4.8h-.5a1.5,1.5,0,0,0-1.9,1.5l1.5.3v.7a4.9,4.9,0,0,0-2.4.1,3,3,0,0,0-2.2,1.3,4,4,0,0,0-1.1,3.3c1.1,0,2.1-.2,2.6.9l1.7-.8c.2,0,.3-.2.5-.3h.2l1.8-.3c.2-.1.4-.2.4-.3a12.2,12.2,0,0,0,.7-1.7l.3-.4a11.6,11.6,0,0,1,2.5-2.9l.2-.4c-.6.2-.8.9-1.4.4l-.3.7a.4.4,0,0,1-.6.3c-.3-.1-.5-.3-.3-.7a2,2,0,0,0,.4-.8Zm40.9-46.6h.1l-.6.8a1.8,1.8,0,0,0,1.6-.6,1,1,0,0,1,.5-.4l.3-.4v.2l-1,1.1c.4.1.7.1.9-.2l.9-1.2h.2l-1,1.4a4.3,4.3,0,0,0,2.5-2.6h-1.4l-4.9.9a7.6,7.6,0,0,1-3,0c-.3,0-.6-.2-.9.1a3,3,0,0,0,1.8.6l1.8-.2h0l-1,.4c.7.6,1.3-.2,2-.2l-.6.5h0l.8-.2Zm-32.3,63.8c.2-.1.3-.1.3-.2l.4-.3a11.4,11.4,0,0,0,3.5-4.9,18.7,18.7,0,0,0,1.1-7.8c-.1-.6-.2-.8-.9-.8a5.4,5.4,0,0,0-2.2.5c-1.1.5-1.1.5-1,1.7a9.5,9.5,0,0,1-3.2,8.2l-.5.2A12.5,12.5,0,0,0,1370.1,699.2Zm.2-9.1a11.3,11.3,0,0,0-7-.9,18.4,18.4,0,0,0-7.1,2.9c-.5.3-.5.4-.2,1a5.2,5.2,0,0,0,1.5,1.8c.9.7,1,.7,2,.1l.3-.3a9.8,9.8,0,0,1,8.5-1h.4A9.5,9.5,0,0,0,1370.3,690.1Zm-8.1,4.3a3.4,3.4,0,0,1,.1.9,12,12,0,0,0,2.5,5.2,18.3,18.3,0,0,0,6.5,4.9c.5.2.6.2.9-.3a4.9,4.9,0,0,0,.8-2.3c.1-1.2.1-1.2-1-1.7a9.6,9.6,0,0,1-5.6-6.8l-.2-.5A9.5,9.5,0,0,0,1362.2,694.4Zm20-7.7v-.2a12.6,12.6,0,0,0-6.5-4.6,8.6,8.6,0,0,0-4.5-.3,11.4,11.4,0,0,0-8.2,6.1.7.7,0,0,0-.1.5h3.1c.5-.1,1,.2,1.4,0s.6-.7,1-1a8.4,8.4,0,0,1,6.7-3.1,10.4,10.4,0,0,1,5.9,1.9Zm-28.5-1.3a11.2,11.2,0,0,0,.9,12c2.5,3.3,7.3,4.7,9.6,4.1l-.2-.5a10,10,0,0,1-1.7-2.8,1,1,0,0,0-.9-.8,8.7,8.7,0,0,1-4.8-2.1,9.2,9.2,0,0,1-3.1-7.7C1353.5,686.9,1353.7,686.2,1353.7,685.4Zm12.9,25.8a11.2,11.2,0,0,0,9.8-6.5,11,11,0,0,0-1.2-10.6,10.5,10.5,0,0,1-2.3,3.8v.2l.3.6a9.2,9.2,0,0,1-1,8.5,10.2,10.2,0,0,1-3.5,3Zm31.8-61.4c2,.5,3.3-.1,3.9-1.5a2.8,2.8,0,0,0-1-3.6,2.9,2.9,0,0,0-3.7.4c-1.1,1.2-1.1,2.6.1,4.3-6.8,10.8-13.7,21.5-20.6,32.3l.7.3Zm-9.5,2.2-17.6,27.5.6.5,17.6-27.6a4.7,4.7,0,0,0,2.4-.3,2.6,2.6,0,0,0,1.5-1.9,2.9,2.9,0,0,0-1.6-3.3,2.9,2.9,0,0,0-3.5.9C1387.3,649,1387.5,650.3,1388.9,652Zm-6.4,33.8.5-.7,8.4-13.1,7.1-11.1c.3-.5.3-.5,1-.4a2.9,2.9,0,0,0,1.6-.2,2.8,2.8,0,0,0,1.7-3.6,2.9,2.9,0,0,0-3.6-1.8,2.8,2.8,0,0,0-2,3.4c.2.6.6,1.1.9,1.8s-.2.3-.3.5l-12.6,19.8-2.9,4.5C1382,685.4,1382,685.4,1382.5,685.8Zm29.8-50.4a2.7,2.7,0,0,0-2.8-2.8,2.9,2.9,0,0,0-2.7,2.9,2.6,2.6,0,0,0,2.8,2.7A2.7,2.7,0,0,0,1412.3,635.4Zm5.6-4.3v-.2l1.2.5c.7.4,1.2.1,1.5-.7s-1.1.2-1.5-.2h1.5a.7.7,0,0,0,.7-.4l.3-1.3a.7.7,0,0,0-.2-.7,3,3,0,0,1-2.3,1.8,20.7,20.7,0,0,1-3.3,1,24.3,24.3,0,0,0-3.8,1.3l-.9.6c.1.4.3.5.7.4l1.3-.3.5-.2-.3-.2-.2-.2a3.7,3.7,0,0,0,2.3.3l-.5-.4h.1a2.2,2.2,0,0,0,2.2.2c-.4-.3-.9-.3-1.1-.8,2,.9,2.1.9,2.9.4Zm-51.2,80.6a21.8,21.8,0,0,1,.1,2.5c0,.7-.2,1.5-.3,2.4,2.1-1.3,3.1-3.2,4.3-5.3-.7.1-1.1.2-1.4.7a21.2,21.2,0,0,1-1.2,2l-.5.6h-.2v-2.8Zm-2.2-31.1c-1.1-.5-1.7-.4-2.3.5l1.7.9h.1Zm17.7,14.4-1.7.9,1,1.3A1.7,1.7,0,0,0,1382.2,695Zm-1.5-2.6,1.6.9c.5-.8.5-1.2,0-1.8s-.4-.3-.7-.1Zm-15.1,10.4h-.2l1,2.1,1-.7Zm0,6.4.8,1.6.8-.5C1366.8,709.3,1366.5,709.1,1365.6,709.2Zm11.1-3.4a9,9,0,0,0,2.5-2.3A4.4,4.4,0,0,0,1376.7,705.8Zm-11.5-24.6-.6,1.5C1365.8,682.3,1365.9,682.1,1365.2,681.2Zm15.5,16.3-1-1.2C1379.4,697.3,1379.6,697.6,1380.7,697.5Zm-25.3-7.5.7.9.7-.4A1.3,1.3,0,0,0,1355.4,690Z" fill="#dcbf30"/><path d="M1320.6,653.6l-.4-.5a6.8,6.8,0,0,1-1.2,1.2,11.9,11.9,0,0,1-1.5.9c-.4-.2-.4-.5-.1-.7l.9-1.1.4-.5c-.1-.4-.7-.2-.7-.6a3.6,3.6,0,0,1,.2-1H1317a.7.7,0,0,1,.2-.9l1.1-.9.5-.6c-.4-.3-.6.1-.8.1a.7.7,0,0,1-.9,0,2.8,2.8,0,0,0-2.4-.3l-2.4.8a1.4,1.4,0,0,1-1.3-.5l.3-.3c.6,0,1-.5,1.6-.7a2.8,2.8,0,0,0,1.1-.8.8.8,0,0,0-.1-1.2c-.4-.4-.5-.5-.3-1a.4.4,0,0,0,.1-.3,14.2,14.2,0,0,0-.5-1.6h-.7c-1.1.1-1.2.1-1-1.1h-.5a5.4,5.4,0,0,1-1.8,0c-.3-.1-.7.1-1.1.2s-.8,0-1.1-.6.7-.7,1.3-.1.6.1.9-.1l1.4-.9.2-.3h-.5c-.2,0-.5.4-.7-.1h-.1c-.8.5-1.5-.1-2.2-.2s-.5-.3-.8-.5.7-.5,1.1-.4a2.2,2.2,0,0,0,1.4-.1,2,2,0,0,1,1.1.1l1.3.3v.9c.2.4.5.6,1.2.3h-.3l.6-.4v.4l.4-.2c.4-.3.3-.7.2-1.2s-.4-.3-.7-.3h-1.4a1.1,1.1,0,0,0-1.8-.2h-.2a2.8,2.8,0,0,0-1.9-1.6l-1.2-.4-.7-.4a2.4,2.4,0,0,0-1.9-1h-1.4a.5.5,0,0,1-.4-.6c.1-.3.1-.5.2-.8s-.9.3-1.2-.1-.1-.6-.2-1l.6.2a.9.9,0,0,0,.7.1,4,4,0,0,1,1.1,0v.7c.4-.4.8-.6,1.3-.3s1,0,1.4-.1a2.7,2.7,0,0,1,.9,0,2.5,2.5,0,0,0,1.7-.6c.1-.1.1-.3.2-.4s-1.1-.5-1.7-.2a.8.8,0,0,1-.9-.3c-.4-.5-1-.5-1.6-.7l-.6-.2c-.5-.3-.6-.3-.7.3s-.1.1-.2.4v-.8l-1.2-.4a1.6,1.6,0,0,1-1.3-1.2c.4-.2.7-.7,1.3-.5v-.5l.6.5.4-.4-.9-.4-1.6-.3-.7-.2a1.8,1.8,0,0,0-1.4-.4c-.3,0-.4-.1-.3-.5h2.3a.8.8,0,0,0,.4-.6.7.7,0,0,0-.7-.5h-.5l.3-.6-1.3-.3c-.5,0-.8-.2-.8-.7h-.7l-.3-.3.3-.3h.8c.8-.4,1.3,0,1.8.4l.3.2v-.6c.1-.6.1-.6-.5-.7a.8.8,0,0,1-.8-.7c.4-.7.4-.7,1.8-.8a2.8,2.8,0,0,0-1.5-.8l-1-.2a.4.4,0,0,0-.5,0c-.7.3-.7.3-1.2-.4a4.5,4.5,0,0,1-1.1.3c-.2,0-.4-.3-.6-.5l.7-.5-.6-.4a.4.4,0,0,1-.2-.5.5.5,0,0,1,.5-.5h3.6l1.2-.6a1.4,1.4,0,0,0,.8-.9h-.7c-.4.3-.7.2-1.1.2h-2a2.2,2.2,0,0,1-1.4-.3l-.9-.3-.9-.2c0-1,.2-1.1,1-1a1.4,1.4,0,0,0,1-.3h-.4l-.3-1.1h-.7c-.2-.5.1-.6.4-.9h-.6c-.3,0-.6.2-.8-.2a1.1,1.1,0,0,0-.8,0c-.3.1-.5.2-.8,0s.5-.7,1.1-.7h1.1l.4-.3h-.6l-1.8-.2h-.6c-.2-.1-.5-.2-.5-.3s.1-.4.3-.4h.2a2.3,2.3,0,0,1,1.9-.6h.2c-.1-.1-.1-.2-.2-.2a11.6,11.6,0,0,0-3.2-.8l-.5-.2a3.9,3.9,0,0,0-2.8-.1,1.5,1.5,0,0,1-1.1-.2l.3-.5c0-.1-.1-.2-.2-.4s.1-.6.5-.6a1.4,1.4,0,0,1,.9.1,2.4,2.4,0,0,0,1.2,0c.4,0,.6-.3.6-.7l-.6-.2h-1.2c-.5,0-.8,0-1.1-.4l-.7.3c-.4.1-.9.3-1.1.1s-1-.2-1.6-.3l-.2-.4c0-.1,0-.2.1-.2l.4-.2.3-.2,2.2-.5c-.1-.6.3-.8.8-.9l1.4-.3.3-.6c-.5-.4-.8.3-1.3.2l-1.4-.2-1.2-.5h0l.7-.3c-.4-.2-.6-.5-.9-.5a9.4,9.4,0,0,1-2.2-.7l-1.3-.7-1.5-.5-2.6-.3h-.8l-1.4-.2-.7-.2c.7-.5,1.5-.2,2.2-.4s-.2-.4-.5-.5a5.5,5.5,0,0,1-2.5-.7,9.5,9.5,0,0,1-1.8-.6c-.6-.4-1.3-.4-1.9-.9a2.5,2.5,0,0,1,1.7,0,5.2,5.2,0,0,0,2.1.4,10.1,10.1,0,0,1,1.7.3h.6v-.6h1.6l2.8.7.3.2c.7-.4,1.3.1,1.9.1a2,2,0,0,1,1.1.2,4.9,4.9,0,0,0,1.7.1c.3.1.5,0,.7.2s.6.1.6,0,.6-.1.8-.1l1.6.2h3.9a2.7,2.7,0,0,1,.9,0c.9.1,1.9-.1,2.9-.1l2,.2h.7l1,.2.4.2c1.1-.4,2.2.3,3.3.1a11.5,11.5,0,0,1,1.8.1l3.3.2,2.3.2h5.1a12,12,0,0,1,2,.3,3.2,3.2,0,0,1,.9.3l1.7.8.8.5a6.1,6.1,0,0,1,1.7,1.5,3.2,3.2,0,0,0,1,1c.3.1.5.4.7.6s.7,1,1,1.6a.9.9,0,0,1,.3.5,14.7,14.7,0,0,0,1,2.2,1.8,1.8,0,0,0,.9,1l4.7,2.9.4.4-2.9,1.8a10.4,10.4,0,0,0,.4,1c1.2,2.3,2.3,4.6,3.5,6.8a3.1,3.1,0,0,0,1,1.3c0-.2.1-.4.1-.6l.3-2.3.2-.2h0c-.1,1.1-.3,2.3-.4,3.4a2.4,2.4,0,0,0,.2.9l1.4,2.6c-1.6-2.4-2.8-4.9-4.5-7.2l-20.4,11.4a4.3,4.3,0,0,0,.4.7l15.9,25.7a1.3,1.3,0,0,1,.3,1.2,5.4,5.4,0,0,0,0,2.2c.2.5-.7,1.6-1.2,1.8h-.4a.4.4,0,0,1,0-.5l.4-.6a3.9,3.9,0,0,1-.8-1c-.1-.1,0-.4,0-.5l.3-.7c-.8.3-1-.4-1.5-.8l-.8.4h-.4a.7.7,0,0,1,.1-.5c0-.2.2-.2.3-.4a.9.9,0,0,0-.5-1.2l-.6-.3a1.4,1.4,0,0,0-.1-1.1c-.5,0-1-.4-1.5-.1s-.5-.1-.7-.4.5-.3.4-.6-.2-.2-.3-.2-.2.2-.2.3S1320.5,653.4,1320.6,653.6Zm-12.4-23.7a1,1,0,0,0,1.2-.2l20.1-11.2,1.1-.7c.4-.2.4-.5,0-.8s-.1-.1-.2-.2l-3.6-2.2-.7-.4.7-.5,3.7-2.3c.6-.4.6-.7,0-1.1l-2.1-1.3-18.8-11.3-.6-.3c-.2,0-.4,0-.5.3v.6c0,1.4-.1,2.7-.1,4.1s-.1.4-.1.6l-1.5-.6-3.4-1.7a1.1,1.1,0,0,0-1.1,0,2.5,2.5,0,0,0,.1.8v3.2c.1,3.6.2,7.2.2,10.8s.1,5.5.2,8.2V626c0,.5.2.6.7.5l.5-.3,3.2-1.6.8-.4Zm-4.2-.6c-.5-.4-.6-.4-.8.3S1303.7,629.4,1304,629.3Zm-10.5-19.8c.4.2.6,0,1-.3S1293.7,609.1,1293.5,609.5Zm11.3,20.2c.4.5.5.6.9.3Zm-7.1-11c-.2,0-.5,0-.6.3S1297.6,619.3,1297.7,618.7Zm-21.8-21.8v-.2l-.4-.2c-.1,0-.1.2-.2.3Zm9.9,3.4h.2v-.5h-.2Zm7.3,9.6-.2-.2-.2.2c.1.1.1.2.2.2S1293,609.9,1293.1,609.9Zm-4.5-7.1h0Zm22.7,37.6h-.1l.3.2h.1Zm-34.9-45.3c0,.4.2.4.6.3Z" fill="#dcbf30"/><path d="M1313.1,630.2l18.8-10.8a1.6,1.6,0,0,1,.4.7c2.4,3.8,4.7,7.6,7,11.4l2.1,3.3a2.3,2.3,0,0,1,.3,1.1c-.2,1-.3,2-.4,3h-1l.3-2.2-5.8-1.7-1.1,6.2c.5.5,1.2.3,1.6.9l-1.4.3-1.4.5v-.9l-6.2-1.9-1.1,6.1,5.1,1.6-.7.8-4.5-1.4a.9.9,0,0,0,.3.9c.8,1.4,1.7,2.8,2.6,4.2l.3.4a1.6,1.6,0,0,1,.2,2.3C1328,654.5,1314.8,633.4,1313.1,630.2Zm1.5.4.2.3c1,1.7,2,3.4,3.1,5.1a1.2,1.2,0,0,0,.7.5l3.9,1.2,3,.9c.3-2.1.8-4.2,1-6.3l-1.5-.5-7.6-2.4c-.3-.1-.5-.2-.8,0Zm19.4,2.9c.4-2.3.8-4.5,1.1-6.8a1.9,1.9,0,0,0-.2-.7l-3-4.9c0-.1-.1-.1-.2-.2l-1.9,1a1.1,1.1,0,0,0-.6.9l-1.2,6.9-.3,1.9Zm-8.7,6.2c-1.3-.5-5.7-1.9-6.3-1.8l1.1,1.6c1.1,1.9,2.3,3.7,3.4,5.5s.3.7.8.7Zm9.7-5.9a38.9,38.9,0,0,0,5.8,1.8c-1.5-2.7-3.1-5.2-4.7-7.7h-.1C1335.6,629.9,1335.3,631.8,1335,633.8Zm-3.1,6.9a57.7,57.7,0,0,0-4.5-7.2l-.9,5.5Zm-9-14.8a29.5,29.5,0,0,0-4.6,2.7l7.5,2.3h.1Zm9.8,14h.2c.3-1.7.7-3.5.9-5.3l-5.2-1.6h-.1Zm-8.9-14.6a30.6,30.6,0,0,0,3.1,4.9l1.2-7.4Z" fill="#dcbf30"/><path d="M1351.2,690.4a27.5,27.5,0,0,1-2.6-2.2l-3.1-2.7a62.3,62.3,0,0,1-5.7-5.8,41.6,41.6,0,0,1-6.5-9.6,28.7,28.7,0,0,1-3-9.1,30.1,30.1,0,0,1-.1-6,17.2,17.2,0,0,1,2.1-7,12.9,12.9,0,0,1,5.1-5,31.3,31.3,0,0,1,3.2-1.5,5.4,5.4,0,0,1,1.9-.3l.2,1-2.1.3a13.1,13.1,0,0,0-7,4.5,12.7,12.7,0,0,0-1.8,3.7,25.8,25.8,0,0,0-1.1,7.8,23.5,23.5,0,0,0,2.5,9.4,45.5,45.5,0,0,0,3.5,6.5q1.5,2.1,3.3,4.2c1.2,1.5,2.5,2.9,3.8,4.3a59.5,59.5,0,0,0,7,6.3C1351.2,689.5,1351.6,689.7,1351.2,690.4Z" fill="#dcbf30"/><path d="M1361.7,668.4a3.5,3.5,0,0,1-1.5-1.1,6.9,6.9,0,0,1-1.5-4.1c0-1.8-.1-3.6-.1-5.5a9.5,9.5,0,0,0-2.6-6.6l-5.1-5.3a22.6,22.6,0,0,1-5-6.5,12.2,12.2,0,0,1-1.5-6.5,3.7,3.7,0,0,1,1.3-2.9,6.4,6.4,0,0,1-.2.7,6.9,6.9,0,0,0-.2,4.9,15,15,0,0,0,4,7l6.4,6.1a27.3,27.3,0,0,1,2.3,2.5,6.7,6.7,0,0,1,1.5,3.8c.1,1.5.1,3,.1,4.5s0,3.1.1,4.7a6.8,6.8,0,0,0,1.7,4Z" fill="#dcbf30"/><path d="M1343.8,664.1l-3.4-1.1-1.1-.3c-.8-.3-.8-.3-.6-1.3l4.2,1.4v-.2l-3-4.9.8-.6,3.3,5.3c.3-1.6.5-2.9.8-4.4.5.6.9,1,.7,1.7s-.4,2.2-.5,3.2a.9.9,0,0,0-.1.5l1.7.6,1.8.5c.8.3.8.3.8,1.4l-3.8-1.2,2.5,4-1.1.2-2.1-3.4h-.2c-.4,2.3-.8,4.5-1.2,6.9l7,2.2v1l-1.2-.4-4.4-1.3a3.9,3.9,0,0,1-2-1.8c-.1-.1-.1-.4-.1-.6.4-2.1.7-4.2,1-6.3C1343.7,664.9,1343.7,664.5,1343.8,664.1Z" fill="#dcbf30"/><path d="M1356.3,682.2l-.2.3-.4.5-.5-.3-7.1-4.5a32.4,32.4,0,0,1-7.2-6.1,4.7,4.7,0,0,1-.9-1.2,20.4,20.4,0,0,1-2.4-5.2,10.6,10.6,0,0,1,.1-6.8,5.5,5.5,0,0,1,3.3-3.2,3.6,3.6,0,0,1,2.3-.1c.6,0,.5.7.9,1.2l-.8-.2a3.8,3.8,0,0,0-3.8.9,3.7,3.7,0,0,0-1.2,2.2,11.2,11.2,0,0,0,.3,6,19.2,19.2,0,0,0,6.2,9.3,52.4,52.4,0,0,0,7.6,5l3.3,1.9Z" fill="#dcbf30"/><path d="M1343.6,602.5l-1.7,3.2a20.1,20.1,0,0,0-1.6,4.7c-.5,2.1-1,4.3-1.4,6.5a23.1,23.1,0,0,0-.4,5.9c.1,1.4.3,2.8.5,4.2a8.9,8.9,0,0,0,.2,1.5l-.4-.4-1.6-2.9a2,2,0,0,1-.3-1.1c0-1,.1-2.1.2-3.2s.4-3.6.7-5.4a28.5,28.5,0,0,1,2.2-7c.6-1.3,1.2-2.6,1.9-3.9a18.4,18.4,0,0,1,1.7-2.2Z" fill="#dcbf30"/><path d="M1350.3,608.6l-2.8,4.1a17.2,17.2,0,0,0-2.4,4.9c-.7,2.1-1.4,4.2-1.9,6.4a40,40,0,0,0-.8,4.8,24.1,24.1,0,0,0-.1,3.8c-.1.2,0,.5-.2.8a5.4,5.4,0,0,1-.5-1.1,10.9,10.9,0,0,1-.5-5.1,43.3,43.3,0,0,1,2.5-8.7,30.7,30.7,0,0,1,4.2-7.5,18,18,0,0,1,1.9-2c.1-.2.4-.3.6-.5Z" fill="#dcbf30"/><path d="M1348.2,671.1l.5-.2.5-.6a7.6,7.6,0,0,0,.6-4.9,14.5,14.5,0,0,0-1.2-3.5c-.1-.1-.1-.3-.2-.5l2.1,1.1a9.7,9.7,0,0,0,1,3.6,1.7,1.7,0,0,1,0,1,6.6,6.6,0,0,1-1.2,3.3,3.1,3.1,0,0,1-1.5,1.3l-.7.2a1.3,1.3,0,0,1-1.5-.7,1.6,1.6,0,0,1,.5-1.7.9.9,0,0,1,.9-.2.7.7,0,0,1,.4.8A4.4,4.4,0,0,1,1348.2,671.1Z" fill="#dcbf30"/><path d="M1358.1,678.1c-.1.9-.3,1.8-.4,2.6a.9.9,0,0,0-.1.5c-.2.6-.5.7-1.1.4l.6-3.8-4.2-1.4v-1l4.4,1.4c.2-1.3.5-2.6.7-3.9h1c-.2,1.4-.5,2.7-.7,4.1l4.7,1.5c-.8.4-1.4.7-2.2.3Z" fill="#dcbf30"/><path d="M1353.1,662.5a.6.6,0,0,0-.4.8c.2.3.6.3,1,.2a1.5,1.5,0,0,0,.5-2,10.5,10.5,0,0,0-1.3-2.3,13,13,0,0,0-1.5-1.8,4.6,4.6,0,0,1-.6-4.9,8.1,8.1,0,0,1,2.5-3c.2-.2.5-.3.7.1l-1.3,1.2a5.4,5.4,0,0,0-1.4,5,6.3,6.3,0,0,0,1.6,2.4,7.1,7.1,0,0,1,1.8,2.3,4.1,4.1,0,0,1,.3,2.2,2.2,2.2,0,0,1-1.5,1.7,1.2,1.2,0,0,1-1.5-1.2,1.4,1.4,0,0,1,1.5-1.7c.4,0,.5.2.6.5a1.1,1.1,0,0,1-.5,1.2h-.5a4.3,4.3,0,0,0-.1-.5C1353,662.6,1353.1,662.6,1353.1,662.5Z" fill="#dcbf30"/><path d="M1342.8,642.7l1.6,4.4a2.2,2.2,0,0,1-.8,0l-2-.7a13.3,13.3,0,0,1-3.5-2.5A10.3,10.3,0,0,1,1342.8,642.7Z" fill="#dcbf30"/><path d="M1334,668.7c.3-.9.6-1.8,1-2.7l.4.5a4.5,4.5,0,0,0,2.4,1.7c.3.1.5.3.4.6a15,15,0,0,1-.2,2.2c-.1.5-.3.6-.7.4a5.3,5.3,0,0,1-1.5-.8A5.4,5.4,0,0,1,1334,668.7Z" fill="#dcbf30"/><path d="M1340.7,620.7a19.5,19.5,0,0,1-.8,2.2,5,5,0,0,0-.3,2.7l1.2,6.3a5.6,5.6,0,0,0,1.5,2.5,7.2,7.2,0,0,0,.7-2.8,27.4,27.4,0,0,1,.7-5c.5-2.2,1-4.3,1.6-6.5s.9-2.8,1.4-4.2a4.7,4.7,0,0,1,.5-1,77.2,77.2,0,0,0-4.1,16.4,1.3,1.3,0,0,0,.1.6,9.1,9.1,0,0,1,1.8-2.1l-.7.8a8.8,8.8,0,0,0-1.7,4.4c-.1,1.1-.1,2.2-.2,3.3v.7h-.2c0-.1-.1-.3-.1-.4s.1-1.6.1-2.4a2.6,2.6,0,0,0-.4-1.9c-1.1-1.7-2.1-3.5-3.1-5.2a.7.7,0,0,1-.1-.5l1.7,2.7h.1v-.5c-.3-1.8-.7-3.5-.9-5.3a14.6,14.6,0,0,1-.1-5.1.5.5,0,0,1,.2-.4h0c-.2,1-.1,2-.2,3h.2a1.4,1.4,0,0,0,.2-.6l.9-1.8Z" fill="#dcbf30"/><path d="M1350.9,661.7c-.3.4-.5.2-.7.1l-2.8-1.8a9.1,9.1,0,0,1-3.6-6.4,5,5,0,0,1,1.5-4.3,3.1,3.1,0,0,1,2.7-1,1.6,1.6,0,0,1,1.4,1.7,1.1,1.1,0,0,1-1.6.8.8.8,0,0,1,.1-1.4h.4c0-.4-.3-.4-.5-.4a2.9,2.9,0,0,0-2.7,1.3,4.9,4.9,0,0,0-.9,3.3,8.9,8.9,0,0,0,3,5.8,12.1,12.1,0,0,0,3,2Z" fill="#dcbf30"/><path d="M1347.1,683.8V681a7,7,0,0,0,3.2.5.6.6,0,0,1,.8.5,4.2,4.2,0,0,1,.2,2.2c0,.4-.3.5-.6.4A8.5,8.5,0,0,1,1347.1,683.8Z" fill="#dcbf30"/><path d="M1338,672.3h.3a4.8,4.8,0,0,0,2.6.9c.7,0,.8,0,.8.8a17.6,17.6,0,0,1,0,2.3,3.1,3.1,0,0,1-1.7-.1l-1.6-.7a.5.5,0,0,1-.4-.6Z" fill="#dcbf30"/><path d="M1342.3,680.3l-.2-3.1h3a10.2,10.2,0,0,1,1.1,2.8A7.4,7.4,0,0,1,1342.3,680.3Z" fill="#dcbf30"/><path d="M1358.1,658.1a1.9,1.9,0,0,1-2.5,1.9,1.6,1.6,0,0,1-1.1-2.1,2.3,2.3,0,0,1,2.3-1.6,1.3,1.3,0,0,1,1.1.9C1358,657.5,1358,657.8,1358.1,658.1Z" fill="#dcbf30"/><path d="M1357.3,672.2c-.1-.1-.3-.2-.3-.3a3.6,3.6,0,0,0-1.6-2.5l-1.7-1.4a6.5,6.5,0,0,1-2.6-4.5,2,2,0,0,1,0-1.1,1.8,1.8,0,0,1,2.1-1.4h-.3a1.9,1.9,0,0,0-1.2,2.6,6.9,6.9,0,0,0,3.4,4.4l1,.6a3.5,3.5,0,0,1,1.5,2.8c0,.2-.1.4-.1.6Z" fill="#dcbf30"/><path d="M1353.6,646.2a12.7,12.7,0,0,0-1-1.2.7.7,0,0,1-.1-.5,12.3,12.3,0,0,1,2-7.2,8.8,8.8,0,0,1,2.3-2.4,2.6,2.6,0,0,1,1.8-.6,10.5,10.5,0,0,0-1.1.7l-1.8,1.6a13.7,13.7,0,0,0-1.3,2,8.4,8.4,0,0,0-.8,3.8C1353.5,643.6,1353.6,644.8,1353.6,646.2Z" fill="#dcbf30"/><path d="M1335,665.2a3.9,3.9,0,0,1-2.4-3.3l1.4-2.1a3,3,0,0,1,.4,1,5,5,0,0,0,1,1.9c.1.1.3.3.3.4A2.7,2.7,0,0,1,1335,665.2Z" fill="#dcbf30"/><path d="M1343.6,655.1a5,5,0,0,0-3.4.4c0-1.8,1.9-4.4,3.4-4.5A8.1,8.1,0,0,0,1343.6,655.1Z" fill="#dcbf30"/><path d="M1335.1,646.2a5.1,5.1,0,0,0-.2,1.3v2c0,.2,0,.5-.1.6a3,3,0,0,1-2.5,1.3A7.5,7.5,0,0,1,1335.1,646.2Z" fill="#dcbf30"/><path d="M1334.1,658.8a6.8,6.8,0,0,1-1.1-3l2.8-2.1a6.4,6.4,0,0,1-.2.7,4.5,4.5,0,0,0-.3,2.3A2.1,2.1,0,0,1,1334.1,658.8Z" fill="#dcbf30"/><path d="M1360.7,671.9l.7-.5,4.1,6.6-.9.3Z" fill="#dcbf30"/><path d="M1306.3,637.4l-1.9.2a2.2,2.2,0,0,0-.8,0,1.3,1.3,0,0,1-1-.4,4.7,4.7,0,0,0-2.5-1.1.9.9,0,0,1-.5-.3,2.3,2.3,0,0,1,1.8-.1,7.3,7.3,0,0,0,2.9.4A2.6,2.6,0,0,1,1306.3,637.4Z" fill="#dcbf30"/><path d="M1336.5,652.7a6.3,6.3,0,0,1,2.7-3.1,33.6,33.6,0,0,1,3.3-1.6,8.6,8.6,0,0,1,1.7-.3c.3-.1.6-.1.6.4a12.6,12.6,0,0,0-4.2,1.2,9.8,9.8,0,0,0-3.5,2.5v.2l1.5-.8,1.7-.7,1.7-.5a3.7,3.7,0,0,1,1.8,0C1341.1,650,1338.9,651.2,1336.5,652.7Z" fill="#dcbf30"/><path d="M1357.8,655.5c-1.9-1-4-.2-4.6,2.5-.2-.4-.4-.6-.4-.8.1-2.5,2.1-3.8,4.3-2.9C1357.7,654.5,1357.7,654.6,1357.8,655.5Z" fill="#dcbf30"/><path d="M1340.5,646.4l2.4,1-2.6,1.1-2.2,1.3C1338,649,1339,647.6,1340.5,646.4Z" fill="#dcbf30"/><path d="M1352.1,667.1c.3.3.5.5.4.9a69.3,69.3,0,0,0-1.6,10c0,.1-.1.1-.1.2s-.6-.3-.5-.7l1.5-9.2A3,3,0,0,1,1352.1,667.1Z" fill="#dcbf30"/><path d="M1352.5,679.3c-.5-.1-.6-.4-.6-.8a33.1,33.1,0,0,1,.6-5.4,19.9,19.9,0,0,1,1.1-4,.5.5,0,0,1,.2-.4c.4.1.3.4.2.7l-.9,2.9a21.7,21.7,0,0,0-.6,5.7Z" fill="#dcbf30"/><path d="M1336.7,642.9a17.7,17.7,0,0,1-1.7,1.2c-.2.2-.7.2-1,.2a2.1,2.1,0,0,1-1.4-.7A3.8,3.8,0,0,1,1336.7,642.9Z" fill="#dcbf30"/><path d="M1338.9,639.6a5,5,0,0,1,3.2.1c.2.1.4.2.3.5s-.2.3-.5.4l-1.1.2a.9.9,0,0,1-1.1-.2l-.9-.8Z" fill="#dcbf30"/><path d="M1353,676.8l2.6,4.3A3.6,3.6,0,0,1,1353,676.8Z" fill="#dcbf30"/><path d="M1340.2,614.5a59.3,59.3,0,0,1,3.7-11l1.6-2.9h.2l-.9,1.5a42.6,42.6,0,0,0-2.6,6.2c-.3,1-.7,2-1,3s-.5,1.7-.7,2.6l-.3.5Z" fill="#dcbf30"/><path d="M1332.3,647.1a12.4,12.4,0,0,1-1,2c-.3.8-.9.9-1.7.5A4.2,4.2,0,0,1,1332.3,647.1Z" fill="#dcbf30"/><path d="M1335.5,641.3a7,7,0,0,1,3.8,0l-1.9,1c-.1.1-.4,0-.6,0A2.1,2.1,0,0,1,1335.5,641.3Z" fill="#dcbf30"/><path d="M1337.7,657.7l-1,2.8a1.4,1.4,0,0,1-.7-1.1,4.9,4.9,0,0,1-.1-1.2c0-.3.1-.4.5-.4Z" fill="#dcbf30"/><path d="M1331.3,654.7c.7.5,1.1,1.1.8,1.9a5.9,5.9,0,0,1-.9,2,3.1,3.1,0,0,1-.1-1.9A13.6,13.6,0,0,1,1331.3,654.7Z" fill="#dcbf30"/><path d="M1331,646.1a4.6,4.6,0,0,1,3.1-1.2l-1.3,1.5h-.8A1.1,1.1,0,0,1,1331,646.1Z" fill="#dcbf30"/><path d="M1360.3,655.2a25.7,25.7,0,0,1,.1,3.9c0,1.8,0,3.5.1,5.3a5,5,0,0,0,.8,2.6l.2.3a.1.1,0,0,1-.1.1,6.7,6.7,0,0,1-1-2.3,25.1,25.1,0,0,1-.2-5.5C1360.2,658.2,1360.3,656.8,1360.3,655.2Z" fill="#dcbf30"/><path d="M1343.3,615.6l.8-1.5a19.8,19.8,0,0,1,5.9-6.3h.2l-.7.6a30,30,0,0,0-4.6,4.8l-1.1,1.9-.5.6Z" fill="#dcbf30"/><path d="M1354.4,640.7a7.7,7.7,0,0,0-.1,3.7l1.4-1.3a3.4,3.4,0,0,1,1.7-.5c.9,0,1.4.2,1.6.5a3.3,3.3,0,0,0-4.7,2.5,13,13,0,0,1-.2-4.4l.3-.5Z" fill="#dcbf30"/><path d="M1328.9,652.8a3.3,3.3,0,0,1,1.8-2.3,13.9,13.9,0,0,1-.6,1.9C1329.9,652.9,1329.4,652.8,1328.9,652.8Z" fill="#dcbf30"/><path d="M1349,672.2l.8-.5c.6.8,1.1,1.5.6,2.6A6.3,6.3,0,0,1,1349,672.2Z" fill="#dcbf30"/><path d="M1354.4,670.1l1.9.6-.3.4a.8.8,0,0,1,.7.8C1355.9,672.2,1355,671.5,1354.4,670.1Z" fill="#dcbf30"/><path d="M1329.5,659c.4,1.7.4,2.1-.5,2.7A2.4,2.4,0,0,1,1329.5,659Z" fill="#dcbf30"/><path d="M1362.3,671.9l-.5-.5h.7a2.2,2.2,0,0,0,2-1,1.5,1.5,0,0,0-.3-2.1c-.3.1-.4.7-.9.6a2,2,0,0,1-.9-.5c.3.1.7.3,1,.2s.5-.4.7-.6a1.6,1.6,0,0,1,.9,1.8,2.4,2.4,0,0,1-2.2,1.7h-.7l.2.4Z" fill="#dcbf30"/><path d="M1331.2,660l1,1.5c.1.1.2.3.1.4a7.4,7.4,0,0,1-.4,1.4A7.2,7.2,0,0,1,1331.2,660Z" fill="#dcbf30"/><path d="M1355.6,647.9c-.4-.3-.6-.6-.4-1.1a5,5,0,0,1,1.8-3c-.3.7-.7,1.3-.9,1.9A14.2,14.2,0,0,0,1355.6,647.9Z" fill="#dcbf30"/><path d="M1329.6,656.2v1.6c0,.4-.3.7-.8.9A2.9,2.9,0,0,1,1329.6,656.2Z" fill="#dcbf30"/><path d="M1362.4,670.5c-.2-.6-.4-.7-.8-.6a2.2,2.2,0,0,0-1.3.8c-.2.2-.3.5-.8.3a4.6,4.6,0,0,1,1.2-1.2,1.4,1.4,0,0,1,1.5-.2C1362.6,669.7,1362.7,670,1362.4,670.5Z" fill="#dcbf30"/><path d="M1336.7,662v2.7C1335.8,664.1,1335.8,663.1,1336.7,662Z" fill="#dcbf30"/><path d="M1329.9,661.9a5,5,0,0,1,.3,1.3c.1.5,0,.6-.6.9A2.8,2.8,0,0,1,1329.9,661.9Z" fill="#dcbf30"/><path d="M1353.5,634.4c0,.1,0,.2-.1.2a13.8,13.8,0,0,0-4.2,4.5v-.4a12.7,12.7,0,0,1,3.9-4.1l.4-.2Z" fill="#dcbf30"/><path d="M1342.1,602.7a10.6,10.6,0,0,1,3.9-3.1h.1a.9.9,0,0,1-.1.5c-.3-.4-.6-.2-.8,0l-2.9,2.3A.2.2,0,0,1,1342.1,602.7Z" fill="#dcbf30"/><path d="M1353.6,634.4c1.2-1.2,4.6-1.7,5.8-.4l-.6-.3a4.2,4.2,0,0,0-2.9-.2l-1.7.7-.7.2Z" fill="#dcbf30"/><path d="M1328.2,660.9a1.5,1.5,0,0,1-.2,1.8c-.1.2-.2.4-.4.2a1.1,1.1,0,0,1-.2-.5A10.9,10.9,0,0,1,1328.2,660.9Z" fill="#dcbf30"/><path d="M1329.9,653.4c0,.6-.1,1.1-.1,1.6a.7.7,0,0,1-.9.5A3.7,3.7,0,0,1,1329.9,653.4Z" fill="#dcbf30"/><path d="M1348.1,686.4l-2.3-2.1a.9.9,0,0,1,1.1.2A4.7,4.7,0,0,1,1348.1,686.4Z" fill="#dcbf30"/><path d="M1352.9,682.1a4.5,4.5,0,0,1-1.8-.7c-.3-.2-.2-.5,0-.8l1.9,1.3Z" fill="#dcbf30"/><path d="M1355.4,662h2.8c-.3.5-.8.5-1.2.6A1.4,1.4,0,0,1,1355.4,662Z" fill="#dcbf30"/><path d="M1330.5,666.5a2.7,2.7,0,0,1,.1-2,12.1,12.1,0,0,0,.5,1.4C1331.2,666.3,1330.8,666.4,1330.5,666.5Z" fill="#dcbf30"/><path d="M1332.3,669c-.9-.2-1-.5-.9-2.1Z" fill="#dcbf30"/><path d="M1340.2,614.5v.9l-.6,4.6h0c0-.3-.1-.6-.1-.8a31.8,31.8,0,0,1,.6-4.3c.1-.1.1-.2.1-.4Z" fill="#dcbf30"/><path d="M1346.2,636.3c-.1-.1-.2-.1-.2-.2a6.2,6.2,0,0,1-.3-3.8,14.4,14.4,0,0,0,.5,4.1Z" fill="#dcbf30"/><path d="M1338.7,652a11.1,11.1,0,0,1,2.9-1.3A4.9,4.9,0,0,1,1338.7,652Z" fill="#dcbf30"/><path d="M1356.8,648.7c-.1,0-.3-.1-.3-.2a5,5,0,0,1,.5-3.4h.1a7.1,7.1,0,0,0-.3,3.8Z" fill="#dcbf30"/><path d="M1361.1,671.1c-.7.7-1.4,1.6-2.6,1.4l1.3-.7a9.4,9.4,0,0,0,1.2-.9Z" fill="#dcbf30"/><path d="M1351.6,689.3l-1.3-1.1,1.4-.2Z" fill="#dcbf30"/><path d="M1342.4,617.2a.4.4,0,0,0-.1.3c-.5.9-.9,1.9-1.3,2.8l-.3.4h0l.3-1.1a9.5,9.5,0,0,1,1.4-2.4Z" fill="#dcbf30"/><path d="M1336.1,651.8l-.2-1h1.1l-.7,1Z" fill="#dcbf30"/><path d="M1360.2,654.4l-.9-2.7A4.2,4.2,0,0,1,1360.2,654.4Z" fill="#dcbf30"/><path d="M1355.3,683.4l-.7.9v-1.4Z" fill="#dcbf30"/><path d="M1354.4,640.7v-.6a6.8,6.8,0,0,1,1.2-2.4,15.7,15.7,0,0,0-1.2,3Z" fill="#dcbf30"/><path d="M1339.3,606.8a12.8,12.8,0,0,1,1.5-2.5h.2l-1.7,2.4Z" fill="#dcbf30"/><path d="M1338.2,609.3l-1,2.5a4.6,4.6,0,0,1,1-2.5Z" fill="#dcbf30"/><path d="M1352.4,606.3c.8-.6.9-.7,1.6-.6s-.3.5-.7.3S1352.7,606.2,1352.4,606.3Z" fill="#dcbf30"/><path d="M1339.3,606.8l-.3,1a10.9,10.9,0,0,0-.8,1.5h0a1.7,1.7,0,0,1,.1-.7l1-1.8Z" fill="#dcbf30"/><path d="M1346.2,636.4l1.1,2.2a5.5,5.5,0,0,1-1.1-2.3Z" fill="#dcbf30"/><path d="M1364.6,676l.6.6.7,1.2h-.1l-1.2-2Z" fill="#dcbf30"/><path d="M1356.8,648.8l1.5,1.7h0a3.6,3.6,0,0,1-1.5-1.7Z" fill="#dcbf30"/><path d="M1352.1,685.8l-.4-.8h.8l-.2.7Z" fill="#dcbf30"/><path d="M1295.3,621.7c.1,0,.2-.1.3,0h.4v.2h-.9Z" fill="#dcbf30"/><path d="M1348.1,640h.7l-.2.8-.5-.7Z" fill="#dcbf30"/><path d="M1333.7,672.3l-.4-.7h.1c.3.1.3.4.5.7Z" fill="#dcbf30"/><path d="M1350.8,609.2l.7-1h.1l-.7,1Z" fill="#dcbf30"/><path d="M1332.7,669.9l.4.8c-.6-.1-.6-.4-.5-.8Z" fill="#dcbf30"/><path d="M1363.5,673.9l-.9-1.2h0a4.4,4.4,0,0,1,.8,1.1Z" fill="#dcbf30"/><path d="M1352.2,607.5l.6-.7h.1l-.6.7Z" fill="#dcbf30"/><path d="M1298.3,632.3c.2-.4.4-.4.5-.2s0,.2,0,.2Z" fill="#dcbf30"/><path d="M1364.2,675.1a1.5,1.5,0,0,1-.7-1.2h-.1l.8,1.2Z" fill="#dcbf30"/><path d="M1281.1,603.5c-.2.1-.3.2-.4.1s-.1-.1-.2-.2l.2-.2Z" fill="#dcbf30"/><path d="M1346.3,630.1l-.3.9h-.1l.2-.9Z" fill="#dcbf30"/><path d="M1336.2,615.5l-.2.8h-.1l.2-.9Z" fill="#dcbf30"/><path d="M1335.5,618.6v-1.2h.2c-.1.3-.1.7-.2,1.1Z" fill="#dcbf30"/><path d="M1332.8,644.5l-.6.2C1332.2,644.2,1332.2,644.2,1332.8,644.5Z" fill="#dcbf30"/><path d="M1348.1,640l-.5-.6h.2l.3.7Z" fill="#dcbf30"/><path d="M1294.2,616.4h-.3c-.1,0-.1-.1-.2-.2h.2C1294,616.1,1294.1,616.3,1294.2,616.4Z" fill="#dcbf30"/><path d="M1358.3,650.5l.6.5h-.2a1,1,0,0,1-.4-.7Z" fill="#dcbf30"/><path d="M1342.8,616.3l.5-.7h0c-.1.3-.2.6-.5.7Z" fill="#dcbf30"/><path d="M1362.3,671.9l.3.9h0c-.1-.2-.4-.4-.3-.8Z" fill="#dcbf30"/><path d="M1342.8,616.3a3.6,3.6,0,0,0-.4.9h0l.4-.9Z" fill="#dcbf30"/><path d="M1364.2,675.1a5.9,5.9,0,0,0,.4.8h0a5.9,5.9,0,0,1-.4-.8Z" fill="#dcbf30"/><path d="M1357.1,645.1l.2-.6h.1l-.3.5Z" fill="#dcbf30"/><path d="M1312.3,639.5v.5h-.1v-.5Z" fill="#dcbf30"/><path d="M1346.2,628.8h.5v.2h-.5Z" fill="#dcbf30"/><path d="M1357.4,635.6l.2-.2h.1l-.2.2a.1.1,0,0,0-.1.1Z" fill="#dcbf30"/><path d="M1377.9,693.8h-.3a1.5,1.5,0,0,1-.4-1.4c0-.2.1-.5.1-.7a2.8,2.8,0,0,1-.6-3.3l.3-.4.8-.7c.8-.7,1.7-.4,2,.7a1.9,1.9,0,0,1,.1.8h-.7c-.1-.3-.1-.8-.5-.8a.6.6,0,0,0-.8.4l-.2.3c-.6.8-.5,1.4.1,2.3a6.1,6.1,0,0,0,.7-1l.4-.3.3.2c.3.2.2.4,0,.6l-.9,1.2-.2.4a1.1,1.1,0,0,0,0,1.1c.1.1.1.3.2.5Z" fill="#dcbf30"/><path d="M1359.6,688.8a2.7,2.7,0,0,1-2.3,0,1.3,1.3,0,0,1-.6-2,1.7,1.7,0,0,1,1.2-.8c.1.3.3.6-.1,1s-.4.5-.3.6a.9.9,0,0,0,.7.5,2,2,0,0,0,2.1-.8.9.9,0,0,1,1.1-.3.1.1,0,0,0,.1.1,1.9,1.9,0,0,1-1.1,1.4l-.7.3Z" fill="#dcbf30"/><path d="M1361.1,705.3c-.1-.2.1-.3.3-.4l1.4-1,.4-.2.6-.4a.6.6,0,0,1,.8.1h0a.7.7,0,0,1-.3.8,5,5,0,0,0-1.2.8h0l-1.4.8a.7.7,0,0,1-.6.1Z" fill="#dcbf30"/><path d="M1377.9,693.8l.4-.3,1-.8.5.3-.9,1.2-.4.3-1.2,2.1-.4-.7.5-1.2Z" fill="#dcbf30"/><path d="M1368.8,705.3a1.1,1.1,0,0,1-.5,1.3,1.4,1.4,0,0,1-2-.6l.3-.3h.3c.8.3.8.3,1.3-.5l.3-.2Z" fill="#dcbf30"/><path d="M1368.6,681.2l-1.3.4c.1-.8.6-1,1.8-.8l-.3.3Z" fill="#dcbf30"/><path d="M1304.4,629.3c-.3.1-.4.5-.7.3S1303.9,628.9,1304.4,629.3Z" fill="#dcbf30"/><path d="M1294,609.5c.2-.3.5-.2,1-.2S1294.4,609.7,1294,609.5Z" fill="#dcbf30"/><path d="M1305.3,629.8l.9.2C1305.8,630.3,1305.7,630.3,1305.3,629.8Z" fill="#dcbf30"/><path d="M1298.2,618.8c-.1.5-.1.5-.6.2A.5.5,0,0,1,1298.2,618.8Z" fill="#dcbf30"/><path d="M1276.4,597l-.5-.2a.3.3,0,0,0,.1-.2l.5.2Z" fill="#dcbf30"/><path d="M1286.3,600.4v-.5h.2v.4Z" fill="#dcbf30"/><path d="M1293.6,609.9l-.2.2c-.1,0-.1-.1-.2-.2h.4Z" fill="#dcbf30"/><path d="M1289.1,602.8h0Z" fill="#dcbf30"/><path d="M1311.8,640.4l.2.3h0l-.3-.2Z" fill="#dcbf30"/><path d="M1276.9,595.2l.5.2C1277.1,595.6,1276.9,595.6,1276.9,595.2Z" fill="#dcbf30"/><path d="M1410.1,637.3a2.5,2.5,0,0,0-.2-4,1.8,1.8,0,0,1,1.8,1.6A2.1,2.1,0,0,1,1410.1,637.3Z" fill="#dcbf30"/><path d="M1376.4,686.4v-.8a.8.8,0,0,0,1.1-.1c.3-.3.3-.3.8,0S1377.4,686.7,1376.4,686.4Z" fill="#dcbf30"/><path d="M1375.8,693.8a1.4,1.4,0,0,1,0-1.4c.1-.2,0-.3,0-.5l.4-.8a2.9,2.9,0,0,1,0,2.4C1376.2,693.6,1376,693.7,1375.8,693.8Z" fill="#dcbf30"/><path d="M1377,687.9l-.3.4h-.2c-.1-.2,0-.4,0-.6S1377,687.6,1377,687.9Z" fill="#dcbf30"/><path d="M1363,685.1c.2.2.2.3.1.5a3.6,3.6,0,0,0-.4.9,1.2,1.2,0,0,1-1,.3h-2.4l-.3-.5c.1-.3.2-.5.5-.4l1.2.2c.7.1,1.4.1,1.8-.7Z" fill="#dcbf30"/><path d="M1358.1,684.4h.7c.1.6.1,1.2.2,1.8V688h-.7l-.3-3.2C1358,684.6,1358.1,684.5,1358.1,684.4Z" fill="#dcbf30"/><path d="M1377.8,698.4c1,.1,1.6.6,1.7,1.3s-.4,1.3-1.3,1.6l-.2-.6h.1c.7-.7.7-.7-.1-1.4S1377.8,698.7,1377.8,698.4Z" fill="#dcbf30"/><path d="M1361.4,681.9c.1.1.2.2.2.3v3.6h-.9V682h.7Z" fill="#dcbf30"/><path d="M1363.4,684.2l.4.3c-.1.4-.4.7-.8.6l-1.2-.4v-.8Z" fill="#dcbf30"/><path d="M1363.2,703.7l-.4.2-.4-.2a10.3,10.3,0,0,0-.4-1.4h.9A2.8,2.8,0,0,1,1363.2,703.7Z" fill="#dcbf30"/><path d="M1360.1,702.2l-.6-.3a1,1,0,0,0,.1-.3l.7.4Z" fill="#dcbf30"/><path d="M1309.6,628.9v-6.3l-5.2,2.7a10.9,10.9,0,0,1-.1-1.8v-3.4c0-1.9-.1-3.7-.1-5.6s0-2.4,0-3.6-.1-3.7-.1-5.5v-2a8.1,8.1,0,0,0-.1-1.5c2,.9,3.8,2,5.8,2.9a6.9,6.9,0,0,0,.1-2c0-.6.1-1.3.1-1.9v-2.1l20,12.1c-1.7,1.2-3.6,2.1-5.4,3.3a12.2,12.2,0,0,0,2.6,1.6l2.6,1.6c0,.3-.3.4-.5.5l-3.5,2-9.1,5.1-6.3,3.5Zm-4.7-25.3c-.1,7-.1,13.8-.2,20.6h.2l4.4-2.4a.6.6,0,0,0,.3-.6v-3.4a1.3,1.3,0,0,0-.1-.6l-.7.3v-7l.8.5,3.7,2.2c.5.3.9.4,1.3,0l1.9-1,1.5-.9Zm18.8,11.1-3.9,2.2.7.6-6,3.4a4.5,4.5,0,0,1-.1-1.1c0-1.5,0-2.9.1-4.4a.8.8,0,0,0-.4-.7l-3.2-1.9h-.3c-.2,2.3-.3,14.2-.1,14.9h.3l17.4-9.7h.1Zm4.8-3.7c-.2-.2-.3-.3-.5-.3l-17-10.2h-.2a.1.1,0,0,1-.1.1c0,1.6-.1,3.3-.1,5a.7.7,0,0,0,.4.6l1.8,1a9.5,9.5,0,0,0,1.7,1l.2-.9,5.9,3.6-.6.4-4.1,2.3c-.4.1-.5.4-.5.8s0,2.2-.1,3.4a4.3,4.3,0,0,1,.1.5Z" fill="#dcbf30"/><path d="M1526.6,722.3c1.6,6.5,3.1,13.1,4.7,19.6H1177.7c1-4.1,1.9-8.2,2.9-12.3.5-2.2,2.2-5.6,1.6-7.8l-5.1-21.4q-6-25-11.9-50.2c8.6-.5,17.7-1,25.9-4.2,20.7-8.1,35.1-30.3,47.5-47.7s23.4-36.4,38.5-51.7,35.1-27.1,58-29.9a115.6,115.6,0,0,1,62.9,10.4c41,19.6,64,59.7,94.5,91.3a156.2,156.2,0,0,0,22.8,20.2,68.7,68.7,0,0,0,13.1,7.6c1.9.9,15,5.5,15,5.7l-16.8,70.4Z" fill="none" stroke="#231f20" stroke-linejoin="bevel" stroke-width="0.82"/><path d="M1190.1,418.6c-1.6,6.5-3.1,13.1-4.7,19.6H1539c-1-4.1-1.9-8.2-2.9-12.3-.5-2.1-2.1-5.6-1.6-7.8l5.1-21.3,12-50.3c-8.7-.5-17.8-1-26-4.2-20.7-8.1-35.1-30.2-47.5-47.6s-23.4-36.5-38.5-51.8-35.1-27-58-29.9a115.6,115.6,0,0,0-62.9,10.4c-41,19.6-64,59.7-94.5,91.4a161.6,161.6,0,0,1-22.8,20.1,75,75,0,0,1-13.1,7.7c-1.9.8-15,5.4-15,5.6l16.8,70.4Z" fill="none" stroke="#231f20" stroke-linejoin="bevel" stroke-width="0.82"/><g clip-path="url(#clip-path-7)"><rect x="539.2" y="61.6" width="619.5" height="827.96" fill="#fff"/></g><path d="M859.9,799.3h254.5V345.9c0-1.1-7-2.3-8.2-2.7-11-3.4-20.6-8.6-28.2-17.3-13.8-15.7-18.8-37.4-20.8-57.7-4.2-42.6-.4-86.7,4.7-129,.1-.6,1-6.9.8-7l-2.2-.6-13.3-3.6-46.9-12.6-44.4-11.9-10.2-2.8c-2-.5-8,6.4-10,7.8-17.6,13.2-40.7,13.2-61.8,13.2s-43.9,1.4-65.3-2.5a58.6,58.6,0,0,1-28.3-13.7c-3.2-2.8-4.2-5.3-8.2-4.3l-13.7,3.7-91.2,24.6-9.8,2.6c-.9.3.8,9.8,1,11.2,1.2,11,2.3,22,3.2,33.1,1.7,21.8,2.5,43.7,2.3,65.5s-1.5,42.6-9.2,62.2c-3.8,9.6-9.3,18.8-16.8,25.9s-18.3,11.6-28.8,14.5c-2.2.6-3.7.1-3.7,2.2V793.4c0,.7-.3,5.9.3,5.9H859.9Z" fill="none" stroke="#231f20" stroke-linejoin="bevel" stroke-width="0.82"/><path id="Leaf_LL" data-name="Leaf LL" d="M1346.5,373.6l-41.7-43.7,16,3.3h2a1.5,1.5,0,0,0,1.1-.4h.2a2.4,2.4,0,0,0,.6-1.1l2.2-7.7,13.2,15.2,1.9,1.2a2.1,2.1,0,0,0,1.1.4h.3l14.2,32.8h-10.3" fill="#e13026"/><path id="Leaf_DL" data-name="Leaf DL" d="M1302.3,355.8l7-3.4.4-.3h0a1.5,1.5,0,0,0,.4-1.1v-.3c0-.2,0-.3-.1-.4l-5.3-20.4,41.7,43.8h-23.2" fill="#b62325"/><path id="Leaf_DM" data-name="Leaf DM" d="M1343.4,340.8h.1a4.1,4.1,0,0,0,.7-1.1l.3-.7c0-.2.1-.4.1-.6v-.7l-5.7-33.3,6.3,3.6,2.3,1.2a4.2,4.2,0,0,0,1.6.4h.9l.7-.4h0a4.4,4.4,0,0,0,1.6-1.7l.6-1.4,9.4-18.7.3,86.4h-5Z" fill="#b62325"/><path d="M1422.5,355.8l-20.8,17.8h-20.6l39-43.7-5,18.9a5.5,5.5,0,0,0-.2,1.8v.4h0a4,4,0,0,0,1.2,1.6l.7.5Z" fill="#b62325"/><path d="M1420.1,329.9l-39,43.7h-18.5l-.3-86.4,10.7,20.9a3.1,3.1,0,0,0,.7.9h.2a3.3,3.3,0,0,0,1.7.4h1.1l1.6-.5,7.8-4.2-5.8,32.1c0,.2-.1.5,0,.7v1.4a2.1,2.1,0,0,0,.5,1.3h.2l.8.5h.4a2.3,2.3,0,0,0,1.6-.6l1.2-1,.3-.2,12.8-15.1,1.8,7a4.9,4.9,0,0,0,1.1,2,1.2,1.2,0,0,0,1,.5h1.8Z" fill="#e13026"/><line x1="1362.5" y1="375.5" x2="1362.5" y2="336.2" fill="none" stroke="#fff" stroke-miterlimit="10" stroke-width="1.11"/><circle cx="1362.5" cy="327.3" r="8.8" fill="none" stroke="#fff" stroke-miterlimit="10" stroke-width="1.11"/><line x1="1334" y1="373.6" x2="1334" y2="365.3" fill="none" stroke="#fff" stroke-miterlimit="10" stroke-width="1.11"/><circle cx="1334" cy="356.5" r="8.8" fill="none" stroke="#fff" stroke-miterlimit="10" stroke-width="1.11"/><line x1="1390.8" y1="373.6" x2="1390.8" y2="360.5" fill="none" stroke="#fff" stroke-miterlimit="10" stroke-width="1.11"/><circle cx="1390.8" cy="351.7" r="8.8" fill="none" stroke="#fff" stroke-miterlimit="10" stroke-width="1.11"/><path d="M1325,376.2a5.4,5.4,0,0,1,3.8-1.5,5.1,5.1,0,0,1,3.7,1.5,4.8,4.8,0,0,1,1.5,3.6,4.8,4.8,0,0,1-1.3,3.4l1,1.2-1.2,1-1-1.2a5,5,0,0,1-2.7.7,5.3,5.3,0,0,1-3.8-1.4,5,5,0,0,1-1.5-3.7A4.8,4.8,0,0,1,1325,376.2Zm1.3,6.1a3.3,3.3,0,0,0,2.5,1,2.9,2.9,0,0,0,1.6-.4l-1.4-1.6,1.2-1,1.4,1.6a3.8,3.8,0,0,0,.7-2.1,3.4,3.4,0,0,0-1.1-2.5,3,3,0,0,0-2.4-1,3.4,3.4,0,0,0-3.5,3.5A3.2,3.2,0,0,0,1326.3,382.3Z" fill="#b62325"/><path d="M1335.6,374.8h1.8v6c0,1.7.8,2.5,2.2,2.5s2.3-.8,2.3-2.5v-6h1.7V381a3.6,3.6,0,0,1-1.1,2.9,3.9,3.9,0,0,1-2.9,1,4.1,4.1,0,0,1-2.9-1,4,4,0,0,1-1.1-2.9Z" fill="#b62325"/><path d="M1345.8,384.8v-10h1.8v10Z" fill="#b62325"/><path d="M1349.9,384.8v-10h3.5a5.5,5.5,0,0,1,3.9,1.4,5.6,5.6,0,0,1,0,7.2,5.3,5.3,0,0,1-3.9,1.4Zm1.8-1.6h1.6c2.5,0,3.6-1.3,3.6-3.4s-1.1-3.3-3.6-3.3h-1.6Z" fill="#b62325"/><path d="M1360.3,384.8v-10h3.6a5.2,5.2,0,0,1,3.8,1.4,5.3,5.3,0,0,1,0,7.2,5.2,5.2,0,0,1-3.8,1.4Zm1.8-1.6h1.7c2.4,0,3.5-1.3,3.5-3.4s-1.1-3.3-3.6-3.3h-1.6Z" fill="#b62325"/><path d="M1370.8,384.8v-10h1.8v10Z" fill="#b62325"/><path d="M1376.8,384.8v-8.3h-2.7v-1.7h7.1v1.7h-2.7v8.3Z" fill="#b62325"/><path d="M1390.9,376.5l-1.2,1a3.4,3.4,0,0,0-2.7-1.2,3.2,3.2,0,0,0-2.5,1,3.3,3.3,0,0,0-1,2.5,3.4,3.4,0,0,0,3.5,3.5,3.4,3.4,0,0,0,2.7-1.2l1.2,1a5.1,5.1,0,0,1-3.9,1.9,5.2,5.2,0,0,1-3.8-1.5,5,5,0,0,1-1.5-3.7,5.1,5.1,0,0,1,1.5-3.7,5.6,5.6,0,0,1,3.8-1.4A4.8,4.8,0,0,1,1390.9,376.5Z" fill="#b62325"/><path d="M1392.4,384.8v-10h1.8v3.9h4.7v-3.9h1.8v10h-1.8v-4.5h-4.7v4.5Z" fill="#b62325"/><path d="M1335.5,389l-1.5,1.4a4.3,4.3,0,0,0-3.5-1.6,4.6,4.6,0,0,0-3.2,1.3,4.9,4.9,0,0,0-1.3,3.3,4.6,4.6,0,0,0,1.3,3.2,4.4,4.4,0,0,0,3.2,1.3,4.5,4.5,0,0,0,3.5-1.6l1.6,1.3a6.6,6.6,0,0,1-5.1,2.3,6.3,6.3,0,0,1-6.7-6.5,6.5,6.5,0,0,1,1.9-4.8,6.9,6.9,0,0,1,4.8-1.9A6.4,6.4,0,0,1,1335.5,389Z" fill="#231f20"/><path d="M1336.4,399.7l5.3-12.8h1.9l5.4,12.8h-2.4l-1.1-2.6h-5.6l-1.1,2.5Zm4.2-4.4h4.2l-2.1-5.1Z" fill="#231f20"/><path d="M1350.8,399.7V386.9h2l6.8,8.8v-8.8h2.2v12.7h-1.9l-6.9-9v9.1Z" fill="#231f20"/><path d="M1363.5,399.6l5.3-12.8h1.9l5.3,12.8h-2.4l-1-2.6h-5.7l-1,2.5Zm4.1-4.4h4.3l-2.2-5.2Z" fill="#231f20"/><path d="M1377.8,399.6V386.8h4.5a6.4,6.4,0,0,1,4.9,1.8,6,6,0,0,1,1.8,4.6,6.4,6.4,0,0,1-1.7,4.6,6.6,6.6,0,0,1-4.9,1.8Zm2.3-2.1h2.1c3.2,0,4.5-1.7,4.5-4.3s-1.4-4.3-4.5-4.3h-2.1Z" fill="#231f20"/><path d="M1389.4,399.5l5.3-12.7h1.9l5.3,12.7h-2.4l-1-2.5h-5.7l-1,2.5Zm4.1-4.4h4.3l-2.2-5.2Z" fill="#231f20"/><path d="M785.8,161.2c-2,.5-3.7,1.3-5.5.1a5.9,5.9,0,0,0-5-.6,12.5,12.5,0,0,1-5.1.1l-16-1.9a28.8,28.8,0,0,0-4.1-.2,4.3,4.3,0,0,0-2,.7.9.9,0,0,0,.1,1.6l1.7.4,24.7,3.6,2.4.4c.3.1.5.2.5.5a.7.7,0,0,1-.5.7l-.8.2a54.9,54.9,0,0,1-11.4,1c-12.2.4-24.2-1.1-36.1-3.2a241.5,241.5,0,0,1-25.2-5.7,87.6,87.6,0,0,1-22.4-9.8,78.2,78.2,0,0,1-11.2-9.5l-1.8-1.7a.6.6,0,0,1-.1-.6c.1-.3.4-.2.6-.2l1.5.5c5.9,2.8,12.1,4.4,18.4,6A531.9,531.9,0,0,0,756,156.4c4.4.6,8.8.9,13.2,1.3a95,95,0,0,1,14,2.3A4.1,4.1,0,0,1,785.8,161.2Z" fill="#e6e7e8"/><path d="M770.4,172.9l-2.2.6c-3.9,1-7.7,2.1-11.6,3a14.5,14.5,0,0,0-2.2.9c-.6.3-.7.7-.1,1.2a2.9,2.9,0,0,0,2,.7,8.6,8.6,0,0,0,2.8-.3l10.4-2.4a3.9,3.9,0,0,1,2.4,0c-.1.7-.6,1-1.1,1.3a12,12,0,0,1-4.5,1.5c-12.7,1.2-25.3,2.5-38,2.6-3.3,0-6.6.3-9.8.5a15.1,15.1,0,0,1-7-.9,2.6,2.6,0,0,0-2.3.1.9.9,0,0,1-.7.3c-.6.2-1.5.4-1.7-.2s.7-.8,1.2-1l.5-.2c.6-.2,1.2-.5,1.1-1.2s-.8-.6-1.3-.6l-6.6-.6a26.5,26.5,0,0,1-15.9-7.2l-.6-.6c-1.3-1.4-1.2-2,.5-2.7a18.1,18.1,0,0,1,11-1.3l5.8,1.6c5.5,1.4,11.1,1.8,16.6,2.3,8.3.9,16.6,1.6,24.8,3.2a42.1,42.1,0,0,0,14.6.3l9.8-1.2A2.1,2.1,0,0,1,770.4,172.9Z" fill="#e6e7e8"/><path d="M791.9,176.9a35.5,35.5,0,0,1-6.6,3.1c-3.4,1.6-6.9,3-10.4,4.4s-4.3,1.8-6.4,2.9c-.6.3-1.7.5-1.2,1.5s1.2.4,1.8.2l14.1-4.6a12.3,12.3,0,0,1,2.9-.7,1.4,1.4,0,0,1-1,.8,135.5,135.5,0,0,1-19.3,9l-18.2,6.9a62.3,62.3,0,0,1-13.4,3.2,21.8,21.8,0,0,0-4.4,1.1,8.9,8.9,0,0,1-6.4-.6l-4.5-2.3c-1.1-.6-1.2-.7-.5-1.8s2-2.7,2.9-4.1,1.8-1.6.7-2.9.1-.5.3-.6h.9a149.6,149.6,0,0,0,24.8-3.5c4.3-.8,8.5-1.8,12.8-2.8a25.4,25.4,0,0,0,6.5-2.4,13.3,13.3,0,0,1,5.2-1.7,42.7,42.7,0,0,0,11-3.5l4.1-1.7A4.4,4.4,0,0,1,791.9,176.9Z" fill="#e6e7e8"/><path d="M824.8,153.9a.8.8,0,0,1,.8.2,26.4,26.4,0,0,1,6.7,7.4,10.6,10.6,0,0,1,1.2,7.2,6.6,6.6,0,0,0,2,6.3c2,2,3.9,4,4.8,6.8a4,4,0,0,0,1.6,1.8,5.9,5.9,0,0,1,2.2,6.5,3.3,3.3,0,0,0,1.6,4.3l1.7,1.4c3.3,2.5,4.1,6.2,4.8,9.9a1.1,1.1,0,0,1-.4,1.2,6.3,6.3,0,0,1-4.9,1.7,2.9,2.9,0,0,1-2.4-2.3c-.8-3.6-2.7-6.5-4.7-9.5a10.7,10.7,0,0,1-1.9-6.9,3.9,3.9,0,0,0-.6-3,47.1,47.1,0,0,0-4.4-5.6,7,7,0,0,0-2.5-1.7,3.2,3.2,0,0,1-1.9-2.6l-1.2-5.6-.3-1.3c-.2-.7-.4-1.6-1.3-1.6s-1.2,1-1.3,1.8a12.9,12.9,0,0,1-.4,1.9c-.3,2.3-1.5.9-3.8,1.4a9.3,9.3,0,0,1-3.7.2c-3.8-.9-7.6.5-11.1-1.5s-12.1-3.4-14.9-3.5c-1.2-.1-1.4-.6-1-1.8,1.4-4.1,11.3-3.6,13.8-7,.6-.8,1.4-1.1,2-.1s1.1.7,1.8.4l.8-.3a9.2,9.2,0,0,1,6.3-.4l6,1.8,1.2.3c2.3.5,2.8.1,2.9-2.2s-.1-2.4,0-3.6A2.9,2.9,0,0,1,824.8,153.9Z" fill="#e6e7e8"/><path d="M797.2,186.1a6.4,6.4,0,0,1-2.9,2.6l-9.7,6.1-9.1,5.9c-.7.5-1.9,1.2-1.5,2.1s1.7.1,2.5-.2a44.3,44.3,0,0,0,9.4-4.9,132.9,132.9,0,0,1,14.1-9.4,3.3,3.3,0,0,1,2.7-.6c1,.3,1.2.9.4,1.5-3,2.4-6,4.9-9.9,5.9a15.9,15.9,0,0,0-6.4,3.4,84.2,84.2,0,0,1-9.4,7.3,60.7,60.7,0,0,1-9,5c-2.4,1-4.7,2.3-7.1,3.3a81,81,0,0,1-13.5,5c-1,.2-2.3.9-2.9-.1s.7-1.6,1.3-2.4a18,18,0,0,1,5.3-4.6c5.9-3.6,11.7-7.2,17.4-11.1a101.5,101.5,0,0,1,13.4-8.1c4.1-2.1,8.4-3.8,12.5-6A6.8,6.8,0,0,1,797.2,186.1Z" fill="#e6e7e8"/><path d="M796.7,206.5a6.3,6.3,0,0,0,2.4-1.4l13.3-11.3a5.3,5.3,0,0,1,3.6-1.3l-2.5,2.7a187.3,187.3,0,0,1-20.7,17.9,138.7,138.7,0,0,1-12.9,8.7,22.8,22.8,0,0,1-6.1,2.4c-.8.2-.9-.2-.7-.7v-.2a31,31,0,0,1,9-10.1,6.8,6.8,0,0,1,2.5-.9,2.7,2.7,0,0,0,1.9-1c2.6-3.7,6.2-6.6,9.6-9.6L808,191.1l1.5-1.2c.5-.5,1.1-.6,1.5-.2s.2.9-.2,1.3a31.9,31.9,0,0,1-4.2,4c-2.7,2.3-5.3,4.7-7.7,7.2a12.5,12.5,0,0,0-2.1,3A1.2,1.2,0,0,0,796.7,206.5Z" fill="#e6e7e8"/><path d="M820.7,200.5a5.8,5.8,0,0,1,.1,3.9c-.3,1.2-.7,2.3-.9,3.5s.5,1.6,1.7,1a3.9,3.9,0,0,0,1.8-2.2,16.7,16.7,0,0,1,2.5-4.3,2.7,2.7,0,0,1,1.1-1c.8-.3,1.4,0,1.2.9a12.1,12.1,0,0,1-.5,1.8,40.6,40.6,0,0,1-4.7,8.7l-6.5,9.4a5.8,5.8,0,0,1-1.8,2,1.3,1.3,0,0,1-2.1-1v-.3c1.2-7.6,2.9-15.2,7.5-21.8Z" fill="#e6e7e8"/><path d="M804.8,210.6a16,16,0,0,1-1,3.1c-.3.9-.7,1.7-1,2.6s-.4,1.2.2,1.5,1.1,0,1.5-.4l2.1-2.2a1.1,1.1,0,0,1,0,1.1,20.2,20.2,0,0,1-1.4,3,34.7,34.7,0,0,1-7.3,8.5l-.6.5c-.7.5-1.1.3-1.1-.5a9.1,9.1,0,0,1,.3-2.3,37.6,37.6,0,0,1,7.4-14.3A1.2,1.2,0,0,1,804.8,210.6Z" fill="#e6e7e8"/><path d="M826.6,221.1c-.2-.4-.3-.5-.3-.7-.4-3.3-.4-3.3,2.1-5.4l1.8-1.4c.2-.1.4-.4.7-.2a.5.5,0,0,1,.1.8A17.7,17.7,0,0,1,826.6,221.1Z" fill="#e6e7e8"/><path d="M813.4,205c-.4,1.4-1.4,2.3-2.1,3.7C811.1,206.3,811.7,205.3,813.4,205Z" fill="#e6e7e8"/><path d="M777.4,174.5l3.9-.3C779.7,175.6,778.9,175.7,777.4,174.5Z" fill="#e6e7e8"/><path d="M933.9,161.2c2,.5,3.7,1.3,5.5.1a5.7,5.7,0,0,1,4.9-.6,13,13,0,0,0,5.2.1l16-1.9a28.2,28.2,0,0,1,4.1-.2,4.8,4.8,0,0,1,2,.7.9.9,0,0,1-.2,1.6l-1.6.4L945.1,165l-2.4.4c-.3.1-.6.2-.5.5a.7.7,0,0,0,.5.7l.8.2a54.3,54.3,0,0,0,11.4,1c12.1.4,24.1-1.1,36.1-3.2a234.1,234.1,0,0,0,25.1-5.7,88.3,88.3,0,0,0,22.5-9.8,78.2,78.2,0,0,0,11.2-9.5,13.7,13.7,0,0,0,1.7-1.7.5.5,0,0,0,.2-.6c-.2-.3-.4-.2-.6-.2l-1.5.5c-5.9,2.8-12.2,4.4-18.4,6a531.9,531.9,0,0,1-67.5,12.8c-4.4.6-8.8.9-13.2,1.3a92.9,92.9,0,0,0-14,2.3A3.9,3.9,0,0,0,933.9,161.2Z" fill="#e6e7e8"/><path d="M949.3,172.9l2.2.6,11.5,3a15.7,15.7,0,0,1,2.3.9c.6.3.7.7.1,1.2a3.1,3.1,0,0,1-2.1.7,8.3,8.3,0,0,1-2.7-.3l-10.4-2.4a3.9,3.9,0,0,0-2.4,0c0,.7.5,1,1,1.3a13.1,13.1,0,0,0,4.6,1.5c12.6,1.2,25.3,2.5,38,2.6,3.3,0,6.5.3,9.8.5a15.1,15.1,0,0,0,7-.9,2.6,2.6,0,0,1,2.3.1.9.9,0,0,0,.6.3c.7.2,1.5.4,1.8-.2s-.7-.8-1.3-1l-.4-.2c-.6-.2-1.2-.5-1.1-1.2s.8-.6,1.3-.6l6.6-.6a26.5,26.5,0,0,0,15.9-7.2l.6-.6c1.2-1.4,1.2-2-.5-2.7a18.1,18.1,0,0,0-11-1.3l-5.9,1.6c-5.4,1.4-11,1.8-16.6,2.3-8.2.9-16.5,1.6-24.7,3.2a42.1,42.1,0,0,1-14.6.3l-9.8-1.2C950.7,172.5,950,172.2,949.3,172.9Z" fill="#e6e7e8"/><path d="M927.8,176.9a32.7,32.7,0,0,0,6.6,3.1c3.4,1.6,6.9,3,10.3,4.4s4.4,1.8,6.5,2.9c.6.3,1.7.5,1.2,1.5s-1.2.4-1.8.2l-14.1-4.6a12.3,12.3,0,0,0-2.9-.7,1.4,1.4,0,0,0,1,.8,135.5,135.5,0,0,0,19.3,9l18.2,6.9a62.3,62.3,0,0,0,13.4,3.2,21.8,21.8,0,0,1,4.4,1.1,8.9,8.9,0,0,0,6.4-.6l4.5-2.3c1.1-.6,1.2-.7.5-1.8s-2-2.7-3-4.1-1.8-1.6-.6-2.9-.1-.5-.3-.6h-.9a148.1,148.1,0,0,1-24.8-3.5c-4.3-.8-8.5-1.8-12.8-2.8a25.4,25.4,0,0,1-6.5-2.4,13.3,13.3,0,0,0-5.2-1.7,42.7,42.7,0,0,1-11-3.5l-4.1-1.7A4.4,4.4,0,0,0,927.8,176.9Z" fill="#e6e7e8"/><path d="M894.9,153.9a.8.8,0,0,0-.8.2,26.4,26.4,0,0,0-6.7,7.4,10.1,10.1,0,0,0-1.2,7.2,6.6,6.6,0,0,1-2,6.3c-2,2-3.9,4-4.8,6.8a4,4,0,0,1-1.6,1.8,5.9,5.9,0,0,0-2.2,6.5,3.3,3.3,0,0,1-1.6,4.3l-1.7,1.4c-3.4,2.5-4.1,6.2-4.8,9.9a1.1,1.1,0,0,0,.4,1.2,6.3,6.3,0,0,0,4.9,1.7,3,3,0,0,0,2.4-2.3c.8-3.6,2.7-6.5,4.7-9.5a10,10,0,0,0,1.8-6.9,4.5,4.5,0,0,1,.7-3,59.3,59.3,0,0,1,4.3-5.6,8.3,8.3,0,0,1,2.6-1.7,3.2,3.2,0,0,0,1.9-2.6l1.2-5.6a6.1,6.1,0,0,1,.3-1.3c.2-.7.4-1.6,1.3-1.6s1.2,1,1.3,1.8a12.5,12.5,0,0,0,.3,1.9c.4,2.3,1.6.9,3.9,1.4a9.2,9.2,0,0,0,3.7.2c3.8-.9,7.6.5,11.1-1.5s12.1-3.4,14.9-3.5c1.2-.1,1.4-.6,1-1.8-1.5-4.1-11.3-3.6-13.8-7-.6-.8-1.4-1.1-2-.1s-1.1.7-1.8.4l-.9-.3a8.8,8.8,0,0,0-6.2-.4l-6,1.8a5.3,5.3,0,0,1-1.2.3c-2.4.5-2.8.1-2.9-2.2v-3.6A2.9,2.9,0,0,0,894.9,153.9Z" fill="#e6e7e8"/><path d="M922.5,186.1a6.4,6.4,0,0,0,2.9,2.6l9.7,6.1,9.1,5.9c.7.5,1.9,1.2,1.5,2.1s-1.7.1-2.5-.2a44.3,44.3,0,0,1-9.4-4.9,134.2,134.2,0,0,0-14.2-9.4,3,3,0,0,0-2.6-.6c-1,.3-1.2.9-.4,1.5,3,2.4,6,4.9,9.9,5.9a15.9,15.9,0,0,1,6.4,3.4,84.2,84.2,0,0,0,9.4,7.3,60.7,60.7,0,0,0,9,5c2.4,1,4.7,2.3,7.1,3.3a81,81,0,0,0,13.5,5c1,.2,2.3.9,2.9-.1s-.8-1.6-1.3-2.4a19.3,19.3,0,0,0-5.3-4.6c-5.9-3.6-11.7-7.2-17.4-11.1a101.5,101.5,0,0,0-13.4-8.1c-4.1-2.1-8.5-3.8-12.5-6A7.6,7.6,0,0,0,922.5,186.1Z" fill="#e6e7e8"/><path d="M923,206.5a6.3,6.3,0,0,1-2.4-1.4l-13.3-11.3a5.4,5.4,0,0,0-3.7-1.3l2.5,2.7a198,198,0,0,0,20.8,17.9,151.9,151.9,0,0,0,12.8,8.7,23.4,23.4,0,0,0,6.2,2.4c.8.2.8-.2.6-.7v-.2a32.2,32.2,0,0,0-9-10.1,8.4,8.4,0,0,0-2.5-.9,2.7,2.7,0,0,1-1.9-1c-2.6-3.7-6.2-6.6-9.6-9.6l-11.8-10.6-1.5-1.2a1.1,1.1,0,0,0-1.6-.2c-.6.4-.1.9.2,1.3a40.7,40.7,0,0,0,4.3,4c2.7,2.3,5.3,4.7,7.7,7.2a12.5,12.5,0,0,1,2.1,3A1.2,1.2,0,0,1,923,206.5Z" fill="#e6e7e8"/><path d="M899,200.5a5.3,5.3,0,0,0-.1,3.9c.3,1.2.7,2.3.9,3.5s-.5,1.6-1.7,1a3.9,3.9,0,0,1-1.8-2.2,20.2,20.2,0,0,0-2.5-4.3,2.7,2.7,0,0,0-1.1-1c-.8-.3-1.4,0-1.3.9l.6,1.8a40.6,40.6,0,0,0,4.7,8.7l6.5,9.4a5.8,5.8,0,0,0,1.8,2,1.3,1.3,0,0,0,2.1-1v-.3c-1.2-7.6-3-15.2-7.5-21.8Z" fill="#e6e7e8"/><path d="M914.9,210.6a16,16,0,0,0,1,3.1c.3.9.7,1.7,1,2.6s.4,1.2-.2,1.5-1.1,0-1.5-.4l-2.2-2.2a1.4,1.4,0,0,0,.1,1.1,20.2,20.2,0,0,0,1.4,3,36.5,36.5,0,0,0,7.2,8.5c.3.1.5.4.7.5s1.1.3,1.1-.5a9.1,9.1,0,0,0-.3-2.3,37.6,37.6,0,0,0-7.4-14.3A1.2,1.2,0,0,0,914.9,210.6Z" fill="#e6e7e8"/><path d="M893.1,221.1l.3-.7c.4-3.3.4-3.3-2.1-5.4l-1.8-1.4c-.2-.1-.5-.4-.8-.2a.8.8,0,0,0-.1.8A19.2,19.2,0,0,0,893.1,221.1Z" fill="#e6e7e8"/><path d="M906.2,205c.4,1.4,1.5,2.3,2.2,3.7C908.6,206.3,908,205.3,906.2,205Z" fill="#e6e7e8"/><path d="M942.3,174.5l-3.9-.3C940,175.6,940.8,175.7,942.3,174.5Z" fill="#e6e7e8"/><path d="M791.7,253.7V222.1h5.4L815.2,244V222.1h5.9v31.6h-5l-18.5-22.3v22.3Z" fill="#dcbf30"/><path d="M826,253.7l14.3-31.6h5.2l14.3,31.6h-6.5l-2.8-6.3H835.3l-2.8,6.3Zm11.2-11h11.4l-5.7-12.8Z" fill="#dcbf30"/><path d="M864.7,253.7V222.1h5.2l12.3,17.7,12.2-17.7h5.2v31.6h-5.8V232.3L882.2,249l-11.7-16.6v21.3Z" fill="#dcbf30"/><path d="M907.2,253.7V222.1H929v5.1H913.3v7.6H928v5.1H913.3v8.7h16v5.1Z" fill="#dcbf30"/><path d="M851.2,377.3c0,16.6-.2,27.1-.6,31.9a49.5,49.5,0,0,1-17.5,32.9c-10.1,8.9-21.9,13.2-36,13.2s-26-4.3-36.2-13.2a49.6,49.6,0,0,1-17.2-32.9c-.4-4.8-.6-15.3-.6-31.9s.2-27,.6-31.7a49.8,49.8,0,0,1,17.2-33c10.2-8.8,22.2-13.1,36.2-13.1s25.9,4.3,36,13.1,16,19.8,17.5,33C851,350.3,851.2,360.9,851.2,377.3Zm-26.3,0c0-15.3-.2-24.8-.4-28.5a25.3,25.3,0,0,0-9-17.6,26,26,0,0,0-18.4-7.2,26.8,26.8,0,0,0-18.5,7.2,25.4,25.4,0,0,0-8.8,17.6c-.2,3.7-.4,13.2-.4,28.5s.2,25.4.6,29.1c1.1,14,12.7,24.3,27.1,24.3s26.1-10.3,27.2-24.3Q824.9,400.9,824.9,377.3Z" fill="#dcbf30"/><path d="M976.6,377.3c0,16.6-.2,27.1-.6,31.9a49.5,49.5,0,0,1-17.5,32.9c-10.1,8.9-22,13.2-36,13.2s-26-4.3-36.2-13.2a49.6,49.6,0,0,1-17.2-32.9c-.4-4.8-.6-15.3-.6-31.9s.2-27,.6-31.7a49.8,49.8,0,0,1,17.2-33c10.2-8.8,22.2-13.1,36.2-13.1s25.9,4.3,36,13.1,16,19.8,17.5,33C976.4,350.3,976.6,360.9,976.6,377.3Zm-26.3,0c0-15.3-.2-24.8-.4-28.5a25.3,25.3,0,0,0-9-17.6,26,26,0,0,0-18.4-7.2,26.8,26.8,0,0,0-18.5,7.2,25.4,25.4,0,0,0-8.8,17.6c-.2,3.7-.5,13.2-.5,28.5s.3,25.4.7,29.1c1.1,14,12.7,24.3,27.1,24.3s26.1-10.3,27.2-24.3Q950.3,400.9,950.3,377.3Z" fill="#dcbf30"/><path d="M859.8,165.9a12.9,12.9,0,1,1,12.9-12.8A12.8,12.8,0,0,1,859.8,165.9Zm0-23A10.2,10.2,0,1,0,870,153.1,10.2,10.2,0,0,0,859.8,142.9Z" fill="#231f20"/><path d="M851.6,177.9A12.9,12.9,0,1,1,864.5,165,12.8,12.8,0,0,1,851.6,177.9Zm0-23a10.2,10.2,0,0,0,0,20.3,10.2,10.2,0,1,0,0-20.3Z" fill="#231f20"/><path d="M868.1,177.9A12.9,12.9,0,1,1,880.9,165,12.9,12.9,0,0,1,868.1,177.9Zm0-23A10.2,10.2,0,1,0,878.2,165,10.1,10.1,0,0,0,868.1,154.9Z" fill="#231f20"/><path d="M847,181.6a1.4,1.4,0,1,1,2.8,0v3a1.9,1.9,0,0,1-.2.8h.4v.8h-.2c-.4,0-.6-.1-.7-.4h-.7a1.3,1.3,0,0,1-1.4-1.4Zm1,3c0,.5.1.6.4.6s.5-.1.5-.6v-3.1c0-.4-.2-.5-.5-.5s-.4.1-.4.5Z" fill="#231f20"/><path d="M851.3,180.2v4.5c0,.4.1.5.4.5s.5-.1.5-.5v-4.5h.9v4.4a1.3,1.3,0,0,1-1.4,1.5c-.9,0-1.3-.6-1.3-1.5v-4.4Z" fill="#231f20"/><path d="M853.7,180.2h.9V186h-.9Z" fill="#231f20"/><path d="M855.3,180.2h1.4c.9,0,1.3.5,1.3,1.4v2.9c0,1-.4,1.5-1.3,1.5h-1.4Zm.9.8v4.2h.5c.3,0,.4-.2.4-.6v-3c0-.4-.1-.6-.4-.6Z" fill="#231f20"/><path d="M858.6,180.2h1.5c.9,0,1.3.5,1.3,1.4v2.9c0,1-.4,1.5-1.3,1.5h-1.5Zm.9.8v4.2h.5c.3,0,.5-.2.5-.6v-3c0-.4-.2-.6-.5-.6Z" fill="#231f20"/><path d="M862,180.2h.9V186H862Z" fill="#231f20"/><path d="M863.3,180.2h2.8v.8h-.9v5h-1v-5h-.9Z" fill="#231f20"/><path d="M869.1,183.8v.8c0,.9-.4,1.4-1.3,1.4a1.3,1.3,0,0,1-1.4-1.4v-3a1.3,1.3,0,0,1,1.4-1.5c.9,0,1.3.6,1.3,1.5v.5h-.8v-.6c0-.4-.2-.5-.5-.5s-.5.1-.5.5v3.1c0,.5.2.6.5.6s.5-.1.5-.6v-.8Z" fill="#231f20"/><path d="M870.6,186h-.9v-5.8h.9v2.5h1v-2.5h1V186h-1v-2.5h-1Z" fill="#231f20"/><path d="M303,793.4H556.5c1.9,0,1-2.8,1-4.4V338.2c0,.2-13.9-.5-15.1-.6a48.2,48.2,0,0,1-15.3-4.1c-20-9.6-29.3-30.4-32.9-51.3-7.4-43.5,1.4-89.1,10.2-131.7.3-1.5.7-3,1-4.5s-2.8-1.2-3.4-1.4l-7.6-2.2-15.3-4.6-31-9.3c-21.1-6.3-42.2-12.4-63.1-19.2-.3,1.8-.6,3.7-1,5.5-3.7,21.1-10.2,41-25.4,56.7s-37.5,20.3-58.5,20.2-42.5-8.1-56.4-24.2-19.1-37.4-22.7-58.2c-29.9,9.7-60.2,18.4-90.3,27.4l-15.4,4.6-8.2,2.4c-1.7.5-6.7,1.1-6.3,3,2.2,10.7,4.4,21.5,6.3,32.4,3.8,22.1,6.9,44.5,7.2,67s-1.6,43.7-11.2,63.1c-4.6,9.4-11.4,17.3-20.6,22.5s-20.2,6.4-30.9,6.5c-2.7,0-3.1-.8-3.1,1.4V787.5c0,.7-.3,5.9.3,5.9H303Z" fill="none" stroke="#231f20" stroke-linejoin="bevel" stroke-width="0.82"/></svg>