<svg id="Layer_1" data-name="Layer 1" xmlns="http://www.w3.org/2000/svg" width="2.7in" height="2.7in" viewBox="0 0 197 197"><title>ac-logo</title><path d="M184.7,34c.6,0,.6,0,.6.6V59.4H185a37.7,37.7,0,0,0-15.8,3.4,35.7,35.7,0,0,0-18.7,19.8,40.4,40.4,0,0,0-2.2,22.1,37.3,37.3,0,0,0,8.5,18.4,36.1,36.1,0,0,0,25.4,12.8l3.1.2v27a69.9,69.9,0,0,1-15.3-1.6,65,65,0,0,1-16-5.8,63.4,63.4,0,0,1-15.9-11.7l-2.4-2.5h0v.3l8,18.7c.2.5.2.5-.3.5H113.9a.5.5,0,0,1-.6-.4l-9.6-25c-.1-.3-.2-.4-.6-.4H51.8a.5.5,0,0,0-.6.4l-9.6,25a.6.6,0,0,1-.6.4H11.7c-.2,0,7.3-17.1,10.8-25.5a.9.9,0,0,1,.5-.6q10.7-4.8,21.6-9,12.8-5,25.9-9.3,10.6-3.5,21.3-6.6t18.9-5.1l7.9-2c.2-.1.4-.1.4-.4a66.4,66.4,0,0,1,2-20.5,63.3,63.3,0,0,1,36.2-42.1,68.5,68.5,0,0,1,23.1-5.5,6.7,6.7,0,0,0,1.7-.2h.8A3.6,3.6,0,0,0,184.7,34Z" fill="#fff"/><path d="M184.7,34a3.6,3.6,0,0,1-1.7,0Z" fill="#fff"/><path d="M135.6,141.3h0Z" fill="#fff"/><path d="M77.4,67.4l-1.6,4.2L64.7,100.4a.6.6,0,0,1-.5.4l-8.5,1.6-16.3,3.3-4.7,1,.2-.4,20-47L65,35.7a.6.6,0,0,1,.6-.4H90a.6.6,0,0,1,.7.4l24,56.5v.3c.1.2,0,.3-.2.3l-3.8.5-7.7,1.1L92.5,96l-3.4.5c-.4.1-.5-.1-.6-.4l-10.8-28Z" fill="#fff"/><path d="M184.7,34c.6,0,.6,0,.6.6V59.4H185a37.7,37.7,0,0,0-15.8,3.4,35.7,35.7,0,0,0-18.7,19.8,40.4,40.4,0,0,0-2.2,22.1,37.3,37.3,0,0,0,8.5,18.4,36.1,36.1,0,0,0,25.4,12.8l3.1.2v27a69.9,69.9,0,0,1-15.3-1.6,65,65,0,0,1-16-5.8,63.4,63.4,0,0,1-15.9-11.7l-2.4-2.5h0v.3l8,18.7c.2.5.2.5-.3.5H113.9a.5.5,0,0,1-.6-.4l-9.6-25c-.1-.3-.2-.4-.6-.4H51.8a.5.5,0,0,0-.6.4l-9.6,25a.6.6,0,0,1-.6.4H11.7c-.2,0,7.3-17.1,10.8-25.5a.9.9,0,0,1,.5-.6q10.7-4.8,21.6-9,12.8-5,25.9-9.3,10.6-3.5,21.3-6.6t18.9-5.1l7.9-2c.2-.1.4-.1.4-.4a66.4,66.4,0,0,1,2-20.5,63.3,63.3,0,0,1,36.2-42.1,68.5,68.5,0,0,1,23.1-5.5,6.7,6.7,0,0,0,1.7-.2h.8A3.6,3.6,0,0,0,184.7,34Z" fill="#03713d"/><path d="M184.7,34a3.6,3.6,0,0,1-1.7,0Z" fill="#03713d"/><path d="M135.6,141.3h0Z" fill="#03713d"/><path d="M77.4,67.4l-1.6,4.2L64.7,100.4a.6.6,0,0,1-.5.4l-8.5,1.6-16.3,3.3-4.7,1,.2-.4,20-47L65,35.7a.6.6,0,0,1,.6-.4H90a.6.6,0,0,1,.7.4l24,56.5v.3c.1.2,0,.3-.2.3l-3.8.5-7.7,1.1L92.5,96l-3.4.5c-.4.1-.5-.1-.6-.4l-10.8-28Z" fill="#03713d"/></svg>