<svg id="Layer_1" data-name="Layer 1" xmlns="http://www.w3.org/2000/svg" width="326.5" height="326.5" viewBox="0 0 326.5 326.5"><title>amces-logo</title><path d="M154.4,218H156V223h6.5V218h1.6v11.3h-1.6v-4.9H156v4.9h-1.6Z" fill="#4d4d4f"/><path d="M173.4,226.8l.9.8a4.5,4.5,0,0,1-3.6,1.7,4.6,4.6,0,0,1-2.3-.6,4,4,0,0,1-1.6-1.5,4.5,4.5,0,0,1-.6-2.3,4.6,4.6,0,0,1,.5-2.2,3.8,3.8,0,0,1,1.5-1.5,4.6,4.6,0,0,1,2.3-.6,3.7,3.7,0,0,1,3.9,3.5l-6.5,2.1a2.7,2.7,0,0,0,1,1.3,2.9,2.9,0,0,0,1.7.5A3.3,3.3,0,0,0,173.4,226.8Zm-4.8-4.1a3.1,3.1,0,0,0-.8,2.2v.2l5.2-1.7a2.3,2.3,0,0,0-2.4-1.5A2.7,2.7,0,0,0,168.6,222.7Z" fill="#4d4d4f"/><path d="M178.7,228l.9-.3.2,1.2a2.7,2.7,0,0,1-1.5.5,1.8,1.8,0,0,1-1.4-.6,2.4,2.4,0,0,1-.5-1.7v-9.8h1.5v9.7Q177.9,228,178.7,228Z" fill="#4d4d4f"/><path d="M188.2,221.2a3.8,3.8,0,0,1,1.5,1.5,5.2,5.2,0,0,1,0,4.5,3.7,3.7,0,0,1-1.4,1.5,4.2,4.2,0,0,1-2.1.5,3.9,3.9,0,0,1-1.9-.5,3.3,3.3,0,0,1-1.3-1.3v4.8h-1.5V220.7h1.5v1.7a3.3,3.3,0,0,1,1.3-1.3,3.8,3.8,0,0,1,1.9-.5A4.2,4.2,0,0,1,188.2,221.2Zm-.9,6.4a2.7,2.7,0,0,0,1-1.1,3.3,3.3,0,0,0,.4-1.6,3.2,3.2,0,0,0-.4-1.6,2.8,2.8,0,0,0-1-1.1,2.8,2.8,0,0,0-1.5-.4,2.9,2.9,0,0,0-1.5.4,2.7,2.7,0,0,0-1,1.1,3.5,3.5,0,0,0,0,3.1,2.7,2.7,0,0,0,1,1.1,3,3,0,0,0,3,0Z" fill="#4d4d4f"/><path d="M193.7,217.6a1,1,0,0,1,0,1.4,1,1,0,0,1-1.3,0,1,1,0,0,1,0-1.4,1,1,0,0,1,1.3,0Zm-1.4,3.1h1.5v8.6h-1.5Z" fill="#4d4d4f"/><path d="M203.9,221.6a3.4,3.4,0,0,1,.9,2.4v5.3h-1.5v-4.9a2.3,2.3,0,0,0-.6-1.7,2.3,2.3,0,0,0-1.7-.6,2.6,2.6,0,0,0-1.9.7,2.9,2.9,0,0,0-.8,1.9v4.6h-1.5v-8.6h1.5v1.8a3.3,3.3,0,0,1,3.3-1.9A3.1,3.1,0,0,1,203.9,221.6Z" fill="#4d4d4f"/><path d="M215,220.7v7.7a4.2,4.2,0,0,1-.5,2.2A3.6,3.6,0,0,1,213,232a5.1,5.1,0,0,1-2.3.5,5.9,5.9,0,0,1-3.5-1.2l.7-1.1,1.3.8,1.5.3a3,3,0,0,0,2.1-.7,2.6,2.6,0,0,0,.8-2v-1.2a3.2,3.2,0,0,1-1.2,1.2,3.6,3.6,0,0,1-1.8.4,3.9,3.9,0,0,1-2-.5,3.6,3.6,0,0,1-1.4-1.5,4.6,4.6,0,0,1-.5-2.2,4.5,4.5,0,0,1,.5-2.1,3.6,3.6,0,0,1,1.4-1.4,3.9,3.9,0,0,1,2-.5,3.7,3.7,0,0,1,1.8.4,3.1,3.1,0,0,1,1.2,1.2v-1.6Zm-2.8,6.6a2.6,2.6,0,0,0,1-1,3.1,3.1,0,0,0,.3-1.5,3.2,3.2,0,0,0-.3-1.5,2.6,2.6,0,0,0-1-1,2.7,2.7,0,0,0-1.4-.4,2.7,2.7,0,0,0-1.4.4,2.7,2.7,0,0,0-1,1,3.1,3.1,0,0,0-.4,1.5,3,3,0,0,0,.8,2.1,2.6,2.6,0,0,0,2,.8A2.7,2.7,0,0,0,212.2,227.3Z" fill="#4d4d4f"/><path d="M230,220.7v8.6h-1.5v-1.7a3.4,3.4,0,0,1-1.3,1.3,3.8,3.8,0,0,1-1.9.5,4.1,4.1,0,0,1-2.1-.6,3.8,3.8,0,0,1-1.5-1.6,4.9,4.9,0,0,1-.5-2.3,4.7,4.7,0,0,1,.5-2.2,3.8,3.8,0,0,1,1.5-1.5,4.1,4.1,0,0,1,2.1-.6,3.9,3.9,0,0,1,1.9.4,3.3,3.3,0,0,1,1.3,1.3v-1.7Zm-2.4,6.6a3,3,0,0,0,.9-2v-.6a3,3,0,0,0-.9-2,2.7,2.7,0,0,0-2-.8,2.8,2.8,0,0,0-1.5.4,2.8,2.8,0,0,0-1,1.1,3.5,3.5,0,0,0,0,3.1,2.7,2.7,0,0,0,1,1.1,2.9,2.9,0,0,0,1.5.4A2.8,2.8,0,0,0,227.6,227.3Z" fill="#4d4d4f"/><path d="M236.4,222.1l-1.2-.2a2.1,2.1,0,0,0-1.1.3.8.8,0,0,0-.4.8.9.9,0,0,0,.5.8l1.4.5,1.5.5a2.6,2.6,0,0,1,1,.8,2.4,2.4,0,0,1-.5,3.2,3.9,3.9,0,0,1-2.3.6,5.7,5.7,0,0,1-1.9-.3,4.2,4.2,0,0,1-1.5-.9l.6-1.1a4,4,0,0,0,1.3.8l1.5.3a2.3,2.3,0,0,0,1.2-.3.9.9,0,0,0,.5-.8,1,1,0,0,0-.5-.9l-1.5-.6-1.4-.5a2.5,2.5,0,0,1-.9-.7,2,2,0,0,1-.4-1.3,2,2,0,0,1,.9-1.8,3.8,3.8,0,0,1,2.2-.6l1.5.2,1.3.6-.6,1.1Z" fill="#4d4d4f"/><path d="M243.9,222.1l-1.2-.2a2.1,2.1,0,0,0-1.1.3.8.8,0,0,0-.4.8.9.9,0,0,0,.5.8l1.4.5,1.5.5a2.6,2.6,0,0,1,1,.8,2.4,2.4,0,0,1-.5,3.2,3.9,3.9,0,0,1-2.3.6,5.7,5.7,0,0,1-1.9-.3,4.2,4.2,0,0,1-1.5-.9l.6-1.1a4,4,0,0,0,1.3.8l1.5.3a2.3,2.3,0,0,0,1.2-.3.9.9,0,0,0,.5-.8,1,1,0,0,0-.5-.9l-1.5-.6-1.4-.5a2.5,2.5,0,0,1-.9-.7,2,2,0,0,1-.4-1.3,2,2,0,0,1,.9-1.8,3.8,3.8,0,0,1,2.2-.6l1.5.2,1.3.6-.6,1.1Z" fill="#4d4d4f"/><path d="M253.7,221.2a4,4,0,0,1,1.6,1.5,4.8,4.8,0,0,1,0,4.5,3.9,3.9,0,0,1-1.6,1.5,5,5,0,0,1-4.6,0,4,4,0,0,1-1.6-1.5,4.8,4.8,0,0,1,0-4.5,4,4,0,0,1,1.6-1.5,5,5,0,0,1,4.6,0Zm-3.8,1.2a2.7,2.7,0,0,0-1,1.1,3.3,3.3,0,0,0-.4,1.6,3.4,3.4,0,0,0,.4,1.6,2.6,2.6,0,0,0,1,1.1,3.1,3.1,0,0,0,3,0,2.6,2.6,0,0,0,1-1.1,3.4,3.4,0,0,0,.4-1.6,3.3,3.3,0,0,0-.4-1.6,2.7,2.7,0,0,0-1-1.1,3.1,3.1,0,0,0-3,0Z" fill="#4d4d4f"/><path d="M261.5,222a3,3,0,0,0-1.5.4,2.6,2.6,0,0,0-1,1.1,3.2,3.2,0,0,0-.4,1.6,3.3,3.3,0,0,0,.4,1.6,2.7,2.7,0,0,0,1,1.1,2.8,2.8,0,0,0,1.5.4,3.9,3.9,0,0,0,1.5-.3,2.8,2.8,0,0,0,1.1-.8l.9.9a3.8,3.8,0,0,1-1.5,1.1,5.1,5.1,0,0,1-2,.4,4.4,4.4,0,0,1-2.2-.6,3.9,3.9,0,0,1-1.5-1.5,4.9,4.9,0,0,1,0-4.5,3.9,3.9,0,0,1,1.5-1.5,4.4,4.4,0,0,1,2.2-.6,5.4,5.4,0,0,1,2,.3,3.8,3.8,0,0,1,1.5,1l-.8,1A3.4,3.4,0,0,0,261.5,222Z" fill="#4d4d4f"/><path d="M268.4,217.6a1,1,0,0,1,0,1.4,1,1,0,0,1-1.3,0,1,1,0,0,1,0-1.4,1,1,0,0,1,1.3,0Zm-1.4,3.1h1.5v8.6H267Z" fill="#4d4d4f"/><path d="M279.4,220.7v8.6h-1.5v-1.7a3.4,3.4,0,0,1-1.3,1.3,3.8,3.8,0,0,1-1.9.5,4.1,4.1,0,0,1-2.1-.6,3.8,3.8,0,0,1-1.5-1.6,4.9,4.9,0,0,1-.5-2.3,4.7,4.7,0,0,1,.5-2.2,3.8,3.8,0,0,1,1.5-1.5,4.1,4.1,0,0,1,2.1-.6,3.9,3.9,0,0,1,1.9.4,3.3,3.3,0,0,1,1.3,1.3v-1.7Zm-2.4,6.6a3,3,0,0,0,.9-2v-.6a3,3,0,0,0-.9-2,2.7,2.7,0,0,0-2-.8,2.8,2.8,0,0,0-1.5.4,2.8,2.8,0,0,0-1,1.1,3.5,3.5,0,0,0,0,3.1,2.7,2.7,0,0,0,1,1.1,2.9,2.9,0,0,0,1.5.4A2.8,2.8,0,0,0,277,227.3Z" fill="#4d4d4f"/><path d="M286.4,228.7a3.6,3.6,0,0,1-2,.6,2.1,2.1,0,0,1-1.7-.7,3,3,0,0,1-.6-2.1v-7.9h1.5V221h2.6v1.2h-2.6v4.1q0,1.7,1.1,1.7a2.7,2.7,0,0,0,1.3-.4Z" fill="#4d4d4f"/><path d="M289.7,217.6a1,1,0,0,1,0,1.4,1,1,0,0,1-1.3,0,1,1,0,0,1,0-1.4,1,1,0,0,1,1.3,0Zm-1.4,3.1h1.5v8.6h-1.5Z" fill="#4d4d4f"/><path d="M298.5,221.2a4,4,0,0,1,1.6,1.5,4.8,4.8,0,0,1,0,4.5,3.9,3.9,0,0,1-1.6,1.5,5,5,0,0,1-4.6,0,4,4,0,0,1-1.6-1.5,4.8,4.8,0,0,1,0-4.5,4,4,0,0,1,1.6-1.5,5,5,0,0,1,4.6,0Zm-3.8,1.2a2.7,2.7,0,0,0-1,1.1,3.3,3.3,0,0,0-.4,1.6,3.4,3.4,0,0,0,.4,1.6,2.6,2.6,0,0,0,1,1.1,3.1,3.1,0,0,0,3,0,2.6,2.6,0,0,0,1-1.1,3.4,3.4,0,0,0,.4-1.6,3.3,3.3,0,0,0-.4-1.6,2.7,2.7,0,0,0-1-1.1,3.1,3.1,0,0,0-3,0Z" fill="#4d4d4f"/><path d="M309.9,221.6a3.4,3.4,0,0,1,.9,2.4v5.3h-1.5v-4.9a2.3,2.3,0,0,0-.6-1.7,2.3,2.3,0,0,0-1.7-.6,2.6,2.6,0,0,0-1.9.7,2.9,2.9,0,0,0-.8,1.9v4.6h-1.5v-8.6h1.5v1.8a3.3,3.3,0,0,1,3.3-1.9A3.1,3.1,0,0,1,309.9,221.6Z" fill="#4d4d4f"/><path d="M316.9,222.1l-1.2-.2a2.1,2.1,0,0,0-1.1.3.8.8,0,0,0-.4.8.9.9,0,0,0,.5.8l1.4.5,1.5.5a2.6,2.6,0,0,1,1,.8,2.4,2.4,0,0,1-.5,3.2,3.9,3.9,0,0,1-2.3.6,5.7,5.7,0,0,1-1.9-.3,4.2,4.2,0,0,1-1.5-.9l.6-1.1a4,4,0,0,0,1.3.8l1.5.3a2.3,2.3,0,0,0,1.2-.3.9.9,0,0,0,.5-.8,1,1,0,0,0-.5-.9l-1.5-.6-1.4-.5a2.5,2.5,0,0,1-.9-.7,2,2,0,0,1-.4-1.3,2,2,0,0,1,.9-1.8,3.8,3.8,0,0,1,2.2-.6l1.5.2,1.3.6-.6,1.1Z" fill="#4d4d4f"/><path d="M159.6,241.4l.7.6a3.2,3.2,0,0,1-2.6,1.3,3.3,3.3,0,0,1-1.6-.4,2.9,2.9,0,0,1-1.1-1.1,3.2,3.2,0,0,1-.4-1.6,3.3,3.3,0,0,1,.4-1.6,2.7,2.7,0,0,1,1.1-1.1,3.3,3.3,0,0,1,1.6-.4,2.7,2.7,0,0,1,2.8,2.5l-4.7,1.5a2,2,0,0,0,.8,1,2.1,2.1,0,0,0,1.2.4A2.4,2.4,0,0,0,159.6,241.4Zm-3.5-2.9a2.2,2.2,0,0,0-.5,1.6v.2l3.8-1.2a1.7,1.7,0,0,0-1.7-1.1A2,2,0,0,0,156.1,238.5Z" fill="#4d4d4f"/><path d="M160.9,237h1.3l1.5,2.3,1.6-2.3h1.2l-2,3,2.2,3.2h-1.3l-1.6-2.4-1.7,2.4h-1.2l2.2-3.2Z" fill="#4d4d4f"/><path d="M169.9,238a2.1,2.1,0,0,0-1.1.3,1.9,1.9,0,0,0-.7.8,2.3,2.3,0,0,0-.3,1.1,2.4,2.4,0,0,0,.3,1.1,1.9,1.9,0,0,0,.7.8,2,2,0,0,0,1.1.3l1.1-.2.8-.6.6.6a2.7,2.7,0,0,1-1.1.8,3.7,3.7,0,0,1-1.5.3,3.2,3.2,0,0,1-1.6-.4,2.8,2.8,0,0,1-1.1-1.1,3.3,3.3,0,0,1-.4-1.6,3.3,3.3,0,0,1,.4-1.6,2.8,2.8,0,0,1,1.1-1.1,3.2,3.2,0,0,1,1.6-.4l1.4.2a2.7,2.7,0,0,1,1,.7l-.6.7A2.5,2.5,0,0,0,169.9,238Z" fill="#4d4d4f"/><path d="M178,241.4l.7.6a3.2,3.2,0,0,1-2.6,1.3,3.3,3.3,0,0,1-1.6-.4,2.9,2.9,0,0,1-1.1-1.1,3.2,3.2,0,0,1-.4-1.6,3.3,3.3,0,0,1,.4-1.6,2.7,2.7,0,0,1,1.1-1.1,3.3,3.3,0,0,1,1.6-.4,2.7,2.7,0,0,1,2.8,2.5l-4.7,1.5a2,2,0,0,0,.8,1,2.1,2.1,0,0,0,1.2.4A2.4,2.4,0,0,0,178,241.4Zm-3.5-2.9a2.2,2.2,0,0,0-.5,1.6v.2l3.8-1.2a1.7,1.7,0,0,0-1.7-1.1A2,2,0,0,0,174.5,238.5Z" fill="#4d4d4f"/><path d="M184.5,241.4l.7.6a3.2,3.2,0,0,1-2.6,1.3,3.3,3.3,0,0,1-1.6-.4,2.9,2.9,0,0,1-1.1-1.1,3.2,3.2,0,0,1-.4-1.6,3.3,3.3,0,0,1,.4-1.6,2.7,2.7,0,0,1,1.1-1.1,3.3,3.3,0,0,1,1.6-.4,2.7,2.7,0,0,1,2.8,2.5l-4.7,1.5a2,2,0,0,0,.8,1,2.1,2.1,0,0,0,1.2.4A2.4,2.4,0,0,0,184.5,241.4Zm-3.5-2.9a2.2,2.2,0,0,0-.5,1.6v.2l3.8-1.2a1.7,1.7,0,0,0-1.7-1.1A2,2,0,0,0,181,238.5Z" fill="#4d4d4f"/><path d="M192.2,234.6v8.7h-1.1V242a2.5,2.5,0,0,1-.9,1,2.8,2.8,0,0,1-1.4.3,2.9,2.9,0,0,1-1.5-.4,2.8,2.8,0,0,1-1-1.1,3.5,3.5,0,0,1-.4-1.6,3.4,3.4,0,0,1,.4-1.6,2.7,2.7,0,0,1,1-1.1,3,3,0,0,1,1.5-.4,2.8,2.8,0,0,1,1.4.3,2.3,2.3,0,0,1,.9.9v-3.7Zm-2.1,7.5a2,2,0,0,0,.7-.8,2.5,2.5,0,0,0,0-2.3,2,2,0,0,0-.7-.8,2.1,2.1,0,0,0-1.1-.3,2.1,2.1,0,0,0-1.1.3,2,2,0,0,0-.7.8,2.5,2.5,0,0,0,0,2.3,2,2,0,0,0,.7.8,2.2,2.2,0,0,0,2.2,0Z" fill="#4d4d4f"/><path d="M206.7,237.7a2.4,2.4,0,0,1,.6,1.8v3.8h-1.1v-3.5a1.7,1.7,0,0,0-.4-1.2,1.6,1.6,0,0,0-1.2-.4,1.8,1.8,0,0,0-1.4.6,2.3,2.3,0,0,0-.5,1.5v3.1h-1.1v-3.5a1.7,1.7,0,0,0-.4-1.2,1.5,1.5,0,0,0-1.2-.4,1.8,1.8,0,0,0-1.4.6,2.3,2.3,0,0,0-.5,1.5v3.1H197V237h1.1v1.3a2.3,2.3,0,0,1,2.3-1.3,2.4,2.4,0,0,1,1.4.4,2,2,0,0,1,.8,1.1A2.3,2.3,0,0,1,205,237,2.2,2.2,0,0,1,206.7,237.7Z" fill="#4d4d4f"/><path d="M213.5,241.4l.7.6a3.2,3.2,0,0,1-2.6,1.3,3.3,3.3,0,0,1-1.6-.4,2.9,2.9,0,0,1-1.1-1.1,3.2,3.2,0,0,1-.4-1.6,3.3,3.3,0,0,1,.4-1.6,2.7,2.7,0,0,1,1.1-1.1,3.3,3.3,0,0,1,1.6-.4,2.7,2.7,0,0,1,2.8,2.5l-4.7,1.5a2,2,0,0,0,.8,1,2.1,2.1,0,0,0,1.2.4A2.4,2.4,0,0,0,213.5,241.4Zm-3.5-2.9a2.2,2.2,0,0,0-.5,1.6v.2l3.8-1.2a1.7,1.7,0,0,0-1.7-1.1A2,2,0,0,0,210,238.5Z" fill="#4d4d4f"/><path d="M225.2,237.7a2.4,2.4,0,0,1,.6,1.8v3.8h-1.1v-3.5a1.7,1.7,0,0,0-.4-1.2,1.6,1.6,0,0,0-1.2-.4,1.8,1.8,0,0,0-1.4.6,2.3,2.3,0,0,0-.5,1.5v3.1h-1.1v-3.5a1.7,1.7,0,0,0-.4-1.2,1.5,1.5,0,0,0-1.2-.4,1.8,1.8,0,0,0-1.4.6,2.3,2.3,0,0,0-.5,1.5v3.1h-1.1V237h1.1v1.3a2.3,2.3,0,0,1,2.3-1.3,2.4,2.4,0,0,1,1.4.4,2,2,0,0,1,.8,1.1,2.3,2.3,0,0,1,2.4-1.6A2.2,2.2,0,0,1,225.2,237.7Z" fill="#4d4d4f"/><path d="M232.5,237.4a2.7,2.7,0,0,1,1.1,1.1,3.8,3.8,0,0,1,0,3.3,2.7,2.7,0,0,1-1,1.1,3,3,0,0,1-1.5.4,2.8,2.8,0,0,1-1.4-.3,2.4,2.4,0,0,1-.9-.9v1.2h-1.1v-8.7h1.1v3.7a2.4,2.4,0,0,1,.9-.9,2.8,2.8,0,0,1,1.4-.3A3,3,0,0,1,232.5,237.4Zm-.7,4.6a1.9,1.9,0,0,0,.7-.8,2.4,2.4,0,0,0,.3-1.1,2.3,2.3,0,0,0-.3-1.1,2,2,0,0,0-.7-.8,2,2,0,0,0-1.1-.3,2.1,2.1,0,0,0-1.1.3,2,2,0,0,0-.7.8,2.5,2.5,0,0,0,0,2.3,2,2,0,0,0,.7.8,2.2,2.2,0,0,0,2.1,0Z" fill="#4d4d4f"/><path d="M239.7,241.4l.7.6a3.2,3.2,0,0,1-2.6,1.3,3.3,3.3,0,0,1-1.6-.4,2.9,2.9,0,0,1-1.1-1.1,3.2,3.2,0,0,1-.4-1.6,3.3,3.3,0,0,1,.4-1.6,2.7,2.7,0,0,1,1.1-1.1,3.3,3.3,0,0,1,1.6-.4,2.7,2.7,0,0,1,2.8,2.5l-4.7,1.5a2,2,0,0,0,.8,1,2.1,2.1,0,0,0,1.2.4A2.4,2.4,0,0,0,239.7,241.4Zm-3.5-2.9a2.2,2.2,0,0,0-.5,1.6v.2l3.8-1.2a1.7,1.7,0,0,0-1.7-1.1A2,2,0,0,0,236.2,238.5Z" fill="#4d4d4f"/><path d="M243.6,237.4a2.6,2.6,0,0,1,1.3-.4v1.1a2,2,0,0,0-2.2,1.9v3.3h-1.1V237h1.1v1.3A2.2,2.2,0,0,1,243.6,237.4Z" fill="#4d4d4f"/><path d="M253.3,241.4l.7.6a3.2,3.2,0,0,1-2.6,1.3,3.3,3.3,0,0,1-1.6-.4,2.9,2.9,0,0,1-1.1-1.1,3.2,3.2,0,0,1-.4-1.6,3.3,3.3,0,0,1,.4-1.6,2.7,2.7,0,0,1,1.1-1.1,3.3,3.3,0,0,1,1.6-.4,2.7,2.7,0,0,1,2.8,2.5l-4.7,1.5a2,2,0,0,0,.8,1,2.1,2.1,0,0,0,1.2.4A2.4,2.4,0,0,0,253.3,241.4Zm-3.5-2.9a2.2,2.2,0,0,0-.5,1.6v.2L253,239a1.7,1.7,0,0,0-1.7-1.1A2,2,0,0,0,249.8,238.5Z" fill="#4d4d4f"/><path d="M254.6,237h1.3l1.5,2.3,1.6-2.3h1.2l-2,3,2.2,3.2H259l-1.6-2.4-1.7,2.4h-1.2l2.2-3.2Z" fill="#4d4d4f"/><path d="M266.3,237.4a2.7,2.7,0,0,1,1.1,1.1,3.8,3.8,0,0,1,0,3.3,2.7,2.7,0,0,1-1,1.1,3,3,0,0,1-1.5.4,2.8,2.8,0,0,1-1.4-.3,2.4,2.4,0,0,1-.9-.9v3.5h-1.1V237h1.1v1.2a2.4,2.4,0,0,1,.9-.9,2.8,2.8,0,0,1,1.4-.3A3,3,0,0,1,266.3,237.4Zm-.7,4.6a1.9,1.9,0,0,0,.7-.8,2.4,2.4,0,0,0,.3-1.1,2.3,2.3,0,0,0-.3-1.1,2,2,0,0,0-.7-.8,2,2,0,0,0-1.1-.3,2.1,2.1,0,0,0-1.1.3,2,2,0,0,0-.7.8,2.5,2.5,0,0,0,0,2.3,2,2,0,0,0,.7.8,2.2,2.2,0,0,0,2.1,0Z" fill="#4d4d4f"/><path d="M273.6,241.4l.7.6a3.2,3.2,0,0,1-2.6,1.3,3.3,3.3,0,0,1-1.6-.4,2.9,2.9,0,0,1-1.1-1.1,3.2,3.2,0,0,1-.4-1.6,3.3,3.3,0,0,1,.4-1.6,2.7,2.7,0,0,1,1.1-1.1,3.3,3.3,0,0,1,1.6-.4,2.7,2.7,0,0,1,2.8,2.5l-4.7,1.5a2,2,0,0,0,.8,1,2.1,2.1,0,0,0,1.2.4A2.4,2.4,0,0,0,273.6,241.4Zm-3.5-2.9a2.2,2.2,0,0,0-.5,1.6v.2l3.8-1.2a1.7,1.7,0,0,0-1.7-1.1A2,2,0,0,0,270.1,238.5Z" fill="#4d4d4f"/><path d="M278.1,238a2.1,2.1,0,0,0-1.1.3,1.9,1.9,0,0,0-.7.8,2.3,2.3,0,0,0-.3,1.1,2.4,2.4,0,0,0,.3,1.1,1.9,1.9,0,0,0,.7.8,2,2,0,0,0,1.1.3l1.1-.2.8-.6.6.6a2.7,2.7,0,0,1-1.1.8,3.7,3.7,0,0,1-1.5.3,3.2,3.2,0,0,1-1.6-.4,2.8,2.8,0,0,1-1.1-1.1,3.3,3.3,0,0,1-.4-1.6,3.3,3.3,0,0,1,.4-1.6,2.8,2.8,0,0,1,1.1-1.1,3.2,3.2,0,0,1,1.6-.4l1.4.2a2.7,2.7,0,0,1,1,.7l-.6.7A2.4,2.4,0,0,0,278.1,238Z" fill="#4d4d4f"/><path d="M284.8,242.8a2.6,2.6,0,0,1-1.4.5,1.5,1.5,0,0,1-1.2-.5,2.1,2.1,0,0,1-.5-1.5v-5.7h1.1v1.7h1.9v.8h-1.9v3q0,1.2.8,1.2l.9-.3Z" fill="#4d4d4f"/><path d="M291.6,237v6.2h-1.1V242a2.4,2.4,0,0,1-.9.9,2.8,2.8,0,0,1-1.4.3,2.9,2.9,0,0,1-1.5-.4,2.8,2.8,0,0,1-1-1.1,3.5,3.5,0,0,1-.4-1.6,3.4,3.4,0,0,1,.4-1.6,2.7,2.7,0,0,1,1.1-1.1,3,3,0,0,1,1.5-.4,2.8,2.8,0,0,1,1.4.3,2.4,2.4,0,0,1,.9.9V237Zm-1.7,4.8a2.2,2.2,0,0,0,.6-1.4v-.5a2.2,2.2,0,0,0-.6-1.4,2,2,0,0,0-1.4-.5,2.1,2.1,0,0,0-1.1.3,2,2,0,0,0-.7.8,2.5,2.5,0,0,0,0,2.3,2,2,0,0,0,.7.8,2.1,2.1,0,0,0,1.1.3A2,2,0,0,0,289.8,241.8Z" fill="#4d4d4f"/><path d="M296.4,242.8a2.6,2.6,0,0,1-1.4.5,1.5,1.5,0,0,1-1.2-.5,2.1,2.1,0,0,1-.5-1.5v-5.7h1.1v1.7h1.9v.8h-1.9v3q0,1.2.8,1.2l.9-.3Z" fill="#4d4d4f"/><path d="M298.5,234.8a.8.8,0,0,1,0,1l-.5.2-.5-.2a.8.8,0,0,1,0-1l.5-.2Zm-1,2.3h1.1v6.2h-1.1Z" fill="#4d4d4f"/><path d="M304.7,237.4a2.9,2.9,0,0,1,1.1,1.1,3.5,3.5,0,0,1,0,3.2,2.8,2.8,0,0,1-1.1,1.1,3.6,3.6,0,0,1-3.3,0,2.9,2.9,0,0,1-1.1-1.1,3.5,3.5,0,0,1,0-3.2,2.9,2.9,0,0,1,1.1-1.1,3.6,3.6,0,0,1,3.3,0Zm-2.7.8a1.9,1.9,0,0,0-.7.8,2.4,2.4,0,0,0-.3,1.1,2.4,2.4,0,0,0,.3,1.1,1.9,1.9,0,0,0,.7.8,2.1,2.1,0,0,0,1.1.3,2.1,2.1,0,0,0,1.1-.3,1.9,1.9,0,0,0,.7-.8,2.4,2.4,0,0,0,.3-1.1,2.4,2.4,0,0,0-.3-1.1,1.9,1.9,0,0,0-.7-.8,2.1,2.1,0,0,0-1.1-.3A2.1,2.1,0,0,0,301.9,238.2Z" fill="#4d4d4f"/><path d="M312.6,237.6a2.4,2.4,0,0,1,.6,1.8v3.8h-1.1v-3.5a1.7,1.7,0,0,0-.4-1.2,1.6,1.6,0,0,0-1.2-.4,1.9,1.9,0,0,0-1.3.5,2.1,2.1,0,0,0-.6,1.3v3.3h-1.1V237h1.1v1.3a2.4,2.4,0,0,1,2.3-1.3A2.3,2.3,0,0,1,312.6,237.6Z" fill="#4d4d4f"/><path d="M317.5,238h-.9l-.8.2a.6.6,0,0,0-.3.6.6.6,0,0,0,.3.6l1,.4,1.1.4.7.5a1.7,1.7,0,0,1-.4,2.3,2.8,2.8,0,0,1-1.6.5l-1.3-.2a3,3,0,0,1-1.1-.6l.4-.8,1,.6,1.1.2.9-.2a.7.7,0,0,0,.3-.6.7.7,0,0,0-.3-.6l-1-.4-1-.4-.7-.5a1.4,1.4,0,0,1-.3-.9,1.5,1.5,0,0,1,.6-1.3,2.7,2.7,0,0,1,1.6-.4l1.1.2.9.4-.4.8Z" fill="#4d4d4f"/><path d="M222.7,158.5a24.8,24.8,0,0,0-7-5.1,21.5,21.5,0,0,0-9.4-2.1,26.4,26.4,0,0,0-9.9,1.8,22.3,22.3,0,0,0-7.7,5,23.4,23.4,0,0,0-5,7.7,27.5,27.5,0,0,0,0,19.6,23.4,23.4,0,0,0,5,7.7,22.3,22.3,0,0,0,7.7,5,26.4,26.4,0,0,0,9.9,1.8,22.3,22.3,0,0,0,9.3-1.9,21.2,21.2,0,0,0,7-5.2l-3.2-2.6a19.9,19.9,0,0,1-5.3,4.3,15.8,15.8,0,0,1-7.8,2,20.6,20.6,0,0,1-8.4-1.7,19.6,19.6,0,0,1-6.4-4.5,19.1,19.1,0,0,1-4-6.6,24.3,24.3,0,0,1,0-16.1,19.1,19.1,0,0,1,4-6.6,19.5,19.5,0,0,1,6.4-4.5,20.6,20.6,0,0,1,8.4-1.7,15.8,15.8,0,0,1,7.5,1.8,22.5,22.5,0,0,1,5.6,4.3Z" fill="#003594"/><path d="M275.9,176.2v-3.3a23.4,23.4,0,0,0-1.4-7.9,20.8,20.8,0,0,0-4.1-6.9,20.5,20.5,0,0,0-6.8-4.9,22.4,22.4,0,0,0-9.3-1.8,22.9,22.9,0,0,0-9.3,1.8,22.7,22.7,0,0,0-7.3,5.1,23,23,0,0,0-4.8,7.7,26.7,26.7,0,0,0-1.7,9.7,28.5,28.5,0,0,0,1.7,9.9,22.2,22.2,0,0,0,4.7,7.7,21.7,21.7,0,0,0,7.4,5,24.8,24.8,0,0,0,9.6,1.8,27.9,27.9,0,0,0,11.4-2.3,19.9,19.9,0,0,0,8.1-6.8l-3-2.5a18.1,18.1,0,0,1-6.7,5.6,21.3,21.3,0,0,1-9.8,2.4,18.5,18.5,0,0,1-9.6-2.2,19.3,19.3,0,0,1-5.9-5.3,19,19,0,0,1-3-6.4,22.5,22.5,0,0,1-.8-5.3v-1Zm-40.6-4.6a13.1,13.1,0,0,1,.9-3.8,20.2,20.2,0,0,1,3-5.6,19.8,19.8,0,0,1,5.7-5.1,17.1,17.1,0,0,1,9.1-2.2,18.3,18.3,0,0,1,6.9,1.3,18,18,0,0,1,5.7,3.6,17.3,17.3,0,0,1,3.8,5.3,15.3,15.3,0,0,1,1.4,6.5v1H235.4Z" fill="#003594"/><path d="M291.5,197.7a25.9,25.9,0,0,0,11,2.3,21.8,21.8,0,0,0,6.3-.9,16.3,16.3,0,0,0,5.3-2.7,12.6,12.6,0,0,0,3.6-4.3,13.3,13.3,0,0,0,1.3-6.1c0-3-.6-5.3-1.9-6.9a13.2,13.2,0,0,0-4.9-3.8,27.1,27.1,0,0,0-6.6-2,65.4,65.4,0,0,1-7-1.5,17.6,17.6,0,0,1-5.6-2.6,6.6,6.6,0,0,1-2.6-5.6,6.9,6.9,0,0,1,1.2-3.9,9.5,9.5,0,0,1,2.8-2.7,13.4,13.4,0,0,1,3.6-1.6,13.9,13.9,0,0,1,3.8-.6,13.7,13.7,0,0,1,7.5,1.9,13.9,13.9,0,0,1,4.3,4.5l3.9-2.3a14,14,0,0,0-5.8-5.6,21.6,21.6,0,0,0-9.8-2.1,20.7,20.7,0,0,0-5.7.8,15.6,15.6,0,0,0-4.9,2.4,12.5,12.5,0,0,0-3.5,4,11.4,11.4,0,0,0-1.3,5.7c0,2.8.6,5,1.9,6.4a13.9,13.9,0,0,0,4.9,3.6,28.6,28.6,0,0,0,6.7,2,64.5,64.5,0,0,1,7,1.6,17,17,0,0,1,5.6,2.8,7,7,0,0,1,2.5,5.8,8,8,0,0,1-1.1,4.3,10.8,10.8,0,0,1-2.8,3.1,13.2,13.2,0,0,1-3.9,1.9,14.2,14.2,0,0,1-4.3.7,18.4,18.4,0,0,1-8.6-2.2,14.6,14.6,0,0,1-5.7-5.3l-3.8,2.6A16.4,16.4,0,0,0,291.5,197.7Z" fill="#003594"/><path d="M74.2,171.9v7.2H55.4v-7.2a10.4,10.4,0,0,1,2.5-7.3,8.9,8.9,0,0,1,6.8-2.7,9,9,0,0,1,6.9,2.7A10.3,10.3,0,0,1,74.2,171.9Z" fill="#003594"/><path d="M248.4,62.5,60,151.6a30.3,30.3,0,0,1,4.7-.4,25.4,25.4,0,0,1,11.7,2.5A18.2,18.2,0,0,1,84,161a21.5,21.5,0,0,1,2.7,10.9V200H74.2V188.7H55.4V200H42.9V171.9A21.7,21.7,0,0,1,45.5,161a17.9,17.9,0,0,1,3.1-4.1L11.3,174.6a6.4,6.4,0,0,0-1.3,10.7l97.2,77.9a6.4,6.4,0,0,0,9.1-1.2L162.1,200h-7.6V171.9a10,10,0,0,0-2.1-6.6,7.1,7.1,0,0,0-5.7-2.5,8.3,8.3,0,0,0-6.6,3,11.3,11.3,0,0,0-2.6,7.6V200H124.8V171.9a9.9,9.9,0,0,0-2.2-6.6,7.2,7.2,0,0,0-5.8-2.5,8.2,8.2,0,0,0-6.5,3,11.3,11.3,0,0,0-2.6,7.6V200H95.2V151.9h12.5v7a16.3,16.3,0,0,1,6-5.6,16.8,16.8,0,0,1,8.2-2,14.6,14.6,0,0,1,14.2,9.9,17,17,0,0,1,6.2-7.3,16.6,16.6,0,0,1,9.3-2.6,15.1,15.1,0,0,1,8.1,2.2,14.7,14.7,0,0,1,5.5,6.2,20.7,20.7,0,0,1,1.9,9.2v24.3L256.3,72.1A6.4,6.4,0,0,0,248.4,62.5Z" fill="#003594"/></svg>