<svg id="Layer_1" data-name="Layer 1" xmlns="http://www.w3.org/2000/svg" width="2.1in" height="2.1in" viewBox="0 0 147.7 147.7"><title>amces-logo</title><line x1="7.4" y1="94.1" x2="140.3" y2="94.1" fill="#999" stroke="#999" stroke-width="1.09"/><polygon points="32.9 103.8 144 43.9 3.7 43.9 32.9 103.8" fill="#160967" stroke="#160967" stroke-width="0.76"/><path d="M26.3,60.8a24,24,0,0,0,.1,2.7H25V62h-.1a3.1,3.1,0,0,1-2.7,1.7c-1.8,0-2.7-1.6-2.7-3.2s1.9-4.2,5.3-4.2v-.2c0-.9-.2-2.6-2-2.6a3.6,3.6,0,0,0-2.3.8L20,53a4.8,4.8,0,0,1,2.9-1c2.7,0,3.4,2.3,3.4,4.6Zm-1.6-3c-1.7,0-3.7.3-3.7,2.5s.7,1.9,1.5,1.9a2.3,2.3,0,0,0,2.2-1.9,2.6,2.6,0,0,0,.1-.6Z" fill="#b3b3b3"/><path d="M36.1,55.3c0-1.2,0-2.1-.1-3h1.4v1.8h.1A3,3,0,0,1,40.3,52a2.7,2.7,0,0,1,2.5,2.2h0a4.3,4.3,0,0,1,1-1.5,2.6,2.6,0,0,1,1.9-.8c1.2,0,2.9,1,2.9,4.8v6.6H47.1V57.1c0-2.2-.6-3.4-1.9-3.4s-1.6.9-1.9,1.8a4.5,4.5,0,0,0-.1,1v6.9H41.6V56.7c0-1.8-.6-3.1-1.8-3.1s-1.7,1-2,2a3.5,3.5,0,0,0-.1,1v6.7H36.1Z" fill="#b3b3b3"/><path d="M64.7,63a5.1,5.1,0,0,1-2.5.6c-2.6,0-4.4-2.3-4.4-5.7s1.8-6,4.7-6a4.2,4.2,0,0,1,2.2.6l-.4,1.5a3.2,3.2,0,0,0-1.8-.5c-2,0-3.1,1.9-3.1,4.2s1.3,4.2,3,4.2a3.8,3.8,0,0,0,2-.5Z" fill="#b3b3b3"/><path d="M74.6,58.2c0,2.7,1.4,3.9,3,3.9a4.9,4.9,0,0,0,2.4-.6l.3,1.4a5.9,5.9,0,0,1-2.9.7c-2.7,0-4.3-2.3-4.3-5.6s1.6-6,4.1-6,3.6,3.2,3.6,5.3a6.8,6.8,0,0,1-.1,1Zm4.7-1.5c0-1.3-.4-3.3-2.2-3.3s-2.3,1.9-2.4,3.3Z" fill="#b3b3b3"/><path d="M89.8,61.4a3.8,3.8,0,0,0,2.1.8,1.5,1.5,0,0,0,1.7-1.7c0-1-.5-1.5-1.6-2.1a3.4,3.4,0,0,1-2.3-3.2,3,3,0,0,1,3-3.3,3.4,3.4,0,0,1,2.1.7l-.4,1.5a3.1,3.1,0,0,0-1.8-.6A1.4,1.4,0,0,0,91.2,55c0,.9.5,1.4,1.6,1.9a3.4,3.4,0,0,1,2.3,3.4,3.1,3.1,0,0,1-3.3,3.4,4.2,4.2,0,0,1-2.5-.8Z" fill="#b3b3b3"/></svg>