<svg id="Layer_1" data-name="Layer 1" xmlns="http://www.w3.org/2000/svg" width="6.1in" height="1.6in" viewBox="0 0 439 114.1"><title>Artboard 2</title><rect width="431.9" height="112.2" fill="#fff"/><line x1="17.4" y1="70.3" x2="425.3" y2="70.3" fill="#999" stroke="#999" stroke-width="1.09"/><polygon points="42.9 80 153.9 20.1 13.7 20.1 42.9 80" fill="#160967" stroke="#160967" stroke-width="0.76"/><path d="M36.2,36.9a24,24,0,0,0,.1,2.7H34.9V38.2h-.1A3.1,3.1,0,0,1,32,39.9c-1.8,0-2.7-1.6-2.7-3.2s1.9-4.2,5.3-4.2v-.2c0-.9-.2-2.6-2-2.6a3.6,3.6,0,0,0-2.3.8L30,29.2a4.8,4.8,0,0,1,2.9-1c2.7,0,3.4,2.3,3.4,4.6Zm-1.6-3c-1.7,0-3.7.3-3.7,2.5s.7,1.9,1.5,1.9a2.3,2.3,0,0,0,2.2-1.9,2.6,2.6,0,0,0,.1-.6Z" fill="#b3b3b3"/><path d="M46,31.5c0-1.2,0-2.1-.1-3h1.4v1.8h.1a3,3,0,0,1,2.8-2.1,2.7,2.7,0,0,1,2.5,2.2h0a4.3,4.3,0,0,1,1-1.5,2.6,2.6,0,0,1,1.9-.8c1.2,0,2.9,1,2.9,4.8v6.6H57V33.3c0-2.2-.6-3.4-1.9-3.4s-1.6.9-1.9,1.8a4.5,4.5,0,0,0-.1,1v6.9H51.5V32.9c0-1.8-.6-3.1-1.8-3.1s-1.7,1-2,2a3.5,3.5,0,0,0-.1,1v6.7H46Z" fill="#b3b3b3"/><path d="M74.6,39.2a5.1,5.1,0,0,1-2.5.6c-2.6,0-4.4-2.3-4.4-5.7s1.8-6,4.7-6a4.2,4.2,0,0,1,2.2.6l-.4,1.5a3.2,3.2,0,0,0-1.8-.5c-2,0-3.1,1.9-3.1,4.2s1.3,4.2,3,4.2a3.8,3.8,0,0,0,2-.5Z" fill="#b3b3b3"/><path d="M84.6,34.4c0,2.7,1.4,3.9,3,3.9a4.9,4.9,0,0,0,2.4-.6l.3,1.4a5.9,5.9,0,0,1-2.9.7c-2.7,0-4.3-2.3-4.3-5.6s1.6-6,4.1-6,3.6,3.2,3.6,5.3a6.8,6.8,0,0,1-.1,1Zm4.7-1.5c0-1.3-.4-3.3-2.2-3.3s-2.3,1.9-2.4,3.3Z" fill="#b3b3b3"/><path d="M99.8,37.6a3.8,3.8,0,0,0,2.1.8,1.5,1.5,0,0,0,1.7-1.7c0-1-.5-1.5-1.6-2.1a3.4,3.4,0,0,1-2.3-3.2,3,3,0,0,1,3-3.3,3.4,3.4,0,0,1,2.1.7l-.4,1.5a3.1,3.1,0,0,0-1.8-.6,1.4,1.4,0,0,0-1.4,1.5c0,.9.5,1.4,1.6,1.9a3.4,3.4,0,0,1,2.3,3.4,3.1,3.1,0,0,1-3.3,3.4,4.2,4.2,0,0,1-2.5-.8Z" fill="#b3b3b3"/><path d="M71.4,88.3l1.5-7h.9l-.6,2.9h3.6l.6-2.9h.9l-1.5,7H76l.7-3.3H73l-.7,3.3Z" fill="#006"/><path d="M83.1,86.5h.8a2.6,2.6,0,0,1-.8,1.2,2.3,2.3,0,0,1-1.6.6l-1-.3a1.7,1.7,0,0,1-.7-.8,2.5,2.5,0,0,1-.2-1.1,3.6,3.6,0,0,1,.4-1.6,2.7,2.7,0,0,1,1-1.2,2.5,2.5,0,0,1,1.3-.4,1.9,1.9,0,0,1,1.5.6,2.1,2.1,0,0,1,.5,1.5,4.6,4.6,0,0,1-.1.8H80.4v.3a1.6,1.6,0,0,0,.3,1.1,1,1,0,0,0,.8.4l.9-.3A1.9,1.9,0,0,0,83.1,86.5Zm-2.5-1.3h2.9v-.2a1.4,1.4,0,0,0-.3-1,1.1,1.1,0,0,0-.8-.3,1.5,1.5,0,0,0-1,.4A2.3,2.3,0,0,0,80.6,85.3Z" fill="#006"/><path d="M85.7,88.3l1.5-7h.9l-1.5,7Z" fill="#006"/><path d="M88.5,90.2l1.5-7h.8v.7l.8-.6.7-.2a1.6,1.6,0,0,1,1.2.5,2.2,2.2,0,0,1,.5,1.5,3.8,3.8,0,0,1-.3,1.4,3.2,3.2,0,0,1-.6,1.1l-.8.6-.8.2a1.6,1.6,0,0,1-1.4-.9l-.6,2.8Zm1.7-4a2.6,2.6,0,0,0,.1.8,1.1,1.1,0,0,0,.4.5l.6.2a1.4,1.4,0,0,0,1.2-.8,3.5,3.5,0,0,0,.5-1.7,1.5,1.5,0,0,0-.3-1,1,1,0,0,0-.8-.4l-.6.2-.5.5a3.1,3.1,0,0,0-.4.9A3,3,0,0,0,90.3,86.2Z" fill="#006"/><path d="M95.4,88.3l1.1-5.1h.9l-1.1,5.1Zm1.3-6,.2-1h.9l-.2,1Z" fill="#006"/><path d="M98.6,88.3l1.1-5.1h.8l-.2.9,1-.8.9-.2a1.3,1.3,0,0,1,1,.3,1.2,1.2,0,0,1,.4.9,5,5,0,0,1-.1.9l-.6,3.1h-.9l.7-3.2a3.7,3.7,0,0,0,.1-.7.5.5,0,0,0-.2-.4l-.5-.2a1.7,1.7,0,0,0-1.2.5,3.1,3.1,0,0,0-.8,1.6l-.5,2.4Z" fill="#006"/><path d="M105,88.7h.9a.9.9,0,0,0,.1.4l.3.2h.6a1.4,1.4,0,0,0,1.1-.4,3.1,3.1,0,0,0,.4-1.2v-.4a2,2,0,0,1-1.4.7,1.7,1.7,0,0,1-1.3-.6,2.3,2.3,0,0,1-.5-1.6,3.1,3.1,0,0,1,.4-1.6,3.1,3.1,0,0,1,1-1.1,2.1,2.1,0,0,1,1.2-.4,1.7,1.7,0,0,1,1.5.9l.2-.8h.8l-1,4.9a4.1,4.1,0,0,1-.4,1.3,1.9,1.9,0,0,1-.8.7l-1.1.2-1.1-.2a1.3,1.3,0,0,1-.7-.5,1.2,1.2,0,0,1-.2-.7ZM106,86a2.3,2.3,0,0,0,.1.8,1.2,1.2,0,0,0,.4.6l.6.2a1.5,1.5,0,0,0,.8-.3,2.1,2.1,0,0,0,.7-.9,3.1,3.1,0,0,0,.3-1.2,1.4,1.4,0,0,0-.3-1,1.1,1.1,0,0,0-.9-.4l-.6.2-.6.5a2.5,2.5,0,0,0-.4.8A3,3,0,0,0,106,86Z" fill="#006"/><path d="M118.6,87.6l-.9.6-.9.2a1.6,1.6,0,0,1-1.1-.4,1.4,1.4,0,0,1-.4-1.1,1.5,1.5,0,0,1,.2-.8l.5-.5.8-.3h1.1l1.2-.2a2.3,2.3,0,0,0,.1-.6.6.6,0,0,0-.2-.5,1.4,1.4,0,0,0-.9-.2l-.9.2a1.4,1.4,0,0,0-.5.7h-.9a2.3,2.3,0,0,1,.9-1.2,2.5,2.5,0,0,1,1.5-.4,2.3,2.3,0,0,1,1.5.5,1.1,1.1,0,0,1,.4.9,4.4,4.4,0,0,1-.1.9l-.3,1.3a4.7,4.7,0,0,0-.1,1,3.3,3.3,0,0,0,.1.7h-.9A3.2,3.2,0,0,1,118.6,87.6Zm.3-1.9h-1.1l-1.1.2-.5.3a.8.8,0,0,0-.2.5.8.8,0,0,0,.3.6,1,1,0,0,0,.7.2l.8-.2a1.7,1.7,0,0,0,.6-.6A3.7,3.7,0,0,0,118.9,85.7Z" fill="#006"/><path d="M121.7,86.5h.9a1.6,1.6,0,0,0,.1.6l.4.4.7.2a1.4,1.4,0,0,0,.9-.2.7.7,0,0,0,.3-.5.6.6,0,0,0-.2-.4l-.9-.5-.9-.4-.5-.5a1.1,1.1,0,0,1-.2-.6,1.3,1.3,0,0,1,.5-1,1.9,1.9,0,0,1,1.3-.4,2.1,2.1,0,0,1,1.5.4,1.5,1.5,0,0,1,.5,1.2h-.8a1,1,0,0,0-.3-.7,1.3,1.3,0,0,0-.9-.3l-.7.2a.6.6,0,0,0-.2.4.5.5,0,0,0,.2.4l.7.4,1.3.7a1.3,1.3,0,0,1,.4,1,1.4,1.4,0,0,1-.2.7,1.6,1.6,0,0,1-.7.6l-1.1.2a2.5,2.5,0,0,1-1.5-.4A1.5,1.5,0,0,1,121.7,86.5Z" fill="#006"/><path d="M127.6,86.5h.9a1.6,1.6,0,0,0,.1.6l.4.4.7.2a1.4,1.4,0,0,0,.9-.2.7.7,0,0,0,.3-.5.6.6,0,0,0-.2-.4l-.9-.5-.9-.4-.5-.5a1.1,1.1,0,0,1-.2-.6,1.3,1.3,0,0,1,.5-1,1.9,1.9,0,0,1,1.3-.4,2.1,2.1,0,0,1,1.5.4,1.5,1.5,0,0,1,.5,1.2h-.8a1,1,0,0,0-.3-.7,1.3,1.3,0,0,0-.9-.3l-.7.2a.6.6,0,0,0-.2.4.5.5,0,0,0,.2.4l.7.4,1.3.7a1.3,1.3,0,0,1,.4,1,1.4,1.4,0,0,1-.2.7,1.6,1.6,0,0,1-.7.6l-1.1.2a2.5,2.5,0,0,1-1.5-.4A1.5,1.5,0,0,1,127.6,86.5Z" fill="#006"/><path d="M133.5,86.3a3.6,3.6,0,0,1,.9-2.5,2.4,2.4,0,0,1,1.9-.8,2,2,0,0,1,1.5.6,2.1,2.1,0,0,1,.6,1.6,3.8,3.8,0,0,1-.4,1.6,2.6,2.6,0,0,1-1,1.2,2.6,2.6,0,0,1-1.4.4l-1.1-.3a1.8,1.8,0,0,1-.7-.7A2.2,2.2,0,0,1,133.5,86.3Zm.9-.1a1.5,1.5,0,0,0,.3,1.1,1.1,1.1,0,0,0,.9.4h.6l.5-.3.4-.5.3-.6a3.1,3.1,0,0,0,.1-.9,1.5,1.5,0,0,0-.3-1.1,1.1,1.1,0,0,0-.9-.4l-.7.2-.6.6a2.5,2.5,0,0,0-.4.9A3.6,3.6,0,0,0,134.4,86.2Z" fill="#006"/><path d="M143.3,86.4h.9a2.9,2.9,0,0,1-.9,1.4,2.2,2.2,0,0,1-1.4.5,1.8,1.8,0,0,1-1.3-.5,2.1,2.1,0,0,1-.5-1.5,4.3,4.3,0,0,1,.3-1.6,2.7,2.7,0,0,1,.9-1.2,2.4,2.4,0,0,1,1.4-.4,1.8,1.8,0,0,1,1.3.5,1.6,1.6,0,0,1,.5,1.2h-.9a1,1,0,0,0-.3-.8,1,1,0,0,0-.7-.3,1.3,1.3,0,0,0-.9.3,2.2,2.2,0,0,0-.6,1,4.2,4.2,0,0,0-.2,1.3,1.4,1.4,0,0,0,.3,1,.9.9,0,0,0,.7.3,1.2,1.2,0,0,0,.8-.3A2.1,2.1,0,0,0,143.3,86.4Z" fill="#006"/><path d="M145.7,88.3l1.1-5.1h.9l-1.1,5.1Zm1.3-6,.2-1h.9l-.2,1Z" fill="#006"/><path d="M152.3,87.6l-.9.6-.9.2a1.6,1.6,0,0,1-1.1-.4,1.4,1.4,0,0,1-.4-1.1,1.5,1.5,0,0,1,.2-.8l.5-.5.8-.3h1.1l1.2-.2a2.3,2.3,0,0,0,.1-.6.6.6,0,0,0-.2-.5,1.4,1.4,0,0,0-.9-.2l-.9.2a1.4,1.4,0,0,0-.5.7h-.9a2.3,2.3,0,0,1,.9-1.2,2.5,2.5,0,0,1,1.5-.4,2.3,2.3,0,0,1,1.5.5,1.1,1.1,0,0,1,.4.9,4.4,4.4,0,0,1-.1.9l-.3,1.3a4.7,4.7,0,0,0-.1,1,3.3,3.3,0,0,0,.1.7h-.9A3.2,3.2,0,0,1,152.3,87.6Zm.3-1.9h-1.1l-1.1.2-.5.3a.8.8,0,0,0-.2.5.8.8,0,0,0,.3.6,1,1,0,0,0,.7.2l.8-.2a1.7,1.7,0,0,0,.6-.6A3.7,3.7,0,0,0,152.6,85.7Z" fill="#006"/><path d="M157.3,87.6v.7h-.6a1.3,1.3,0,0,1-.8-.3.6.6,0,0,1-.2-.5,5.3,5.3,0,0,1,.1-.8l.6-3h-.7v-.7h.7l.3-1.3,1-.6-.4,1.9h.9v.7h-.8l-.6,2.8v.6a.3.3,0,0,0,.1.2h.8Z" fill="#006"/><path d="M159,88.3l1.1-5.1h.9l-1.1,5.1Zm1.3-6,.2-1h.9l-.2,1Z" fill="#006"/><path d="M162.3,86.3a3.6,3.6,0,0,1,.9-2.5,2.4,2.4,0,0,1,1.9-.8,2,2,0,0,1,1.5.6,2.1,2.1,0,0,1,.6,1.6,3.8,3.8,0,0,1-.4,1.6,2.6,2.6,0,0,1-1,1.2,2.6,2.6,0,0,1-1.4.4l-1.1-.3a1.8,1.8,0,0,1-.7-.7A2.2,2.2,0,0,1,162.3,86.3Zm.9-.1a1.5,1.5,0,0,0,.3,1.1,1.1,1.1,0,0,0,.9.4h.6l.5-.3.4-.5.3-.6a3.1,3.1,0,0,0,.1-.9,1.5,1.5,0,0,0-.3-1.1,1.1,1.1,0,0,0-.9-.4l-.7.2-.6.6a2.5,2.5,0,0,0-.4.9A3.6,3.6,0,0,0,163.2,86.2Z" fill="#006"/><path d="M168.6,88.3l1.1-5.1h.8l-.2.9,1-.8.9-.2a1.3,1.3,0,0,1,1,.3,1.2,1.2,0,0,1,.4.9,5,5,0,0,1-.1.9l-.6,3.1h-.9l.7-3.2a3.7,3.7,0,0,0,.1-.7.5.5,0,0,0-.2-.4l-.5-.2a1.7,1.7,0,0,0-1.2.5,3.1,3.1,0,0,0-.8,1.6l-.5,2.4Z" fill="#006"/><path d="M175.1,86.5h.9a1.6,1.6,0,0,0,.1.6l.4.4.7.2a1.4,1.4,0,0,0,.9-.2.7.7,0,0,0,.3-.5.6.6,0,0,0-.2-.4l-.9-.5-.9-.4-.5-.5a1.1,1.1,0,0,1-.2-.6,1.3,1.3,0,0,1,.5-1,1.9,1.9,0,0,1,1.3-.4,2.1,2.1,0,0,1,1.5.4,1.5,1.5,0,0,1,.5,1.2h-.8a1,1,0,0,0-.3-.7,1.3,1.3,0,0,0-.9-.3l-.7.2a.6.6,0,0,0-.2.4.5.5,0,0,0,.2.4l.7.4,1.3.7a1.3,1.3,0,0,1,.4,1,1.4,1.4,0,0,1-.2.7,1.6,1.6,0,0,1-.7.6l-1.1.2a2.5,2.5,0,0,1-1.5-.4A1.5,1.5,0,0,1,175.1,86.5Z" fill="#006"/><path d="M188.4,86.5h.8a2.6,2.6,0,0,1-.8,1.2,2.3,2.3,0,0,1-1.6.6l-1-.3a1.7,1.7,0,0,1-.7-.8,2.5,2.5,0,0,1-.2-1.1,3.6,3.6,0,0,1,.4-1.6,2.7,2.7,0,0,1,1-1.2,2.5,2.5,0,0,1,1.3-.4,1.9,1.9,0,0,1,1.5.6,2.1,2.1,0,0,1,.5,1.5,4.6,4.6,0,0,1-.1.8h-3.7v.3a1.6,1.6,0,0,0,.3,1.1,1,1,0,0,0,.8.4l.9-.3A1.9,1.9,0,0,0,188.4,86.5Zm-2.5-1.3h2.9v-.2a1.4,1.4,0,0,0-.3-1,1.1,1.1,0,0,0-.8-.3,1.5,1.5,0,0,0-1,.4A2.3,2.3,0,0,0,185.9,85.3Z" fill="#006"/><path d="M190.8,88.3l2.2-2.6-1.3-2.5h1l.4.9.4,1,1.5-1.9H196l-2.1,2.6,1.3,2.5h-1l-.5-1-.4-.8-1.5,1.9Z" fill="#006"/><path d="M200.5,86.4h.9a2.9,2.9,0,0,1-.9,1.4,2.2,2.2,0,0,1-1.4.5,1.8,1.8,0,0,1-1.3-.5,2.1,2.1,0,0,1-.5-1.5,4.3,4.3,0,0,1,.3-1.6,2.7,2.7,0,0,1,.9-1.2,2.4,2.4,0,0,1,1.4-.4,1.8,1.8,0,0,1,1.3.5,1.6,1.6,0,0,1,.5,1.2h-.9a1,1,0,0,0-.3-.8,1,1,0,0,0-.7-.3,1.3,1.3,0,0,0-.9.3,2.2,2.2,0,0,0-.6,1,4.2,4.2,0,0,0-.2,1.3,1.4,1.4,0,0,0,.3,1,.9.9,0,0,0,.7.3,1.2,1.2,0,0,0,.8-.3A2.1,2.1,0,0,0,200.5,86.4Z" fill="#006"/><path d="M206.6,86.5h.8a2.6,2.6,0,0,1-.8,1.2,2.3,2.3,0,0,1-1.6.6l-1-.3a1.7,1.7,0,0,1-.7-.8,2.5,2.5,0,0,1-.2-1.1,3.6,3.6,0,0,1,.4-1.6,2.7,2.7,0,0,1,1-1.2,2.5,2.5,0,0,1,1.3-.4,1.9,1.9,0,0,1,1.5.6,2.1,2.1,0,0,1,.5,1.5,4.6,4.6,0,0,1-.1.8H204v.3a1.6,1.6,0,0,0,.3,1.1,1,1,0,0,0,.8.4l.9-.3A1.9,1.9,0,0,0,206.6,86.5Zm-2.5-1.3H207v-.2a1.4,1.4,0,0,0-.3-1,1.1,1.1,0,0,0-.8-.3,1.5,1.5,0,0,0-1,.4A2.3,2.3,0,0,0,204.1,85.3Z" fill="#006"/><path d="M213.1,86.5h.8a2.6,2.6,0,0,1-.8,1.2,2.3,2.3,0,0,1-1.6.6l-1-.3a1.7,1.7,0,0,1-.7-.8,2.5,2.5,0,0,1-.2-1.1,3.6,3.6,0,0,1,.4-1.6,2.7,2.7,0,0,1,1-1.2,2.5,2.5,0,0,1,1.3-.4,1.9,1.9,0,0,1,1.5.6,2.1,2.1,0,0,1,.5,1.5,4.6,4.6,0,0,1-.1.8h-3.7v.3a1.6,1.6,0,0,0,.3,1.1,1,1,0,0,0,.8.4l.9-.3A1.9,1.9,0,0,0,213.1,86.5Zm-2.5-1.3h2.9v-.2a1.4,1.4,0,0,0-.3-1,1.1,1.1,0,0,0-.8-.3,1.5,1.5,0,0,0-1,.4A2.3,2.3,0,0,0,210.5,85.3Z" fill="#006"/><path d="M219.2,87.5a2.1,2.1,0,0,1-1.6.9,1.6,1.6,0,0,1-1.2-.5,2.2,2.2,0,0,1-.5-1.6,3.8,3.8,0,0,1,.4-1.7,2.9,2.9,0,0,1,1-1.2,2,2,0,0,1,1.1-.4,1.5,1.5,0,0,1,1.4.9l.6-2.7h.9l-1.5,7H219Zm-2.4-1.4a2.7,2.7,0,0,0,.1.8,1.1,1.1,0,0,0,.4.5l.6.2a1.4,1.4,0,0,0,1.1-.6,3.2,3.2,0,0,0,.6-2,1.3,1.3,0,0,0-.3-.9,1,1,0,0,0-.8-.3h-.6l-.5.5a3,3,0,0,0-.4.8A2.9,2.9,0,0,0,216.8,86.1Z" fill="#006"/><path d="M225.9,88.3l1.1-5.1h.9l-.2.8.9-.7.8-.2a1.2,1.2,0,0,1,.8.3,1.2,1.2,0,0,1,.4.7l.8-.7.9-.2a1.3,1.3,0,0,1,1,.3,1.1,1.1,0,0,1,.3.8,4.4,4.4,0,0,1-.1.8l-.7,3.3h-.9l.7-3.4a3.2,3.2,0,0,0,.1-.6.5.5,0,0,0-.2-.4h-.4l-.8.2a1.7,1.7,0,0,0-.6.6,4.1,4.1,0,0,0-.4,1.2l-.5,2.5h-.9l.7-3.4a2.7,2.7,0,0,0,.1-.5.5.5,0,0,0-.2-.4l-.4-.2-.8.2a1.8,1.8,0,0,0-.7.7,3.9,3.9,0,0,0-.4,1.2l-.5,2.4Z" fill="#006"/><path d="M238.8,86.5h.8a2.6,2.6,0,0,1-.8,1.2,2.3,2.3,0,0,1-1.6.6l-1-.3a1.7,1.7,0,0,1-.7-.8,2.5,2.5,0,0,1-.2-1.1,3.6,3.6,0,0,1,.4-1.6,2.7,2.7,0,0,1,1-1.2,2.5,2.5,0,0,1,1.3-.4,1.9,1.9,0,0,1,1.5.6,2.1,2.1,0,0,1,.5,1.5,4.6,4.6,0,0,1-.1.8h-3.7v.3a1.6,1.6,0,0,0,.3,1.1,1,1,0,0,0,.8.4l.9-.3A1.9,1.9,0,0,0,238.8,86.5Zm-2.5-1.3h2.9v-.2a1.4,1.4,0,0,0-.3-1,1.1,1.1,0,0,0-.8-.3,1.5,1.5,0,0,0-1,.4A2.3,2.3,0,0,0,236.3,85.3Z" fill="#006"/><path d="M241.5,88.3l1.1-5.1h.9l-.2.8.9-.7.8-.2a1.2,1.2,0,0,1,.8.3,1.2,1.2,0,0,1,.4.7l.8-.7.9-.2a1.3,1.3,0,0,1,1,.3,1.1,1.1,0,0,1,.3.8,4.4,4.4,0,0,1-.1.8l-.7,3.3h-.9l.7-3.4a3.2,3.2,0,0,0,.1-.6.5.5,0,0,0-.2-.4h-.4l-.8.2a1.7,1.7,0,0,0-.6.6,4.1,4.1,0,0,0-.4,1.2l-.5,2.5h-.9l.7-3.4a2.7,2.7,0,0,0,.1-.5.5.5,0,0,0-.2-.4l-.4-.2-.8.2a1.8,1.8,0,0,0-.7.7,3.9,3.9,0,0,0-.4,1.2l-.5,2.4Z" fill="#006"/><path d="M250.7,88.3l1.5-7h.9l-.5,2.5.7-.5.7-.2a1.5,1.5,0,0,1,1.2.5,2.2,2.2,0,0,1,.5,1.5,3.8,3.8,0,0,1-.2,1.2,3.4,3.4,0,0,1-.5.9l-.6.6-.6.3h-.6a1.5,1.5,0,0,1-.9-.3,1.7,1.7,0,0,1-.6-.8l-.2,1Zm1.3-2.1v.2a1.4,1.4,0,0,0,.3,1,1,1,0,0,0,.8.3,1.3,1.3,0,0,0,.8-.3,2.3,2.3,0,0,0,.6-1,3.7,3.7,0,0,0,.2-1.2,1.5,1.5,0,0,0-.3-1,1,1,0,0,0-.8-.4,1.2,1.2,0,0,0-.9.4,2.7,2.7,0,0,0-.7,1.1A3,3,0,0,0,251.9,86.2Z" fill="#006"/><path d="M260.8,86.5h.8a2.6,2.6,0,0,1-.8,1.2,2.3,2.3,0,0,1-1.6.6l-1-.3a1.7,1.7,0,0,1-.7-.8,2.5,2.5,0,0,1-.2-1.1,3.6,3.6,0,0,1,.4-1.6,2.7,2.7,0,0,1,1-1.2,2.5,2.5,0,0,1,1.3-.4,1.9,1.9,0,0,1,1.5.6,2.1,2.1,0,0,1,.5,1.5,4.6,4.6,0,0,1-.1.8h-3.7v.3a1.6,1.6,0,0,0,.3,1.1,1,1,0,0,0,.8.4l.9-.3A1.9,1.9,0,0,0,260.8,86.5Zm-2.5-1.3h2.9v-.2a1.4,1.4,0,0,0-.3-1,1.1,1.1,0,0,0-.8-.3,1.5,1.5,0,0,0-1,.4A2.3,2.3,0,0,0,258.3,85.3Z" fill="#006"/><path d="M263.5,88.3l1.1-5.1h.8l-.2,1,.8-.9.8-.3.6.2-.4.8-.5-.2a1.3,1.3,0,0,0-.9.5,3.9,3.9,0,0,0-.8,1.8l-.4,2Z" fill="#006"/><path d="M275.2,86.5h.8a2.6,2.6,0,0,1-.8,1.2,2.3,2.3,0,0,1-1.6.6l-1-.3a1.7,1.7,0,0,1-.7-.8,2.5,2.5,0,0,1-.2-1.1,3.6,3.6,0,0,1,.4-1.6,2.7,2.7,0,0,1,1-1.2,2.5,2.5,0,0,1,1.3-.4,1.9,1.9,0,0,1,1.5.6,2.1,2.1,0,0,1,.5,1.5,4.6,4.6,0,0,1-.1.8h-3.7v.3a1.6,1.6,0,0,0,.3,1.1,1,1,0,0,0,.8.4l.9-.3A1.9,1.9,0,0,0,275.2,86.5Zm-2.5-1.3h2.9v-.2a1.4,1.4,0,0,0-.3-1,1.1,1.1,0,0,0-.8-.3,1.5,1.5,0,0,0-1,.4A2.3,2.3,0,0,0,272.7,85.3Z" fill="#006"/><path d="M277.6,88.3l2.2-2.6-1.3-2.5h1l.4.9.4,1,1.5-1.9h1.1l-2.1,2.6,1.3,2.5h-1l-.5-1-.4-.8-1.5,1.9Z" fill="#006"/><path d="M283.4,90.2l1.5-7h.8v.7l.8-.6.7-.2a1.6,1.6,0,0,1,1.2.5,2.2,2.2,0,0,1,.5,1.5,3.8,3.8,0,0,1-.3,1.4,3.3,3.3,0,0,1-.6,1.1l-.8.6-.8.2a1.6,1.6,0,0,1-1.4-.9l-.6,2.8Zm1.7-4a2.6,2.6,0,0,0,.1.8,1.1,1.1,0,0,0,.4.5l.6.2a1.4,1.4,0,0,0,1.2-.8,3.5,3.5,0,0,0,.5-1.7,1.5,1.5,0,0,0-.3-1,1,1,0,0,0-.8-.4l-.6.2-.5.5a3.1,3.1,0,0,0-.4.9A3,3,0,0,0,285.1,86.2Z" fill="#006"/><path d="M294,86.5h.8a2.6,2.6,0,0,1-.8,1.2,2.3,2.3,0,0,1-1.6.6l-1-.3a1.7,1.7,0,0,1-.7-.8,2.5,2.5,0,0,1-.2-1.1,3.6,3.6,0,0,1,.4-1.6,2.8,2.8,0,0,1,1-1.2,2.5,2.5,0,0,1,1.3-.4,1.9,1.9,0,0,1,1.5.6,2.1,2.1,0,0,1,.5,1.5,4.5,4.5,0,0,1-.1.8h-3.7v.3a1.6,1.6,0,0,0,.3,1.1,1,1,0,0,0,.8.4l.9-.3A1.9,1.9,0,0,0,294,86.5Zm-2.5-1.3h2.9c0-.1,0-.2,0-.2a1.4,1.4,0,0,0-.3-1,1.1,1.1,0,0,0-.8-.3,1.5,1.5,0,0,0-1,.4A2.3,2.3,0,0,0,291.5,85.3Z" fill="#006"/><path d="M300.2,86.4h.9a2.9,2.9,0,0,1-.9,1.4,2.2,2.2,0,0,1-1.4.5,1.8,1.8,0,0,1-1.3-.5,2.1,2.1,0,0,1-.5-1.5,4.3,4.3,0,0,1,.3-1.6,2.7,2.7,0,0,1,.9-1.2,2.4,2.4,0,0,1,1.4-.4,1.8,1.8,0,0,1,1.3.5,1.6,1.6,0,0,1,.5,1.2h-.9a1,1,0,0,0-.3-.8,1,1,0,0,0-.7-.3,1.3,1.3,0,0,0-.9.3,2.2,2.2,0,0,0-.6,1,4.2,4.2,0,0,0-.2,1.3,1.4,1.4,0,0,0,.3,1,.9.9,0,0,0,.7.3,1.2,1.2,0,0,0,.8-.3A2.1,2.1,0,0,0,300.2,86.4Z" fill="#006"/><path d="M304.6,87.6v.7h-.6a1.3,1.3,0,0,1-.8-.3.6.6,0,0,1-.2-.5,5.3,5.3,0,0,1,.1-.8l.6-3h-.7v-.7h.7l.3-1.3,1-.6-.4,1.9h.9v.7h-.8l-.6,2.8v.6a.3.3,0,0,0,.1.2h.8Z" fill="#006"/><path d="M309.7,87.6l-.9.6-.9.2a1.6,1.6,0,0,1-1.1-.4,1.4,1.4,0,0,1-.4-1.1,1.5,1.5,0,0,1,.2-.8l.5-.5.8-.3H309l1.2-.2a2.2,2.2,0,0,0,.1-.6.6.6,0,0,0-.2-.5,1.4,1.4,0,0,0-.9-.2l-.9.2a1.4,1.4,0,0,0-.5.7h-.9a2.3,2.3,0,0,1,.9-1.2,2.5,2.5,0,0,1,1.5-.4,2.3,2.3,0,0,1,1.5.5,1.1,1.1,0,0,1,.4.9,4.4,4.4,0,0,1-.1.9l-.3,1.3a4.8,4.8,0,0,0-.1,1,3.3,3.3,0,0,0,.1.7h-.9A3.2,3.2,0,0,1,309.7,87.6Zm.3-1.9H309l-1.1.2-.5.3a.8.8,0,0,0-.2.5.8.8,0,0,0,.3.6,1,1,0,0,0,.7.2l.8-.2a1.7,1.7,0,0,0,.6-.6A3.7,3.7,0,0,0,310.1,85.7Z" fill="#006"/><path d="M314.8,87.6v.7H314a1.3,1.3,0,0,1-.8-.3.6.6,0,0,1-.2-.5,5.3,5.3,0,0,1,.1-.8l.6-3H313v-.7h.7l.3-1.3,1-.6-.4,1.9h.9v.7h-.8l-.6,2.8v.6a.3.3,0,0,0,.1.2h.8Z" fill="#006"/><path d="M316.4,88.3l1.1-5.1h.9l-1.1,5.1Zm1.3-6,.2-1h.9l-.2,1Z" fill="#006"/><path d="M319.8,86.3a3.6,3.6,0,0,1,.9-2.5,2.4,2.4,0,0,1,1.9-.8,2,2,0,0,1,1.5.6,2.1,2.1,0,0,1,.6,1.6,3.8,3.8,0,0,1-.4,1.6,2.6,2.6,0,0,1-1,1.2,2.6,2.6,0,0,1-1.4.4l-1.1-.3a1.8,1.8,0,0,1-.7-.7A2.2,2.2,0,0,1,319.8,86.3Zm.9-.1a1.6,1.6,0,0,0,.3,1.1,1.1,1.1,0,0,0,.9.4h.6l.5-.3.4-.5.3-.6a3,3,0,0,0,.1-.9,1.5,1.5,0,0,0-.3-1.1,1.1,1.1,0,0,0-.9-.4l-.7.2-.6.6a2.6,2.6,0,0,0-.4.9A3.6,3.6,0,0,0,320.6,86.2Z" fill="#006"/><path d="M326.1,88.3l1.1-5.1h.8l-.2.9,1-.8.9-.2a1.4,1.4,0,0,1,1,.3,1.2,1.2,0,0,1,.4.9,5,5,0,0,1-.1.9l-.6,3.1h-.9L330,85a3.7,3.7,0,0,0,.1-.7.5.5,0,0,0-.2-.4l-.5-.2a1.7,1.7,0,0,0-1.2.5,3.1,3.1,0,0,0-.8,1.6l-.5,2.4Z" fill="#006"/><path d="M332.6,86.5h.9a1.6,1.6,0,0,0,.1.6l.4.4.7.2a1.4,1.4,0,0,0,.9-.2.7.7,0,0,0,.3-.5.6.6,0,0,0-.2-.4l-.9-.5-.9-.4-.5-.5a1.1,1.1,0,0,1-.2-.6,1.3,1.3,0,0,1,.5-1,1.9,1.9,0,0,1,1.3-.4,2.1,2.1,0,0,1,1.5.4,1.5,1.5,0,0,1,.5,1.2h-.8a1,1,0,0,0-.3-.7,1.3,1.3,0,0,0-.9-.3l-.7.2a.6.6,0,0,0-.2.4.5.5,0,0,0,.2.4l.7.4,1.3.7a1.3,1.3,0,0,1,.4,1,1.4,1.4,0,0,1-.2.7,1.6,1.6,0,0,1-.7.6l-1.1.2a2.5,2.5,0,0,1-1.5-.4A1.5,1.5,0,0,1,332.6,86.5Z" fill="#006"/><path d="M338.6,88.3l.2-1h1l-.2,1Z" fill="#006"/><path d="M106.8,52.6h.9l2.7,10.1h-1l-.8-3.5H106l-.8,3.5h-1Zm.5,1.2-1.1,4.5h2.1Z" stroke="#000" stroke-width="0.27"/><path d="M111.5,61.3a2.9,2.9,0,0,0,1.8.8,1.7,1.7,0,0,0,1.1-.4,1.1,1.1,0,0,0,.4-.9.9.9,0,0,0-.3-.7l-1.1-.5a4.2,4.2,0,0,1-1.5-.7,1.5,1.5,0,0,1-.5-1.2,1.8,1.8,0,0,1,.6-1.4,2.3,2.3,0,0,1,1.6-.6,3.5,3.5,0,0,1,1.7.6v1a2.5,2.5,0,0,0-1.7-.7,1.4,1.4,0,0,0-1,.3,1,1,0,0,0-.4.8.8.8,0,0,0,.4.7l1.1.5q1.9.6,1.9,1.9a2,2,0,0,1-.7,1.5,2.5,2.5,0,0,1-1.7.6,3.4,3.4,0,0,1-1.9-.6Z" stroke="#000" stroke-width="0.27"/><path d="M117.4,61.3a2.9,2.9,0,0,0,1.8.8,1.7,1.7,0,0,0,1.1-.4,1.1,1.1,0,0,0,.4-.9.9.9,0,0,0-.3-.7l-1.1-.5a4.2,4.2,0,0,1-1.5-.7,1.5,1.5,0,0,1-.5-1.2,1.8,1.8,0,0,1,.6-1.4,2.3,2.3,0,0,1,1.6-.6,3.5,3.5,0,0,1,1.7.6v1a2.5,2.5,0,0,0-1.7-.7,1.4,1.4,0,0,0-1,.3,1,1,0,0,0-.4.8.8.8,0,0,0,.4.7l1.1.5q1.9.6,1.9,1.9a2,2,0,0,1-.7,1.5,2.5,2.5,0,0,1-1.7.6,3.4,3.4,0,0,1-1.9-.6Z" stroke="#000" stroke-width="0.27"/><path d="M125.8,55.7a2.2,2.2,0,0,1,1.8,1,4.3,4.3,0,0,1,.7,2.6,5.5,5.5,0,0,1-.3,1.8,2.9,2.9,0,0,1-.9,1.3,2.2,2.2,0,0,1-3.2-.5,4.5,4.5,0,0,1-.7-2.6,4.8,4.8,0,0,1,.4-2.1,2.5,2.5,0,0,1,1-1.2Zm.1.8a1.4,1.4,0,0,0-1.3.8,4.3,4.3,0,0,0-.4,2.1,3.9,3.9,0,0,0,.4,1.9,1.3,1.3,0,0,0,1.2.8,1.4,1.4,0,0,0,1.2-.7,3.8,3.8,0,0,0,.5-2.1,3.7,3.7,0,0,0-.5-2A1.3,1.3,0,0,0,125.9,56.5Z" stroke="#000" stroke-width="0.27"/><path d="M134.2,62.4a2.9,2.9,0,0,1-1.5.5,2.3,2.3,0,0,1-2-1,4.1,4.1,0,0,1-.7-2.5,4.3,4.3,0,0,1,.8-2.6,2.4,2.4,0,0,1,2-1.1,2.7,2.7,0,0,1,1.4.4v1a2.1,2.1,0,0,0-1.3-.6,1.7,1.7,0,0,0-1.4.8,3.3,3.3,0,0,0-.6,2,3.6,3.6,0,0,0,.5,1.9,1.6,1.6,0,0,0,1.4.8,2.4,2.4,0,0,0,1.4-.6Z" stroke="#000" stroke-width="0.27"/><path d="M136.5,52.8q.5,0,.5.8t-.5.9-.5-.8T136.5,52.8Zm-.4,3.1h.9v6.9H136Z" stroke="#000" stroke-width="0.27"/><path d="M139.3,56.3a3.8,3.8,0,0,1,1.8-.6,1.9,1.9,0,0,1,1.6.6,2.6,2.6,0,0,1,.5,1.7v3.6q0,.4.4.4h.4v.8l-.7.2q-.9,0-.9-1.1a2.6,2.6,0,0,1-.8.8,1.6,1.6,0,0,1-.9.3,1.7,1.7,0,0,1-1.3-.6,2.1,2.1,0,0,1-.5-1.5,2,2,0,0,1,.7-1.5,5.3,5.3,0,0,1,2.8-.8v-.6a1.4,1.4,0,0,0-.4-1,1.2,1.2,0,0,0-.9-.4,2.9,2.9,0,0,0-1.7.8Zm3,2.9a4.6,4.6,0,0,0-2.1.6,1.3,1.3,0,0,0-.4,1,1.3,1.3,0,0,0,.3.9,1.1,1.1,0,0,0,.8.4,1.2,1.2,0,0,0,1-.6,2.3,2.3,0,0,0,.4-1.4Z" stroke="#000" stroke-width="0.27"/><path d="M145.8,53.8h.8v2.1h1.3v.8h-1.3v4.8a.6.6,0,0,0,.2.5l.5.2.6-.2v.9l-.9.2a1.2,1.2,0,0,1-.9-.3,1.3,1.3,0,0,1-.3-1V56.6h-.9v-.8h.9Z" stroke="#000" stroke-width="0.27"/><path d="M150.1,52.8q.5,0,.5.8t-.5.9-.5-.8T150.1,52.8Zm-.4,3.1h.9v6.9h-.9Z" stroke="#000" stroke-width="0.27"/><path d="M155,55.7a2.2,2.2,0,0,1,1.8,1,4.3,4.3,0,0,1,.7,2.6,5.5,5.5,0,0,1-.3,1.8,2.9,2.9,0,0,1-.9,1.3,2.2,2.2,0,0,1-3.2-.5,4.5,4.5,0,0,1-.7-2.6,4.8,4.8,0,0,1,.4-2.1,2.5,2.5,0,0,1,1-1.2Zm.1.8a1.4,1.4,0,0,0-1.3.8,4.3,4.3,0,0,0-.4,2.1,3.9,3.9,0,0,0,.4,1.9,1.3,1.3,0,0,0,1.2.8,1.4,1.4,0,0,0,1.2-.7,3.8,3.8,0,0,0,.5-2.1,3.7,3.7,0,0,0-.5-2A1.3,1.3,0,0,0,155,56.5Z" stroke="#000" stroke-width="0.27"/><path d="M159.5,55.8h.8v1a2.6,2.6,0,0,1,.8-.9,1.7,1.7,0,0,1,1-.3,1.6,1.6,0,0,1,1.3.6,2.5,2.5,0,0,1,.5,1.6v4.9H163V57.9a1.5,1.5,0,0,0-.3-1,1,1,0,0,0-.8-.4,1.3,1.3,0,0,0-1.1.6,2.3,2.3,0,0,0-.4,1.4v4.2h-.9Z" stroke="#000" stroke-width="0.27"/><path d="M171.3,52.6l2.1,5.6,2.1-5.6h1.1V62.7h-.8V54.6q0-.3,0-.9a21.3,21.3,0,0,1-.7,2.1l-1.7,4.6L172,56.6l-1-2.8q.1,3.3.1,3.6v5.3h-.9V52.6Z" stroke="#000" stroke-width="0.27"/><path d="M179.2,56.3a3.8,3.8,0,0,1,1.8-.6,1.9,1.9,0,0,1,1.6.6,2.6,2.6,0,0,1,.5,1.7v3.6q0,.4.4.4h.4v.8l-.7.2q-.9,0-.9-1.1a2.6,2.6,0,0,1-.8.8,1.6,1.6,0,0,1-.9.3,1.7,1.7,0,0,1-1.3-.6,2.1,2.1,0,0,1-.5-1.5,2,2,0,0,1,.7-1.5,5.3,5.3,0,0,1,2.8-.8v-.6a1.4,1.4,0,0,0-.4-1,1.2,1.2,0,0,0-.9-.4,2.9,2.9,0,0,0-1.7.8Zm3,2.9a4.6,4.6,0,0,0-2.1.6,1.3,1.3,0,0,0-.4,1,1.3,1.3,0,0,0,.3.9,1.1,1.1,0,0,0,.8.4,1.2,1.2,0,0,0,1-.6,2.3,2.3,0,0,0,.4-1.4Z" stroke="#000" stroke-width="0.27"/><path d="M185.5,55.8h.8v1a2.6,2.6,0,0,1,.8-.9,1.7,1.7,0,0,1,1-.3,1.6,1.6,0,0,1,1.3.6,2.5,2.5,0,0,1,.5,1.6v4.9H189V57.9a1.5,1.5,0,0,0-.3-1,1,1,0,0,0-.8-.4,1.3,1.3,0,0,0-1.1.6,2.3,2.3,0,0,0-.4,1.4v4.2h-.9Z" stroke="#000" stroke-width="0.27"/><path d="M192.3,56.3a3.8,3.8,0,0,1,1.8-.6,1.9,1.9,0,0,1,1.6.6,2.6,2.6,0,0,1,.5,1.7v3.6q0,.4.4.4h.4v.8l-.7.2q-.9,0-.9-1.1a2.6,2.6,0,0,1-.8.8,1.6,1.6,0,0,1-.9.3,1.7,1.7,0,0,1-1.3-.6,2.1,2.1,0,0,1-.5-1.5,2,2,0,0,1,.7-1.5,5.3,5.3,0,0,1,2.8-.8v-.6a1.4,1.4,0,0,0-.4-1,1.2,1.2,0,0,0-.9-.4,2.9,2.9,0,0,0-1.7.8Zm3,2.9a4.6,4.6,0,0,0-2.1.6,1.3,1.3,0,0,0-.4,1,1.3,1.3,0,0,0,.3.9,1.1,1.1,0,0,0,.8.4,1.2,1.2,0,0,0,1-.6,2.3,2.3,0,0,0,.4-1.4Z" stroke="#000" stroke-width="0.27"/><path d="M202.5,55.8h.6v7.3a3.1,3.1,0,0,1-.7,2.2,2.3,2.3,0,0,1-1.7.8,3.3,3.3,0,0,1-1.9-.8V64.3a2.8,2.8,0,0,0,1.9,1,1.4,1.4,0,0,0,1.2-.6,2.6,2.6,0,0,0,.4-1.6V61.6a2.7,2.7,0,0,1-.7.8l-.9.3a1.9,1.9,0,0,1-1.7-1,4.8,4.8,0,0,1,.1-5,2.1,2.1,0,0,1,1.7-1l.8.2.7.6Zm-.2,1.5-.6-.6-.7-.2a1.4,1.4,0,0,0-1.2.8,3.6,3.6,0,0,0-.5,2,3.7,3.7,0,0,0,.4,1.9,1.3,1.3,0,0,0,1.2.8,1.2,1.2,0,0,0,1-.6,2.7,2.7,0,0,0,.4-1.6Z" stroke="#000" stroke-width="0.27"/><path d="M209.6,62a3.2,3.2,0,0,1-2,.9,2.2,2.2,0,0,1-1.9-1,4.3,4.3,0,0,1-.7-2.6,4.3,4.3,0,0,1,.7-2.6,2.3,2.3,0,0,1,1.9-1,1.9,1.9,0,0,1,1.6.8,3.4,3.4,0,0,1,.6,2.1V59h-4v.3a3.2,3.2,0,0,0,.5,2,1.5,1.5,0,0,0,1.2.7,2.7,2.7,0,0,0,2-1.1Zm-.7-3.8a1.9,1.9,0,0,0-.4-1.3,1.2,1.2,0,0,0-.9-.4,1.4,1.4,0,0,0-1,.4,2.4,2.4,0,0,0-.7,1.3Z" stroke="#000" stroke-width="0.27"/><path d="M215.6,56.8a2.1,2.1,0,0,1,.7-.9,1.5,1.5,0,0,1,.9-.3,1.4,1.4,0,0,1,1.2.5,2.2,2.2,0,0,1,.4,1.4v5.1h-.9V57.6a1.2,1.2,0,0,0-.3-.8.8.8,0,0,0-.6-.3,1.1,1.1,0,0,0-.9.6,2.1,2.1,0,0,0-.4,1.2v4.4h-.9V57.6a1.3,1.3,0,0,0-.2-.8.8.8,0,0,0-.6-.3,1.1,1.1,0,0,0-1,.5,2.4,2.4,0,0,0-.4,1.4v4.3h-.9V55.8h.8v.9a2.1,2.1,0,0,1,.7-.8l.9-.3a1.4,1.4,0,0,1,.9.3A1.7,1.7,0,0,1,215.6,56.8Z" stroke="#000" stroke-width="0.27"/><path d="M225.3,62a3.2,3.2,0,0,1-2,.9,2.2,2.2,0,0,1-1.9-1,4.3,4.3,0,0,1-.7-2.6,4.3,4.3,0,0,1,.7-2.6,2.3,2.3,0,0,1,1.9-1,1.9,1.9,0,0,1,1.6.8,3.4,3.4,0,0,1,.6,2.1V59h-4v.3a3.2,3.2,0,0,0,.5,2,1.5,1.5,0,0,0,1.2.7,2.7,2.7,0,0,0,2-1.1Zm-.7-3.8a1.9,1.9,0,0,0-.4-1.3,1.2,1.2,0,0,0-.9-.4,1.4,1.4,0,0,0-1,.4,2.4,2.4,0,0,0-.7,1.3Z" stroke="#000" stroke-width="0.27"/><path d="M227.5,55.8h.8v1a2.6,2.6,0,0,1,.8-.9,1.7,1.7,0,0,1,1-.3,1.6,1.6,0,0,1,1.3.6,2.5,2.5,0,0,1,.5,1.6v4.9h-.9V57.9a1.5,1.5,0,0,0-.3-1,1,1,0,0,0-.8-.4,1.3,1.3,0,0,0-1.1.6,2.3,2.3,0,0,0-.4,1.4v4.2h-.9Z" stroke="#000" stroke-width="0.27"/><path d="M234.3,53.8h.8v2.1h1.3v.8h-1.3v4.8a.6.6,0,0,0,.2.5l.5.2.6-.2v.9l-.9.2a1.2,1.2,0,0,1-.9-.3,1.3,1.3,0,0,1-.3-1V56.6h-.9v-.8h.9Z" stroke="#000" stroke-width="0.27"/><path d="M238.9,64.6h-.5a5.2,5.2,0,0,0,.5-1.7l-.4-.3a.9.9,0,0,1-.1-.5,1.3,1.3,0,0,1,.2-.8.6.6,0,0,1,.5-.3.5.5,0,0,1,.4.3,1.6,1.6,0,0,1,.2.8,4.3,4.3,0,0,1-.2,1.2A6.9,6.9,0,0,1,238.9,64.6Z" stroke="#000" stroke-width="0.27"/><path d="M250.4,62.3a3.4,3.4,0,0,1-1.8.6,2.5,2.5,0,0,1-1.7-.7,4,4,0,0,1-1.1-1.9,9.8,9.8,0,0,1-.3-2.6,7.2,7.2,0,0,1,.9-3.8,2.7,2.7,0,0,1,2.4-1.4,3,3,0,0,1,1.7.6v1.2a2.6,2.6,0,0,0-1.7-.9,1.9,1.9,0,0,0-1.7,1.2,7.1,7.1,0,0,0-.6,3.3,6.5,6.5,0,0,0,.6,3,1.8,1.8,0,0,0,1.7,1.2,2.7,2.7,0,0,0,1.8-.9Z" stroke="#000" stroke-width="0.27"/><path d="M254.5,55.7a2.2,2.2,0,0,1,1.8,1,4.3,4.3,0,0,1,.7,2.6,5.5,5.5,0,0,1-.3,1.8,2.9,2.9,0,0,1-.9,1.3,2.2,2.2,0,0,1-3.2-.5,4.5,4.5,0,0,1-.7-2.6,4.8,4.8,0,0,1,.4-2.1,2.5,2.5,0,0,1,1-1.2Zm.1.8a1.4,1.4,0,0,0-1.3.8,4.3,4.3,0,0,0-.4,2.1,3.9,3.9,0,0,0,.4,1.9,1.3,1.3,0,0,0,1.2.8,1.4,1.4,0,0,0,1.2-.7,3.8,3.8,0,0,0,.5-2.1,3.7,3.7,0,0,0-.5-2A1.3,1.3,0,0,0,254.5,56.5Z" stroke="#000" stroke-width="0.27"/><path d="M259,55.8h.8v1a2.6,2.6,0,0,1,.8-.9,1.7,1.7,0,0,1,1-.3,1.6,1.6,0,0,1,1.3.6,2.5,2.5,0,0,1,.5,1.6v4.9h-.9V57.9a1.5,1.5,0,0,0-.3-1,1,1,0,0,0-.8-.4,1.3,1.3,0,0,0-1.1.6,2.3,2.3,0,0,0-.4,1.4v4.2H259Z" stroke="#000" stroke-width="0.27"/><path d="M265.3,61.3a2.9,2.9,0,0,0,1.8.8,1.7,1.7,0,0,0,1.1-.4,1.1,1.1,0,0,0,.4-.9.9.9,0,0,0-.3-.7l-1.1-.5a4.2,4.2,0,0,1-1.5-.7,1.5,1.5,0,0,1-.5-1.2,1.8,1.8,0,0,1,.6-1.4,2.3,2.3,0,0,1,1.6-.6,3.5,3.5,0,0,1,1.7.6v1a2.5,2.5,0,0,0-1.7-.7,1.4,1.4,0,0,0-1,.3,1,1,0,0,0-.4.8.8.8,0,0,0,.4.7l1.1.5q1.9.6,1.9,1.9a2,2,0,0,1-.7,1.5,2.5,2.5,0,0,1-1.7.6,3.4,3.4,0,0,1-1.9-.6Z" stroke="#000" stroke-width="0.27"/><path d="M274.9,55.8h.9v6.9h-.9v-1a2.8,2.8,0,0,1-.8.8l-.9.3a1.6,1.6,0,0,1-1.3-.6,2.5,2.5,0,0,1-.5-1.6V55.8h.9v4.8a1.6,1.6,0,0,0,.3,1,1,1,0,0,0,.8.3,1.3,1.3,0,0,0,1.1-.6,2.6,2.6,0,0,0,.4-1.6Z" stroke="#000" stroke-width="0.27"/><path d="M278.1,52.6h.9V62.7h-.9Z" stroke="#000" stroke-width="0.27"/><path d="M281.4,53.8h.8v2.1h1.3v.8h-1.3v4.8a.6.6,0,0,0,.2.5l.5.2.6-.2v.9l-.9.2a1.2,1.2,0,0,1-.9-.3,1.3,1.3,0,0,1-.3-1V56.6h-.9v-.8h.9Z" stroke="#000" stroke-width="0.27"/><path d="M285.7,52.8q.5,0,.5.8t-.5.9-.5-.8T285.7,52.8Zm-.4,3.1h.9v6.9h-.9Z" stroke="#000" stroke-width="0.27"/><path d="M288.3,55.8h.8v1a2.6,2.6,0,0,1,.8-.9,1.7,1.7,0,0,1,1-.3,1.6,1.6,0,0,1,1.3.6,2.5,2.5,0,0,1,.5,1.6v4.9h-.9V57.9a1.5,1.5,0,0,0-.3-1,1,1,0,0,0-.8-.4,1.3,1.3,0,0,0-1.1.6,2.3,2.3,0,0,0-.4,1.4v4.2h-.9Z" stroke="#000" stroke-width="0.27"/><path d="M298.8,55.8h.6v7.3a3.1,3.1,0,0,1-.7,2.2,2.3,2.3,0,0,1-1.7.8,3.3,3.3,0,0,1-1.9-.8V64.3a2.8,2.8,0,0,0,1.9,1,1.4,1.4,0,0,0,1.2-.6,2.6,2.6,0,0,0,.4-1.6V61.6a2.7,2.7,0,0,1-.7.8l-.9.3a1.9,1.9,0,0,1-1.7-1,4.8,4.8,0,0,1,.1-5,2.1,2.1,0,0,1,1.7-1l.8.2.7.6Zm-.2,1.5-.6-.6-.7-.2a1.4,1.4,0,0,0-1.2.8,3.6,3.6,0,0,0-.5,2,3.7,3.7,0,0,0,.4,1.9,1.3,1.3,0,0,0,1.2.8,1.2,1.2,0,0,0,1-.6,2.7,2.7,0,0,0,.4-1.6Z" stroke="#000" stroke-width="0.27"/><path d="M307.3,56.5v-.3a4.6,4.6,0,0,1-.5-1.7,2.1,2.1,0,0,1,.5-1.5,1.8,1.8,0,0,1,1.4-.6l1.1.2v1a1.8,1.8,0,0,0-1.1-.4,1.1,1.1,0,0,0-.8.3,1.3,1.3,0,0,0-.3.9A3.2,3.2,0,0,0,308,56l2,3.9a11.1,11.1,0,0,0,.3-2.4V57h.8a10.5,10.5,0,0,1-.6,3.8l1,2h-1l-.5-1a2.5,2.5,0,0,1-2.1,1.2A2.3,2.3,0,0,1,306,62a3.2,3.2,0,0,1-.7-2.1,3.5,3.5,0,0,1,.5-1.8A5.4,5.4,0,0,1,307.3,56.5Zm.3.6a4.1,4.1,0,0,0-1.1,1.2,2.8,2.8,0,0,0-.3,1.4,2.7,2.7,0,0,0,.5,1.7,1.5,1.5,0,0,0,1.2.6,2,2,0,0,0,1.6-1.1Z" stroke="#000" stroke-width="0.27"/><path d="M317.2,52.6h4.7v.9h-3.8V57h3.6v.9h-3.6v4h3.8v.9h-4.7Z" stroke="#000" stroke-width="0.27"/><path d="M323.2,55.8h.9l1.5,5.8,1.5-5.8h.9l-2,6.9h-.8Z" stroke="#000" stroke-width="0.27"/><path d="M330.1,56.3a3.8,3.8,0,0,1,1.8-.6,1.9,1.9,0,0,1,1.6.6A2.6,2.6,0,0,1,334,58v3.6q0,.4.4.4h.4v.8l-.7.2q-.9,0-.9-1.1a2.6,2.6,0,0,1-.8.8,1.6,1.6,0,0,1-.9.3,1.7,1.7,0,0,1-1.3-.6,2.1,2.1,0,0,1-.5-1.5,2,2,0,0,1,.7-1.5,5.3,5.3,0,0,1,2.8-.8v-.6a1.4,1.4,0,0,0-.4-1,1.2,1.2,0,0,0-.9-.4,2.9,2.9,0,0,0-1.7.8Zm3,2.9a4.6,4.6,0,0,0-2.1.6,1.3,1.3,0,0,0-.4,1,1.3,1.3,0,0,0,.3.9,1.1,1.1,0,0,0,.8.4,1.2,1.2,0,0,0,1-.6,2.3,2.3,0,0,0,.4-1.4Z" stroke="#000" stroke-width="0.27"/><path d="M336.4,52.6h.9V62.7h-.9Z" stroke="#000" stroke-width="0.27"/><path d="M342.9,55.8h.9v6.9h-.9v-1a2.8,2.8,0,0,1-.8.8,1.7,1.7,0,0,1-.9.3,1.6,1.6,0,0,1-1.3-.6,2.5,2.5,0,0,1-.5-1.6V55.8h.9v4.8a1.6,1.6,0,0,0,.3,1,1,1,0,0,0,.8.3,1.3,1.3,0,0,0,1.1-.6,2.6,2.6,0,0,0,.4-1.6Z" stroke="#000" stroke-width="0.27"/><path d="M346.3,56.3a3.8,3.8,0,0,1,1.8-.6,1.9,1.9,0,0,1,1.6.6,2.6,2.6,0,0,1,.5,1.7v3.6q0,.4.4.4h.4v.8l-.7.2q-.9,0-.9-1.1a2.6,2.6,0,0,1-.8.8,1.6,1.6,0,0,1-.9.3,1.7,1.7,0,0,1-1.3-.6,2.1,2.1,0,0,1-.5-1.5,2,2,0,0,1,.7-1.5,5.3,5.3,0,0,1,2.8-.8v-.6a1.4,1.4,0,0,0-.4-1,1.2,1.2,0,0,0-.9-.4,2.9,2.9,0,0,0-1.7.8Zm3,2.9a4.6,4.6,0,0,0-2.1.6,1.3,1.3,0,0,0-.4,1,1.3,1.3,0,0,0,.3.9,1.1,1.1,0,0,0,.8.4,1.2,1.2,0,0,0,1-.6,2.3,2.3,0,0,0,.4-1.4Z" stroke="#000" stroke-width="0.27"/><path d="M352.8,53.8h.8v2.1h1.3v.8h-1.3v4.8a.6.6,0,0,0,.2.5l.5.2.6-.2v.9l-.9.2a1.2,1.2,0,0,1-.9-.3,1.3,1.3,0,0,1-.3-1V56.6h-.9v-.8h.9Z" stroke="#000" stroke-width="0.27"/><path d="M357.1,52.8q.5,0,.5.8t-.5.9-.5-.8T357.1,52.8Zm-.4,3.1h.9v6.9h-.9Z" stroke="#000" stroke-width="0.27"/><path d="M362,55.7a2.2,2.2,0,0,1,1.8,1,4.3,4.3,0,0,1,.7,2.6,5.5,5.5,0,0,1-.3,1.8,2.9,2.9,0,0,1-.9,1.3,2.2,2.2,0,0,1-3.2-.5,4.5,4.5,0,0,1-.7-2.6,4.8,4.8,0,0,1,.4-2.1,2.5,2.5,0,0,1,1-1.2Zm.1.8a1.4,1.4,0,0,0-1.3.8,4.3,4.3,0,0,0-.4,2.1,3.9,3.9,0,0,0,.4,1.9,1.3,1.3,0,0,0,1.2.8,1.4,1.4,0,0,0,1.2-.7,3.8,3.8,0,0,0,.5-2.1,3.7,3.7,0,0,0-.5-2A1.3,1.3,0,0,0,362,56.5Z" stroke="#000" stroke-width="0.27"/><path d="M366.5,55.8h.8v1a2.6,2.6,0,0,1,.8-.9,1.7,1.7,0,0,1,1-.3,1.6,1.6,0,0,1,1.3.6,2.5,2.5,0,0,1,.5,1.6v4.9H370V57.9a1.5,1.5,0,0,0-.3-1,1,1,0,0,0-.8-.4,1.3,1.3,0,0,0-1.1.6,2.3,2.3,0,0,0-.4,1.4v4.2h-.9Z" stroke="#000" stroke-width="0.27"/><path d="M376.6,60.8l1.2.9.9.2a1.9,1.9,0,0,0,1.3-.6,1.9,1.9,0,0,0,.6-1.5,1.7,1.7,0,0,0-.4-1.1,4,4,0,0,0-1.5-.9q-2.2-.9-2.2-2.6a2.7,2.7,0,0,1,.8-1.9,2.5,2.5,0,0,1,1.9-.8,3.1,3.1,0,0,1,1.8.7v1.3l-1-.8-.8-.2a1.6,1.6,0,0,0-1.2.5,1.7,1.7,0,0,0-.5,1.2,1.4,1.4,0,0,0,.4,1.1,5.6,5.6,0,0,0,1.6.9l1.1.6a2.3,2.3,0,0,1,.7.8,2.7,2.7,0,0,1,.3,1.2,3,3,0,0,1-.9,2.2,2.7,2.7,0,0,1-2,.9,3.7,3.7,0,0,1-2.2-.8Z" stroke="#000" stroke-width="0.27"/><path d="M388,62a3.2,3.2,0,0,1-2,.9,2.2,2.2,0,0,1-1.9-1,4.3,4.3,0,0,1-.7-2.6,4.3,4.3,0,0,1,.7-2.6,2.3,2.3,0,0,1,1.9-1,1.9,1.9,0,0,1,1.6.8,3.4,3.4,0,0,1,.6,2.1V59h-4v.3a3.2,3.2,0,0,0,.5,2,1.5,1.5,0,0,0,1.2.7,2.7,2.7,0,0,0,2-1.1Zm-.7-3.8a1.9,1.9,0,0,0-.4-1.3,1.2,1.2,0,0,0-.9-.4,1.4,1.4,0,0,0-1,.4,2.4,2.4,0,0,0-.7,1.3Z" stroke="#000" stroke-width="0.27"/><path d="M391,56.9a2.6,2.6,0,0,1,.7-.9,1.4,1.4,0,0,1,.8-.3l.7.2v.8l-.7-.2a1.3,1.3,0,0,0-1.1.6,2.6,2.6,0,0,0-.4,1.5v4.1h-.9V55.8h.8Z" stroke="#000" stroke-width="0.27"/><path d="M394.8,55.8h.9l1.5,5.8,1.5-5.8h.9l-2,6.9h-.8Z" stroke="#000" stroke-width="0.27"/><path d="M401.8,52.8q.5,0,.5.8t-.5.9-.5-.8T401.8,52.8Zm-.4,3.1h.9v6.9h-.9Z" stroke="#000" stroke-width="0.27"/><path d="M408.3,62.4a2.9,2.9,0,0,1-1.5.5,2.3,2.3,0,0,1-2-1,4.1,4.1,0,0,1-.7-2.5,4.3,4.3,0,0,1,.8-2.6,2.4,2.4,0,0,1,2-1.1,2.7,2.7,0,0,1,1.4.4v1a2.1,2.1,0,0,0-1.3-.6,1.7,1.7,0,0,0-1.4.8,3.3,3.3,0,0,0-.6,2,3.6,3.6,0,0,0,.5,1.9,1.6,1.6,0,0,0,1.4.8,2.4,2.4,0,0,0,1.4-.6Z" stroke="#000" stroke-width="0.27"/><path d="M414.5,62a3.2,3.2,0,0,1-2,.9,2.2,2.2,0,0,1-1.9-1,4.3,4.3,0,0,1-.7-2.6,4.3,4.3,0,0,1,.7-2.6,2.3,2.3,0,0,1,1.9-1,1.9,1.9,0,0,1,1.6.8,3.4,3.4,0,0,1,.6,2.1V59h-4v.3a3.2,3.2,0,0,0,.5,2,1.5,1.5,0,0,0,1.2.7,2.7,2.7,0,0,0,2-1.1Zm-.7-3.8a1.9,1.9,0,0,0-.4-1.3,1.2,1.2,0,0,0-.9-.4,1.4,1.4,0,0,0-1,.4,2.4,2.4,0,0,0-.7,1.3Z" stroke="#000" stroke-width="0.27"/><path d="M416.3,61.3a2.9,2.9,0,0,0,1.8.8,1.7,1.7,0,0,0,1.1-.4,1.1,1.1,0,0,0,.4-.9.9.9,0,0,0-.3-.7l-1.1-.5a4.2,4.2,0,0,1-1.5-.7,1.5,1.5,0,0,1-.5-1.2,1.8,1.8,0,0,1,.6-1.4,2.3,2.3,0,0,1,1.6-.6,3.5,3.5,0,0,1,1.7.6v1a2.5,2.5,0,0,0-1.7-.7,1.4,1.4,0,0,0-1,.3,1,1,0,0,0-.4.8.8.8,0,0,0,.4.7l1.1.5q1.9.6,1.9,1.9a2,2,0,0,1-.7,1.5,2.5,2.5,0,0,1-1.7.6,3.4,3.4,0,0,1-1.9-.6Z" stroke="#000" stroke-width="0.27"/></svg>