<svg id="Layer_1" data-name="Layer 1" xmlns="http://www.w3.org/2000/svg" width="5in" height="5in" viewBox="0 0 361 361"><title>comp</title><path d="M165.4,285.1c22.2,10.4,40.2,13.1,46.1,5.1s-2.1-24.7-18.8-43c-5,7.8-10.4,15.7-16.2,23.6Q171,278.2,165.4,285.1Z" fill="#be1e2d"/><path d="M108,220.3c-3.8,5.1-7.2,10.2-10.5,15.2a228.4,228.4,0,0,0,30.7,27,243.6,243.6,0,0,0,22.9,15c4.3-5.1,8.5-10.4,12.7-16.1,6.4-8.7,12.2-17.4,17.3-25.9a244,244,0,0,0-20.4-16.9,229.5,229.5,0,0,0-34.2-21.1C120.2,204.6,114,212.2,108,220.3Z" fill="#be1e2d"/><path d="M198.9,155.6c-12.5-9.2-41.6,8.1-70.7,40.1a301.7,301.7,0,0,1,33.5,21.6c7.3,5.4,14.1,10.9,20.4,16.4C203.5,197,211.2,164.7,198.9,155.6Z" fill="#be1e2d"/><path d="M267.6,287.5,348.1,222l-16.7-7.9c-7.3-2.6-5.3-6.7-2.6-16.7l12.3-44.8-46.8,9.8a7.2,7.2,0,0,1-8.3-5l-6-21.1-37,41.5c-5.2,6.7-15.9,6.7-12.6-8.7l15.8-84.1L225,96.1c-5.9,3.3-11.9,3.8-15.2-2.1L180.5,39.2h0L151.2,94c-3.3,5.9-9.3,5.4-15.2,2.1l-21.2-11,15.8,84.1c3.3,15.4-7.3,15.4-12.6,8.7L81,136.4l-6,21.1a7.2,7.2,0,0,1-8.3,5l-46.8-9.8,12.3,44.8c2.6,10,4.7,14.1-2.7,16.7L12.9,222l60.6,49.3c4.3-8.5,9.3-17.4,14.9-26.4-26.5-26.2-40.1-51.3-31.7-62.5s36.2-5.7,69.1,12c38.6-44.5,78.4-69.3,95-57.1s4.5,57.6-26.6,107.6c26.5,26.2,40.1,51.2,31.7,62.5s-36.2,5.7-69.1-12c-6.6,7.6-13.2,14.6-19.7,20.9l33.3-3.9h20.4l80.3,9.3-7.1-23.2A10.8,10.8,0,0,1,267.6,287.5Z" fill="#be1e2d"/><path d="M93.4,287.5a10.6,10.6,0,0,1,3.7,11l-7,23.2,14.5-1.7c11.6-7.2,24.8-18.5,38.1-32.9-7.2-4.4-14.5-9.3-21.8-14.7a302.4,302.4,0,0,1-30.5-25.7,239.4,239.4,0,0,0-13.8,27Z" fill="#be1e2d"/><path d="M77.3,191.1c-5.9,7.9,1.9,24.4,18.4,42.5q4.9-7.3,10.4-14.7c5.8-7.9,11.8-15.4,17.8-22.5C101.5,185.8,83.2,183.1,77.3,191.1Z" fill="#be1e2d"/></svg>