<svg id="Layer_1" data-name="Layer 1" xmlns="http://www.w3.org/2000/svg" width="101.7" height="101.7" viewBox="0 0 101.7 101.7"><title>icsa</title><path d="M10.7,69.6l-.9.3h-1l-1.1-.2-.8-.5a2.2,2.2,0,0,1-.5-.8,3.2,3.2,0,0,1-.2-1.2,2.6,2.6,0,0,1,.7-1.9,2.7,2.7,0,0,1,2-.7h.9l1,.4V66h-.1l-.3-.2-.4-.2-.5-.2H8.7a1.7,1.7,0,0,0-1.4.5,2.5,2.5,0,0,0,0,3,1.9,1.9,0,0,0,1.4.5h.7l.6-.2V68H8.7v-.6h2Z" fill="#2d235e"/><path d="M15.4,68a2.1,2.1,0,0,1-.5,1.5,1.6,1.6,0,0,1-1.3.5,1.6,1.6,0,0,1-1.3-.5,2.5,2.5,0,0,1,0-3,1.6,1.6,0,0,1,1.3-.5,1.6,1.6,0,0,1,1.3.5A2.2,2.2,0,0,1,15.4,68Zm-.7,0a1.7,1.7,0,0,0-.3-1.1,1.1,1.1,0,0,0-1.6,0,2.2,2.2,0,0,0,0,2.2,1.1,1.1,0,0,0,1.6,0A1.7,1.7,0,0,0,14.7,68Z" fill="#2d235e"/><path d="M20,68a2.1,2.1,0,0,1-.5,1.5,1.8,1.8,0,0,1-2.6,0,2.5,2.5,0,0,1,0-3,1.8,1.8,0,0,1,2.6,0A2.2,2.2,0,0,1,20,68Zm-.7,0a1.7,1.7,0,0,0-.3-1.1,1.1,1.1,0,0,0-1.6,0,2.2,2.2,0,0,0,0,2.2,1.1,1.1,0,0,0,1.6,0A1.7,1.7,0,0,0,19.3,68Z" fill="#2d235e"/><path d="M24.4,69.9h-.6v-.4l-.6.4h-.7a1.3,1.3,0,0,1-1.1-.5,2.4,2.4,0,0,1-.4-1.5,2.5,2.5,0,0,1,.1-.9l.4-.6.5-.4h1.2l.5.2V64.6h.6Zm-.6-.9V66.8l-.5-.2h-.4a1,1,0,0,0-.8.4,1.7,1.7,0,0,0-.3,1.1,1.9,1.9,0,0,0,.2,1,.8.8,0,0,0,.7.4h.6Z" fill="#2d235e"/><path d="M33,69.6l-.9.3h-1l-1.1-.2-.8-.5a2.2,2.2,0,0,1-.5-.8,3.2,3.2,0,0,1-.2-1.2,2.6,2.6,0,0,1,.7-1.9,2.7,2.7,0,0,1,2-.7H32l1,.4V66H33l-.3-.2-.4-.2-.5-.2H31a1.7,1.7,0,0,0-1.4.5,2.5,2.5,0,0,0,0,3,1.9,1.9,0,0,0,1.4.5h.7l.6-.2V68H31v-.6h2Z" fill="#2d235e"/><path d="M37.7,68a2.1,2.1,0,0,1-.5,1.5,1.8,1.8,0,0,1-2.6,0,2.5,2.5,0,0,1,0-3,1.8,1.8,0,0,1,2.6,0A2.2,2.2,0,0,1,37.7,68Zm-.7,0a1.7,1.7,0,0,0-.3-1.1,1.1,1.1,0,0,0-1.6,0,2.2,2.2,0,0,0,0,2.2,1.1,1.1,0,0,0,1.6,0A1.7,1.7,0,0,0,37.1,68Z" fill="#2d235e"/><path d="M42.3,66.1l-1.5,3.8h-.6l-1.5-3.8h.7l1.2,3,1.2-3Z" fill="#2d235e"/><path d="M46.6,68.1H43.8a1.6,1.6,0,0,0,.1.6l.3.4.4.2h.5l.8-.2.6-.3h0v.7l-.7.2h-.7a2.1,2.1,0,0,1-1.5-.5,1.9,1.9,0,0,1-.5-1.5,2.1,2.1,0,0,1,.5-1.5A1.8,1.8,0,0,1,45,66a1.5,1.5,0,0,1,1.2.5,1.8,1.8,0,0,1,.4,1.3Zm-.6-.5a1.1,1.1,0,0,0-.3-.8,1,1,0,0,0-.8-.3,1.1,1.1,0,0,0-.8.3,1.2,1.2,0,0,0-.3.8Z" fill="#2d235e"/><path d="M50.2,66.8H49l-.5.3v2.7h-.6V66.1h.6v.6l.7-.4h1.1Z" fill="#2d235e"/><path d="M54.4,69.9h-.6V67.8a3.8,3.8,0,0,0,0-.5v-.4l-.2-.2h-1l-.6.3v2.9h-.6V66.1h.6v.4l.6-.4h.7a1.2,1.2,0,0,1,.9.4,1.6,1.6,0,0,1,.3,1.1Z" fill="#2d235e"/><path d="M58.9,69.9h-.6v-.4l-.2.2-.3.2h-.9a1.2,1.2,0,0,1-.9-.3,1.2,1.2,0,0,1-.4-.9,1.2,1.2,0,0,1,.2-.7l.5-.4.8-.2h1.1a.8.8,0,0,0-.1-.4l-.2-.2H56.6l-.6.2h0v-.7h1.9l.5.2.3.4a1.5,1.5,0,0,1,.1.6Zm-.6-.9V67.9H56.9l-.4.2a.7.7,0,0,0,0,1l.6.2h.6Z" fill="#2d235e"/><path d="M63.6,69.9H63V67.8a3.8,3.8,0,0,0,0-.5v-.4l-.2-.2h-1l-.6.3v2.9h-.6V66.1h.6v.4l.6-.4h.7a1.2,1.2,0,0,1,.9.4,1.6,1.6,0,0,1,.3,1.1Z" fill="#2d235e"/><path d="M68,69.7l-.6.2H66l-.6-.4a1.7,1.7,0,0,1-.4-.6,2.6,2.6,0,0,1-.1-.9,2,2,0,0,1,.5-1.5,1.8,1.8,0,0,1,1.4-.5h.6l.6.2v.7h0l-.6-.4h-.6a1.1,1.1,0,0,0-.9.4,2,2,0,0,0,0,2.1,1.1,1.1,0,0,0,.9.4h.8l.3-.2H68Z" fill="#2d235e"/><path d="M72.3,68.1H69.5a1.6,1.6,0,0,0,.1.6l.3.4.4.2h.5l.8-.2.6-.3h0v.7l-.7.2h-.7a2,2,0,0,1-1.5-.5,1.9,1.9,0,0,1-.5-1.5,2.1,2.1,0,0,1,.5-1.5,1.8,1.8,0,0,1,1.3-.6,1.5,1.5,0,0,1,1.2.5,1.8,1.8,0,0,1,.4,1.3Zm-.6-.5a1.1,1.1,0,0,0-.3-.8,1,1,0,0,0-.8-.3,1.1,1.1,0,0,0-.8.3,1.2,1.2,0,0,0-.3.8Z" fill="#2d235e"/><path d="M80.7,69.9h-.9l-1.7-2h-1v2h-.7V64.8h2.2l.6.2.4.4a1.3,1.3,0,0,1,.2.7,1.5,1.5,0,0,1-.3.9,1.7,1.7,0,0,1-.8.6Zm-1.6-3.7a.9.9,0,0,0-.1-.4l-.3-.3H77.1v1.9h1.2l.4-.2.2-.3A1.3,1.3,0,0,0,79.1,66.3Z" fill="#2d235e"/><path d="M84.7,69.9H84v-.4l-.6.4h-.7a1.2,1.2,0,0,1-.9-.4,1.6,1.6,0,0,1-.3-1.1V66.1h.6v2.2a3.8,3.8,0,0,0,0,.5v.4l.2.2h1L84,69V66.1h.6Z" fill="#2d235e"/><path d="M86.9,69.9h-.6V64.6h.6Z" fill="#2d235e"/><path d="M91.7,68.1H88.9a1.6,1.6,0,0,0,.1.6l.3.4.4.2h.5l.8-.2.6-.3h0v.7l-.7.2h-.7a2,2,0,0,1-1.5-.5,1.9,1.9,0,0,1-.5-1.5,2.1,2.1,0,0,1,.5-1.5,1.8,1.8,0,0,1,1.3-.6,1.5,1.5,0,0,1,1.2.5,1.8,1.8,0,0,1,.4,1.3Zm-.6-.5a1.1,1.1,0,0,0-.3-.8,1,1,0,0,0-.8-.3,1.1,1.1,0,0,0-.8.3,1.2,1.2,0,0,0-.3.8Z" fill="#2d235e"/><path d="M95.7,68.8a1,1,0,0,1-.4.9,1.9,1.9,0,0,1-1.2.3h-.8l-.6-.2V69h0l.7.4h1.4a.5.5,0,0,0,.2-.4.4.4,0,0,0-.1-.3l-.5-.2h-.8l-.7-.4a1,1,0,0,1-.2-.6,1,1,0,0,1,.1-.4l.3-.4.5-.3H95l.6.2V67h0l-.6-.3H93.6a.5.5,0,0,0-.1.8l.5.2h.8l.7.4A.9.9,0,0,1,95.7,68.8Z" fill="#2d235e"/><path d="M16.4,59H6V56.3H9.4v-21H6V32.6H16.4v2.7H12.9v21h3.5Z" fill="#2d235e"/><path d="M43.1,56.6l-1.8.8-2.1.8-2.3.6-2.8.2a16,16,0,0,1-5.2-.8,10.6,10.6,0,0,1-4.1-2.5,11.5,11.5,0,0,1-2.7-4.3,17.4,17.4,0,0,1-1-6,17.2,17.2,0,0,1,.9-5.8,11.8,11.8,0,0,1,2.7-4.3,11.1,11.1,0,0,1,4.1-2.6,14.8,14.8,0,0,1,5.3-.9,17.9,17.9,0,0,1,4.2.5,22.7,22.7,0,0,1,4.7,1.8v4.2h-.3a15.7,15.7,0,0,0-4.3-2.7,12.6,12.6,0,0,0-4.6-.8,9.6,9.6,0,0,0-3.6.6,7.9,7.9,0,0,0-2.9,2,9.2,9.2,0,0,0-1.9,3.4,14.7,14.7,0,0,0-.7,4.7,13.6,13.6,0,0,0,.8,4.8,9.6,9.6,0,0,0,1.9,3.3,7.7,7.7,0,0,0,2.9,1.9,9.8,9.8,0,0,0,3.5.6,12.9,12.9,0,0,0,4.8-.9,13.6,13.6,0,0,0,4.1-2.6h.2Z" fill="#2d235e"/><path d="M68.9,51a7,7,0,0,1-.7,3,7.3,7.3,0,0,1-2,2.6,10.8,10.8,0,0,1-3.3,1.8,14.3,14.3,0,0,1-4.5.6,22.6,22.6,0,0,1-5.1-.5,26,26,0,0,1-4.6-1.6V52.5h.2A14.6,14.6,0,0,0,53.4,55a15.2,15.2,0,0,0,4.9.9,9,9,0,0,0,5.1-1.2,3.8,3.8,0,0,0,1.8-3.3,3.5,3.5,0,0,0-.9-2.6,5.9,5.9,0,0,0-2.6-1.3L58.8,47l-3.3-.6a9.7,9.7,0,0,1-5.2-2.5,6.9,6.9,0,0,1,1.1-10.1,11.5,11.5,0,0,1,7.1-2.1,22.9,22.9,0,0,1,5.1.5,23.4,23.4,0,0,1,4.1,1.3v4.1h-.2a12.2,12.2,0,0,0-4-2.1,15.4,15.4,0,0,0-5-.8A7.9,7.9,0,0,0,54,35.8a3.5,3.5,0,0,0-1.7,3,3.7,3.7,0,0,0,.9,2.6,5.7,5.7,0,0,0,3,1.4l3.2.6,3.5.7a9.2,9.2,0,0,1,4.4,2.4A6.2,6.2,0,0,1,68.9,51Z" fill="#2d235e"/><path d="M95.7,58.5H91.9l-2.6-7.4H77.9l-2.6,7.4H71.8l9.6-26.4h4.7ZM88.3,48.1l-4.6-13L79,48.1Z" fill="#2d235e"/><path d="M34.5,38.3l-1.1,2.1c-.1.2-.3.2-.6.1l-.8-.4.6,3.3c.1.6-.3.6-.5.3l-1.4-1.6-.2.8a.3.3,0,0,1-.3.2l-1.8-.4.5,1.8c.1.4.2.6-.1.7l-.6.3,3,2.6a.4.4,0,0,1,.1.4l-.3.9,3-.4c.1,0,.2.1.2.2v3.3h.5V49.2c0-.1.1-.2.2-.2l3,.4-.3-.9a.4.4,0,0,1,.1-.4l3-2.6-.6-.3c-.3-.1-.2-.3-.1-.7l.5-1.8-1.8.4a.3.3,0,0,1-.3-.2l-.2-.8-1.4,1.6c-.2.3-.6.3-.5-.3l.6-3.3-.8.4c-.2.1-.4.2-.6-.1Z" fill="#e91d26"/></svg>