<svg id="Layer_1" data-name="Layer 1" xmlns="http://www.w3.org/2000/svg" width="661.8" height="111" viewBox="0 0 661.8 111"><title>loyal-rescue-logo</title><path d="M189,71.8h15.6a37.2,37.2,0,0,1-.4,6.2,7,7,0,0,1-2.9,4.4,10.5,10.5,0,0,1-6.4,1.8H174.6a8.4,8.4,0,0,1-6.2-2.2,8.2,8.2,0,0,1-2.2-6.1V22.5l.6-.6h5.3c5.6,0,8.4,3,8.4,9.2V72.2A75.8,75.8,0,0,1,189,71.8Z" fill="#0097a2"/><path d="M243.4,43c4.3,4.3,6.5,10.5,6.5,18.6a33.6,33.6,0,0,1-1.4,9.8,21,21,0,0,1-4.1,7.5,17.5,17.5,0,0,1-6.5,4.8,22.4,22.4,0,0,1-8.9,1.6,20.8,20.8,0,0,1-8.9-1.7,16.9,16.9,0,0,1-6.4-4.8,20.8,20.8,0,0,1-4-7.5,34.7,34.7,0,0,1,0-19.5,22.3,22.3,0,0,1,3.9-7.5,18.6,18.6,0,0,1,6.5-4.9,22.4,22.4,0,0,1,8.9-1.7C234.9,37.7,239.7,39.5,243.4,43ZM229,48.2a5.3,5.3,0,0,0-3.2,1,6.5,6.5,0,0,0-1.9,2.6,12.5,12.5,0,0,0-1,3.7,31.9,31.9,0,0,0-.3,4.5c0,2.6.1,4.7.2,6.6a22.3,22.3,0,0,0,.9,4.5,5.5,5.5,0,0,0,2,2.8,5.8,5.8,0,0,0,8.4-2.6c.9-2.3,1.3-5.6,1.3-9.8s-.4-7.6-1.3-9.9A5,5,0,0,0,229,48.2Z" fill="#0097a2"/><path d="M296.1,40.5l-11,42.3c-1.8,6.5-4.1,11.5-7,14.9s-8.3,6-15.2,6a34.6,34.6,0,0,1-10.9-1.8,15.7,15.7,0,0,1,.6-5.5,11.6,11.6,0,0,1,2.2-4.6,25.6,25.6,0,0,0,8.1,1.4c4.5,0,7.4-2.5,8.9-7.3l.3-1.3q-7.8,0-9.3-5.7L252.3,40.1a19.9,19.9,0,0,1,7.8-1.8c2.4,0,4.1.4,5.2,1.3a8.4,8.4,0,0,1,2.5,4.7l4.1,17.3c.5,1.6,1.1,5.5,2.1,11.8.1.5.3.7.7.7l7.9-34.9a17.9,17.9,0,0,1,5.8-.7,25,25,0,0,1,7.2,1Z" fill="#0097a2"/><path d="M339,77.5a15,15,0,0,1-1.7,4,11.2,11.2,0,0,1-2.6,3.2,11.9,11.9,0,0,1-9.8-4.8q-5.8,5.4-12.6,5.4a16.7,16.7,0,0,1-6.2-1.1,15.5,15.5,0,0,1-4.4-3,12.5,12.5,0,0,1-2.7-4.4,15,15,0,0,1-.9-5.2,16.5,16.5,0,0,1,1.4-6.8,13.7,13.7,0,0,1,3.8-4.8,17.1,17.1,0,0,1,5.7-2.9,22.6,22.6,0,0,1,6.9-1h3.7l2.7.2V54.5c0-3.8-1.9-5.7-5.8-5.7s-6.9,1-13.2,3c-1.8-2.1-3-5.4-3.5-9.9l4.8-1.5a48.8,48.8,0,0,1,5.5-1.2l5.5-.9,4.8-.3a20.5,20.5,0,0,1,6.1.9,13.8,13.8,0,0,1,5.1,2.7,13.5,13.5,0,0,1,3.6,4.8,18.2,18.2,0,0,1,1.3,7V71.6C336.5,74.4,337.3,76.4,339,77.5Zm-27.2-6.8c0,2.9,1.6,4.3,4.9,4.3,1.6,0,3.5-.9,5.6-2.6V65.2l-3-.2h-1.8Q311.8,65,311.8,70.7Z" fill="#0097a2"/><path d="M364.5,73.6H367a18.1,18.1,0,0,1,1.1,6,15.5,15.5,0,0,1-.3,3.9,59.1,59.1,0,0,1-9.6.9q-6.1,0-8.7-3c-1.7-2-2.6-5.2-2.6-9.5V18.4l.5-.7h5.5c2.9,0,4.8.7,6,1.9s1.7,3.5,1.7,6.6V69.4Q360.6,73.6,364.5,73.6Z" fill="#0097a2"/><path d="M440.5,41.5a17.3,17.3,0,0,1-.9,5.6,18,18,0,0,1-2.4,4.8,16.9,16.9,0,0,1-7.7,6.1c3.1,1.1,5.5,3.9,7,8.2l2.7,7.7a13.3,13.3,0,0,0,4.5,6.7,10.2,10.2,0,0,1-4.1,3,14.5,14.5,0,0,1-5.9,1.2,6.6,6.6,0,0,1-5.1-1.9c-1.2-1.2-2.3-3.3-3.3-6.4l-3.2-9.4a10.9,10.9,0,0,0-2.7-4.2,7.8,7.8,0,0,0-5-1.4h-3.7V84a46.7,46.7,0,0,1-7.2.5,45.3,45.3,0,0,1-7.1-.5V23l.6-.7,13.2-.2h8.4a31.6,31.6,0,0,1,9,1.2,18.9,18.9,0,0,1,6.9,3.6,16,16,0,0,1,4.4,6.1A21.3,21.3,0,0,1,440.5,41.5Zm-29.8-8.8V50.4h6.9a11.6,11.6,0,0,0,4.7-1.1,6.8,6.8,0,0,0,2.6-2.7,10.9,10.9,0,0,0,.9-5q0-8.7-8.4-8.7h-6.7Z" fill="#0097a2"/><path d="M483.9,66.1H460.5a10.4,10.4,0,0,0,2,6.2c1.3,1.5,3.4,2.2,6.2,2.2a24.1,24.1,0,0,0,5-.6,46.4,46.4,0,0,0,6.5-2,14.5,14.5,0,0,1,3.7,8.3q-7.2,5.1-17.7,5.1a22.7,22.7,0,0,1-9.5-1.8,16.9,16.9,0,0,1-6.2-5,19.2,19.2,0,0,1-3.3-7.7,41,41,0,0,1-1-9.6,33.8,33.8,0,0,1,1.2-9.3,19.8,19.8,0,0,1,3.7-7.4,16.5,16.5,0,0,1,6.3-5,20.5,20.5,0,0,1,8.9-1.8,19.4,19.4,0,0,1,7.8,1.5,16,16,0,0,1,5.9,3.9,16.8,16.8,0,0,1,3.7,6,21.5,21.5,0,0,1,1.4,7.7A31.4,31.4,0,0,1,483.9,66.1Zm-23.5-9.8h11.8v-.9a9.2,9.2,0,0,0-1.5-5.5,4.8,4.8,0,0,0-4.4-2.2,5.1,5.1,0,0,0-4.3,2C461.1,51.1,460.6,53.3,460.4,56.3Z" fill="#0097a2"/><path d="M490,80.9a17.8,17.8,0,0,1,1.2-5.1,13.2,13.2,0,0,1,2.7-4.4c4.8,2.5,8.9,3.8,12.5,3.8a7,7,0,0,0,3.9-.9,2.6,2.6,0,0,0,1.3-2.3c0-1.8-1.4-3.1-4.1-4l-5-1.9c-7.5-2.8-11.2-7.3-11.2-13.5,0-4.6,1.5-8.2,4.7-10.9s7.4-4,12.7-4a41.5,41.5,0,0,1,8.8,1.1,43.8,43.8,0,0,1,7.8,2.7,12.6,12.6,0,0,1-1,5.5,9.8,9.8,0,0,1-2.9,4.3c-5-2.3-9.2-3.4-12.6-3.4a4.1,4.1,0,0,0-2.7.8,2.4,2.4,0,0,0-1,2.1c0,1.4,1.2,2.5,3.4,3.4l5.6,2c8,2.8,12,7.6,12,14.5a13.1,13.1,0,0,1-5,10.7q-5,3.9-14.1,3.9A33.4,33.4,0,0,1,490,80.9Z" fill="#0097a2"/><path d="M555.9,59V57.8a19.1,19.1,0,0,0-1.1-7.4c-.7-1.5-2.1-2.2-4.1-2.2a4.5,4.5,0,0,0-4.4,3.1c-.8,2-1.2,5.5-1.2,10.3a25.8,25.8,0,0,0,.5,6,11.8,11.8,0,0,0,1.4,3.9,5.6,5.6,0,0,0,2.4,2.2,9,9,0,0,0,3.4.6,13.8,13.8,0,0,0,4.6-.9,23.3,23.3,0,0,0,5.4-2.8,8.6,8.6,0,0,1,1.7,1.3,9.7,9.7,0,0,1,1.5,1.9,17.1,17.1,0,0,1,1.3,2.3,12.7,12.7,0,0,1,.8,2.3,20.2,20.2,0,0,1-7.7,5,25.4,25.4,0,0,1-9.7,1.9c-6.5,0-11.4-2.1-14.8-6.3s-5.1-10.1-5.1-17.9a29.3,29.3,0,0,1,1.6-10.3,20.9,20.9,0,0,1,4.4-7.3,18.6,18.6,0,0,1,6.3-4.3,19.3,19.3,0,0,1,7.5-1.5,23.6,23.6,0,0,1,7.2,1.1,15.7,15.7,0,0,1,5.7,3.1,13.1,13.1,0,0,1,3.7,4.7,14.8,14.8,0,0,1,1.3,6.1,6.3,6.3,0,0,1-2.2,5.3,9.6,9.6,0,0,1-5.5,1.5A24.6,24.6,0,0,1,555.9,59Z" fill="#0097a2"/><path d="M575.9,68.8V50.3q0-5.8-2.1-9a11.6,11.6,0,0,1,8.1-3c3.2,0,5.3.8,6.5,2.2s1.7,3.6,1.7,6.6V66.2a10,10,0,0,0,.7,4.5c.5,1,1.7,1.5,3.8,1.5s4-1,6-3.1v-30a35.4,35.4,0,0,1,6.9-.6,37.6,37.6,0,0,1,7.1.6v32c0,3.2.9,5.4,2.6,6.6a15.9,15.9,0,0,1-1.7,3.9,12.2,12.2,0,0,1-2.7,3.1c-4.9-.2-8.4-2.3-10.6-6.3-4.7,4.3-9.2,6.4-13.4,6.4s-7.4-1.5-9.6-4.4S575.9,73.6,575.9,68.8Z" fill="#0097a2"/><path d="M660.6,66.1H637.2a10.4,10.4,0,0,0,2.1,6.2c1.3,1.5,3.3,2.2,6.2,2.2a24.9,24.9,0,0,0,5-.6,56.3,56.3,0,0,0,6.5-2,14.4,14.4,0,0,1,3.6,8.3c-4.8,3.4-10.6,5.1-17.6,5.1a22.4,22.4,0,0,1-9.5-1.8,16.9,16.9,0,0,1-6.2-5,20.8,20.8,0,0,1-3.4-7.7,47.2,47.2,0,0,1-1-9.6,33.8,33.8,0,0,1,1.2-9.3,23.3,23.3,0,0,1,3.7-7.4,18.2,18.2,0,0,1,6.3-5,21.3,21.3,0,0,1,9-1.8,19.4,19.4,0,0,1,7.8,1.5,16.9,16.9,0,0,1,5.9,3.9,18.4,18.4,0,0,1,3.7,6,21.5,21.5,0,0,1,1.3,7.7A31.4,31.4,0,0,1,660.6,66.1Zm-23.5-9.8h11.8v-.9a9.9,9.9,0,0,0-1.4-5.5,5,5,0,0,0-4.5-2.2,4.8,4.8,0,0,0-4.2,2A14.3,14.3,0,0,0,637.1,56.3Z" fill="#0097a2"/><g id="logo"><path d="M91.1.1c-7.9-.6-23.2,2.8-30.7,18C52.9,2.9,37.6-.5,29.7.1S-2.5,6.4.2,36.9C3.6,75,53,99.6,60.4,111c7.4-11.4,56.8-36,60.2-74.1C123.3,6.4,99.6.6,91.1.1ZM59.7,82.2A2.7,2.7,0,0,1,58.5,84a4.5,4.5,0,0,1-2.7.7H47.4a3.3,3.3,0,0,1-2.5-.9,3.4,3.4,0,0,1-1-2.5V59.2l.3-.3h2.2c2.3,0,3.5,1.3,3.5,3.8V79.8l3.5-.2h6.5A19.7,19.7,0,0,1,59.7,82.2Zm20.1,2.3a6,6,0,0,1-2.4.5,2.9,2.9,0,0,1-2.1-.8,6.7,6.7,0,0,1-1.4-2.7l-1.3-3.9a5.6,5.6,0,0,0-1.1-1.7,3.3,3.3,0,0,0-2.1-.6H67.9v9.3a12.6,12.6,0,0,1-3,.3,11.2,11.2,0,0,1-2.9-.3V59.4l.2-.3h9a11,11,0,0,1,3.7.6A6.3,6.3,0,0,1,77.7,61a6.9,6.9,0,0,1,1.9,2.5,9.5,9.5,0,0,1,.6,3.5,6.4,6.4,0,0,1-.4,2.4,5.6,5.6,0,0,1-.9,1.9,7.5,7.5,0,0,1-1.5,1.6l-1.7,1c1.3.4,2.2,1.6,2.8,3.4l1.2,3.2a5.4,5.4,0,0,0,1.8,2.7A4,4,0,0,1,79.8,84.5Zm22.6-45.3a12.1,12.1,0,0,1,2.1,7.3,12.3,12.3,0,0,1-24.3,2.3,3.5,3.5,0,0,0-3.4-2.6H44a3.5,3.5,0,0,0-3.4,2.6,12.3,12.3,0,0,1-24.3-2.3,12.1,12.1,0,0,1,2.1-7.3,4.2,4.2,0,0,0,0-5,12.3,12.3,0,1,1,22.2-9.6A3.5,3.5,0,0,0,44,27.2H76.8a3.5,3.5,0,0,0,3.4-2.6,12.3,12.3,0,1,1,22.2,9.6A4.2,4.2,0,0,0,102.4,39.2Z" fill="#0097a2"/><path d="M70.6,63.4H67.9v7.3h2.9a5.3,5.3,0,0,0,1.9-.5,2.3,2.3,0,0,0,1.1-1.1,5.3,5.3,0,0,0,.3-2C74.1,64.6,73,63.4,70.6,63.4Z" fill="#0097a2"/></g></svg>