<svg id="Layer_1" data-name="Layer 1" xmlns="http://www.w3.org/2000/svg" xmlns:xlink="http://www.w3.org/1999/xlink" width="181" height="181" viewBox="0 0 181 181"><defs><linearGradient id="linear-gradient" x1="23.97" y1="129.89" x2="95.48" y2="58.38" gradientUnits="userSpaceOnUse"><stop offset="0" stop-color="#f37921"/><stop offset="0.8" stop-color="#eb2727"/></linearGradient></defs><title>opc</title><path d="M11.2,124.5a4.4,4.4,0,0,1,4.5,4.4,4.5,4.5,0,1,1-9,0A4.4,4.4,0,0,1,11.2,124.5Zm0,7.9a3.3,3.3,0,0,0,3.2-3.4,3.2,3.2,0,1,0-6.4,0A3.3,3.3,0,0,0,11.2,132.4Z" fill="#414142"/><path d="M17.4,127.1h1.2v1.1a4.6,4.6,0,0,1,0,.5h0a2.1,2.1,0,0,1,2-1.6h.3v1.2h-.3a1.9,1.9,0,0,0-1.8,1.5,3.8,3.8,0,0,0-.1,1.1v2.6H17.4Z" fill="#414142"/><path d="M22.5,128.1h-.8v-1h.9v-1.8h1.2v1.8h1.5v1H23.7v2.8a1.2,1.2,0,0,0,1.3,1.4h.3v1.1h-.4a2.2,2.2,0,0,1-2.4-2.3Z" fill="#414142"/><path d="M26.6,124.6h1.2v3.2c0,.3,0,.5,0,.5h0a2.5,2.5,0,0,1,2.3-1.4c1.5,0,2.2.8,2.2,2.4v4H31.1v-3.7c0-.9-.2-1.6-1.2-1.6a2.1,2.1,0,0,0-2,1.5,2.9,2.9,0,0,0-.1.8v2.9H26.6Z" fill="#414142"/><path d="M37.1,127a3.3,3.3,0,1,1-3.4,3.3A3.3,3.3,0,0,1,37.1,127Zm0,5.5a2.2,2.2,0,1,0-2.1-2.3A2.2,2.2,0,0,0,37.1,132.5Z" fill="#414142"/><path d="M42.1,128.1h-.8v-1h.9v-1.8h1.2v1.8h1.5v1H43.3v2.8a1.2,1.2,0,0,0,1.3,1.4h.3v1.1h-.4a2.2,2.2,0,0,1-2.4-2.3Z" fill="#414142"/><path d="M46.2,124.6h1.2v1.2H46.2Zm0,2.5h1.2v6.3H46.2Z" fill="#414142"/><path d="M52.2,127a3.2,3.2,0,0,1,2.3.9l-.6.8a2.5,2.5,0,0,0-1.7-.7,2.1,2.1,0,0,0-2.2,2.2,2.2,2.2,0,0,0,2.2,2.3,2.8,2.8,0,0,0,1.9-.8l.5.9a3.4,3.4,0,0,1-2.5,1,3.3,3.3,0,1,1,0-6.5Z" fill="#414142"/><path d="M56.3,131.7a2.7,2.7,0,0,0,1.8.7c.5,0,1-.3,1-.8s-3.2-.9-3.2-3,1-1.8,2.3-1.8a2.8,2.8,0,0,1,2,.7l-.5.9a2.3,2.3,0,0,0-1.5-.6c-.5,0-1,.2-1,.8s3.2.9,3.2,2.9-.9,1.8-2.3,1.8a3.4,3.4,0,0,1-2.4-.9Z" fill="#414142"/><path d="M65.2,124.6h3.2a2.6,2.6,0,0,1,2.7,2.7,2.6,2.6,0,0,1-2.7,2.8h-2v3.2H65.2Zm3,4.4a1.6,1.6,0,0,0,1.7-1.7,1.5,1.5,0,0,0-1.7-1.7H66.4v3.4Z" fill="#414142"/><path d="M72.4,127.1h1.2v1.1a4.5,4.5,0,0,1,0,.5h0a2.1,2.1,0,0,1,2-1.6h.3v1.2h-.3a1.9,1.9,0,0,0-1.8,1.5,3.8,3.8,0,0,0-.1,1.1v2.6H72.4Z" fill="#414142"/><path d="M79.9,127a3.3,3.3,0,1,1-3.4,3.3A3.3,3.3,0,0,1,79.9,127Zm0,5.5a2.2,2.2,0,1,0-2.1-2.3A2.2,2.2,0,0,0,79.9,132.5Z" fill="#414142"/><path d="M84.8,131.7a2.7,2.7,0,0,0,1.8.7c.5,0,1-.3,1-.8s-3.2-.9-3.2-3,1-1.8,2.3-1.8a2.8,2.8,0,0,1,2,.7l-.5.9a2.3,2.3,0,0,0-1.5-.6c-.5,0-1,.2-1,.8s3.2.9,3.2,2.9-.9,1.8-2.3,1.8a3.4,3.4,0,0,1-2.4-.9Z" fill="#414142"/><path d="M90.6,128.1h-.8v-1h.9v-1.8h1.2v1.8h1.5v1H91.8v2.8a1.2,1.2,0,0,0,1.3,1.4h.3v1.1H93a2.2,2.2,0,0,1-2.4-2.3Z" fill="#414142"/><path d="M94.7,124.6h1.2v3.2a5.1,5.1,0,0,1,0,.5h0a2.5,2.5,0,0,1,2.3-1.4c1.5,0,2.1.8,2.1,2.4v4H99.2v-3.7c0-.9-.2-1.6-1.2-1.6a2.1,2.1,0,0,0-2,1.5,2.9,2.9,0,0,0-.1.8v2.9H94.7Z" fill="#414142"/><path d="M105,127a2.7,2.7,0,0,1,2.7,2.9c0,.2,0,.5,0,.5h-4.6a2,2,0,0,0,2.1,2.1,3,3,0,0,0,1.9-.7l.5.9a3.7,3.7,0,0,1-2.4.9,3.2,3.2,0,0,1-3.3-3.3A3.1,3.1,0,0,1,105,127Zm1.5,2.5a1.5,1.5,0,0,0-1.5-1.6,1.8,1.8,0,0,0-1.8,1.6Z" fill="#414142"/><path d="M109.4,128.1h-.8v-1h.9v-1.8h1.2v1.8h1.5v1h-1.5v2.8a1.2,1.2,0,0,0,1.3,1.4h.3v1.1h-.4a2.2,2.2,0,0,1-2.4-2.3Z" fill="#414142"/><path d="M113.5,124.6h1.2v1.2h-1.2Zm0,2.5h1.2v6.3h-1.2Z" fill="#414142"/><path d="M119.5,127a3.2,3.2,0,0,1,2.3.9l-.6.8a2.5,2.5,0,0,0-1.7-.7,2.1,2.1,0,0,0-2.2,2.2,2.2,2.2,0,0,0,2.2,2.3,2.8,2.8,0,0,0,1.9-.8l.5.9a3.4,3.4,0,0,1-2.5,1,3.3,3.3,0,1,1,0-6.5Z" fill="#414142"/><path d="M123.6,131.7a2.7,2.7,0,0,0,1.8.7c.5,0,1-.3,1-.8s-3.2-.9-3.2-3,1-1.8,2.3-1.8a2.8,2.8,0,0,1,2,.7l-.5.9a2.3,2.3,0,0,0-1.5-.6c-.5,0-1,.2-1,.8s3.2.9,3.2,2.9-.9,1.8-2.3,1.8a3.4,3.4,0,0,1-2.4-.9Z" fill="#414142"/><path d="M136.3,124.5a4.5,4.5,0,0,1,3.2,1.1l-.6.9a4,4,0,0,0-2.5-1,3.2,3.2,0,0,0-3.2,3.3,3.3,3.3,0,0,0,3.2,3.4,3.9,3.9,0,0,0,2.7-1.1l.7.9a4.7,4.7,0,0,1-3.4,1.4,4.5,4.5,0,0,1,0-9Z" fill="#414142"/><path d="M144.6,129.4h.3a1.2,1.2,0,0,0-1.4-1.4,3.2,3.2,0,0,0-1.7.6l-.5-.9a3.9,3.9,0,0,1,2.3-.7,2.2,2.2,0,0,1,2.5,2.4v4H145v-.6a4.6,4.6,0,0,1,0-.5h0a2.2,2.2,0,0,1-2,1.2,2,2,0,0,1-2.1-1.9C140.8,129.5,143.6,129.4,144.6,129.4Zm-1.4,3.1a1.9,1.9,0,0,0,1.7-2v-.2h-.3c-.9,0-2.5.1-2.5,1.2A1,1,0,0,0,143.2,132.5Z" fill="#414142"/><path d="M147.9,127.1h1.2v.8a4.3,4.3,0,0,1,0,.5h0a2.5,2.5,0,0,1,2.3-1.4c1.5,0,2.1.8,2.1,2.4v4h-1.2v-3.7c0-.9-.2-1.6-1.2-1.6a2,2,0,0,0-2,1.5,2.9,2.9,0,0,0-.1.8v2.9h-1.2Z" fill="#414142"/><path d="M158.7,129.4h.3a1.2,1.2,0,0,0-1.4-1.4,3.2,3.2,0,0,0-1.7.6l-.5-.9a3.9,3.9,0,0,1,2.3-.7,2.2,2.2,0,0,1,2.5,2.4v4h-1.1v-.6a4.6,4.6,0,0,1,0-.5h0a2.2,2.2,0,0,1-2,1.2,2,2,0,0,1-2.1-1.9C155,129.5,157.7,129.4,158.7,129.4Zm-1.4,3.1a1.9,1.9,0,0,0,1.7-2v-.2h-.3c-.9,0-2.5.1-2.5,1.2A1,1,0,0,0,157.4,132.5Z" fill="#414142"/><path d="M164.5,127a2.1,2.1,0,0,1,1.9,1h0a3.6,3.6,0,0,1,0-.4v-2.9h1.2v8.7h-1.1v-.6c0-.2,0-.4,0-.4h0a2.2,2.2,0,0,1-2.1,1.2c-1.7,0-2.8-1.3-2.8-3.3S162.9,127,164.5,127Zm.2,5.5c.9,0,1.8-.7,1.8-2.3s-.6-2.2-1.8-2.2-1.8.8-1.8,2.2S163.7,132.5,164.7,132.5Z" fill="#414142"/><path d="M172.9,129.4h.3a1.2,1.2,0,0,0-1.4-1.4,3.2,3.2,0,0,0-1.7.6l-.5-.9a3.9,3.9,0,0,1,2.3-.7,2.2,2.2,0,0,1,2.5,2.4v4h-1.1v-.6a4.6,4.6,0,0,1,0-.5h0a2.2,2.2,0,0,1-2,1.2,2,2,0,0,1-2.1-1.9C169.1,129.5,171.8,129.4,172.9,129.4Zm-1.4,3.1a1.9,1.9,0,0,0,1.7-2v-.2h-.3c-.9,0-2.5.1-2.5,1.2A1,1,0,0,0,171.5,132.5Z" fill="#414142"/><path d="M6.6,112.6S28.9,78.8,60.2,78.8c7.4,0,9,5.3,3.3,13s-9.3,15.1-4.7,20.8c-1.8-1.1-6.8-5.3-1.4-17.5,1.2-3.2,7.7-12.5-14.9-7.2S6.6,112.6,6.6,112.6ZM65.1,65.4C33.1,66.7,17.7,91.6,17.7,91.6S33,70.9,66.2,71.1c11.5.1,29.4-5.2,19.2-22.8C85.4,48.3,92,64.3,65.1,65.4ZM79,50.4c-.9-2.7-5.1-3.7-9.5-2.3s-7.2,4.7-6.4,7.4,5.1,3.7,9.5,2.3S79.8,53.1,79,50.4Zm17,52.4h.4V99.4c.1-.1.2,0,.2,0l3.3.6-.4-1.1a.7.7,0,0,1,0-.5h.1l3.3-2.5h-.3a.6.6,0,0,1-.5-.6l.5-2-1.3.3a.7.7,0,0,1-.7-.1,4,4,0,0,1-.4-.9l-1.6,1.6c-.2.2-.5.1-.5-.3s.7-3.6.7-3.6-1,.8-1.3.6A26.7,26.7,0,0,1,96,88.4a24.8,24.8,0,0,1-1.4,2.4c-.3.3-1.3-.6-1.3-.6l.7,3.6c0,.4-.3.5-.5.3L92,92.4a4.9,4.9,0,0,1-.4.9.8.8,0,0,1-.7.1l-1.3-.3s.5,1.7.5,2-.1.5-.5.6h-.3l3.3,2.5h.1a.6.6,0,0,1,0,.5,10.2,10.2,0,0,1-.4,1.1l3.3-.6s.1-.1.2,0l-.2,3.4H96" fill="url(#linear-gradient)"/><path d="M96,78.8a16.5,16.5,0,0,1,16.9,16.6,16.9,16.9,0,1,1-33.7,0A16.5,16.5,0,0,1,96,78.8Zm0,28.3c6,0,10.7-5,10.7-11.7S102,84.2,96,84.2,85.3,89,85.3,95.4,90.1,107.1,96,107.1Z" fill="#414142"/><path d="M118,79.3h12.6c6.1,0,10.4,4.3,10.4,10.6s-4.3,10.7-10.4,10.7h-6.7v11.2H118Zm11.5,16.2c3.4,0,5.5-2.2,5.5-5.6s-2-5.5-5.4-5.5h-5.6V95.5Z" fill="#414142"/><path d="M161.5,78.8c7.9,0,12,4.5,12,4.5l-2.8,4.4a14.4,14.4,0,0,0-8.9-3.4c-6.9,0-10.9,5.1-10.9,11.2s4.2,11.7,11,11.7a14,14,0,0,0,9.5-4.1l3.1,4.3a17.5,17.5,0,0,1-12.8,5.3c-10,0-16.9-7.4-16.9-17A16.4,16.4,0,0,1,161.5,78.8Z" fill="#414142"/></svg>