<svg id="Layer_1" data-name="Layer 1" xmlns="http://www.w3.org/2000/svg" width="494.5" height="494.5" viewBox="0 0 494.5 494.5"><title>osba</title><path d="M340.6,135a94.2,94.2,0,1,1-94.2-94.2A94.2,94.2,0,0,1,340.6,135Z" fill="#f47d30" stroke="#fff" stroke-width="1.13"/><path d="M38.4,277.2C38.4,254,50,239.9,67,233.1s29.2-2.1,29.2,21.2q0,16.9,0,33.8c0,23.4-12.2,35.5-29.2,42.2s-28.7,4-28.7-19.3Zm17.3,28.4c0,10.5,4.4,11.5,11.4,8.7s11.5-7.2,11.5-17.7V258.1c0-10.5-4.5-11.8-11.5-9s-11.4,7.6-11.4,18Z" fill="#5e0d8b"/><path d="M161.9,207.6v16q-10.7,1.9-21.3,4.2v78.6q-9.1,2-18.1,4.4V232.3q-10.5,2.8-21,6v-16A490.2,490.2,0,0,1,161.9,207.6Z" fill="#5e0d8b"/><path d="M233.2,200.4v16q-10.8.3-21.6,1.1V296q-9.2.7-18.5,1.7V219.1q-10.8,1.2-21.5,2.9V206A490.8,490.8,0,0,1,233.2,200.4Z" fill="#5e0d8b"/><path d="M226.4,295.2q12-47.8,24-95,11.9.1,23.8.7,11.7,47.9,23.3,96.4-8.8-.9-17.7-1.5l-4.7-20.2q-12.8-.7-25.6-.8l-5.2,19.9Q235.3,294.8,226.4,295.2Zm26.4-36.3q9.2.1,18.4.6l-9-38.6H262Z" fill="#5e0d8b"/><path d="M291,202.1q8.6.8,17.1,1.8L321,267.6h.3L334.5,208q8.8,1.6,17.6,3.5,6.6,32.4,13.2,64.9h.3L378,217.9q8.4,2.3,16.8,5l-20.6,88.6q-8.7-2.3-17.5-4.3-6.6-33.9-13.3-67.6h-.3l-14.4,62.1q-8.8-1.5-17.6-2.6Q301.1,250.3,291,202.1Z" fill="#5e0d8b"/><path d="M388.7,315.6l23.1-87q11.4,4,22.6,8.7,11,51.8,21.8,104.2-8.2-3.9-16.5-7.4l-4.4-21.8q-12.1-5-24.3-9.3l-5,18.2Q397.3,318.2,388.7,315.6Zm25.4-27.5q8.8,3.2,17.5,6.7l-8.5-41.6h-.3Z" fill="#5e0d8b"/><path d="M38.4,277.2C38.4,254,50,239.9,67,233.1s29.2-2.1,29.2,21.2q0,16.9,0,33.8c0,23.4-12.2,35.5-29.2,42.2s-28.7,4-28.7-19.3Zm17.3,28.4c0,10.5,4.4,11.5,11.4,8.7s11.5-7.2,11.5-17.7V258.1c0-10.5-4.5-11.8-11.5-9s-11.4,7.6-11.4,18Z" fill="#5e0d8b"/><path d="M161.9,207.6v16q-10.7,1.9-21.3,4.2v78.6q-9.1,2-18.1,4.4V232.3q-10.5,2.8-21,6v-16A490.2,490.2,0,0,1,161.9,207.6Z" fill="#5e0d8b"/><path d="M233.2,200.4v16q-10.8.3-21.6,1.1V296q-9.2.7-18.5,1.7V219.1q-10.8,1.2-21.5,2.9V206A490.8,490.8,0,0,1,233.2,200.4Z" fill="#5e0d8b"/><path d="M226.4,295.2q12-47.8,24-95,11.9.1,23.8.7,11.7,47.9,23.3,96.4-8.8-.9-17.7-1.5l-4.7-20.2q-12.8-.7-25.6-.8l-5.2,19.9Q235.3,294.8,226.4,295.2Zm26.4-36.3q9.2.1,18.4.6l-9-38.6H262Z" fill="#5e0d8b"/><path d="M291,202.1q8.6.8,17.1,1.8L321,267.6h.3L334.5,208q8.8,1.6,17.6,3.5,6.6,32.4,13.2,64.9h.3L378,217.9q8.4,2.3,16.8,5l-20.6,88.6q-8.7-2.3-17.5-4.3-6.6-33.9-13.3-67.6h-.3l-14.4,62.1q-8.8-1.5-17.6-2.6Q301.1,250.3,291,202.1Z" fill="#5e0d8b"/><path d="M388.7,315.6l23.1-87q11.4,4,22.6,8.7,11,51.8,21.8,104.2-8.2-3.9-16.5-7.4l-4.4-21.8q-12.1-5-24.3-9.3l-5,18.2Q397.3,318.2,388.7,315.6Zm25.4-27.5q8.8,3.2,17.5,6.7l-8.5-41.6h-.3Z" fill="#5e0d8b"/><path d="M79.7,230.3c10.1,0,16.6,7.1,16.6,24q0,16.9,0,33.8c0,23.4-12.2,35.5-29.2,42.2-5.2,2-9.8,3.2-13.8,3.2-9.2,0-14.9-6.2-14.9-22.5V277.2C38.4,254,50,239.9,67,233.1a35.3,35.3,0,0,1,12.7-2.8M61.5,315.7a15.7,15.7,0,0,0,5.5-1.3c7-2.8,11.5-7.2,11.5-17.7V258.1c0-7.5-2.3-10.2-6.1-10.2a15.2,15.2,0,0,0-5.4,1.3c-7,2.8-11.4,7.6-11.4,18v38.5c0,7.3,2.2,10,5.8,10m18.2-88.9h0a38.8,38.8,0,0,0-14,3.1c-9.6,3.8-17.1,9.5-22.3,17.1s-8.6,18.4-8.6,30.2V311c0,8.7,1.5,15,4.6,19.4s7.8,6.6,13.7,6.6c4.3,0,9.2-1.1,15.1-3.5,21.2-8.3,31.5-23.2,31.4-45.4q0-16.9,0-33.8c0-8.9-1.7-15.8-5.2-20.5s-8.6-7.1-14.9-7.1ZM61.5,312.2c-.9,0-1.1-.2-1.3-.6s-1-2.1-1-5.9V267.2c0-9.2,3.7-12.6,9.2-14.8a12,12,0,0,1,4.1-1c1,0,1.3.3,1.5.7s1.1,2.2,1.1,6v38.5c0,9-3.5,12.2-9.3,14.5a12.6,12.6,0,0,1-4.3,1.1Z" fill="#5e0d8b"/><path d="M161.9,207.6v16q-10.7,1.9-21.3,4.2v78.6q-9.1,2-18.1,4.4V232.3q-10.5,2.8-21,6v-16a490.2,490.2,0,0,1,60.4-14.7m3.5-4.2-4.1.7A495.5,495.5,0,0,0,100.5,219l-2.5.8V243l4.5-1.4c5.4-1.7,10.9-3.3,16.4-4.8v78.6l4.4-1.2c6-1.6,12-3,18-4.4l2.7-.6V230.7c6.1-1.3,12.3-2.5,18.4-3.6l2.9-.5V203.5Z" fill="#5e0d8b"/><path d="M233.2,200.4v16q-10.8.3-21.6,1.1V296q-9.2.7-18.5,1.7V219.1q-10.8,1.2-21.5,2.9V206a490.8,490.8,0,0,1,61.5-5.7m3.5-3.6h-3.6a496.1,496.1,0,0,0-62,5.7l-3,.5v23.1l4-.6c5.8-.9,11.6-1.7,17.4-2.4v78.6l3.9-.4c6.1-.7,12.3-1.2,18.3-1.7l3.2-.2V220.7c6.1-.4,12.2-.7,18.2-.9h3.4v-23Z" fill="#5e0d8b"/><path d="M250.4,200.2q11.9.1,23.8.7,11.7,47.9,23.3,96.4-8.8-.9-17.7-1.5l-4.7-20.2q-12.8-.7-25.6-.8l-5.2,19.9q-8.9.1-17.9.4,12-47.8,24-95m20.8,59.3-9-38.6H262l-9.1,38.1q9.2.1,18.4.6m-23.5-62.8-.7,2.7c-8.2,32.1-16.3,64.1-24,95l-1.1,4.5,4.7-.2c5.9-.3,11.9-.4,17.7-.4H247l.7-2.6,4.5-17.3c6.7.1,13.4.3,20.1.6l4.1,17.6.6,2.5,2.6.2c5.8.4,11.7.9,17.5,1.5l4.9.5-1.2-4.8c-7.6-31.5-15.4-63.9-23.3-96.4l-.6-2.5h-2.6c-7.9-.4-16-.7-23.9-.7Zm9.6,58.8,4.8-20,4.7,20.3-9.5-.3Z" fill="#5e0d8b"/><path d="M291,202.1q8.6.8,17.1,1.8L321,267.6h.3L334.5,208q8.8,1.6,17.6,3.5,6.6,32.4,13.2,64.9h.3L378,217.9q8.4,2.3,16.8,5l-20.6,88.6q-8.7-2.3-17.5-4.3-6.6-33.9-13.3-67.6h-.3l-14.4,62.1q-8.8-1.5-17.6-2.6-10.1-48.6-20.2-96.8m-4.4-3.9,1,4.6c6.8,32.5,13.6,65.1,20.2,96.8l.5,2.4,2.5.3c5.8.8,11.7,1.6,17.4,2.6l3.2.5.7-3.2,10.9-46.8,10.3,52.3.4,2.2,2.2.5c5.8,1.3,11.6,2.8,17.3,4.3l3.5.9.8-3.5,19.1-82.4,1.4-6.2.7-3.2-3.1-1c-5.6-1.8-11.3-3.4-16.9-5l-3.6-1-.8,3.6-9.2,42.7-10-49.1-.5-2.2-2.2-.5c-5.8-1.3-11.8-2.5-17.7-3.5l-3.3-.6-.7,3.3-9.7,44.1-9.8-48.1-.5-2.5-2.5-.3c-5.7-.7-11.5-1.3-17.2-1.8l-4.7-.4Z" fill="#5e0d8b"/><path d="M411.8,228.6q11.4,4,22.6,8.7,11,51.8,21.8,104.2-8.2-3.9-16.5-7.4l-4.4-21.8q-12.1-5-24.3-9.3l-5,18.2q-8.6-2.9-17.2-5.5l23.1-87m19.8,66.2-8.5-41.6h-.3l-8.7,35q8.8,3.2,17.5,6.7M409.4,224l-1,3.7-23.1,87-.9,3.3,3.2,1c5.7,1.7,11.4,3.6,17.1,5.5l3.5,1.2,1-3.6,2.1-7.5,1.9-7c6.3,2.3,12.7,4.7,18.9,7.3l4,19.9.4,1.8,1.7.7c5.5,2.3,11,4.8,16.4,7.4l6.3,3-1.4-6.9c-7.1-34.3-14.4-69.4-21.8-104.2l-.4-1.8-1.7-.7c-7.4-3.1-15.1-6-22.7-8.7l-3.6-1.3Zm8.9,61.9,4.3-17.5,4.2,20.7-8.6-3.3Z" fill="#5e0d8b"/><path d="M38.4,277.2C38.4,254,50,239.9,67,233.1s29.2-2.1,29.2,21.2q0,16.9,0,33.8c0,23.4-12.2,35.5-29.2,42.2s-28.7,4-28.7-19.3Zm17.3,28.4c0,10.5,4.4,11.5,11.4,8.7s11.5-7.2,11.5-17.7V258.1c0-10.5-4.5-11.8-11.5-9s-11.4,7.6-11.4,18Z" fill="#5e0d8b"/><path d="M161.9,207.6v16q-10.7,1.9-21.3,4.2v78.6q-9.1,2-18.1,4.4V232.3q-10.5,2.8-21,6v-16A490.2,490.2,0,0,1,161.9,207.6Z" fill="#5e0d8b"/><path d="M233.2,200.4v16q-10.8.3-21.6,1.1V296q-9.2.7-18.5,1.7V219.1q-10.8,1.2-21.5,2.9V206A490.8,490.8,0,0,1,233.2,200.4Z" fill="#5e0d8b"/><path d="M226.4,295.2q12-47.8,24-95,11.9.1,23.8.7,11.7,47.9,23.3,96.4-8.8-.9-17.7-1.5l-4.7-20.2q-12.8-.7-25.6-.8l-5.2,19.9Q235.3,294.8,226.4,295.2Zm26.4-36.3q9.2.1,18.4.6l-9-38.6H262Z" fill="#5e0d8b"/><path d="M291,202.1q8.6.8,17.1,1.8L321,267.6h.3L334.5,208q8.8,1.6,17.6,3.5,6.6,32.4,13.2,64.9h.3L378,217.9q8.4,2.3,16.8,5l-20.6,88.6q-8.7-2.3-17.5-4.3-6.6-33.9-13.3-67.6h-.3l-14.4,62.1q-8.8-1.5-17.6-2.6Q301.1,250.3,291,202.1Z" fill="#5e0d8b"/><path d="M388.7,315.6l23.1-87q11.4,4,22.6,8.7,11,51.8,21.8,104.2-8.2-3.9-16.5-7.4l-4.4-21.8q-12.1-5-24.3-9.3l-5,18.2Q397.3,318.2,388.7,315.6Zm25.4-27.5q8.8,3.2,17.5,6.7l-8.5-41.6h-.3Z" fill="#5e0d8b"/><path d="M38.4,277.2C38.4,254,50,239.9,67,233.1s29.2-2.1,29.2,21.2q0,16.9,0,33.8c0,23.4-12.2,35.5-29.2,42.2s-28.7,4-28.7-19.3Zm17.3,28.4c0,10.5,4.4,11.5,11.4,8.7s11.5-7.2,11.5-17.7V258.1c0-10.5-4.5-11.8-11.5-9s-11.4,7.6-11.4,18Z" fill="#5e0d8b"/><path d="M161.9,207.6v16q-10.7,1.9-21.3,4.2v78.6q-9.1,2-18.1,4.4V232.3q-10.5,2.8-21,6v-16A490.2,490.2,0,0,1,161.9,207.6Z" fill="#5e0d8b"/><path d="M233.2,200.4v16q-10.8.3-21.6,1.1V296q-9.2.7-18.5,1.7V219.1q-10.8,1.2-21.5,2.9V206A490.8,490.8,0,0,1,233.2,200.4Z" fill="#5e0d8b"/><path d="M226.4,295.2q12-47.8,24-95,11.9.1,23.8.7,11.7,47.9,23.3,96.4-8.8-.9-17.7-1.5l-4.7-20.2q-12.8-.7-25.6-.8l-5.2,19.9Q235.3,294.8,226.4,295.2Zm26.4-36.3q9.2.1,18.4.6l-9-38.6H262Z" fill="#5e0d8b"/><path d="M291,202.1q8.6.8,17.1,1.8L321,267.6h.3L334.5,208q8.8,1.6,17.6,3.5,6.6,32.4,13.2,64.9h.3L378,217.9q8.4,2.3,16.8,5l-20.6,88.6q-8.7-2.3-17.5-4.3-6.6-33.9-13.3-67.6h-.3l-14.4,62.1q-8.8-1.5-17.6-2.6Q301.1,250.3,291,202.1Z" fill="#5e0d8b"/><path d="M388.7,315.6l23.1-87q11.4,4,22.6,8.7,11,51.8,21.8,104.2-8.2-3.9-16.5-7.4l-4.4-21.8q-12.1-5-24.3-9.3l-5,18.2Q397.3,318.2,388.7,315.6Zm25.4-27.5q8.8,3.2,17.5,6.7l-8.5-41.6h-.3Z" fill="#5e0d8b"/><path d="M79.7,230.3c10.1,0,16.6,7.1,16.6,24q0,16.9,0,33.8c0,23.4-12.2,35.5-29.2,42.2-5.2,2-9.8,3.2-13.8,3.2-9.2,0-14.9-6.2-14.9-22.5V277.2C38.4,254,50,239.9,67,233.1a35.3,35.3,0,0,1,12.7-2.8M61.5,315.7a15.7,15.7,0,0,0,5.5-1.3c7-2.8,11.5-7.2,11.5-17.7V258.1c0-7.5-2.3-10.2-6.1-10.2a15.2,15.2,0,0,0-5.4,1.3c-7,2.8-11.4,7.6-11.4,18v38.5c0,7.3,2.2,10,5.8,10m18.2-87.1h0a37,37,0,0,0-13.3,2.9c-13.6,5.4-29.8,17.7-29.8,45.7V311c0,16.1,5.6,24.3,16.6,24.3,4,0,8.8-1.1,14.5-3.3C88.1,323.9,98,309.6,98,288.2q0-16.9,0-33.8c0-8.5-1.6-15.1-4.8-19.4s-7.7-6.4-13.5-6.4ZM61.5,313.9c-1.3,0-4.1,0-4.1-8.3V267.2c0-8.6,3.1-13.5,10.3-16.4a13.6,13.6,0,0,1,4.7-1.1,3.2,3.2,0,0,1,3,1.5c.9,1.4,1.3,3.7,1.3,7v38.5c0,10-4.1,13.6-10.4,16.1a14,14,0,0,1-4.9,1.2Z" fill="#fff"/><path d="M161.9,207.6v16q-10.7,1.9-21.3,4.2v78.6q-9.1,2-18.1,4.4V232.3q-10.5,2.8-21,6v-16a490.2,490.2,0,0,1,60.4-14.7m1.8-2.1-2.1.4A493.8,493.8,0,0,0,101,220.6l-1.2.4v19.6l2.3-.7c6.2-1.9,12.5-3.7,18.7-5.4v78.6l2.2-.6c6-1.6,12-3,18.1-4.4l1.4-.3V229.3c6.6-1.4,13.2-2.8,19.9-3.9l1.4-.3V205.5Z" fill="#fff"/><path d="M233.2,200.4v16q-10.8.3-21.6,1.1V296q-9.2.7-18.5,1.7V219.1q-10.8,1.2-21.5,2.9V206a490.8,490.8,0,0,1,61.5-5.7m1.8-1.8h-1.8a494.4,494.4,0,0,0-61.8,5.7l-1.5.2V224l2-.3c6.4-1,13-1.9,19.5-2.6v78.6l1.9-.2c6.1-.7,12.3-1.2,18.4-1.7h1.6V219.1c6.6-.5,13.3-.8,19.9-1h1.7V198.6Z" fill="#fff"/><path d="M250.4,200.2q11.9.1,23.8.7,11.7,47.9,23.3,96.4-8.8-.9-17.7-1.5l-4.7-20.2q-12.8-.7-25.6-.8l-5.2,19.9q-8.9.1-17.9.4,12-47.8,24-95m20.8,59.3-9-38.6H262l-9.1,38.1q9.2.1,18.4.6m-22.2-61-.3,1.3c-8.2,32.1-16.3,64.1-24,95l-.6,2.3h2.3c5.9-.3,11.9-.4,17.8-.4h1.3l.3-1.3,4.9-18.6c7.6.1,15.3.3,22.9.7l4.4,18.9.3,1.3h1.3c5.8.4,11.8.9,17.6,1.5l2.5.3-.6-2.4c-7.6-31.5-15.4-63.9-23.3-96.4l-.3-1.3h-1.3c-7.9-.4-15.9-.7-23.8-.7Zm6,58.7,7-29.3,6.9,29.7-13.9-.4Z" fill="#fff"/><path d="M291,202.1q8.6.8,17.1,1.8L321,267.6h.3L334.5,208q8.8,1.6,17.6,3.5,6.6,32.4,13.2,64.9h.3L378,217.9q8.4,2.3,16.8,5l-20.6,88.6q-8.7-2.3-17.5-4.3-6.6-33.9-13.3-67.6h-.3l-14.4,62.1q-8.8-1.5-17.6-2.6-10.1-48.6-20.2-96.8m-2.2-2,.5,2.3c6.8,32.5,13.6,65.1,20.2,96.8l.3,1.2,1.2.2c5.8.8,11.7,1.6,17.5,2.6l1.6.3.4-1.6,12.7-54.7,11.9,60.2.2,1.1,1.1.3c5.8,1.3,11.6,2.8,17.4,4.3l1.7.5.4-1.8,19.1-82.5,1.4-6.1.4-1.6-1.5-.5c-5.6-1.8-11.2-3.4-16.8-5l-1.8-.5-.4,1.8-10.9,50.9-11.6-57.3-.2-1.1-1.1-.2c-5.8-1.3-11.8-2.5-17.7-3.5l-1.7-.3-.4,1.6-11.5,52.2-11.4-56.2-.3-1.2-1.2-.2c-5.7-.7-11.5-1.3-17.2-1.8l-2.4-.2Z" fill="#fff"/><path d="M411.8,228.6q11.4,4,22.6,8.7,11,51.8,21.8,104.2-8.2-3.9-16.5-7.4l-4.4-21.8q-12.1-5-24.3-9.3l-5,18.2q-8.6-2.9-17.2-5.5l23.1-87m19.8,66.2-8.5-41.6h-.3l-8.7,35q8.8,3.2,17.5,6.7m-21-68.5-.5,1.8-23.1,87-.4,1.6,1.6.5c5.7,1.7,11.5,3.6,17.1,5.5l1.8.6.5-1.8,2-7.4,2.5-9c7.2,2.6,14.5,5.4,21.6,8.3l4.2,20.9.2.9.8.4c5.5,2.4,11.1,4.8,16.5,7.4l3.2,1.5-.7-3.4c-7.1-34.3-14.4-69.4-21.8-104.2l-.2-.9-.9-.4c-7.4-3.1-15-6-22.6-8.7l-1.8-.6Zm5.6,60.7,6.6-26.5,6.4,31.5-13-5Z" fill="#fff"/><path d="M166,330.6c-1.9-5.4-4.4-7.4-8.4-6.7s-6.3,3.7-6.3,7.8c0,9,25.7,5.3,25.8,24.5,0,10.4-7.1,18.2-19.3,20.4-9.4,1.7-16.6-1.8-19.7-13.1l11.3-4.8c1.3,7,5.5,8.8,8.9,8.2a8.4,8.4,0,0,0,7.1-8.5c0-11.6-25.7-6.9-25.7-23.6,0-10.4,6.1-18.4,18.1-20.6,10.3-1.8,16.6,3.4,18.6,11.7Z" fill="#5e0d8b"/><path d="M182.4,330.8c0-14.9,7.9-21.4,19.2-22.5s19.2,4,19.2,19V349c0,15-7.9,20.7-19.2,21.7s-19.2-3.3-19.2-18.2ZM194,352.6c0,6.7,2.9,8.3,7.6,7.8s7.6-2.5,7.6-9.2V326.5c0-6.7-3-8.4-7.6-7.9s-7.6,2.6-7.6,9.3Z" fill="#5e0d8b"/><path d="M238.5,307.2v42.4c0,5.8,2.5,8.8,8.2,8.8s8.3-2.9,8.3-8.7q0-21.2,0-42.4l11.7.3v42.5c0,13.4-7.9,18.6-20,18.6s-19.9-5.2-19.9-18.6V307.5Z" fill="#5e0d8b"/><path d="M310.1,311.3v10.3L296.6,320v50.4L285,369.4V318.9l-13.6-.9V307.8Q290.8,308.8,310.1,311.3Z" fill="#5e0d8b"/><path d="M314.8,372.6V311.9l11.6,1.8v24.2l16.3,3V316.7l11.5,2.4v60.7l-11.5-2.4V351.1l-16.3-3v26.2Z" fill="#5e0d8b"/><path d="M140.6,386.2h8.1c5.8,0,8.4,3,8.4,8.4,0,2.7-1.1,5.6-3.8,6.6,2.8,1.2,4.4,3.4,4.4,7.5s-2.3,9.2-8.5,9.2h-8.6Zm5.4,13h2c2.1,0,3.6-1.4,3.6-4s-1.1-4.5-3.6-4.5H146Zm0,14.2h2.3c2.9,0,4-1.7,4-4.9s-1.2-4.9-4.5-4.9H146Z" fill="#f47d30"/><path d="M169,418h-5.3l5.8-31.7h6.8l5.8,31.7h-5.3l-1-7h-6Zm1.8-11.8h4.4L173,392.6h-.1Z" fill="#f47d30"/><path d="M199,394.1c-.2-2.7-1.7-3.5-2.9-3.5s-2.7,1.1-2.7,3.1c0,5.4,11.1,8,11.1,16.6,0,5.2-3.5,8.1-8.6,8.1s-8-4-8.2-8.8l5.2-.7c.2,3.2,1.5,4.8,3.3,4.8s3.2-1,3.2-2.9c0-6.3-11.1-8-11.1-17,0-5.1,3.1-7.9,8.4-7.9s7.1,3.2,7.6,7.7Z" fill="#f47d30"/><path d="M211.6,418V386.2h5.4V398h.1l5.7-11.7h5.4l-5.9,11.8,6.6,19.9h-5.5l-4.4-14.8H219l-1.9,3.5V418Z" fill="#f47d30"/><path d="M235.6,418V386.2h14.6V391H241v8.2h7v4.7h-7v9.3h9.8V418Z" fill="#f47d30"/><path d="M262.1,391h-5.3v-4.7h16V391h-5.3v27h-5.4Z" fill="#f47d30"/><path d="M279.7,386.2h8.1c5.8,0,8.4,3,8.4,8.4,0,2.7-1.1,5.6-3.8,6.6,2.8,1.2,4.4,3.4,4.4,7.5s-2.3,9.2-8.5,9.2h-8.6Zm5.4,13h2c2.1,0,3.6-1.4,3.6-4s-1.1-4.5-3.6-4.5h-2.1Zm0,14.2h2.3c2.9,0,4-1.7,4-4.9s-1.2-4.9-4.5-4.9h-1.8Z" fill="#f47d30"/><path d="M308.1,418h-5.3l5.8-31.7h6.8l5.8,31.7H316l-1-7h-6Zm1.8-11.8h4.4l-2.2-13.6H312Z" fill="#f47d30"/><path d="M328,418V386.2h5.4v27H342V418Z" fill="#f47d30"/><path d="M348.8,418V386.2h5.4v27h8.6V418Z" fill="#f47d30"/><path d="M213.1,436c0-3.3,1.9-5.9,6.1-5.9s6.1,2.7,6.1,5.9v11.9c0,3.3-1.9,5.9-6.1,5.9s-6.1-2.7-6.1-5.9Zm4,11.8c0,1.7.5,2.6,2.1,2.6s2.1-.8,2.1-2.6V436.1c0-1.7-.5-2.6-2.1-2.6s-2.1.8-2.1,2.6Z" fill="#5e0d8b"/><path d="M238.9,436.1c-.2-2-1.2-2.6-2.1-2.6s-2,.8-2,2.3c0,3.9,8,5.8,8,12.1,0,3.8-2.6,5.9-6.3,5.9s-5.8-2.9-5.9-6.4l3.8-.5c.2,2.3,1.1,3.5,2.4,3.5a2,2,0,0,0,2.3-2.1c0-4.6-8-5.8-8-12.4,0-3.7,2.2-5.7,6.1-5.7s5.1,2.3,5.5,5.6Z" fill="#5e0d8b"/><path d="M248.3,430.4h5.9c4.2,0,6.1,2.2,6.1,6.1,0,2-.8,4.1-2.7,4.8,2,.9,3.2,2.5,3.2,5.5s-1.7,6.7-6.2,6.7h-6.3Zm4,9.5h1.4a2.6,2.6,0,0,0,2.7-2.9c0-2.1-.8-3.3-2.6-3.3h-1.5Zm0,10.3h1.7c2.1,0,2.9-1.2,2.9-3.5s-.9-3.5-3.3-3.5h-1.3Z" fill="#5e0d8b"/><path d="M269,453.5h-3.8l4.2-23.1h4.9l4.2,23.1h-3.8l-.7-5.1h-4.3Zm1.3-8.6h3.2l-1.6-9.9h-.1Z" fill="#5e0d8b"/><path d="M308,155.5a12,12,0,1,1-12-12A12,12,0,0,1,308,155.5Zm43.4-69.7c-1.2-1.6,1.7-4.9-3.2-8.5S335.9,68.6,329,69c-4.3.3-9.6,4.5-12.1,7.2-5.7,6.2-10.8,13.4-22.7,14.6-10.1,1.1-7.1-.7-35.4-.1-13.7.3-28.7,4.6-44.9,7.5-41.5,7.4-69.6-9.7-106.5-5.4s-56.7,27.7-56.7,27.7S74.2,105.6,94,104.3c31.1-2,35.2-.3,61.4,10.4s58.5,20.7,58.5,20.7,6.4,2.9,6.4,3.7-6.7,7.6-8,10.3-2.1,12.7-2.7,14.1-8.8,12.4-9.9,14-1.9,9.1-1.7,10.5,3.4,11.9,4.1,12.7,7.1,1.6,7.1,1.6,3.3-1.6,4.3-1.6,9.9,2.1,9.9,2.1,5.3.4,5.6-.4-4.1-2.9-4.1-2.9l-5.6-2.3s10.2-.7,10.8-1.3-14.2-3.9-15.2-4-4.7,1-5.5.6-1.9-2.5-2.2-3.8.5-7.8,2-10.3,11.5-12.4,11.5-12.4l8.9-6.7,6.5-7,7.5-9.2a6.3,6.3,0,0,1,5.3-1.8c1,.3,2.8,3.9,3.1,5.1s-9.4,13.7-9.5,15.5,7.2,8.2,8.4,8.7,7.9,2.1,8.3,2.6,1.4,5.1,1.2,5.5a40,40,0,0,1-4.5,2.7s-5.4,2.3-5.6,2.7,6.6.7,6.6.7-4.9,3.5-4.9,3.9,5.3.9,6.5.8,5.4-2.8,6.6-3.6,4.1-4.5,4.4-6-1.3-8.5-1.3-8.5-2-3.6-10.1-6.5,1.4-5.8,8.4-13.1,7-17.1,7.5-17.6,13.4-6.1,14.3-5.7,3.5,5.3,4.5,5.8,8.2,2,8.2,2,4.2.2,5,.6.7,4.5,1.2,5,2.6-1.2,3-1.3,1.5,1.7,1.6,2.3,0,5.4.2,5.6,3.5-2.5,3.5-2.5,5.5-3.7-2.6-12c-2.1-2.1-10-3.4-12.8-4.7s-3.4-3.4-3.4-3.4,0-1.6,4.9-3.3c11.8-4.2,17.2-21.5,21.8-25.4s4.6,6,6.3,8.1,18.1,11.1,22.7,10.8,6.6-5.9,6.6-5.9l.9-2.7-6.2,1.4.6-3.2-5.1,1.6A31.9,31.9,0,0,1,344,105c-5.2-3.2-4.1-9.6-4.1-9.6s1.3,6.5,9.9,4.8l1.5,5.4,4.3-1.6-.5,3.5s3.2-1.2,4.5-1.9a14.9,14.9,0,0,0,3.3-2,11.2,11.2,0,0,0,2.3-4.9C366,94.4,357.9,94.9,351.4,85.8Z" fill="#5e0d8b" stroke="#fff" stroke-width="1.75"/></svg>