<svg xmlns="http://www.w3.org/2000/svg" width="266.8" height="96.7" viewBox="0 0 266.8 96.7"><title>polished</title><g id="Layer_2" data-name="Layer 2"><path d="M50.7,43.9A25.4,25.4,0,0,1,25.9,69.4a29.1,29.1,0,0,1-6-.6,4.7,4.7,0,0,1-3.2-6.6h0a4.6,4.6,0,0,1,5.2-2.5,15.8,15.8,0,0,0,3.8.4A16.1,16.1,0,1,0,25.3,28a16.3,16.3,0,0,0-16,16.3V92a4.7,4.7,0,0,1-4.7,4.7h0A4.7,4.7,0,0,1,0,92V44.3A25.5,25.5,0,0,1,36.3,21.1,25.6,25.6,0,0,1,50.7,43.9Z" fill="#393"/><path d="M58.1,52.3V45.5a13.8,13.8,0,0,1,4.5-10.3,14.9,14.9,0,0,1,10.9-4.4,15.3,15.3,0,0,1,10.8,4.3,13.8,13.8,0,0,1,4.6,10.4v6.8a14.1,14.1,0,0,1-4.6,10.4,15.2,15.2,0,0,1-21.6,0A13.9,13.9,0,0,1,58.1,52.3Zm7.8,0a8,8,0,0,0,2.2,5.5,7.2,7.2,0,0,0,10.7,0,7.7,7.7,0,0,0,2.3-5.5V45.5a7,7,0,0,0-2.3-5.3,7.2,7.2,0,0,0-10.7,0,7.3,7.3,0,0,0-2.2,5.3Z" fill="#393"/><path d="M96.5,64V12.7a2,2,0,0,1,1.1-1.8,4.7,4.7,0,0,1,2.8-.7,5.1,5.1,0,0,1,2.8.7,2.2,2.2,0,0,1,1.1,1.8V64a2.4,2.4,0,0,1-1.2,1.8,5,5,0,0,1-2.7.8,4.9,4.9,0,0,1-2.8-.8A2.6,2.6,0,0,1,96.5,64Z" fill="#393"/><path d="M112.5,18.2a3.8,3.8,0,0,1,1.4-2.9,4.5,4.5,0,0,1,3.2-1.2,4.7,4.7,0,0,1,3.2,1.2,3.9,3.9,0,0,1,0,5.8,4.7,4.7,0,0,1-3.2,1.2,4.5,4.5,0,0,1-3.2-1.2A3.8,3.8,0,0,1,112.5,18.2Zm.7,45.8V33.7a2.2,2.2,0,0,1,1.1-1.8,4.7,4.7,0,0,1,2.8-.7,4.9,4.9,0,0,1,2.8.7,2,2,0,0,1,1.1,1.8V64a2.6,2.6,0,0,1-1.1,1.8,5.3,5.3,0,0,1-5.6,0A2.6,2.6,0,0,1,113.2,64Z" fill="#393"/><path d="M127,61.2a4.6,4.6,0,0,1,.8-2.3,2.3,2.3,0,0,1,1.9-1.2,3.5,3.5,0,0,1,1.9.9,18.5,18.5,0,0,0,3.2,1.7,12.2,12.2,0,0,0,4.9.9c4.3,0,6.4-1.3,6.4-4a4,4,0,0,0-1.9-3.5,15.6,15.6,0,0,0-4.5-1.9l-5.2-1.6a10.1,10.1,0,0,1-4.5-3.1,8.1,8.1,0,0,1-1.9-5.6,10.3,10.3,0,0,1,3.2-7.6c2-2.1,5.3-3.1,9.6-3.1a21.1,21.1,0,0,1,7.7,1.3c2.3.8,3.5,1.9,3.5,3.1a4.5,4.5,0,0,1-.9,2.4,2.6,2.6,0,0,1-2.1,1.4,19.6,19.6,0,0,1-3.1-1.1,11.8,11.8,0,0,0-5-1.2,6.5,6.5,0,0,0-4.5,1.4,4,4,0,0,0-1.5,3,3.1,3.1,0,0,0,1.9,2.8,19.1,19.1,0,0,0,4.5,1.8,46.4,46.4,0,0,1,5.3,1.6,10.3,10.3,0,0,1,4.4,3.4,9.6,9.6,0,0,1,1.9,6.2,9,9,0,0,1-3.5,7.5c-2.3,1.9-5.5,2.8-9.7,2.8a19.3,19.3,0,0,1-9-1.9C128.3,64.1,127,62.7,127,61.2Z" fill="#393"/><path d="M159.5,64V12.8a1.9,1.9,0,0,1,1-1.8,5.1,5.1,0,0,1,2.8-.8,4.9,4.9,0,0,1,2.8.8,1.9,1.9,0,0,1,1.2,1.8V36.5a10.3,10.3,0,0,1,9.5-5.7,11.8,11.8,0,0,1,9.2,4.3,15.3,15.3,0,0,1,3.8,10.4V64a2.2,2.2,0,0,1-1.2,1.9,5.6,5.6,0,0,1-5.4,0A2.2,2.2,0,0,1,182,64V45.5a7.7,7.7,0,0,0-2.2-5.3,7.1,7.1,0,0,0-5.3-2.4,6.9,6.9,0,0,0-5,2.1,7.3,7.3,0,0,0-2.2,5.6V64a2.4,2.4,0,0,1-1.2,1.8,5.1,5.1,0,0,1-2.8.8,4.6,4.6,0,0,1-2.7-.8A2.3,2.3,0,0,1,159.5,64Z" fill="#393"/><path d="M196.4,52.3V45.2a13.4,13.4,0,0,1,4.5-10.1,15.4,15.4,0,0,1,11-4.3,15.6,15.6,0,0,1,10.5,3.8,12.7,12.7,0,0,1,4.4,9.8,9.2,9.2,0,0,1-.6,3.7,3.3,3.3,0,0,1-1.6,2,5.8,5.8,0,0,1-2.1.7L220,51H204.2v1.7a7.4,7.4,0,0,0,2.7,6,10.5,10.5,0,0,0,7,2.2,12.7,12.7,0,0,0,5.8-1.4,10.1,10.1,0,0,1,3.3-1.4,2.6,2.6,0,0,1,2.2,1.2,3.7,3.7,0,0,1,.9,2.3c0,1.2-1.2,2.4-3.6,3.7a18.2,18.2,0,0,1-8.8,1.9,19,19,0,0,1-12.5-4.1A13.6,13.6,0,0,1,196.4,52.3Zm7.8-6.3h12.4a3.7,3.7,0,0,0,2.2-.5c.4-.2.6-.8.6-1.7a6.5,6.5,0,0,0-2.2-5,7.3,7.3,0,0,0-5.4-2.1,7.8,7.8,0,0,0-5.3,2,6.2,6.2,0,0,0-2.3,4.9Z" fill="#393"/><path d="M231.8,52.3V45.5a14.9,14.9,0,0,1,3.9-10.4,12.1,12.1,0,0,1,9.4-4.3,10.3,10.3,0,0,1,5.8,1.6,11.7,11.7,0,0,1,3.9,4.1V12.8a2,2,0,0,1,1.1-1.8,5.2,5.2,0,0,1,2.9-.8,5.1,5.1,0,0,1,2.8.8,2,2,0,0,1,1.1,1.8V64a2.4,2.4,0,0,1-1.2,1.8,4.6,4.6,0,0,1-2.7.8,4.1,4.1,0,0,1-2.5-.8,2.6,2.6,0,0,1-1.1-1.9V61.3a10.1,10.1,0,0,1-4.1,4.1,11.5,11.5,0,0,1-6.2,1.8c-3.5,0-6.5-1.5-9.2-4.5A15.5,15.5,0,0,1,231.8,52.3Zm7.8,0a8,8,0,0,0,2.2,5.5,7.1,7.1,0,0,0,5.3,2.4,7.5,7.5,0,0,0,5.3-2.3q2.4-2.2,2.4-3.9V45.5a7.5,7.5,0,0,0-7.6-7.7,7.1,7.1,0,0,0-5.3,2.4,7.4,7.4,0,0,0-2.3,5.3Z" fill="#393"/></g></svg>