<svg id="Layer_1" data-name="Layer 1" xmlns="http://www.w3.org/2000/svg" width="512.5" height="512.5" viewBox="0 0 512.5 512.5"><title>quid-can</title><path id="Leaf_LL" data-name="Leaf LL" d="M197.8,359.4,45.1,199.3l58.6,12.1a22.5,22.5,0,0,0,4.5.5h3a5.9,5.9,0,0,0,3.9-1.5l.6-.5a8,8,0,0,0,2.4-3.8l8.2-28.5,48.2,55.8,7,4.4a9.6,9.6,0,0,0,4.1,1.4h1l52.1,120H200.9" fill="#e13026"/><path id="Leaf_DL" data-name="Leaf DL" d="M36,294.1l25.7-12.3a3.4,3.4,0,0,0,1.3-1.1l.2-.3a8.3,8.3,0,0,0,1.5-4.2V275a3.5,3.5,0,0,0-.1-1.1L45.1,199.1,198,359.4H112.8" fill="#b62325"/><path id="Leaf_DM" data-name="Leaf DM" d="M186.5,239.5l.3-.3a10.8,10.8,0,0,0,2.7-3.9l1-2.4a5.8,5.8,0,0,0,.4-2.2v-1.9a4.9,4.9,0,0,0-.1-.8L169.9,106,193,119.1l8.5,4.4a13.6,13.6,0,0,0,5.8,1.5h0a6.9,6.9,0,0,0,2.8-.5h.3a15,15,0,0,0,2.6-1.4h.2a17.1,17.1,0,0,0,5.7-6.4l2.4-4.8,34.4-68.7L257,359.4H238.5Z" fill="#b62325"/><path d="M476.5,294.4l-76.6,65H324.5l143-160.1-18.4,69.5a17.1,17.1,0,0,0-.4,6.6l.2,1.4v.4a11.8,11.8,0,0,0,4.4,5.8l2.5,1.7Z" fill="#b62325"/><path d="M467.5,199.3l-143,160.1H257L255.8,42.9l39.3,76.8a8.1,8.1,0,0,0,2.6,3l.5.4a9.2,9.2,0,0,0,6.2,1.6l4.1-.4a15.5,15.5,0,0,0,5.8-1.8l28.9-15.5L321.7,224.8a9.1,9.1,0,0,0-.1,2.3l.5,5.4a7.5,7.5,0,0,0,2,4.5l.6.6a5.5,5.5,0,0,0,2.8,1.6h1.6a9.6,9.6,0,0,0,6-2.2l4.4-3.6.9-.9,46.9-55.2,6.8,25.6a18.6,18.6,0,0,0,3.9,7.4,5.3,5.3,0,0,0,3.6,1.8l3.8.3a10.6,10.6,0,0,0,3-.2Z" fill="#e13026"/><line x1="256.6" y1="366.5" x2="256.6" y2="222.3" fill="none" stroke="#fff" stroke-miterlimit="10" stroke-width="4.07"/><circle cx="256.6" cy="189.9" r="32.4" fill="none" stroke="#fff" stroke-miterlimit="10" stroke-width="4.07"/><line x1="152.3" y1="359.4" x2="152.3" y2="329" fill="none" stroke="#fff" stroke-miterlimit="10" stroke-width="4.07"/><circle cx="152.3" cy="296.7" r="32.4" fill="none" stroke="#fff" stroke-miterlimit="10" stroke-width="4.07"/><line x1="360.2" y1="359.4" x2="360.2" y2="311.6" fill="none" stroke="#fff" stroke-miterlimit="10" stroke-width="4.07"/><circle cx="360.2" cy="279.2" r="32.4" fill="none" stroke="#fff" stroke-miterlimit="10" stroke-width="4.07"/><path d="M119.2,368.9a19,19,0,0,1,13.7-5.4,18.8,18.8,0,0,1,13.6,5.4,18,18,0,0,1,5.6,13.4,17.6,17.6,0,0,1-4.9,12.4l3.6,4.3-4.4,3.7-3.7-4.3a17.5,17.5,0,0,1-9.9,2.8,19,19,0,0,1-13.7-5.4,18.9,18.9,0,0,1,0-26.8Zm4.5,22.6a12.4,12.4,0,0,0,9.1,3.7,11.4,11.4,0,0,0,5.8-1.5l-5.1-6.1,4.4-3.7,5.2,6.1a12.1,12.1,0,0,0,2.5-7.7,12.7,12.7,0,0,0-3.7-9.2,12.1,12.1,0,0,0-9-3.8,12.3,12.3,0,0,0-9.1,3.8,12.7,12.7,0,0,0-3.7,9.2A12.5,12.5,0,0,0,123.8,391.5Z" fill="#b62325"/><path d="M157.9,364.1h6.5v21.8c0,6.3,3.1,9.3,8.3,9.3s8.2-3,8.2-9.3V364.1h6.5v22.5c0,4.6-1.4,8.3-4.1,10.8a16.9,16.9,0,0,1-21.3,0c-2.8-2.5-4.1-6.1-4.1-10.8Z" fill="#b62325"/><path d="M195.4,400.5V364.1h6.5v36.4Z" fill="#b62325"/><path d="M210.2,400.5V364.1h13c6,0,10.7,1.7,14,5.1s5.1,7.7,5.1,13.2-1.7,9.9-5,13.2-8,5-14.1,5Zm6.5-5.9h6.1c9,0,13-4.8,13-12.2S231.9,370,222.8,370h-6Z" fill="#b62325"/><path d="M248.5,400.5V364.1h13c6,0,10.7,1.7,14,5.1s5.1,7.7,5.1,13.2-1.7,9.9-5,13.2-8,5-14.1,5Zm6.5-5.9h6.1c9,0,13-4.8,13-12.2S270.2,370,261,370h-6Z" fill="#b62325"/><path d="M287,400.5V364.1h6.5v36.4Z" fill="#b62325"/><path d="M308.7,400.5V370h-9.9v-5.9h26.3V370h-9.9v30.5Z" fill="#b62325"/><path d="M360.6,370l-4.4,3.8a12.7,12.7,0,0,0-10-4.4,12.9,12.9,0,1,0,10.1,21.3l4.4,3.8a18.9,18.9,0,0,1-14.5,6.6,19.3,19.3,0,0,1-13.7-5.3,19,19,0,0,1,0-27,19.1,19.1,0,0,1,13.7-5.4A18.4,18.4,0,0,1,360.6,370Z" fill="#b62325"/><path d="M366,400.5V364.1h6.5v14.2H390V364.1h6.5v36.4H390V384.2H372.5v16.3Z" fill="#b62325"/><path d="M157.1,415.5l-5.6,4.9a16.1,16.1,0,0,0-12.7-5.7,15.9,15.9,0,0,0-11.7,4.8,17.5,17.5,0,0,0,.1,23.8,15.9,15.9,0,0,0,11.7,4.7,16,16,0,0,0,12.8-5.9l5.6,4.9a24,24,0,0,1-18.4,8.6,24.5,24.5,0,0,1-17.5-6.8,24.6,24.6,0,0,1-.1-34.6,24.3,24.3,0,0,1,17.5-7A23.4,23.4,0,0,1,157.1,415.5Z" fill="#231f20"/><path d="M160.5,454.7l19.2-46.8h7.1l19.5,46.7h-8.8l-3.8-9.3H173.1l-3.8,9.3Zm15.1-16.3h15.5l-7.8-19Z" fill="#231f20"/><path d="M213,454.5V407.8h7.3l24.7,32.4V407.7h8.1v46.8h-6.8l-25.2-33v33.1Z" fill="#231f20"/><path d="M259.6,454.4l19.2-46.8h7.1l19.5,46.7h-8.8l-3.8-9.3H272.2l-3.8,9.3Zm15.1-16.3h15.5l-7.8-19Z" fill="#231f20"/><path d="M312.1,454.2V407.5h16.6c7.7,0,13.7,2.1,17.9,6.5s6.5,9.9,6.5,17-2.1,12.7-6.3,16.9-10.2,6.4-17.9,6.4Zm8.3-7.6h7.7c11.5,0,16.6-6.2,16.5-15.8s-5-15.9-16.7-15.9h-7.7Z" fill="#231f20"/><path d="M354.6,454.1l19.2-46.8h7.1l19.5,46.7h-8.8l-3.8-9.3H367.1l-3.8,9.3Zm15.1-16.3h15.5l-7.8-19Z" fill="#231f20"/></svg>