<svg id="Layer_1" data-name="Layer 1" xmlns="http://www.w3.org/2000/svg" width="5in" height="5in" viewBox="0 0 362.4 362.4"><title>r-d-logo</title><path d="M324.8,37.6V324.8H37.6V37.6H324.8m11.1-11.1H26.5V335.9H335.9V26.5Z" fill="#491e1e"/><path d="M49.2,49.2v264h264V49.2ZM78.7,227a8.5,8.5,0,1,1,8.5-8.5A8.5,8.5,0,0,1,78.7,227Zm6.1-92.4a17.7,17.7,0,0,1,3.7.3l-.6,4.7a15.2,15.2,0,0,0-3.4-.4,8.3,8.3,0,0,0-4.6,1.4,9.3,9.3,0,0,0-3.3,3.8,11.8,11.8,0,0,0-1.2,5.3v16.7H70.1V135.1h4.2l.6,5.7h.2a13.6,13.6,0,0,1,4.2-4.7A9.6,9.6,0,0,1,84.7,134.6Zm36.1,16.2q0,7.7-3.9,12T106.3,167a14.3,14.3,0,0,1-7.5-2,13,13,0,0,1-5-5.7,19.8,19.8,0,0,1-1.8-8.6q0-7.6,3.8-11.9t10.7-4.3a13.4,13.4,0,0,1,10.5,4.3Q120.9,143.3,120.9,150.7Zm-23.6,0q0,5.9,2.3,9a9.2,9.2,0,0,0,13.7,0q2.3-3.1,2.3-9t-2.4-8.9a8.2,8.2,0,0,0-6.9-3Q97.2,138.9,97.2,150.7Zm46.6-16.1q6.2,0,9.5,4.3t3.4,11.9q0,7.8-3.4,12a11.5,11.5,0,0,1-9.5,4.2,13.4,13.4,0,0,1-5.6-1.1,9.9,9.9,0,0,1-4-3.4h-.4l-1.1,4H129V122.1h5.1v10.8q0,3.2-.3,6.4h.3Q137.3,134.6,143.8,134.6Zm-.9,4.2q-4.7,0-6.8,2.7t-2.1,9.1v.2q0,6.4,2.1,9.2t6.9,2.8a7,7,0,0,0,6.3-3.1q2.1-3.1,2.1-8.9t-2.1-8.9A7.3,7.3,0,0,0,142.9,138.9Zm21.5-12.2a2.9,2.9,0,0,1,3-3.2,2.9,2.9,0,0,1,3,3.2,3.1,3.1,0,0,1-.9,2.5,3.2,3.2,0,0,1-4.2,0A3.2,3.2,0,0,1,164.5,126.7Zm5.5,39.8h-5.1V135.1H170Zm15,0h-5.1V122.1h5.1Zm15,0H195V122.1h5.1Zm29.2,0-1-4.4h-.2a13.1,13.1,0,0,1-4.7,4,14.4,14.4,0,0,1-5.9,1,10.3,10.3,0,0,1-7.2-2.4,8.8,8.8,0,0,1-2.6-6.8q0-9.5,15-10l5.3-.2v-1.9q0-3.6-1.5-5.3t-4.9-1.7a14.6,14.6,0,0,0-4.7.7l-4.1,1.7-1.6-3.8a23.2,23.2,0,0,1,5.2-2,22.3,22.3,0,0,1,5.5-.7q5.7,0,8.4,2.5t2.8,8v21.3Zm-10.6-3.6a9.5,9.5,0,0,0,6.8-2.3,8.6,8.6,0,0,0,2.5-6.6v-2.8l-4.6.2q-5.4.2-7.9,1.7a5.2,5.2,0,0,0-2.5,4.8,4.7,4.7,0,0,0,1.5,3.8A6.2,6.2,0,0,0,218.8,162.9Zm38.6-28.3a17.7,17.7,0,0,1,3.7.3l-.6,4.7a15.2,15.2,0,0,0-3.4-.4,8.3,8.3,0,0,0-4.6,1.4,9.3,9.3,0,0,0-3.3,3.8,11.8,11.8,0,0,0-1.2,5.3v16.7h-5.1V135.1H247l.6,5.7h.2a13.6,13.6,0,0,1,4.2-4.7A9.6,9.6,0,0,1,257.4,134.6Zm20,32.4q-6.1,0-9.5-4.2t-3.4-11.9q0-7.7,3.4-12a12.6,12.6,0,0,1,19.2.3h.4q-.1-.6-.2-2.3t-.1-2.3V122.1h5.1v44.3h-4.1l-.8-4.2h-.2Q283.9,167,277.4,167Zm.8-4.2q4.7,0,6.8-2.6t2.2-8.4v-.9q0-6.5-2.2-9.3t-6.9-2.8A7,7,0,0,0,272,142q-2.2,3.1-2.2,9t2.2,8.8A7.2,7.2,0,0,0,278.2,162.7ZM109.7,227a10.8,10.8,0,0,1-9.2-4.6q-3.4-4.6-3.4-12.6t3.4-12.8a11.1,11.1,0,0,1,9.4-4.6,10.9,10.9,0,0,1,9.6,4.9h.3a37.2,37.2,0,0,1-.7-6.6V180h9.1v46.4h-7l-1.8-4.3h-.4Q116,227,109.7,227Zm3.2-7.2q3.5,0,5.1-2t1.8-6.9v-1q0-5.4-1.7-7.7t-5.4-2.3a5.3,5.3,0,0,0-4.7,2.6q-1.7,2.6-1.7,7.5t1.7,7.4A5.6,5.6,0,0,0,112.9,219.7Zm40,7.2q-8.1,0-12.6-4.4T135.7,210q0-8.4,4.2-13t11.6-4.6q7.1,0,11,4t3.9,11.1V212H145a8.8,8.8,0,0,0,2.3,6.1,8.1,8.1,0,0,0,6,2.2,25,25,0,0,0,5.7-.6,28.5,28.5,0,0,0,5.6-2v7a21.4,21.4,0,0,1-5.1,1.8A32.1,32.1,0,0,1,152.9,227Zm-1.3-28.1a5.8,5.8,0,0,0-4.5,1.8,8.5,8.5,0,0,0-1.9,5.2h12.8a7.6,7.6,0,0,0-1.8-5.2A6,6,0,0,0,151.6,198.9Zm45.5,17.6a9.2,9.2,0,0,1-3.6,7.8Q190,227,182.9,227a33.5,33.5,0,0,1-6.2-.5,23.5,23.5,0,0,1-4.8-1.4v-7.5a31.7,31.7,0,0,0,5.7,2,23.1,23.1,0,0,0,5.6.8q5,0,5-2.9a2.4,2.4,0,0,0-.7-1.7,9.5,9.5,0,0,0-2.3-1.5l-4.3-2a27,27,0,0,1-5.7-3,8.4,8.4,0,0,1-2.6-3.1,10.4,10.4,0,0,1-.8-4.4,7.9,7.9,0,0,1,3.4-6.9q3.4-2.4,9.8-2.4a27.7,27.7,0,0,1,11.7,2.6l-2.7,6.6-4.7-1.8a14.7,14.7,0,0,0-4.4-.7q-4,0-4,2.2a2.6,2.6,0,0,0,1.3,2.1,35.3,35.3,0,0,0,5.7,2.7,26.4,26.4,0,0,1,5.7,3,8.7,8.7,0,0,1,2.7,3.2A9.7,9.7,0,0,1,197.1,216.5Zm6.7-32.1q0-4.4,5-4.4t5,4.4a4.3,4.3,0,0,1-1.2,3.3,5.2,5.2,0,0,1-3.7,1.2Q203.8,188.9,203.8,184.4Zm9.5,42h-9.1V193.1h9.1Zm38.7.1q0,7.2-4.2,10.9t-12.5,3.7a35,35,0,0,1-12.5-2v-7.3a33,33,0,0,0,13,2.6q7,0,7-7.6v-.7l.3-4.1h-.3a10.5,10.5,0,0,1-9.5,4.9,10.7,10.7,0,0,1-9.3-4.6q-3.3-4.6-3.3-12.6t3.4-12.8a11.1,11.1,0,0,1,9.4-4.6,11.3,11.3,0,0,1,9.7,4.9h.2l.7-4.3H252Zm-15.3-6.6q3.7,0,5.2-2.1t1.6-6.8v-1.1q0-5.3-1.7-7.7t-5.3-2.3q-6.4,0-6.4,10.1,0,5,1.6,7.5A5.5,5.5,0,0,0,236.7,219.9Zm55.6,6.5h-9.1V206.9a9.4,9.4,0,0,0-1.3-5.4,4.7,4.7,0,0,0-4.1-1.8q-3.8,0-5.5,2.5t-1.7,8.5v15.7h-9.1V193.1h6.9l1.2,4.3h.5a9.6,9.6,0,0,1,4.2-3.7,14.3,14.3,0,0,1,6.1-1.2q5.8,0,8.8,3.1t3,9.1Z" fill="#491e1e"/></svg>