<svg id="Layer_1" data-name="Layer 1" xmlns="http://www.w3.org/2000/svg" width="487.1" height="487.1" viewBox="0 0 487.1 487.1"><title>valfeyja</title><circle cx="243.5" cy="243.5" r="222.1" fill="#dcbf30"/><circle cx="243.5" cy="243.5" r="213.2" fill="#231f20"/><path d="M78.9,272.3A21.8,21.8,0,0,1,89,285.8a21.3,21.3,0,0,1-1.9,16.6,20,20,0,0,1-12.8,10.1A19.3,19.3,0,0,1,60.1,311l-3.3,4.8-6.5-4.5,3.4-5a18.7,18.7,0,0,1-5.5-9.3,22,22,0,0,1,1.8-16.7,19.8,19.8,0,0,1,12.8-10.2A19.8,19.8,0,0,1,78.9,272.3ZM58.3,299l4.3-6.5,6.6,4.5-4.5,6.7a12.2,12.2,0,0,0,7.1,0,12.6,12.6,0,0,0,7.8-6A12.2,12.2,0,0,0,81,288a12.9,12.9,0,0,0-15.9-9.1,12.5,12.5,0,0,0-7.9,6,12.9,12.9,0,0,0-1.1,9.9A10.3,10.3,0,0,0,58.3,299Z" fill="#fff"/><path d="M104.5,326.3l5.5,7.3L91.1,347.7c-5.3,4-6.3,8.3-2.9,12.7s7.7,4.7,13,.7L120.1,347l5.5,7.3L106,368.9c-4.4,3.3-8.8,4.6-13.2,3.7a17.9,17.9,0,0,1-11.1-7.3,18.1,18.1,0,0,1-4-12.7c.4-4.4,2.8-8.3,7.3-11.7Z" fill="#fff"/><path d="M120.7,404,145,370.8l7.3,5.4-24.3,33.2Z" fill="#fff"/><path d="M160.9,428.7l13.4-38.9,14.7,5.1c6.6,2.3,11,5.8,13.4,10.6s2.6,10.1.5,16-5.4,10-10.2,12.3-10.4,2.3-17,0Zm11.3-4.9,5.6,1.9c9.2,3.1,14-.1,16.5-7.3,1.3-3.6,1.3-6.9.1-9.6s-4-4.9-8.6-6.5l-5.6-1.9Z" fill="#fff"/><path d="M233.5,446l-1.6-41.1,15.6-.6c7-.3,12.4,1.4,16.3,5.1s6.1,8.5,6.3,14.7-1.5,11.3-5.1,15.1-8.9,5.9-15.9,6.2Zm8.8-8.6,6-.2c9.7-.4,13-5.2,12.7-12.7-.1-3.8-1.3-6.9-3.4-9s-5.5-3.1-10.4-2.9l-5.9.2Z" fill="#fff"/><path d="M306,435.7l-13.6-38.8,8.6-3,13.6,38.8Z" fill="#fff"/><path d="M354.9,412.1l-18.7-27-9.2,6.4-4.7-6.8L348,366.8l4.7,6.8-9,6.3,18.7,27Z" fill="#fff"/><path d="M390.4,327.2l.5,8.1a13.4,13.4,0,0,0-10,5.6,12.7,12.7,0,0,0-2.5,9.7,12.4,12.4,0,0,0,5.2,8.5,12.6,12.6,0,0,0,9.7,2.5,13,13,0,0,0,8.5-5.3,13.4,13.4,0,0,0,2.4-11.2l7.9-1.9a21.8,21.8,0,0,1-3.7,18,22.2,22.2,0,0,1-14.2,9,21.1,21.1,0,0,1-24.4-18,22.5,22.5,0,0,1,20.5-25.1Z" fill="#fff"/><path d="M433.6,314.4l-39.7-10.9,2.4-8.8,14.7,4,4.7-17.2-14.7-4,2.4-8.8L443,279.7l-2.4,8.8-17-4.7L419,301l17,4.7Z" fill="#fff"/><path d="M87.4,204.7,43.2,210l2.6-9.3,29.8-3.4L51.7,179.1l2.6-9.3,35.2,27.1Z" fill="#fff"/><path d="M98.4,171,73.8,133.9l4.5-6.7,43.6,8.9-5.4,8-7.3-1.6-9.6,14.2,4.2,6.2ZM95,150.6l6.7-9.9L86,137.3Z" fill="#fff"/><path d="M138.1,121.5,113.5,88.5l7.3-5.4,19.7,26.3,12.9-9.6,4.9,6.6Z" fill="#fff"/><path d="M178.6,95.8,165.1,57,190.6,48l2.7,7.8-17,5.9,2.8,8,15.5-5.4,2.7,7.6-15.5,5.4,5.4,15.4Z" fill="#fff"/><path d="M227.1,82.7l-.3-41.1h17.2a13.6,13.6,0,0,1,9.9,3.9,12.6,12.6,0,0,1,4.2,9.6,12.5,12.5,0,0,1-7.2,11.7L261,82.5H250.8L242.1,69H236V82.7ZM236,61h7.2c3.5,0,5.9-2.3,5.9-5.8a5.2,5.2,0,0,0-5.2-5.4h-8Z" fill="#fff"/><path d="M282.3,86.8l13.2-38.9,26.6,9-2.7,7.8-18-6.1L299,66l16.8,5.7-2.6,7.7-16.8-5.7-2.8,8.3L312,88.2,309.3,96Z" fill="#fff"/><path d="M338.6,113.6l9.4-12.1,3.9-29.6,7.8,6-2.8,19.5,18.2-7.5,7.8,6-27.8,11.1-9.4,12.1Z" fill="#fff"/><path d="M374,135.9a14.2,14.2,0,0,0,1.8,3.1c2.4,3.2,4.7,2.8,7.8.6l22.3-16.2,5.3,7.4-21.9,15.9a21.9,21.9,0,0,1-7.4,4c-4,1.3-7.7-.1-12.1-5.8a24.2,24.2,0,0,1-2.4-4.1Z" fill="#fff"/><path d="M389,171.8l44.4,2.9,2.6,7.7-33.5,29.3-3.1-9.2,5.6-4.8-5.5-16.3-7.4-.4Zm18.3,9.7,3.9,11.3,12.2-10.4Z" fill="#fff"/><circle cx="243.5" cy="243.5" r="148" fill="#dcbf30"/><circle cx="243.5" cy="243.5" r="142.2" fill="#fff"/><polygon points="280.8 235.6 214.2 120.2 123.4 277.5 171.4 277.5 190.2 244.9 179.8 244.9 214.2 185.4 243.6 236.2 280.8 235.6" fill="#dcbf30"/><polygon points="267.7 194.4 248.9 161.8 272.9 120.2 363.7 277.5 230.5 277.5 248.6 244.9 307.3 244.9 272.9 185.4 267.7 194.4" fill="#dcbf30"/><polygon points="219.4 213 238.5 244.9 209.2 295.8 278 295.8 272.9 287.1 310.4 286.8 334.4 328.4 152.7 328.4 219.4 213" fill="#dcbf30"/></svg>