<svg xmlns="http://www.w3.org/2000/svg" xmlns:xlink="http://www.w3.org/1999/xlink" width="98.3in" height="49.2in" viewBox="0 0 7077 3539"><defs><clipPath id="b"><path fill="none" d="M1256.2 3177h1021.7c7.6 0 4-11.3 4-17.7V1342.2c0 1.1-55.9-1.7-60.8-2.3-21.2-2.6-42.4-7.2-61.8-16.5-80.3-38.8-108.9-93.3-108.9-93.3-42.1-113.9 5.6-359 41.1-530.5l3.8-18.5c.5-2.6-31.5-10.6-34-11.4l-10.1-3-61.7-18.5c-41.7-12.5-110.5-38-152.2-50.5-84.9-25.3-221.8-66.1-306-93.7-1.3 7.5 1.1.3-1.3 7.5-36.6 112-33.3 131.6-64.7 196.5-38.4 79.4-113.4 93.3-198 93s-169.2-42.2-198-123.2c-25.2-71-25.2-71-51-170.9-120.5 39.4-295.5 80.7-417 117-20.6 6.2-70.8 26-91.4 32.2l-33.1 9.9c-7 2.1-27.1 4.3-25.5 11.9 9 43.4 17.9 86.9 25.4 130.5 15.5 89.3 17.6 71.8 19 162.5 1.3 86.2-6.3 175.9-45 254.3-18.8 38-46.1 69.7-83.2 90.7s-81.4 25.9-124.7 26c-10.7 0-12.1-2.9-12.1 5.8v1805.5c0 2.7-1.5 23.8 1.2 23.8h1024.3z"/></clipPath><linearGradient id="c" x1="188.93" x2="2289.58" y1="1437.79" y2="1437.79" gradientUnits="userSpaceOnUse"><stop offset="0" stop-color="#fff" stop-opacity=".8"/><stop offset=".1" stop-color="#fff" stop-opacity=".88"/><stop offset=".21" stop-color="#fff" stop-opacity=".95"/><stop offset=".34" stop-color="#fff" stop-opacity=".99"/><stop offset=".5" stop-color="#fff"/><stop offset=".66" stop-color="#fff" stop-opacity=".99"/><stop offset=".79" stop-color="#fff" stop-opacity=".95"/><stop offset=".9" stop-color="#fff" stop-opacity=".88"/><stop offset="1" stop-color="#fff" stop-opacity=".8"/></linearGradient><linearGradient id="a" x1="230.18" x2="2289.58" y1="1852.73" y2="1852.73" gradientUnits="userSpaceOnUse"><stop offset="0" stop-color="#231f20"/><stop offset=".07" stop-color="#282526"/><stop offset=".26" stop-color="#302e30"/><stop offset=".49" stop-color="#333133"/><stop offset=".73" stop-color="#302e30"/><stop offset=".93" stop-color="#282526"/><stop offset="1" stop-color="#231f20"/></linearGradient><linearGradient id="d" x1="255.98" x2="2289.58" y1="1854.06" y2="1854.06" xlink:href="#a"/></defs><path fill="#231f20" d="M5620 3042a115.2 115.2 0 0 1 24.4-2.4c13.6 0 22.4 2.9 28.5 9.3s7.8 12.8 7.8 21.6c0 15-8.2 25-18.6 29.1v.5c7.6 3 12.1 11.2 14.5 23 3.2 15.9 5.6 26.9 7.6 31.3H5671c-1.6-3.2-3.8-13-6.6-27.2-2.9-15.7-8.2-21.6-19.7-22.1h-12v49.4H5620zm12.7 51.9h13c13.6 0 22.2-8.6 22.2-21.6 0-14.7-9.2-21.1-22.7-21.3-6.1 0-10.5.7-12.6 1.4zm81.3-44.3c.1 5.1-3.1 9.1-8.2 9.1s-7.8-4.1-7.8-9.1 3.4-9.3 8-9.3 8 4.1 8 9.3zm-14.3 104.8v-81.8h12.9v81.8zm95.2-81.8c-.3 5.9-.6 12.5-.6 22.5v47.5c0 18.8-3.2 30.3-10.1 37.4s-16.8 9.8-25.7 9.8-17.8-2.4-23.5-6.8l3.2-11.3a36 36 0 0 0 20.8 6.4c13.2 0 22.8-7.9 22.8-28.6v-9.1h-.3a24.7 24.7 0 0 1-22.5 13.7c-17.6 0-30.1-17.2-30.1-39.9 0-27.7 15.6-43.4 31.9-43.4 12.3 0 19 7.4 22.1 14.2h.3l.6-12.3zm-13.3 32.3a24.3 24.3 0 0 0-.7-6.8c-2.3-8.6-8.6-15.7-18-15.7-12.3 0-21.1 12-21.1 30.9 0 16.1 7 29.4 20.9 29.4 7.9 0 15.1-5.7 17.8-15.2a29.6 29.6 0 0 0 1-7.9zm34.1-70.5h12.9v51h.3a26 26 0 0 1 9.2-10.5 23.9 23.9 0 0 1 13.2-4.2c9.5 0 24.7 6.8 24.7 35v48.7h-12.9v-47c0-13.2-4.2-24.3-16.4-24.3-8.3 0-14.9 6.8-17.3 14.9a20.6 20.6 0 0 0-.9 7.1v49.4h-12.9zm96.1 14.7v23.5h18.4v11.3h-18.4v44.1c0 10.1 2.5 15.9 9.7 15.9a25 25 0 0 0 7.5-1l.6 11.2a27.7 27.7 0 0 1-11.4 2c-6 0-10.8-2.2-13.9-6.3s-5-11.7-5-21.3v-44.6h-11v-11.3h11V3053zm62.5 87.4a40.7 40.7 0 0 0 22.8 7.4c13 0 20.6-7.9 20.6-19.4s-5.3-16.7-18.6-22.7c-16.1-6.6-26-16.2-26-32.3 0-17.7 12.7-30.9 31.9-30.9 10.1 0 17.4 2.7 21.8 5.6l-3.5 12a35.3 35.3 0 0 0-18.7-5.4c-13.5 0-18.6 9.3-18.6 17.1 0 10.6 6 15.9 19.6 22 16.7 7.4 25.2 16.7 25.2 33.5s-11.3 32.8-34.5 32.8c-9.5 0-19.9-3.2-25.2-7.3zm73.5-102.1h12.9v120h-12.9zm41.6 81.8c.3 20.1 11.4 28.4 24.3 28.4 9.2 0 14.8-1.9 19.6-4.2l2.2 10.6c-4.5 2.4-12.3 5.1-23.5 5.1-21.8 0-34.8-16.6-34.8-41.2s12.6-44.1 33.2-44.1c23.1 0 29.3 23.5 29.3 38.5a64.9 64.9 0 0 1-.4 6.9zm37.7-10.6c.1-9.5-3.4-24.2-17.8-24.2s-18.7 13.9-19.7 24.2zm35.6 10.6c.3 20.1 11.4 28.4 24.3 28.4 9.2 0 14.8-1.9 19.6-4.2l2.2 10.6c-4.5 2.4-12.3 5.1-23.5 5.1-21.8 0-34.8-16.6-34.8-41.2s12.6-44.1 33.2-44.1c23.1 0 29.3 23.5 29.3 38.5a64.9 64.9 0 0 1-.4 6.9zm37.7-10.6c.1-9.5-3.4-24.2-17.8-24.2s-18.7 13.9-19.7 24.2zm33.4-33l13.9 46c2.3 7.4 4.2 14.2 5.7 21h.4c1.6-6.8 3.7-13.5 6-21l13.7-46h13.5l-27.8 81.8H6247l-26.9-81.8zm71.1 43.6c.3 20.1 11.4 28.4 24.3 28.4 9.2 0 14.8-1.9 19.6-4.2l2.2 10.6c-4.5 2.4-12.3 5.1-23.5 5.1-21.8 0-34.8-16.6-34.8-41.2s12.6-44.1 33.2-44.1c23.1 0 29.3 23.5 29.3 38.5a64.9 64.9 0 0 1-.4 6.9zm37.7-10.6c.1-9.5-3.4-24.2-17.8-24.2s-18.7 13.9-19.7 24.2zM5721 1858.5h12.7v101.6h42.1v12.3H5721zm73.7 75.7c.3 20.1 11.4 28.4 24.3 28.4 9.2 0 14.8-1.9 19.6-4.2l2.2 10.6c-4.5 2.4-12.3 5.1-23.5 5.1-21.8 0-34.8-16.6-34.8-41.2s12.6-44.1 33.2-44.1c23.1 0 29.3 23.5 29.3 38.5a64.9 64.9 0 0 1-.4 6.9zm37.7-10.7c.1-9.5-3.4-24.2-17.8-24.2s-18.7 13.9-19.7 24.2zm29.7 48.9v-70.5h-9.9v-11.3h9.9v-3.9c0-11.5 2.2-22 8.2-28.6a22.8 22.8 0 0 1 17.3-7.6 26.4 26.4 0 0 1 11 2.4l-1.8 11.5a17 17 0 0 0-8.2-1.9c-11 0-13.7 11.2-13.7 23.7v4.4h17.1v11.3h-17.1v70.5zm58.5-105.3v23.5h18.4v11.3h-18.4v44.1c0 10.1 2.5 15.9 9.7 15.9a25 25 0 0 0 7.5-1l.6 11.2a27.7 27.7 0 0 1-11.4 2c-6 0-10.8-2.2-13.9-6.3s-5-11.7-5-21.3v-44.6h-11v-11.3h11V1871zm62.6 87.4a40.7 40.7 0 0 0 22.8 7.4c13 0 20.6-7.9 20.6-19.4s-5.3-16.7-18.6-22.7c-16.1-6.6-26-16.2-26-32.3 0-17.7 12.7-30.9 31.9-30.9 10.1 0 17.4 2.7 21.8 5.6l-3.5 12a35.3 35.3 0 0 0-18.7-5.4c-13.5 0-18.6 9.3-18.6 17.1 0 10.7 6 15.9 19.6 22 16.7 7.4 25.2 16.7 25.2 33.5s-11.3 32.8-34.5 32.8c-9.5 0-19.9-3.2-25.2-7.3zm73.4-102.1h12.9v120h-12.9zm41.7 81.8c.3 20.1 11.4 28.4 24.3 28.4 9.2 0 14.8-1.9 19.6-4.2l2.2 10.6c-4.5 2.4-12.3 5.1-23.5 5.1-21.8 0-34.8-16.6-34.8-41.2s12.6-44.1 33.2-44.1c23.1 0 29.3 23.5 29.3 38.5a64.9 64.9 0 0 1-.4 6.9zm37.7-10.7c.1-9.5-3.4-24.2-17.8-24.2s-18.7 13.9-19.7 24.2zm35.6 10.7c.3 20.1 11.4 28.4 24.3 28.4 9.2 0 14.8-1.9 19.6-4.2l2.2 10.6c-4.5 2.4-12.3 5.1-23.5 5.1-21.8 0-34.8-16.6-34.8-41.2s12.6-44.1 33.2-44.1c23.1 0 29.3 23.5 29.3 38.5a64.9 64.9 0 0 1-.4 6.9zm37.7-10.7c.1-9.5-3.4-24.2-17.8-24.2s-18.7 13.9-19.7 24.2zm33.4-32.9l13.9 46c2.3 7.4 4.2 14.2 5.7 21h.4c1.6-6.8 3.7-13.5 6-21l13.7-46h13.5l-27.8 81.8h-12.3l-26.9-81.8zm71 43.6c.3 20.1 11.4 28.4 24.3 28.4 9.2 0 14.8-1.9 19.6-4.2l2.2 10.6c-4.5 2.4-12.3 5.1-23.5 5.1-21.8 0-34.8-16.6-34.8-41.2s12.6-44.1 33.2-44.1c23.1 0 29.3 23.5 29.3 38.5a64.9 64.9 0 0 1-.4 6.9zm37.7-10.7c.1-9.5-3.4-24.2-17.8-24.2s-18.7 13.9-19.7 24.2zM1119.2 464h50.4v10.1h-38.3v31.1h35.4v10h-35.4v42.3h-12.1zm63.6 47.3c0-7.9-.1-14.7-.6-21h10.7l.4 13.2h.6c3.1-9 10.4-14.7 18.6-14.7a13.2 13.2 0 0 1 3.5.4v11.5a18.4 18.4 0 0 0-4.2-.4c-8.6 0-14.7 6.5-16.4 15.7a34.4 34.4 0 0 0-.6 5.7v35.8h-12.1zm104.7 12.1c0 24.8-17.2 35.7-33.4 35.7-18.2 0-32.2-13.3-32.2-34.5s14.7-35.7 33.3-35.7 32.3 14 32.3 34.5zm-53.3.7c0 14.7 8.5 25.8 20.4 25.8s20.4-11 20.4-26.1c0-11.4-5.7-25.8-20.1-25.8s-20.6 13.3-20.6 26.1zm68.7-15.5c0-6.9-.1-12.6-.6-18.2h10.8l.7 11.1h.3c3.3-6.4 11.1-12.6 22.2-12.6 9.3 0 23.7 5.5 23.7 28.6v40.1h-12.2v-38.8c0-10.8-4-19.8-15.5-19.8a17.3 17.3 0 0 0-16.4 12.5 17.5 17.5 0 0 0-.8 5.7v40.4h-12.2zm91.2-37.5v19.3h17.5v9.3h-17.5v36.2c0 8.3 2.4 13 9.2 13a27.1 27.1 0 0 0 7.1-.8l.6 9.2a29.9 29.9 0 0 1-10.8 1.7c-5.7 0-10.3-1.8-13.2-5.1s-4.7-9.6-4.7-17.5v-36.7h-10.4v-9.3h10.4v-16.1zm2398-143.8a116.9 116.9 0 0 1 22.1-1.9c12.1 0 19.8 2.1 25.7 6.8s7.8 9.2 7.8 16.5c0 9-6 16.9-15.8 20.5v.3c8.9 2.2 19.3 9.6 19.3 23.4a25.2 25.2 0 0 1-7.9 18.7c-6.5 6-17.1 8.7-32.3 8.7a141.2 141.2 0 0 1-18.7-1.1zm12.1 38.3h11c12.8 0 20.3-6.7 20.3-15.7 0-11-8.3-15.3-20.5-15.3a51.8 51.8 0 0 0-10.7.8zm0 44.8a64.5 64.5 0 0 0 10.1.6c12.5 0 24-4.6 24-18.2s-11-18-24.1-18h-10zm99.9 9.2l-1-8.5h-.4a25 25 0 0 1-20.5 10c-13.6 0-20.5-9.6-20.5-19.3 0-16.2 14.4-25.1 40.4-25v-1.4c0-5.5-1.5-15.5-15.3-15.5a33.5 33.5 0 0 0-17.5 5l-2.8-8c5.5-3.6 13.6-6 22.1-6 20.5 0 25.5 14 25.5 27.5v25.1a94.6 94.6 0 0 0 1.1 16.1zm-1.8-34.3c-13.3-.3-28.4 2.1-28.4 15.1 0 7.9 5.3 11.7 11.5 11.7a16.7 16.7 0 0 0 16.2-11.2 12.7 12.7 0 0 0 .7-3.9zm79.4 31.8c-3.2 1.7-10.3 3.9-19.3 3.9-20.3 0-33.4-13.7-33.4-34.3s14.1-35.7 36-35.7a40.8 40.8 0 0 1 16.9 3.5l-2.8 9.4c-2.9-1.7-7.5-3.2-14.2-3.2-15.4 0-23.7 11.4-23.7 25.4 0 15.5 10 25.1 23.3 25.1a34.7 34.7 0 0 0 15-3.3zm26.3-33.9h.3c1.7-2.4 4-5.3 6-7.6l19.7-23.2h14.7l-26 27.6 29.6 39.5h-14.8l-23.2-32.2-6.2 6.9v25.3H3996V321h12zm1842.2 69.7V339h13.9l31.6 57.6a340.4 340.4 0 0 1 17.7 37l.3-.2c-1.2-15.2-1.5-29.1-1.5-46.8V339h12v113.9h-12.9l-31.3-57.8a381 381 0 0 1-18.4-38l-.4.2c.7 14.4 1 28.1 1 47V453zm103-38.2c.3 20.1 11.4 28.4 24.3 28.4 9.2 0 14.8-1.9 19.6-4.2l2.2 10.6c-4.5 2.4-12.3 5.1-23.5 5.1-21.8 0-34.8-16.6-34.8-41.2s12.6-44.1 33.2-44.1c23.1 0 29.3 23.5 29.3 38.5a64.9 64.9 0 0 1-.4 6.9zm37.7-10.6c.1-9.5-3.4-24.2-17.8-24.2s-18.7 13.9-19.7 24.2zm78.8 45.8c-3.4 2-10.8 4.7-20.3 4.7-21.4 0-35.2-16.7-35.2-41.8s14.9-43.4 38-43.4c7.6 0 14.3 2.2 17.8 4.2l-2.9 11.5c-3.1-2-7.9-3.9-14.9-3.9-16.2 0-25 13.9-25 30.9 0 18.9 10.5 30.6 24.6 30.6a32.6 32.6 0 0 0 15.8-4.1zm27.8-41.3h.3c1.8-2.9 4.2-6.4 6.3-9.3l20.8-28.2h15.5l-27.4 33.6 31.2 48.2h-15.6l-24.4-39.2-6.6 8.5V453h-12.7V333h12.7zm631.6 2440.8l18.9 79.2H5322.9l11.7-49.7c2-8.6 8.6-22.6 6.5-31.4l-20.5-86c-16.1-67.5-31.3-165.8-47.4-233.3 34.8-2.3 71.6-4.1 104.5-16.9 83.4-32.6 141.6-122 191.4-192.2s93.7-116 154.5-177.7c64.6-65.6 141.4-109 233.6-120.3 85.9-10.6 175.4 4.6 253.4 41.9 165.4 79 243.1 219 365.9 346.5 28.4 29.5 58.5 57.5 92 81.1 16.5 11.6 34.1 23.1 52.7 30.9 7.8 3.3 60.7 22 60.4 22.9-22.6 94.5-30.1 210.7-52.6 305.2z"/><path fill="none" stroke="#ed1c24" stroke-linejoin="bevel" stroke-width="2" d="M6729.1 2849.4l18.9 79.2H5322.9l11.7-49.7c2-8.6 8.6-22.6 6.5-31.4l-20.5-86c-16.1-67.5-31.3-165.8-47.4-233.3 34.8-2.3 71.6-4.1 104.5-16.9 83.4-32.6 141.6-122 191.4-192.2s93.7-116 154.5-177.7c64.6-65.6 141.4-109 233.6-120.3 85.9-10.6 175.4 4.6 253.4 41.9 165.4 79 243.1 219 365.9 346.5 28.4 29.5 58.5 57.5 92 81.1 16.5 11.6 34.1 23.1 52.7 30.9 7.8 3.3 60.7 22 60.4 22.9-22.6 94.5-30.1 210.7-52.6 305.2z"/><path fill="#231f20" d="M3871.2 3235.6h1025.6V1408c0-4.3-28.2-9.4-33-10.9-44.2-13.9-82.8-34.5-113.6-69.7-55.6-63.4-65.8-114.6-73.8-196.4-16.5-169-1.2-353.5 19-520.1.3-2.2 4-27.9 3.2-28.1l-8.8-2.4L4636 566l-188.9-50.9-178.9-48.1c-13.8-3.7-31.9-10.2-45.7-13.9-8-2.1-27.9 28.5-35.8 34.5-71 53.1-164.1 53-249.1 52.9-87.2-.2-176.9 5.6-263.1-10.1-42.6-7.7-81.8-26.2-114.3-55-12.9-11.4-17-21.7-33-17.3l-55.4 14.9-367.4 98.9-39.4 10.6c-4 1.1 3 39.5 3.7 45.3q7.7 66.5 12.9 133.2c6.9 87.9 10.4 176.1 9.3 264.3-1.1 84.1-15.9 135.2-46.9 214.4-15.1 38.6-37.3 75.8-67.5 104.5-32.5 30.8-73.9 46.6-116.3 58.4-8.7 2.4-14.7.2-14.7 8.8v1800.3c0 2.7-1.5 23.9 1.2 23.9h1024.5z"/><path fill="none" stroke="#ed1c24" stroke-linejoin="bevel" stroke-width="2" d="M3889.2 3235.6h1025.6V1408c0-4.3-28.2-9.4-33-10.9-44.2-13.9-82.8-34.5-113.6-69.7-55.6-63.4-65.8-114.6-73.8-196.4-16.5-169-1.2-353.5 19-520.1.3-2.2 4-27.9 3.2-28.1l-8.8-2.4L4654 566l-188.9-50.9-178.9-48.1c-13.8-3.7-31.9-10.2-45.7-13.9-8-2.1-27.9 28.5-35.8 34.5-71 53.1-164.1 53-249.1 52.9-87.2-.2-176.9 5.6-263.1-10.1-42.6-7.7-81.8-26.2-114.3-55-12.9-11.4-17-21.7-33-17.3l-55.4 14.9-367.4 98.9-39.4 10.6c-4 1.1 3 39.5 3.7 45.3q7.7 66.5 12.9 133.2c6.9 87.9 10.4 176.1 9.3 264.3-1.1 84.1-15.9 135.2-46.9 214.4-15.1 38.6-37.3 75.8-67.5 104.5-32.5 30.8-73.9 46.6-116.3 58.4-8.7 2.4-14.7.2-14.7 8.8v1800.3c0 2.7-1.5 23.9 1.2 23.9h1024.5z"/><path fill="#231f20" d="M5090.3 786.9h1756.5c-4.1-46-12.5-94.7-12.5-141s8.4-94.9 12.5-141H5090.3c4.1 46 12.5 94.7 12.5 141s-8.4 94.9-12.5 141zm269.4 950.5c-22.6-94.5-30.1-210.7-52.6-305.2-.2-.9 52.7-19.6 60.4-22.9 18.7-7.8 36.2-19.3 52.7-30.9 33.5-23.7 63.6-51.7 92-81.1 122.9-127.5 200.5-267.5 365.9-346.5 78-37.3 167.6-52.5 253.4-41.9 92.3 11.4 169 54.7 233.6 120.3 60.8 61.7 104.6 107.4 154.5 177.7s108.1 159.6 191.4 192.2c32.9 12.9 69.7 14.6 104.5 16.9-16.1 67.5-31.3 165.8-47.4 233.3l-20.5 86c-2.1 8.9 4.5 22.8 6.5 31.4l11.7 49.7h-1425l18.9-79.2z"/><path fill="none" stroke="#ed1c24" stroke-linejoin="bevel" stroke-width="2" d="M5359.7 1737.4c-22.6-94.5-30.1-210.7-52.6-305.2-.2-.9 52.7-19.6 60.4-22.9 18.7-7.8 36.2-19.3 52.7-30.9 33.5-23.7 63.6-51.7 92-81.1 122.9-127.5 200.5-267.5 365.9-346.5 78-37.3 167.6-52.5 253.4-41.9 92.3 11.4 169 54.7 233.6 120.3 60.8 61.7 104.6 107.4 154.5 177.7s108.1 159.6 191.4 192.2c32.9 12.9 69.7 14.6 104.5 16.9-16.1 67.5-31.3 165.8-47.4 233.3l-20.5 86c-2.1 8.9 4.5 22.8 6.5 31.4l11.7 49.7h-1425l18.9-79.2z"/><path fill="#231f20" d="M1256.2 3177h1021.7c7.6 0 4-11.3 4-17.7V1342.2c0 1.1-55.9-1.7-60.8-2.3-21.2-2.6-42.4-7.2-61.8-16.5-80.3-38.8-108.9-93.3-108.9-93.3-42.1-113.9 5.6-359 41.1-530.5l3.8-18.5c.5-2.6-31.5-10.6-34-11.4l-10.1-3-61.7-18.5c-41.7-12.5-110.5-38-152.2-50.5-84.9-25.3-221.8-66.1-306-93.7-1.3 7.5 1.1.3-1.3 7.5-36.6 112-33.3 131.6-64.7 196.5-38.4 79.4-113.4 93.3-198 93s-169.2-42.2-198-123.2c-25.2-71-25.2-71-51-170.9-120.5 39.4-295.5 80.7-417 117-20.6 6.2-70.8 26-91.4 32.2l-33.1 9.9c-7 2.1-27.1 4.3-25.5 11.9 9 43.4 17.9 86.9 25.4 130.5 15.5 89.3 17.6 71.8 19 162.5 1.3 86.2-6.3 175.9-45 254.3-18.8 38-46.1 69.7-83.2 90.7s-81.4 25.9-124.7 26c-10.7 0-12.1-2.9-12.1 5.8v1805.5c0 2.7-1.5 23.8 1.2 23.8h1024.3z"/><path fill="none" stroke="#fff" stroke-linejoin="bevel" stroke-width="3" d="M6663.5 2829.4l17.2 72H5385.1l10.7-45.2c1.8-7.8 7.8-20.5 5.9-28.6l-18.7-78.2-43.9-184c31.7-2.1 65.1-3.7 95-15.4 75.8-29.6 128.8-110.9 174-174.7s86-133.5 141.3-189.6c58.8-59.7 128.5-99.1 212.4-109.4 78.1-9.6 159.5 4.2 230.4 38.1 150.4 71.8 234.6 218.8 346.3 334.7 25.8 26.8 53.2 52.2 83.6 73.7 15 10.6 31 21 47.9 28.1 7.1 3 55.1 20 54.9 20.8l-61.5 257.8zm-1233-1112.7l-17.2 72h1295.6l-10.7-45.2c-1.8-7.8-7.8-20.5-5.9-28.6l18.7-78.2 43.9-184c-31.7-2.1-65.1-3.7-95-15.4-75.8-29.6-128.8-110.9-174-174.7s-86-133.5-141.3-189.6c-58.8-59.7-128.5-99.1-212.4-109.4-78.1-9.6-159.5 4.2-230.4 38.1-150.4 71.8-234.6 218.8-346.3 334.7-25.8 26.8-53.2 52.2-83.6 73.7-15 10.6-31 21-47.9 28.1-7.1 3-55.1 20-54.9 20.8l61.5 257.8zM3890.2 3111.8h932.4V1450.4c0-3.9-25.6-8.5-30-9.9-40.2-12.6-75.3-31.4-103.3-63.4-50.6-57.6-68.8-137-76-211.4-15.2-156-1.6-317.7 17.3-472.8.2-2 3.6-25.4 2.9-25.6l-8-2.2-48.8-13.2-171.7-46.3-162.8-43.6-37.5-10.1c-7.2-1.9-29.3 23.4-36.5 28.8-64.6 48.3-149.2 48.2-226.4 48.1-79.3-.1-160.8 5.1-239.2-9.2-38.8-7-74.3-23.8-103.9-50-11.7-10.4-15.4-19.7-30-15.8l-50.4 13.6-334 90-35.8 9.6c-3.6 1 2.8 35.9 3.4 41.1q7 60.4 11.7 121.1c6.3 79.9 9.5 160.1 8.4 240.2-1 76.5-5.5 155.8-33.6 227.8-13.7 35.1-33.9 68.9-61.4 95-29.5 28-67.2 42.4-105.8 53.1-7.9 2.2-13.3.2-13.3 8v1636.8c0 2.4-1.3 21.7 1.1 21.7h931.3zM5162.9 741.5h1596.7c-3.7-31.5-11.4-64.8-11.4-96.4s7.7-64.9 11.4-96.4H5162.9c3.7 31.5 11.4 64.8 11.4 96.4s-7.7 64.9-11.4 96.4z"/><path fill="none" stroke="#ed1c24" stroke-linejoin="bevel" stroke-width="2" d="M1256.2 3177h1021.7c7.6 0 4-11.3 4-17.7V1342.2c0 1.1-55.9-1.7-60.8-2.3-21.2-2.6-42.4-7.2-61.8-16.5-80.3-38.8-108.9-93.3-108.9-93.3-42.1-113.9 5.6-359 41.1-530.5l3.8-18.5c.5-2.6-31.5-10.6-34-11.4l-10.1-3-61.7-18.5c-41.7-12.5-110.5-38-152.2-50.5-84.9-25.3-221.8-66.1-306-93.7-1.3 7.5 1.1.3-1.3 7.5-36.6 112-33.3 131.6-64.7 196.5-38.4 79.4-113.4 93.3-198 93s-169.2-42.2-198-123.2c-25.2-71-25.2-71-51-170.9-120.5 39.4-295.5 80.7-417 117-20.6 6.2-70.8 26-91.4 32.2l-33.1 9.9c-7 2.1-27.1 4.3-25.5 11.9 9 43.4 17.9 86.9 25.4 130.5 15.5 89.3 17.6 71.8 19 162.5 1.3 86.2-6.3 175.9-45 254.3-18.8 38-46.1 69.7-83.2 90.7s-81.4 25.9-124.7 26c-10.7 0-12.1-2.9-12.1 5.8v1805.5c0 2.7-1.5 23.8 1.2 23.8h1024.3z"/><path fill="#e13026" d="M6003.5 1551.8l-152.7-160.1 58.6 12.1a22.5 22.5 0 0 0 4.5.5h3a5.9 5.9 0 0 0 3.9-1.5l.6-.5a8 8 0 0 0 2.4-3.8l8.2-28.5 48.2 55.8 7 4.4a9.6 9.6 0 0 0 4.1 1.4h1l52.1 120h-37.7"/><path fill="#b62325" d="M5841.7 1486.5l25.7-12.3a3.4 3.4 0 0 0 1.3-1.1l.2-.3a8.3 8.3 0 0 0 1.5-4.2v-1.2a3.5 3.5 0 0 0-.1-1.1l-19.6-74.8 152.9 160.3h-85.2m73.8-120l.3-.3a10.8 10.8 0 0 0 2.7-3.9l1-2.4a5.8 5.8 0 0 0 .4-2.2v-1.9a4.9 4.9 0 0 0-.1-.8l-20.9-122 23.1 13.1 8.5 4.4a13.6 13.6 0 0 0 5.8 1.5 6.9 6.9 0 0 0 2.8-.5h.3a15 15 0 0 0 2.6-1.4h.2a17.1 17.1 0 0 0 5.7-6.4l2.4-4.8 34.4-68.7 1.1 316.5h-18.4zm290 55l-76.6 65h-75.5l143-160.1-18.4 69.5a17.1 17.1 0 0 0-.4 6.6l.2 1.4v.4a11.8 11.8 0 0 0 4.4 5.8l2.5 1.7z"/><path fill="#e13026" d="M6273.2 1391.7l-143 160.1h-67.5l-1.1-316.5 39.3 76.8a8.1 8.1 0 0 0 2.6 3l.5.4a9.2 9.2 0 0 0 6.2 1.6l4.1-.4a15.5 15.5 0 0 0 5.8-1.8l28.9-15.5-21.4 117.9a9.1 9.1 0 0 0-.1 2.3l.5 5.4a7.5 7.5 0 0 0 2 4.5l.6.6a5.5 5.5 0 0 0 2.8 1.6h1.6a9.6 9.6 0 0 0 6-2.2l4.4-3.6.9-.9 46.9-55.2 6.8 25.6a18.6 18.6 0 0 0 3.9 7.4 5.3 5.3 0 0 0 3.6 1.8l3.8.3a10.6 10.6 0 0 0 3-.2z"/><path fill="none" stroke="#fff" stroke-miterlimit="10" stroke-width="4.07" d="M6062.3 1558.9v-144.2"/><circle cx="6062.3" cy="1382.3" r="32.4" fill="none" stroke="#fff" stroke-miterlimit="10" stroke-width="4.07"/><path fill="none" stroke="#fff" stroke-miterlimit="10" stroke-width="4.07" d="M5958 1551.8v-30.4"/><circle cx="5958" cy="1489.1" r="32.4" fill="none" stroke="#fff" stroke-miterlimit="10" stroke-width="4.07"/><path fill="none" stroke="#fff" stroke-miterlimit="10" stroke-width="4.07" d="M6165.9 1551.8v-47.9"/><circle cx="6165.9" cy="1471.6" r="32.4" fill="none" stroke="#fff" stroke-miterlimit="10" stroke-width="4.07"/><path fill="#b62325" d="M5925 1561.2a19 19 0 0 1 13.7-5.4 18.8 18.8 0 0 1 13.6 5.4 18 18 0 0 1 5.6 13.4 17.6 17.6 0 0 1-4.9 12.4l3.6 4.3-4.4 3.7-3.7-4.3a17.5 17.5 0 0 1-9.9 2.8 19 19 0 0 1-13.7-5.4 18.9 18.9 0 0 1 0-26.8zm4.5 22.6a12.4 12.4 0 0 0 9.1 3.7 11.4 11.4 0 0 0 5.8-1.5l-5.1-6.1 4.4-3.7 5.2 6.1a12.1 12.1 0 0 0 2.5-7.7 12.7 12.7 0 0 0-3.7-9.2 12.1 12.1 0 0 0-9-3.8 12.3 12.3 0 0 0-9.1 3.8 12.7 12.7 0 0 0-3.7 9.2 12.5 12.5 0 0 0 3.6 9.2zm34.1-27.4h6.5v21.8c0 6.3 3.1 9.3 8.3 9.3s8.2-3 8.2-9.3v-21.8h6.5v22.5c0 4.6-1.4 8.3-4.1 10.8a16.9 16.9 0 0 1-21.3 0c-2.8-2.5-4.1-6.1-4.1-10.8zm37.5 36.4v-36.4h6.5v36.4zm14.8 0v-36.4h13c6 0 10.7 1.7 14 5.1s5.1 7.7 5.1 13.2-1.7 9.9-5 13.2-8 5-14.1 5zm6.5-5.9h6.1c9 0 13-4.8 13-12.2s-3.9-12.4-13.1-12.4h-6zm31.8 5.9v-36.4h13c6 0 10.7 1.7 14 5.1s5.1 7.7 5.1 13.2-1.7 9.9-5 13.2-8 5-14.1 5zm6.5-5.9h6.1c9 0 13-4.8 13-12.2s-3.9-12.4-13.1-12.4h-6zm32 5.9v-36.4h6.5v36.4zm21.7 0v-30.5h-9.9v-5.9h26.3v5.9h-9.8v30.5zm51.9-30.5l-4.4 3.8a12.7 12.7 0 0 0-10-4.4 12.9 12.9 0 1 0 10.1 21.3l4.4 3.8a18.9 18.9 0 0 1-14.5 6.6 19.3 19.3 0 0 1-13.7-5.3 19 19 0 0 1 0-27 19.1 19.1 0 0 1 13.7-5.4 18.4 18.4 0 0 1 14.4 6.6zm5.4 30.5v-36.4h6.5v14.2h17.5v-14.2h6.5v36.4h-6.5v-16.3h-17.5v16.3z"/><path fill="#fff" d="M5962.8 1607.9l-5.6 4.9a16.1 16.1 0 0 0-12.7-5.7 15.9 15.9 0 0 0-11.7 4.8 17.5 17.5 0 0 0 .1 23.8 15.9 15.9 0 0 0 11.7 4.7 16 16 0 0 0 12.8-5.9l5.6 4.9a24 24 0 0 1-18.4 8.6 24.5 24.5 0 0 1-17.5-6.8 24.6 24.6 0 0 1-.1-34.6 24.3 24.3 0 0 1 17.5-7 23.4 23.4 0 0 1 18.3 8.3zm3.4 39.2l19.2-46.8h7.1l19.5 46.7h-8.8l-3.8-9.3h-20.7l-3.8 9.3zm15.1-16.3h15.5l-7.8-19zm37.4 16.1v-46.8h7.3l24.7 32.4V1600h8.1v46.8h-6.8l-25.2-33v33.1zm46.6-.1l19.2-46.8h7.1l19.5 46.7h-8.8l-3.8-9.3h-20.7l-3.8 9.3zm15.1-16.3h15.5l-7.8-19zm37.4 16.1v-46.8h16.6c7.7 0 13.7 2.1 17.9 6.5s6.5 9.9 6.5 17-2.1 12.7-6.3 16.9-10.2 6.4-17.9 6.4zm8.3-7.6h7.7c11.5 0 16.6-6.2 16.5-15.8s-5-15.9-16.7-15.9h-7.7zm34.2 7.5l19.2-46.8h7.1l19.5 46.7h-8.8l-3.8-9.3h-20.7l-3.8 9.3zm15.1-16.3h15.5l-7.8-19z"/><path fill="#dcbf30" d="M6016.8 2588.1c0 29.5-.4 48.2-1.1 56.6q-4 35-31 58.5c-18 15.7-39 23.3-63.9 23.3s-46.3-7.7-64.3-23.3-27.9-35.2-30.6-58.5c-.8-8.4-1.1-27.2-1.1-56.6s.4-47.8 1.1-56.2c2.7-23.3 12.6-42.8 30.6-58.5s39.4-23.3 64.3-23.3 45.9 7.7 63.9 23.3 28.3 35.2 31 58.5q1.1 12.5 1.1 56.2zm-46.7 0c0-27.2-.4-44-.8-50.5-1.1-12.6-6.5-23.3-16.1-31.4a46.3 46.3 0 0 0-32.5-12.6c-12.6 0-23.3 4.2-32.9 12.6a46.1 46.1 0 0 0-15.7 31.4c-.4 6.5-.8 23.3-.8 50.5s.4 45.1 1.1 51.6c1.9 24.9 22.6 43.2 48.2 43.2s46.3-18.4 48.2-43.2q1.3-9.8 1.3-51.6zm269.3 0c0 29.5-.4 48.2-1.1 56.6q-4 35-31 58.5c-18 15.7-39 23.3-63.9 23.3s-46.3-7.7-64.3-23.3-27.9-35.2-30.6-58.5c-.8-8.4-1.1-27.2-1.1-56.6s.4-47.8 1.1-56.2c2.7-23.3 12.6-42.8 30.6-58.5s39.4-23.3 64.3-23.3 45.9 7.7 63.9 23.3 28.3 35.2 31 58.5q1.1 12.5 1.1 56.2zm-46.7 0c0-27.2-.4-44-.8-50.5-1.1-12.6-6.5-23.3-16.1-31.4a46.3 46.3 0 0 0-32.5-12.6c-12.6 0-23.3 4.2-32.9 12.6a46.1 46.1 0 0 0-15.7 31.4c-.4 6.5-.8 23.3-.8 50.5s.4 45.1 1.1 51.6c1.9 24.9 22.6 43.2 48.2 43.2s46.3-18.4 48.2-43.2q1.4-9.8 1.4-51.6z"/><path fill="#414142" d="M3618.6 773.5c-7.3 1.7-13.5 4.7-20 .5s-11.7-4.2-18.2-2.4-12.6 1.5-18.9.7l-58.5-7.1a90.4 90.4 0 0 0-15.2-.6 12.8 12.8 0 0 0-7.1 2.4c-2.6 1.9-2.4 4.7.4 5.9a24.1 24.1 0 0 0 6.1 1.5l90.4 13.2 8.8 1.5c1.1.2 2.1.6 2.1 1.9a2.4 2.4 0 0 1-1.9 2.2c-1 .3-2.1.5-3.1.7-13.7 3.5-27.6 3.4-41.6 3.9-44.6 1.5-88.6-4.1-132.4-11.8-31-5.4-61.9-12-92.1-20.8s-56.7-19.8-82.1-36.1c-15.2-9.8-28.2-22.2-41.2-34.6l-6.4-6.1a2 2 0 0 1-.4-2.3c.4-1 1.4-.9 2.2-.7a30.2 30.2 0 0 1 5.4 1.7c21.5 10.4 44.5 16.1 67.4 22a1948.2 1948.2 0 0 0 247.1 46.9c16.2 2 32.4 3.2 48.6 4.7a386.4 386.4 0 0 1 51.3 8.3c3 .7 6.1 1.3 9.3 4.5zm-56.2 43l-8.3 2.3-42.3 11.1a42.6 42.6 0 0 0-8.3 3.2c-2.3 1.1-2.4 2.6-.5 4.4s4.8 2.5 7.6 2.7a36.5 36.5 0 0 0 10-1.2l38.3-8.7c2.8-.6 5.6-1.4 8.6-.3-.1 2.8-2 3.8-3.8 4.8a40 40 0 0 1-16.7 5.5c-46.3 4.3-92.5 9.3-139.1 9.5-12 0-24.1 1.1-36.1 1.8-8.7.5-17.3.3-25.6-3.1a8.7 8.7 0 0 0-8.5.5 9.2 9.2 0 0 1-2.3 1.1c-2.3.7-5.5 1.5-6.3-.8s2.5-3 4.5-3.9l1.8-.7c2.1-.7 4.2-1.9 3.8-4.4s-2.9-2-4.7-2.2c-8-.7-16-1.1-24-2-22.4-2.4-41.9-11.1-58.3-26.6l-2.2-2.3c-4.7-4.9-4.4-7.2 1.8-9.7 12.9-5.4 26.4-7.7 40.3-4.6 7.2 1.6 14.3 3.8 21.4 5.7 19.9 5.3 40.4 6.6 60.8 8.6 30.3 3 60.6 5.6 90.5 11.6 17.7 3.6 35.7 3.5 53.7 1 11.9-1.6 23.9-3.1 35.9-4.5 2.6-.4 5.1-1.3 8 1.2zm78.8 14.8c-8 5.4-16.5 7.8-24.3 11.3-12.5 5.6-25.2 10.8-37.9 16-8 3.3-16.1 6.4-23.7 10.5-2.2 1.2-6.1 1.7-4.5 5.5s4.6 1.4 6.8.7c17.3-5.5 34.5-11.2 51.8-16.9a49.7 49.7 0 0 1 10.4-2.5c-.9 2.1-2.4 2.4-3.5 3a514.7 514.7 0 0 1-70.6 32.8c-22.3 8.4-44.5 17.1-66.9 25.2-15.9 5.7-32.2 10.2-49.1 12.1-5.5.6-10.7 2.2-16 3.7a30.8 30.8 0 0 1-23.4-2.1l-16.4-8.3c-4.1-2.1-4.5-2.7-1.9-6.6s7.2-9.9 10.7-14.9c2.2-3.2 6.6-6 2.5-10.8-.5-.6.2-1.7 1.1-2a13.1 13.1 0 0 1 3.1-.4c30.7-1.4 60.9-6.6 90.9-12.8 15.7-3.2 31.4-6.7 47-10.2a90.7 90.7 0 0 0 23.6-8.9 56.7 56.7 0 0 1 19.1-6.4c14.1-2 27.4-6.7 40.4-12.6 5-2.3 10-4.4 15.1-6.4s10-2.6 15.7 1zm120.3-84.6a3.1 3.1 0 0 1 3.1.7c9.3 7.9 18.2 16.2 24.3 27.1 4.6 8.3 6.6 17.4 4.6 26.7s.9 16.7 7.2 22.9 14.2 14.9 17.6 25c1 2.8 3.3 4.9 5.7 6.7 7.9 6.2 10.8 14.6 8.2 23.8-2.1 7.4.2 11.8 5.9 15.6 2.2 1.5 4.1 3.5 6.3 5.1 12.2 9.1 15.1 22.6 17.6 36.3a4.4 4.4 0 0 1-1.5 4.4c-5.2 4.3-11.1 6.9-17.9 6.1-4.7-.5-7.8-3.9-8.8-8.5-3-13-9.9-23.9-17.2-34.7-5.1-7.6-7.9-16-6.8-25.3a15.7 15.7 0 0 0-2.5-10.9c-4.9-7.1-9.8-14.3-15.8-20.6a29.7 29.7 0 0 0-9.4-6.3c-4-1.9-6.1-5.1-7-9.4-1.4-6.9-2.9-13.7-4.4-20.6a38.6 38.6 0 0 0-1-4.8c-.9-2.5-1.5-5.7-4.9-5.7s-4.4 3.5-4.7 6.5c-.5 5.1-.5 1.6-1.3 6.8-1.3 8.6-5.8 3.5-14 5.4a30.1 30.1 0 0 1-13.7.5c-14-3.2-27.9 2-40.6-5.3-8.5-4.9-44.5-12.7-54.6-13-4.5-.1-5.3-2.1-3.7-6.6 5.3-14.8 41.4-13.2 50.6-25.6 2-2.8 5-4 7.2-.4s4.2 2.7 6.8 1.6l3-1.3a32.6 32.6 0 0 1 22.9-1.3c7.2 2.2 14.5 4.3 21.8 6.4 1.6.5 3.1 1 4.7 1.3 8.5 1.6 10.2.3 10.3-8.3.1-4.3 0-8.7 0-13 .2-2.4.2-5.1 2-7.3zm-101.1 118.2c-2.9 5.4-7.1 7.3-10.6 9.6-11.7 7.6-23.7 14.8-35.4 22.3s-22.3 14.3-33.3 21.7c-2.8 1.8-7.1 4.3-5.6 7.4s6.1.5 9-.6a145.2 145.2 0 0 0 34.5-18.1c17-11.9 33.7-24.4 52-34.4 3.1-1.7 6.2-3 9.7-2s4.5 3.2 1.5 5.5c-11.1 8.8-22.2 17.9-36.3 21.5a60.2 60.2 0 0 0-23.4 12.4c-11.2 9.3-22.2 19-34.6 26.8-10.6 6.7-21.2 13.6-32.9 18.4-8.9 3.7-17.4 8.2-26.2 12-16.1 7-32.2 14.4-49.4 18.2-3.5.8-8.5 3.4-10.5 0s2.7-6.1 4.8-8.9a70.1 70.1 0 0 1 19.3-17.1c21.5-13.1 43-26.1 63.6-40.5a411.4 411.4 0 0 1 49.2-29.8c15.1-7.7 30.9-13.8 45.8-22 2.5-1.4 5.1-1.6 8.8-2.4zm-1.7 74.6a24.3 24.3 0 0 0 8.7-5.1l48.8-41.1a18.6 18.6 0 0 1 13.3-4.8c-3.5 3.7-6.2 6.7-9.1 9.6a678.2 678.2 0 0 1-76 65.7c-15.2 11.3-30.7 22.3-47.1 31.9a85.4 85.4 0 0 1-22.4 8.8c-2.9.7-3.2-.6-2.5-2.8l.3-.6c8.4-14.2 18.8-26.9 32.9-36.9 2.8-1.9 6.1-2.7 9.3-3.3s5.1-1.5 6.7-3.7c9.6-13.7 22.9-24.1 35.3-35.3 14.4-13 28.8-25.8 43.3-38.7 1.8-1.6 3.7-2.9 5.5-4.5s3.9-2.1 5.7-.8.6 3.5-.7 5.1c-4.5 5.4-10.1 9.8-15.5 14.4-9.9 8.5-19.4 17.2-28.4 26.6a49.7 49.7 0 0 0-7.7 10.7c-.9 1.4-1.6 2.8-.4 4.8zm87.9-21.8c2.3 4.8 1.6 9.4.4 14s-2.6 8.6-3.2 13 1.7 5.7 6.1 3.7 5.2-5.1 6.6-8.4a71.2 71.2 0 0 1 9.3-15.5c1.1-1.4 2.2-2.9 4-3.7s5 0 4.5 3a33 33 0 0 1-2.1 6.8 154.3 154.3 0 0 1-17 31.9c-8.1 11.4-15.9 22.9-23.8 34.4-1.9 2.7-3.8 5.6-6.7 7.4s-7.4.4-7.6-3.9a4.3 4.3 0 0 1 .1-.9c4.4-28.1 10.7-55.7 27.2-80.2a12 12 0 0 1 2.2-1.6zm-58.2 37c-.7 4-2.4 7.6-3.8 11.3s-2.4 6.3-3.6 9.5-1.5 4.3.8 5.7 4.1-.3 5.6-1.8 5-5.1 7.7-8c1.1 1.6.2 2.9-.2 4.1a52.2 52.2 0 0 1-5.1 10.9c-7.4 11.6-15.8 22.4-26.6 31.1a27.9 27.9 0 0 1-2.5 2c-2.6 1.7-4 1.1-4-2a35.1 35.1 0 0 1 1.1-8.1 135.8 135.8 0 0 1 27-52.5 4.5 4.5 0 0 1 3.6-2.2zm79.7 38.2a16 16 0 0 1-.8-2.4c-1.6-12.1-1.7-12.1 7.7-19.8l6.5-5.1c.8-.6 1.6-1.6 2.7-.9s.8 1.8.4 2.8c-4 9.3-8.3 18.2-16.5 25.4zm-48.1-58.7c-1.5 5-5.3 8.3-8 13.3-.6-8.6 1.7-12.3 8-13.3zm-132.1-111.9l14.2-1.1c-5.9 5.2-8.6 5.5-14.2 1.1zm573.5-48.8c7.3 1.7 13.5 4.7 20 .5s11.7-4.2 18.2-2.4 12.6 1.5 18.9.7l58.5-7.1a90.4 90.4 0 0 1 15.2-.6 12.8 12.8 0 0 1 7.1 2.4c2.6 1.9 2.4 4.7-.4 5.9a24.1 24.1 0 0 1-6.1 1.5l-90.4 13.2-8.8 1.5c-1.1.2-2.1.6-2.1 1.9a2.4 2.4 0 0 0 1.9 2.2c1 .3 2.1.5 3.1.7 13.7 3.5 27.6 3.4 41.6 3.9 44.6 1.5 88.6-4.1 132.4-11.8 31-5.4 61.9-12 92.1-20.8s56.7-19.8 82.1-36.1c15.2-9.8 28.2-22.2 41.2-34.6l6.4-6.1a2 2 0 0 0 .4-2.3c-.4-1-1.4-.9-2.2-.7a30.2 30.2 0 0 0-5.4 1.7c-21.5 10.4-44.5 16.1-67.4 22a1948.2 1948.2 0 0 1-247 46.9c-16.2 2-32.4 3.2-48.6 4.7a386.4 386.4 0 0 0-51.3 8.3c-3 .7-6.2 1.3-9.4 4.5zm56.2 43l8.3 2.3 42.3 11.1a42.6 42.6 0 0 1 8.3 3.2c2.3 1.1 2.4 2.6.5 4.4s-4.8 2.5-7.6 2.7a36.5 36.5 0 0 1-10-1.2l-38.3-8.7c-2.8-.6-5.6-1.4-8.6-.3.1 2.8 2 3.8 3.8 4.8a40 40 0 0 0 16.7 5.5c46.3 4.3 92.5 9.3 139.1 9.5 12 0 24.1 1.1 36.1 1.8 8.7.5 17.3.3 25.6-3.1a8.7 8.7 0 0 1 8.5.5 9.2 9.2 0 0 0 2.3 1.1c2.3.7 5.5 1.5 6.3-.8s-2.5-3-4.5-3.9l-1.8-.7c-2.1-.7-4.2-1.9-3.8-4.4s2.9-2 4.7-2.2c8-.7 16-1.1 24-2 22.4-2.4 41.9-11.1 58.3-26.6l2.2-2.3c4.7-4.9 4.4-7.2-1.8-9.7-12.9-5.4-26.4-7.7-40.3-4.6-7.2 1.6-14.3 3.8-21.4 5.7-19.9 5.3-40.4 6.6-60.8 8.6-30.3 3-60.6 5.6-90.5 11.6-17.7 3.6-35.7 3.5-53.7 1-11.9-1.6-23.9-3.1-35.9-4.5-2.5-.4-5.1-1.3-8 1.2zm-78.7 14.8c8 5.4 16.5 7.8 24.3 11.3 12.5 5.6 25.2 10.8 37.9 16 8 3.3 16.1 6.4 23.7 10.5 2.2 1.2 6.1 1.7 4.5 5.5s-4.6 1.4-6.8.7c-17.3-5.5-34.5-11.2-51.8-16.9a49.7 49.7 0 0 0-10.4-2.5c.9 2.1 2.4 2.4 3.5 3a514.7 514.7 0 0 0 70.6 32.8c22.3 8.4 44.5 17.1 66.9 25.2 15.9 5.7 32.2 10.2 49.1 12.1 5.5.6 10.7 2.2 16 3.7a30.8 30.8 0 0 0 23.4-2.1l16.4-8.3c4.1-2.1 4.5-2.7 1.9-6.6s-7.2-9.9-10.7-14.9c-2.2-3.2-6.6-6-2.5-10.8.5-.6-.2-1.7-1.1-2a13.1 13.1 0 0 0-3.1-.4c-30.7-1.4-60.9-6.6-90.9-12.8-15.7-3.2-31.4-6.7-47-10.2a90.7 90.7 0 0 1-23.6-8.9 56.7 56.7 0 0 0-19.1-6.4c-14.1-2-27.4-6.7-40.4-12.6-5-2.3-10-4.4-15.1-6.4s-10-2.6-15.7 1zm-120.4-84.6a3.1 3.1 0 0 0-3.1.7c-9.3 7.9-18.2 16.2-24.3 27.1-4.6 8.3-6.6 17.4-4.6 26.7s-.9 16.7-7.2 22.9-14.2 14.9-17.6 25c-1 2.8-3.3 4.9-5.7 6.7-7.9 6.2-10.8 14.6-8.2 23.8 2.1 7.4-.2 11.8-5.9 15.6-2.2 1.5-4.1 3.5-6.3 5.1-12.2 9.1-15.1 22.6-17.6 36.3a4.4 4.4 0 0 0 1.5 4.4c5.2 4.3 11.1 6.9 17.9 6.1 4.7-.5 7.8-3.9 8.8-8.5 3-13 9.9-23.9 17.2-34.7 5.1-7.6 7.9-16 6.8-25.3a15.7 15.7 0 0 1 2.5-10.9c4.9-7.1 9.8-14.3 15.8-20.6a29.7 29.7 0 0 1 9.4-6.3c4-1.9 6.1-5.1 7-9.4 1.4-6.9 2.9-13.7 4.4-20.6a38.6 38.6 0 0 1 1-4.8c.9-2.5 1.5-5.7 4.9-5.7s4.4 3.5 4.7 6.5c.5 5.1.5 1.6 1.3 6.8 1.3 8.6 5.8 3.5 14 5.4a30.1 30.1 0 0 0 13.7.5c14-3.2 27.9 2 40.6-5.3 8.5-4.9 44.5-12.7 54.6-13 4.5-.1 5.3-2.1 3.7-6.6-5.3-14.8-41.4-13.2-50.6-25.6-2-2.8-5-4-7.2-.4s-4.2 2.7-6.8 1.6l-3-1.3a32.6 32.6 0 0 0-22.9-1.3c-7.2 2.2-14.5 4.3-21.8 6.4-1.6.5-3.1 1-4.7 1.3-8.5 1.6-10.2.3-10.3-8.3-.1-4.3 0-8.7 0-13-.2-2.4-.1-5.1-2-7.3zm101.1 118.2c2.9 5.4 7.1 7.3 10.6 9.6 11.7 7.6 23.7 14.8 35.4 22.3s22.3 14.3 33.3 21.7c2.8 1.8 7.1 4.3 5.6 7.4s-6.1.5-9-.6a145.2 145.2 0 0 1-34.5-18.1c-17-11.9-33.7-24.4-52-34.4-3.1-1.7-6.2-3-9.7-2s-4.5 3.2-1.5 5.5c11.1 8.8 22.2 17.9 36.3 21.5a60.2 60.2 0 0 1 23.4 12.4c11.2 9.3 22.2 19 34.6 26.8 10.6 6.7 21.2 13.6 32.9 18.4 8.9 3.7 17.4 8.2 26.2 12 16.1 7 32.2 14.4 49.4 18.2 3.5.8 8.5 3.4 10.5 0s-2.7-6.1-4.8-8.9a70.1 70.1 0 0 0-19.3-17.1c-21.5-13.1-43-26.1-63.6-40.5a411.4 411.4 0 0 0-49.2-29.8c-15.1-7.7-30.9-13.8-45.8-22-2.4-1.4-5-1.6-8.8-2.4zm1.7 74.6a24.3 24.3 0 0 1-8.7-5.1l-48.8-41.1a18.6 18.6 0 0 0-13.3-4.8c3.5 3.7 6.2 6.7 9.1 9.6a678.2 678.2 0 0 0 76 65.7c15.2 11.3 30.7 22.3 47.1 31.9a85.4 85.4 0 0 0 22.4 8.8c2.9.7 3.2-.6 2.5-2.8l-.3-.6c-8.4-14.2-18.8-26.9-32.9-36.9-2.8-1.9-6.1-2.7-9.3-3.3s-5.1-1.5-6.7-3.7c-9.6-13.7-22.9-24.1-35.3-35.3-14.4-13-28.8-25.8-43.3-38.7-1.8-1.6-3.7-2.9-5.5-4.5s-3.9-2.1-5.7-.8-.6 3.5.7 5.1c4.5 5.4 10.1 9.8 15.5 14.4 9.9 8.5 19.4 17.2 28.4 26.6a49.7 49.7 0 0 1 7.7 10.7c1 1.4 1.6 2.8.4 4.8zm-87.9-21.8c-2.3 4.8-1.6 9.4-.4 14s2.6 8.6 3.2 13-1.7 5.7-6.1 3.7-5.2-5.1-6.6-8.4a71.2 71.2 0 0 0-9.3-15.5c-1.1-1.4-2.2-2.9-4-3.7s-5 0-4.5 3a33 33 0 0 0 2.1 6.8 154.3 154.3 0 0 0 17 31.9c8.1 11.4 15.9 22.9 23.8 34.4 1.9 2.7 3.8 5.6 6.7 7.4s7.4.4 7.6-3.9a4.3 4.3 0 0 0-.1-.9c-4.4-28.1-10.7-55.7-27.2-80.2a12 12 0 0 0-2.2-1.6zm58.3 37c.7 4 2.4 7.6 3.8 11.3s2.4 6.3 3.6 9.5 1.5 4.3-.8 5.7-4.1-.3-5.6-1.8-5-5.1-7.7-8c-1.1 1.6-.2 2.9.2 4.1a52.2 52.2 0 0 0 5.1 10.9c7.4 11.6 15.8 22.4 26.6 31.1a27.9 27.9 0 0 0 2.5 2c2.6 1.7 4 1.1 4-2a35.1 35.1 0 0 0-1.1-8.1 135.8 135.8 0 0 0-27-52.5 4.5 4.5 0 0 0-3.6-2.2zm-79.7 38.2a16 16 0 0 0 .8-2.4c1.6-12.1 1.7-12.1-7.7-19.8l-6.5-5.1c-.8-.6-1.6-1.6-2.7-.9s-.8 1.8-.4 2.8c3.9 9.3 8.3 18.2 16.5 25.4zm48-58.7c1.5 5 5.3 8.3 8 13.3.6-8.6-1.7-12.3-8-13.3zm132.2-111.9l-14.2-1.1c5.9 5.2 8.6 5.5 14.2 1.1z"/><path fill="#fff" d="M3640.4 1112.5V996.8h19.8l66.3 80.4v-80.4h21.7v115.8h-18.3l-67.7-81.9v81.9zm125.7 0l52.3-115.8h19l52.3 115.8H3866l-10.2-23.1h-55.7l-10.2 23.1zm41-40.2h41.7l-20.8-47.2zm100.6 40.2V996.8h19.3l44.9 65 44.7-65h19v115.8h-21.2v-78.4l-42.6 61.1-42.9-61v78.2zm155.8 0V996.8h79.8v18.8H4086v27.6h53.7v18.8H4086v31.9h58.6v18.8z"/><path fill="#dcbf30" d="M3858.5 1565.3c0 60.8-.8 99.5-2.4 116.8q-8.3 72.2-63.9 120.8c-37.1 32.4-80.5 48.2-131.8 48.2s-95.5-15.8-132.6-48.2-57.6-72.6-63.2-120.8c-1.6-17.4-2.4-56.1-2.4-116.8s.8-98.7 2.4-116.1c5.5-48.2 26.1-88.4 63.2-120.8s81.3-48.2 132.6-48.2 94.7 15.8 131.8 48.2 58.4 72.6 63.9 120.8q2.4 26.1 2.4 116.1zm-96.3 0c0-56.1-.8-90.8-1.6-104.2-2.4-26.1-13.4-48.2-33.2-64.7s-41.1-26.1-67.1-26.1-48.2 8.7-67.9 26.1-30 38.7-32.4 64.7c-.8 13.4-1.6 48.2-1.6 104.2q0 86.4 2.4 106.6c3.9 51.3 46.6 89.2 99.5 89.2s95.5-37.9 99.5-89.2q2.3-20.2 2.3-106.6zm555.7 0c0 60.8-.8 99.5-2.4 116.8q-8.3 72.2-63.9 120.8c-37.1 32.4-80.5 48.2-131.8 48.2s-95.5-15.8-132.6-48.2-57.6-72.6-63.2-120.8c-1.6-17.4-2.4-56.1-2.4-116.8s.8-98.7 2.4-116.1c5.5-48.2 26.1-88.4 63.2-120.8s81.3-48.2 132.6-48.2 94.7 15.8 131.8 48.2 58.4 72.6 63.9 120.8q2.4 26.1 2.4 116.1zm-96.3 0c0-56.1-.8-90.8-1.6-104.2-2.4-26.1-13.4-48.2-33.2-64.7s-41.1-26.1-67.1-26.1-48.2 8.7-67.9 26.1-30 38.7-32.4 64.7c-.8 13.4-1.6 48.2-1.6 104.2q0 86.4 2.4 106.6c3.9 51.3 46.6 89.2 99.5 89.2s95.5-37.9 99.5-89.2q2.4-20.2 2.4-106.6zM3890 790.9a47 47 0 1 1 47-47 47.1 47.1 0 0 1-47 47zm0-84.3a37.3 37.3 0 1 0 37.3 37.3 37.3 37.3 0 0 0-37.3-37.3z"/><path fill="#dcbf30" d="M3859.9 834.7a47 47 0 1 1 47-47 47.1 47.1 0 0 1-47 47zm0-84.3a37.3 37.3 0 1 0 37.3 37.3 37.3 37.3 0 0 0-37.3-37.3z"/><path fill="#dcbf30" d="M3920.1 834.7a47 47 0 1 1 47-47 47.1 47.1 0 0 1-47 47zm0-84.3a37.3 37.3 0 1 0 37.3 37.3 37.3 37.3 0 0 0-37.3-37.3zm-77 97.9c0-3.4 1.8-5.3 5.1-5.3s5.1 1.9 5.1 5.3v11a6.2 6.2 0 0 1-.6 3c.2.4.4.5.9.5h.3v3h-.5a2.9 2.9 0 0 1-2.9-1.5 6.8 6.8 0 0 1-2.3.4c-3.3 0-5.1-1.9-5.1-5.3zm3.3 11.2c0 1.5.7 2.1 1.7 2.1s1.7-.6 1.7-2.1v-11.4c0-1.5-.7-2.1-1.7-2.1s-1.7.6-1.7 2.1zm12.2-16.3v16.3c0 1.5.7 2.1 1.7 2.1s1.7-.5 1.7-2.1v-16.3h3.1v16.1c0 3.4-1.7 5.3-5 5.3s-5-1.9-5-5.3v-16.1zm8.9 0h3.3v21.2h-3.3zm5.7 0h5.3c3.3 0 5 1.8 5 5.2v10.7c0 3.4-1.6 5.2-5 5.2h-5.3zm3.3 3v15.1h1.9c1.1 0 1.7-.5 1.7-2.1v-11c0-1.5-.6-2.1-1.7-2.1zm9.1-3h5.3c3.3 0 5 1.8 5 5.2v10.7c0 3.4-1.6 5.2-5 5.2h-5.3zm3.3 3v15.1h1.9c1.1 0 1.7-.5 1.7-2.1v-11c0-1.5-.6-2.1-1.7-2.1zm9-3h3.3v21.2h-3.3zm4.8 0h10.3v3h-3.5v18.2h-3.3v-18.2h-3.5zm21.4 13.3v2.8c0 3.4-1.7 5.3-5 5.3s-5-1.9-5-5.3v-11c0-3.4 1.7-5.3 5-5.3s5 1.9 5 5.3v2.1h-3.1v-2.3c0-1.5-.7-2.1-1.7-2.1s-1.7.6-1.7 2.1v11.4c0 1.5.7 2.1 1.7 2.1s1.7-.5 1.7-2.1v-3zm5.4 7.9h-3.3v-21.2h3.3v9.1h3.8v-9.1h3.4v21.2h-3.4v-9.1h-3.8z"/><g clip-path="url(#b)"><path fill="url(#c)" d="M2289.6 1646.4l-1016.8 104.7-1083.9-111.6v-515l1083.9 111.6 1016.8-104.7v515z"/><path fill="url(#a)" d="M2289.6 1883.8l-1016.8 104.7-1042.6-107.4V1717l1042.6 107.3 1016.8-104.7"/><path fill="url(#d)" d="M2289.6 1883.8l-1016.8 104.7L256 1883.8v-164.2l1016.8 104.7 1016.8-104.7v164.2z"/><path fill="none" stroke="#dcbf30" stroke-miterlimit="10" stroke-width="28.39" d="M2289.6 1648.4l-1016.8 104.7-1083.9-113.6m2100.7 296.6l-1016.8 104.7-1071.1-110.3m1931.1-782.6l-860 88.5-849.5-87.4"/></g><circle cx="1272.8" cy="1492.5" r="318.1" fill="#dcbf30"/><circle cx="1272.8" cy="1492.5" r="305.4" fill="#231f20"/><path fill="#fff" d="M1037 1533.7a31.2 31.2 0 0 1 14.4 19.3 30.6 30.6 0 0 1-2.8 23.7 28.7 28.7 0 0 1-18.4 14.5 27.7 27.7 0 0 1-20.3-2.1l-4.7 6.9-9.4-6.5 4.9-7.2a26.7 26.7 0 0 1-7.8-13.4 31.5 31.5 0 0 1 2.5-23.9 29.7 29.7 0 0 1 41.5-11.3zm-29.6 38.2l6.2-9.3 9.5 6.4-6.4 9.6a17.5 17.5 0 0 0 10.2 0 18 18 0 0 0 11.2-8.6 17.5 17.5 0 0 0 1.9-13.9 18.6 18.6 0 0 0-34.1-4.5 18.5 18.5 0 0 0-1.6 14.2 14.7 14.7 0 0 0 3.1 6.1zm66.2 39.1l7.8 10.4-27 20.3c-7.6 5.7-9 11.8-4.1 18.2s11 6.7 18.6 1l27-20.3 7.8 10.4-28 21.1c-6.3 4.8-12.6 6.5-18.9 5.4s-11.6-4.7-15.9-10.4-6.3-11.9-5.8-18.2 4-11.9 10.4-16.7zm23.3 111.3l34.7-47.6 10.5 7.7-34.7 47.6zm57.5 35.4l19.2-55.7 21.1 7.3c9.4 3.2 15.8 8.3 19.2 15.3s3.7 14.5.8 22.9-7.8 14.3-14.6 17.6-14.9 3.3-24.4 0zm16.2-7l8.1 2.8c13.1 4.5 20.1-.2 23.6-10.4 1.8-5.2 1.9-9.8.2-13.7s-5.7-7-12.4-9.3l-8-2.7zm87.8 31.8l-2.3-58.9 22.3-.8c10-.4 17.8 2 23.4 7.3s8.7 12.2 9 21.1-2.1 16.2-7.3 21.7-12.7 8.4-22.8 8.8zm12.6-12.3l8.5-.3c13.9-.5 18.7-7.4 18.3-18.2-.2-5.5-1.8-9.8-4.8-12.8s-7.9-4.4-14.9-4.2l-8.4.3zm91.3-2.5l-19.5-55.6 12.3-4.3 19.5 55.6zm70-33.8l-26.8-38.7-13.1 9.1-6.7-9.7 36.7-25.5 6.7 9.7-12.9 9 26.8 38.7zm50.9-121.5l.8 11.6a19.1 19.1 0 0 0-14.3 8.1 18.2 18.2 0 0 0-3.6 13.8 17.7 17.7 0 0 0 7.5 12.2 18 18 0 0 0 13.8 3.6 18.6 18.6 0 0 0 12.2-7.6 19.2 19.2 0 0 0 3.5-16.1l11.3-2.7a31.2 31.2 0 0 1-5.3 25.8 31.7 31.7 0 0 1-20.3 13 30.2 30.2 0 0 1-35-25.8 32.3 32.3 0 0 1 29.4-35.9zm61.8-18.4l-56.8-15.6 3.4-12.6 21.1 5.8 6.7-24.6-21.1-5.8 3.4-12.6 56.8 15.6-3.4 12.6-24.3-6.7-6.7 24.6 24.3 6.7zm-495.9-157.2l-63.2 7.7 3.7-13.4 42.7-4.9-34.2-26 3.7-13.4 50.4 38.9zm15.8-48.2l-35.3-53.1 6.5-9.6 62.4 12.7-7.7 11.5-10.4-2.2-13.7 20.4 6 8.8zm-4.8-29.2l9.6-14.2-22.5-4.9zm61.7-41.8l-35.3-47.2 10.4-7.8 28.2 37.7 18.4-13.7 7.1 9.5zm58-36.7l-19.4-55.6 36.6-12.8 3.9 11.2-24.3 8.5 4 11.4 22.2-7.8 3.8 10.9-22.2 7.8 7.7 22.1zm69.5-18.7l-.4-58.9h24.7a19.5 19.5 0 0 1 14.2 5.6 18.1 18.1 0 0 1 6 13.7c0 7.5-4 14.1-10.4 16.8l14.5 22.7h-14.7l-12.4-19.5h-8.7v19.6zm12.7-31.2h10.3c5.1 0 8.4-3.3 8.4-8.2s-3.3-7.8-7.4-7.7h-11.4zm66.4 37l18.9-55.8 38.1 12.9-3.8 11.2-25.8-8.7-3.6 10.5 24.1 8.2-3.7 11-24.1-8.2-4 11.9 26.3 8.9-3.8 11.2zm80.5 38.4l13.5-17.4 5.5-42.4 11.2 8.6-3.9 28 26.1-10.8 11.2 8.6-39.7 15.9-13.5 17.4zm50.8 32a20.4 20.4 0 0 0 2.6 4.4c3.4 4.7 6.7 4 11.1.8l31.9-23.2 7.6 10.5-31.3 22.8c-4 2.9-6.5 4.5-10.6 5.7-5.7 1.9-11.1-.2-17.4-8.3a34.7 34.7 0 0 1-3.5-5.8zm21.5 51.4l63.6 4.1 3.7 11-47.9 42-4.5-13.1 8.1-6.9-7.9-23.3-10.6-.6zm26.2 13.9l5.5 16.2 17.5-15z"/><circle cx="1272.8" cy="1492.5" r="212.1" fill="#dcbf30"/><circle cx="1272.8" cy="1492.5" r="203.6" fill="#fff"/><path fill="#dcbf30" d="M1326.2 1481.1l-95.5-165.3-130 225.3h68.7l26.9-46.6h-14.9l49.3-85.4 42.1 72.9 53.4-.9z"/><path fill="#dcbf30" d="M1307.4 1422l-26.9-46.6 34.4-59.6 130 225.3h-190.8l25.9-46.6h84.1l-49.2-85.4-7.5 12.9z"/><path fill="#dcbf30" d="M1238.2 1448.7l27.4 45.8-42.1 72.9h98.6l-7.2-12.5 53.6-.4 34.4 59.5h-260.2l95.5-165.3z"/><path fill="none" stroke="#fff" stroke-linejoin="bevel" stroke-width="3" d="M1272.6 3090.1h928.8c6.9 0 3.6-10.3 3.6-16.1V1422c0 1-50.8-1.6-55.3-2.1-19.2-2.4-38.6-6.5-56.2-15-73-35.3-107.2-111.4-120.3-188.1-27.3-159.1 5.1-326.3 37.4-482.3l3.5-16.8c.5-2.3-10.2-4.2-12.5-4.9l-27.6-8.2-56.1-16.8-113.8-34c-77.1-23-154.5-45.5-231-70.6l-3.6 20.4c-13.7 77-37.7 150.2-93.2 207.5s-137.5 74.4-214.5 74.2-155.5-29.8-206.6-88.8-69.9-136.9-83.1-213.2c-109.6 35.8-220.6 67.4-331 100.4L585 700.5l-30.1 9c-6.4 1.9-24.7 3.9-23.2 10.8 8.2 39.5 16.2 79 23.1 118.7 14.1 81.2 25.1 163.2 26.4 245.7 1.2 78.4-5.7 159.9-40.9 231.2-17.1 34.6-41.9 63.3-75.6 82.4s-74 23.6-113.3 23.6c-9.7 0-11-2.6-11 5.3v1641.2c0 2.4-1.3 21.6 1.1 21.6h931.3z"/></svg>