<svg id="Layer_1" data-name="Layer 1" xmlns="http://www.w3.org/2000/svg" width="792" height="792" viewBox="0 0 792 792"><title>logos</title><circle cx="274.1" cy="274.1" r="214.5" fill="#dcbf30"/><circle cx="274.1" cy="274.1" r="205.9" fill="#231f20"/><path d="M115.1,301.9a21.1,21.1,0,0,1,9.7,13,20.6,20.6,0,0,1-1.9,16,19.4,19.4,0,0,1-12.4,9.8,18.7,18.7,0,0,1-13.7-1.4l-3.2,4.6-6.3-4.4,3.3-4.9a18,18,0,0,1-5.3-9,21.2,21.2,0,0,1,1.7-16.1,20,20,0,0,1,28-7.6ZM95.2,327.7l4.2-6.3,6.4,4.3-4.3,6.4a11.8,11.8,0,0,0,6.9,0,12.1,12.1,0,0,0,7.6-5.8,11.8,11.8,0,0,0,1.3-9.4,12.6,12.6,0,0,0-23-3,12.5,12.5,0,0,0-1.1,9.6A9.9,9.9,0,0,0,95.2,327.7Z" fill="#fff"/><path d="M139.8,354l5.3,7-18.2,13.7c-5.1,3.9-6,8-2.8,12.3s7.4,4.5,12.6.7L154.9,374l5.3,7-18.9,14.2c-4.3,3.2-8.5,4.4-12.8,3.6a17.3,17.3,0,0,1-10.7-7,17.5,17.5,0,0,1-3.9-12.3c.4-4.3,2.7-8,7-11.3Z" fill="#fff"/><path d="M155.5,429.1,179,397l7.1,5.2-23.4,32.1Z" fill="#fff"/><path d="M194.3,453l12.9-37.6,14.2,4.9c6.4,2.2,10.7,5.6,12.9,10.3s2.5,9.8.5,15.4-5.3,9.6-9.9,11.9-10,2.2-16.5,0Zm10.9-4.7,5.4,1.9c8.8,3,13.5-.1,15.9-7,1.2-3.5,1.3-6.6.1-9.2s-3.9-4.7-8.3-6.2l-5.4-1.9Z" fill="#fff"/><path d="M264.4,469.7,262.9,430l15-.6c6.7-.3,12,1.4,15.8,4.9s5.8,8.2,6.1,14.2-1.4,10.9-4.9,14.6-8.6,5.7-15.3,5.9Zm8.5-8.3,5.8-.2c9.3-.4,12.6-5,12.3-12.3-.1-3.7-1.2-6.6-3.2-8.7s-5.3-3-10-2.8l-5.7.2Z" fill="#fff"/><path d="M334.5,459.7l-13.1-37.5,8.3-2.9,13.1,37.5Z" fill="#fff"/><path d="M381.7,436.9l-18.1-26.1-8.8,6.1-4.5-6.6L375,393.2l4.5,6.6-8.7,6.1,18.1,26.1Z" fill="#fff"/><path d="M416,354.9l.5,7.8a12.9,12.9,0,0,0-9.6,5.4,12.3,12.3,0,0,0-2.4,9.3,11.9,11.9,0,0,0,5,8.2,12.1,12.1,0,0,0,9.3,2.4A12.5,12.5,0,0,0,427,383a13,13,0,0,0,2.4-10.9l7.6-1.8a21,21,0,0,1-3.6,17.4,21.4,21.4,0,0,1-13.7,8.7,20.4,20.4,0,0,1-23.6-17.4A21.8,21.8,0,0,1,416,354.9Z" fill="#fff"/><path d="M457.6,342.5,419.3,332l2.3-8.5,14.2,3.9,4.5-16.6L426.2,307l2.3-8.5L466.8,309l-2.3,8.5L448.1,313l-4.5,16.6,16.4,4.5Z" fill="#fff"/><path d="M123.3,236.6l-42.6,5.2,2.5-9,28.8-3.3L88.9,211.9l2.5-9,34,26.2Z" fill="#fff"/><path d="M133.9,204.1l-23.8-35.8,4.4-6.5,42.1,8.6-5.2,7.8-7-1.5-9.3,13.8,4,5.9Zm-3.2-19.7,6.5-9.6L122,171.5Z" fill="#fff"/><path d="M172.3,156.2l-23.8-31.8,7-5.2,19,25.4,12.4-9.3,4.8,6.4Z" fill="#fff"/><path d="M211.4,131.4,198.3,93.9,223,85.3l2.6,7.5-16.4,5.7,2.7,7.7,15-5.2,2.6,7.4-15,5.2,5.2,14.9Z" fill="#fff"/><path d="M258.2,118.8,258,79.1h16.6a13.1,13.1,0,0,1,9.5,3.8,12.2,12.2,0,0,1,4.1,9.3,12,12,0,0,1-7,11.3l9.8,15.3h-9.9l-8.3-13.2h-5.9v13.2Zm8.6-21h7c3.4,0,5.7-2.2,5.7-5.6a5,5,0,0,0-5-5.2h-7.7Z" fill="#fff"/><path d="M311.6,122.8l12.8-37.6,25.7,8.7-2.6,7.6-17.4-5.9-2.4,7.1,16.2,5.5-2.5,7.4L325.2,110l-2.7,8,17.8,6-2.6,7.6Z" fill="#fff"/><path d="M365.9,148.7,375,137l3.7-28.6,7.5,5.8L383.6,133l17.6-7.3,7.5,5.8-26.8,10.7L372.8,154Z" fill="#fff"/><path d="M400.1,170.2a13.8,13.8,0,0,0,1.7,3c2.3,3.1,4.5,2.7,7.5.5l21.5-15.7,5.2,7.1-21.1,15.3a21.1,21.1,0,0,1-7.1,3.8c-3.9,1.3-7.5-.1-11.7-5.6a23.3,23.3,0,0,1-2.4-3.9Z" fill="#fff"/><path d="M414.6,204.9l42.9,2.8,2.5,7.4-32.3,28.3-3-8.8,5.4-4.7-5.4-15.7-7.2-.4Zm17.6,9.4,3.7,11,11.8-10.1Z" fill="#fff"/><circle cx="274.1" cy="274.1" r="143" fill="#dcbf30"/><circle cx="274.1" cy="274.1" r="137.3" fill="#fff"/><polygon points="310.1 266.5 245.8 155 158.1 306.9 204.4 306.9 222.6 275.5 212.5 275.5 245.8 217.9 274.1 267.1 310.1 266.5" fill="#dcbf30"/><polygon points="297.5 226.6 279.3 195.2 302.5 155 390.2 306.9 261.5 306.9 279 275.5 335.7 275.5 302.5 217.9 297.5 226.6" fill="#dcbf30"/><polygon points="250.8 244.6 269.3 275.5 240.9 324.6 307.4 324.6 302.5 316.2 338.6 315.9 361.8 356.1 186.4 356.1 250.8 244.6" fill="#dcbf30"/><path d="M469.2,610.9a16,16,0,0,1,7.4,9.9,15.7,15.7,0,0,1-1.4,12.2,14.7,14.7,0,0,1-9.4,7.4,14.2,14.2,0,0,1-10.4-1.1l-2.4,3.5-4.8-3.3,2.5-3.7a13.7,13.7,0,0,1-4-6.9,16.2,16.2,0,0,1,1.3-12.3,15.3,15.3,0,0,1,21.3-5.8ZM454,630.5l3.2-4.8,4.9,3.3-3.3,4.9a9,9,0,0,0,5.2,0,9.2,9.2,0,0,0,5.8-4.4,9,9,0,0,0,1-7.1,9.6,9.6,0,0,0-17.5-2.3,9.5,9.5,0,0,0-.8,7.3A7.5,7.5,0,0,0,454,630.5Z" fill="#231f20"/><path d="M488,650.5l4,5.3-13.8,10.4c-3.9,2.9-4.6,6.1-2.1,9.4s5.7,3.5,9.6.5l13.8-10.4,4,5.3-14.4,10.8c-3.3,2.5-6.5,3.4-9.7,2.8a13.2,13.2,0,0,1-8.2-5.4,13.3,13.3,0,0,1-3-9.3c.3-3.3,2.1-6.1,5.4-8.6Z" fill="#231f20"/><path d="M499.9,707.6l17.8-24.4,5.4,3.9-17.8,24.4Z" fill="#231f20"/><path d="M529.4,725.8l9.9-28.6,10.8,3.7c4.8,1.7,8.1,4.3,9.8,7.8s1.9,7.4.4,11.7-4,7.3-7.5,9-7.6,1.7-12.5,0Zm8.3-3.6,4.1,1.4c6.7,2.3,10.3-.1,12.1-5.3a9.5,9.5,0,0,0,.1-7c-.8-2-2.9-3.6-6.3-4.7l-4.1-1.4Z" fill="#231f20"/><path d="M582.8,738.5l-1.2-30.2,11.4-.4c5.1-.2,9.1,1,12,3.8s4.4,6.3,4.6,10.8-1.1,8.3-3.7,11.1-6.5,4.3-11.7,4.5Zm6.4-6.3,4.4-.2c7.1-.3,9.6-3.8,9.4-9.3a9.6,9.6,0,0,0-2.5-6.6c-1.5-1.5-4-2.3-7.6-2.1l-4.3.2Z" fill="#231f20"/><path d="M636.1,730.9l-10-28.5,6.3-2.2,10,28.5Z" fill="#231f20"/><path d="M672,713.6l-13.8-19.9-6.7,4.7-3.5-5,18.8-13.1,3.5,5-6.6,4.6,13.8,19.9Z" fill="#231f20"/><path d="M698.1,651.2l.4,6a9.8,9.8,0,0,0-7.3,4.1,9.3,9.3,0,0,0-1.8,7.1,9.1,9.1,0,0,0,3.8,6.3,9.2,9.2,0,0,0,7.1,1.8,9.5,9.5,0,0,0,6.2-3.9,9.9,9.9,0,0,0,1.8-8.3l5.8-1.4a16,16,0,0,1-2.7,13.2,16.3,16.3,0,0,1-10.4,6.7,15.5,15.5,0,0,1-17.9-13.2,16.6,16.6,0,0,1,15.1-18.4Z" fill="#231f20"/><path d="M729.8,641.8l-29.1-8,1.8-6.4,10.8,3,3.5-12.6-10.8-3,1.8-6.4,29.2,8-1.8,6.4-12.5-3.4L719.1,632l12.5,3.4Z" fill="#231f20"/><path d="M475.4,561.2,443,565.1l1.9-6.9,21.9-2.5-17.6-13.3,1.9-6.9L477,555.5Z" fill="#231f20"/><path d="M483.5,536.4l-18.1-27.3,3.3-4.9,32,6.5-4,5.9-5.3-1.1-7,10.5,3.1,4.5Zm-2.5-15,4.9-7.3-11.5-2.5Z" fill="#231f20"/><path d="M512.7,500l-18.1-24.2,5.4-4,14.5,19.4,9.5-7.1,3.6,4.9Z" fill="#231f20"/><path d="M542.5,481.2l-9.9-28.5,18.8-6.6,2,5.7-12.5,4.4,2,5.9,11.4-4,2,5.6-11.4,4,4,11.3Z" fill="#231f20"/><path d="M578.1,471.6l-.2-30.2h12.7a10,10,0,0,1,7.3,2.9,9.3,9.3,0,0,1,3.1,7.1,9.2,9.2,0,0,1-5.3,8.6l7.4,11.6h-7.5l-6.4-10h-4.5v10.1Zm6.5-16H590a4,4,0,0,0,4.3-4.2,3.8,3.8,0,0,0-3.8-4h-5.9Z" fill="#231f20"/><path d="M618.7,474.6l9.7-28.6,19.6,6.6-2,5.7-13.2-4.5-1.8,5.4,12.4,4.2-1.9,5.6-12.4-4.2L627,471l13.5,4.6-2,5.8Z" fill="#231f20"/><path d="M660,494.3l6.9-8.9,2.8-21.8,5.7,4.4-2,14.3,13.4-5.5,5.7,4.4-20.4,8.2-6.9,8.9Z" fill="#231f20"/><path d="M686.1,510.7a10.5,10.5,0,0,0,1.3,2.3c1.7,2.4,3.5,2,5.7.4l16.4-11.9,3.9,5.4-16.1,11.7a16.1,16.1,0,0,1-5.4,2.9c-2.9,1-5.7-.1-8.9-4.2a17.8,17.8,0,0,1-1.8-3Z" fill="#231f20"/><path d="M697.1,537.1l32.7,2.1,1.9,5.6-24.6,21.5-2.3-6.7L709,556l-4.1-11.9-5.5-.3Zm13.4,7.1,2.8,8.3,9-7.7Z" fill="#231f20"/><polygon points="617.6 583.9 568.6 499.1 501.9 614.7 537.1 614.7 550.9 590.7 543.3 590.7 568.6 546.9 590.2 584.3 617.6 583.9" fill="#dcbf30"/><polygon points="607.9 553.6 594.1 529.6 611.8 499.1 678.5 614.7 580.6 614.7 593.9 590.7 637 590.7 611.8 546.9 607.9 553.6" fill="#dcbf30"/><polygon points="572.4 567.2 586.5 590.7 564.9 628.1 615.5 628.1 611.8 621.7 639.3 621.5 656.9 652.1 523.4 652.1 572.4 567.2" fill="#dcbf30"/></svg>