<svg xmlns="http://www.w3.org/2000/svg" width="792" height="792" viewBox="0 0 792 792"><circle cx="274.1" cy="274.1" r="214.5" fill="#dcbf30"/><circle cx="274.1" cy="274.1" r="205.9" fill="#231f20"/><path fill="#fff" d="M115.1 301.9a21.1 21.1 0 0 1 9.7 13 20.6 20.6 0 0 1-1.9 16 19.4 19.4 0 0 1-12.4 9.8 18.7 18.7 0 0 1-13.7-1.4l-3.2 4.6-6.3-4.4 3.3-4.9a18 18 0 0 1-5.3-9 21.2 21.2 0 0 1 1.7-16.1 20 20 0 0 1 28-7.6zm-19.9 25.8l4.2-6.3 6.4 4.3-4.3 6.4a11.8 11.8 0 0 0 6.9 0 12.1 12.1 0 0 0 7.6-5.8 11.8 11.8 0 0 0 1.3-9.4 12.6 12.6 0 0 0-23-3 12.5 12.5 0 0 0-1.1 9.6 9.9 9.9 0 0 0 2 4.2zm44.6 26.3l5.3 7-18.2 13.7c-5.1 3.9-6 8-2.8 12.3s7.4 4.5 12.6.7l18.2-13.7 5.3 7-18.9 14.2c-4.3 3.2-8.5 4.4-12.8 3.6a17.3 17.3 0 0 1-10.7-7 17.5 17.5 0 0 1-3.9-12.3c.4-4.3 2.7-8 7-11.3zm15.7 75.1L179 397l7.1 5.2-23.4 32.1zm38.8 23.9l12.9-37.6 14.2 4.9c6.4 2.2 10.7 5.6 12.9 10.3s2.5 9.8.5 15.4-5.3 9.6-9.9 11.9-10 2.2-16.5 0zm10.9-4.7l5.4 1.9c8.8 3 13.5-.1 15.9-7 1.2-3.5 1.3-6.6.1-9.2s-3.9-4.7-8.3-6.2l-5.4-1.9zm59.2 21.4l-1.5-39.7 15-.6c6.7-.3 12 1.4 15.8 4.9s5.8 8.2 6.1 14.2-1.4 10.9-4.9 14.6-8.6 5.7-15.3 5.9zm8.5-8.3l5.8-.2c9.3-.4 12.6-5 12.3-12.3-.1-3.7-1.2-6.6-3.2-8.7s-5.3-3-10-2.8l-5.7.2zm61.6-1.7l-13.1-37.5 8.3-2.9 13.1 37.5zm47.2-22.8l-18.1-26.1-8.8 6.1-4.5-6.6 24.7-17.1 4.5 6.6-8.7 6.1 18.1 26.1zm34.3-82l.5 7.8a12.9 12.9 0 0 0-9.6 5.4 12.3 12.3 0 0 0-2.4 9.3 11.9 11.9 0 0 0 5 8.2 12.1 12.1 0 0 0 9.3 2.4 12.5 12.5 0 0 0 8.2-5 13 13 0 0 0 2.4-10.9l7.6-1.8a21 21 0 0 1-3.6 17.4 21.4 21.4 0 0 1-13.7 8.7 20.4 20.4 0 0 1-23.6-17.4 21.8 21.8 0 0 1 19.9-24.1zm41.6-12.4L419.3 332l2.3-8.5 14.2 3.9 4.5-16.6-14.1-3.8 2.3-8.5 38.3 10.5-2.3 8.5-16.4-4.5-4.5 16.6 16.4 4.5zM123.3 236.6l-42.6 5.2 2.5-9 28.8-3.3-23.1-17.6 2.5-9 34 26.2zm10.6-32.5l-23.8-35.8 4.4-6.5 42.1 8.6-5.2 7.8-7-1.5-9.3 13.8 4 5.9zm-3.2-19.7l6.5-9.6-15.2-3.3zm41.6-28.2l-23.8-31.8 7-5.2 19 25.4 12.4-9.3 4.8 6.4zm39.1-24.8l-13.1-37.5 24.7-8.6 2.6 7.5-16.4 5.7 2.7 7.7 15-5.2 2.6 7.4-15 5.2 5.2 14.9zm46.8-12.6l-.2-39.7h16.6a13.1 13.1 0 0 1 9.5 3.8 12.2 12.2 0 0 1 4.1 9.3 12 12 0 0 1-7 11.3l9.8 15.3h-9.9l-8.3-13.2h-5.9v13.2zm8.6-21h7c3.4 0 5.7-2.2 5.7-5.6a5 5 0 0 0-5-5.2h-7.7zm44.8 25l12.8-37.6 25.7 8.7-2.6 7.6-17.4-5.9-2.4 7.1 16.2 5.5-2.5 7.4-16.2-5.6-2.7 8 17.8 6-2.6 7.6zm54.3 25.9L375 137l3.7-28.6 7.5 5.8-2.6 18.8 17.6-7.3 7.5 5.8-26.8 10.7-9.1 11.8zm34.2 21.5a13.8 13.8 0 0 0 1.7 3c2.3 3.1 4.5 2.7 7.5.5l21.5-15.7 5.2 7.1-21.1 15.3a21.1 21.1 0 0 1-7.1 3.8c-3.9 1.3-7.5-.1-11.7-5.6a23.3 23.3 0 0 1-2.4-3.9zm14.5 34.7l42.9 2.8 2.5 7.4-32.3 28.3-3-8.8 5.4-4.7-5.4-15.7-7.2-.4zm17.6 9.4l3.7 11 11.8-10.1z"/><circle cx="274.1" cy="274.1" r="143" fill="#dcbf30"/><circle cx="274.1" cy="274.1" r="137.3" fill="#fff"/><path fill="#dcbf30" d="M310.1 266.5L245.8 155l-87.7 151.9h46.3l18.2-31.4h-10.1l33.3-57.6 28.3 49.2 36-.6z"/><path fill="#dcbf30" d="M297.5 226.6l-18.2-31.4 23.2-40.2 87.7 151.9H261.5l17.5-31.4h56.7l-33.2-57.6-5 8.7z"/><path fill="#dcbf30" d="M250.8 244.6l18.5 30.9-28.4 49.1h66.5l-4.9-8.4 36.1-.3 23.2 40.2H186.4l64.4-111.5z"/><path fill="#231f20" d="M469.2 610.9a16 16 0 0 1 7.4 9.9 15.7 15.7 0 0 1-1.4 12.2 14.7 14.7 0 0 1-9.4 7.4 14.2 14.2 0 0 1-10.4-1.1l-2.4 3.5-4.8-3.3 2.5-3.7a13.7 13.7 0 0 1-4-6.9 16.2 16.2 0 0 1 1.3-12.3 15.3 15.3 0 0 1 21.3-5.8zM454 630.5l3.2-4.8 4.9 3.3-3.3 4.9a9 9 0 0 0 5.2 0 9.2 9.2 0 0 0 5.8-4.4 9 9 0 0 0 1-7.1 9.6 9.6 0 0 0-17.5-2.3 9.5 9.5 0 0 0-.8 7.3 7.5 7.5 0 0 0 1.5 3.1zm34 20l4 5.3-13.8 10.4c-3.9 2.9-4.6 6.1-2.1 9.4s5.7 3.5 9.6.5l13.8-10.4 4 5.3-14.4 10.8c-3.3 2.5-6.5 3.4-9.7 2.8a13.2 13.2 0 0 1-8.2-5.4 13.3 13.3 0 0 1-3-9.3c.3-3.3 2.1-6.1 5.4-8.6zm11.9 57.1l17.8-24.4 5.4 3.9-17.8 24.4zm29.5 18.2l9.9-28.6 10.8 3.7c4.8 1.7 8.1 4.3 9.8 7.8s1.9 7.4.4 11.7-4 7.3-7.5 9-7.6 1.7-12.5 0zm8.3-3.6l4.1 1.4c6.7 2.3 10.3-.1 12.1-5.3a9.5 9.5 0 0 0 .1-7c-.8-2-2.9-3.6-6.3-4.7l-4.1-1.4zm45.1 16.3l-1.2-30.2 11.4-.4c5.1-.2 9.1 1 12 3.8s4.4 6.3 4.6 10.8-1.1 8.3-3.7 11.1-6.5 4.3-11.7 4.5zm6.4-6.3l4.4-.2c7.1-.3 9.6-3.8 9.4-9.3a9.6 9.6 0 0 0-2.5-6.6c-1.5-1.5-4-2.3-7.6-2.1l-4.3.2zm46.9-1.3l-10-28.5 6.3-2.2 10 28.5zm35.9-17.3l-13.8-19.9-6.7 4.7-3.5-5 18.8-13.1 3.5 5-6.6 4.6 13.8 19.9zm26.1-62.4l.4 6a9.8 9.8 0 0 0-7.3 4.1 9.3 9.3 0 0 0-1.8 7.1 9.1 9.1 0 0 0 3.8 6.3 9.2 9.2 0 0 0 7.1 1.8 9.5 9.5 0 0 0 6.2-3.9 9.9 9.9 0 0 0 1.8-8.3l5.8-1.4a16 16 0 0 1-2.7 13.2 16.3 16.3 0 0 1-10.4 6.7 15.5 15.5 0 0 1-17.9-13.2 16.6 16.6 0 0 1 15.1-18.4zm31.7-9.4l-29.1-8 1.8-6.4 10.8 3 3.5-12.6-10.8-3 1.8-6.4 29.2 8-1.8 6.4-12.5-3.4-3.6 12.6 12.5 3.4zm-254.4-80.6l-32.4 3.9 1.9-6.9 21.9-2.5-17.6-13.3 1.9-6.9 25.9 20zm8.1-24.8l-18.1-27.3 3.3-4.9 32 6.5-4 5.9-5.3-1.1-7 10.5 3.1 4.5zm-2.5-15l4.9-7.3-11.5-2.5zm31.7-21.4l-18.1-24.2 5.4-4 14.5 19.4 9.5-7.1 3.6 4.9zm29.8-18.8l-9.9-28.5 18.8-6.6 2 5.7-12.5 4.4 2 5.9 11.4-4 2 5.6-11.4 4 4 11.3zm35.6-9.6l-.2-30.2h12.7a10 10 0 0 1 7.3 2.9 9.3 9.3 0 0 1 3.1 7.1 9.2 9.2 0 0 1-5.3 8.6l7.4 11.6h-7.5l-6.4-10h-4.5v10.1zm6.5-16h5.4a4 4 0 0 0 4.3-4.2 3.8 3.8 0 0 0-3.8-4h-5.9zm34.1 19l9.7-28.6 19.6 6.6-2 5.7-13.2-4.5-1.8 5.4 12.4 4.2-1.9 5.6-12.4-4.2-2.1 6.2 13.5 4.6-2 5.8zm41.3 19.7l6.9-8.9 2.8-21.8 5.7 4.4-2 14.3 13.4-5.5 5.7 4.4-20.4 8.2-6.9 8.9zm26.1 16.4a10.5 10.5 0 0 0 1.3 2.3c1.7 2.4 3.5 2 5.7.4l16.4-11.9 3.9 5.4-16.1 11.7a16.1 16.1 0 0 1-5.4 2.9c-2.9 1-5.7-.1-8.9-4.2a17.8 17.8 0 0 1-1.8-3zm11 26.4l32.7 2.1 1.9 5.6-24.6 21.5-2.3-6.7 4.2-3.6-4.1-11.9-5.5-.3zm13.4 7.1l2.8 8.3 9-7.7z"/><path fill="#dcbf30" d="M617.6 583.9l-49-84.8-66.7 115.6h35.2l13.8-24h-7.6l25.3-43.8 21.6 37.4 27.4-.4z"/><path fill="#dcbf30" d="M607.9 553.6l-13.8-24 17.7-30.5 66.7 115.6h-97.9l13.3-24H637l-25.2-43.8-3.9 6.7z"/><path fill="#dcbf30" d="M572.4 567.2l14.1 23.5-21.6 37.4h50.6l-3.7-6.4 27.5-.2 17.6 30.6H523.4l49-84.9z"/></svg>