<svg id="Layer_1" data-name="Layer 1" xmlns="http://www.w3.org/2000/svg" width="428.9" height="428.9" viewBox="0 0 428.9 428.9"><title>v-logo</title><circle cx="214.5" cy="214.5" r="214.5" fill="#dcbf30"/><circle cx="214.5" cy="214.5" r="205.9" fill="#231f20"/><path d="M55.5,242.3a21.1,21.1,0,0,1,9.7,13,20.6,20.6,0,0,1-1.9,16A19.4,19.4,0,0,1,50.9,281a18.7,18.7,0,0,1-13.7-1.4l-3.2,4.6-6.3-4.4,3.3-4.9a18,18,0,0,1-5.3-9,21.2,21.2,0,0,1,1.7-16.1,19.2,19.2,0,0,1,12.3-9.8A19.2,19.2,0,0,1,55.5,242.3ZM35.5,268l4.2-6.3,6.4,4.3-4.3,6.4a11.8,11.8,0,0,0,6.9,0,12.1,12.1,0,0,0,7.6-5.8,11.8,11.8,0,0,0,1.3-9.4,12.4,12.4,0,0,0-15.4-8.8,12.1,12.1,0,0,0-7.6,5.8,12.5,12.5,0,0,0-1.1,9.6A9.9,9.9,0,0,0,35.5,268Z" fill="#fff"/><path d="M80.1,294.4l5.3,7L67.2,315c-5.1,3.9-6,8-2.8,12.3s7.4,4.5,12.6.7l18.2-13.7,5.3,7L81.6,335.5c-4.3,3.2-8.5,4.4-12.8,3.6a17.3,17.3,0,0,1-10.7-7,17.5,17.5,0,0,1-3.9-12.3c.4-4.3,2.7-8,7-11.3Z" fill="#fff"/><path d="M95.9,369.4l23.4-32.1,7.1,5.2-23.4,32.1Z" fill="#fff"/><path d="M134.7,393.3l12.9-37.6,14.2,4.9c6.4,2.2,10.7,5.6,12.9,10.3s2.5,9.8.5,15.4-5.3,9.6-9.9,11.9-10,2.2-16.5,0Zm10.9-4.7,5.4,1.9c8.8,3,13.5-.1,15.9-7,1.2-3.5,1.3-6.6.1-9.2s-3.9-4.7-8.3-6.2l-5.4-1.9Z" fill="#fff"/><path d="M204.8,410l-1.5-39.7,15-.6c6.7-.3,12,1.4,15.8,4.9s5.8,8.2,6.1,14.2-1.4,10.9-4.9,14.6-8.6,5.7-15.3,5.9Zm8.5-8.3,5.8-.2c9.3-.4,12.6-5,12.3-12.3-.1-3.7-1.2-6.6-3.2-8.7s-5.3-3-10-2.8l-5.7.2Z" fill="#fff"/><path d="M274.8,400l-13.1-37.5,8.3-2.9,13.1,37.5Z" fill="#fff"/><path d="M322,377.2l-18.1-26.1-8.8,6.1-4.5-6.6,24.8-17.2,4.5,6.6-8.7,6.1,18.1,26.1Z" fill="#fff"/><path d="M356.3,295.3l.5,7.8a12.9,12.9,0,0,0-9.6,5.4,12.3,12.3,0,0,0-2.4,9.3,11.9,11.9,0,0,0,5,8.2,12.1,12.1,0,0,0,9.3,2.4,12.5,12.5,0,0,0,8.2-5.1,13,13,0,0,0,2.4-10.9l7.6-1.8a21,21,0,0,1-3.6,17.4,21.4,21.4,0,0,1-13.7,8.7,20.4,20.4,0,0,1-23.6-17.4,21.8,21.8,0,0,1,19.8-24.2Z" fill="#fff"/><path d="M397.9,282.9l-38.3-10.5,2.3-8.5,14.2,3.9,4.5-16.6-14.2-3.9,2.3-8.5,38.3,10.5-2.3,8.5-16.4-4.5-4.5,16.6,16.4,4.5Z" fill="#fff"/><path d="M63.6,176.9,21,182.1l2.5-9,28.8-3.3L29.2,152.3l2.5-9,34,26.2Z" fill="#fff"/><path d="M74.3,144.4,50.5,108.6l4.4-6.5,42.1,8.6-5.2,7.8-7-1.5-9.3,13.8,4,5.9ZM71,124.7l6.5-9.6-15.2-3.3Z" fill="#fff"/><path d="M112.6,96.6,88.8,64.7l7-5.2,19,25.4,12.4-9.3,4.8,6.4Z" fill="#fff"/><path d="M151.7,71.8,138.6,34.3l24.7-8.6,2.6,7.5-16.4,5.7,2.7,7.7,15-5.2,2.6,7.4-15,5.2L160,68.9Z" fill="#fff"/><path d="M198.6,59.1l-.3-39.7H215a13.1,13.1,0,0,1,9.5,3.8,12.2,12.2,0,0,1,4.1,9.3,12,12,0,0,1-7,11.3L231.3,59h-9.9l-8.3-13.2h-5.9V59.1Zm8.6-21h7c3.4,0,5.7-2.2,5.7-5.6a5,5,0,0,0-5-5.2h-7.7Z" fill="#fff"/><path d="M251.9,63.1l12.8-37.6,25.7,8.7-2.6,7.6-17.4-5.9L268,43l16.2,5.5-2.5,7.4-16.2-5.5-2.7,8,17.8,6L278,72Z" fill="#fff"/><path d="M306.2,89l9.1-11.7L319,48.7l7.5,5.8-2.7,18.9,17.6-7.3,7.5,5.8L322.2,82.7l-9.1,11.7Z" fill="#fff"/><path d="M340.5,110.5a13.8,13.8,0,0,0,1.7,3c2.3,3.1,4.5,2.7,7.5.5l21.5-15.7,5.2,7.1-21.1,15.3a21.1,21.1,0,0,1-7.1,3.8c-3.9,1.3-7.5-.1-11.7-5.6a23.3,23.3,0,0,1-2.4-3.9Z" fill="#fff"/><path d="M355,145.2l42.9,2.8,2.5,7.4-32.3,28.3-3-8.8,5.4-4.7-5.4-15.7-7.2-.4Zm17.6,9.4,3.7,11,11.8-10.1Z" fill="#fff"/><circle cx="214.5" cy="214.5" r="143" fill="#dcbf30"/><circle cx="214.5" cy="214.5" r="137.3" fill="#fff"/><polygon points="250.4 206.8 186.1 95.4 98.4 247.3 144.8 247.3 162.9 215.8 152.9 215.8 186.1 158.3 214.5 207.4 250.4 206.8" fill="#dcbf30"/><polygon points="237.8 166.9 219.6 135.5 242.8 95.4 330.5 247.3 201.8 247.3 219.3 215.8 276 215.8 242.8 158.3 237.8 166.9" fill="#dcbf30"/><polygon points="191.1 184.9 209.6 215.8 181.2 264.9 247.7 264.9 242.8 256.5 279 256.2 302.2 296.4 126.8 296.4 191.1 184.9" fill="#dcbf30"/></svg>