<svg xmlns="http://www.w3.org/2000/svg" width="792" height="792" viewBox="0 0 792 792"><path fill="#414142" d="M252.7 231.8c-3.8.9-7.2 2.5-10.6.3a11.4 11.4 0 0 0-9.6-1.3 26 26 0 0 1-10 .4l-30.9-3.8a47.7 47.7 0 0 0-8-.3 6.8 6.8 0 0 0-3.8 1.3c-1.4 1-1.3 2.5.2 3.1a12.7 12.7 0 0 0 3.2.8l47.7 7 4.6.8c.6.1 1.1.3 1.1 1a1.3 1.3 0 0 1-1 1.2l-1.6.4c-7.2 1.8-14.6 1.8-22 2.1-23.6.8-46.8-2.2-69.9-6.2a446.9 446.9 0 0 1-48.7-11C78.3 223 63.6 217 50.2 208.3c-8-5.2-14.9-11.7-21.7-18.3l-3.5-3.2a1 1 0 0 1-.2-1.2c.2-.5.7-.5 1.2-.4a16 16 0 0 1 2.9.9c11.3 5.5 23.5 8.5 35.6 11.6A1028.9 1028.9 0 0 0 195 222.6c8.5 1 17.1 1.7 25.7 2.5a204.1 204.1 0 0 1 27.1 4.4 8.6 8.6 0 0 1 4.9 2.3zM223 254.5l-4.4 1.2-22.3 5.9a22.5 22.5 0 0 0-4.4 1.7c-1.2.6-1.3 1.4-.2 2.3a6.1 6.1 0 0 0 4 1.4 19.3 19.3 0 0 0 5.3-.7l20.2-4.6c1.5-.3 3-.7 4.5-.1 0 1.5-1 2-2 2.6a21.1 21.1 0 0 1-8.8 2.9c-24.4 2.3-48.9 4.9-73.5 5-6.4 0-12.7.6-19.1 1-4.6.3-9.2.2-13.5-1.7a4.6 4.6 0 0 0-4.5.3l-1.2.6c-1.2.4-2.9.8-3.3-.4s1.3-1.6 2.4-2l.9-.4c1.1-.4 2.2-1 2-2.3s-1.5-1.1-2.5-1.1l-12.7-1A51.6 51.6 0 0 1 59.1 251l-1.2-1.2c-2.5-2.6-2.3-3.8.9-5.1 6.8-2.8 13.9-4.1 21.3-2.4 3.8.9 7.5 2 11.3 3 10.5 2.8 21.4 3.5 32.1 4.5 16 1.6 32 2.9 47.8 6.1a84.5 84.5 0 0 0 28.3.5l18.9-2.4c1.6-.3 3-.8 4.5.5zm41.6 7.8c-4.2 2.8-8.7 4.1-12.9 6-6.6 3-13.3 5.7-20 8.5a133.5 133.5 0 0 0-12.5 5.6c-1.1.6-3.2.9-2.4 2.9s2.4.7 3.6.4l27.3-8.9a26.2 26.2 0 0 1 5.5-1.3c-.5 1.1-1.3 1.3-1.9 1.6a271.8 271.8 0 0 1-37.3 17.3c-11.8 4.4-23.5 9-35.4 13.3a113.9 113.9 0 0 1-25.9 6.4 52.4 52.4 0 0 0-8.5 2 16.2 16.2 0 0 1-12.3-1.1l-8.7-4.4c-2.2-1.1-2.4-1.4-1-3.5s3.8-5.2 5.7-7.9 3.5-3.2 1.3-5.7c-.3-.3.1-.9.6-1l1.6-.2c16.2-.7 32.1-3.5 48-6.8l24.8-5.4a47.9 47.9 0 0 0 12.5-4.7 30 30 0 0 1 10.1-3.4 78.4 78.4 0 0 0 21.3-6.7l8-3.4c2.8-1.2 5.5-1.5 8.5.4zm63.5-44.6a1.6 1.6 0 0 1 1.7.4c4.9 4.2 9.6 8.6 12.8 14.3a20.1 20.1 0 0 1 2.5 14.1 12.4 12.4 0 0 0 3.8 12.1c3.9 3.9 7.5 7.9 9.3 13.2a8.3 8.3 0 0 0 3 3.6c4.1 3.3 5.7 7.7 4.3 12.6s.1 6.2 3.1 8.2c1.2.8 2.2 1.9 3.3 2.7 6.4 4.8 7.9 11.9 9.3 19.2a2.3 2.3 0 0 1-.8 2.3c-2.7 2.2-5.9 3.7-9.5 3.2a5.4 5.4 0 0 1-4.7-4.5c-1.6-6.8-5.2-12.6-9.1-18.3a19.5 19.5 0 0 1-3.6-13.4 8.3 8.3 0 0 0-1.3-5.7 86.9 86.9 0 0 0-8.4-10.9 15.7 15.7 0 0 0-4.9-3.3 6.4 6.4 0 0 1-3.7-4.9c-.7-3.6-1.5-7.3-2.3-10.9a20.4 20.4 0 0 0-.5-2.5c-.5-1.3-.8-3-2.6-3s-2.3 1.9-2.5 3.4-.3.9-.7 3.6c-.7 4.6-3.1 1.8-7.4 2.8a15.9 15.9 0 0 1-7.2.3c-7.4-1.7-14.7 1-21.4-2.8-4.5-2.6-23.5-6.7-28.8-6.9-2.4-.1-2.8-1.1-2-3.5 2.8-7.8 21.9-6.9 26.7-13.5 1.1-1.5 2.6-2.1 3.8-.2s2.2 1.4 3.6.9l1.6-.7a17.2 17.2 0 0 1 12.1-.7l11.5 3.4 2.5.7c4.5.9 5.4.2 5.5-4.4.1-2.3 0-4.6 0-6.9s.1-2.9 1-4zm-53.3 62.4c-1.6 2.8-3.7 3.9-5.6 5.1-6.2 4-12.5 7.8-18.7 11.8l-17.6 11.4c-1.5 1-3.7 2.3-2.9 3.9s3.2.2 4.7-.3a76.7 76.7 0 0 0 18.2-9.6c9-6.3 17.8-12.9 27.4-18.2 1.6-.9 3.3-1.6 5.1-1.1s2.4 1.7.8 2.9c-5.9 4.6-11.7 9.4-19.2 11.4a31.8 31.8 0 0 0-12.4 6.5c-5.9 4.9-11.7 10-18.3 14.2s-11.2 7.2-17.4 9.7c-4.7 2-9.2 4.3-13.8 6.3-8.5 3.7-17 7.6-26.1 9.6-1.9.4-4.5 1.8-5.6 0s1.4-3.2 2.5-4.7a37 37 0 0 1 10.2-9c11.4-6.9 22.7-13.8 33.6-21.4a217.2 217.2 0 0 1 26-15.8c8-4 16.3-7.3 24.2-11.6 1.5-.6 2.9-.7 4.9-1.1zm-1 39.3a12.9 12.9 0 0 0 4.6-2.7l25.8-21.7a9.8 9.8 0 0 1 7-2.6l-4.8 5.1a358.1 358.1 0 0 1-40.2 34.7 283.7 283.7 0 0 1-24.9 16.9 45.1 45.1 0 0 1-11.9 4.7c-1.5.4-1.7-.3-1.3-1.5v-.3c4.4-7.5 9.9-14.2 17.4-19.5a12.6 12.6 0 0 1 4.9-1.8 5.3 5.3 0 0 0 3.5-1.9c5.1-7.2 12.1-12.7 18.7-18.6l22.9-20.4 2.9-2.4a2.3 2.3 0 0 1 3-.4c1.2.8.3 1.9-.4 2.7a66.5 66.5 0 0 1-8.2 7.6c-5.2 4.5-10.3 9.1-15 14a26.3 26.3 0 0 0-4.1 5.6 2.2 2.2 0 0 0 .1 2.5zm46.5-11.4c1.2 2.6.8 5 .2 7.4a67 67 0 0 0-1.7 6.9c-.4 2.4.9 3 3.2 1.9s2.8-2.7 3.5-4.4a37.6 37.6 0 0 1 4.9-8.2 5.4 5.4 0 0 1 2.1-1.9c1.5-.6 2.6 0 2.4 1.6a17.4 17.4 0 0 1-1.1 3.6 81.5 81.5 0 0 1-9 16.8c-4.3 6-8.4 12.1-12.6 18.2a13.3 13.3 0 0 1-3.5 3.9c-2 1.3-3.9.2-4-2a2.3 2.3 0 0 1 0-.5c2.3-14.8 5.6-29.4 14.4-42.4a6.3 6.3 0 0 1 1.2-.9zm-30.8 19.5a31.9 31.9 0 0 1-2 6l-1.9 5c-.4 1.1-.8 2.3.4 3s2.1-.2 2.9-.9 2.6-2.7 4.1-4.2c.6.8.1 1.5-.1 2.2a27.6 27.6 0 0 1-2.7 5.7 67.3 67.3 0 0 1-14 16.4l-1.3 1c-1.4.9-2.1.6-2.1-1.1a18.5 18.5 0 0 1 .6-4.3 71.7 71.7 0 0 1 14.3-27.7 2.4 2.4 0 0 1 1.8-1.1zm42.1 20.2a8.5 8.5 0 0 1-.4-1.3c-.9-6.4-.9-6.4 4.1-10.4l3.4-2.7c.4-.3.9-.8 1.4-.5s.4 1 .2 1.5c-2.1 4.9-4.4 9.6-8.7 13.4zm-25.4-31c-.8 2.7-2.8 4.4-4.2 7-.3-4.6.9-6.5 4.2-7zm-69.8-59.1l7.5-.6c-3.1 2.7-4.5 2.9-7.5.6zm302.9-25.8c3.8.9 7.2 2.5 10.6.3a11.4 11.4 0 0 1 9.6-1.3 26 26 0 0 0 10 .4l30.9-3.8a47.7 47.7 0 0 1 8-.3 6.8 6.8 0 0 1 3.8 1.3c1.4 1 1.3 2.5-.2 3.1a12.7 12.7 0 0 1-3.2.8l-47.7 7-4.6.8c-.6.1-1.1.3-1.1 1a1.3 1.3 0 0 0 1 1.2l1.6.4c7.2 1.8 14.6 1.8 22 2.1 23.6.8 46.8-2.2 69.9-6.2a446.9 446.9 0 0 0 48.7-11c15.3-4.5 29.9-10.4 43.4-19.1 8-5.2 14.9-11.7 21.7-18.3l3.4-3.2a1 1 0 0 0 .2-1.2c-.2-.5-.7-.5-1.2-.4a16 16 0 0 0-2.9.9c-11.3 5.5-23.5 8.5-35.6 11.6A1028.9 1028.9 0 0 1 597 222.6c-8.5 1-17.1 1.7-25.7 2.5a204.1 204.1 0 0 0-27.1 4.4 8.6 8.6 0 0 0-4.9 2.3zm29.7 22.7l4.4 1.2 22.3 5.9a22.5 22.5 0 0 1 4.4 1.7c1.2.6 1.3 1.4.2 2.3a6.1 6.1 0 0 1-4 1.4 19.3 19.3 0 0 1-5.3-.7l-20.2-4.6c-1.5-.3-3-.7-4.5-.1 0 1.5 1 2 2 2.6a21.1 21.1 0 0 0 8.8 2.9c24.4 2.3 48.9 4.9 73.5 5 6.4 0 12.7.6 19.1 1 4.6.3 9.2.2 13.5-1.7a4.6 4.6 0 0 1 4.5.3l1.2.6c1.2.4 2.9.8 3.3-.4s-1.3-1.6-2.4-2l-.9-.4c-1.1-.4-2.2-1-2-2.3s1.5-1.1 2.5-1.1l12.7-1a51.6 51.6 0 0 0 30.8-14.1l1.2-1.2c2.5-2.6 2.3-3.8-.9-5.1-6.8-2.8-13.9-4.1-21.3-2.4-3.8.9-7.5 2-11.3 3-10.5 2.8-21.4 3.5-32.1 4.5-16 1.6-32 2.9-47.8 6.1a84.5 84.5 0 0 1-28.3.5l-18.9-2.4c-1.6-.3-3-.8-4.5.5zm-41.6 7.8c4.2 2.8 8.7 4.1 12.9 6 6.6 3 13.3 5.7 20 8.5a133.5 133.5 0 0 1 12.5 5.6c1.1.6 3.2.9 2.4 2.9s-2.4.7-3.6.4l-27.3-8.9a26.2 26.2 0 0 0-5.5-1.3c.5 1.1 1.3 1.3 1.9 1.6a271.8 271.8 0 0 0 37.3 17.3c11.8 4.4 23.5 9 35.4 13.3a113.9 113.9 0 0 0 25.9 6.4 52.4 52.4 0 0 1 8.5 2 16.2 16.2 0 0 0 12.3-1.1l8.7-4.4c2.2-1.1 2.4-1.4 1-3.5s-3.8-5.2-5.7-7.9-3.5-3.2-1.3-5.7c.3-.3-.1-.9-.6-1l-1.6-.2c-16.2-.7-32.1-3.5-48-6.8l-24.8-5.4a47.9 47.9 0 0 1-12.5-4.7 30 30 0 0 0-10.1-3.4 78.4 78.4 0 0 1-21.3-6.7l-8-3.4c-2.8-1.2-5.5-1.5-8.5.4zm-63.5-44.6a1.6 1.6 0 0 0-1.7.4c-4.9 4.2-9.6 8.6-12.8 14.3a20.1 20.1 0 0 0-2.5 14.1 12.4 12.4 0 0 1-3.8 12.1c-3.9 3.9-7.5 7.9-9.3 13.2a8.3 8.3 0 0 1-3 3.6c-4.1 3.3-5.7 7.7-4.3 12.6s-.1 6.2-3.1 8.2c-1.2.8-2.2 1.9-3.3 2.7-6.4 4.8-7.9 11.9-9.3 19.2a2.3 2.3 0 0 0 .8 2.3c2.7 2.2 5.9 3.7 9.5 3.2a5.4 5.4 0 0 0 4.7-4.5c1.6-6.8 5.2-12.6 9.1-18.3a19.5 19.5 0 0 0 3.6-13.4 8.3 8.3 0 0 1 1.3-5.7 86.9 86.9 0 0 1 8.4-10.9 15.7 15.7 0 0 1 4.9-3.3 6.4 6.4 0 0 0 3.7-4.9c.7-3.6 1.5-7.3 2.3-10.9a20.4 20.4 0 0 1 .5-2.5c.5-1.3.8-3 2.6-3s2.3 1.9 2.5 3.4.3.9.7 3.6c.7 4.6 3.1 1.8 7.4 2.8a15.9 15.9 0 0 0 7.2.3c7.4-1.7 14.7 1 21.4-2.8 4.5-2.6 23.5-6.7 28.8-6.9 2.4-.1 2.8-1.1 2-3.5-2.8-7.8-21.9-6.9-26.7-13.5-1.1-1.5-2.6-2.1-3.8-.2s-2.2 1.4-3.6.9l-1.6-.7a17.2 17.2 0 0 0-12.1-.7l-11.5 3.4-2.5.7c-4.5.9-5.4.2-5.5-4.4-.1-2.3 0-4.6 0-6.9s-.1-2.9-1-4zm53.3 62.4c1.6 2.8 3.7 3.9 5.6 5.1 6.2 4 12.5 7.8 18.7 11.8l17.6 11.4c1.5 1 3.7 2.3 2.9 3.9s-3.2.2-4.7-.3a76.7 76.7 0 0 1-18.2-9.6c-9-6.3-17.8-12.9-27.4-18.2-1.6-.9-3.3-1.6-5.1-1.1s-2.4 1.7-.8 2.9c5.9 4.6 11.7 9.4 19.2 11.4a31.8 31.8 0 0 1 12.4 6.5c5.9 4.9 11.7 10 18.3 14.2s11.2 7.2 17.4 9.7c4.7 2 9.2 4.3 13.8 6.3 8.5 3.7 17 7.6 26.1 9.6 1.9.4 4.5 1.8 5.6 0s-1.4-3.2-2.5-4.7a37 37 0 0 0-10.2-9c-11.4-6.9-22.7-13.8-33.6-21.4a217.2 217.2 0 0 0-26-15.8c-8-4-16.3-7.3-24.2-11.6-1.5-.6-2.9-.7-4.9-1.1zm1 39.3a12.9 12.9 0 0 1-4.6-2.7L487.8 295a9.8 9.8 0 0 0-7-2.6l4.8 5.1a358.1 358.1 0 0 0 40.2 34.7 283.7 283.7 0 0 0 24.9 16.9 45.1 45.1 0 0 0 11.9 4.7c1.5.4 1.7-.3 1.3-1.5v-.3c-4.4-7.5-9.9-14.2-17.4-19.5a12.6 12.6 0 0 0-4.9-1.8 5.3 5.3 0 0 1-3.5-1.9c-5.1-7.2-12.1-12.7-18.7-18.6l-22.9-20.4-2.9-2.4a2.3 2.3 0 0 0-3-.4c-1.2.8-.3 1.9.4 2.7a66.5 66.5 0 0 0 8.2 7.6c5.2 4.5 10.3 9.1 15 14a26.3 26.3 0 0 1 4.1 5.6 2.2 2.2 0 0 1-.1 2.5zM471.7 308c-1.2 2.6-.8 5-.2 7.4a67 67 0 0 1 1.7 6.9c.4 2.4-.9 3-3.2 1.9s-2.8-2.7-3.5-4.4a37.6 37.6 0 0 0-4.9-8.2 5.4 5.4 0 0 0-2.1-1.9c-1.5-.6-2.6 0-2.4 1.6a17.4 17.4 0 0 0 1.1 3.6 81.5 81.5 0 0 0 9 16.8c4.3 6 8.4 12.1 12.6 18.2a13.3 13.3 0 0 0 3.5 3.9c2 1.3 3.9.2 4-2a2.3 2.3 0 0 0 0-.5c-2.3-14.8-5.6-29.4-14.4-42.4a6.3 6.3 0 0 0-1.2-.9zm30.8 19.5a31.9 31.9 0 0 0 2 6l1.9 5c.4 1.1.8 2.3-.4 3s-2.1-.2-2.9-.9-2.6-2.7-4.1-4.2c-.6.8-.1 1.5.1 2.2a27.6 27.6 0 0 0 2.7 5.7 67.3 67.3 0 0 0 14 16.4l1.3 1c1.4.9 2.1.6 2.1-1.1a18.5 18.5 0 0 0-.6-4.3 71.7 71.7 0 0 0-14.3-27.7 2.4 2.4 0 0 0-1.8-1.1zm-42.1 20.2a8.5 8.5 0 0 0 .4-1.3c.9-6.4.9-6.4-4.1-10.4l-3.4-2.7c-.4-.3-.9-.8-1.4-.5s-.4 1-.2 1.5c2.1 4.9 4.4 9.6 8.7 13.4zm25.4-31c.8 2.7 2.8 4.4 4.2 7 .3-4.6-.9-6.5-4.2-7zm69.8-59.1l-7.5-.6c3.1 2.7 4.5 2.9 7.5.6z"/><path fill="#dcbf30" d="M252.7 476.4c-3.8.9-7.2 2.5-10.6.3a11.4 11.4 0 0 0-9.6-1.3 26 26 0 0 1-10 .4l-30.9-3.8a47.7 47.7 0 0 0-8-.3 6.8 6.8 0 0 0-3.8 1.3c-1.4 1-1.3 2.5.2 3.1a12.7 12.7 0 0 0 3.2.8l47.7 7 4.6.8c.6.1 1.1.3 1.1 1a1.3 1.3 0 0 1-1 1.2l-1.6.4c-7.2 1.8-14.6 1.8-22 2.1-23.6.8-46.8-2.2-69.9-6.2a446.9 446.9 0 0 1-48.7-11c-15.3-4.5-29.9-10.4-43.4-19.1-8-5.2-14.9-11.7-21.7-18.3l-3.3-3.3a1 1 0 0 1-.2-1.2c.2-.5.7-.5 1.2-.4a16 16 0 0 1 2.9.9c11.3 5.5 23.5 8.5 35.6 11.6A1028.9 1028.9 0 0 0 195 467.2c8.5 1 17.1 1.7 25.7 2.5a204.1 204.1 0 0 1 27.1 4.4 8.6 8.6 0 0 1 4.9 2.3zM223 499.1l-4.4 1.2-22.3 5.9a22.5 22.5 0 0 0-4.4 1.7c-1.2.6-1.3 1.4-.2 2.3a6.1 6.1 0 0 0 4 1.4 19.3 19.3 0 0 0 5.3-.7l20.2-4.6c1.5-.3 3-.7 4.5-.1 0 1.5-1 2-2 2.6a21.1 21.1 0 0 1-8.8 2.9c-24.4 2.3-48.9 4.9-73.5 5-6.4 0-12.7.6-19.1 1-4.6.3-9.2.2-13.5-1.7a4.6 4.6 0 0 0-4.5.3l-1.2.6c-1.2.4-2.9.8-3.3-.4s1.3-1.6 2.4-2l.9-.4c1.1-.4 2.2-1 2-2.3s-1.5-1.1-2.5-1.1l-12.7-1a51.6 51.6 0 0 1-30.8-14.1l-1.2-1.2c-2.5-2.6-2.3-3.8.9-5.1 6.8-2.8 13.9-4.1 21.3-2.4 3.8.9 7.5 2 11.3 3 10.5 2.8 21.4 3.5 32.1 4.5 16 1.6 32 2.9 47.8 6.1a84.5 84.5 0 0 0 28.3.5l18.9-2.4c1.6-.3 3-.8 4.5.5zm41.6 7.8c-4.2 2.8-8.7 4.1-12.9 6-6.6 3-13.3 5.7-20 8.5a133.5 133.5 0 0 0-12.5 5.6c-1.1.6-3.2.9-2.4 2.9s2.4.7 3.6.4l27.3-8.9a26.2 26.2 0 0 1 5.5-1.3c-.5 1.1-1.3 1.3-1.9 1.6a271.8 271.8 0 0 1-37.2 17.3c-11.8 4.4-23.5 9-35.4 13.3a113.9 113.9 0 0 1-25.9 6.4 52.4 52.4 0 0 0-8.5 2 16.2 16.2 0 0 1-12.3-1.1l-8.7-4.4c-2.2-1.1-2.4-1.4-1-3.5s3.8-5.2 5.7-7.9 3.5-3.2 1.3-5.7c-.3-.3.1-.9.6-1l1.6-.2c16.2-.7 32.1-3.5 48-6.8l24.8-5.4a47.9 47.9 0 0 0 12.5-4.7 30 30 0 0 1 10.1-3.4 78.4 78.4 0 0 0 21.3-6.7l8-3.4c2.7-1.1 5.4-1.4 8.4.4zm63.5-44.6a1.6 1.6 0 0 1 1.7.4c4.9 4.2 9.6 8.6 12.8 14.3a20.1 20.1 0 0 1 2.5 14.1 12.4 12.4 0 0 0 3.8 12.1c3.9 3.9 7.5 7.9 9.3 13.2a8.3 8.3 0 0 0 3 3.6c4.1 3.3 5.7 7.7 4.3 12.6s.1 6.2 3.1 8.2c1.2.8 2.2 1.9 3.3 2.7 6.4 4.8 7.9 11.9 9.3 19.2a2.3 2.3 0 0 1-.8 2.3c-2.7 2.2-5.9 3.7-9.5 3.2a5.4 5.4 0 0 1-4.7-4.5c-1.6-6.8-5.2-12.6-9.1-18.3a19.5 19.5 0 0 1-3.6-13.4 8.3 8.3 0 0 0-1.3-5.7 86.9 86.9 0 0 0-8.4-10.9 15.7 15.7 0 0 0-4.8-3.4 6.4 6.4 0 0 1-3.7-4.9c-.7-3.6-1.5-7.3-2.3-10.9a20.4 20.4 0 0 0-.5-2.5c-.5-1.3-.8-3-2.6-3s-2.3 1.9-2.5 3.4-.3.9-.7 3.6c-.7 4.6-3.1 1.8-7.4 2.8a15.9 15.9 0 0 1-7.2.3c-7.4-1.7-14.7 1-21.4-2.8-4.5-2.6-23.5-6.7-28.8-6.9-2.4-.1-2.8-1.1-2-3.5 2.8-7.8 21.9-6.9 26.7-13.5 1.1-1.5 2.6-2.1 3.8-.2s2.2 1.4 3.6.9l1.6-.7a17.2 17.2 0 0 1 12.1-.7l11.5 3.4 2.5.7c4.5.9 5.4.2 5.5-4.4.1-2.3 0-4.6 0-6.9s0-2.8.9-3.9zm-53.3 62.4c-1.6 2.8-3.7 3.9-5.6 5.1-6.2 4-12.5 7.8-18.7 11.8L232.8 553c-1.5 1-3.7 2.3-2.9 3.9s3.2.2 4.7-.3a76.7 76.7 0 0 0 18.2-9.6c9-6.3 17.8-12.9 27.4-18.2 1.6-.9 3.3-1.6 5.1-1.1s2.4 1.7.8 2.9c-5.9 4.6-11.7 9.4-19.2 11.4a31.8 31.8 0 0 0-12.4 6.5c-5.9 4.9-11.7 10-18.3 14.2s-11.2 7.2-17.4 9.7c-4.7 2-9.2 4.3-13.8 6.3-8.5 3.7-17 7.6-26.1 9.6-1.9.4-4.5 1.8-5.6 0s1.4-3.2 2.5-4.7a37 37 0 0 1 10.2-9c11.4-6.9 22.7-13.8 33.6-21.4a217.2 217.2 0 0 1 26-15.8c8-4 16.3-7.3 24.2-11.6 1.6-.6 3-.7 5-1.1zm-1 39.4a12.9 12.9 0 0 0 4.6-2.7l25.8-21.7a9.8 9.8 0 0 1 7-2.6l-4.8 5.1a358.1 358.1 0 0 1-40.2 34.7 283.7 283.7 0 0 1-24.9 16.9 45.1 45.1 0 0 1-11.9 4.7c-1.5.4-1.7-.3-1.3-1.5v-.3c4.4-7.5 9.9-14.2 17.4-19.5a12.6 12.6 0 0 1 4.9-1.8 5.3 5.3 0 0 0 3.5-1.9c5.1-7.2 12.1-12.7 18.7-18.6l22.9-20.4 2.9-2.4a2.3 2.3 0 0 1 3-.4c1.2.8.3 1.9-.4 2.7a66.5 66.5 0 0 1-8.2 7.6c-5.2 4.5-10.3 9.1-15 14a26.3 26.3 0 0 0-4.1 5.6 2.2 2.2 0 0 0 .1 2.5zm46.5-11.5c1.2 2.6.8 5 .2 7.4a67 67 0 0 0-1.7 6.9c-.4 2.4.9 3 3.2 1.9s2.8-2.7 3.5-4.4a37.6 37.6 0 0 1 4.9-8.2 5.4 5.4 0 0 1 2.1-1.9c1.5-.6 2.6 0 2.4 1.6a17.4 17.4 0 0 1-1.1 3.6 81.5 81.5 0 0 1-9 16.8c-4.3 6-8.4 12.1-12.6 18.2a13.3 13.3 0 0 1-3.5 3.9c-2 1.3-3.9.2-4-2a2.3 2.3 0 0 1 0-.5c2.3-14.8 5.6-29.4 14.4-42.4a6.3 6.3 0 0 1 1.2-.9zm-30.8 19.5a31.9 31.9 0 0 1-2 6l-1.9 5c-.4 1.1-.8 2.3.4 3s2.1-.2 2.9-.9 2.6-2.7 4.1-4.2c.6.8.1 1.5-.1 2.2a27.6 27.6 0 0 1-2.7 5.7 67.3 67.3 0 0 1-14 16.4l-1.3 1c-1.4.9-2.1.6-2.1-1.1a18.5 18.5 0 0 1 .6-4.3 71.7 71.7 0 0 1 14.3-27.7 2.4 2.4 0 0 1 1.8-1.1zm42.1 20.2a8.5 8.5 0 0 1-.4-1.3c-.9-6.4-.9-6.4 4.1-10.4l3.4-2.7c.4-.3.9-.8 1.4-.5s.4 1 .2 1.5c-2.1 4.9-4.4 9.6-8.7 13.4zm-25.4-31c-.8 2.7-2.8 4.4-4.2 7-.3-4.5.9-6.5 4.2-7zm-69.8-59.1l7.5-.6c-3.1 2.8-4.5 2.9-7.5.6zm302.9-25.8c3.8.9 7.2 2.5 10.6.3a11.4 11.4 0 0 1 9.6-1.3 26 26 0 0 0 10 .4l30.9-3.8a47.7 47.7 0 0 1 8-.3 6.8 6.8 0 0 1 3.8 1.3c1.4 1 1.3 2.5-.2 3.1a12.7 12.7 0 0 1-3.2.8l-47.7 7-4.6.8c-.6.1-1.1.3-1.1 1a1.3 1.3 0 0 0 1 1.2l1.6.4c7.2 1.8 14.6 1.8 22 2.1 23.6.8 46.8-2.2 69.9-6.2a446.9 446.9 0 0 0 48.7-11c15.3-4.5 29.9-10.4 43.4-19.1 8-5.2 14.9-11.7 21.7-18.3l3.4-3.2a1 1 0 0 0 .2-1.2c-.2-.5-.7-.5-1.2-.4a16 16 0 0 0-2.9.9c-11.3 5.5-23.5 8.5-35.6 11.6A1028.9 1028.9 0 0 1 597 467.2c-8.5 1-17.1 1.7-25.7 2.5a204.1 204.1 0 0 0-27.1 4.4 8.6 8.6 0 0 0-4.9 2.3zm29.7 22.7l4.4 1.2 22.3 5.9a22.5 22.5 0 0 1 4.4 1.7c1.2.6 1.3 1.4.2 2.3a6.1 6.1 0 0 1-4 1.4 19.3 19.3 0 0 1-5.3-.7l-20.2-4.6c-1.5-.3-3-.7-4.5-.1 0 1.5 1 2 2 2.6a21.1 21.1 0 0 0 8.8 2.9c24.4 2.3 48.9 4.9 73.5 5 6.4 0 12.7.6 19.1 1 4.6.3 9.2.2 13.5-1.7a4.6 4.6 0 0 1 4.5.3l1.2.6c1.2.4 2.9.8 3.3-.4s-1.3-1.6-2.4-2l-.9-.4c-1.1-.4-2.2-1-2-2.3s1.5-1.1 2.5-1.1l12.7-1a51.6 51.6 0 0 0 30.8-14.1l1.2-1.2c2.5-2.6 2.3-3.8-.9-5.1-6.8-2.8-13.9-4.1-21.3-2.4-3.8.9-7.5 2-11.3 3-10.5 2.8-21.4 3.5-32.1 4.5-16 1.6-32 2.9-47.8 6.1a84.5 84.5 0 0 1-28.3.5l-18.9-2.4c-1.6-.3-3-.8-4.5.5zm-41.6 7.8c4.2 2.8 8.7 4.1 12.9 6 6.6 3 13.3 5.7 20 8.5a133.5 133.5 0 0 1 12.5 5.6c1.1.6 3.2.9 2.4 2.9s-2.4.7-3.6.4l-27.3-8.9a26.2 26.2 0 0 0-5.5-1.3c.5 1.1 1.3 1.3 1.9 1.6a271.8 271.8 0 0 0 37.2 17.3c11.8 4.4 23.5 9 35.4 13.3a113.9 113.9 0 0 0 25.9 6.4 52.4 52.4 0 0 1 8.5 2 16.2 16.2 0 0 0 12.3-1.1l8.7-4.4c2.2-1.1 2.4-1.4 1-3.5s-3.8-5.2-5.7-7.9-3.5-3.2-1.3-5.7c.3-.3-.1-.9-.6-1l-1.6-.2c-16.2-.7-32.1-3.5-48-6.8l-24.8-5.4a47.9 47.9 0 0 1-12.5-4.7 30 30 0 0 0-10.1-3.4 78.4 78.4 0 0 1-21.3-6.7l-8-3.4c-2.7-1.1-5.4-1.4-8.4.4zm-63.5-44.6a1.6 1.6 0 0 0-1.7.4c-4.9 4.2-9.6 8.6-12.8 14.3a20.1 20.1 0 0 0-2.5 14.1 12.4 12.4 0 0 1-3.8 12.1c-3.9 3.9-7.5 7.9-9.3 13.2a8.3 8.3 0 0 1-3 3.6c-4.1 3.3-5.7 7.7-4.3 12.6s-.1 6.2-3.1 8.2c-1.2.8-2.2 1.9-3.3 2.7-6.4 4.8-7.9 11.9-9.3 19.2a2.3 2.3 0 0 0 .8 2.3c2.7 2.2 5.9 3.7 9.5 3.2a5.4 5.4 0 0 0 4.7-4.5c1.6-6.8 5.2-12.6 9.1-18.3a19.5 19.5 0 0 0 3.6-13.4 8.3 8.3 0 0 1 1.3-5.7 86.9 86.9 0 0 1 8.4-10.9 15.7 15.7 0 0 1 4.8-3.4 6.4 6.4 0 0 0 3.7-4.9c.7-3.6 1.5-7.3 2.3-10.9a20.4 20.4 0 0 1 .5-2.5c.5-1.3.8-3 2.6-3s2.3 1.9 2.5 3.4.3.9.7 3.6c.7 4.6 3.1 1.8 7.4 2.8a15.9 15.9 0 0 0 7.2.3c7.4-1.7 14.7 1 21.4-2.8 4.5-2.6 23.5-6.7 28.8-6.9 2.4-.1 2.8-1.1 2-3.5-2.8-7.8-21.9-6.9-26.7-13.5-1.1-1.5-2.6-2.1-3.8-.2s-2.2 1.4-3.6.9l-1.6-.7a17.2 17.2 0 0 0-12.1-.7l-11.5 3.4-2.5.7c-4.5.9-5.4.2-5.5-4.4-.1-2.3 0-4.6 0-6.9s0-2.8-.9-3.9zm53.3 62.4c1.6 2.8 3.7 3.9 5.6 5.1 6.2 4 12.5 7.8 18.7 11.8l17.7 11.4c1.5 1 3.7 2.3 2.9 3.9s-3.2.2-4.7-.3a76.7 76.7 0 0 1-18.2-9.6c-9-6.3-17.8-12.9-27.4-18.2-1.6-.9-3.3-1.6-5.1-1.1s-2.4 1.7-.8 2.9c5.9 4.6 11.7 9.4 19.2 11.4a31.8 31.8 0 0 1 12.4 6.5c5.9 4.9 11.7 10 18.3 14.2s11.2 7.2 17.4 9.7c4.7 2 9.2 4.3 13.8 6.3 8.5 3.7 17 7.6 26.1 9.6 1.9.4 4.5 1.8 5.6 0s-1.4-3.2-2.5-4.7a37 37 0 0 0-10.2-9c-11.4-6.9-22.7-13.8-33.6-21.4a217.2 217.2 0 0 0-26-15.8c-8-4-16.3-7.3-24.2-11.6-1.6-.6-3-.7-5-1.1zm1 39.4a12.9 12.9 0 0 1-4.6-2.7l-25.8-21.7a9.8 9.8 0 0 0-7-2.6l4.8 5.1a358.1 358.1 0 0 0 40.2 34.7 283.7 283.7 0 0 0 24.9 16.9 45.1 45.1 0 0 0 11.9 4.7c1.5.4 1.7-.3 1.3-1.5v-.3c-4.4-7.5-9.9-14.2-17.4-19.5a12.6 12.6 0 0 0-4.9-1.8 5.3 5.3 0 0 1-3.5-1.9c-5.1-7.2-12.1-12.7-18.7-18.6l-22.9-20.4-2.9-2.4a2.3 2.3 0 0 0-3-.4c-1.2.8-.3 1.9.4 2.7a66.5 66.5 0 0 0 8.2 7.6c5.2 4.5 10.3 9.1 15 14a26.3 26.3 0 0 1 4.1 5.6 2.2 2.2 0 0 1-.1 2.5zm-46.5-11.5c-1.2 2.6-.8 5-.2 7.4a67 67 0 0 1 1.7 6.9c.4 2.4-.9 3-3.2 1.9s-2.8-2.7-3.5-4.4a37.6 37.6 0 0 0-4.9-8.2 5.4 5.4 0 0 0-2.1-1.9c-1.5-.6-2.6 0-2.4 1.6a17.4 17.4 0 0 0 1.1 3.6 81.5 81.5 0 0 0 9 16.8c4.3 6 8.4 12.1 12.6 18.2a13.3 13.3 0 0 0 3.5 3.9c2 1.3 3.9.2 4-2a2.3 2.3 0 0 0 0-.5c-2.3-14.8-5.6-29.4-14.4-42.4a6.3 6.3 0 0 0-1.2-.9zm30.8 19.5a31.9 31.9 0 0 0 2 6l1.9 5c.4 1.1.8 2.3-.4 3s-2.1-.2-2.9-.9-2.6-2.7-4.1-4.2c-.6.8-.1 1.5.1 2.2a27.6 27.6 0 0 0 2.7 5.7 67.3 67.3 0 0 0 14 16.4l1.3 1c1.4.9 2.1.6 2.1-1.1a18.5 18.5 0 0 0-.6-4.3 71.7 71.7 0 0 0-14.3-27.7 2.4 2.4 0 0 0-1.8-1.1zm-42.1 20.2a8.5 8.5 0 0 0 .4-1.3c.9-6.4.9-6.4-4.1-10.4l-3.4-2.7c-.4-.3-.9-.8-1.4-.5s-.4 1-.2 1.5c2.1 4.9 4.4 9.6 8.7 13.4zm25.4-31c.8 2.7 2.8 4.4 4.2 7 .3-4.5-.9-6.5-4.2-7zm69.8-59.1l-7.5-.6c3.1 2.8 4.5 2.9 7.5.6z"/></svg>