<svg id="Layer_1" data-name="Layer 1" xmlns="http://www.w3.org/2000/svg" width="460" height="258.8" viewBox="0 0 460 258.8"><title>banner</title><rect width="460" height="258.75" fill="#fff"/><path d="M0,161.4H371.9a14.7,14.7,0,0,1,14.7,14.7v0a14.7,14.7,0,0,1-14.7,14.7H0a0,0,0,0,1,0,0V161.4a0,0,0,0,1,0,0Z" fill="none" stroke="#ddd" stroke-linecap="round" stroke-miterlimit="10" stroke-width="2"/><rect x="34.8" y="95" width="100.5" height="100.5" fill="#fff" stroke="#ddd" stroke-linecap="round" stroke-miterlimit="10" stroke-width="2"/><circle cx="371.9" cy="176.2" r="14.8" fill="none" stroke="#ddd" stroke-linecap="round" stroke-miterlimit="10" stroke-width="2"/><circle cx="302.3" cy="176.2" r="14.8" fill="none" stroke="#ddd" stroke-linecap="round" stroke-miterlimit="10" stroke-width="2"/><polyline points="295.7 258.8 295.7 176.2 308.8 176.2 308.8 258.8" fill="#fff" stroke="#ddd" stroke-linecap="round" stroke-miterlimit="10" stroke-width="2"/><circle cx="302.3" cy="176.2" r="6.6" fill="#fff" stroke="#ddd" stroke-linecap="round" stroke-miterlimit="10" stroke-width="2"/><circle cx="232.7" cy="176.2" r="14.8" fill="none" stroke="#ddd" stroke-linecap="round" stroke-miterlimit="10" stroke-width="2"/><circle cx="163.1" cy="176.2" r="14.8" fill="none" stroke="#ddd" stroke-linecap="round" stroke-miterlimit="10" stroke-width="2"/><circle cx="16.9" cy="176.2" r="14.8" fill="none" stroke="#ddd" stroke-linecap="round" stroke-miterlimit="10" stroke-width="2"/><rect x="74.7" y="86.7" width="20.8" height="8.26" fill="none" stroke="#ddd" stroke-linecap="round" stroke-miterlimit="10" stroke-width="2"/><polygon points="90.1 68.3 80.1 68.3 77.3 86.7 92.9 86.7 90.1 68.3" fill="none" stroke="#ddd" stroke-linecap="round" stroke-miterlimit="10" stroke-width="2"/><line x1="82.3" y1="82.2" x2="83.2" y2="74.3" fill="none" stroke="#ddd" stroke-linecap="round" stroke-miterlimit="10" stroke-width="2"/><line x1="74.8" y1="68.3" x2="63" y2="56.5" fill="none" stroke="#ddd" stroke-linecap="round" stroke-miterlimit="10" stroke-width="2"/><line x1="95.4" y1="68.3" x2="107.2" y2="56.5" fill="none" stroke="#ddd" stroke-linecap="round" stroke-miterlimit="10" stroke-width="2"/><line x1="85.1" y1="62.4" x2="85.1" y2="45.8" fill="none" stroke="#ddd" stroke-linecap="round" stroke-miterlimit="10" stroke-width="2"/><polyline points="156.5 258.8 156.5 176.2 169.6 176.2 169.6 258.8" fill="#fff" stroke="#ddd" stroke-linecap="round" stroke-miterlimit="10" stroke-width="2"/><circle cx="163.1" cy="176.2" r="6.6" fill="#fff" stroke="#ddd" stroke-linecap="round" stroke-miterlimit="10" stroke-width="2"/><polyline points="10.3 258.8 10.3 176.2 23.4 176.2 23.4 258.8" fill="#fff" stroke="#ddd" stroke-linecap="round" stroke-miterlimit="10" stroke-width="2"/><circle cx="16.9" cy="176.2" r="6.6" fill="#fff" stroke="#ddd" stroke-linecap="round" stroke-miterlimit="10" stroke-width="2"/><rect x="193.5" y="120" width="14.9" height="10.75" fill="#007500"/><rect x="190.8" y="129.3" width="20.2" height="31.79" rx="3.3" ry="3.3" fill="#393"/><rect x="190.8" y="114.5" width="20.2" height="6.94" rx="2.3" ry="2.3" fill="#393"/><rect x="193.5" y="109.7" width="14.9" height="4.74" rx="1.7" ry="1.7" fill="#333"/><rect x="198.5" y="106.3" width="5" height="3.41" rx="0.8" ry="0.8" fill="#333"/><path d="M207.3,141.8a6.4,6.4,0,0,1-6.2,6.4h-1.5a1.2,1.2,0,0,1-.8-1.6h0a1.2,1.2,0,0,1,1.3-.6h1a4,4,0,0,0,1.6-7.6,4,4,0,0,0-1.7-.4,4.1,4.1,0,0,0-4,4.1v11.9a1.2,1.2,0,0,1-1.2,1.2h0a1.2,1.2,0,0,1-1.2-1.2V141.9a6.4,6.4,0,0,1,6.4-6.4,6.3,6.3,0,0,1,6.3,6.3Z" fill="#fff"/><rect x="244.8" y="120" width="14.9" height="10.75" fill="#007500"/><rect x="242.1" y="129.3" width="20.2" height="31.79" rx="3.3" ry="3.3" fill="#393"/><rect x="242.1" y="114.5" width="20.2" height="6.94" rx="2.3" ry="2.3" fill="#393"/><rect x="244.8" y="109.7" width="14.9" height="4.74" rx="1.7" ry="1.7" fill="#333"/><rect x="249.8" y="106.3" width="5" height="3.41" rx="0.8" ry="0.8" fill="#333"/><path d="M258.6,141.8a6.4,6.4,0,0,1-6.2,6.4h-1.5a1.2,1.2,0,0,1-.8-1.6h0a1.2,1.2,0,0,1,1.3-.6h1a4,4,0,0,0,1.6-7.6,4,4,0,0,0-1.7-.4,4.1,4.1,0,0,0-4,4.1v11.9a1.2,1.2,0,0,1-1.2,1.2h0a1.2,1.2,0,0,1-1.2-1.2V141.9a6.4,6.4,0,0,1,6.4-6.4,6.3,6.3,0,0,1,6.3,6.3Z" fill="#fff"/><rect x="141.2" y="120" width="14.9" height="10.75" fill="#007500"/><rect x="138.6" y="129.3" width="20.2" height="31.79" rx="3.3" ry="3.3" fill="#393"/><rect x="138.6" y="114.5" width="20.2" height="6.94" rx="2.3" ry="2.3" fill="#393"/><rect x="141.2" y="109.7" width="14.9" height="4.74" rx="1.7" ry="1.7" fill="#333"/><rect x="146.2" y="106.3" width="5" height="3.41" rx="0.8" ry="0.8" fill="#333"/><path d="M155,141.8a6.4,6.4,0,0,1-6.2,6.4h-1.5a1.2,1.2,0,0,1-.8-1.6h0a1.2,1.2,0,0,1,1.3-.6h1a4,4,0,0,0,1.6-7.6,4,4,0,0,0-1.7-.4,4.1,4.1,0,0,0-4,4.1v11.9a1.2,1.2,0,0,1-1.2,1.2h0a1.2,1.2,0,0,1-1.2-1.2V141.9a6.4,6.4,0,0,1,6.4-6.4,6.3,6.3,0,0,1,6.3,6.3Z" fill="#fff"/><rect x="9.4" y="120" width="14.9" height="10.75" fill="#007500"/><rect x="6.7" y="129.3" width="20.2" height="31.79" rx="3.3" ry="3.3" fill="#393"/><rect x="6.7" y="114.5" width="20.2" height="6.94" rx="2.3" ry="2.3" fill="#393"/><rect x="9.4" y="109.7" width="14.9" height="4.74" rx="1.7" ry="1.7" fill="#333"/><rect x="14.4" y="106.3" width="5" height="3.41" rx="0.8" ry="0.8" fill="#333"/><rect x="296.1" y="120" width="14.9" height="10.75" fill="#007500"/><rect x="293.4" y="129.3" width="20.2" height="31.79" rx="3.3" ry="3.3" fill="#393"/><rect x="293.4" y="114.5" width="20.2" height="6.94" rx="2.3" ry="2.3" fill="#393"/><rect x="296.1" y="109.7" width="14.9" height="4.74" rx="1.7" ry="1.7" fill="#333"/><rect x="301.1" y="106.3" width="5" height="3.41" rx="0.8" ry="0.8" fill="#333"/><path d="M309.9,141.8a6.4,6.4,0,0,1-6.2,6.4h-1.5a1.2,1.2,0,0,1-.8-1.6h0a1.2,1.2,0,0,1,1.3-.6h1a4,4,0,0,0,1.6-7.6,4,4,0,0,0-1.7-.4,4.1,4.1,0,0,0-4,4.1v11.9a1.2,1.2,0,0,1-1.2,1.2h0a1.2,1.2,0,0,1-1.2-1.2V141.9a6.4,6.4,0,0,1,6.4-6.4,6.3,6.3,0,0,1,6.3,6.3Z" fill="#fff"/><rect x="347.4" y="120" width="14.9" height="10.75" fill="#007500"/><rect x="344.7" y="129.3" width="20.2" height="31.79" rx="3.3" ry="3.3" fill="#393"/><rect x="344.7" y="114.5" width="20.2" height="6.94" rx="2.3" ry="2.3" fill="#393"/><rect x="347.4" y="109.7" width="14.9" height="4.74" rx="1.7" ry="1.7" fill="#333"/><rect x="352.4" y="106.3" width="5" height="3.41" rx="0.8" ry="0.8" fill="#333"/><path d="M361.2,141.8a6.4,6.4,0,0,1-6.2,6.4h-1.5a1.2,1.2,0,0,1-.8-1.6h0a1.2,1.2,0,0,1,1.3-.6h1a4,4,0,0,0,1.6-7.6,4,4,0,0,0-1.7-.4,4.1,4.1,0,0,0-4,4.1v11.9a1.2,1.2,0,0,1-1.2,1.2h0a1.2,1.2,0,0,1-1.2-1.2V141.9a6.4,6.4,0,0,1,6.4-6.4,6.3,6.3,0,0,1,6.3,6.3Z" fill="#fff"/><rect x="406.2" y="136.9" width="14.9" height="10.75" transform="translate(149.8 -206.7) rotate(33.9)" fill="#007500"/><rect x="392.5" y="142.8" width="20.2" height="31.79" rx="3.3" ry="3.3" transform="translate(157.2 -197.7) rotate(33.9)" fill="#393"/><rect x="407.7" y="132.6" width="20.2" height="6.94" rx="2.3" ry="2.3" transform="translate(147.1 -210.1) rotate(33.9)" fill="#393"/><rect x="413.6" y="128.8" width="14.9" height="4.74" rx="1.7" ry="1.7" transform="translate(145 -212.7) rotate(33.9)" fill="#333"/><rect x="420.9" y="126.1" width="5" height="3.41" rx="0.8" ry="0.8" transform="translate(143.5 -214.6) rotate(33.9)" fill="#333"/><path d="M409.8,159.4a6.4,6.4,0,0,1-8.7,1.8l-1.2-1a1.2,1.2,0,0,1,.2-1.8h0a1.2,1.2,0,0,1,1.4.2l.7.6a4,4,0,0,0,5.6-5.4,4,4,0,0,0-1.2-1.3,4.1,4.1,0,0,0-5.6,1.1l-6.7,9.9a1.2,1.2,0,0,1-1.6.3h0a1.2,1.2,0,0,1-.3-1.6l6.7-9.9a6.4,6.4,0,0,1,8.9-1.8,6.3,6.3,0,0,1,1.7,8.7Z" fill="#fff"/><rect x="429.7" y="194.5" width="14.9" height="10.75" transform="translate(381.4 -277.6) rotate(58.8)" fill="#007500"/><rect x="410.1" y="194.3" width="20.2" height="31.79" rx="3.3" ry="3.3" transform="matrix(0.52, 0.86, -0.86, 0.52, 382.04, -258.09)" fill="#393"/><rect x="433.4" y="192.6" width="20.2" height="6.94" rx="2.3" ry="2.3" transform="translate(381.2 -284.9) rotate(58.8)" fill="#393"/><rect x="441.1" y="190.6" width="14.9" height="4.74" rx="1.7" ry="1.7" transform="translate(381 -290.6) rotate(58.8)" fill="#333"/><rect x="449.5" y="189.2" width="5" height="3.41" rx="0.8" ry="0.8" transform="translate(380.9 -294.6) rotate(58.8)" fill="#333"/><path d="M426.4,213.8a6.3,6.3,0,0,1-9.3-3.4,1.2,1.2,0,0,1,1-1.5h0a1.2,1.2,0,0,1,1.2.8l.4.9a4,4,0,0,0,7.4-2.5,4,4,0,0,0-.6-1.7A4.1,4.1,0,0,0,421,205l-10.2,6.2a1.2,1.2,0,0,1-1.6-.4h0a1.2,1.2,0,0,1,.4-1.6l10.2-6.2a6.4,6.4,0,0,1,8.8,2.1,6.3,6.3,0,0,1-2.1,8.7Z" fill="#fff"/><circle cx="61.1" cy="29.8" r="4.3" fill="#fff" stroke="#ddd" stroke-linecap="round" stroke-miterlimit="10" stroke-width="2"/><polygon points="79.1 29.8 43.1 29.8 54.9 14.8 67.3 14.8 79.1 29.8" fill="#fff" stroke="#ddd" stroke-linecap="round" stroke-miterlimit="10" stroke-width="2"/><polyline points="59.3 0 59.3 14.8 62.8 14.8 62.8 0" fill="#fff" stroke="#ddd" stroke-linecap="round" stroke-miterlimit="10" stroke-width="2"/><circle cx="173.7" cy="29.8" r="4.3" fill="#fff" stroke="#ddd" stroke-linecap="round" stroke-miterlimit="10" stroke-width="2"/><polygon points="191.7 29.8 155.7 29.8 167.5 14.8 179.9 14.8 191.7 29.8" fill="#fff" stroke="#ddd" stroke-linecap="round" stroke-miterlimit="10" stroke-width="2"/><polyline points="171.9 0 171.9 14.8 175.4 14.8 175.4 0" fill="#fff" stroke="#ddd" stroke-linecap="round" stroke-miterlimit="10" stroke-width="2"/><circle cx="286.3" cy="29.8" r="4.3" fill="#fff" stroke="#ddd" stroke-linecap="round" stroke-miterlimit="10" stroke-width="2"/><polygon points="304.3 29.8 268.3 29.8 280.1 14.8 292.5 14.8 304.3 29.8" fill="#fff" stroke="#ddd" stroke-linecap="round" stroke-miterlimit="10" stroke-width="2"/><polyline points="284.6 0 284.6 14.8 288.1 14.8 288.1 0" fill="#fff" stroke="#ddd" stroke-linecap="round" stroke-miterlimit="10" stroke-width="2"/><circle cx="398.9" cy="29.8" r="4.3" fill="#fff" stroke="#ddd" stroke-linecap="round" stroke-miterlimit="10" stroke-width="2"/><polygon points="416.9 29.8 380.9 29.8 392.7 14.8 405.1 14.8 416.9 29.8" fill="#fff" stroke="#ddd" stroke-linecap="round" stroke-miterlimit="10" stroke-width="2"/><polyline points="397.2 0 397.2 14.8 400.7 14.8 400.7 0" fill="#fff" stroke="#ddd" stroke-linecap="round" stroke-miterlimit="10" stroke-width="2"/></svg>