<svg xmlns="http://www.w3.org/2000/svg" width="460" height="258.8" viewBox="0 0 460 258.8"><path fill="#fff" d="M0 0h460v258.75H0z"/><path fill="none" stroke="#ddd" stroke-linecap="round" stroke-miterlimit="10" stroke-width="2" d="M0 161.4h371.9a14.7 14.7 0 0 1 14.7 14.7 14.7 14.7 0 0 1-14.7 14.7H0v-29.4z"/><path fill="#fff" stroke="#ddd" stroke-linecap="round" stroke-miterlimit="10" stroke-width="2" d="M34.8 95h100.5v100.5H34.8z"/><circle cx="371.9" cy="176.2" r="14.8" fill="none" stroke="#ddd" stroke-linecap="round" stroke-miterlimit="10" stroke-width="2"/><circle cx="302.3" cy="176.2" r="14.8" fill="none" stroke="#ddd" stroke-linecap="round" stroke-miterlimit="10" stroke-width="2"/><path fill="#fff" stroke="#ddd" stroke-linecap="round" stroke-miterlimit="10" stroke-width="2" d="M295.7 258.8v-82.6h13.1v82.6"/><circle cx="302.3" cy="176.2" r="6.6" fill="#fff" stroke="#ddd" stroke-linecap="round" stroke-miterlimit="10" stroke-width="2"/><circle cx="232.7" cy="176.2" r="14.8" fill="none" stroke="#ddd" stroke-linecap="round" stroke-miterlimit="10" stroke-width="2"/><circle cx="163.1" cy="176.2" r="14.8" fill="none" stroke="#ddd" stroke-linecap="round" stroke-miterlimit="10" stroke-width="2"/><circle cx="16.9" cy="176.2" r="14.8" fill="none" stroke="#ddd" stroke-linecap="round" stroke-miterlimit="10" stroke-width="2"/><path fill="none" stroke="#ddd" stroke-linecap="round" stroke-miterlimit="10" stroke-width="2" d="M74.7 86.7h20.8v8.26H74.7zm15.4-18.4h-10l-2.8 18.4h15.6l-2.8-18.4zm-7.8 13.9l.9-7.9m-8.4-6L63 56.5m32.4 11.8l11.8-11.8m-22.1 5.9V45.8"/><path fill="#fff" stroke="#ddd" stroke-linecap="round" stroke-miterlimit="10" stroke-width="2" d="M156.5 258.8v-82.6h13.1v82.6"/><circle cx="163.1" cy="176.2" r="6.6" fill="#fff" stroke="#ddd" stroke-linecap="round" stroke-miterlimit="10" stroke-width="2"/><path fill="#fff" stroke="#ddd" stroke-linecap="round" stroke-miterlimit="10" stroke-width="2" d="M10.3 258.8v-82.6h13.1v82.6"/><circle cx="16.9" cy="176.2" r="6.6" fill="#fff" stroke="#ddd" stroke-linecap="round" stroke-miterlimit="10" stroke-width="2"/><path fill="#007500" d="M193.5 120h14.9v10.75h-14.9z"/><rect width="20.2" height="31.79" x="190.8" y="129.3" fill="#393" rx="3.3" ry="3.3"/><rect width="20.2" height="6.94" x="190.8" y="114.5" fill="#393" rx="2.3" ry="2.3"/><rect width="14.9" height="4.74" x="193.5" y="109.7" fill="#333" rx="1.7" ry="1.7"/><rect width="5" height="3.41" x="198.5" y="106.3" fill="#333" rx=".8" ry=".8"/><path fill="#fff" d="M207.3 141.8a6.4 6.4 0 0 1-6.2 6.4h-1.5a1.2 1.2 0 0 1-.8-1.6 1.2 1.2 0 0 1 1.3-.6h1a4 4 0 0 0 1.6-7.6 4 4 0 0 0-1.7-.4 4.1 4.1 0 0 0-4 4.1V154a1.2 1.2 0 0 1-1.2 1.2 1.2 1.2 0 0 1-1.2-1.2v-12.1a6.4 6.4 0 0 1 6.4-6.4 6.3 6.3 0 0 1 6.3 6.3z"/><path fill="#007500" d="M244.8 120h14.9v10.75h-14.9z"/><rect width="20.2" height="31.79" x="242.1" y="129.3" fill="#393" rx="3.3" ry="3.3"/><rect width="20.2" height="6.94" x="242.1" y="114.5" fill="#393" rx="2.3" ry="2.3"/><rect width="14.9" height="4.74" x="244.8" y="109.7" fill="#333" rx="1.7" ry="1.7"/><rect width="5" height="3.41" x="249.8" y="106.3" fill="#333" rx=".8" ry=".8"/><path fill="#fff" d="M258.6 141.8a6.4 6.4 0 0 1-6.2 6.4h-1.5a1.2 1.2 0 0 1-.8-1.6 1.2 1.2 0 0 1 1.3-.6h1a4 4 0 0 0 1.6-7.6 4 4 0 0 0-1.7-.4 4.1 4.1 0 0 0-4 4.1V154a1.2 1.2 0 0 1-1.2 1.2 1.2 1.2 0 0 1-1.2-1.2v-12.1a6.4 6.4 0 0 1 6.4-6.4 6.3 6.3 0 0 1 6.3 6.3z"/><path fill="#007500" d="M141.2 120h14.9v10.75h-14.9z"/><rect width="20.2" height="31.79" x="138.6" y="129.3" fill="#393" rx="3.3" ry="3.3"/><rect width="20.2" height="6.94" x="138.6" y="114.5" fill="#393" rx="2.3" ry="2.3"/><rect width="14.9" height="4.74" x="141.2" y="109.7" fill="#333" rx="1.7" ry="1.7"/><rect width="5" height="3.41" x="146.2" y="106.3" fill="#333" rx=".8" ry=".8"/><path fill="#fff" d="M155 141.8a6.4 6.4 0 0 1-6.2 6.4h-1.5a1.2 1.2 0 0 1-.8-1.6 1.2 1.2 0 0 1 1.3-.6h1a4 4 0 0 0 1.6-7.6 4 4 0 0 0-1.7-.4 4.1 4.1 0 0 0-4 4.1V154a1.2 1.2 0 0 1-1.2 1.2 1.2 1.2 0 0 1-1.2-1.2v-12.1a6.4 6.4 0 0 1 6.4-6.4 6.3 6.3 0 0 1 6.3 6.3z"/><path fill="#007500" d="M9.4 120h14.9v10.75H9.4z"/><rect width="20.2" height="31.79" x="6.7" y="129.3" fill="#393" rx="3.3" ry="3.3"/><rect width="20.2" height="6.94" x="6.7" y="114.5" fill="#393" rx="2.3" ry="2.3"/><rect width="14.9" height="4.74" x="9.4" y="109.7" fill="#333" rx="1.7" ry="1.7"/><rect width="5" height="3.41" x="14.4" y="106.3" fill="#333" rx=".8" ry=".8"/><path fill="#007500" d="M296.1 120H311v10.75h-14.9z"/><rect width="20.2" height="31.79" x="293.4" y="129.3" fill="#393" rx="3.3" ry="3.3"/><rect width="20.2" height="6.94" x="293.4" y="114.5" fill="#393" rx="2.3" ry="2.3"/><rect width="14.9" height="4.74" x="296.1" y="109.7" fill="#333" rx="1.7" ry="1.7"/><rect width="5" height="3.41" x="301.1" y="106.3" fill="#333" rx=".8" ry=".8"/><path fill="#fff" d="M309.9 141.8a6.4 6.4 0 0 1-6.2 6.4h-1.5a1.2 1.2 0 0 1-.8-1.6 1.2 1.2 0 0 1 1.3-.6h1a4 4 0 0 0 1.6-7.6 4 4 0 0 0-1.7-.4 4.1 4.1 0 0 0-4 4.1V154a1.2 1.2 0 0 1-1.2 1.2 1.2 1.2 0 0 1-1.2-1.2v-12.1a6.4 6.4 0 0 1 6.4-6.4 6.3 6.3 0 0 1 6.3 6.3z"/><path fill="#007500" d="M347.4 120h14.9v10.75h-14.9z"/><rect width="20.2" height="31.79" x="344.7" y="129.3" fill="#393" rx="3.3" ry="3.3"/><rect width="20.2" height="6.94" x="344.7" y="114.5" fill="#393" rx="2.3" ry="2.3"/><rect width="14.9" height="4.74" x="347.4" y="109.7" fill="#333" rx="1.7" ry="1.7"/><rect width="5" height="3.41" x="352.4" y="106.3" fill="#333" rx=".8" ry=".8"/><path fill="#fff" d="M361.2 141.8a6.4 6.4 0 0 1-6.2 6.4h-1.5a1.2 1.2 0 0 1-.8-1.6 1.2 1.2 0 0 1 1.3-.6h1a4 4 0 0 0 1.6-7.6 4 4 0 0 0-1.7-.4 4.1 4.1 0 0 0-4 4.1V154a1.2 1.2 0 0 1-1.2 1.2 1.2 1.2 0 0 1-1.2-1.2v-12.1a6.4 6.4 0 0 1 6.4-6.4 6.3 6.3 0 0 1 6.3 6.3z"/><path fill="#007500" d="M410.596 133.485l12.367 8.31-5.996 8.923-12.367-8.31z"/><rect width="20.2" height="31.79" x="392.5" y="142.8" fill="#393" rx="3.3" ry="3.3" transform="rotate(33.9 402.936 159.044)"/><rect width="20.2" height="6.94" x="407.7" y="132.6" fill="#393" rx="2.3" ry="2.3" transform="rotate(33.9 418.229 136.274)"/><rect width="14.9" height="4.74" x="413.6" y="128.8" fill="#333" rx="1.7" ry="1.7" transform="rotate(33.9 421.444 131.53)"/><rect width="5" height="3.41" x="420.9" y="126.1" fill="#333" rx=".8" ry=".8" transform="rotate(33.9 423.811 128.118)"/><path fill="#fff" d="M409.8 159.4a6.4 6.4 0 0 1-8.7 1.8l-1.2-1a1.2 1.2 0 0 1 .2-1.8 1.2 1.2 0 0 1 1.4.2l.7.6a4 4 0 0 0 5.6-5.4 4 4 0 0 0-1.2-1.3 4.1 4.1 0 0 0-5.6 1.1l-6.7 9.9a1.2 1.2 0 0 1-1.6.3 1.2 1.2 0 0 1-.3-1.6l6.7-9.9a6.4 6.4 0 0 1 8.9-1.8 6.3 6.3 0 0 1 1.7 8.7z"/><path fill="#007500" d="M437.628 190.706l7.718 12.745-9.195 5.569-7.718-12.745z"/><rect width="20.2" height="31.79" x="410.1" y="194.3" fill="#393" rx="3.3" ry="3.3" transform="rotate(58.8 417.764 208.639)"/><rect width="20.2" height="6.94" x="433.4" y="192.6" fill="#393" rx="2.3" ry="2.3" transform="rotate(58.8 443.408 195.81)"/><rect width="14.9" height="4.74" x="441.1" y="190.6" fill="#333" rx="1.7" ry="1.7" transform="rotate(58.8 448.366 192.783)"/><rect width="5" height="3.41" x="449.5" y="189.2" fill="#333" rx=".8" ry=".8" transform="rotate(58.8 451.865 190.694)"/><path fill="#fff" d="M426.4 213.8a6.3 6.3 0 0 1-9.3-3.4 1.2 1.2 0 0 1 1-1.5 1.2 1.2 0 0 1 1.2.8l.4.9a4 4 0 0 0 7.4-2.5 4 4 0 0 0-.6-1.7 4.1 4.1 0 0 0-5.5-1.4l-10.2 6.2a1.2 1.2 0 0 1-1.6-.4 1.2 1.2 0 0 1 .4-1.6l10.2-6.2a6.4 6.4 0 0 1 8.8 2.1 6.3 6.3 0 0 1-2.1 8.7z"/><circle cx="61.1" cy="29.8" r="4.3" fill="#fff" stroke="#ddd" stroke-linecap="round" stroke-miterlimit="10" stroke-width="2"/><path fill="#fff" stroke="#ddd" stroke-linecap="round" stroke-miterlimit="10" stroke-width="2" d="M79.1 29.8h-36l11.8-15h12.4l11.8 15zM59.3 0v14.8h3.5V0"/><circle cx="173.7" cy="29.8" r="4.3" fill="#fff" stroke="#ddd" stroke-linecap="round" stroke-miterlimit="10" stroke-width="2"/><path fill="#fff" stroke="#ddd" stroke-linecap="round" stroke-miterlimit="10" stroke-width="2" d="M191.7 29.8h-36l11.8-15h12.4l11.8 15zM171.9 0v14.8h3.5V0"/><circle cx="286.3" cy="29.8" r="4.3" fill="#fff" stroke="#ddd" stroke-linecap="round" stroke-miterlimit="10" stroke-width="2"/><path fill="#fff" stroke="#ddd" stroke-linecap="round" stroke-miterlimit="10" stroke-width="2" d="M304.3 29.8h-36l11.8-15h12.4l11.8 15zM284.6 0v14.8h3.5V0"/><circle cx="398.9" cy="29.8" r="4.3" fill="#fff" stroke="#ddd" stroke-linecap="round" stroke-miterlimit="10" stroke-width="2"/><path fill="#fff" stroke="#ddd" stroke-linecap="round" stroke-miterlimit="10" stroke-width="2" d="M416.9 29.8h-36l11.8-15h12.4l11.8 15zM397.2 0v14.8h3.5V0"/></svg>