<svg xmlns="http://www.w3.org/2000/svg" width="460" height="258.8" viewBox="0 0 460 258.8"><path fill="none" stroke="#ddd" stroke-linecap="round" stroke-miterlimit="10" stroke-width="2" d="M89 0v258.7M102.3 0v258.7M357.7 0v258.7M371 0v258.7m-268.7-41.4h255.4M102.3 81.5h255.4m-255.4-8h255.4M56.9 0v258.7M70.3 0v258.7M0 217.3h56.9m-56.9-8h56.9M0 81.5h56.9M0 73.5h56.9M403.1 0v258.7M389.7 0v258.7m70.3-41.4h-56.9m56.9-8h-56.9M460 81.5h-56.9m56.9-8h-56.9m-280.2 79.2l41.9-41.9m-41.2 77.5l88-88m-88.7 186.9l41.9-41.9m-41.2 77.5l88-88m-88.7-219L138.8 0m-15.2 51.5L175.1 0"/><path fill="#007500" d="M159.9 132.6h27.8v20.07h-27.8z"/><rect width="37.8" height="59.33" x="154.9" y="150" fill="#393" rx="6.2" ry="6.2"/><rect width="37.8" height="12.95" x="154.9" y="122.3" fill="#393" rx="4.4" ry="4.4"/><rect width="27.8" height="8.86" x="159.9" y="113.4" fill="#333" rx="3.1" ry="3.1"/><rect width="9.3" height="6.36" x="169.2" y="107" fill="#333" rx="1.5" ry="1.5"/><path fill="#fff" d="M185.6 173.2a11.8 11.8 0 0 1-14.4 11.6 2.2 2.2 0 0 1-1.5-3.1 2.2 2.2 0 0 1 2.4-1.2l1.8.2a7.5 7.5 0 0 0 3.1-14.3 7.4 7.4 0 0 0-3.2-.7 7.6 7.6 0 0 0-7.5 7.6v22.3a2.2 2.2 0 0 1-2.2 2.2 2.2 2.2 0 0 1-2.2-2.2v-22.2a12 12 0 0 1 11.9-12 11.8 11.8 0 0 1 11.8 11.8z"/><rect width="5.3" height="1.87" x="286.8" y="164.8" fill="#333" rx=".9" ry=".9"/><path fill="none" stroke="#ddd" stroke-linecap="round" stroke-miterlimit="10" stroke-width="2" d="M102.3 209.3h255.4"/><path fill="#005600" stroke="#333" stroke-linecap="round" stroke-miterlimit="10" stroke-width="4" d="M254.9 205.7c28.9 5.8 60.7 2.5 68.7-.7l-19.1-13.5-33.2.4c-.5.1-16.4 13.8-16.4 13.8z"/><path fill="#393" stroke="#333" stroke-linecap="round" stroke-miterlimit="10" stroke-width="4" d="M324 206.8c-11-5.5-40.3-17.1-69.1-.3-.1-52.3 69.1-50 69.1.3z"/><path fill="none" stroke="#333" stroke-linecap="round" stroke-miterlimit="10" stroke-width="6" d="M250.3 209.3c37.8-26.1 78.2 0 78.2 0"/><path fill="#fff" d="M295.2 179.6a5.8 5.8 0 0 1-5.7 5.8h-1.4a1.1 1.1 0 0 1-.7-1.5 1.1 1.1 0 0 1 1.2-.6h.9a3.7 3.7 0 0 0 1.5-7 3.6 3.6 0 0 0-1.6-.4 3.7 3.7 0 0 0-3.7 3.7v10.9a1.1 1.1 0 0 1-1.1 1.1 1.1 1.1 0 0 1-1.1-1.1v-10.8a5.8 5.8 0 0 1 5.8-5.8 5.8 5.8 0 0 1 5.7 5.7z"/></svg>