<svg id="Layer_1" data-name="Layer 1" xmlns="http://www.w3.org/2000/svg" xmlns:xlink="http://www.w3.org/1999/xlink" width="460" height="258.8" viewBox="0 0 460 258.8"><title>bg-polished</title><line x1="89" x2="89" y2="258.7" fill="none" stroke="#ddd" stroke-linecap="round" stroke-miterlimit="10" stroke-width="2"/><line x1="102.3" x2="102.3" y2="258.7" fill="none" stroke="#ddd" stroke-linecap="round" stroke-miterlimit="10" stroke-width="2"/><line x1="357.7" x2="357.7" y2="258.7" fill="none" stroke="#ddd" stroke-linecap="round" stroke-miterlimit="10" stroke-width="2"/><line x1="371" x2="371" y2="258.7" fill="none" stroke="#ddd" stroke-linecap="round" stroke-miterlimit="10" stroke-width="2"/><line x1="102.3" y1="217.3" x2="357.7" y2="217.3" fill="none" stroke="#ddd" stroke-linecap="round" stroke-miterlimit="10" stroke-width="2"/><line x1="102.3" y1="81.5" x2="357.7" y2="81.5" fill="none" stroke="#ddd" stroke-linecap="round" stroke-miterlimit="10" stroke-width="2"/><line x1="102.3" y1="73.5" x2="357.7" y2="73.5" fill="none" stroke="#ddd" stroke-linecap="round" stroke-miterlimit="10" stroke-width="2"/><line x1="56.9" x2="56.9" y2="258.7" fill="none" stroke="#ddd" stroke-linecap="round" stroke-miterlimit="10" stroke-width="2"/><line x1="70.3" x2="70.3" y2="258.7" fill="none" stroke="#ddd" stroke-linecap="round" stroke-miterlimit="10" stroke-width="2"/><line y1="217.3" x2="56.9" y2="217.3" fill="none" stroke="#ddd" stroke-linecap="round" stroke-miterlimit="10" stroke-width="2"/><line y1="209.3" x2="56.9" y2="209.3" fill="none" stroke="#ddd" stroke-linecap="round" stroke-miterlimit="10" stroke-width="2"/><line y1="81.5" x2="56.9" y2="81.5" fill="none" stroke="#ddd" stroke-linecap="round" stroke-miterlimit="10" stroke-width="2"/><line y1="73.5" x2="56.9" y2="73.5" fill="none" stroke="#ddd" stroke-linecap="round" stroke-miterlimit="10" stroke-width="2"/><line x1="403.1" x2="403.1" y2="258.7" fill="none" stroke="#ddd" stroke-linecap="round" stroke-miterlimit="10" stroke-width="2"/><line x1="389.7" x2="389.7" y2="258.7" fill="none" stroke="#ddd" stroke-linecap="round" stroke-miterlimit="10" stroke-width="2"/><line x1="460" y1="217.3" x2="403.1" y2="217.3" fill="none" stroke="#ddd" stroke-linecap="round" stroke-miterlimit="10" stroke-width="2"/><line x1="460" y1="209.3" x2="403.1" y2="209.3" fill="none" stroke="#ddd" stroke-linecap="round" stroke-miterlimit="10" stroke-width="2"/><line x1="460" y1="81.5" x2="403.1" y2="81.5" fill="none" stroke="#ddd" stroke-linecap="round" stroke-miterlimit="10" stroke-width="2"/><line x1="460" y1="73.5" x2="403.1" y2="73.5" fill="none" stroke="#ddd" stroke-linecap="round" stroke-miterlimit="10" stroke-width="2"/><line x1="122.9" y1="152.7" x2="164.8" y2="110.8" fill="none" stroke="#ddd" stroke-linecap="round" stroke-miterlimit="10" stroke-width="2"/><line x1="123.6" y1="188.3" x2="211.6" y2="100.3" fill="none" stroke="#ddd" stroke-linecap="round" stroke-miterlimit="10" stroke-width="2"/><line x1="122.9" y1="287.2" x2="164.8" y2="245.3" fill="none" stroke="#ddd" stroke-linecap="round" stroke-miterlimit="10" stroke-width="2"/><line x1="123.6" y1="322.8" x2="211.6" y2="234.8" fill="none" stroke="#ddd" stroke-linecap="round" stroke-miterlimit="10" stroke-width="2"/><line x1="122.9" y1="15.8" x2="138.8" fill="none" stroke="#ddd" stroke-linecap="round" stroke-miterlimit="10" stroke-width="2"/><line x1="123.6" y1="51.5" x2="175.1" fill="none" stroke="#ddd" stroke-linecap="round" stroke-miterlimit="10" stroke-width="2"/><rect x="159.9" y="132.6" width="27.8" height="20.07" fill="#007500"/><rect x="154.9" y="150" width="37.8" height="59.33" rx="6.2" ry="6.2" fill="#393"/><rect x="154.9" y="122.3" width="37.8" height="12.95" rx="4.4" ry="4.4" fill="#393"/><rect x="159.9" y="113.4" width="27.8" height="8.86" rx="3.1" ry="3.1" fill="#333"/><rect x="169.2" y="107" width="9.3" height="6.36" rx="1.5" ry="1.5" fill="#333"/><path d="M185.6,173.2a11.8,11.8,0,0,1-14.4,11.6,2.2,2.2,0,0,1-1.5-3.1h0a2.2,2.2,0,0,1,2.4-1.2l1.8.2a7.5,7.5,0,0,0,3.1-14.3,7.4,7.4,0,0,0-3.2-.7,7.6,7.6,0,0,0-7.5,7.6v22.3a2.2,2.2,0,0,1-2.2,2.2h0a2.2,2.2,0,0,1-2.2-2.2V173.4a12,12,0,0,1,11.9-12,11.8,11.8,0,0,1,11.8,11.8Z" fill="#fff"/><rect x="286.8" y="164.8" width="5.3" height="1.87" rx="0.9" ry="0.9" fill="#333"/><line x1="102.3" y1="209.3" x2="357.7" y2="209.3" fill="none" stroke="#ddd" stroke-linecap="round" stroke-miterlimit="10" stroke-width="2"/><path d="M254.9,205.7c28.9,5.8,60.7,2.5,68.7-.7l-19.1-13.5-33.2.4C270.8,192,254.9,205.7,254.9,205.7Z" fill="#005600" stroke="#333" stroke-linecap="round" stroke-miterlimit="10" stroke-width="4"/><path d="M324,206.8c-11-5.5-40.3-17.1-69.1-.3C254.8,154.2,324,156.5,324,206.8Z" fill="#393" stroke="#333" stroke-linecap="round" stroke-miterlimit="10" stroke-width="4"/><path d="M250.3,209.3c37.8-26.1,78.2,0,78.2,0" fill="none" stroke="#333" stroke-linecap="round" stroke-miterlimit="10" stroke-width="6"/><line x1="324" y1="206.8" x2="324" y2="206.8" fill="none" stroke="#333" stroke-linecap="round" stroke-miterlimit="10" stroke-width="4"/><path d="M295.2,179.6a5.8,5.8,0,0,1-5.7,5.8h-1.4a1.1,1.1,0,0,1-.7-1.5h0a1.1,1.1,0,0,1,1.2-.6h.9a3.7,3.7,0,0,0,1.5-7,3.6,3.6,0,0,0-1.6-.4,3.7,3.7,0,0,0-3.7,3.7v10.9a1.1,1.1,0,0,1-1.1,1.1h0a1.1,1.1,0,0,1-1.1-1.1V179.7a5.8,5.8,0,0,1,5.8-5.8,5.8,5.8,0,0,1,5.7,5.7Z" fill="#fff"/><image width="461" height="259" transform="translate(-0.1)" xlink:href="bg-polished1.png"/></svg>