<svg xmlns="http://www.w3.org/2000/svg" id="Layer_1" viewBox="0 0 725 487" width="725" height="487"><style>.st0{fill:#fff}.st1{fill:#643510}.st2{fill:#b21e28}.st3{fill:#2e2a25}</style><g id="Layer_1_1_"><path d="M333.1 260.4c-1.7 4.6-5.8 11-10.6 18.5-3.1 4.8-6.4 9.9-9.4 15.2-6.8 11.6-12.4 24-11.8 34.8l-2.5 1.9-14.3 3.6-5.7-5.4-21.2 6.1-15.2-8.5-10.3 5.2-14.5-1.4-18.8 9.4-9.2-1.7-10.8 4.7-6.3 5.4v-6.3l-9.9-12L146 332l-13.7-3.9-7.4-6.2c-.8-8.4-7.4-19.2-14.7-29.8-2.1-3.1-4.4-6.2-6.5-9.2-6.2-8.7-12.1-16.9-14.1-22.4-3.2-8.7-2.5-14.1-1.9-19.3.5-2.8.6-5.6.4-8.4l3.8-3.3 8.4-7.2 15.3 4.4 15.4-17.1 16.7 1.8 14.5-12.1 3.7.5c-.8 2.9.2 6 2.7 7.8 2.6 2.1 5.4 2.5 8.3 2.8 3.3.3 6.6 1.2 9.6 2.6 1.3.8 2.5 1.6 3.6 2.6 4.9 3.7 14.3 9.2 20.9 9.2 6.3 0 11.9-5.2 17-8.9 1.4-1 2.8-2 4.3-2.8 2.7-.8 5.4-1.4 8.1-1.8 3.9-.7 7-1.2 10.1-3.8 1.3-1 2.3-2.5 2.7-4.1l7.4 3.7 13.2-1.1 5.2 10.2 13.8-5.4 6.8-18.9 5.3-3.1-2.6 7.3 2 7.8-4.1 11.5 16.8.8 9.1 9.7 5.7 2.4 3.4 1.4c-.2 2.9-.1 5.8.2 8.7.5 6.2 1 13.1-2.3 22z" class="st0"/><path d="M298.4 241.9c4.4 15.8-.6 34.1-14.8 53.4-2.2 3-3.2 8.5-4.3 14.3-2.1 11.4-4.7 25.6-18.1 30.4-12.7 4.6-24.1 1.5-34.1-1.3-5.6-1.5-10.9-3-15.8-3s-10.2 1.5-15.8 3c-6.3 1.7-13.2 3.6-20.6 3.6-4.6 0-9.2-.8-13.5-2.3-13.5-4.8-16-19-18.1-30.4-1-5.8-2-11.3-4.3-14.3-14.2-19.3-19.3-37.6-14.8-53.4-4.8 1.5-9.5 3.4-14.1 5.7 1.1-.8 20.2-14.7 39.8-13.9 7 .3 13.8 2.9 20.3 5.4 12.4 4.8 24.2 9.3 39 .1v-3.7c0-1.8.6-3.5 1.7-4.9l.3-.3.3.3c1.1 1.4 1.7 3.1 1.7 4.9v3.7c14.8 9.2 26.6 4.7 39-.1 6.5-2.5 13.3-5.1 20.3-5.4 19.6-.9 38.7 13 39.8 13.9-4.5-2.2-9.1-4.1-13.9-5.7z" class="st1"/><path d="M274.6 261.7c-1.5 9-6.9 17-14.8 21.7 0 0 1.8-18.8 0-22.9-.8-1.8-2.4-4.3-3.7-7.1-2.7 11.1-8.6 14.5-8.6 14.5s-5.3-1.8-7.8-12c-2.1 10.3-7.1 12-7.1 12s-3.8-1.5-6.1-8.9c-2.6 10-7.8 11.8-7.8 11.8s-4.6-1.8-7.3-10.9c-2.7 8.7-7 10.4-7 10.4s-4.9-1.6-7.4-11.2c-2.4 7.4-6.1 8.8-6.1 8.8s-5-1.7-7.1-12c-2.6 10.2-7.8 12-7.8 12s-5.8-3.7-8.5-14.7c-1.3 2.9-3 5.4-3.7 7.2-1.8 4.1 0 22.9 0 22.9-7.9-4.7-13.3-12.6-14.8-21.7-1.5-8.1 0-16.5 4.3-23.6 4.4.8 8.7 2.1 12.8 3.8.9.3 1.9.7 2.8 1l.5.2c4.4 1.8 8.9 3.3 13.5 4.4.7.2 1.4.3 2.1.4 2.3.4 4.6.6 6.9.6 1.2 0 2.4-.1 3.6-.2s2.2-.3 3.3-.5c3.7-.8 7.3-2.1 10.6-4 .6-.3 1.2-.7 1.9-1.1.7.5 1.5.9 2.2 1.3 3.5 1.9 7.3 3.3 11.3 4 1.1.2 2.2.3 3.3.4.9.1 1.8.1 2.6.1 2.6 0 5.2-.3 7.8-.8.7-.1 1.4-.3 2.1-.5 4.5-1.2 8.8-2.6 13.1-4.4l.5-.2 3.2-1.2c4.1-1.7 8.4-2.9 12.8-3.5 4.3 7.2 5.9 15.7 4.4 23.9zm-6 67.7c-2.1 3.2-5.2 5.6-8.8 6.8-2.2.8-4.5 1.4-6.8 1.7-.7.1-1.5.2-2.2.3-4.9.3-9.9-.1-14.7-1.3l-.4-.1c-2.5-.6-5-1.3-7.5-2-.6-.2-1.2-.3-1.8-.5-1.1-.3-2.1-.6-3.1-.8-3.1-.8-6.3-1.4-9.5-1.7-.8 0-1.6-.1-2.4-.1H210c-3.2.2-6.4.7-9.6 1.5-1 .2-2.1.5-3.1.8-1.1.3-1.9.5-2.8.8-2.2.6-4.3 1.2-6.6 1.7l-1.8.4c-4.4 1-8.9 1.5-13.4 1.3-.7 0-1.5-.1-2.2-.2-2.6-.3-5.2-1-7.8-1.8-3-1-5.6-2.8-7.6-5.2-1-4.5-1-9.1-.3-13.7 2.6-15.6 13.4-21.7 13.4-21.7s-1.6 18.8 0 22.9c.7 1.8 2.2 4.4 3.4 7.2 2.5-11 7.8-14.7 7.8-14.7s4.8 1.8 7.1 12c1.9-10.3 6.4-12 6.4-12s3.4 1.5 5.6 8.9c2.4-9.6 6.8-11.2 6.8-11.2s3.9 1.6 6.3 10c2.4-8.4 6.3-10 6.3-10s4.4 1.7 6.8 11.2c2.1-7.4 5.6-8.9 5.6-8.9s4.5 1.7 6.5 12c2.3-10.2 7.1-12.1 7.1-12.1s5.3 3.7 7.8 14.7c1.2-2.9 2.7-5.4 3.4-7.2 1.7-4.2 0-22.9 0-22.9s10.9 6.1 13.5 21.6c.7 4.2.9 8.3 0 12.3z" class="st0"/><path d="M300.5 334.2l-14.6 3.7.6 5.7-2.4 3.1 2.5 13.1-2.8-6.5-1.5-4.9-2.8 2-5.6 1.3 5.4-3.2 4.1-4.7-1.3-6.5-4.2-4.1-20.7 5.9-14.8-8.3-9.5 4.9-14.5-1.4-19 9.5-9.4-1.7-9.4 4.1-11.9 10.4v-13.3l-7.7-9.4-15.3 2-15.3-4.3-8.3-6.9c1.1 30.7 14.8 69.8 33.9 80.1 14.4 7.8 29.3 15.8 80.8 14.8l5.5-4.7-4.2-.5-4.1-5.5-3.4-4.6-2.3-3.9-2.3-9.7 3.7 7.4 3.2 4.2 3.4 3.5 3.8 5.1 6.8.9 11.4 1.1c21.7-6.7 46.4-43.5 47.6-82.6l-5.4 3.9zm-54.8 61.7c-3 0-5.4-2.4-5.4-5.4 0-3 2.4-5.4 5.4-5.4 3 0 5.4 2.4 5.4 5.3-.1 3.1-2.5 5.4-5.4 5.5zm55.4-356C269.3 21.6 230.5 12.3 196.8 15l-5.4 9.2-4 6.8 5.6 5.6 2.8 6.3-4.5-5.8-5.4-3.6-3.4 4.6-6.7 4.6 5.6-7.2 6.5-13.2-8.4-4.6c-4.9 1.5-32.7 10.1-47.5 16.2-15.6 6.5-60.5 38-61.2 95.7 0 12.2.8 24.3 2.3 36.3.4 3.8.9 7.5 1.4 11.1.3 2.5.6 5 .9 7.3 2.9 23 6.1 40.5 7.4 47.4l7.5-6.5 8.6-7.5 15 4.4 14.7-16.2c.4-2.1 1.3-7.2 2-11.1l-5.6-6.4 1.7-10.1-6.6-12.4c-10.1-4.7-21.6-12.3-22.5-20.6-1.2-11.2 3.2-22 11.8-29.7-6.5.6-13 1.6-19.4 3 1.1-.6 25.9-13.4 58.6-4.4 13.2 3.6 23.8 9.4 31.5 13.4 6.5 3.4 11.7 6.1 14.2 5.5 4.8-1.2 6.4-13.3 6.4-13.3.9 4.8 1.1 15.3-5.4 17-.6.1-1.1.2-1.7.2-1.4 0-2.7-.3-4-.7.1 5.5-.6 19.6-10.8 26.9-8.6 6.2-21.8 8.4-32.9 8.4-1.6 0-3.1 0-4.6-.1l-10.9 7.5-1.4 8.2 5.6 6.4-.2.9c-1.1 6.1-1.7 9.5-2 11.2l13.6 1.5 14.6-12.1 6.9.9 15.2-16.1 12.7 3.2 16.2-12.9 9.6 6.3 14.9 2.1 9 16.6 15.8 8 14.7-1.2 4.8 9.4 9.1-3.5 6.7-18.5 10.5-6.1 2.7-8.3 7.8-3.7 9.8-4.6-9.7 7.3-4.7 3.5-.9 2.9-5.7 16 2 7.8-2.8 7.8 13.2.6 9.6 10.2 4.5 1.9 7.6 3.2c1.3-8.2 5.9-36.5 8.6-60.4 1.2-9.2 1.8-18.4 2-27.6-.1-12.3-3.5-33.9-12.6-54.3-8.7-20.2-23-37.7-37-45.7z" class="st0"/><circle cx="185" cy="364.7" r="5.4" class="st2"/><circle cx="214" cy="81.3" r="5.4" class="st2"/><circle cx="255.2" cy="70.6" r="5.4" class="st2"/><circle cx="290.2" cy="59.9" r="5.4" class="st2"/><circle cx="172.8" cy="70.6" r="5.4" class="st2"/><circle cx="137.8" cy="59.9" r="5.4" class="st2"/><circle cx="185" cy="390.5" r="5.4" class="st2"/><circle cx="245.7" cy="390.5" r="5.4" class="st2"/><circle cx="245.7" cy="364.7" r="5.4" class="st2"/><path d="M278 114.3c-13.2 3.6-23.7 9.4-31.5 13.4-6.5 3.4-11.7 6.1-14.2 5.5-4.8-1.2-6.3-13.3-6.3-13.3-.9 4.8-1.2 15.3 5.4 17 .6.1 1.1.2 1.7.2 1.4 0 2.7-.3 4-.7-.1 5.5.6 19.6 10.8 26.9 8.6 6.2 21.8 8.4 32.9 8.4 4.5 0 8.9-.4 13.3-1.2 9.1-2 33.6-12.7 34.9-25.1 1.2-11.2-3.2-22-11.8-29.7 6.5.6 13 1.6 19.4 3 .1 0-25.1-13.6-58.6-4.4zm47.3 30.7c-1 8.9-21.3 19.5-32 21.8-11 2.4-32.1 1.4-43.2-6.6-10-7.2-9.3-23.2-9.1-25.5 2.2-1 4.6-2.3 7.3-3.7 7.6-4 17.9-9.5 30.7-13.1 9.9-2.9 21.4-3.2 31.4-2.7 10.6 7 16.1 18.1 14.9 29.8z" class="st1"/><path d="M325.3 145c-1 8.9-21.3 19.5-32 21.8-11 2.4-32.1 1.4-43.2-6.6-10-7.2-9.3-23.2-9.1-25.5 2.2-1 4.6-2.3 7.3-3.7 7.6-4 17.9-9.5 30.7-13.1 9.9-2.9 21.4-3.2 31.4-2.7 10.6 7 16.1 18.1 14.9 29.8z" class="st2"/><path d="M241.4 117.9s6.2-17.2 38.9-24c31.3-6.5 48.7 5.7 48.7 5.7-43.3-18.4-87.2 17.9-87.6 18.3z" class="st1"/><path d="M101.7 145c.7 6.5 11.5 13.8 21.5 18.2.9 3.6 6.4 12.1 6.4 12.1s8.7-4.9 10.9-7.5c11.5.9 27.3-1 36.4-7.5 10-7.2 9.3-23.2 9.1-25.5-2.2-1-4.6-2.3-7.3-3.7-7.6-4-17.9-9.5-30.7-13.1-9.9-2.9-21.4-3.2-31.4-2.7-10.6 6.9-16.1 18-14.9 29.7z" class="st2"/><path d="M185.6 117.9s-6.2-17.2-38.9-24C115.4 87.4 98 99.6 98 99.6c43.3-18.4 87.2 17.9 87.6 18.3zm28 19.3c-1 0-1.7-.8-1.7-1.7v-.1l.5-6.3v-.3l-.5-6.3c-.1-1 .6-1.8 1.6-1.9h.1c1 0 1.7.8 1.7 1.7v.2l-.6 6.2v.3l.6 6.2c.1 1-.6 1.8-1.6 1.9 0 .1-.1.1-.1.1z" class="st1"/><path d="M409.1 285.7s2.1 0 2.1-1.7-8.7-13.5-9.9-14.2c-1.2-.7-.7-6.1-.7-6.1s.2 1.7 2.6 0-.7-5.9-3.5-8.5c-2.2-2.3-4.1-4.8-5.7-7.6 0 0 1.9-1.2 1.7-2.6s-9.2-11.1-10.9-12.5-2.8-7.3-2.8-8.5 7.8-1.2 7.8-2.7-7.6-9.6-6.6-9.6 4.5-.9 4.7-2.8-4.5-7.6-6.4-9.2 0-1.4 0-3.2-5-6-5-6c1.4-.1 2.4-1.3 2.4-2.7 0-2.4-2.8-4.4-4.7-5.1s.4-1.9-.7-3.5 2.1-2.8 0-4.3-1.9 0-2.6 0-1.2-1.6-1.6-3.1-7.4-4.5-9.7-6.8 0-4-1.7-6.1c-1-1.2-2.4-2.1-3.9-2.6.6-6.4.9-12 .8-16.4-.1-12.7-3.6-34.9-12.9-55.8-9.5-21.1-24-38.8-38.8-47.4-32.7-18.8-72.9-28.3-107.5-25.3l-1 .1-4.5 7.8-10-5.4-.8.2c-.3.1-32.2 9.8-48.6 16.6-16.3 6.7-62.8 39.4-63.6 99.1-.1 8.9.4 17.8 1.2 26.7-1.4.5-2.6 1.3-3.5 2.4-1.6 2.1.7 3.8-1.6 6.1-2.3 2.4-9.2 5.5-9.6 6.9s-1 3.1-1.7 3.1-.5-1.4-2.6 0 1.2 2.6 0 4.2 1.2 2.8-.7 3.6-4.7 2.7-4.7 5.1c0 1.4 1 2.5 2.4 2.7 0 0-4.9 4.3-4.9 6s1.9 1.5 0 3.2-6.6 7.4-6.4 9.2 3.8 2.8 4.7 2.8-6.6 8.1-6.6 9.6 7.8 1.5 7.8 2.7-1.2 7.1-2.8 8.5-10.8 11-11 12.4 1.6 2.6 1.6 2.6c-1.6 2.7-3.5 5.3-5.7 7.6-2.8 2.6-5.9 6.9-3.5 8.5 2.4 1.7 2.6 0 2.6 0s.5 5.4-.7 6.1c-1.2.7-9.9 12.5-9.9 14.2 0 1.7 2.1 1.7 2.1 1.7s-4.5 9.9-2.1 10.9c2.3.9 2.4 0 2.4 0s.7 14 .2 15.1-2.8 7.3-1.4 9c.6.9 1.7 1.4 2.8 1.4 0 0 2.3 5.7 4.4 7.3C22 331 21.3 340 24.4 340c2.8 0 1.8-1.6 1.7-1.9.9.8 15.1 12.8 23.1 13.9 8.3 1.2 7.8-1.2 8 0s6.4 3.8 9.9 3.5c3.5-.2 6.4-3.3 6.4-3.3s8.7 3.5 9.4 2.4c.4-.9.4-1.9 0-2.8 0 0 2.4-.2 3.1-1.2 0 0 4.9 3.4 9 1s3.4-5.6 3.1-6.2c2.3-1 3-5.1.3-7 6.4.5 7.3-1.8 7.3-2.9-.1-1.4-1.2-2.9-.8-4.1.7 2.2 1.2 4.6 2.5 3.7 1.3-.9 2-4 .3-11.2 2.8-4.3 3.6-16.7 3.9-22.7 3.8 6 6.9 11.7 8.4 16.7l-1.9-1.6v4c0 40.7 18.6 78.2 36 87.5 16.5 8.9 36.8 15.3 73.4 15.3 3.2 0 6.5 0 9.9-.1h.7l9.2-7.8 11.4 1.1.3-.1c28.9-8.5 51-55.5 50.7-90.2v-3.8L305 326c.3-6.2 2.7-13 5.9-19.9.3 5.1 1.2 14 3.8 18-1.6 7.2-1 10.3.3 11.2s1.8-1.4 2.5-3.7c.5 1.2-.7 2.7-.7 4.1 0 1.1.9 3.4 7.3 2.9-2.8 1.9-2 6 .3 7-.4.6-1 3.9 3.1 6.2s9-1.1 9-1.1c.7 1 3.1 1.2 3.1 1.2-.4.9-.4 1.9 0 2.8.7 1.2 9.5-2.4 9.5-2.4s2.8 3.1 6.4 3.3 9.7-2.4 9.9-3.5-.2 1.2 8 0c8-1.2 22.2-13.2 23.1-13.9-.1.2-1.1 1.9 1.7 1.9 3.1 0 2.4-9 4.5-10.6s1.4-5.7 1.4-5.7c1.1 0 2.2-.5 2.8-1.4 1.4-1.7-.9-7.8-1.4-9s3.4-16.8 3.4-16.8 0 .9 2.4 0-2.2-10.9-2.2-10.9zM305.9 330c-1.2 39.1-25.9 75.9-47.6 82.6l-11.4-1-6.8-.9-3.8-5.1-3.4-3.5-3.2-4.2-3.7-7.4 2.3 9.7 2.3 3.9 3.4 4.6 4.1 5.5 4.2.5-5.5 4.7c-45.9 1.1-66.4-7-80.8-14.8-19.1-10.3-32.8-49.4-33.9-80.1l8.3 6.9 15.2 4.3 15.3-2 7.7 9.4v13.3l11.9-10.4 9.4-4.1 9.4 1.7 19-9.5 14.5 1.4 9.5-4.8 14.8 8.2 20.7-5.9 4.3 4.1 1.3 6.5-4.1 4.7-5.4 3.3 5.6-1.3 2.8-2 1.5 4.9 2.7 6.5-2.5-13 2.4-3.1-.6-5.7 14.7-3.7 5.4-4.2zm27.3-69.6c-1.7 4.6-5.8 11-10.6 18.5-3.1 4.8-6.4 9.9-9.4 15.2-6.8 11.6-12.4 24-11.8 34.8l-2.5 1.9-14.3 3.6-5.7-5.4-21.2 6.1-15.2-8.5-10.3 5.2-14.5-1.4-18.8 9.4-9.2-1.7-10.8 4.7-6.3 5.4v-6.3l-9.9-12-16.6 2.1-13.7-3.9-7.4-6.2c-.8-8.4-7.4-19.2-14.7-29.8-2.1-3.1-4.4-6.2-6.5-9.2-6.2-8.7-12.1-16.9-14.1-22.4-3.2-8.7-2.5-14.1-1.9-19.3.5-2.8.6-5.6.4-8.4l3.8-3.3 8.4-7.2 15.3 4.4 15.4-17.1 16.7 1.8 14.5-12.1 3.7.5c-.8 2.9.2 6 2.7 7.8 2.6 2.1 5.4 2.5 8.3 2.8 3.3.3 6.6 1.2 9.6 2.6 1.3.8 2.5 1.6 3.6 2.6 4.9 3.7 14.3 9.2 20.9 9.2 6.3 0 11.9-5.2 17-8.9 1.4-1 2.8-2 4.3-2.8 2.7-.8 5.4-1.4 8.1-1.8 3.9-.7 7-1.2 10.1-3.8 1.3-1 2.3-2.5 2.7-4.1l7.4 3.7 13.2-1.1 5.2 10.2 13.8-5.4 6.8-18.9 5.3-3.1-2.6 7.3 2 7.8-4.1 11.5 16.8.8 9.1 9.7 5.7 2.4 3.4 1.4c-.2 2.9-.1 5.8.2 8.7.4 6.2.9 13.1-2.3 22zm15.8-93c-2.7 23.8-7.2 52.1-8.6 60.4l-7.6-3.2-4.5-1.9-9.6-10.2-13.2-.6 2.8-7.8-2-7.8 5.7-16 .9-2.9 4.7-3.5 9.7-7.3-9.8 4.6-7.8 3.7-2.7 8.3-10.5 6.1-6.7 18.5-9.1 3.5-4.8-9.4-14.7 1.2-15.8-8-9-16.6-14.9-2.1-9.6-6.3-15.4 12.3-.8.6-.8-.2-11.9-3-15.2 16.1-6.9-.8-14.6 12.1-13.6-1.5c.3-1.8.9-5.1 2-11.2l.2-.9-5.6-6.4 1.4-8.2 10.9-7.6c1.5.1 3 .1 4.6.1 11.1 0 24.3-2.2 32.9-8.4 10.1-7.3 10.9-21.5 10.8-26.9 1.3.4 2.6.7 4 .7.6 0 1.1-.1 1.7-.2 6.6-1.6 6.3-12.1 5.4-17 0 0-1.6 12.1-6.3 13.3-2.5.6-7.6-2.1-14.2-5.5-7.7-4.1-18.2-9.8-31.5-13.4-32.7-9-57.5 3.8-58.6 4.4 6.4-1.4 12.9-2.4 19.4-3-8.6 7.8-13 18.5-11.8 29.7.9 8.4 12.3 16 22.5 20.6l6.6 12.4-1.7 10.1 5.6 6.4c-.7 3.9-1.6 9.1-2 11.2l-14.7 16.2-15-4.4-8.6 7.4-7.5 6.5c-1.3-6.9-4.5-24.3-7.4-47.4-.3-2.4-.6-4.8-.9-7.3-.5-3.6-1-7.3-1.4-11.1-1.6-12-2.4-24.2-2.3-36.3.5-57.5 45.4-89 61-95.5 14.9-6.1 42.6-14.7 47.5-16.2l8.4 4.6-6.5 13.3-5.6 7.2 6.7-4.6 3.4-4.6 5.4 3.6 4.5 5.8-2.8-6.3-5.6-5.6 4-6.8 5.4-9.2c33.6-2.7 72.5 6.6 104.3 24.9 14 8 28.3 25.6 37.3 45.7 9.1 20.4 12.5 42 12.6 54.3-.4 8.9-1 18.2-2.2 27.3zm-225.8-4.2c-10-4.4-20.8-11.7-21.5-18.2-1.2-11.7 4.3-22.8 14.8-29.8 10-.5 21.4-.1 31.4 2.7 12.8 3.7 23.2 9.1 30.8 13.1 2.8 1.4 5.2 2.7 7.3 3.7.1 2.2.8 18.2-9.1 25.5-9.1 6.5-24.9 8.4-36.4 7.5l-10.9 7.5-6.4-12z" class="st1"/><path d="M228.4 196.2c3.2-1.2-4.1-14.7-5.9-13.8s-.8 16.3 5.9 13.8zm-31.3-9.1c-.3 4.6-2.3 10.8-6.7 9.1-2-.7 0-6 2.2-9.9l4.1 1 .4-.2z" class="st0"/><path d="M232.1 331.8c-.3 1.3-.7 2.5-1.3 3.7 0 0 0 .1-.1.1-.5 1.1-1.1 2.3-1.9 3.7-2 3.6-4.6 7.9-7.1 11.9-3.2 5.1-5.6 17.8-5.1 29.7.2 6 2.6 14.1 3 18.3s-.6 9.2-7.9 9.2c-5.8 0-8.9-6-8.9-10.5 0-5 6.1-11.4 4.8-19.1-.4-2-2.3-11.5-2.3-14.1s-4.1-9-6.6-10.8-7.4 0-11 .8-9.2-.3-11.5 1-6.9 7.7-6.1 11.5.8 14.6.8 17.8-2.8 8.5-3.1 14.3c-.2 4.9 3.5 8.8 5.3 12.7.3.6.6 1.3.8 2 .2.7.2 1.5.1 2.3-.4 4-3.7 8.3-3.9 14.3-.2 7.2 11 34-4.4 34s-3.6-28.7-2.6-32.5c.7-2.7-2.5-12.8-5.4-22.5-.5-1.7-1-3.4-1.5-5-.7-2.4-1.3-4.7-1.8-6.8-2.7-11.5.5-20.5 1.5-22.3s-.2-10.5-.2-12.8 2.6-11.3 1.3-15.9c-1.1-3.8-5.7-6.7-9-11.6-.8-1.1-1.5-2.3-2-3.6l4.5-.6 4.7-.6 7.4-.9 1.7 2.1 4.9 6c.4.1.9.2 1.4.2.7.1 1.5.1 2.2.2 4.5.2 9-.2 13.4-1.3l1.7-.4c2.2-.5 4.4-1.1 6.5-1.7l2.8-.8c1.1-.3 2.1-.5 3.1-.8 3.1-.8 6.3-1.3 9.6-1.5h1.4c.8 0 1.6 0 2.4.1.2 0 .5 0 .7.1l.3-.1 2.9-1.5 14.5 1.7z" class="st2"/><path d="M663.4 135.6c-.8 2.3-2.9 5.5-5.3 9.2-1.5 2.4-3.2 4.9-4.7 7.6-3.4 5.8-6.2 12-5.9 17.4l-1.2.9-7.2 1.8-2.9-2.7-10.6 3-7.6-4.2-5.2 2.6-7.2-.7-9.4 4.7-4.6-.9-5.4 2.3-3.2 2.7v-3.1l-5-6-8.2 1.1-6.9-1.9-3.7-3.1c-.4-4.2-3.7-9.6-7.3-14.9-1.1-1.6-2.2-3.1-3.2-4.6-3.1-4.4-6-8.5-7.1-11.2-1.2-3.1-1.5-6.4-.9-9.7.2-1.4.3-2.8.2-4.2l1.9-1.7 4.2-3.6 7.7 2.2 7.7-8.5 8.4.9 7.3-6 1.8.2c-.4 1.4.1 3 1.3 3.9 1.2.9 2.7 1.4 4.2 1.4 1.7.1 3.3.6 4.8 1.3.6.4 1.2.8 1.8 1.3 2.4 1.9 7.1 4.6 10.5 4.6 3.1 0 6-2.6 8.5-4.4.7-.5 1.4-1 2.1-1.4 1.3-.4 2.7-.7 4.1-.9 2-.3 3.5-.6 5.1-1.9.7-.5 1.1-1.2 1.3-2l3.7 1.9 6.6-.5 2.6 5.1 7-2.7 3.4-9.4 2.6-1.5-1.3 3.7 1 3.9-2 5.7 8.4.4 4.5 4.8 2.8 1.2 1.7.7c-.1 1.5-.1 2.9.1 4.4.3 3.5-.1 7.3-1.3 10.8z" class="st0"/><path d="M646 126.3c2.2 7.9-.3 17.1-7.4 26.7-1.1 1.5-1.6 4.2-2.1 7.1-1 5.7-2.3 12.8-9 15.2-6.4 2.3-12 .7-17-.6-5.1-2-10.7-2-15.8 0-3.3 1.1-6.8 1.7-10.3 1.8-2.3 0-4.6-.4-6.8-1.2-6.7-2.4-8-9.5-9.1-15.2-.5-2.9-1-5.6-2.1-7.1-7.1-9.6-9.6-18.8-7.4-26.7-2.4.8-4.7 1.7-7 2.8.6-.4 10.1-7.4 19.9-6.9 3.5.2 6.9 1.5 10.2 2.7 6.2 2.4 12.1 4.6 19.5 0v-1.8c0-.9.3-1.7.9-2.4l.1-.2.1.2c.6.7.9 1.6.9 2.4v1.8c7.4 4.6 13.3 2.3 19.5 0 3.3-1.3 6.6-2.5 10.2-2.7 9.8-.4 19.3 6.5 19.9 6.9-2.4-1-4.8-2-7.2-2.8z" class="st3"/><path d="M634.1 136.2c-.7 4.5-3.4 8.5-7.3 10.8 0 0 .9-9.4 0-11.5-.4-.9-1.2-2.1-1.8-3.5-1.3 5.6-4.3 7.3-4.3 7.3s-2.6-.9-3.9-6c-1 5.1-3.5 6-3.5 6s-1.9-.7-3.1-4.5c-1.3 5-3.9 5.9-3.9 5.9s-2.3-.9-3.7-5.4c-1.3 4.4-3.5 5.2-3.5 5.2s-2.4-.8-3.7-5.6c-1.2 3.7-3.1 4.4-3.1 4.4s-2.5-.9-3.5-6c-1.3 5.1-3.9 6-3.9 6s-2.9-1.8-4.3-7.4c-.7 1.4-1.5 2.7-1.9 3.6-.9 2.1 0 11.5 0 11.5-3.9-2.4-6.6-6.3-7.4-10.8-.7-4.1 0-8.3 2.2-11.8 2.2.4 4.4 1 6.4 1.9l1.4.5.3.1c2.2.9 4.5 1.6 6.8 2.2l1 .2c1.1.2 2.3.3 3.4.3.6 0 1.2 0 1.8-.1s1.1-.1 1.7-.2c1.9-.4 3.7-1.1 5.3-2 .3-.2.6-.3.9-.5.4.2.7.4 1.1.6 1.8 1 3.7 1.6 5.6 2 .5.1 1.1.2 1.7.2h1.3c1.3 0 2.6-.1 3.9-.4.4-.1.7-.1 1.1-.2 2.2-.6 4.4-1.3 6.6-2.2l.3-.1 1.6-.6c2.1-.8 4.2-1.4 6.4-1.8 2 3.6 2.8 7.8 2 11.9zm-3 33.9c-1.1 1.6-2.6 2.8-4.4 3.4-1.1.4-2.2.7-3.4.9-.4.1-.7.1-1.1.1-2.5.2-4.9 0-7.3-.6h-.2c-1.3-.3-2.5-.6-3.8-1l-.9-.2-1.6-.4c-1.6-.4-3.2-.7-4.8-.9h-1.9c-1.6.1-3.2.3-4.8.8-.5.1-1 .3-1.6.4l-1.4.4-3.3.9-.9.2c-2.2.5-4.4.7-6.7.6-.4 0-.7 0-1.1-.1-1.3-.2-2.6-.5-3.9-.9-1.5-.5-2.8-1.4-3.8-2.6-.5-2.3-.5-4.6-.1-6.8 1.3-7.8 6.7-10.8 6.7-10.8s-.8 9.4 0 11.5c.4.9 1.1 2.2 1.7 3.6 1.2-5.5 3.9-7.4 3.9-7.4s2.4.9 3.6 6c.9-5.2 3.2-6 3.2-6s1.7.7 2.8 4.4c1.2-4.8 3.4-5.6 3.4-5.6s1.9.8 3.2 5c1.2-4.2 3.1-5 3.1-5s2.2.8 3.4 5.6c1.1-3.7 2.8-4.4 2.8-4.4s2.3.9 3.2 6c1.2-5.1 3.6-6 3.6-6s2.7 1.8 3.9 7.4c.6-1.4 1.3-2.7 1.7-3.6.8-2.1 0-11.5 0-11.5s5.4 3 6.7 10.8c.5 1.7.5 3.8.1 5.8z" class="st0"/><path d="M647.1 172.5l-7.3 1.8.3 2.9-1.2 1.5 1.3 6.5-1.4-3.3-.8-2.4-1.4 1-2.8.7 2.7-1.6 2-2.3-.6-3.2-2.2-2-10.3 3-7.4-4.2-4.8 2.4-7.2-.7-9.5 4.8-4.7-.9-4.7 2-6 5.2V177l-3.9-4.7-7.6 1-7.6-2.2-4.2-3.5c.6 15.3 7.4 34.9 17 40 7.2 3.9 14.7 7.9 40.4 7.4l2.8-2.3-2.1-.3-2.1-2.8-1.7-2.3-1.1-2-1.1-4.9 1.8 3.7 1.6 2.1 1.7 1.8 1.9 2.5 3.4.4 5.7.5c10.8-3.4 23.2-21.8 23.8-41.3l-2.7 2.4zm-27.5 30.8c-1.5 0-2.7-1.2-2.7-2.7s1.2-2.7 2.7-2.7c1.5 0 2.7 1.2 2.7 2.7 0 1.5-1.2 2.7-2.7 2.7.1 0 0 0 0 0zm27.8-178c-15.9-9.1-35.3-13.8-52.1-12.4l-2.7 4.6-2 3.4 2.8 2.8 1.4 3.1-2.2-2.9-2.7-1.8-1.7 2.3-3.3 2.3 2.8-3.6 3.3-6.6-4.2-2.3c-2.5.8-16.3 5-23.8 8.1-7.8 3.2-30.3 19-30.6 47.8 0 6.1.4 12.1 1.2 18.2.2 1.9.5 3.8.7 5.6.2 1.2.3 2.5.5 3.7 1.5 11.5 3 20.3 3.7 23.7l3.8-3.2 4.3-3.7 7.5 2.2 7.3-8.1c.2-1 .6-3.6 1-5.6l-2.8-3.2.8-5.1-3.3-6.2c-5.1-2.3-10.8-6.1-11.2-10.3-.6-5.6 1.6-11.2 5.9-14.9-3.3.3-6.5.8-9.7 1.5 9.2-4.2 19.6-5 29.3-2.2 5.5 1.6 10.8 3.9 15.7 6.7 3.3 1.7 5.8 3.1 7.1 2.8 2.4-.6 3.2-6.6 3.2-6.6.4 2.4.6 7.7-2.7 8.5-.3.1-.6.1-.8.1-.7 0-1.4-.1-2-.4.1 2.7-.3 9.8-5.4 13.5-4.3 3.1-10.9 4.2-16.5 4.2-.8 0-1.5 0-2.3-.1l-5.4 3.8-.7 4.1 2.8 3.2-.1.5c-.5 3.1-.8 4.7-1 5.6l6.8.8 7.3-6 3.5.4 7.6-8 6.3 1.6 8.1-6.5 4.8 3.1 7.5 1 4.5 8.3 7.9 4 7.3-.6 2.4 4.7 4.6-1.8 3.3-9.3 5.2-3 1.3-4.2 3.9-1.9 4.9-2.3-4.9 3.7-2.3 1.8-.5 1.5-2.9 8 1 3.9-1.4 3.9 6.6.3 4.8 5.1 2.2 1 3.8 1.6c.7-4.1 3-18.3 4.3-30.2.6-4.6.9-9.2 1-13.8-.4-9.4-2.5-18.6-6.3-27.1-4.4-10.3-11.5-19.1-18.5-23.1z" class="st0"/><circle cx="589.3" cy="187.7" r="2.7" class="st3"/><circle cx="603.8" cy="46" r="2.7" class="st3"/><circle cx="624.4" cy="40.7" r="2.7" class="st3"/><circle cx="641.9" cy="35.3" r="2.7" class="st3"/><circle cx="583.2" cy="40.7" r="2.7" class="st3"/><circle cx="565.7" cy="35.3" r="2.7" class="st3"/><circle cx="589.3" cy="200.6" r="2.7" class="st3"/><circle cx="619.6" cy="200.6" r="2.7" class="st3"/><circle cx="619.6" cy="187.7" r="2.7" class="st3"/><path d="M635.8 62.5c-5.5 1.6-10.8 3.9-15.7 6.7-3.3 1.7-5.8 3.1-7.1 2.8-2.4-.6-3.2-6.7-3.2-6.7-.4 2.4-.6 7.7 2.7 8.5.3.1.6.1.8.1.7 0 1.4-.1 2-.4-.1 2.7.3 9.8 5.4 13.5 4.3 3.1 10.9 4.2 16.5 4.2 2.2 0 4.5-.2 6.6-.6 4.5-1 16.8-6.4 17.5-12.5.6-5.6-1.6-11.2-5.9-14.9 3.3.3 6.5.8 9.7 1.5.1 0-12.5-6.8-29.3-2.2zm23.7 15.4c-.5 4.5-10.7 9.7-16 10.9-5.5 1.2-16 .7-21.6-3.3-5-3.6-4.6-11.6-4.6-12.7 1.1-.5 2.3-1.1 3.7-1.9 4.9-2.7 10-4.9 15.4-6.6 5.1-1.3 10.4-1.8 15.7-1.4 5.2 3.6 8 9.1 7.4 15z" class="st3"/><path d="M659.5 77.9c-.5 4.5-10.7 9.7-16 10.9-5.5 1.2-16 .7-21.6-3.3-5-3.6-4.6-11.6-4.6-12.7 1.1-.5 2.3-1.1 3.7-1.9 4.9-2.7 10-4.9 15.4-6.6 5.1-1.3 10.4-1.8 15.7-1.4 5.2 3.6 8 9.1 7.4 15zm-42-13.6s3.1-8.6 19.4-12c15.6-3.2 24.3 2.9 24.3 2.9-21.5-9.2-43.5 8.9-43.7 9.1zm-69.8 13.6c.3 3.2 5.8 6.9 10.8 9.1.4 1.8 3.2 6.1 3.2 6.1s4.4-2.4 5.4-3.8c5.7.4 13.6-.5 18.2-3.8 5-3.6 4.6-11.6 4.6-12.7-1.1-.5-2.3-1.1-3.7-1.9-4.9-2.7-10-4.9-15.4-6.6-5.1-1.3-10.4-1.8-15.7-1.4-5.3 3.6-8 9.1-7.4 15zm41.9-13.6s-3.1-8.6-19.4-12c-15.6-3.2-24.3 2.9-24.3 2.9 21.6-9.2 43.5 8.9 43.7 9.1zm14 9.7c-.5 0-.9-.4-.9-.9V73l.3-3.1v-.1l-.3-3.1c0-.5.3-.9.8-.9h.1c.5 0 .9.4.9.9v.1l-.3 3.1v.2l.3 3.1c0 .3-.3.7-.9.8z" class="st3"/><path d="M701.4 148.2s1.1 0 1.1-.8-4.4-6.7-5-7.1-.4-3.1-.4-3.1.1.8 1.3 0-.4-3-1.8-4.3c-1.1-1.1-2-2.4-2.8-3.8 0 0 .9-.6.8-1.3s-4.6-5.6-5.4-6.3-1.4-3.7-1.4-4.3 3.9-.6 3.9-1.3-3.8-4.8-3.3-4.8 2.2-.5 2.4-1.4-2.2-3.8-3.2-4.6 0-.7 0-1.6-2.5-3-2.5-3c.7-.1 1.2-.6 1.2-1.3 0-1.2-1.4-2.2-2.3-2.6s.2-.9-.4-1.8 1-1.4 0-2.1-1 0-1.3 0-.6-.8-.8-1.5-3.7-2.2-4.9-3.4 0-2-.8-3.1c-.5-.6-1.2-1-1.9-1.3.3-3.2.4-6 .4-8.2-.4-9.6-2.5-19.1-6.4-27.9-4.7-10.6-12-19.4-19.4-23.7C632 14.3 611.9 9.5 594.6 11h-.5l-2.3 3.9-5-2.7-.4.1c-.2 0-16.1 4.9-24.3 8.3s-31.4 19.7-31.8 49.5c0 4.5.2 8.9.6 13.3-.7.2-1.3.7-1.8 1.2-.8 1.1.3 1.9-.8 3.1s-4.6 2.7-4.8 3.4-.5 1.6-.8 1.6-.2-.7-1.3 0 .6 1.3 0 2.1.6 1.4-.4 1.8-2.4 1.3-2.4 2.6c0 .7.5 1.3 1.2 1.3 0 0-2.5 2.2-2.5 3s.9.8 0 1.6-3.3 3.7-3.2 4.6 1.9 1.4 2.4 1.4-3.3 4.1-3.3 4.8 3.9.7 3.9 1.3-.6 3.5-1.4 4.3-5.3 5.5-5.4 6.3.8 1.3.8 1.3c-.8 1.4-1.7 2.6-2.8 3.8-1.4 1.3-3 3.4-1.8 4.3s1.3 0 1.3 0 .2 2.7-.3 3.1-5 6.3-5 7.1 1.1.8 1.1.8-2.2 5-1.1 5.4 1.2 0 1.2 0 .3 7 .1 7.6-1.4 3.7-.7 4.5c.3.5.9.7 1.4.7 0 0 1.1 2.8 2.2 3.7s.7 5.3 2.2 5.3.9-.8.8-.9c.5.4 7.6 6.4 11.6 7s3.9-.6 4 0 3.2 1.9 5 1.8c1.2-.2 2.3-.8 3.2-1.6 0 0 4.4 1.8 4.7 1.2.2-.5.2-1 0-1.4 0 0 1.2-.1 1.5-.6 0 0 2.5 1.7 4.5.5s1.7-2.8 1.5-3.1c1-.6 1.3-1.9.7-2.9-.1-.2-.3-.5-.6-.6 3.2.2 3.7-.9 3.7-1.5s-.6-1.4-.4-2c.4 1.1.6 2.3 1.3 1.8s1-2 .2-5.6c1.4-2.2 1.8-8.3 1.9-11.3 1.8 2.6 3.2 5.4 4.2 8.4l-1-.8v2c0 20.4 9.3 39.1 18 43.8 8.2 4.5 18.4 7.6 36.7 7.6 1.6 0 3.2 0 5-.1h.3l4.6-3.9 5.7.5h.2c14.5-4.3 25.5-27.8 25.3-45.1v-1.9l-2.4 1.8c.4-3.5 1.4-6.9 3-10 .2 2.6.6 7 1.9 9-.8 3.6-.5 5.1.2 5.6s.9-.7 1.3-1.8c.2.6-.3 1.4-.4 2s.5 1.7 3.7 1.5c-.9.7-1.2 2-.5 2.9.2.2.4.5.7.6-.2.3-.5 2 1.5 3.1s4.5-.5 4.5-.5c.4.5 1.5.6 1.5.6-.2.4-.2 1 0 1.4.3.6 4.7-1.2 4.7-1.2.8.9 2 1.5 3.2 1.6 1.8.1 4.8-1.2 5-1.8s-.1.6 4 0 11.1-6.6 11.6-7c-.1.1-.6.9.8.9s1.2-4.5 2.2-5.3.7-2.8.7-2.8c.6 0 1.1-.3 1.4-.7.7-.8-.5-3.9-.7-4.5s1.7-8.4 1.7-8.4 0 .5 1.2 0-.9-5.5-.9-5.5zm-51.6 22.2c-.6 19.5-12.9 38-23.8 41.3l-5.7-.5-3.4-.5-1.9-2.5-1.7-1.8-1.6-2.1-1.9-3.7 1.1 4.9 1.1 2 1.7 2.3 2.1 2.8 2.1.3-2.8 2.3c-23 .5-33.2-3.5-40.4-7.4-9.6-5.2-16.4-24.7-17-40l4.2 3.5 7.6 2.2 7.6-1 3.9 4.7v6.6l5.9-5.2 4.7-2 4.7.9 9.5-4.7 7.2.7 4.8-2.4 7.4 4.1 10.3-3 2.2 2 .6 3.2-2 2.3-2.6 1.7 2.8-.7 1.4-1 .8 2.4 1.4 3.3-1.3-6.5 1.2-1.5-.3-2.9 7.3-1.8 2.8-2.3zm13.6-34.8c-.8 2.3-2.9 5.5-5.3 9.2-1.5 2.4-3.2 4.9-4.7 7.6-3.4 5.8-6.2 12-5.9 17.4l-1.2.9-7.2 1.8-2.9-2.7-10.6 3-7.6-4.2-5.2 2.6-7.2-.7-9.4 4.7-4.6-.9-5.4 2.3-3.2 2.7v-3.1l-5-6-8.2 1.1-6.9-1.9-3.7-3.1c-.4-4.2-3.7-9.6-7.3-14.9-1.1-1.6-2.2-3.1-3.2-4.6-3.1-4.4-6-8.5-7.1-11.2-1.2-3.1-1.5-6.4-.9-9.7.2-1.4.3-2.8.2-4.2l1.9-1.7 4.2-3.6 7.7 2.2 7.7-8.5 8.4.9 7.3-6 1.8.2c-.4 1.4.1 3 1.3 3.9 1.2.9 2.7 1.4 4.2 1.4 1.7.1 3.3.6 4.8 1.3.6.4 1.2.8 1.8 1.3 2.4 1.9 7.1 4.6 10.5 4.6 3.1 0 6-2.6 8.5-4.4.7-.5 1.4-1 2.1-1.4 1.3-.4 2.7-.7 4.1-.9 2-.3 3.5-.6 5.1-1.9.7-.5 1.1-1.2 1.3-2l3.7 1.9 6.6-.5 2.6 5.1 7-2.7 3.4-9.4 2.6-1.5-1.3 3.7 1 3.9-2 5.7 8.4.4 4.5 4.8 2.8 1.2 1.7.7c-.1 1.5-.1 2.9.1 4.4.3 3.5-.1 7.3-1.3 10.8zm7.9-46.5c-1.3 11.9-3.6 26.1-4.3 30.2l-3.8-1.6-2.2-1-4.8-5.1-6.6-.3 1.4-3.9-1-3.9 2.9-8 .5-1.5 2.3-1.8 4.9-3.7-4.9 2.3-3.9 1.8-1.3 4.2-5.2 3.1-3.3 9.3-4.6 1.8-2.4-4.7-7.3.6-7.9-4-4.5-8.3-7.5-1-4.8-3.2-7.7 6.2-.4.3-.4-.1-5.9-1.5-7.6 8-3.5-.4-7.3 6-6.8-.8c.2-.9.5-2.5 1-5.6l.1-.5-2.8-3.2.7-4.1 5.5-3.8c.7 0 1.5.1 2.3.1 5.5 0 12.2-1.1 16.5-4.2 5.1-3.7 5.4-10.7 5.4-13.5.6.2 1.3.3 2 .4.3 0 .6 0 .8-.1 3.3-.8 3.2-6.1 2.7-8.5 0 0-.8 6.1-3.2 6.7-1.2.3-3.8-1.1-7.1-2.8-5-2.8-10.3-5.1-15.7-6.7-9.7-2.8-20.1-2-29.3 2.2 3.2-.7 6.4-1.2 9.7-1.5-4.3 3.7-6.5 9.2-5.9 14.9.5 4.2 6.2 8 11.2 10.3l3.3 6.2-.8 5.1 2.8 3.2c-.4 2-.8 4.5-1 5.6l-7.3 8.1-7.5-2.2-4.3 3.7-3.8 3.2c-.7-3.4-2.3-12.2-3.7-23.7-.2-1.2-.3-2.4-.5-3.7-.2-1.8-.5-3.7-.7-5.6-.8-6-1.2-12.1-1.2-18.2.3-28.8 22.8-44.6 30.6-47.8 7.4-3.1 21.3-7.4 23.8-8.1l4.2 2.3-3.3 6.6-2.8 3.7 3.3-2.3 1.7-2.3 2.7 1.8 2.2 2.9-1.4-3.1-2.8-2.8 2-3.4 2.7-4.6c16.8-1.3 36.2 3.3 52.1 12.4 7 4 14.1 12.8 18.6 22.8 3.8 8.6 5.9 17.8 6.3 27.1-.3 4.8-.6 9.4-1.2 14zM558.4 87c-5-2.2-10.4-5.9-10.8-9.1-.6-5.9 2.1-11.4 7.4-14.9 5.3-.4 10.6.1 15.7 1.4 5.3 1.6 10.5 3.8 15.4 6.6 1.4.7 2.6 1.4 3.7 1.9.1 1.1.4 9.1-4.6 12.7-4.5 3.3-12.5 4.2-18.2 3.8l-5.5 3.8-3.1-6.2z" class="st3"/><path d="M611 103.5c1.6-.6-2-7.4-3-6.9s-.4 8.1 3 6.9zm-15.7-4.6c-.2 2.3-1.1 5.4-3.4 4.6-1-.4 0-3 1.1-4.9l2.1.5.2-.2z" class="st0"/><path d="M612.8 171.3c-.1.6-.4 1.3-.7 1.8v.1c-.2.5-.6 1.2-.9 1.8-1 1.8-2.3 4-3.6 6-1.6 2.5-2.8 8.9-2.6 14.9.1 3 1.3 7 1.5 9.2s-.3 4.6-4 4.6c-2.9 0-4.4-3-4.4-5.3 0-2.5 3.1-5.7 2.4-9.5-.2-1-1.2-5.8-1.2-7s-2-4.5-3.3-5.4-3.7 0-5.5.4-4.6-.1-5.8.5-3.5 3.8-3.1 5.8c.3 3 .4 5.9.4 8.9 0 1.6-1.4 4.3-1.5 7.1-.1 2.5 1.7 4.4 2.6 6.4.2.3.3.7.4 1 .1.4.1.8.1 1.1-.2 2-1.8 4.2-2 7.2-.1 3.6 5.5 17-2.2 17s-1.8-14.3-1.3-16.2c.4-1.3-1.3-6.4-2.7-11.3-.3-.9-.5-1.7-.8-2.5-.3-1.2-.6-2.4-.9-3.4-1-3.7-.7-7.6.8-11.1.5-.9-.1-5.2-.1-6.4s1.3-5.6.6-7.9c-.5-1.9-2.8-3.4-4.5-5.8-.4-.6-.7-1.2-1-1.8l2.2-.3 2.4-.3 3.7-.5.9 1 2.5 3c.2 0 .4.1.7.1l1.1.1c2.3.1 4.5-.1 6.7-.6l.9-.2 3.3-.9 1.4-.4 1.6-.4c1.6-.4 3.2-.7 4.8-.8h2.3l.1-.1 1.5-.7 7.2.8z" class="st3"/><path d="M632.9 413.7c-.7 1.6-1.6 3.2-2.7 4.6-.8 1.2-1.6 2.5-2.4 3.8-1.7 2.9-3.1 6-3 8.7l-.6.5-3.6.9-1.4-1.3-5.3 1.5-3.8-2.1-2.6 1.3-3.6-.3-4.7 2.3-2.3-.4-2.7 1.2-1.5 1.3v-1.6l-2.5-3-4.1.5-3.4-1-1.9-1.5c-.2-2.1-1.8-4.8-3.7-7.5-.5-.8-1.1-1.6-1.6-2.3-1.4-1.7-2.6-3.6-3.5-5.6-.6-1.5-.8-3.2-.5-4.8.1-.7.2-1.4.1-2.1l1-.8 2.1-1.8 3.8 1.1 3.9-4.3 4.2.5 3.6-3 .9.1c-.2.7.1 1.5.7 2 .6.4 1.3.7 2.1.7.8.1 1.7.3 2.4.7.3.2.6.4.9.7 1.2.9 3.6 2.3 5.2 2.3s3-1.3 4.2-2.2c.3-.3.7-.5 1.1-.7.7-.2 1.3-.3 2-.5.9-.1 1.8-.4 2.5-.9.3-.2.6-.6.7-1l1.8.9 3.3-.3 1.3 2.5 3.5-1.3 1.7-4.7 1.3-.8-.7 1.8.5 2-1 2.9 4.2.2 2.3 2.4 1.4.6.9.4v2.2c.4 1.6.2 3.4-.5 5.2z" class="st0"/><path d="M624.2 409.1c1.1 3.9-.2 8.5-3.7 13.3-.6 1.1-.9 2.3-1.1 3.6-.5 2.8-1.2 6.4-4.5 7.6-3.2 1.1-6 .4-8.5-.3-2.5-1-5.4-1-7.9 0-1.7.5-3.4.8-5.1.9-1.2 0-2.3-.2-3.4-.6-3.4-1.2-4-4.8-4.5-7.6-.1-1.3-.5-2.5-1.1-3.6-3.5-4.8-4.8-9.4-3.7-13.3-1.2.4-2.4.9-3.5 1.4.3-.2 5-3.7 10-3.5 1.8.2 3.5.6 5.1 1.4 3.1 1.2 6 2.3 9.8 0v-.9c0-.4.2-.9.4-1.2l.1-.1.1.1c.3.3.4.8.4 1.2v.9c3.7 2.3 6.7 1.2 9.8 0 1.6-.7 3.3-1.2 5.1-1.4 4.9-.2 9.7 3.3 10 3.5-1.4-.6-2.5-1-3.8-1.4z" class="st3"/><path d="M618.3 414c-.4 2.3-1.7 4.2-3.7 5.4 0 0 .5-4.7 0-5.7-.2-.4-.6-1.1-.9-1.8-.7 2.8-2.2 3.6-2.2 3.6s-1.3-.5-2-3c-.5 2.6-1.8 3-1.8 3s-.9-.4-1.5-2.2c-.7 2.5-1.9 2.9-1.9 2.9s-1.1-.4-1.8-2.7c-.7 2.2-1.8 2.6-1.8 2.6s-1.2-.4-1.9-2.8c-.6 1.8-1.5 2.2-1.5 2.2s-1.2-.4-1.8-3c-.6 2.5-2 3-2 3-1.1-.9-1.9-2.2-2.1-3.7-.3.7-.7 1.4-.9 1.8-.5 1 0 5.7 0 5.7-2-1.2-3.3-3.2-3.7-5.4-.4-2 0-4.1 1.1-5.9 1.1.2 2.2.5 3.2.9l.7.3h.1c1.1.4 2.2.8 3.4 1.1l.5.1c.6.1 1.1.2 1.7.2h.9c.3 0 .5-.1.8-.1.9-.2 1.8-.5 2.7-1l.5-.3.5.3c.9.5 1.8.8 2.8 1 .3.1.5.1.8.1h.7c.7 0 1.3-.1 2-.2l.5-.1c1.1-.3 2.2-.7 3.3-1.1h.1l.8-.3c1-.4 2.1-.7 3.2-.9 1.1 1.9 1.5 4 1.2 6zm-1.5 17c-.5.8-1.3 1.4-2.2 1.7-.6.2-1.1.3-1.7.4l-.6.1c-1.2.1-2.5 0-3.7-.3h-.1c-.6-.2-1.3-.3-1.9-.5l-.5-.1-.8-.2c-.8-.2-1.6-.4-2.4-.4h-.9c-.8 0-1.6.2-2.4.4l-.8.2-.7.2c-.5.2-1.1.3-1.6.4l-.4.1c-1.1.3-2.2.4-3.3.3h-.6c-.7-.1-1.3-.2-1.9-.5-.7-.3-1.4-.7-1.9-1.3-.2-1.1-.3-2.3-.1-3.4.3-2.2 1.5-4.2 3.4-5.4 0 0-.4 4.7 0 5.7.2.5.5 1.1.9 1.8.2-1.4.9-2.7 1.9-3.7 0 0 1.2.5 1.8 3 .5-2.6 1.6-3 1.6-3s.8.4 1.4 2.2c.6-2.4 1.7-2.8 1.7-2.8s1 .4 1.6 2.5c.6-2.1 1.6-2.5 1.6-2.5s1.1.4 1.7 2.8c.5-1.8 1.4-2.2 1.4-2.2s1.1.4 1.6 3c.6-2.6 1.8-3 1.8-3 1.1 1 1.7 2.3 1.9 3.7.3-.7.7-1.4.8-1.8.4-1 0-5.7 0-5.7 1.8 1.2 3.1 3.2 3.4 5.4.1.9.1 1.9 0 2.9z" class="st0"/><path d="M624.8 432.2l-3.7.9.2 1.4-.6.8.6 3.3-.7-1.6-.4-1.2-.7.5-1.4.3 1.3-.8 1-1.2-.3-1.6-1.1-1-5.2 1.5-3.7-2.1-2.4 1.2-3.6-.3-4.8 2.4-2.3-.4-2.4 1-3 2.6v-3.3l-1.9-2.3-3.8.5-3.8-1.1-2-1.7c.3 7.7 3.7 17.5 8.5 20 3.6 1.9 7.3 4 20.2 3.7l1.4-1.2-1-.1-1-1.4-.8-1.1-.6-1-.6-2.4.9 1.8.8 1 .9.9 1 1.3 1.7.2 2.8.3c5.4-1.7 11.6-10.9 11.9-20.7l-1.4.9zm-13.7 15.4c-.7 0-1.3-.6-1.3-1.3s.6-1.3 1.3-1.3 1.3.6 1.3 1.3c0 .7-.6 1.3-1.3 1.3zm13.8-89c-7.9-4.6-17-6.7-26.1-6.2l-1.3 2.3-1 1.7 1.4 1.4.7 1.6-1.1-1.4-1.3-.9-.8 1.2-1.7 1.1 1.4-1.8 1.6-3.3-2.1-1.1c-1.2.4-8.2 2.5-11.9 4.1-3.9 1.6-15.1 9.5-15.3 23.9 0 3 .2 6.1.6 9.1.1 1 .2 1.9.3 2.8l.2 1.8c.7 5.8 1.5 10.1 1.9 11.8l1.9-1.6 2.2-1.9 3.8 1.1 3.7-4.1c.1-.5.3-1.8.5-2.8l-1.4-1.5.4-2.5-1.6-3.1c-2.5-1.2-5.4-3.1-5.6-5.2-.3-2.8.8-5.6 3-7.4-1.6.2-3.2.4-4.8.7 4.6-2.1 9.8-2.5 14.7-1.1 2.7.8 5.4 1.9 7.9 3.4 1.6.9 2.9 1.5 3.5 1.4 1.2-.3 1.6-3.3 1.6-3.3.2 1.2.3 3.8-1.4 4.2h-.4c-.3 0-.7-.1-1-.2 0 1.4-.2 4.9-2.7 6.7-2.2 1.5-5.5 2.1-8.2 2.1h-1.1l-2.7 1.9-.3 2.1 1.4 1.6v.2c-.3 1.5-.4 2.4-.5 2.8l3.4.4 3.6-3 1.7.2 3.8-4 3.2.8 4-3.2 2.4 1.6 3.7.5 2.2 4.2 4 2 3.7-.3 1.2 2.3 2.3-.9 1.7-4.6 2.6-1.5.7-2.1 2-.9 2.4-1.2-2.4 1.8-1.5.7-.2.7-1.4 4 .5 2-.7 1.9 3.3.2 2.4 2.5 1.1.5 1.9.8c.3-2.1 1.5-9.1 2.1-15.1.3-2.3.5-4.6.5-6.9-.2-4.7-1.3-9.3-3.2-13.6-2.3-5-5.9-9.4-9.4-11.4z" class="st0"/><circle cx="595.9" cy="439.8" r="1.3" class="st3"/><circle cx="603.1" cy="368.9" r="1.3" class="st3"/><circle cx="613.4" cy="366.2" r="1.3" class="st3"/><circle cx="622.2" cy="363.6" r="1.3" class="st3"/><circle cx="592.9" cy="366.2" r="1.3" class="st3"/><circle cx="584.1" cy="363.6" r="1.3" class="st3"/><circle cx="595.9" cy="446.2" r="1.3" class="st3"/><circle cx="611.1" cy="446.2" r="1.3" class="st3"/><circle cx="611.1" cy="439.8" r="1.3" class="st3"/><path d="M619.2 377.2c-2.7.8-5.4 1.9-7.9 3.4-1.6.9-2.9 1.5-3.5 1.4-1.2-.3-1.6-3.3-1.6-3.3-.2 1.2-.3 3.8 1.4 4.2h.4c.3 0 .7-.1 1-.2 0 1.4.2 4.9 2.7 6.7 2.2 1.5 5.5 2.1 8.2 2.1 1.1 0 2.2-.1 3.3-.3 2.3-.5 8.4-3.2 8.7-6.3.3-2.8-.8-5.6-3-7.4 1.6.2 3.3.4 4.9.8-4.6-2.2-9.8-2.5-14.6-1.1zm11.8 7.7c-.2 2.2-5.3 4.9-8 5.5s-8 .4-10.8-1.6c-2.5-1.8-2.3-5.8-2.3-6.4.5-.2 1.1-.6 1.8-.9 2.4-1.4 5-2.5 7.7-3.3 2.6-.6 5.2-.9 7.8-.7 2.6 1.5 4 4.4 3.8 7.4z" class="st3"/><path d="M631 384.9c-.2 2.2-5.3 4.9-8 5.5s-8 .4-10.8-1.6c-2.5-1.8-2.3-5.8-2.3-6.4.5-.2 1.1-.6 1.8-.9 2.4-1.4 5-2.5 7.7-3.3 2.6-.6 5.2-.9 7.8-.7 2.6 1.5 4 4.4 3.8 7.4zm-21-6.8s1.5-4.3 9.7-6c7.8-1.6 12.2 1.4 12.2 1.4-10.8-4.6-21.8 4.5-21.9 4.6zm-34.9 6.8c.2 1.6 2.9 3.4 5.4 4.5.4 1.1 1 2.1 1.6 3 1-.5 1.9-1.2 2.7-1.9 2.9.2 6.8-.2 9.1-1.9 2.5-1.8 2.3-5.8 2.3-6.4-.5-.2-1.1-.6-1.8-.9-2.4-1.4-5-2.5-7.7-3.3-2.6-.6-5.2-.9-7.8-.7-2.7 1.7-4.1 4.6-3.8 7.6zm21-6.8s-1.5-4.3-9.7-6c-7.8-1.6-12.2 1.4-12.2 1.4 10.8-4.6 21.7 4.5 21.9 4.6zm6.9 4.8c-.2 0-.4-.2-.4-.4l.1-1.6v-.1l-.1-1.6c0-.2.2-.4.4-.5.2 0 .4.2.4.4l-.2 1.5v.1l.2 1.5c.1.5-.1.7-.4.7.1 0 .1 0 0 0z" class="st3"/><path d="M651.9 420s.5 0 .5-.4c-.7-1.3-1.5-2.5-2.5-3.5-.3-.2-.2-1.5-.2-1.5s.1.4.7 0-.2-1.5-.9-2.1c-.6-.6-1-1.2-1.4-1.9 0 0 .5-.3.4-.7-.8-1.1-1.7-2.2-2.7-3.1-.4-.6-.7-1.4-.7-2.1 0-.3 2-.3 2-.7s-1.9-2.4-1.7-2.4 1.1-.2 1.2-.7-1.1-1.9-1.6-2.3 0-.4 0-.8-1.2-1.5-1.2-1.5c.3 0 .6-.3.6-.7 0-.6-.7-1.1-1.2-1.3s.1-.5-.2-.9.5-.7 0-1.1-.5 0-.7 0-.3-.4-.4-.8-1.8-1.1-2.4-1.7 0-1-.4-1.5c-.3-.3-.6-.5-1-.6.1-1.6.2-3 .2-4.1-.2-4.8-1.3-9.6-3.2-14-2.4-5.3-6-9.7-9.7-11.9-8.2-4.7-18.2-7.1-26.9-6.3h-.2l-1.1 1.9-2.5-1.3-.2.1c-.1 0-8 2.5-12.2 4.2s-15.7 9.8-15.9 24.8c0 2.2.1 4.4.3 6.7-.3.1-.7.3-.9.6-.4.5.2.9-.4 1.5s-2.3 1.4-2.4 1.7-.2.8-.4.8-.1-.4-.7 0 .3.7 0 1.1.3.7-.2.9-1.2.7-1.2 1.3c0 .3.2.6.6.7 0 0-1.2 1.1-1.2 1.5s.5.4 0 .8-1.7 1.8-1.6 2.3 1 .7 1.2.7-1.7 2-1.7 2.4 2 .4 2 .7c-.1.8-.3 1.5-.7 2.1-1 1-1.9 2-2.7 3.1-.1.3.4.7.4.7-.4.7-.9 1.3-1.4 1.9-.7.7-1.5 1.7-.9 2.1s.7 0 .7 0 .1 1.4-.2 1.5c-1 1.1-1.8 2.3-2.5 3.5 0 .4.5.4.5.4s-1.1 2.5-.5 2.7.6 0 .6 0 .2 3.5.1 3.8-.7 1.8-.4 2.2c.2.2.4.4.7.3.3.7.6 1.3 1.1 1.8.5.4.4 2.7 1.1 2.7s.5-.4.4-.5c.2.2 3.8 3.2 5.8 3.5s2-.3 2 0c.7.6 1.6.9 2.5.9.6-.1 1.2-.4 1.6-.8 0 0 2.2.9 2.4.6.1-.2.1-.5 0-.7 0 0 .6-.1.8-.3.7.5 1.5.6 2.3.3 1-.6.8-1.4.8-1.6.5-.2.7-.8.4-1.3-.1-.2-.2-.3-.4-.4 1.6.1 1.8-.5 1.8-.7s-.3-.7-.2-1c.2.6.3 1.1.6.9s.5-1 .1-2.8c.7-1.1.9-4.2 1-5.7.9 1.3 1.6 2.7 2.1 4.2l-.5-.4v1c0 10.2 4.7 19.5 9 21.9 4.1 2.2 9.2 3.8 18.3 3.8h2.7l2.3-2 2.8.3h.1c7.2-2.1 12.8-13.9 12.7-22.6v-.9l-1.2.9c.2-1.7.7-3.4 1.5-5 0 1.5.4 3.1 1 4.5-.4 1.8-.2 2.6.1 2.8s.5-.3.6-.9c.1.3-.2.7-.2 1s.2.8 1.8.7c-.5.3-.6.9-.3 1.4.1.2.2.3.4.4-.1.2-.3 1 .8 1.6.7.3 1.6.2 2.2-.3.2.2.8.3.8.3-.1.2-.1.5 0 .7.2.3 2.4-.6 2.4-.6.4.4 1 .7 1.6.8.9 0 1.8-.3 2.5-.9.1-.3-.1.3 2 0s5.6-3.3 5.8-3.5c0 .1-.3.5.4.5s.6-2.2 1.1-2.7.4-1.4.4-1.4c.3 0 .5-.1.7-.4.4-.4-.2-2-.3-2.2.2-1.4.5-2.8.8-4.2 0 0 0 .2.6 0s-.7-2.8-.7-2.8zm-25.8 11.1c-.3 9.8-6.5 19-11.9 20.7l-2.8-.3-1.7-.2-1-1.3-.8-.9-.8-1-.9-1.8.6 2.4.6 1 .8 1.1 1 1.4 1 .1-1.4 1.2c-11.5.3-16.6-1.8-20.2-3.7-4.8-2.6-8.2-12.4-8.5-20l2.1 1.7 3.8 1.1 3.8-.5 1.9 2.3v3.3l3-2.6 2.4-1 2.3.4 4.7-2.4 3.6.4 2.4-1.2 3.7 2.1 5.2-1.5 1.1 1 .3 1.6-1 1.2-1.3.8 1.4-.3.7-.5.4 1.2.7 1.6-.6-3.3.6-.8-.2-1.4 3.7-.9 1.3-1zm6.8-17.4c-.7 1.6-1.6 3.2-2.7 4.6-.8 1.2-1.6 2.5-2.4 3.8-1.7 2.9-3.1 6-3 8.7l-.6.5-3.6.9-1.4-1.3-5.3 1.5-3.8-2.1-2.6 1.3-3.6-.3-4.7 2.3-2.3-.4-2.7 1.2-1.5 1.3v-1.6l-2.5-3-4.1.5-3.4-1-1.9-1.5c-.2-2.1-1.8-4.8-3.7-7.5-.5-.8-1.1-1.6-1.6-2.3-1.4-1.7-2.6-3.6-3.5-5.6-.6-1.5-.8-3.2-.5-4.8.1-.7.2-1.4.1-2.1l1-.8 2.1-1.8 3.8 1.1 3.9-4.3 4.2.5 3.6-3 .9.1c-.2.7.1 1.5.7 2 .6.4 1.3.7 2.1.7.8.1 1.7.3 2.4.7.3.2.6.4.9.7 1.2.9 3.6 2.3 5.2 2.3s3-1.3 4.2-2.2c.3-.3.7-.5 1.1-.7.7-.2 1.3-.3 2-.5.9-.1 1.8-.4 2.5-.9.3-.2.6-.6.7-1l1.8.9 3.3-.3 1.3 2.5 3.5-1.3 1.7-4.7 1.3-.8-.7 1.8.5 2-1 2.9 4.2.2 2.3 2.4 1.4.6.9.4v2.2c.4 1.6.2 3.4-.5 5.2zm4-23.2c-.7 6-1.8 13-2.1 15.1l-1.9-.8-1.1-.5-2.4-2.5-3.3-.2.7-1.9-.5-2 1.4-4 .2-.7 1.2-.9 2.4-1.8-2.4 1.2-2 .9-.7 2.1-2.6 1.5-1.7 4.6-2.3.9-1.2-2.3-3.7.3-4-2-2.2-4.1-3.7-.5-2.4-1.6-3.9 3.1-.2.2h-.2l-3-.8-3.8 4-1.7-.2-3.6 3-3.4-.4c.1-.4.2-1.3.5-2.8v-.4l-1.4-1.6.3-2.1 2.7-1.9h1.1c2.8 0 6.1-.6 8.2-2.1 2.5-1.8 2.7-5.4 2.7-6.7.3.1.7.2 1 .2h.4c1.7-.4 1.6-3 1.4-4.2 0 0-.4 3-1.6 3.3-.6.2-1.9-.5-3.5-1.4-2.5-1.4-5.1-2.5-7.9-3.4-4.9-1.4-10.1-1-14.7 1.1 1.6-.3 3.2-.6 4.8-.7-2.2 1.8-3.3 4.6-3 7.4.2 2.1 3.1 4 5.6 5.2l1.6 3.1-.3 2.6 1.4 1.6-.5 2.8-3.7 4.1-3.8-1.1-2.2 1.9-1.9 1.6c-.3-1.7-1.1-6.1-1.9-11.8-.1-.6-.2-1.2-.2-1.8-.1-.9-.2-1.8-.4-2.8-.4-3-.6-6.1-.6-9.1.2-14.4 11.4-22.3 15.3-23.9 3.7-1.5 10.7-3.7 11.9-4.1l2.1 1.1-1.6 3.3-1.4 1.8 1.7-1.1.8-1.2 1.3.9 1.1 1.4-.7-1.6-1.4-1.4 1-1.7 1.3-2.3c9.1-.5 18.2 1.7 26.1 6.2 3.5 2 7.1 6.4 9.3 11.4 1.9 4.3 3 8.9 3.2 13.6.4 2.3.3 4.6 0 6.9zm-56.4-1.1c-2.5-1.1-5.2-2.9-5.4-4.5-.3-3 1.2-5.9 3.7-7.5 2.6-.2 5.3 0 7.8.7 2.7.8 5.3 1.9 7.7 3.3.7.4 1.3.7 1.8.9 0 .6.2 4.6-2.3 6.4-2.3 1.6-6.2 2.1-9.1 1.9l-2.7 1.9-1.5-3.1z" class="st3"/><path d="M606.8 397.7c.8-.3-1-3.7-1.5-3.5s-.2 4.1 1.5 3.5zm-7.9-2.3c-.1 1.2-.6 2.7-1.7 2.3-.5-.2 0-1.5.5-2.5l1 .3.2-.1z" class="st0"/><path d="M607.7 431.5l-.3.9c-.1.3-.3.6-.5.9-.5.9-1.1 2-1.8 3-.8 1.3-1.4 4.5-1.3 7.4.1 1.5.7 3.5.8 4.6s-.2 2.3-2 2.3c-1.5 0-2.2-1.5-2.2-2.6s1.5-2.9 1.2-4.8c-.1-.5-.6-2.9-.6-3.5-.3-1-.8-2-1.7-2.7-.6-.5-1.8 0-2.8.2s-2.3-.1-2.9.2-1.7 1.9-1.5 2.9c.2 1.5.2 3 .2 4.5 0 .8-.7 2.1-.8 3.6 0 1.2.9 2.2 1.3 3.2.1.2.1.3.2.5v.6c-.1 1-.9 2.1-1 3.6-.1 1.8 2.8 8.5-1.1 8.5s-.9-7.2-.6-8.1c.2-.7-.6-3.2-1.4-5.6l-.4-1.2c-.2-.6-.3-1.2-.4-1.7-.5-1.8-.3-3.8.4-5.6.3-.5-.1-2.6-.1-3.2s.6-2.8.3-4c-.3-.9-1.4-1.7-2.2-2.9-.2-.3-.4-.6-.5-.9l1.1-.1 1.2-.2 1.8-.2.4.5 1.2 1.5h.9c1.1 0 2.3-.1 3.3-.3l.4-.1 1.6-.4.7-.2.8-.2c.8-.2 1.6-.3 2.4-.4h1.2l.7-.4 4 .4z" class="st3"/></g></svg>