<?xml version="1.0" encoding="utf-8"?>
<!-- Generator: Adobe Illustrator 21.1.0, SVG Export Plug-In . SVG Version: 6.00 Build 0)  -->
<svg version="1.1" id="Layer_1" xmlns="http://www.w3.org/2000/svg" xmlns:xlink="http://www.w3.org/1999/xlink" x="0px" y="0px"
	 viewBox="0 0 725 487" style="enable-background:new 0 0 725 487;" xml:space="preserve">
<style type="text/css">
	.st0{fill:#FFFFFF;}
	.st1{fill:#643510;}
	.st2{fill:#B21E28;}
	.st3{fill:#2E2A25;}
</style>
<title>Cujo</title>
<g>
	<g id="Layer_1_1_">
		
			<image style="overflow:visible;opacity:0.25;enable-background:new    ;" width="726" height="488" xlink:href="41EBF3FE6A111F54.png"  transform="matrix(0.9986 0 0 0.998 0 0)">
		</image>
		<path class="st0" d="M333.1,260.4c-1.7,4.6-5.8,11-10.6,18.5c-3.1,4.8-6.4,9.9-9.4,15.2c-6.8,11.6-12.4,24-11.8,34.8l-2.5,1.9
			l-14.3,3.6l-5.7-5.4l-21.2,6.1l-15.2-8.5l-10.3,5.2l-14.5-1.4l-18.8,9.4l-9.2-1.7l-10.8,4.7l-6.3,5.4v-6.3l-9.9-12l-16.6,2.1
			l-13.7-3.9l-7.4-6.2c-0.8-8.4-7.4-19.2-14.7-29.8c-2.1-3.1-4.4-6.2-6.5-9.2c-6.2-8.7-12.1-16.9-14.1-22.4
			c-3.2-8.7-2.5-14.1-1.9-19.3c0.5-2.8,0.6-5.6,0.4-8.4l3.8-3.3l8.4-7.2l15.3,4.4l15.4-17.1l16.7,1.8l14.5-12.1l3.7,0.5
			c-0.8,2.9,0.2,6,2.7,7.8c2.6,2.1,5.4,2.5,8.3,2.8c3.3,0.3,6.6,1.2,9.6,2.6c1.3,0.8,2.5,1.6,3.6,2.6c4.9,3.7,14.3,9.2,20.9,9.2
			c6.3,0,11.9-5.2,17-8.9c1.4-1,2.8-2,4.3-2.8c2.7-0.8,5.4-1.4,8.1-1.8c3.9-0.7,7-1.2,10.1-3.8c1.3-1,2.3-2.5,2.7-4.1l7.4,3.7
			l13.2-1.1l5.2,10.2l13.8-5.4l6.8-18.9l5.3-3.1l-2.6,7.3l2,7.8l-4.1,11.5l16.8,0.8l9.1,9.7l5.7,2.4l3.4,1.4
			c-0.2,2.9-0.1,5.8,0.2,8.7C335.9,244.6,336.4,251.5,333.1,260.4z"/>
		<path class="st1" d="M298.4,241.9c4.4,15.8-0.6,34.1-14.8,53.4c-2.2,3-3.2,8.5-4.3,14.3c-2.1,11.4-4.7,25.6-18.1,30.4
			c-12.7,4.6-24.1,1.5-34.1-1.3c-5.6-1.5-10.9-3-15.8-3s-10.2,1.5-15.8,3c-6.3,1.7-13.2,3.6-20.6,3.6c-4.6,0-9.2-0.8-13.5-2.3
			c-13.5-4.8-16-19-18.1-30.4c-1-5.8-2-11.3-4.3-14.3c-14.2-19.3-19.3-37.6-14.8-53.4c-4.8,1.5-9.5,3.4-14.1,5.7
			c1.1-0.8,20.2-14.7,39.8-13.9c7,0.3,13.8,2.9,20.3,5.4c12.4,4.8,24.2,9.3,39,0.1v-3.7c0-1.8,0.6-3.5,1.7-4.9l0.3-0.3l0.3,0.3
			c1.1,1.4,1.7,3.1,1.7,4.9v3.7c14.8,9.2,26.6,4.7,39-0.1c6.5-2.5,13.3-5.1,20.3-5.4c19.6-0.9,38.7,13,39.8,13.9
			C307.8,245.4,303.2,243.5,298.4,241.9z"/>
		<path class="st0" d="M274.6,261.7c-1.5,9-6.9,17-14.8,21.7c0,0,1.8-18.8,0-22.9c-0.8-1.8-2.4-4.3-3.7-7.1
			c-2.7,11.1-8.6,14.5-8.6,14.5s-5.3-1.8-7.8-12c-2.1,10.3-7.1,12-7.1,12s-3.8-1.5-6.1-8.9c-2.6,10-7.8,11.8-7.8,11.8
			s-4.6-1.8-7.3-10.9c-2.7,8.7-7,10.4-7,10.4s-4.9-1.6-7.4-11.2c-2.4,7.4-6.1,8.8-6.1,8.8s-5-1.7-7.1-12c-2.6,10.2-7.8,12-7.8,12
			s-5.8-3.7-8.5-14.7c-1.3,2.9-3,5.4-3.7,7.2c-1.8,4.1,0,22.9,0,22.9c-7.9-4.7-13.3-12.6-14.8-21.7c-1.5-8.1,0-16.5,4.3-23.6
			c4.4,0.8,8.7,2.1,12.8,3.8c0.9,0.3,1.9,0.7,2.8,1l0.5,0.2c4.4,1.8,8.9,3.3,13.5,4.4c0.7,0.2,1.4,0.3,2.1,0.4
			c2.3,0.4,4.6,0.6,6.9,0.6c1.2,0,2.4-0.1,3.6-0.2s2.2-0.3,3.3-0.5c3.7-0.8,7.3-2.1,10.6-4c0.6-0.3,1.2-0.7,1.9-1.1
			c0.7,0.5,1.5,0.9,2.2,1.3c3.5,1.9,7.3,3.3,11.3,4c1.1,0.2,2.2,0.3,3.3,0.4c0.9,0.1,1.8,0.1,2.6,0.1c2.6,0,5.2-0.3,7.8-0.8
			c0.7-0.1,1.4-0.3,2.1-0.5c4.5-1.2,8.8-2.6,13.1-4.4l0.5-0.2l3.2-1.2c4.1-1.7,8.4-2.9,12.8-3.5C274.5,245,276.1,253.5,274.6,261.7z
			"/>
		<path class="st0" d="M268.6,329.4c-2.1,3.2-5.2,5.6-8.8,6.8c-2.2,0.8-4.5,1.4-6.8,1.7c-0.7,0.1-1.5,0.2-2.2,0.3
			c-4.9,0.3-9.9-0.1-14.7-1.3l-0.4-0.1c-2.5-0.6-5-1.3-7.5-2c-0.6-0.2-1.2-0.3-1.8-0.5c-1.1-0.3-2.1-0.6-3.1-0.8
			c-3.1-0.8-6.3-1.4-9.5-1.7c-0.8,0-1.6-0.1-2.4-0.1c-0.5,0-0.9,0-1.4,0c-3.2,0.2-6.4,0.7-9.6,1.5c-1,0.2-2.1,0.5-3.1,0.8
			c-1.1,0.3-1.9,0.5-2.8,0.8c-2.2,0.6-4.3,1.2-6.6,1.7l-1.8,0.4c-4.4,1-8.9,1.5-13.4,1.3c-0.7,0-1.5-0.1-2.2-0.2
			c-2.6-0.3-5.2-1-7.8-1.8c-3-1-5.6-2.8-7.6-5.2c-1-4.5-1-9.1-0.3-13.7c2.6-15.6,13.4-21.7,13.4-21.7s-1.6,18.8,0,22.9
			c0.7,1.8,2.2,4.4,3.4,7.2c2.5-11,7.8-14.7,7.8-14.7s4.8,1.8,7.1,12c1.9-10.3,6.4-12,6.4-12s3.4,1.5,5.6,8.9
			c2.4-9.6,6.8-11.2,6.8-11.2s3.9,1.6,6.3,10c2.4-8.4,6.3-10,6.3-10s4.4,1.7,6.8,11.2c2.1-7.4,5.6-8.9,5.6-8.9s4.5,1.7,6.5,12
			c2.3-10.2,7.1-12.1,7.1-12.1s5.3,3.7,7.8,14.7c1.2-2.9,2.7-5.4,3.4-7.2c1.7-4.2,0-22.9,0-22.9s10.9,6.1,13.5,21.6
			C269.3,321.3,269.5,325.4,268.6,329.4z"/>
		<path class="st0" d="M300.5,334.2l-14.6,3.7l0.6,5.7l-2.4,3.1l2.5,13.1l-2.8-6.5l-1.5-4.9l-2.8,2l-5.6,1.3l5.4-3.2l4.1-4.7
			l-1.3-6.5l-4.2-4.1l-20.7,5.9l-14.8-8.3l-9.5,4.9l-14.5-1.4l-19,9.5l-9.4-1.7l-9.4,4.1l-11.9,10.4v-13.3l-7.7-9.4l-15.3,2
			l-15.3-4.3l-8.3-6.9c1.1,30.7,14.8,69.8,33.9,80.1c14.4,7.8,29.3,15.8,80.8,14.8l5.5-4.7l-4.2-0.5l-4.1-5.5l-3.4-4.6l0,0l-2.3-3.9
			l-2.3-9.7l3.7,7.4l3.2,4.2l3.4,3.5l3.8,5.1l6.8,0.9l11.4,1.1c21.7-6.7,46.4-43.5,47.6-82.6L300.5,334.2z M245.7,395.9
			c-3,0-5.4-2.4-5.4-5.4c0-3,2.4-5.4,5.4-5.4c3,0,5.4,2.4,5.4,5.3c0,0,0,0,0,0C251,393.5,248.6,395.8,245.7,395.9L245.7,395.9z"/>
		<path class="st0" d="M301.1,39.9C269.3,21.6,230.5,12.3,196.8,15l-5.4,9.2l-4,6.8l5.6,5.6l2.8,6.3l-4.5-5.8l-5.4-3.6l-3.4,4.6
			l-6.7,4.6l5.6-7.2l6.5-13.2l-8.4-4.6c-4.9,1.5-32.7,10.1-47.5,16.2c-15.6,6.5-60.5,38-61.2,95.7c0,12.2,0.8,24.3,2.3,36.3
			c0.4,3.8,0.9,7.5,1.4,11.1c0.3,2.5,0.6,5,0.9,7.3c2.9,23,6.1,40.5,7.4,47.4l7.5-6.5l8.6-7.5l15,4.4l14.7-16.2
			c0.4-2.1,1.3-7.2,2-11.1l-5.6-6.4l1.7-10.1l-6.6-12.4c-10.1-4.7-21.6-12.3-22.5-20.6c-1.2-11.2,3.2-22,11.8-29.7
			c-6.5,0.6-13,1.6-19.4,3c1.1-0.6,25.9-13.4,58.6-4.4c13.2,3.6,23.8,9.4,31.5,13.4c6.5,3.4,11.7,6.1,14.2,5.5
			c4.8-1.2,6.4-13.3,6.4-13.3c0.9,4.8,1.1,15.3-5.4,17c-0.6,0.1-1.1,0.2-1.7,0.2c-1.4,0-2.7-0.3-4-0.7c0.1,5.5-0.6,19.6-10.8,26.9
			c-8.6,6.2-21.8,8.4-32.9,8.4c-1.6,0-3.1,0-4.6-0.1l-10.9,7.5l-1.4,8.2l5.6,6.4l-0.2,0.9c-1.1,6.1-1.7,9.5-2,11.2l13.6,1.5
			l14.6-12.1l6.9,0.9l15.2-16.1l12.7,3.2l16.2-12.9l9.6,6.3l14.9,2.1l9,16.6l15.8,8l14.7-1.2l4.8,9.4l9.1-3.5l6.7-18.5l10.5-6.1
			l2.7-8.3l7.8-3.7l9.8-4.6l-9.7,7.3l-4.7,3.5l-0.9,2.9l-5.7,16l2,7.8l-2.8,7.8l13.2,0.6l9.6,10.2l4.5,1.9l7.6,3.2
			c1.3-8.2,5.9-36.5,8.6-60.4c1.2-9.2,1.8-18.4,2-27.6c-0.1-12.3-3.5-33.9-12.6-54.3C329.4,65.4,315.1,47.9,301.1,39.9z"/>
		<circle class="st2" cx="185" cy="364.7" r="5.4"/>
		<circle class="st2" cx="214" cy="81.3" r="5.4"/>
		<circle class="st2" cx="255.2" cy="70.6" r="5.4"/>
		<circle class="st2" cx="290.2" cy="59.9" r="5.4"/>
		<circle class="st2" cx="172.8" cy="70.6" r="5.4"/>
		<circle class="st2" cx="137.8" cy="59.9" r="5.4"/>
		<circle class="st2" cx="185" cy="390.5" r="5.4"/>
		<circle class="st2" cx="245.7" cy="390.5" r="5.4"/>
		<circle class="st2" cx="245.7" cy="364.7" r="5.4"/>
		<path class="st1" d="M278,114.3c-13.2,3.6-23.7,9.4-31.5,13.4c-6.5,3.4-11.7,6.1-14.2,5.5c-4.8-1.2-6.3-13.3-6.3-13.3
			c-0.9,4.8-1.2,15.3,5.4,17c0.6,0.1,1.1,0.2,1.7,0.2c1.4,0,2.7-0.3,4-0.7c-0.1,5.5,0.6,19.6,10.8,26.9c8.6,6.2,21.8,8.4,32.9,8.4
			c4.5,0,8.9-0.4,13.3-1.2c9.1-2,33.6-12.7,34.9-25.1c1.2-11.2-3.2-22-11.8-29.7c6.5,0.6,13,1.6,19.4,3
			C336.7,118.7,311.5,105.1,278,114.3z M325.3,145c-1,8.9-21.3,19.5-32,21.8c-11,2.4-32.1,1.4-43.2-6.6c-10-7.2-9.3-23.2-9.1-25.5
			c2.2-1,4.6-2.3,7.3-3.7c7.6-4,17.9-9.5,30.7-13.1c9.9-2.9,21.4-3.2,31.4-2.7C321,122.2,326.5,133.3,325.3,145z"/>
		<path class="st2" d="M325.3,145c-1,8.9-21.3,19.5-32,21.8c-11,2.4-32.1,1.4-43.2-6.6c-10-7.2-9.3-23.2-9.1-25.5
			c2.2-1,4.6-2.3,7.3-3.7c7.6-4,17.9-9.5,30.7-13.1c9.9-2.9,21.4-3.2,31.4-2.7C321,122.2,326.5,133.3,325.3,145z"/>
		<path class="st1" d="M241.4,117.9c0,0,6.2-17.2,38.9-24c31.3-6.5,48.7,5.7,48.7,5.7C285.7,81.2,241.8,117.5,241.4,117.9z"/>
		<path class="st2" d="M101.7,145c0.7,6.5,11.5,13.8,21.5,18.2c0.9,3.6,6.4,12.1,6.4,12.1s8.7-4.9,10.9-7.5
			c11.5,0.9,27.3-1,36.4-7.5c10-7.2,9.3-23.2,9.1-25.5c-2.2-1-4.6-2.3-7.3-3.7c-7.6-4-17.9-9.5-30.7-13.1
			c-9.9-2.9-21.4-3.2-31.4-2.7C106,122.2,100.5,133.3,101.7,145z"/>
		<path class="st1" d="M185.6,117.9c0,0-6.2-17.2-38.9-24c-31.3-6.5-48.7,5.7-48.7,5.7C141.3,81.2,185.2,117.5,185.6,117.9z"/>
		<path class="st1" d="M213.6,137.2L213.6,137.2c-1,0-1.7-0.8-1.7-1.7c0,0,0-0.1,0-0.1l0.5-6.3c0-0.1,0-0.2,0-0.3l-0.5-6.3
			c-0.1-1,0.6-1.8,1.6-1.9c0,0,0.1,0,0.1,0l0,0c1,0,1.7,0.8,1.7,1.7c0,0.1,0,0.1,0,0.2l-0.6,6.2c0,0.1,0,0.2,0,0.3l0.6,6.2
			c0.1,1-0.6,1.8-1.6,1.9C213.7,137.2,213.6,137.2,213.6,137.2z"/>
		<path class="st1" d="M409.1,285.7c0,0,2.1,0,2.1-1.7c0-1.7-8.7-13.5-9.9-14.2c-1.2-0.7-0.7-6.1-0.7-6.1s0.2,1.7,2.6,0
			c2.4-1.7-0.7-5.9-3.5-8.5c-2.2-2.3-4.1-4.8-5.7-7.6c0,0,1.9-1.2,1.7-2.6s-9.2-11.1-10.9-12.5s-2.8-7.3-2.8-8.5s7.8-1.2,7.8-2.7
			s-7.6-9.6-6.6-9.6s4.5-0.9,4.7-2.8s-4.5-7.6-6.4-9.2s0-1.4,0-3.2s-5-6-5-6c1.4-0.1,2.4-1.3,2.4-2.7c0-2.4-2.8-4.4-4.7-5.1
			s0.4-1.9-0.7-3.5s2.1-2.8,0-4.3s-1.9,0-2.6,0s-1.2-1.6-1.6-3.1s-7.4-4.5-9.7-6.8s0-4-1.7-6.1c-1-1.2-2.4-2.1-3.9-2.6
			c0.6-6.4,0.9-12,0.8-16.4c-0.1-12.7-3.6-34.9-12.9-55.8c-9.5-21.1-24-38.8-38.8-47.4c-32.7-18.8-72.9-28.3-107.5-25.3l-1,0.1
			l-4.5,7.8l-10-5.4l-0.8,0.2c-0.3,0.1-32.2,9.8-48.6,16.6c-16.3,6.7-62.8,39.4-63.6,99.1c-0.1,8.9,0.4,17.8,1.2,26.7
			c-1.4,0.5-2.6,1.3-3.5,2.4c-1.6,2.1,0.7,3.8-1.6,6.1c-2.3,2.4-9.2,5.5-9.6,6.9s-1,3.1-1.7,3.1s-0.5-1.4-2.6,0s1.2,2.6,0,4.2
			s1.2,2.8-0.7,3.6s-4.7,2.7-4.7,5.1c0,1.4,1,2.5,2.4,2.7c0,0-4.9,4.3-4.9,6s1.9,1.5,0,3.2s-6.6,7.4-6.4,9.2s3.8,2.8,4.7,2.8
			s-6.6,8.1-6.6,9.6s7.8,1.5,7.8,2.7s-1.2,7.1-2.8,8.5S27.3,243.6,27.1,245s1.6,2.6,1.6,2.6c-1.6,2.7-3.5,5.3-5.7,7.6
			c-2.8,2.6-5.9,6.9-3.5,8.5c2.4,1.7,2.6,0,2.6,0s0.5,5.4-0.7,6.1c-1.2,0.7-9.9,12.5-9.9,14.2c0,1.7,2.1,1.7,2.1,1.7
			s-4.5,9.9-2.1,10.9c2.3,0.9,2.4,0,2.4,0s0.7,14,0.2,15.1s-2.8,7.3-1.4,9c0.6,0.9,1.7,1.4,2.8,1.4c0,0,2.3,5.7,4.4,7.3
			C22,331,21.3,340,24.4,340c2.8,0,1.8-1.6,1.7-1.9c0.9,0.8,15.1,12.8,23.1,13.9c8.3,1.2,7.8-1.2,8,0s6.4,3.8,9.9,3.5
			c3.5-0.2,6.4-3.3,6.4-3.3s8.7,3.5,9.4,2.4c0.4-0.9,0.4-1.9,0-2.8c0,0,2.4-0.2,3.1-1.2c0,0,4.9,3.4,9,1s3.4-5.6,3.1-6.2
			c2.3-1,3-5.1,0.3-7c6.4,0.5,7.3-1.8,7.3-2.9c-0.1-1.4-1.2-2.9-0.8-4.1c0.7,2.2,1.2,4.6,2.5,3.7c1.3-0.9,2-4,0.3-11.2
			c2.8-4.3,3.6-16.7,3.9-22.7c3.8,6,6.9,11.7,8.4,16.7l-1.9-1.6v4c0,40.7,18.6,78.2,36,87.5c16.5,8.9,36.8,15.3,73.4,15.3
			c3.2,0,6.5,0,9.9-0.1h0.7l9.2-7.8l11.4,1.1l0.3-0.1c28.9-8.5,51-55.5,50.7-90.2v-3.8L305,326c0.3-6.2,2.7-13,5.9-19.9
			c0.3,5.1,1.2,14,3.8,18c-1.6,7.2-1,10.3,0.3,11.2s1.8-1.4,2.5-3.7c0.5,1.2-0.7,2.7-0.7,4.1c0,1.1,0.9,3.4,7.3,2.9
			c-2.8,1.9-2,6,0.3,7c-0.4,0.6-1,3.9,3.1,6.2s9-1.1,9-1.1c0.7,1,3.1,1.2,3.1,1.2c-0.4,0.9-0.4,1.9,0,2.8c0.7,1.2,9.5-2.4,9.5-2.4
			s2.8,3.1,6.4,3.3s9.7-2.4,9.9-3.5s-0.2,1.2,8,0c8-1.2,22.2-13.2,23.1-13.9c-0.1,0.2-1.1,1.9,1.7,1.9c3.1,0,2.4-9,4.5-10.6
			s1.4-5.7,1.4-5.7c1.1,0,2.2-0.5,2.8-1.4c1.4-1.7-0.9-7.8-1.4-9s3.4-16.8,3.4-16.8s0,0.9,2.4,0S409.1,285.7,409.1,285.7z
			 M305.9,330c-1.2,39.1-25.9,75.9-47.6,82.6l-11.4-1l-6.8-0.9l-3.8-5.1l-3.4-3.5l-3.2-4.2l-3.7-7.4l2.3,9.7l2.3,3.9l0,0l3.4,4.6
			l4.1,5.5l4.2,0.5l-5.5,4.7c-45.9,1.1-66.4-7-80.8-14.8c-19.1-10.3-32.8-49.4-33.9-80.1l8.3,6.9l15.2,4.3l15.3-2l7.7,9.4v13.3
			l11.9-10.4l9.4-4.1l9.4,1.7l19-9.5l14.5,1.4l9.5-4.8l14.8,8.2l20.7-5.9l4.3,4.1l1.3,6.5l-4.1,4.7l-5.4,3.3l5.6-1.3l2.8-2l1.5,4.9
			l2.7,6.5l-2.5-13l2.4-3.1l-0.6-5.7l14.7-3.7L305.9,330z M333.2,260.4c-1.7,4.6-5.8,11-10.6,18.5c-3.1,4.8-6.4,9.9-9.4,15.2
			c-6.8,11.6-12.4,24-11.8,34.8l-2.5,1.9l-14.3,3.6l-5.7-5.4l-21.2,6.1l-15.2-8.5l-10.3,5.2l-14.5-1.4l-18.8,9.4l-9.2-1.7l-10.8,4.7
			l-6.3,5.4v-6.3l-9.9-12l-16.6,2.1l-13.7-3.9l-7.4-6.2c-0.8-8.4-7.4-19.2-14.7-29.8c-2.1-3.1-4.4-6.2-6.5-9.2
			c-6.2-8.7-12.1-16.9-14.1-22.4c-3.2-8.7-2.5-14.1-1.9-19.3c0.5-2.8,0.6-5.6,0.4-8.4l3.8-3.3l8.4-7.2l15.3,4.4l15.4-17.1l16.7,1.8
			l14.5-12.1l3.7,0.5c-0.8,2.9,0.2,6,2.7,7.8c2.6,2.1,5.4,2.5,8.3,2.8c3.3,0.3,6.6,1.2,9.6,2.6c1.3,0.8,2.5,1.6,3.6,2.6
			c4.9,3.7,14.3,9.2,20.9,9.2c6.3,0,11.9-5.2,17-8.9c1.4-1,2.8-2,4.3-2.8c2.7-0.8,5.4-1.4,8.1-1.8c3.9-0.7,7-1.2,10.1-3.8
			c1.3-1,2.3-2.5,2.7-4.1l7.4,3.7l13.2-1.1l5.2,10.2l13.8-5.4l6.8-18.9l5.3-3.1l-2.6,7.3l2,7.8l-4.1,11.5l16.8,0.8l9.1,9.7l5.7,2.4
			l3.4,1.4c-0.2,2.9-0.1,5.8,0.2,8.7C335.9,244.6,336.4,251.5,333.2,260.4L333.2,260.4z M349,167.4c-2.7,23.8-7.2,52.1-8.6,60.4
			l-7.6-3.2l-4.5-1.9l-9.6-10.2l-13.2-0.6l2.8-7.8l-2-7.8l5.7-16l0.9-2.9l4.7-3.5l9.7-7.3l-9.8,4.6l-7.8,3.7l-2.7,8.3l-10.5,6.1
			l-6.7,18.5l-9.1,3.5l-4.8-9.4l-14.7,1.2l-15.8-8l-9-16.6l-14.9-2.1l-9.6-6.3l-15.4,12.3l-0.8,0.6l-0.8-0.2l-11.9-3l-15.2,16.1
			l-6.9-0.8l-14.6,12.1l-13.6-1.5c0.3-1.8,0.9-5.1,2-11.2l0.2-0.9l-5.6-6.4l1.4-8.2l10.9-7.6c1.5,0.1,3,0.1,4.6,0.1
			c11.1,0,24.3-2.2,32.9-8.4c10.1-7.3,10.9-21.5,10.8-26.9c1.3,0.4,2.6,0.7,4,0.7c0.6,0,1.1-0.1,1.7-0.2c6.6-1.6,6.3-12.1,5.4-17
			c0,0-1.6,12.1-6.3,13.3c-2.5,0.6-7.6-2.1-14.2-5.5c-7.7-4.1-18.2-9.8-31.5-13.4c-32.7-9-57.5,3.8-58.6,4.4
			c6.4-1.4,12.9-2.4,19.4-3c-8.6,7.8-13,18.5-11.8,29.7c0.9,8.4,12.3,16,22.5,20.6l6.6,12.4l-1.7,10.1l5.6,6.4
			c-0.7,3.9-1.6,9.1-2,11.2l-14.7,16.2l-15-4.4l-8.6,7.4l-7.5,6.5c-1.3-6.9-4.5-24.3-7.4-47.4c-0.3-2.4-0.6-4.8-0.9-7.3
			c-0.5-3.6-1-7.3-1.4-11.1c-1.6-12-2.4-24.2-2.3-36.3C71.7,72,116.6,40.5,132.2,34c14.9-6.1,42.6-14.7,47.5-16.2l8.4,4.6l-6.5,13.3
			l-5.6,7.2l6.7-4.6l3.4-4.6l5.4,3.6l4.5,5.8l-2.8-6.3l-5.6-5.6l4-6.8l5.4-9.2c33.6-2.7,72.5,6.6,104.3,24.9
			c14,8,28.3,25.6,37.3,45.7c9.1,20.4,12.5,42,12.6,54.3C350.8,149,350.2,158.3,349,167.4L349,167.4z M123.2,163.2
			c-10-4.4-20.8-11.7-21.5-18.2c-1.2-11.7,4.3-22.8,14.8-29.8c10-0.5,21.4-0.1,31.4,2.7c12.8,3.7,23.2,9.1,30.8,13.1
			c2.8,1.4,5.2,2.7,7.3,3.7c0.1,2.2,0.8,18.2-9.1,25.5c-9.1,6.5-24.9,8.4-36.4,7.5l-10.9,7.5L123.2,163.2z"/>
		<path class="st0" d="M228.4,196.2c3.2-1.2-4.1-14.7-5.9-13.8S221.7,198.7,228.4,196.2z"/>
		<path class="st0" d="M197.1,187.1c-0.3,4.6-2.3,10.8-6.7,9.1c-2-0.7,0-6,2.2-9.9l4.1,1L197.1,187.1z"/>
		<path class="st2" d="M232.1,331.8c-0.3,1.3-0.7,2.5-1.3,3.7c0,0,0,0.1-0.1,0.1c-0.5,1.1-1.1,2.3-1.9,3.7c-2,3.6-4.6,7.9-7.1,11.9
			c-3.2,5.1-5.6,17.8-5.1,29.7c0.2,6,2.6,14.1,3,18.3s-0.6,9.2-7.9,9.2c-5.8,0-8.9-6-8.9-10.5c0-5,6.1-11.4,4.8-19.1
			c-0.4-2-2.3-11.5-2.3-14.1s-4.1-9-6.6-10.8s-7.4,0-11,0.8s-9.2-0.3-11.5,1s-6.9,7.7-6.1,11.5s0.8,14.6,0.8,17.8s-2.8,8.5-3.1,14.3
			c-0.2,4.9,3.5,8.8,5.3,12.7c0.3,0.6,0.6,1.3,0.8,2c0.2,0.7,0.2,1.5,0.1,2.3c-0.4,4-3.7,8.3-3.9,14.3c-0.2,7.2,11,34-4.4,34
			s-3.6-28.7-2.6-32.5c0.7-2.7-2.5-12.8-5.4-22.5c-0.5-1.7-1-3.4-1.5-5c-0.7-2.4-1.3-4.7-1.8-6.8c-2.7-11.5,0.5-20.5,1.5-22.3
			s-0.2-10.5-0.2-12.8s2.6-11.3,1.3-15.9c-1.1-3.8-5.7-6.7-9-11.6c-0.8-1.1-1.5-2.3-2-3.6l4.5-0.6l4.7-0.6l7.4-0.9l1.7,2.1l4.9,6
			c0.4,0.1,0.9,0.2,1.4,0.2c0.7,0.1,1.5,0.1,2.2,0.2c4.5,0.2,9-0.2,13.4-1.3l1.7-0.4c2.2-0.5,4.4-1.1,6.5-1.7l2.8-0.8
			c1.1-0.3,2.1-0.5,3.1-0.8c3.1-0.8,6.3-1.3,9.6-1.5c0.5,0,0.9,0,1.4,0c0.8,0,1.6,0,2.4,0.1c0.2,0,0.5,0,0.7,0.1l0.3-0.1l2.9-1.5
			L232.1,331.8z"/>
		<path class="st0" d="M663.4,135.6c-0.8,2.3-2.9,5.5-5.3,9.2c-1.5,2.4-3.2,4.9-4.7,7.6c-3.4,5.8-6.2,12-5.9,17.4l-1.2,0.9l-7.2,1.8
			l-2.9-2.7l-10.6,3l-7.6-4.2l-5.2,2.6l-7.2-0.7l-9.4,4.7l-4.6-0.9l-5.4,2.3l-3.2,2.7v-3.1l-5-6l-8.2,1.1l-6.9-1.9l-3.7-3.1
			c-0.4-4.2-3.7-9.6-7.3-14.9c-1.1-1.6-2.2-3.1-3.2-4.6c-3.1-4.4-6-8.5-7.1-11.2c-1.2-3.1-1.5-6.4-0.9-9.7c0.2-1.4,0.3-2.8,0.2-4.2
			l1.9-1.7l4.2-3.6l7.7,2.2l7.7-8.5l8.4,0.9l7.3-6l1.8,0.2c-0.4,1.4,0.1,3,1.3,3.9c1.2,0.9,2.7,1.4,4.2,1.4c1.7,0.1,3.3,0.6,4.8,1.3
			c0.6,0.4,1.2,0.8,1.8,1.3c2.4,1.9,7.1,4.6,10.5,4.6c3.1,0,6-2.6,8.5-4.4c0.7-0.5,1.4-1,2.1-1.4c1.3-0.4,2.7-0.7,4.1-0.9
			c2-0.3,3.5-0.6,5.1-1.9c0.7-0.5,1.1-1.2,1.3-2l3.7,1.9l6.6-0.5l2.6,5.1l7-2.7l3.4-9.4l2.6-1.5l-1.3,3.7l1,3.9l-2,5.7l8.4,0.4
			l4.5,4.8l2.8,1.2l1.7,0.7c-0.1,1.5-0.1,2.9,0.1,4.4C665,128.3,664.6,132.1,663.4,135.6z"/>
		<path class="st3" d="M646,126.3c2.2,7.9-0.3,17.1-7.4,26.7c-1.1,1.5-1.6,4.2-2.1,7.1c-1,5.7-2.3,12.8-9,15.2
			c-6.4,2.3-12,0.7-17-0.6c-5.1-2-10.7-2-15.8,0c-3.3,1.1-6.8,1.7-10.3,1.8c-2.3,0-4.6-0.4-6.8-1.2c-6.7-2.4-8-9.5-9.1-15.2
			c-0.5-2.9-1-5.6-2.1-7.1c-7.1-9.6-9.6-18.8-7.4-26.7c-2.4,0.8-4.7,1.7-7,2.8c0.6-0.4,10.1-7.4,19.9-6.9c3.5,0.2,6.9,1.5,10.2,2.7
			c6.2,2.4,12.1,4.6,19.5,0v-1.8c0-0.9,0.3-1.7,0.9-2.4l0.1-0.2l0.1,0.2c0.6,0.7,0.9,1.6,0.9,2.4v1.8c7.4,4.6,13.3,2.3,19.5,0
			c3.3-1.3,6.6-2.5,10.2-2.7c9.8-0.4,19.3,6.5,19.9,6.9C650.8,128.1,648.4,127.1,646,126.3z"/>
		<path class="st0" d="M634.1,136.2c-0.7,4.5-3.4,8.5-7.3,10.8c0,0,0.9-9.4,0-11.5c-0.4-0.9-1.2-2.1-1.8-3.5
			c-1.3,5.6-4.3,7.3-4.3,7.3s-2.6-0.9-3.9-6c-1,5.1-3.5,6-3.5,6s-1.9-0.7-3.1-4.5c-1.3,5-3.9,5.9-3.9,5.9s-2.3-0.9-3.7-5.4
			c-1.3,4.4-3.5,5.2-3.5,5.2s-2.4-0.8-3.7-5.6c-1.2,3.7-3.1,4.4-3.1,4.4s-2.5-0.9-3.5-6c-1.3,5.1-3.9,6-3.9,6s-2.9-1.8-4.3-7.4
			c-0.7,1.4-1.5,2.7-1.9,3.6c-0.9,2.1,0,11.5,0,11.5c-3.9-2.4-6.6-6.3-7.4-10.8c-0.7-4.1,0-8.3,2.2-11.8c2.2,0.4,4.4,1,6.4,1.9
			l1.4,0.5l0.3,0.1c2.2,0.9,4.5,1.6,6.8,2.2l1,0.2c1.1,0.2,2.3,0.3,3.4,0.3c0.6,0,1.2,0,1.8-0.1s1.1-0.1,1.7-0.2
			c1.9-0.4,3.7-1.1,5.3-2c0.3-0.2,0.6-0.3,0.9-0.5c0.4,0.2,0.7,0.4,1.1,0.6c1.8,1,3.7,1.6,5.6,2c0.5,0.1,1.1,0.2,1.7,0.2
			c0.4,0,0.9,0,1.3,0c1.3,0,2.6-0.1,3.9-0.4c0.4-0.1,0.7-0.1,1.1-0.2c2.2-0.6,4.4-1.3,6.6-2.2l0.3-0.1l1.6-0.6
			c2.1-0.8,4.2-1.4,6.4-1.8C634.1,127.9,634.9,132.1,634.1,136.2z"/>
		<path class="st0" d="M631.1,170.1c-1.1,1.6-2.6,2.8-4.4,3.4c-1.1,0.4-2.2,0.7-3.4,0.9c-0.4,0.1-0.7,0.1-1.1,0.1
			c-2.5,0.2-4.9,0-7.3-0.6l-0.2,0c-1.3-0.3-2.5-0.6-3.8-1l-0.9-0.2l-1.6-0.4c-1.6-0.4-3.2-0.7-4.8-0.9c-0.4,0-0.8,0-1.2,0h-0.7
			c-1.6,0.1-3.2,0.3-4.8,0.8c-0.5,0.1-1,0.3-1.6,0.4l-1.4,0.4c-1.1,0.3-2.2,0.6-3.3,0.9l-0.9,0.2c-2.2,0.5-4.4,0.7-6.7,0.6
			c-0.4,0-0.7,0-1.1-0.1c-1.3-0.2-2.6-0.5-3.9-0.9c-1.5-0.5-2.8-1.4-3.8-2.6c-0.5-2.3-0.5-4.6-0.1-6.8c1.3-7.8,6.7-10.8,6.7-10.8
			s-0.8,9.4,0,11.5c0.4,0.9,1.1,2.2,1.7,3.6c1.2-5.5,3.9-7.4,3.9-7.4s2.4,0.9,3.6,6c0.9-5.2,3.2-6,3.2-6s1.7,0.7,2.8,4.4
			c1.2-4.8,3.4-5.6,3.4-5.6s1.9,0.8,3.2,5c1.2-4.2,3.1-5,3.1-5s2.2,0.8,3.4,5.6c1.1-3.7,2.8-4.4,2.8-4.4s2.3,0.9,3.2,6
			c1.2-5.1,3.6-6,3.6-6s2.7,1.8,3.9,7.4c0.6-1.4,1.3-2.7,1.7-3.6c0.8-2.1,0-11.5,0-11.5s5.4,3,6.7,10.8
			C631.5,166,631.5,168.1,631.1,170.1z"/>
		<path class="st0" d="M647.1,172.5l-7.3,1.8l0.3,2.9l-1.2,1.5l1.3,6.5l-1.4-3.3l-0.8-2.4l-1.4,1l-2.8,0.7l2.7-1.6l2-2.3l-0.6-3.2
			l-2.2-2l-10.3,3l-7.4-4.2l-4.8,2.4l-7.2-0.7l-9.5,4.8l-4.7-0.9l-4.7,2l-6,5.2V177l-3.9-4.7l-7.6,1l-7.6-2.2l-4.2-3.5
			c0.6,15.3,7.4,34.9,17,40c7.2,3.9,14.7,7.9,40.4,7.4l2.8-2.3l-2.1-0.3l-2.1-2.8l-1.7-2.3l0,0l-1.1-2l-1.1-4.9l1.8,3.7l1.6,2.1
			l1.7,1.8l1.9,2.5l3.4,0.4l5.7,0.5c10.8-3.4,23.2-21.8,23.8-41.3L647.1,172.5z M619.6,203.3c-1.5,0-2.7-1.2-2.7-2.7
			s1.2-2.7,2.7-2.7c1.5,0,2.7,1.2,2.7,2.7l0,0C622.3,202.1,621.1,203.3,619.6,203.3C619.7,203.3,619.6,203.3,619.6,203.3
			L619.6,203.3z"/>
		<path class="st0" d="M647.4,25.3c-15.9-9.1-35.3-13.8-52.1-12.4l-2.7,4.6l-2,3.4l2.8,2.8l1.4,3.1l-2.2-2.9l-2.7-1.8l-1.7,2.3
			l-3.3,2.3l2.8-3.6l3.3-6.6l-4.2-2.3c-2.5,0.8-16.3,5-23.8,8.1c-7.8,3.2-30.3,19-30.6,47.8c0,6.1,0.4,12.1,1.2,18.2
			c0.2,1.9,0.5,3.8,0.7,5.6c0.2,1.2,0.3,2.5,0.5,3.7c1.5,11.5,3,20.3,3.7,23.7l3.8-3.2l4.3-3.7l7.5,2.2l7.3-8.1c0.2-1,0.6-3.6,1-5.6
			l-2.8-3.2l0.8-5.1l-3.3-6.2c-5.1-2.3-10.8-6.1-11.2-10.3c-0.6-5.6,1.6-11.2,5.9-14.9c-3.3,0.3-6.5,0.8-9.7,1.5
			c9.2-4.2,19.6-5,29.3-2.2c5.5,1.6,10.8,3.9,15.7,6.7c3.3,1.7,5.8,3.1,7.1,2.8c2.4-0.6,3.2-6.6,3.2-6.6c0.4,2.4,0.6,7.7-2.7,8.5
			c-0.3,0.1-0.6,0.1-0.8,0.1c-0.7,0-1.4-0.1-2-0.4c0.1,2.7-0.3,9.8-5.4,13.5c-4.3,3.1-10.9,4.2-16.5,4.2c-0.8,0-1.5,0-2.3-0.1
			l-5.4,3.8l-0.7,4.1l2.8,3.2l-0.1,0.5c-0.5,3.1-0.8,4.7-1,5.6l6.8,0.8l7.3-6l3.5,0.4l7.6-8l6.3,1.6l8.1-6.5l4.8,3.1l7.5,1l4.5,8.3
			l7.9,4l7.3-0.6l2.4,4.7l4.6-1.8l3.3-9.3l5.2-3l1.3-4.2l3.9-1.9l4.9-2.3l-4.9,3.7l-2.3,1.8l-0.5,1.5l-2.9,8l1,3.9l-1.4,3.9l6.6,0.3
			l4.8,5.1l2.2,1l3.8,1.6c0.7-4.1,3-18.3,4.3-30.2c0.6-4.6,0.9-9.2,1-13.8c-0.4-9.4-2.5-18.6-6.3-27.1
			C661.5,38.1,654.4,29.3,647.4,25.3z"/>
		<circle class="st3" cx="589.3" cy="187.7" r="2.7"/>
		<circle class="st3" cx="603.8" cy="46" r="2.7"/>
		<circle class="st3" cx="624.4" cy="40.7" r="2.7"/>
		<circle class="st3" cx="641.9" cy="35.3" r="2.7"/>
		<circle class="st3" cx="583.2" cy="40.7" r="2.7"/>
		<circle class="st3" cx="565.7" cy="35.3" r="2.7"/>
		<circle class="st3" cx="589.3" cy="200.6" r="2.7"/>
		<circle class="st3" cx="619.6" cy="200.6" r="2.7"/>
		<circle class="st3" cx="619.6" cy="187.7" r="2.7"/>
		<path class="st3" d="M635.8,62.5c-5.5,1.6-10.8,3.9-15.7,6.7c-3.3,1.7-5.8,3.1-7.1,2.8c-2.4-0.6-3.2-6.7-3.2-6.7
			c-0.4,2.4-0.6,7.7,2.7,8.5c0.3,0.1,0.6,0.1,0.8,0.1c0.7,0,1.4-0.1,2-0.4c-0.1,2.7,0.3,9.8,5.4,13.5c4.3,3.1,10.9,4.2,16.5,4.2
			c2.2,0,4.5-0.2,6.6-0.6c4.5-1,16.8-6.4,17.5-12.5c0.6-5.6-1.6-11.2-5.9-14.9c3.3,0.3,6.5,0.8,9.7,1.5
			C665.2,64.7,652.6,57.9,635.8,62.5z M659.5,77.9c-0.5,4.5-10.7,9.7-16,10.9c-5.5,1.2-16,0.7-21.6-3.3c-5-3.6-4.6-11.6-4.6-12.7
			c1.1-0.5,2.3-1.1,3.7-1.9c4.9-2.7,10-4.9,15.4-6.6c5.1-1.3,10.4-1.8,15.7-1.4C657.3,66.5,660.1,72,659.5,77.9L659.5,77.9z"/>
		<path class="st3" d="M659.5,77.9c-0.5,4.5-10.7,9.7-16,10.9c-5.5,1.2-16,0.7-21.6-3.3c-5-3.6-4.6-11.6-4.6-12.7
			c1.1-0.5,2.3-1.1,3.7-1.9c4.9-2.7,10-4.9,15.4-6.6c5.1-1.3,10.4-1.8,15.7-1.4C657.3,66.5,660.1,72,659.5,77.9z"/>
		<path class="st3" d="M617.5,64.3c0,0,3.1-8.6,19.4-12c15.6-3.2,24.3,2.9,24.3,2.9C639.7,46,617.7,64.1,617.5,64.3z"/>
		<path class="st3" d="M547.7,77.9c0.3,3.2,5.8,6.9,10.8,9.1c0.4,1.8,3.2,6.1,3.2,6.1s4.4-2.4,5.4-3.8c5.7,0.4,13.6-0.5,18.2-3.8
			c5-3.6,4.6-11.6,4.6-12.7c-1.1-0.5-2.3-1.1-3.7-1.9c-4.9-2.7-10-4.9-15.4-6.6c-5.1-1.3-10.4-1.8-15.7-1.4
			C549.8,66.5,547.1,72,547.7,77.9z"/>
		<path class="st3" d="M589.6,64.3c0,0-3.1-8.6-19.4-12c-15.6-3.2-24.3,2.9-24.3,2.9C567.5,46,589.4,64.1,589.6,64.3z"/>
		<path class="st3" d="M603.6,74L603.6,74c-0.5,0-0.9-0.4-0.9-0.9c0,0,0,0,0-0.1l0.3-3.1c0,0,0-0.1,0-0.1l-0.3-3.1
			c0-0.5,0.3-0.9,0.8-0.9c0,0,0,0,0.1,0l0,0c0.5,0,0.9,0.4,0.9,0.9c0,0,0,0,0,0.1l-0.3,3.1c0,0.1,0,0.1,0,0.2l0.3,3.1
			C604.5,73.5,604.2,73.9,603.6,74C603.6,74,603.6,74,603.6,74z"/>
		<path class="st3" d="M701.4,148.2c0,0,1.1,0,1.1-0.8s-4.4-6.7-5-7.1s-0.4-3.1-0.4-3.1s0.1,0.8,1.3,0s-0.4-3-1.8-4.3
			c-1.1-1.1-2-2.4-2.8-3.8c0,0,0.9-0.6,0.8-1.3s-4.6-5.6-5.4-6.3s-1.4-3.7-1.4-4.3s3.9-0.6,3.9-1.3s-3.8-4.8-3.3-4.8
			s2.2-0.5,2.4-1.4s-2.2-3.8-3.2-4.6s0-0.7,0-1.6s-2.5-3-2.5-3c0.7-0.1,1.2-0.6,1.2-1.3c0-1.2-1.4-2.2-2.3-2.6s0.2-0.9-0.4-1.8
			s1-1.4,0-2.1s-1,0-1.3,0s-0.6-0.8-0.8-1.5s-3.7-2.2-4.9-3.4s0-2-0.8-3.1c-0.5-0.6-1.2-1-1.9-1.3c0.3-3.2,0.4-6,0.4-8.2
			c-0.4-9.6-2.5-19.1-6.4-27.9c-4.7-10.6-12-19.4-19.4-23.7C632,14.3,611.9,9.5,594.6,11h-0.5l-2.3,3.9l-5-2.7l-0.4,0.1
			c-0.2,0-16.1,4.9-24.3,8.3s-31.4,19.7-31.8,49.5c0,4.5,0.2,8.9,0.6,13.3c-0.7,0.2-1.3,0.7-1.8,1.2c-0.8,1.1,0.3,1.9-0.8,3.1
			s-4.6,2.7-4.8,3.4s-0.5,1.6-0.8,1.6s-0.2-0.7-1.3,0s0.6,1.3,0,2.1s0.6,1.4-0.4,1.8s-2.4,1.3-2.4,2.6c0,0.7,0.5,1.3,1.2,1.3
			c0,0-2.5,2.2-2.5,3s0.9,0.8,0,1.6s-3.3,3.7-3.2,4.6s1.9,1.4,2.4,1.4s-3.3,4.1-3.3,4.8s3.9,0.7,3.9,1.3s-0.6,3.5-1.4,4.3
			s-5.3,5.5-5.4,6.3s0.8,1.3,0.8,1.3c-0.8,1.4-1.7,2.6-2.8,3.8c-1.4,1.3-3,3.4-1.8,4.3s1.3,0,1.3,0s0.2,2.7-0.3,3.1s-5,6.3-5,7.1
			s1.1,0.8,1.1,0.8s-2.2,5-1.1,5.4s1.2,0,1.2,0s0.3,7,0.1,7.6s-1.4,3.7-0.7,4.5c0.3,0.5,0.9,0.7,1.4,0.7c0,0,1.1,2.8,2.2,3.7
			s0.7,5.3,2.2,5.3s0.9-0.8,0.8-0.9c0.5,0.4,7.6,6.4,11.6,7s3.9-0.6,4,0s3.2,1.9,5,1.8c1.2-0.2,2.3-0.8,3.2-1.6c0,0,4.4,1.8,4.7,1.2
			c0.2-0.5,0.2-1,0-1.4c0,0,1.2-0.1,1.5-0.6c0,0,2.5,1.7,4.5,0.5s1.7-2.8,1.5-3.1c1-0.6,1.3-1.9,0.7-2.9c-0.1-0.2-0.3-0.5-0.6-0.6
			c3.2,0.2,3.7-0.9,3.7-1.5s-0.6-1.4-0.4-2c0.4,1.1,0.6,2.3,1.3,1.8s1-2,0.2-5.6c1.4-2.2,1.8-8.3,1.9-11.3c1.8,2.6,3.2,5.4,4.2,8.4
			l-1-0.8v2c0,20.4,9.3,39.1,18,43.8c8.2,4.5,18.4,7.6,36.7,7.6c1.6,0,3.2,0,5-0.1h0.3l4.6-3.9l5.7,0.5h0.2
			c14.5-4.3,25.5-27.8,25.3-45.1v-1.9l-2.4,1.8c0.4-3.5,1.4-6.9,3-10c0.2,2.6,0.6,7,1.9,9c-0.8,3.6-0.5,5.1,0.2,5.6s0.9-0.7,1.3-1.8
			c0.2,0.6-0.3,1.4-0.4,2s0.5,1.7,3.7,1.5c-0.9,0.7-1.2,2-0.5,2.9c0.2,0.2,0.4,0.5,0.7,0.6c-0.2,0.3-0.5,2,1.5,3.1s4.5-0.5,4.5-0.5
			c0.4,0.5,1.5,0.6,1.5,0.6c-0.2,0.4-0.2,1,0,1.4c0.3,0.6,4.7-1.2,4.7-1.2c0.8,0.9,2,1.5,3.2,1.6c1.8,0.1,4.8-1.2,5-1.8
			s-0.1,0.6,4,0s11.1-6.6,11.6-7c-0.1,0.1-0.6,0.9,0.8,0.9s1.2-4.5,2.2-5.3s0.7-2.8,0.7-2.8c0.6,0,1.1-0.3,1.4-0.7
			c0.7-0.8-0.5-3.9-0.7-4.5s1.7-8.4,1.7-8.4s0,0.5,1.2,0S701.4,148.2,701.4,148.2z M649.8,170.4c-0.6,19.5-12.9,38-23.8,41.3
			l-5.7-0.5l-3.4-0.5l-1.9-2.5l-1.7-1.8l-1.6-2.1l-1.9-3.7l1.1,4.9l1.1,2l0,0l1.7,2.3l2.1,2.8l2.1,0.3l-2.8,2.3
			c-23,0.5-33.2-3.5-40.4-7.4c-9.6-5.2-16.4-24.7-17-40l4.2,3.5l7.6,2.2l7.6-1l3.9,4.7v6.6l5.9-5.2l4.7-2l4.7,0.9l9.5-4.7l7.2,0.7
			l4.8-2.4l7.4,4.1l10.3-3l2.2,2l0.6,3.2l-2,2.3l-2.6,1.7l2.8-0.7l1.4-1l0.8,2.4l1.4,3.3l-1.3-6.5l1.2-1.5l-0.3-2.9l7.3-1.8
			L649.8,170.4z M663.4,135.6c-0.8,2.3-2.9,5.5-5.3,9.2c-1.5,2.4-3.2,4.9-4.7,7.6c-3.4,5.8-6.2,12-5.9,17.4l-1.2,0.9l-7.2,1.8
			l-2.9-2.7l-10.6,3l-7.6-4.2l-5.2,2.6l-7.2-0.7l-9.4,4.7l-4.6-0.9l-5.4,2.3l-3.2,2.7v-3.1l-5-6l-8.2,1.1l-6.9-1.9l-3.7-3.1
			c-0.4-4.2-3.7-9.6-7.3-14.9c-1.1-1.6-2.2-3.1-3.2-4.6c-3.1-4.4-6-8.5-7.1-11.2c-1.2-3.1-1.5-6.4-0.9-9.7c0.2-1.4,0.3-2.8,0.2-4.2
			l1.9-1.7l4.2-3.6l7.7,2.2l7.7-8.5l8.4,0.9l7.3-6l1.8,0.2c-0.4,1.4,0.1,3,1.3,3.9c1.2,0.9,2.7,1.4,4.2,1.4c1.7,0.1,3.3,0.6,4.8,1.3
			c0.6,0.4,1.2,0.8,1.8,1.3c2.4,1.9,7.1,4.6,10.5,4.6c3.1,0,6-2.6,8.5-4.4c0.7-0.5,1.4-1,2.1-1.4c1.3-0.4,2.7-0.7,4.1-0.9
			c2-0.3,3.5-0.6,5.1-1.9c0.7-0.5,1.1-1.2,1.3-2l3.7,1.9l6.6-0.5l2.6,5.1l7-2.7l3.4-9.4l2.6-1.5l-1.3,3.7l1,3.9l-2,5.7l8.4,0.4
			l4.5,4.8l2.8,1.2l1.7,0.7c-0.1,1.5-0.1,2.9,0.1,4.4C665,128.3,664.6,132.1,663.4,135.6L663.4,135.6z M671.3,89.1
			c-1.3,11.9-3.6,26.1-4.3,30.2l-3.8-1.6l-2.2-1l-4.8-5.1l-6.6-0.3l1.4-3.9l-1-3.9l2.9-8l0.5-1.5l2.3-1.8l4.9-3.7l-4.9,2.3l-3.9,1.8
			l-1.3,4.2l-5.2,3.1l-3.3,9.3l-4.6,1.8l-2.4-4.7l-7.3,0.6l-7.9-4l-4.5-8.3l-7.5-1l-4.8-3.2l-7.7,6.2l-0.4,0.3l-0.4-0.1l-5.9-1.5
			l-7.6,8l-3.5-0.4l-7.3,6l-6.8-0.8c0.2-0.9,0.5-2.5,1-5.6l0.1-0.5l-2.8-3.2l0.7-4.1l5.5-3.8c0.7,0,1.5,0.1,2.3,0.1
			c5.5,0,12.2-1.1,16.5-4.2c5.1-3.7,5.4-10.7,5.4-13.5c0.6,0.2,1.3,0.3,2,0.4c0.3,0,0.6,0,0.8-0.1c3.3-0.8,3.2-6.1,2.7-8.5
			c0,0-0.8,6.1-3.2,6.7c-1.2,0.3-3.8-1.1-7.1-2.8c-5-2.8-10.3-5.1-15.7-6.7c-9.7-2.8-20.1-2-29.3,2.2c3.2-0.7,6.4-1.2,9.7-1.5
			c-4.3,3.7-6.5,9.2-5.9,14.9c0.5,4.2,6.2,8,11.2,10.3l3.3,6.2l-0.8,5.1l2.8,3.2c-0.4,2-0.8,4.5-1,5.6l-7.3,8.1l-7.5-2.2l-4.3,3.7
			l-3.8,3.2c-0.7-3.4-2.3-12.2-3.7-23.7c-0.2-1.2-0.3-2.4-0.5-3.7c-0.2-1.8-0.5-3.7-0.7-5.6c-0.8-6-1.2-12.1-1.2-18.2
			c0.3-28.8,22.8-44.6,30.6-47.8c7.4-3.1,21.3-7.4,23.8-8.1l4.2,2.3l-3.3,6.6l-2.8,3.7l3.3-2.3l1.7-2.3l2.7,1.8l2.2,2.9l-1.4-3.1
			l-2.8-2.8l2-3.4l2.7-4.6c16.8-1.3,36.2,3.3,52.1,12.4c7,4,14.1,12.8,18.6,22.8c3.8,8.6,5.9,17.8,6.3,27.1
			C672.2,79.9,671.9,84.5,671.3,89.1L671.3,89.1z M558.4,87c-5-2.2-10.4-5.9-10.8-9.1c-0.6-5.9,2.1-11.4,7.4-14.9
			c5.3-0.4,10.6,0.1,15.7,1.4c5.3,1.6,10.5,3.8,15.4,6.6c1.4,0.7,2.6,1.4,3.7,1.9c0.1,1.1,0.4,9.1-4.6,12.7
			c-4.5,3.3-12.5,4.2-18.2,3.8l-5.5,3.8L558.4,87z"/>
		<path class="st0" d="M611,103.5c1.6-0.6-2-7.4-3-6.9S607.6,104.7,611,103.5z"/>
		<path class="st0" d="M595.3,98.9c-0.2,2.3-1.1,5.4-3.4,4.6c-1-0.4,0-3,1.1-4.9l2.1,0.5L595.3,98.9z"/>
		<path class="st3" d="M612.8,171.3c-0.1,0.6-0.4,1.3-0.7,1.8c0,0,0,0,0,0.1c-0.2,0.5-0.6,1.2-0.9,1.8c-1,1.8-2.3,4-3.6,6
			c-1.6,2.5-2.8,8.9-2.6,14.9c0.1,3,1.3,7,1.5,9.2s-0.3,4.6-4,4.6c-2.9,0-4.4-3-4.4-5.3c0-2.5,3.1-5.7,2.4-9.5c-0.2-1-1.2-5.8-1.2-7
			s-2-4.5-3.3-5.4s-3.7,0-5.5,0.4s-4.6-0.1-5.8,0.5s-3.5,3.8-3.1,5.8c0.3,3,0.4,5.9,0.4,8.9c0,1.6-1.4,4.3-1.5,7.1
			c-0.1,2.5,1.7,4.4,2.6,6.4c0.2,0.3,0.3,0.7,0.4,1c0.1,0.4,0.1,0.8,0.1,1.1c-0.2,2-1.8,4.2-2,7.2c-0.1,3.6,5.5,17-2.2,17
			s-1.8-14.3-1.3-16.2c0.4-1.3-1.3-6.4-2.7-11.3c-0.3-0.9-0.5-1.7-0.8-2.5c-0.3-1.2-0.6-2.4-0.9-3.4c-1-3.7-0.7-7.6,0.8-11.1
			c0.5-0.9-0.1-5.2-0.1-6.4s1.3-5.6,0.6-7.9c-0.5-1.9-2.8-3.4-4.5-5.8c-0.4-0.6-0.7-1.2-1-1.8l2.2-0.3l2.4-0.3l3.7-0.5l0.9,1l2.5,3
			c0.2,0,0.4,0.1,0.7,0.1l1.1,0.1c2.3,0.1,4.5-0.1,6.7-0.6l0.9-0.2c1.1-0.3,2.2-0.6,3.3-0.9l1.4-0.4l1.6-0.4
			c1.6-0.4,3.2-0.7,4.8-0.8h0.7c0.4,0,0.8,0,1.2,0h0.4l0.1-0.1l1.5-0.7L612.8,171.3z"/>
		<path class="st0" d="M632.9,413.7c-0.7,1.6-1.6,3.2-2.7,4.6c-0.8,1.2-1.6,2.5-2.4,3.8c-1.7,2.9-3.1,6-3,8.7l-0.6,0.5l-3.6,0.9
			l-1.4-1.3l-5.3,1.5l-3.8-2.1l-2.6,1.3l-3.6-0.3l-4.7,2.3l-2.3-0.4l-2.7,1.2l-1.5,1.3v-1.6l-2.5-3l-4.1,0.5l-3.4-1l-1.9-1.5
			c-0.2-2.1-1.8-4.8-3.7-7.5c-0.5-0.8-1.1-1.6-1.6-2.3c-1.4-1.7-2.6-3.6-3.5-5.6c-0.6-1.5-0.8-3.2-0.5-4.8c0.1-0.7,0.2-1.4,0.1-2.1
			l1-0.8l2.1-1.8l3.8,1.1l3.9-4.3l4.2,0.5l3.6-3l0.9,0.1c-0.2,0.7,0.1,1.5,0.7,2c0.6,0.4,1.3,0.7,2.1,0.7c0.8,0.1,1.7,0.3,2.4,0.7
			c0.3,0.2,0.6,0.4,0.9,0.7c1.2,0.9,3.6,2.3,5.2,2.3s3-1.3,4.2-2.2c0.3-0.3,0.7-0.5,1.1-0.7c0.7-0.2,1.3-0.3,2-0.5
			c0.9-0.1,1.8-0.4,2.5-0.9c0.3-0.2,0.6-0.6,0.7-1l1.8,0.9l3.3-0.3l1.3,2.5l3.5-1.3l1.7-4.7l1.3-0.8l-0.7,1.8l0.5,2l-1,2.9l4.2,0.2
			l2.3,2.4l1.4,0.6l0.9,0.4c0,0.7,0,1.4,0,2.2C633.8,410.1,633.6,411.9,632.9,413.7z"/>
		<path class="st3" d="M624.2,409.1c1.1,3.9-0.2,8.5-3.7,13.3c-0.6,1.1-0.9,2.3-1.1,3.6c-0.5,2.8-1.2,6.4-4.5,7.6
			c-3.2,1.1-6,0.4-8.5-0.3c-2.5-1-5.4-1-7.9,0c-1.7,0.5-3.4,0.8-5.1,0.9c-1.2,0-2.3-0.2-3.4-0.6c-3.4-1.2-4-4.8-4.5-7.6
			c-0.1-1.3-0.5-2.5-1.1-3.6c-3.5-4.8-4.8-9.4-3.7-13.3c-1.2,0.4-2.4,0.9-3.5,1.4c0.3-0.2,5-3.7,10-3.5c1.8,0.2,3.5,0.6,5.1,1.4
			c3.1,1.2,6,2.3,9.8,0v-0.9c0-0.4,0.2-0.9,0.4-1.2l0.1-0.1l0.1,0.1c0.3,0.3,0.4,0.8,0.4,1.2v0.9c3.7,2.3,6.7,1.2,9.8,0
			c1.6-0.7,3.3-1.2,5.1-1.4c4.9-0.2,9.7,3.3,10,3.5C626.6,409.9,625.5,409.5,624.2,409.1z"/>
		<path class="st0" d="M618.3,414c-0.4,2.3-1.7,4.2-3.7,5.4c0,0,0.5-4.7,0-5.7c-0.2-0.4-0.6-1.1-0.9-1.8c-0.7,2.8-2.2,3.6-2.2,3.6
			s-1.3-0.5-2-3c-0.5,2.6-1.8,3-1.8,3s-0.9-0.4-1.5-2.2c-0.7,2.5-1.9,2.9-1.9,2.9s-1.1-0.4-1.8-2.7c-0.7,2.2-1.8,2.6-1.8,2.6
			s-1.2-0.4-1.9-2.8c-0.6,1.8-1.5,2.2-1.5,2.2s-1.2-0.4-1.8-3c-0.6,2.5-2,3-2,3c-1.1-0.9-1.9-2.2-2.1-3.7c-0.3,0.7-0.7,1.4-0.9,1.8
			c-0.5,1,0,5.7,0,5.7c-2-1.2-3.3-3.2-3.7-5.4c-0.4-2,0-4.1,1.1-5.9c1.1,0.2,2.2,0.5,3.2,0.9l0.7,0.3l0.1,0c1.1,0.4,2.2,0.8,3.4,1.1
			l0.5,0.1c0.6,0.1,1.1,0.2,1.7,0.2c0.3,0,0.6,0,0.9,0s0.5-0.1,0.8-0.1c0.9-0.2,1.8-0.5,2.7-1l0.5-0.3l0.5,0.3
			c0.9,0.5,1.8,0.8,2.8,1c0.3,0.1,0.5,0.1,0.8,0.1h0.7c0.7,0,1.3-0.1,2-0.2l0.5-0.1c1.1-0.3,2.2-0.7,3.3-1.1l0.1,0l0.8-0.3
			c1-0.4,2.1-0.7,3.2-0.9C618.2,409.9,618.6,412,618.3,414z"/>
		<path class="st0" d="M616.8,431c-0.5,0.8-1.3,1.4-2.2,1.7c-0.6,0.2-1.1,0.3-1.7,0.4l-0.6,0.1c-1.2,0.1-2.5,0-3.7-0.3h-0.1
			c-0.6-0.2-1.3-0.3-1.9-0.5l-0.5-0.1l-0.8-0.2c-0.8-0.2-1.6-0.4-2.4-0.4h-0.6h-0.3c-0.8,0-1.6,0.2-2.4,0.4l-0.8,0.2l-0.7,0.2
			c-0.5,0.2-1.1,0.3-1.6,0.4l-0.4,0.1c-1.1,0.3-2.2,0.4-3.3,0.3h-0.6c-0.7-0.1-1.3-0.2-1.9-0.5c-0.7-0.3-1.4-0.7-1.9-1.3
			c-0.2-1.1-0.3-2.3-0.1-3.4c0.3-2.2,1.5-4.2,3.4-5.4c0,0-0.4,4.7,0,5.7c0.2,0.5,0.5,1.1,0.9,1.8c0.2-1.4,0.9-2.7,1.9-3.7
			c0,0,1.2,0.5,1.8,3c0.5-2.6,1.6-3,1.6-3s0.8,0.4,1.4,2.2c0.6-2.4,1.7-2.8,1.7-2.8s1,0.4,1.6,2.5c0.6-2.1,1.6-2.5,1.6-2.5
			s1.1,0.4,1.7,2.8c0.5-1.8,1.4-2.2,1.4-2.2s1.1,0.4,1.6,3c0.6-2.6,1.8-3,1.8-3c1.1,1,1.7,2.3,1.9,3.7c0.3-0.7,0.7-1.4,0.8-1.8
			c0.4-1,0-5.7,0-5.7c1.8,1.2,3.1,3.2,3.4,5.4C616.9,429,616.9,430,616.8,431z"/>
		<path class="st0" d="M624.8,432.2l-3.7,0.9l0.2,1.4l-0.6,0.8l0.6,3.3l-0.7-1.6l-0.4-1.2l-0.7,0.5l-1.4,0.3l1.3-0.8l1-1.2l-0.3-1.6
			l-1.1-1l-5.2,1.5l-3.7-2.1l-2.4,1.2l-3.6-0.3l-4.8,2.4l-2.3-0.4l-2.4,1l-3,2.6v-3.3l-1.9-2.3l-3.8,0.5l-3.8-1.1l-2-1.7
			c0.3,7.7,3.7,17.5,8.5,20c3.6,1.9,7.3,4,20.2,3.7l1.4-1.2l-1-0.1l-1-1.4l-0.8-1.1l0,0l-0.6-1l-0.6-2.4l0.9,1.8l0.8,1l0.9,0.9
			l1,1.3l1.7,0.2l2.8,0.3c5.4-1.7,11.6-10.9,11.9-20.7L624.8,432.2z M611.1,447.6c-0.7,0-1.3-0.6-1.3-1.3s0.6-1.3,1.3-1.3
			s1.3,0.6,1.3,1.3C612.4,447,611.8,447.6,611.1,447.6L611.1,447.6z"/>
		<path class="st0" d="M624.9,358.6c-7.9-4.6-17-6.7-26.1-6.2l-1.3,2.3l-1,1.7l1.4,1.4l0.7,1.6l-1.1-1.4l-1.3-0.9l-0.8,1.2l-1.7,1.1
			l1.4-1.8l1.6-3.3l-2.1-1.1c-1.2,0.4-8.2,2.5-11.9,4.1c-3.9,1.6-15.1,9.5-15.3,23.9c0,3,0.2,6.1,0.6,9.1c0.1,1,0.2,1.9,0.3,2.8
			l0.2,1.8c0.7,5.8,1.5,10.1,1.9,11.8l1.9-1.6l2.2-1.9l3.8,1.1l3.7-4.1c0.1-0.5,0.3-1.8,0.5-2.8l-1.4-1.5l0.4-2.5l-1.6-3.1
			c-2.5-1.2-5.4-3.1-5.6-5.2c-0.3-2.8,0.8-5.6,3-7.4c-1.6,0.2-3.2,0.4-4.8,0.7c4.6-2.1,9.8-2.5,14.7-1.1c2.7,0.8,5.4,1.9,7.9,3.4
			c1.6,0.9,2.9,1.5,3.5,1.4c1.2-0.3,1.6-3.3,1.6-3.3c0.2,1.2,0.3,3.8-1.4,4.2c-0.1,0-0.3,0-0.4,0c-0.3,0-0.7-0.1-1-0.2
			c0,1.4-0.2,4.9-2.7,6.7c-2.2,1.5-5.5,2.1-8.2,2.1c-0.4,0-0.8,0-1.1,0l-2.7,1.9l-0.3,2.1l1.4,1.6v0.2c-0.3,1.5-0.4,2.4-0.5,2.8
			l3.4,0.4l3.6-3l1.7,0.2l3.8-4l3.2,0.8l4-3.2l2.4,1.6l3.7,0.5l2.2,4.2l4,2l3.7-0.3l1.2,2.3l2.3-0.9l1.7-4.6l2.6-1.5l0.7-2.1l2-0.9
			l2.4-1.2l-2.4,1.8L628,393l-0.2,0.7l-1.4,4l0.5,2l-0.7,1.9l3.3,0.2l2.4,2.5l1.1,0.5l1.9,0.8c0.3-2.1,1.5-9.1,2.1-15.1
			c0.3-2.3,0.5-4.6,0.5-6.9c-0.2-4.7-1.3-9.3-3.2-13.6C632,365,628.4,360.6,624.9,358.6z"/>
		<circle class="st3" cx="595.9" cy="439.8" r="1.3"/>
		<circle class="st3" cx="603.1" cy="368.9" r="1.3"/>
		<circle class="st3" cx="613.4" cy="366.2" r="1.3"/>
		<circle class="st3" cx="622.2" cy="363.6" r="1.3"/>
		<circle class="st3" cx="592.9" cy="366.2" r="1.3"/>
		<circle class="st3" cx="584.1" cy="363.6" r="1.3"/>
		<circle class="st3" cx="595.9" cy="446.2" r="1.3"/>
		<circle class="st3" cx="611.1" cy="446.2" r="1.3"/>
		<circle class="st3" cx="611.1" cy="439.8" r="1.3"/>
		<path class="st3" d="M619.2,377.2c-2.7,0.8-5.4,1.9-7.9,3.4c-1.6,0.9-2.9,1.5-3.5,1.4c-1.2-0.3-1.6-3.3-1.6-3.3
			c-0.2,1.2-0.3,3.8,1.4,4.2c0.1,0,0.3,0,0.4,0c0.3,0,0.7-0.1,1-0.2c0,1.4,0.2,4.9,2.7,6.7c2.2,1.5,5.5,2.1,8.2,2.1
			c1.1,0,2.2-0.1,3.3-0.3c2.3-0.5,8.4-3.2,8.7-6.3c0.3-2.8-0.8-5.6-3-7.4c1.6,0.2,3.3,0.4,4.9,0.8
			C629.2,376.1,624,375.8,619.2,377.2z M631,384.9c-0.2,2.2-5.3,4.9-8,5.5s-8,0.4-10.8-1.6c-2.5-1.8-2.3-5.8-2.3-6.4
			c0.5-0.2,1.1-0.6,1.8-0.9c2.4-1.4,5-2.5,7.7-3.3c2.6-0.6,5.2-0.9,7.8-0.7C629.8,379,631.2,381.9,631,384.9z"/>
		<path class="st3" d="M631,384.9c-0.2,2.2-5.3,4.9-8,5.5s-8,0.4-10.8-1.6c-2.5-1.8-2.3-5.8-2.3-6.4c0.5-0.2,1.1-0.6,1.8-0.9
			c2.4-1.4,5-2.5,7.7-3.3c2.6-0.6,5.2-0.9,7.8-0.7C629.8,379,631.2,381.9,631,384.9z"/>
		<path class="st3" d="M610,378.1c0,0,1.5-4.3,9.7-6c7.8-1.6,12.2,1.4,12.2,1.4C621.1,368.9,610.1,378,610,378.1z"/>
		<path class="st3" d="M575.1,384.9c0.2,1.6,2.9,3.4,5.4,4.5c0.4,1.1,1,2.1,1.6,3c1-0.5,1.9-1.2,2.7-1.9c2.9,0.2,6.8-0.2,9.1-1.9
			c2.5-1.8,2.3-5.8,2.3-6.4c-0.5-0.2-1.1-0.6-1.8-0.9c-2.4-1.4-5-2.5-7.7-3.3c-2.6-0.6-5.2-0.9-7.8-0.7
			C576.2,379,574.8,381.9,575.1,384.9z"/>
		<path class="st3" d="M596.1,378.1c0,0-1.5-4.3-9.7-6c-7.8-1.6-12.2,1.4-12.2,1.4C585,368.9,595.9,378,596.1,378.1z"/>
		<path class="st3" d="M603,382.9L603,382.9c-0.2,0-0.4-0.2-0.4-0.4c0,0,0,0,0,0l0.1-1.6c0,0,0,0,0-0.1l-0.1-1.6
			c0-0.2,0.2-0.4,0.4-0.5c0,0,0,0,0,0l0,0c0.2,0,0.4,0.2,0.4,0.4c0,0,0,0,0,0l-0.2,1.5c0,0,0,0.1,0,0.1l0.2,1.5
			C603.5,382.7,603.3,382.9,603,382.9C603.1,382.9,603.1,382.9,603,382.9z"/>
		<path class="st3" d="M651.9,420c0,0,0.5,0,0.5-0.4c-0.7-1.3-1.5-2.5-2.5-3.5c-0.3-0.2-0.2-1.5-0.2-1.5s0.1,0.4,0.7,0
			s-0.2-1.5-0.9-2.1c-0.6-0.6-1-1.2-1.4-1.9c0,0,0.5-0.3,0.4-0.7c-0.8-1.1-1.7-2.2-2.7-3.1c-0.4-0.6-0.7-1.4-0.7-2.1
			c0-0.3,2-0.3,2-0.7s-1.9-2.4-1.7-2.4s1.1-0.2,1.2-0.7s-1.1-1.9-1.6-2.3s0-0.4,0-0.8s-1.2-1.5-1.2-1.5c0.3,0,0.6-0.3,0.6-0.7
			c0-0.6-0.7-1.1-1.2-1.3s0.1-0.5-0.2-0.9s0.5-0.7,0-1.1s-0.5,0-0.7,0s-0.3-0.4-0.4-0.8s-1.8-1.1-2.4-1.7s0-1-0.4-1.5
			c-0.3-0.3-0.6-0.5-1-0.6c0.1-1.6,0.2-3,0.2-4.1c-0.2-4.8-1.3-9.6-3.2-14c-2.4-5.3-6-9.7-9.7-11.9c-8.2-4.7-18.2-7.1-26.9-6.3h-0.2
			l-1.1,1.9l-2.5-1.3l-0.2,0.1c-0.1,0-8,2.5-12.2,4.2s-15.7,9.8-15.9,24.8c0,2.2,0.1,4.4,0.3,6.7c-0.3,0.1-0.7,0.3-0.9,0.6
			c-0.4,0.5,0.2,0.9-0.4,1.5s-2.3,1.4-2.4,1.7s-0.2,0.8-0.4,0.8s-0.1-0.4-0.7,0s0.3,0.7,0,1.1s0.3,0.7-0.2,0.9s-1.2,0.7-1.2,1.3
			c0,0.3,0.2,0.6,0.6,0.7c0,0-1.2,1.1-1.2,1.5s0.5,0.4,0,0.8s-1.7,1.8-1.6,2.3s1,0.7,1.2,0.7s-1.7,2-1.7,2.4s2,0.4,2,0.7
			c-0.1,0.8-0.3,1.5-0.7,2.1c-1,1-1.9,2-2.7,3.1c-0.1,0.3,0.4,0.7,0.4,0.7c-0.4,0.7-0.9,1.3-1.4,1.9c-0.7,0.7-1.5,1.7-0.9,2.1
			s0.7,0,0.7,0s0.1,1.4-0.2,1.5c-1,1.1-1.8,2.3-2.5,3.5c0,0.4,0.5,0.4,0.5,0.4s-1.1,2.5-0.5,2.7s0.6,0,0.6,0s0.2,3.5,0.1,3.8
			s-0.7,1.8-0.4,2.2c0.2,0.2,0.4,0.4,0.7,0.3c0.3,0.7,0.6,1.3,1.1,1.8c0.5,0.4,0.4,2.7,1.1,2.7s0.5-0.4,0.4-0.5
			c0.2,0.2,3.8,3.2,5.8,3.5s2-0.3,2,0c0.7,0.6,1.6,0.9,2.5,0.9c0.6-0.1,1.2-0.4,1.6-0.8c0,0,2.2,0.9,2.4,0.6c0.1-0.2,0.1-0.5,0-0.7
			c0,0,0.6-0.1,0.8-0.3c0.7,0.5,1.5,0.6,2.3,0.3c1-0.6,0.8-1.4,0.8-1.6c0.5-0.2,0.7-0.8,0.4-1.3c-0.1-0.2-0.2-0.3-0.4-0.4
			c1.6,0.1,1.8-0.5,1.8-0.7s-0.3-0.7-0.2-1c0.2,0.6,0.3,1.1,0.6,0.9s0.5-1,0.1-2.8c0.7-1.1,0.9-4.2,1-5.7c0.9,1.3,1.6,2.7,2.1,4.2
			l-0.5-0.4v1c0,10.2,4.7,19.5,9,21.9c4.1,2.2,9.2,3.8,18.3,3.8h2.5h0.2l2.3-2l2.8,0.3h0.1c7.2-2.1,12.8-13.9,12.7-22.6v-0.9
			l-1.2,0.9c0.2-1.7,0.7-3.4,1.5-5c0,1.5,0.4,3.1,1,4.5c-0.4,1.8-0.2,2.6,0.1,2.8s0.5-0.3,0.6-0.9c0.1,0.3-0.2,0.7-0.2,1
			s0.2,0.8,1.8,0.7c-0.5,0.3-0.6,0.9-0.3,1.4c0.1,0.2,0.2,0.3,0.4,0.4c-0.1,0.2-0.3,1,0.8,1.6c0.7,0.3,1.6,0.2,2.2-0.3
			c0.2,0.2,0.8,0.3,0.8,0.3c-0.1,0.2-0.1,0.5,0,0.7c0.2,0.3,2.4-0.6,2.4-0.6c0.4,0.4,1,0.7,1.6,0.8c0.9,0,1.8-0.3,2.5-0.9
			c0.1-0.3-0.1,0.3,2,0s5.6-3.3,5.8-3.5c0,0.1-0.3,0.5,0.4,0.5s0.6-2.2,1.1-2.7s0.4-1.4,0.4-1.4c0.3,0,0.5-0.1,0.7-0.4
			c0.4-0.4-0.2-2-0.3-2.2c0.2-1.4,0.5-2.8,0.8-4.2c0,0,0,0.2,0.6,0S651.9,420,651.9,420z M626.1,431.1c-0.3,9.8-6.5,19-11.9,20.7
			l-2.8-0.3l-1.7-0.2l-1-1.3l-0.8-0.9l-0.8-1l-0.9-1.8l0.6,2.4l0.6,1l0,0l0.8,1.1l1,1.4l1,0.1l-1.4,1.2c-11.5,0.3-16.6-1.8-20.2-3.7
			c-4.8-2.6-8.2-12.4-8.5-20l2.1,1.7l3.8,1.1l3.8-0.5l1.9,2.3v3.3l3-2.6l2.4-1l2.3,0.4l4.7-2.4l3.6,0.4l2.4-1.2l3.7,2.1l5.2-1.5
			l1.1,1l0.3,1.6l-1,1.2l-1.3,0.8l1.4-0.3l0.7-0.5l0.4,1.2l0.7,1.6l-0.6-3.3l0.6-0.8l-0.2-1.4l3.7-0.9L626.1,431.1z M632.9,413.7
			c-0.7,1.6-1.6,3.2-2.7,4.6c-0.8,1.2-1.6,2.5-2.4,3.8c-1.7,2.9-3.1,6-3,8.7l-0.6,0.5l-3.6,0.9l-1.4-1.3l-5.3,1.5l-3.8-2.1l-2.6,1.3
			l-3.6-0.3l-4.7,2.3l-2.3-0.4l-2.7,1.2l-1.5,1.3v-1.6l-2.5-3l-4.1,0.5l-3.4-1l-1.9-1.5c-0.2-2.1-1.8-4.8-3.7-7.5
			c-0.5-0.8-1.1-1.6-1.6-2.3c-1.4-1.7-2.6-3.6-3.5-5.6c-0.6-1.5-0.8-3.2-0.5-4.8c0.1-0.7,0.2-1.4,0.1-2.1l1-0.8l2.1-1.8l3.8,1.1
			l3.9-4.3l4.2,0.5l3.6-3l0.9,0.1c-0.2,0.7,0.1,1.5,0.7,2c0.6,0.4,1.3,0.7,2.1,0.7c0.8,0.1,1.7,0.3,2.4,0.7c0.3,0.2,0.6,0.4,0.9,0.7
			c1.2,0.9,3.6,2.3,5.2,2.3s3-1.3,4.2-2.2c0.3-0.3,0.7-0.5,1.1-0.7c0.7-0.2,1.3-0.3,2-0.5c0.9-0.1,1.8-0.4,2.5-0.9
			c0.3-0.2,0.6-0.6,0.7-1l1.8,0.9l3.3-0.3l1.3,2.5l3.5-1.3l1.7-4.7l1.3-0.8l-0.7,1.8l0.5,2l-1,2.9l4.2,0.2l2.3,2.4l1.4,0.6l0.9,0.4
			c0,0.7,0,1.4,0,2.2C633.8,410.1,633.6,411.9,632.9,413.7L632.9,413.7z M636.9,390.5c-0.7,6-1.8,13-2.1,15.1l-1.9-0.8l-1.1-0.5
			l-2.4-2.5l-3.3-0.2l0.7-1.9l-0.5-2l1.4-4l0.2-0.7l1.2-0.9l2.4-1.8l-2.4,1.2l-2,0.9l-0.7,2.1l-2.6,1.5l-1.7,4.6l-2.3,0.9l-1.2-2.3
			l-3.7,0.3l-4-2l-2.2-4.1l-3.7-0.5l-2.4-1.6l-3.9,3.1l-0.2,0.2l-0.2,0l-3-0.8l-3.8,4l-1.7-0.2l-3.6,3l-3.4-0.4
			c0.1-0.4,0.2-1.3,0.5-2.8V397l-1.4-1.6l0.3-2.1l2.7-1.9c0.4,0,0.8,0,1.1,0c2.8,0,6.1-0.6,8.2-2.1c2.5-1.8,2.7-5.4,2.7-6.7
			c0.3,0.1,0.7,0.2,1,0.2c0.1,0,0.3,0,0.4,0c1.7-0.4,1.6-3,1.4-4.2c0,0-0.4,3-1.6,3.3c-0.6,0.2-1.9-0.5-3.5-1.4
			c-2.5-1.4-5.1-2.5-7.9-3.4c-4.9-1.4-10.1-1-14.7,1.1c1.6-0.3,3.2-0.6,4.8-0.7c-2.2,1.8-3.3,4.6-3,7.4c0.2,2.1,3.1,4,5.6,5.2
			l1.6,3.1l-0.3,2.6l1.4,1.6l-0.5,2.8l-3.7,4.1l-3.8-1.1l-2.2,1.9l-1.9,1.6c-0.3-1.7-1.1-6.1-1.9-11.8c-0.1-0.6-0.2-1.2-0.2-1.8
			c-0.1-0.9-0.2-1.8-0.4-2.8c-0.4-3-0.6-6.1-0.6-9.1c0.2-14.4,11.4-22.3,15.3-23.9c3.7-1.5,10.7-3.7,11.9-4.1l2.1,1.1l-1.6,3.3
			l-1.4,1.8l1.7-1.1l0.8-1.2l1.3,0.9l1.1,1.4l-0.7-1.6l-1.4-1.4l1-1.7l1.3-2.3c9.1-0.5,18.2,1.7,26.1,6.2c3.5,2,7.1,6.4,9.3,11.4
			c1.9,4.3,3,8.9,3.2,13.6C637.3,385.9,637.2,388.2,636.9,390.5L636.9,390.5z M580.5,389.4c-2.5-1.1-5.2-2.9-5.4-4.5
			c-0.3-3,1.2-5.9,3.7-7.5c2.6-0.2,5.3,0,7.8,0.7c2.7,0.8,5.3,1.9,7.7,3.3c0.7,0.4,1.3,0.7,1.8,0.9c0,0.6,0.2,4.6-2.3,6.4
			c-2.3,1.6-6.2,2.1-9.1,1.9l-2.7,1.9L580.5,389.4z"/>
		<path class="st0" d="M606.8,397.7c0.8-0.3-1-3.7-1.5-3.5S605.1,398.3,606.8,397.7z"/>
		<path class="st0" d="M598.9,395.4c-0.1,1.2-0.6,2.7-1.7,2.3c-0.5-0.2,0-1.5,0.5-2.5l1,0.3L598.9,395.4z"/>
		<path class="st3" d="M607.7,431.5c-0.1,0.3-0.2,0.6-0.3,0.9l0,0c-0.1,0.3-0.3,0.6-0.5,0.9c-0.5,0.9-1.1,2-1.8,3
			c-0.8,1.3-1.4,4.5-1.3,7.4c0.1,1.5,0.7,3.5,0.8,4.6s-0.2,2.3-2,2.3c-1.5,0-2.2-1.5-2.2-2.6s1.5-2.9,1.2-4.8
			c-0.1-0.5-0.6-2.9-0.6-3.5c-0.3-1-0.8-2-1.7-2.7c-0.6-0.5-1.8,0-2.8,0.2s-2.3-0.1-2.9,0.2s-1.7,1.9-1.5,2.9c0.2,1.5,0.2,3,0.2,4.5
			c0,0.8-0.7,2.1-0.8,3.6c0,1.2,0.9,2.2,1.3,3.2c0.1,0.2,0.1,0.3,0.2,0.5c0,0.2,0,0.4,0,0.6c-0.1,1-0.9,2.1-1,3.6
			c-0.1,1.8,2.8,8.5-1.1,8.5s-0.9-7.2-0.6-8.1c0.2-0.7-0.6-3.2-1.4-5.6l-0.4-1.2c-0.2-0.6-0.3-1.2-0.4-1.7c-0.5-1.8-0.3-3.8,0.4-5.6
			c0.3-0.5-0.1-2.6-0.1-3.2s0.6-2.8,0.3-4c-0.3-0.9-1.4-1.7-2.2-2.9c-0.2-0.3-0.4-0.6-0.5-0.9l1.1-0.1l1.2-0.2l1.8-0.2l0.4,0.5
			l1.2,1.5l0.3,0h0.6c1.1,0,2.3-0.1,3.3-0.3l0.4-0.1l1.6-0.4l0.7-0.2l0.8-0.2c0.8-0.2,1.6-0.3,2.4-0.4h0.3h0.6h0.2h0.1l0.7-0.4
			L607.7,431.5z"/>
	</g>
</g>
</svg>
