<svg xmlns="http://www.w3.org/2000/svg" width="2.8in" height="86.4" viewBox="0 0 201.1 65.1"><path fill="#643510" d="M153.2 18.2c-10.8 3-19.4 7.6-25.7 11s-9.5 5-11.6 4.5c-3.9-1-5.2-10.9-5.2-10.9-.7 3.9-.9 12.5 4.4 13.9l1.4.2a10.7 10.7 0 0 0 3.2-.6c-.1 4.5.5 16 8.8 22s17.8 6.9 26.9 6.9a52.4 52.4 0 0 0 10.8-1c7.4-1.6 27.5-10.4 28.5-20.5a28.3 28.3 0 0 0-9.6-24.3 132.2 132.2 0 0 1 15.9 2.4s-20.5-11.1-47.8-3.6zm38.6 25.1c-.8 7.3-17.4 15.9-26.1 17.8s-26.2 1.2-35.2-5.4-7.6-19-7.5-20.8l6-3c6.2-3.3 14.6-7.7 25.1-10.7 8.1-2.3 17.4-2.7 25.6-2.2 8.6 5.7 13.1 14.7 12.1 24.3z"/><path fill="#b21e28" d="M191.8 43.3c-.8 7.3-17.4 15.9-26.1 17.8s-26.2 1.2-35.2-5.4-7.6-19-7.5-20.8l6-3c6.2-3.3 14.6-7.7 25.1-10.7 8.1-2.3 17.4-2.7 25.6-2.2 8.6 5.7 13.1 14.7 12.1 24.3z"/><path fill="#643510" d="M123.2 21.2s5-14 31.7-19.6 39.7 4.7 39.7 4.7c-35.2-15.1-71 14.6-71.4 14.9zM0 21.8a132.2 132.2 0 0 1 15.9-2.4 28.3 28.3 0 0 0-9.7 24.2c1.1 10.1 21.1 18.9 28.6 20.5a52.4 52.4 0 0 0 10.8 1c9.1 0 19.9-1.8 26.9-6.9s8.9-17.5 8.8-22a10.7 10.7 0 0 0 3.2.6l1.4-.2c5.4-1.3 5.2-9.9 4.4-13.9 0 0-1.3 9.9-5.2 10.9-2 .5-6.2-1.7-11.6-4.5s-14.9-8-25.7-11C20.6 10.7 0 21.8 0 21.8zM21.4 19c8.2-.4 17.5-.1 25.6 2.2 10.5 3 18.9 7.5 25.1 10.7l6 3c.1 1.8.7 14.9-7.5 20.8S44.3 63 35.4 61.1 10.1 50.6 9.3 43.3c-1-9.6 3.5-18.6 12.1-24.3z"/><path fill="#b21e28" d="M9.3 43.3c.8 7.3 17.4 15.9 26.1 17.8s26.2 1.2 35.2-5.4 7.6-19 7.5-20.8l-6-3C66 28.6 57.5 24.2 47 21.2c-8.1-2.3-17.4-2.7-25.6-2.2-8.6 5.7-13.1 14.7-12.1 24.3z"/><path fill="#643510" d="M77.8 21.2s-5-14-31.7-19.6S6.4 6.2 6.4 6.2c35.2-15 71.1 14.7 71.4 15zM100.5 37a1.4 1.4 0 0 1-1.4-1.5l.4-5.1a1.4 1.4 0 0 0 0-.2l-.4-5.2a1.4 1.4 0 0 1 1.4-1.5 1.4 1.4 0 0 1 1.4 1.5l-.5 5.1a1.4 1.4 0 0 0 0 .3l.5 5.1a1.4 1.4 0 0 1-1.4 1.5z"/></svg>