<svg id="Layer_1" data-name="Layer 1" xmlns="http://www.w3.org/2000/svg" viewBox="0 0 100 100"><defs><style>.cls-1{fill:#ddd;}</style></defs><title>awr-logo</title><g id="Layer_8" data-name="Layer 8"><polygon class="cls-1" points="68.84 26.81 68.83 26.82 55.17 73.15 69 73.15 82.67 26.82 82.67 26.81 68.84 26.81"/><polygon class="cls-1" points="0 73.15 13.67 73.15 20.03 51.59 13.19 28.42 0 73.15"/><polygon class="cls-1" points="61.37 48.39 55.63 28.21 48.79 51.41 54.62 71.28 61.37 48.39"/><polygon class="cls-1" points="27.41 26.85 27.41 26.86 41.07 73.19 27.49 73.19 27.49 73.19 27.5 73.19 13.84 26.86 13.83 26.85 27.41 26.85"/><polygon class="cls-1" points="35.05 48.16 41.11 26.82 55 26.82 41.87 71.31 41.85 71.24 35.05 48.16"/><polygon class="cls-1" points="16.73 66.57 24.43 66.57 22.09 58.65 19.07 58.65 16.73 66.57"/><path class="cls-1" d="M88.38,46.15a6.1,6.1,0,0,1-.77,1.51l0,0c-.1.15-.21.29-.33.43l-.06.06-.33.35-.13.12a3.64,3.64,0,0,1-.31.26l-.24.17-.24.17q-.25.17-.52.3l-8.58,4.36h0l2.1,7.15L82.5,73.15H96.33L92.08,58.68Z"/><path class="cls-1" d="M100,44.14c0-.39,0-.79,0-1.16a1.05,1.05,0,0,0,0-.22v-.07c0-.36-.07-.71-.12-1.07v-.08c-.06-.38-.13-.76-.21-1.13l-.06-.24c-.08-.35-.17-.69-.26-1l0-.07c-.12-.38-.24-.74-.38-1.1l-.06-.15a17.26,17.26,0,0,0-1-2.14h0a17.39,17.39,0,0,0-8-7.35,17.19,17.19,0,0,0-2.43-.88,24.26,24.26,0,0,0-3.54-.6l-.55,1.86-2.91,9.88a6,6,0,0,1,8.23,4.17c0,.17.07.34.1.51L93,58a17.32,17.32,0,0,0,6.25-8.89h0c.11-.36.2-.73.29-1.1l0-.17c.08-.38.16-.76.22-1.15v-.08c0-.35.09-.7.12-1,0-.1,0-.19,0-.29,0-.38,0-.77,0-1.15h0Z"/></g></svg>