<svg id="Layer_1" data-name="Layer 1" xmlns="http://www.w3.org/2000/svg" viewBox="0 0 612 792"><defs><style>.cls-1{fill:#fff;}.cls-2{fill:#643510;}.cls-3{fill:#b21e28;}</style></defs><title>cujo-color</title><rect class="cls-1" width="612" height="792"/><path class="cls-1" d="M460.57,424.74c-2.14,5.8-7.4,14-13.49,23.43-3.9,6-8.08,12.54-12,19.24-8.59,14.76-15.69,30.39-15,44.14L417,513.92l-18.16,4.55-7.26-6.84-26.93,7.71-19.25-10.72-13.11,6.63-18.38-1.79L290,525.42l-11.7-2.19-13.67,5.9-8,6.88v-8L244,512.77l-21,2.7-17.43-4.91-9.43-7.85c-1.07-10.67-9.38-24.39-18.65-37.8-2.7-4-5.52-7.89-8.25-11.72-7.89-11-15.35-21.44-17.95-28.47-4.07-11-3.19-17.9-2.35-24.52a41.41,41.41,0,0,0,.48-10.67l4.85-4.21,10.64-9.15,19.42,5.62L203.9,360.1l21.21,2.33,18.43-15.34,4.65.57a9.17,9.17,0,0,0,3.39,9.88c3.28,2.69,6.81,3.15,10.55,3.6a35.51,35.51,0,0,1,12.21,3.29,44.89,44.89,0,0,1,4.63,3.28c6.18,4.72,18.13,11.65,26.54,11.65,7.94,0,15.1-6.67,21.52-11.25a45.17,45.17,0,0,1,5.42-3.54,88,88,0,0,1,10.3-2.28c5-.85,8.93-1.55,12.83-4.75a9.14,9.14,0,0,0,3.37-5.21l9.37,4.74,16.8-1.37,6.65,12.9,17.65-6.84,8.67-24,6.71-3.92-3.34,9.29,2.55,9.88-5.21,14.57,21.26,1L451.58,381l7.18,3,4.37,1.83a63,63,0,0,0,.26,11C464,404.63,464.75,413.47,460.57,424.74Z"/><path class="cls-2" d="M416.43,401.29c5.61,20-.82,43.3-18.83,67.72-2.78,3.8-4.05,10.78-5.4,18.15-2.62,14.48-5.91,32.47-23,38.61-16.16,5.81-30.56,1.86-43.25-1.61-7.09-1.94-13.76-3.77-20.06-3.77s-13,1.83-20,3.77c-8,2.19-16.69,4.56-26.07,4.56a50.26,50.26,0,0,1-17.18-3c-17.08-6.14-20.34-24.14-23-38.61-1.33-7.37-2.6-14.35-5.4-18.15-18-24.44-24.44-47.71-18.81-67.72a134.52,134.52,0,0,0-17.84,7.19c1.43-1.07,25.64-18.71,50.49-17.61,8.95.41,17.51,3.7,25.77,6.88,15.78,6.07,30.71,11.77,49.52.13v-4.66a9.93,9.93,0,0,1,2.19-6.19l.36-.43.36.43a9.78,9.78,0,0,1,2.19,6.19v4.66c18.83,11.65,33.77,5.94,49.52-.13,8.28-3.19,16.82-6.47,25.77-6.88,24.85-1.1,49.06,16.54,50.49,17.61A135.07,135.07,0,0,0,416.43,401.29Z"/><path class="cls-1" d="M386.28,426.32c-3.59,19.75-18.73,27.5-18.73,27.5s2.32-23.83,0-29.08c-1-2.24-3-5.4-4.66-9C359.49,429.91,352,434.22,352,434.22s-6.7-2.34-9.94-15.22c-2.65,13-9,15.22-9,15.22s-4.79-1.84-7.8-11.29c-3.36,12.74-9.81,14.93-9.81,14.93s-5.81-2.22-9.28-13.76c-3.39,11-8.95,13.15-8.95,13.15s-6.17-2.09-9.46-14.22c-3,9.38-7.77,11.19-7.77,11.19s-6.32-2.17-9-15.24c-3.24,12.9-9.94,15.24-9.94,15.24s-7.37-4.66-10.83-18.66c-1.68,3.64-3.75,6.88-4.74,9.17-2.32,5.25,0,29.05,0,29.05s-15.14-7.72-18.73-27.47a42.85,42.85,0,0,1,5.45-29.92,80.18,80.18,0,0,1,16.29,4.79c1.17.43,2.34.87,3.52,1.33.23.08.43.18.66.25a117.71,117.71,0,0,0,17.18,5.56c.89.2,1.78.38,2.68.56a52.1,52.1,0,0,0,8.74.79c1.5,0,3-.08,4.54-.23s2.8-.36,4.23-.64a47.2,47.2,0,0,0,13.51-5.12c.76-.41,1.55-.87,2.34-1.35.94.59,1.86,1.12,2.78,1.61A46.84,46.84,0,0,0,323,409a40,40,0,0,0,4.18.54c1.12.08,2.24.13,3.36.13a50.69,50.69,0,0,0,9.91-1c.92-.18,1.81-.38,2.7-.61a127.38,127.38,0,0,0,16.64-5.53c.23-.08.43-.18.66-.25l4-1.53a73.21,73.21,0,0,1,16.18-4.49A42.89,42.89,0,0,1,386.28,426.32Z"/><path class="cls-1" d="M378.71,512.28A22.61,22.61,0,0,1,367.52,521a43.09,43.09,0,0,1-8.61,2.17c-.94.15-1.89.25-2.83.33a60.42,60.42,0,0,1-18.66-1.63l-.54-.13c-3.24-.74-6.4-1.61-9.56-2.47-.79-.2-1.55-.43-2.32-.64-1.35-.36-2.68-.71-4-1a71.61,71.61,0,0,0-12.11-2.17c-1-.05-2-.1-3-.1-.59,0-1.15,0-1.73.05a61.84,61.84,0,0,0-12.13,1.91c-1.3.31-2.63.66-4,1-1.17.31-2.34.64-3.54,1-2.75.76-5.5,1.5-8.31,2.19l-2.22.51a61.66,61.66,0,0,1-17,1.61q-1.41-.08-2.83-.23a46.61,46.61,0,0,1-9.84-2.34,22.26,22.26,0,0,1-9.63-6.65,46.35,46.35,0,0,1-.36-17.36c3.26-19.75,17.05-27.47,17.05-27.47s-2.09,23.83,0,29.08c.92,2.29,2.8,5.53,4.36,9.17,3.13-14,9.86-18.68,9.86-18.68s6.09,2.34,9,15.27c2.4-13.1,8.18-15.27,8.18-15.27s4.33,1.84,7.06,11.24c3-12.16,8.64-14.25,8.64-14.25s4.92,2.06,8,12.72c3.06-10.65,8-12.72,8-12.72s5.63,2.09,8.64,14.25c2.73-9.4,7.06-11.24,7.06-11.24s5.76,2.17,8.18,15.16c2.93-13,9-15.32,9-15.32s6.73,4.66,9.86,18.66c1.53-3.64,3.39-6.88,4.31-9.15,2.12-5.28,0-29.08,0-29.08s13.79,7.72,17.08,27.47A46.86,46.86,0,0,1,378.71,512.28Z"/><path class="cls-1" d="M419.11,518.34,400.52,523l.74,7.22-3,3.91,3.21,16.58-3.48-8.3-2-6.17-3.5,2.49-7.15,1.7,6.79-4.13,5.21-5.9-1.61-8.25L390.25,517,364,524.5,345.27,514l-12.07,6.14-18.4-1.8-24.09,12-11.87-2.21-12,5.16-15.09,13.24V529.78L242,517.88l-19.36,2.49-19.36-5.47-10.56-8.78c1.44,38.91,18.71,88.55,43,101.64,18.3,9.86,37.21,20.06,102.53,18.74l7-5.95-5.28-.7-5.23-7-4.32-5.78v0l-2.88-4.94-2.88-12.33,4.7,9.36,4.05,5.33,4.34,4.44,4.82,6.45,8.66,1.13,14.44,1.34C393.2,609.35,424.51,562.6,426,513Zm-69.57,78.25a6.8,6.8,0,1,1,6.79-6.79A6.78,6.78,0,0,1,349.54,596.59Z"/><path class="cls-1" d="M419.9,144.86c-40.3-23.2-89.65-35-132.3-31.57L280.76,125l-5.09,8.64,7.15,7.12,3.5,8-5.71-7.32-6.79-4.51-4.27,5.85-8.49,5.81,7.1-9.09,8.28-16.82-10.63-5.78c-6.26,1.92-41.45,12.81-60.31,20.61-19.86,8.25-76.79,48.22-77.68,121.36a348.59,348.59,0,0,0,3,46.11c.58,4.85,1.2,9.57,1.8,14.13.41,3.17.82,6.29,1.2,9.31,3.67,29.24,7.75,51.41,9.43,60.12l9.55-8.23,10.94-9.45,19,5.52,18.62-20.61c.48-2.64,1.63-9.14,2.54-14.15l-7.1-8.06L199,320.66,190.63,305c-12.88-5.93-27.4-15.57-28.52-26.17-1.51-14.27,4-27.85,15-37.69a210.53,210.53,0,0,0-24.61,3.77c1.44-.77,32.91-17,74.37-5.57,16.79,4.63,30.13,11.87,39.92,17,8.28,4.37,14.8,7.8,18,7,6-1.51,8.06-16.89,8.06-16.89,1.1,6.12,1.46,19.46-6.91,21.54a8.83,8.83,0,0,1-2.14.24,16.6,16.6,0,0,1-5-.94c.17,7-.79,24.9-13.65,34.19-10.89,7.87-27.68,10.7-41.77,10.7-2,0-3.93,0-5.81-.17l-13.82,9.57-1.73,10.46,7.12,8.08-.22,1.15c-1.39,7.8-2.14,12-2.57,14.23l17.32,1.9,18.47-15.35,8.76,1.08,19.31-20.42,16.1,4.05,20.54-16.41,12.14,8L337.83,321l11.37,21,20.08,10.12,18.64-1.51,6.14,11.9,11.59-4.49,8.49-23.53,13.31-7.75,3.43-10.58,9.93-4.73,12.38-5.88-12.33,9.31-6,4.49-1.15,3.72-7.27,20.3,2.54,9.88-3.53,9.86,16.72.79,12.19,13,5.69,2.4,9.69,4.08c1.7-10.46,7.48-46.35,10.87-76.6,1.56-13.87,2.59-26.53,2.52-35-.14-15.62-4.41-43.06-16-68.9C455.77,177.3,437.65,155.08,419.9,144.86Z"/><circle class="cls-3" cx="272.56" cy="557.11" r="6.8"/><circle class="cls-3" cx="309.35" cy="197.48" r="6.8"/><circle class="cls-3" cx="361.6" cy="183.88" r="6.8"/><circle class="cls-3" cx="406.05" cy="170.29" r="6.8"/><circle class="cls-3" cx="257.1" cy="183.88" r="6.8"/><circle class="cls-3" cx="212.65" cy="170.29" r="6.8"/><circle class="cls-3" cx="272.56" cy="589.8" r="6.8"/><circle class="cls-3" cx="349.54" cy="589.8" r="6.8"/><circle class="cls-3" cx="349.54" cy="557.11" r="6.8"/><path class="cls-2" d="M390.63,239.31c-16.8,4.63-30.13,11.87-39.92,17-8.28,4.37-14.8,7.8-18,7-6-1.51-8.05-16.89-8.05-16.89-1.1,6.12-1.47,19.46,6.9,21.55a8.83,8.83,0,0,0,2.14.24,16.6,16.6,0,0,0,5-.94c-.17,7,.79,24.9,13.65,34.19,10.89,7.87,27.68,10.7,41.77,10.7A81.46,81.46,0,0,0,411,310.63c11.54-2.49,42.68-16.12,44.33-31.83,1.51-14.27-4-27.85-15-37.69a205.45,205.45,0,0,1,24.66,3.79S433.07,227.62,390.63,239.31Zm60,39c-1.2,11.32-27,24.71-40.59,27.66-13.94,3-40.71,1.82-54.77-8.32-12.64-9.16-11.75-29.46-11.59-32.31,2.73-1.27,5.81-2.9,9.31-4.73,9.6-5.06,22.74-12,39-16.65,12.62-3.62,27.11-4.13,39.82-3.45C445.14,249.39,452.14,263.45,450.58,278.3Z"/><path class="cls-3" d="M450.58,278.3c-1.2,11.32-27,24.71-40.59,27.66-13.94,3-40.71,1.82-54.77-8.32-12.64-9.16-11.75-29.46-11.59-32.31,2.73-1.27,5.81-2.9,9.31-4.73,9.6-5.06,22.74-12,39-16.65,12.62-3.62,27.11-4.13,39.82-3.45C445.14,249.39,452.14,263.45,450.58,278.3Z"/><path class="cls-2" d="M344.09,243.88s7.84-21.83,49.31-30.45c39.66-8.25,61.76,7.23,61.76,7.23C400.37,197.32,344.65,243.42,344.09,243.88Z"/><path class="cls-3" d="M166.88,278.3c.87,8.19,14.62,17.46,27.29,23.07,1.12,4.61,8.12,15.36,8.12,15.36s11.07-6.23,13.81-9.57c14.54,1.11,34.61-1.21,46.14-9.53,12.64-9.16,11.75-29.46,11.59-32.31-2.73-1.27-5.81-2.9-9.31-4.73-9.6-5.06-22.74-12-39-16.65-12.62-3.62-27.11-4.13-39.82-3.45C172.33,249.39,165.32,263.45,166.88,278.3Z"/><path class="cls-2" d="M273.37,243.88s-7.84-21.83-49.31-30.45c-39.66-8.25-61.76,7.23-61.76,7.23C217.1,197.32,272.81,243.42,273.37,243.88Z"/><path class="cls-2" d="M308.84,268.44h0a2.2,2.2,0,0,1-2.19-2.38l.65-7.94a2.2,2.2,0,0,0,0-.36l-.65-7.94a2.2,2.2,0,0,1,2.19-2.38h0a2.2,2.2,0,0,1,2.19,2.4l-.75,7.89a2.2,2.2,0,0,0,0,.41L311,266A2.2,2.2,0,0,1,308.84,268.44Z"/><path class="cls-2" d="M556.93,456.76s2.7,0,2.7-2.11-11.09-17.08-12.59-18-.92-7.8-.92-7.8.31,2.11,3.31,0-.9-7.49-4.51-10.8-7.19-9.59-7.19-9.59,2.39-1.49,2.11-3.29-11.72-14.11-13.8-15.9-3.6-9.29-3.6-10.8,9.88-1.49,9.88-3.39-9.59-12.21-8.39-12.21,5.72-1.2,6-3.54-5.69-9.65-8.08-11.73,0-1.8,0-4-6.31-7.68-6.31-7.68a3.32,3.32,0,0,0,3-3.39c0-3.09-3.6-5.61-6-6.49s.54-2.39-.93-4.51,2.67-3.6,0-5.41-2.41,0-3.33,0-1.48-2.08-2.08-3.88-9.35-5.69-12.35-8.69,0-5.1-2.11-7.78a11.63,11.63,0,0,0-4.89-3.25c.71-8.06,1.1-15.23,1.06-20.77-.14-16.11-4.54-44.31-16.38-70.84-12-26.82-30.42-49.3-49.29-60.18-41.5-23.88-92.48-35.91-136.36-32.09l-1.21.09L279,118.57l-12.65-6.85-.95.28c-.39.12-40.83,12.43-61.68,21.08-20.63,8.55-79.74,50-80.66,125.73a315.44,315.44,0,0,0,1.58,33.83,11.26,11.26,0,0,0-4.58,3.11c-2.08,2.69.89,4.79-2.08,7.77s-11.61,6.93-12.18,8.7-1.21,3.92-2.11,3.92-.61-1.8-3.31,0,1.51,3.28,0,5.39,1.46,3.6-.92,4.52-6,3.4-6,6.49a3.34,3.34,0,0,0,3,3.39s-6.28,5.47-6.28,7.68,2.39,1.91,0,4-8.39,9.4-8.11,11.73,4.8,3.56,6,3.56-8.39,10.33-8.39,12.21,9.88,1.86,9.88,3.37-1.49,9-3.6,10.8-13.47,14.08-13.77,15.91,2.08,3.28,2.08,3.28-3.59,6.31-7.19,9.6-7.5,8.7-4.49,10.8,3.29,0,3.29,0,.61,6.88-.89,7.78-12.62,15.9-12.62,18,2.7,2.11,2.7,2.11-5.69,12.57-2.7,13.78,3,0,3,0,.89,17.7.3,19.19-3.6,9.31-1.8,11.42,3.6,1.77,3.6,1.77,2.89,7.19,5.58,9.28,1.8,13.52,5.72,13.52c3.57,0,2.33-2.05,2.13-2.36,1.13,1,19.17,16.19,29.34,17.64,10.52,1.51,9.9-1.49,10.21,0s8.08,4.8,12.59,4.51,8.11-4.2,8.11-4.2,11.08,4.49,12,3,0-3.59,0-3.59,3-.3,3.88-1.49c0,0,6.25,4.29,11.45,1.34s4.33-7.15,3.9-7.89c2.89-1.32,3.84-6.45.34-8.89,8.11.64,9.31-2.27,9.26-3.7-.12-1.71-1.55-3.65-1-5.16.92,2.86,1.58,5.78,3.22,4.65s2.5-5,.39-14.17c3.53-5.47,4.6-21.16,4.91-28.76,4.83,7.55,8.81,14.87,10.71,21.21l-2.42-2v5.11c0,51.69,23.6,99.16,45.65,111,20.91,11.3,46.64,19.42,93.1,19.42,4,0,8.23,0,12.62-.14l.87,0,11.68-9.9,14.43,1.35.44-.12c36.68-10.81,64.7-70.43,64.29-114.48l0-4.79-6,4.57c.42-7.91,3.39-16.56,7.54-25.28.42,6.51,1.58,17.73,4.83,22.79-2.1,9.14-1.27,13.05.37,14.17s2.33-1.79,3.22-4.65c.61,1.49-.84,3.45-.93,5.16,0,1.43,1.15,4.33,9.26,3.7-3.5,2.44-2.56,7.57.34,8.89-.47.75-1.31,4.94,3.88,7.89s11.44-1.37,11.44-1.37c.92,1.21,3.92,1.52,3.92,1.52s-.92,2.08,0,3.59,12-3,12-3,3.59,3.88,8.08,4.2,12.31-3,12.6-4.47-.3,1.48,10.19,0c10.18-1.48,28.22-16.7,29.34-17.67-.19.31-1.43,2.36,2.16,2.36,3.88,0,3-11.4,5.69-13.49s1.8-7.19,1.8-7.19,1.8.28,3.59-1.8-1.2-9.91-1.79-11.39,4.27-21.3,4.27-21.3,0,1.2,3,0S556.93,456.76,556.93,456.76ZM426,513c-1.54,49.57-32.85,96.32-60.36,104.8l-14.43-1.34-8.65-1.13-4.83-6.45-4.34-4.44-4.06-5.31-4.71-9.35,2.89,12.32,2.87,4.94v0l4.32,5.78,5.22,7,5.28.7-7,6C280,627.89,254,617.64,235.7,607.77c-24.3-13.1-41.56-62.73-43-101.65l10.55,8.78,19.36,5.47L242,517.89l9.82,11.9v16.83l15.09-13.24,12-5.16,11.89,2.21,24.08-12,18.4,1.8L345.28,514,364,524.5,390.26,517l5.47,5.16,1.6,8.25-5.21,5.9-6.79,4.13,7.15-1.71,3.51-2.5,2,6.17,3.48,8.3-3.22-16.56,3-3.92-.75-7.22,18.6-4.68Zm34.52-88.3c-2.14,5.8-7.4,14-13.49,23.43-3.9,6-8.08,12.54-12,19.24-8.59,14.76-15.69,30.39-15,44.14L417,513.92l-18.16,4.55-7.26-6.84-26.93,7.71-19.25-10.72-13.11,6.63-18.38-1.79L290,525.42l-11.7-2.19-13.67,5.9-8,6.88v-8L244,512.77l-21,2.7-17.43-4.91-9.43-7.85c-1.07-10.67-9.38-24.39-18.65-37.8-2.7-4-5.52-7.89-8.25-11.72-7.89-11-15.35-21.44-17.95-28.47-4.07-11-3.19-17.9-2.35-24.52a41.41,41.41,0,0,0,.48-10.67l4.85-4.21,10.64-9.15,19.42,5.62L203.9,360.1l21.21,2.33,18.43-15.34,4.65.57a9.17,9.17,0,0,0,3.39,9.88c3.28,2.69,6.81,3.15,10.55,3.6a35.51,35.51,0,0,1,12.21,3.29,44.89,44.89,0,0,1,4.63,3.28c6.18,4.72,18.13,11.65,26.54,11.65,7.94,0,15.1-6.67,21.52-11.25a45.17,45.17,0,0,1,5.42-3.54,88,88,0,0,1,10.3-2.28c5-.85,8.93-1.55,12.83-4.75a9.14,9.14,0,0,0,3.37-5.21l9.37,4.74,16.8-1.37,6.65,12.9,17.65-6.84,8.67-24,6.71-3.92-3.34,9.29,2.55,9.88-5.21,14.57,21.26,1L451.58,381l7.18,3,4.37,1.83a63,63,0,0,0,.26,11C464,404.63,464.75,413.47,460.57,424.74Zm20.07-117.95c-3.39,30.25-9.17,66.14-10.86,76.6l-9.7-4.07-5.69-2.41L442.22,364l-16.72-.79,3.53-9.87-2.55-9.88,7.27-20.29,1.15-3.73,6-4.47,12.34-9.31-12.38,5.87-9.93,4.72-3.43,10.58-13.32,7.75-8.48,23.52-11.59,4.49-6.14-11.9-18.65,1.52-20.07-10.13-11.37-21-18.92-2.66-12.15-8L287.2,326l-1,.76-1.06-.26-15-3.79-19.31,20.42-8.76-1.07L223.6,357.44l-17.32-1.9c.44-2.24,1.17-6.43,2.56-14.23l.22-1.15-7.13-8.08,1.72-10.46L217.48,312c1.86.12,3.81.17,5.8.17,14.09,0,30.89-2.83,41.78-10.69,12.85-9.29,13.81-27.24,13.64-34.18a16.89,16.89,0,0,0,5,.93,8.81,8.81,0,0,0,2.14-.25c8.37-2.08,8-15.41,6.9-21.54,0,0-2,15.37-8,16.89-3.17.76-9.7-2.67-18-7-9.79-5.16-23.12-12.4-39.92-17-41.45-11.42-72.93,4.8-74.36,5.56a212.33,212.33,0,0,1,24.61-3.76c-11,9.84-16.49,23.42-15,37.69,1.13,10.6,15.65,20.25,28.53,26.17L199,320.67l-2.14,12.88,7.1,8.06c-.9,5-2.05,11.51-2.53,14.15l-18.61,20.6-19-5.52-10.94,9.45-9.56,8.24c-1.68-8.72-5.75-30.87-9.43-60.13-.37-3-.78-6.14-1.2-9.31-.59-4.55-1.21-9.28-1.8-14.12a350.05,350.05,0,0,1-3-46.12c.89-73.14,57.82-113.1,77.67-121.35,18.86-7.8,54.06-18.69,60.32-20.62l10.63,5.78-8.28,16.83-7.1,9.09,8.5-5.81,4.27-5.86,6.79,4.52,5.7,7.32-3.5-8-7.15-7.12,5.08-8.64,6.84-11.73c42.65-3.39,92,8.37,132.3,31.57,17.74,10.21,35.86,32.43,47.28,58,11.56,25.84,15.83,53.28,16,68.91C483.24,280.27,482.21,292.93,480.64,306.79Zm-286.45-5.42c-12.69-5.61-26.45-14.89-27.3-23.07-1.57-14.85,5.44-28.9,18.8-37.8,12.71-.67,27.21-.17,39.82,3.45,16.27,4.66,29.41,11.59,39,16.66,3.5,1.82,6.57,3.45,9.31,4.72.16,2.86,1.06,23.15-11.59,32.32-11.54,8.31-31.6,10.63-46.13,9.52l-13.83,9.57Z"/><path class="cls-1" d="M327.68,343.25c4.12-1.51-5.17-18.66-7.54-17.56S319.08,346.4,327.68,343.25Z"/><path class="cls-1" d="M287.87,331.67c-.38,5.88-2.88,13.65-8.54,11.59-2.52-.91,0-7.65,2.81-12.52l5.25,1.32Z"/><path class="cls-3" d="M332.27,515.26a19.2,19.2,0,0,1-1.68,4.66s0,.12-.11.17c-.62,1.38-1.43,3-2.35,4.65-2.49,4.58-5.8,10-9,15.15-4.1,6.46-7.1,22.62-6.53,37.71.31,7.64,3.29,17.88,3.87,23.24s-.75,11.68-10.05,11.7c-7.35,0-11.23-7.63-11.23-13.38,0-6.35,7.8-14.51,6.08-24.21-.45-2.56-2.94-14.61-2.94-17.85s-5.17-11.37-8.44-13.64-9.4,0-14,1-11.68-.34-14.61,1.29-8.78,9.74-7.8,14.62,1,18.52,1,22.64-3.57,10.8-3.92,18.12c-.26,6.23,4.41,11.17,6.71,16.11a12.4,12.4,0,0,1,1,2.55,8.32,8.32,0,0,1,.19,2.91c-.47,5-4.68,10.6-4.94,18.21-.31,9.09,14,43.19-5.52,43.19s-4.55-36.36-3.23-41.24c.9-3.4-3.2-16.19-6.88-28.57-.65-2.16-1.27-4.29-1.9-6.35-.87-3.06-1.63-6-2.25-8.58-3.39-14.62.62-26,1.91-28.26s-.31-13.32-.31-16.25,3.23-14.29,1.63-20.12c-1.34-4.77-7.23-8.51-11.44-14.68a26,26,0,0,1-2.53-4.54l5.67-.71,6-.79,9.35-1.2,2.21,2.66,6.28,7.63a16.9,16.9,0,0,0,1.71.26c.93.09,1.9.17,2.83.22a61.88,61.88,0,0,0,17-1.6l2.21-.51c2.81-.7,5.56-1.41,8.3-2.18l3.56-1c1.34-.36,2.69-.68,4-1a59.74,59.74,0,0,1,12.12-1.93c.59,0,1.15,0,1.74,0,1,0,2,0,3,.09.31,0,.62,0,.93.09l.36-.16,3.7-1.85Z"/></svg>