<svg id="Layer_1" data-name="Layer 1" xmlns="http://www.w3.org/2000/svg" viewBox="0 0 612 792"><defs><style>.cls-1{fill:#fff;}.cls-2{fill:#2e2a25;}</style></defs><title>cujo-bw</title><rect class="cls-1" width="612" height="792"/><path class="cls-1" d="M421.89,294.12c-1.61,4.35-5.55,10.46-10.11,17.57-2.92,4.53-6.06,9.4-9,14.42-6.44,11.07-11.77,22.79-11.27,33.1L389.22,361,375.6,364.4l-5.44-5.13L350,365.05l-14.43-8-9.83,5-13.78-1.34-17.92,9L285.23,368,275,372.39l-6,5.16v-6l-9.45-11.45-15.76,2-13.07-3.68-7.07-5.88c-.8-8-7-18.29-14-28.34-2-3-4.14-5.92-6.19-8.78-5.92-8.27-11.51-16.08-13.46-21.34-3.05-8.28-2.39-13.42-1.76-18.38a31,31,0,0,0,.36-8l3.63-3.16,8-6.86,14.56,4.22,14.69-16.28,15.9,1.75,13.82-11.5,3.48.43a6.87,6.87,0,0,0,2.54,7.41c2.46,2,5.1,2.36,7.91,2.7a26.62,26.62,0,0,1,9.16,2.47,33.66,33.66,0,0,1,3.47,2.46c4.64,3.54,13.6,8.74,19.9,8.74,6,0,11.32-5,16.14-8.43a33.87,33.87,0,0,1,4.07-2.66,66,66,0,0,1,7.72-1.71c3.75-.64,6.7-1.17,9.62-3.56a6.86,6.86,0,0,0,2.53-3.9l7,3.55,12.59-1,5,9.67,13.23-5.13,6.5-18,5-2.94-2.5,7,1.91,7.41-3.9,10.93,15.94.76,8.64,9.22,5.38,2.26,3.27,1.37a47.25,47.25,0,0,0,.2,8.27C424.48,279,425,285.67,421.89,294.12Z"/><path class="cls-2" d="M388.8,276.54c4.2,15-.61,32.47-14.12,50.77-2.08,2.85-3,8.08-4.05,13.61-2,10.85-4.43,24.35-17.22,29-12.12,4.36-22.91,1.39-32.43-1.2-5.31-1.45-10.32-2.83-15-2.83s-9.73,1.38-15,2.83c-6,1.64-12.52,3.42-19.55,3.42a37.68,37.68,0,0,1-12.88-2.22c-12.8-4.61-15.25-18.1-17.24-29-1-5.52-1.95-10.76-4.05-13.61-13.49-18.33-18.33-35.77-14.1-50.77a100.86,100.86,0,0,0-13.38,5.39c1.07-.8,19.22-14,37.86-13.2,6.71.31,13.13,2.77,19.32,5.16,11.83,4.55,23,8.83,37.13.1v-3.5a7.44,7.44,0,0,1,1.64-4.64l.27-.32.27.32a7.33,7.33,0,0,1,1.64,4.64V274c14.12,8.73,25.32,4.45,37.13-.1,6.21-2.39,12.61-4.85,19.32-5.16,18.63-.82,36.79,12.4,37.86,13.2A101.28,101.28,0,0,0,388.8,276.54Z"/><path class="cls-1" d="M366.19,295.3a29.74,29.74,0,0,1-14,20.62s1.74-17.87,0-21.8c-.73-1.68-2.24-4.05-3.5-6.73-2.54,10.61-8.18,13.84-8.18,13.84s-5-1.76-7.45-11.41c-2,9.78-6.73,11.41-6.73,11.41s-3.59-1.38-5.85-8.47c-2.52,9.55-7.36,11.2-7.36,11.2s-4.36-1.66-7-10.32c-2.54,8.27-6.71,9.86-6.71,9.86s-4.62-1.57-7.09-10.66c-2.25,7-5.83,8.39-5.83,8.39s-4.74-1.62-6.73-11.43c-2.43,9.67-7.45,11.43-7.45,11.43s-5.52-3.5-8.12-14c-1.26,2.73-2.81,5.16-3.55,6.88-1.74,3.94,0,21.78,0,21.78a29.68,29.68,0,0,1-14-20.6,32.13,32.13,0,0,1,4.09-22.43,60.12,60.12,0,0,1,12.21,3.59c.88.32,1.76.65,2.64,1l.5.19a88.26,88.26,0,0,0,12.88,4.17c.67.15,1.34.29,2,.42a39.07,39.07,0,0,0,6.55.59c1.13,0,2.25-.06,3.4-.17s2.1-.27,3.17-.48a35.39,35.39,0,0,0,10.13-3.84c.57-.31,1.17-.65,1.76-1,.71.44,1.39.84,2.08,1.2a35.12,35.12,0,0,0,10.74,3.8,30,30,0,0,0,3.13.4c.84.06,1.68.1,2.52.1a38,38,0,0,0,7.43-.76c.69-.13,1.36-.29,2-.46a95.51,95.51,0,0,0,12.48-4.15l.5-.19,3-1.15A54.89,54.89,0,0,1,362,272.75,32.16,32.16,0,0,1,366.19,295.3Z"/><path class="cls-1" d="M360.52,359.76a17,17,0,0,1-8.39,6.52,32.31,32.31,0,0,1-6.46,1.62c-.71.11-1.41.19-2.12.25a45.3,45.3,0,0,1-14-1.22l-.4-.1c-2.43-.55-4.8-1.2-7.17-1.85l-1.74-.48c-1-.27-2-.54-3-.78a53.69,53.69,0,0,0-9.08-1.62c-.75,0-1.49-.08-2.24-.08-.44,0-.86,0-1.3,0a46.37,46.37,0,0,0-9.1,1.43c-1,.23-2,.5-3,.76s-1.76.48-2.66.73c-2.06.57-4.13,1.13-6.23,1.64L282,367a46.23,46.23,0,0,1-12.75,1.2q-1.06-.06-2.12-.17a35,35,0,0,1-7.38-1.76,16.69,16.69,0,0,1-7.22-5,34.75,34.75,0,0,1-.27-13c2.45-14.81,12.78-20.6,12.78-20.6s-1.57,17.87,0,21.8c.69,1.72,2.1,4.15,3.27,6.88,2.35-10.49,7.4-14,7.4-14s4.57,1.76,6.78,11.45c1.8-9.82,6.13-11.45,6.13-11.45s3.25,1.38,5.29,8.43c2.25-9.12,6.48-10.68,6.48-10.68s3.69,1.55,6,9.54c2.29-8,6-9.54,6-9.54s4.22,1.57,6.48,10.68c2-7.05,5.29-8.43,5.29-8.43s4.32,1.62,6.13,11.37c2.2-9.73,6.78-11.48,6.78-11.48s5,3.5,7.4,14c1.15-2.73,2.54-5.16,3.23-6.86,1.59-4,0-21.8,0-21.8s10.34,5.79,12.8,20.6A35.14,35.14,0,0,1,360.52,359.76Z"/><path class="cls-1" d="M390.81,364.3l-13.94,3.51.56,5.41-2.28,2.93,2.41,12.43-2.61-6.22-1.47-4.62-2.63,1.87-5.36,1.28,5.09-3.09,3.9-4.42-1.21-6.19-4.1-3.87-19.66,5.61-14.07-7.84-9,4.6-13.8-1.35-18.06,9-8.9-1.65-9,3.87-11.31,9.93V372.88L258,364l-14.52,1.87L229,361.73,221,355.14c1.08,29.18,14,66.39,32.25,76.21,13.72,7.39,27.9,15,76.88,14l5.25-4.46-4-.52-3.92-5.23-3.24-4.33v0l-2.16-3.71L320,417.88l3.53,7,3,4,3.26,3.33,3.62,4.84,6.49.85,10.83,1c20.63-6.37,44.11-41.43,45.26-78.59ZM338.65,423a5.1,5.1,0,1,1,5.09-5.09A5.09,5.09,0,0,1,338.65,423Z"/><path class="cls-1" d="M391.4,84.27c-30.22-17.39-67.22-26.21-99.2-23.67l-5.13,8.8-3.81,6.48,5.36,5.34,2.63,6L287,81.7l-5.09-3.38-3.2,4.39-6.37,4.35,5.32-6.82,6.21-12.61-8-4.34c-4.69,1.44-31.08,9.61-45.22,15.45-14.89,6.19-57.58,36.15-58.24,91a261.37,261.37,0,0,0,2.23,34.57c.43,3.63.9,7.18,1.35,10.59.31,2.37.61,4.71.9,7,2.75,21.93,5.81,38.55,7.07,45.08l7.16-6.17,8.2-7.09,14.28,4.14,14-15.45c.36-2,1.22-6.85,1.91-10.61l-5.32-6,1.6-9.66-6.24-11.76c-9.66-4.44-20.54-11.67-21.39-19.62-1.13-10.7,3-20.88,11.22-28.26a157.86,157.86,0,0,0-18.46,2.82c1.08-.58,24.68-12.74,55.76-4.17,12.59,3.47,22.59,8.9,29.93,12.77,6.21,3.27,11.1,5.85,13.47,5.27,4.51-1.13,6-12.66,6-12.66.83,4.59,1.1,14.59-5.18,16.15a6.62,6.62,0,0,1-1.6.18,12.44,12.44,0,0,1-3.78-.7c.13,5.22-.59,18.67-10.23,25.63-8.17,5.9-20.76,8-31.32,8-1.49,0-2.95,0-4.35-.13l-10.36,7.18-1.3,7.84,5.34,6.06-.16.86c-1,5.85-1.6,9-1.92,10.67l13,1.42,13.85-11.51,6.57.81,14.48-15.31,12.07,3,15.4-12.3,9.1,6,14.19,2,8.53,15.78,15.06,7.59,14-1.13,4.6,8.92,8.69-3.36,6.37-17.65,10-5.81,2.57-7.93,7.45-3.54,9.28-4.41-9.25,7-4.48,3.36-.86,2.79-5.45,15.22,1.91,7.41L395.59,248l12.54.59,9.14,9.71,4.26,1.8,7.27,3.06c1.28-7.84,5.61-34.75,8.15-57.43a245,245,0,0,0,1.89-26.28c-.11-11.71-3.31-32.29-12-51.66C418.3,108.59,404.71,91.93,391.4,84.27Z"/><circle class="cls-2" cx="280.93" cy="393.37" r="5.1"/><circle class="cls-2" cx="308.51" cy="123.72" r="5.1"/><circle class="cls-2" cx="347.69" cy="113.52" r="5.1"/><circle class="cls-2" cx="381.02" cy="103.33" r="5.1"/><circle class="cls-2" cx="269.33" cy="113.52" r="5.1"/><circle class="cls-2" cx="236.01" cy="103.33" r="5.1"/><circle class="cls-2" cx="280.93" cy="417.88" r="5.1"/><circle class="cls-2" cx="338.65" cy="417.88" r="5.1"/><circle class="cls-2" cx="338.65" cy="393.37" r="5.1"/><path class="cls-2" d="M369.46,155.08c-12.6,3.47-22.59,8.9-29.93,12.77-6.21,3.27-11.1,5.85-13.47,5.27-4.51-1.13-6-12.67-6-12.67-.83,4.59-1.1,14.59,5.17,16.16a6.62,6.62,0,0,0,1.6.18,12.44,12.44,0,0,0,3.78-.7c-.13,5.22.59,18.67,10.23,25.63,8.17,5.9,20.76,8,31.32,8a61.08,61.08,0,0,0,12.63-1.19c8.65-1.87,32-12.09,33.24-23.87,1.13-10.7-3-20.88-11.22-28.26a154.05,154.05,0,0,1,18.49,2.84S401.28,146.32,369.46,155.08Zm45,29.23c-.9,8.49-20.27,18.53-30.43,20.74-10.45,2.28-30.52,1.37-41.07-6.24-9.48-6.87-8.81-22.09-8.69-24.23,2.05-1,4.35-2.18,7-3.54,7.2-3.8,17.05-9,29.25-12.48,9.46-2.72,20.33-3.09,29.86-2.59C410.33,162.64,415.58,173.18,414.41,184.31Z"/><path class="cls-2" d="M414.41,184.31c-.9,8.49-20.27,18.53-30.43,20.74-10.45,2.28-30.52,1.37-41.07-6.24-9.48-6.87-8.81-22.09-8.69-24.23,2.05-1,4.35-2.18,7-3.54,7.2-3.8,17.05-9,29.25-12.48,9.46-2.72,20.33-3.09,29.86-2.59C410.33,162.64,415.58,173.18,414.41,184.31Z"/><path class="cls-2" d="M334.56,158.51s5.88-16.37,37-22.83c29.74-6.18,46.31,5.42,46.31,5.42C376.76,123.6,335,158.16,334.56,158.51Z"/><path class="cls-2" d="M201.69,184.31c.65,6.14,11,13.09,20.46,17.3.84,3.45,6.09,11.51,6.09,11.51s8.3-4.67,10.36-7.17c10.9.83,26-.91,34.59-7.14,9.48-6.87,8.81-22.09,8.69-24.23-2.05-1-4.35-2.18-7-3.54-7.2-3.8-17.05-9-29.25-12.48-9.46-2.72-20.33-3.09-29.86-2.59C205.77,162.64,200.52,173.18,201.69,184.31Z"/><path class="cls-2" d="M281.53,158.51s-5.88-16.37-37-22.83c-29.74-6.18-46.31,5.42-46.31,5.42C239.34,123.6,281.12,158.16,281.53,158.51Z"/><path class="cls-2" d="M308.13,176.92h0a1.65,1.65,0,0,1-1.64-1.78l.49-6a1.65,1.65,0,0,0,0-.27l-.49-6a1.65,1.65,0,0,1,1.64-1.78h0a1.65,1.65,0,0,1,1.64,1.8l-.56,5.91a1.65,1.65,0,0,0,0,.31l.56,5.91A1.65,1.65,0,0,1,308.13,176.92Z"/><path class="cls-2" d="M494.15,318.13s2,0,2-1.58-8.32-12.8-9.44-13.49-.69-5.85-.69-5.85.23,1.58,2.48,0-.68-5.62-3.38-8.1a35.86,35.86,0,0,1-5.39-7.19s1.79-1.12,1.58-2.47-8.78-10.58-10.35-11.92-2.7-7-2.7-8.1,7.41-1.12,7.41-2.54-7.19-9.16-6.29-9.16,4.29-.9,4.5-2.66-4.26-7.23-6.06-8.8,0-1.35,0-3-4.73-5.76-4.73-5.76a2.49,2.49,0,0,0,2.25-2.54c0-2.32-2.7-4.21-4.46-4.87s.41-1.79-.7-3.38,2-2.7,0-4.05-1.81,0-2.49,0-1.11-1.56-1.56-2.91-7-4.26-9.26-6.51,0-3.82-1.58-5.84a8.72,8.72,0,0,0-3.67-2.43c.54-6,.83-11.42.79-15.58-.1-12.08-3.4-33.23-12.28-53.11-9-20.11-22.81-37-37-45.12C362.08,63.24,323.86,54.23,291,57.09l-.91.07-4.32,7.39-9.48-5.14-.71.21c-.29.09-30.62,9.32-46.25,15.81-15.47,6.41-59.79,37.49-60.48,94.27A236.52,236.52,0,0,0,170,195.07a8.45,8.45,0,0,0-3.44,2.33c-1.56,2,.66,3.59-1.56,5.83s-8.7,5.2-9.13,6.52-.91,2.94-1.58,2.94-.45-1.35-2.48,0,1.13,2.46,0,4,1.1,2.7-.69,3.39-4.49,2.55-4.49,4.87a2.5,2.5,0,0,0,2.25,2.54s-4.71,4.1-4.71,5.76,1.79,1.43,0,3-6.29,7-6.08,8.8,3.6,2.67,4.5,2.67-6.29,7.75-6.29,9.16,7.41,1.4,7.41,2.53-1.12,6.75-2.7,8.1-10.1,10.56-10.32,11.93,1.56,2.46,1.56,2.46a36.14,36.14,0,0,1-5.39,7.2c-2.69,2.46-5.63,6.52-3.37,8.1s2.47,0,2.47,0,.45,5.16-.66,5.84-9.46,11.92-9.46,13.49,2,1.58,2,1.58-4.26,9.42-2,10.33,2.26,0,2.26,0,.66,13.27.22,14.39-2.7,7-1.35,8.56a3.15,3.15,0,0,0,2.7,1.33s2.17,5.39,4.18,7,1.35,10.14,4.29,10.14c2.68,0,1.75-1.54,1.6-1.77.85.72,14.38,12.14,22,13.22,7.89,1.13,7.42-1.12,7.65,0s6.06,3.6,9.44,3.38,6.08-3.15,6.08-3.15,8.31,3.37,9,2.25a3.43,3.43,0,0,0,0-2.69s2.24-.22,2.91-1.12c0,0,4.68,3.22,8.59,1s3.25-5.36,2.92-5.92c2.17-1,2.88-4.83.26-6.66,6.08.48,7-1.7,6.94-2.77-.09-1.28-1.17-2.74-.72-3.87.69,2.14,1.19,4.33,2.41,3.48s1.88-3.77.29-10.62c2.64-4.1,3.45-15.87,3.68-21.56,3.62,5.66,6.61,11.15,8,15.9l-1.82-1.51v3.83c0,38.76,17.7,74.35,34.23,83.26,15.68,8.47,35,14.56,69.81,14.56,3,0,6.17,0,9.46-.1h.65l8.76-7.42,10.82,1,.33-.09c27.51-8.11,48.51-52.81,48.21-85.84l0-3.59-4.5,3.43c.31-5.93,2.54-12.42,5.65-19,.31,4.88,1.19,13.29,3.62,17.09-1.57,6.85-1,9.79.28,10.62s1.75-1.34,2.41-3.48c.45,1.12-.63,2.59-.7,3.87,0,1.07.86,3.25,6.94,2.77-2.62,1.83-1.92,5.67.26,6.66-.35.56-1,3.7,2.91,5.92s8.57-1,8.57-1c.69.91,2.94,1.14,2.94,1.14a3.32,3.32,0,0,0,0,2.69c.66,1.12,9-2.25,9-2.25s2.69,2.91,6.06,3.15,9.23-2.25,9.45-3.36-.22,1.11,7.64,0c7.63-1.11,21.16-12.52,22-13.25-.14.23-1.07,1.77,1.62,1.77,2.91,0,2.25-8.55,4.26-10.11s1.35-5.39,1.35-5.39a3.19,3.19,0,0,0,2.69-1.35c1.35-1.58-.9-7.43-1.34-8.54s3.2-16,3.2-16,0,.9,2.24,0S494.15,318.13,494.15,318.13ZM396,360.32c-1.15,37.16-24.63,72.22-45.26,78.58l-10.82-1-6.49-.85-3.62-4.83-3.25-3.33-3-4-3.53-7,2.17,9.24,2.16,3.7v0l3.24,4.33,3.91,5.23,4,.52-5.25,4.46c-43.66,1-63.16-6.65-76.88-14.05-18.22-9.82-31.16-47-32.25-76.22l7.91,6.58,14.52,4.1L258,364l7.36,8.92V385.5l11.31-9.93,9-3.87,8.91,1.65,18.06-9,13.79,1.35,9.05-4.6,14.06,7.84,19.67-5.62,4.1,3.87,1.2,6.19-3.9,4.43-5.09,3.1,5.36-1.28,2.63-1.88,1.47,4.63,2.61,6.22-2.41-12.42,2.28-2.94-.56-5.42,13.95-3.51Zm25.89-66.21c-1.61,4.35-5.55,10.46-10.11,17.57-2.92,4.53-6.06,9.4-9,14.42-6.44,11.07-11.77,22.79-11.27,33.1L389.22,361,375.6,364.4l-5.44-5.13L350,365.05l-14.43-8-9.83,5-13.78-1.34-17.92,9L285.23,368,275,372.39l-6,5.16v-6l-9.45-11.45-15.76,2-13.07-3.68-7.07-5.88c-.8-8-7-18.29-14-28.34-2-3-4.14-5.92-6.19-8.78-5.92-8.27-11.51-16.08-13.46-21.34-3.05-8.28-2.39-13.42-1.76-18.38a31,31,0,0,0,.36-8l3.63-3.16,8-6.86,14.56,4.22,14.69-16.28,15.9,1.75,13.82-11.5,3.48.43a6.87,6.87,0,0,0,2.54,7.41c2.46,2,5.1,2.36,7.91,2.7a26.62,26.62,0,0,1,9.16,2.47,33.66,33.66,0,0,1,3.47,2.46c4.64,3.54,13.6,8.74,19.9,8.74,6,0,11.32-5,16.14-8.43a33.87,33.87,0,0,1,4.07-2.66,66,66,0,0,1,7.72-1.71c3.75-.64,6.7-1.17,9.62-3.56a6.86,6.86,0,0,0,2.53-3.9l7,3.55,12.59-1,5,9.67,13.23-5.13,6.5-18,5-2.94-2.5,7,1.91,7.41-3.9,10.93,15.94.76,8.64,9.22,5.38,2.26,3.27,1.37a47.25,47.25,0,0,0,.2,8.27C424.48,279,425,285.67,421.89,294.12Zm15.05-88.44c-2.54,22.68-6.87,49.59-8.14,57.44l-7.27-3.05-4.26-1.81-9.13-9.7L395.6,248l2.64-7.4-1.91-7.41,5.45-15.22.86-2.8,4.47-3.36,9.25-7-9.29,4.4-7.44,3.54-2.57,7.93-10,5.81-6.36,17.64L372,247.5l-4.6-8.92-14,1.14-15.05-7.6-8.53-15.77-14.19-2-9.11-6L291.9,220.11l-.72.57-.79-.2-11.28-2.84L264.63,233l-6.57-.8-13.84,11.51-13-1.42c.33-1.68.87-4.82,1.92-10.67l.16-.86L228,224.65l1.29-7.84,10.37-7.19c1.4.09,2.85.13,4.35.13,10.57,0,23.16-2.12,31.33-8,9.63-7,10.36-20.42,10.23-25.63a12.66,12.66,0,0,0,3.77.7,6.6,6.6,0,0,0,1.61-.19c6.28-1.56,6-11.56,5.17-16.15,0,0-1.53,11.52-6,12.66-2.38.57-7.27-2-13.48-5.28-7.34-3.87-17.34-9.3-29.93-12.77-31.08-8.56-54.69,3.6-55.76,4.17a159.2,159.2,0,0,1,18.45-2.82,32.93,32.93,0,0,0-11.23,28.26c.85,7.95,11.73,15.18,21.39,19.62l6.24,11.77-1.61,9.66,5.32,6c-.68,3.75-1.54,8.63-1.9,10.61l-14,15.45-14.28-4.14-8.2,7.08L184,267c-1.26-6.54-4.31-23.15-7.07-45.09-.28-2.26-.58-4.6-.9-7-.44-3.41-.91-7-1.35-10.59a262.47,262.47,0,0,1-2.23-34.58c.66-54.84,43.35-84.8,58.24-91,14.14-5.85,40.53-14,45.23-15.46l8,4.33-6.21,12.62-5.32,6.82,6.37-4.36,3.2-4.39L287,81.7l4.28,5.49-2.62-6-5.36-5.34,3.81-6.48,5.13-8.8c32-2.54,69,6.28,99.2,23.67,13.3,7.65,26.89,24.31,35.45,43.47,8.67,19.37,11.87,39.95,12,51.67A241.67,241.67,0,0,1,436.95,205.68Zm-214.78-4.07c-9.52-4.21-19.83-11.16-20.47-17.3-1.18-11.14,4.08-21.67,14.1-28.34,9.53-.5,20.4-.13,29.86,2.59,12.2,3.5,22.05,8.69,29.25,12.49,2.62,1.36,4.93,2.59,7,3.54.12,2.14.79,17.36-8.69,24.23-8.66,6.23-23.7,8-34.59,7.14l-10.37,7.18Z"/><path class="cls-1" d="M322.26,233c3.09-1.13-3.88-14-5.66-13.16S315.8,235.38,322.26,233Z"/><path class="cls-1" d="M292.41,224.33c-.29,4.41-2.16,10.23-6.4,8.69-1.89-.68,0-5.74,2.1-9.39l3.94,1Z"/><path class="cls-2" d="M325.7,362a14.39,14.39,0,0,1-1.26,3.5s0,.09-.08.13c-.47,1-1.07,2.21-1.76,3.48-1.86,3.44-4.35,7.53-6.78,11.36-3.08,4.85-5.32,17-4.89,28.28.23,5.73,2.47,13.41,2.9,17.43s-.56,8.76-7.54,8.77c-5.51,0-8.42-5.72-8.42-10,0-4.76,5.85-10.88,4.56-18.15-.34-1.92-2.2-11-2.2-13.39s-3.88-8.53-6.33-10.23-7,0-10.47.73-8.76-.26-11,1-6.58,7.3-5.85,11,.75,13.89.75,17-2.68,8.1-2.94,13.58c-.2,4.67,3.31,8.38,5,12.08a9.3,9.3,0,0,1,.72,1.91,6.24,6.24,0,0,1,.14,2.18c-.35,3.77-3.51,7.95-3.7,13.65-.23,6.82,10.47,32.39-4.14,32.39s-3.41-27.26-2.42-30.92c.68-2.55-2.4-12.14-5.16-21.42-.49-1.62-1-3.22-1.42-4.76-.65-2.3-1.22-4.47-1.69-6.43-2.54-11,.47-19.49,1.43-21.19s-.23-10-.23-12.19,2.42-10.72,1.22-15.09c-1-3.58-5.42-6.38-8.57-11a19.46,19.46,0,0,1-1.9-3.4l4.25-.54,4.5-.59,7-.9,1.65,2,4.71,5.72a12.67,12.67,0,0,0,1.28.2c.7.07,1.42.13,2.12.16A46.4,46.4,0,0,0,282,367l1.65-.38c2.11-.52,4.17-1.06,6.22-1.63l2.67-.75c1-.27,2-.51,3-.75a44.79,44.79,0,0,1,9.09-1.44c.44,0,.86,0,1.3,0,.75,0,1.5,0,2.24.07.23,0,.47,0,.7.07l.27-.12,2.77-1.39Z"/><path class="cls-1" d="M268.53,638.2c-.8,2.17-2.77,5.23-5.06,8.78-1.46,2.27-3,4.7-4.49,7.21-3.22,5.53-5.88,11.39-5.63,16.55l-1.17.89-6.81,1.71-2.72-2.56-10.09,2.89-7.22-4-4.92,2.49-6.89-.67-9,4.48-4.39-.82-5.13,2.21-3,2.58v-3l-4.72-5.73-7.88,1-6.54-1.84-3.54-2.94c-.4-4-3.52-9.15-7-14.17-1-1.49-2.07-3-3.09-4.39-3-4.14-5.76-8-6.73-10.67a16.93,16.93,0,0,1-.88-9.19,15.52,15.52,0,0,0,.18-4l1.82-1.58,4-3.43,7.28,2.11,7.35-8.14,8,.87,6.91-5.75,1.74.22a3.44,3.44,0,0,0,1.27,3.7,7,7,0,0,0,4,1.35,13.31,13.31,0,0,1,4.58,1.23,16.83,16.83,0,0,1,1.74,1.23c2.32,1.77,6.8,4.37,9.95,4.37,3,0,5.66-2.5,8.07-4.22a16.93,16.93,0,0,1,2-1.33,33,33,0,0,1,3.86-.86,9.24,9.24,0,0,0,4.81-1.78,3.43,3.43,0,0,0,1.26-2l3.51,1.78,6.3-.51,2.49,4.83,6.62-2.56,3.25-9,2.52-1.47-1.25,3.48,1,3.7-2,5.46,8,.38,4.32,4.61,2.69,1.13,1.64.69a23.63,23.63,0,0,0,.1,4.14A22.28,22.28,0,0,1,268.53,638.2Z"/><path class="cls-2" d="M252,629.41c2.1,7.5-.31,16.23-7.06,25.39-1,1.42-1.52,4-2,6.8-1,5.43-2.22,12.17-8.61,14.48-6.06,2.18-11.46.7-16.21-.6a29.69,29.69,0,0,0-7.52-1.41,29.54,29.54,0,0,0-7.51,1.41,36.68,36.68,0,0,1-9.77,1.71,18.84,18.84,0,0,1-6.44-1.11c-6.4-2.3-7.62-9-8.62-14.48-.5-2.76-1-5.38-2-6.8-6.75-9.16-9.16-17.89-7.05-25.39a50.43,50.43,0,0,0-6.69,2.69c.54-.4,9.61-7,18.93-6.6,3.35.15,6.56,1.39,9.66,2.58,5.91,2.27,11.51,4.41,18.56,0v-1.75a3.72,3.72,0,0,1,.82-2.32l.13-.16.13.16a3.67,3.67,0,0,1,.82,2.32v1.75c7.06,4.37,12.66,2.23,18.56,0,3.11-1.19,6.31-2.43,9.66-2.58,9.32-.41,18.39,6.2,18.93,6.6A50.64,50.64,0,0,0,252,629.41Z"/><path class="cls-1" d="M240.68,638.8a14.87,14.87,0,0,1-7,10.31s.87-8.93,0-10.9c-.36-.84-1.12-2-1.75-3.36-1.27,5.3-4.09,6.92-4.09,6.92s-2.51-.88-3.73-5.7c-1,4.89-3.36,5.7-3.36,5.7s-1.8-.69-2.92-4.23c-1.26,4.78-3.68,5.6-3.68,5.6s-2.18-.83-3.48-5.16c-1.27,4.14-3.35,4.93-3.35,4.93s-2.31-.78-3.54-5.33c-1.13,3.52-2.91,4.19-2.91,4.19s-2.37-.81-3.36-5.71c-1.21,4.83-3.73,5.71-3.73,5.71s-2.76-1.75-4.06-7c-.63,1.37-1.4,2.58-1.78,3.44-.87,2,0,10.89,0,10.89a14.84,14.84,0,0,1-7-10.3,16.07,16.07,0,0,1,2-11.22,30.06,30.06,0,0,1,6.11,1.8l1.32.5.25.1a44.13,44.13,0,0,0,6.44,2.08l1,.21a19.53,19.53,0,0,0,3.28.3c.56,0,1.13,0,1.7-.09s1.05-.13,1.59-.24a17.7,17.7,0,0,0,5.06-1.92c.29-.15.58-.32.88-.51.35.22.7.42,1,.6a17.56,17.56,0,0,0,5.37,1.9,15,15,0,0,0,1.57.2c.42,0,.84,0,1.26,0a19,19,0,0,0,3.72-.38c.34-.07.68-.14,1-.23a47.75,47.75,0,0,0,6.24-2.07l.25-.1,1.51-.57a27.45,27.45,0,0,1,6.07-1.68A16.08,16.08,0,0,1,240.68,638.8Z"/><path class="cls-1" d="M237.84,671a8.48,8.48,0,0,1-4.19,3.26,16.16,16.16,0,0,1-3.23.81c-.35.06-.71.1-1.06.12a22.65,22.65,0,0,1-7-.61l-.2,0c-1.21-.28-2.4-.6-3.58-.93l-.87-.24-1.5-.39a26.85,26.85,0,0,0-4.54-.81c-.37,0-.75,0-1.12,0l-.65,0a23.18,23.18,0,0,0-4.55.72c-.49.11-1,.25-1.49.38l-1.33.36c-1,.29-2.06.56-3.11.82l-.83.19a23.12,23.12,0,0,1-6.37.6l-1.06-.09a17.47,17.47,0,0,1-3.69-.88,8.35,8.35,0,0,1-3.61-2.49,17.38,17.38,0,0,1-.13-6.51,14.71,14.71,0,0,1,6.39-10.3s-.78,8.93,0,10.9c.34.86,1.05,2.07,1.63,3.44,1.18-5.25,3.7-7,3.7-7s2.28.88,3.39,5.72c.9-4.91,3.07-5.72,3.07-5.72s1.62.69,2.65,4.21c1.13-4.56,3.24-5.34,3.24-5.34s1.84.77,3,4.77c1.15-4,3-4.77,3-4.77s2.11.78,3.24,5.34c1-3.53,2.65-4.21,2.65-4.21s2.16.81,3.07,5.69c1.1-4.86,3.39-5.74,3.39-5.74s2.52,1.75,3.7,7c.57-1.37,1.27-2.58,1.61-3.43.79-2,0-10.9,0-10.9a14.74,14.74,0,0,1,6.4,10.3A17.57,17.57,0,0,1,237.84,671Z"/><path class="cls-1" d="M253,673.3,246,675l.28,2.71-1.14,1.47,1.21,6.21-1.3-3.11-.74-2.31-1.31.94-2.68.64,2.55-1.55,2-2.21-.6-3.09-2.05-1.93-9.83,2.81-7-3.92-4.52,2.3-6.9-.67-9,4.51L200.4,677l-4.49,1.93-5.66,5v-6.31l-3.68-4.46-7.26.94L172.06,672l-4-3.29c.54,14.59,7,33.2,16.13,38.11,6.86,3.7,13.95,7.52,38.44,7l2.63-2.23-2-.26-2-2.62-1.62-2.17h0l-1.08-1.85-1.08-4.62,1.76,3.51,1.52,2,1.63,1.66,1.81,2.42,3.25.42,5.41.5c10.32-3.18,22.05-20.71,22.63-39.29Zm-26.08,29.34a2.55,2.55,0,1,1,2.55-2.55A2.54,2.54,0,0,1,226.91,702.63Z"/><path class="cls-1" d="M253.29,533.28c-15.11-8.7-33.61-13.1-49.6-11.84l-2.56,4.4-1.91,3.24,2.68,2.67,1.31,3L201.07,532l-2.55-1.69-1.6,2.19-3.18,2.18,2.66-3.41,3.1-6.3-4-2.17c-2.35.72-15.54,4.8-22.61,7.73-7.45,3.09-28.79,18.08-29.12,45.5a130.69,130.69,0,0,0,1.12,17.29c.22,1.82.45,3.59.67,5.3.15,1.19.31,2.36.45,3.49,1.38,11,2.9,19.27,3.53,22.54l3.58-3.08,4.1-3.54,7.14,2.07,7-7.73c.18-1,.61-3.43,1-5.31l-2.66-3,.8-4.83-3.12-5.88c-4.83-2.22-10.27-5.84-10.69-9.81a16.46,16.46,0,0,1,5.61-14.13,78.93,78.93,0,0,0-9.23,1.41,40.29,40.29,0,0,1,27.88-2.09,72.16,72.16,0,0,1,15,6.39c3.1,1.64,5.55,2.92,6.74,2.64,2.26-.57,3-6.33,3-6.33.41,2.29.55,7.29-2.59,8.08a3.31,3.31,0,0,1-.8.09,6.22,6.22,0,0,1-1.89-.35c.06,2.61-.3,9.34-5.12,12.82-4.08,2.95-10.38,4-15.66,4-.75,0-1.47,0-2.18-.06l-5.18,3.59-.65,3.92,2.67,3-.08.43c-.52,2.92-.8,4.5-1,5.33l6.49.71,6.93-5.76,3.28.4,7.24-7.65,6,1.52,7.7-6.15,4.55,3,7.1,1,4.26,7.89,7.53,3.8,7-.57,2.3,4.46,4.34-1.68,3.18-8.82,5-2.91,1.29-4,3.72-1.77,4.64-2.2L261.15,597l-2.24,1.68-.43,1.39-2.73,7.61,1,3.71-1.32,3.7,6.27.3,4.57,4.86,2.13.9,3.63,1.53c.64-3.92,2.81-17.38,4.07-28.72a122.49,122.49,0,0,0,.94-13.14A70.3,70.3,0,0,0,271,555C266.73,545.44,259.94,537.11,253.29,533.28Z"/><circle class="cls-2" cx="198.05" cy="687.83" r="2.55"/><circle class="cls-2" cx="211.84" cy="553" r="2.55"/><circle class="cls-2" cx="231.43" cy="547.91" r="2.55"/><circle class="cls-2" cx="248.1" cy="542.81" r="2.55"/><circle class="cls-2" cx="192.25" cy="547.91" r="2.55"/><circle class="cls-2" cx="175.59" cy="542.81" r="2.55"/><circle class="cls-2" cx="198.05" cy="700.08" r="2.55"/><circle class="cls-2" cx="226.91" cy="700.08" r="2.55"/><circle class="cls-2" cx="226.91" cy="687.83" r="2.55"/><path class="cls-2" d="M242.31,568.69a72.05,72.05,0,0,0-15,6.39c-3.1,1.64-5.55,2.92-6.74,2.64-2.26-.57-3-6.33-3-6.33-.41,2.29-.55,7.3,2.59,8.08a3.31,3.31,0,0,0,.8.09,6.22,6.22,0,0,0,1.89-.35c-.06,2.61.3,9.34,5.12,12.82,4.08,2.95,10.38,4,15.66,4a30.54,30.54,0,0,0,6.31-.59c4.33-.94,16-6,16.62-11.93A16.46,16.46,0,0,0,261,569.36a77,77,0,0,1,9.25,1.42A40.24,40.24,0,0,0,242.31,568.69Zm22.48,14.61c-.45,4.25-10.14,9.26-15.22,10.37s-15.26.68-20.53-3.12c-4.74-3.44-4.41-11-4.34-12.11,1-.48,2.18-1.09,3.49-1.77a74.48,74.48,0,0,1,14.62-6.24,46.88,46.88,0,0,1,14.93-1.3A15,15,0,0,1,264.79,583.3Z"/><path class="cls-2" d="M264.79,583.3c-.45,4.25-10.14,9.26-15.22,10.37s-15.26.68-20.53-3.12c-4.74-3.44-4.41-11-4.34-12.11,1-.48,2.18-1.09,3.49-1.77a74.48,74.48,0,0,1,14.62-6.24,46.88,46.88,0,0,1,14.93-1.3A15,15,0,0,1,264.79,583.3Z"/><path class="cls-2" d="M224.87,570.4s2.94-8.18,18.49-11.42c14.87-3.09,23.15,2.71,23.15,2.71C246,552.95,225.08,570.23,224.87,570.4Z"/><path class="cls-2" d="M158.43,583.3c.33,3.07,5.48,6.54,10.23,8.65.42,1.73,3,5.76,3,5.76s4.15-2.34,5.18-3.59c5.45.42,13-.45,17.3-3.57,4.74-3.44,4.41-11,4.34-12.11-1-.48-2.18-1.09-3.49-1.77a74.48,74.48,0,0,0-14.62-6.24,46.88,46.88,0,0,0-14.93-1.3A15,15,0,0,0,158.43,583.3Z"/><path class="cls-2" d="M198.35,570.4s-2.94-8.18-18.49-11.42c-14.87-3.09-23.15,2.71-23.15,2.71C177.26,552.95,198.14,570.23,198.35,570.4Z"/><path class="cls-2" d="M211.65,579.61h0a.82.82,0,0,1-.82-.89l.25-3a.82.82,0,0,0,0-.14l-.25-3a.82.82,0,0,1,.82-.89h0a.82.82,0,0,1,.82.9l-.28,3a.82.82,0,0,0,0,.16l.28,3A.82.82,0,0,1,211.65,579.61Z"/><path class="cls-2" d="M304.66,650.21s1,0,1-.79-4.16-6.4-4.72-6.75-.34-2.92-.34-2.92.12.79,1.24,0-.34-2.81-1.69-4a17.93,17.93,0,0,1-2.7-3.59s.9-.56.79-1.23-4.39-5.29-5.17-6-1.35-3.48-1.35-4,3.7-.56,3.7-1.27-3.59-4.58-3.15-4.58,2.14-.45,2.25-1.33-2.13-3.62-3-4.4,0-.68,0-1.51-2.36-2.88-2.36-2.88a1.25,1.25,0,0,0,1.12-1.27c0-1.16-1.35-2.1-2.23-2.43s.2-.9-.35-1.69,1-1.35,0-2-.9,0-1.25,0-.55-.78-.78-1.46-3.51-2.13-4.63-3.26,0-1.91-.79-2.92a4.36,4.36,0,0,0-1.83-1.22c.27-3,.41-5.71.4-7.79a72.35,72.35,0,0,0-6.14-26.56c-4.5-10.05-11.41-18.48-18.48-22.56-15.56-9-34.67-13.46-51.12-12l-.45,0-2.16,3.69-4.74-2.57-.36.1c-.15,0-15.31,4.66-23.13,7.9S142.33,547.61,142,576a118.26,118.26,0,0,0,.59,12.68,4.22,4.22,0,0,0-1.72,1.17c-.78,1,.33,1.79-.78,2.91s-4.35,2.6-4.57,3.26-.45,1.47-.79,1.47-.23-.68-1.24,0,.57,1.23,0,2,.55,1.35-.34,1.7-2.24,1.28-2.24,2.43a1.25,1.25,0,0,0,1.12,1.27s-2.35,2.05-2.35,2.88.9.72,0,1.51-3.15,3.52-3,4.4,1.8,1.33,2.25,1.33-3.15,3.87-3.15,4.58,3.7.7,3.7,1.26-.56,3.37-1.35,4-5.05,5.28-5.16,6,.78,1.23.78,1.23a18.07,18.07,0,0,1-2.7,3.6c-1.35,1.23-2.81,3.26-1.68,4s1.23,0,1.23,0,.23,2.58-.33,2.92-4.73,6-4.73,6.75,1,.79,1,.79-2.13,4.71-1,5.17,1.13,0,1.13,0,.33,6.63.11,7.19-1.35,3.49-.68,4.28a1.57,1.57,0,0,0,1.35.66s1.08,2.7,2.09,3.48.68,5.07,2.14,5.07.87-.77.8-.89c.43.36,7.19,6.07,11,6.61s3.71-.56,3.83,0,3,1.8,4.72,1.69a5.22,5.22,0,0,0,3-1.57s4.15,1.68,4.5,1.12a1.72,1.72,0,0,0,0-1.35s1.12-.11,1.46-.56c0,0,2.34,1.61,4.29.5s1.63-2.68,1.46-3a2,2,0,0,0,.13-3.33c3,.24,3.49-.85,3.47-1.39s-.58-1.37-.36-1.93c.34,1.07.59,2.17,1.21,1.74s.94-1.89.15-5.31c1.32-2.05,1.72-7.93,1.84-10.78a33.94,33.94,0,0,1,4,8l-.91-.76v1.92c0,19.38,8.85,37.18,17.11,41.63,7.84,4.23,17.49,7.28,34.9,7.28,1.5,0,3.09,0,4.73-.05h.33l4.38-3.71,5.41.51.16,0c13.75-4.05,24.26-26.41,24.1-42.92v-1.79l-2.25,1.71A26.18,26.18,0,0,1,258,659.9c.16,2.44.59,6.65,1.81,8.55-.79,3.43-.48,4.89.14,5.31s.87-.67,1.21-1.74c.23.56-.31,1.29-.35,1.93s.43,1.63,3.47,1.39a2,2,0,0,0,.13,3.33c-.17.28-.49,1.85,1.46,3s4.29-.51,4.29-.51c.34.45,1.47.57,1.47.57a1.66,1.66,0,0,0,0,1.35c.33.56,4.5-1.12,4.5-1.12a5.27,5.27,0,0,0,3,1.57c1.69.12,4.61-1.12,4.72-1.68s-.11.55,3.82,0,10.58-6.26,11-6.62c-.07.12-.54.89.81.89s1.12-4.28,2.13-5.06.68-2.7.68-2.7a1.59,1.59,0,0,0,1.35-.68c.68-.79-.45-3.72-.67-4.27s1.6-8,1.6-8,0,.45,1.12,0S304.66,650.21,304.66,650.21Zm-49.07,21.1C255,689.89,243.27,707.42,233,710.6l-5.41-.5-3.24-.43-1.81-2.42-1.63-1.67-1.52-2-1.77-3.51,1.08,4.62,1.08,1.85h0l1.62,2.17,2,2.62,2,.26-2.63,2.23c-21.83.52-31.58-3.33-38.44-7-9.11-4.91-15.58-23.52-16.12-38.11l4,3.29,7.26,2.05,7.26-.93,3.68,4.46v6.31l5.66-5L200.4,677l4.46.83,9-4.51,6.9.68,4.53-2.3,7,3.92,9.83-2.81,2.05,1.93.6,3.09-2,2.21-2.55,1.55,2.68-.64,1.32-.94.73,2.31,1.3,3.11-1.21-6.21,1.14-1.47L246,675l7-1.75Zm12.94-33.1c-.8,2.17-2.77,5.23-5.06,8.78-1.46,2.27-3,4.7-4.49,7.21-3.22,5.53-5.88,11.39-5.63,16.55l-1.17.89-6.81,1.71-2.72-2.56-10.09,2.89-7.22-4-4.92,2.49-6.89-.67-9,4.48-4.39-.82-5.13,2.21-3,2.58v-3l-4.72-5.73-7.88,1-6.54-1.84-3.54-2.94c-.4-4-3.52-9.15-7-14.17-1-1.49-2.07-3-3.09-4.39-3-4.14-5.76-8-6.73-10.67a16.93,16.93,0,0,1-.88-9.19,15.52,15.52,0,0,0,.18-4l1.82-1.58,4-3.43,7.28,2.11,7.35-8.14,8,.87,6.91-5.75,1.74.22a3.44,3.44,0,0,0,1.27,3.7,7,7,0,0,0,4,1.35,13.31,13.31,0,0,1,4.58,1.23,16.83,16.83,0,0,1,1.74,1.23c2.32,1.77,6.8,4.37,9.95,4.37,3,0,5.66-2.5,8.07-4.22a16.93,16.93,0,0,1,2-1.33,33,33,0,0,1,3.86-.86,9.24,9.24,0,0,0,4.81-1.78,3.43,3.43,0,0,0,1.26-2l3.51,1.78,6.3-.51,2.49,4.83,6.62-2.56,3.25-9,2.52-1.47-1.25,3.48,1,3.7-2,5.46,8,.38,4.32,4.61,2.69,1.13,1.64.69a23.63,23.63,0,0,0,.1,4.14A22.28,22.28,0,0,1,268.53,638.2ZM276.06,594c-1.27,11.34-3.44,24.8-4.07,28.72l-3.63-1.53-2.13-.9-4.57-4.85-6.27-.3,1.32-3.7-1-3.7,2.73-7.61.43-1.4,2.24-1.68,4.63-3.49-4.64,2.2-3.72,1.77-1.29,4-5,2.91-3.18,8.82-4.35,1.68-2.3-4.46-7,.57-7.53-3.8-4.26-7.89-7.09-1-4.56-3-7.33,5.87-.36.29-.4-.1L197.14,600l-7.24,7.65-3.29-.4L179.69,613l-6.49-.71c.16-.84.44-2.41,1-5.34l.08-.43-2.67-3,.65-3.92L177.4,596c.7,0,1.43.06,2.17.06,5.28,0,11.58-1.06,15.66-4,4.82-3.48,5.18-10.21,5.11-12.82a6.33,6.33,0,0,0,1.89.35,3.3,3.3,0,0,0,.8-.09c3.14-.78,3-5.78,2.59-8.07,0,0-.76,5.76-3,6.33-1.19.29-3.63-1-6.74-2.64a72.12,72.12,0,0,0-15-6.38A40.29,40.29,0,0,0,153,570.77a79.6,79.6,0,0,1,9.23-1.41,16.46,16.46,0,0,0-5.62,14.13c.43,4,5.87,7.59,10.69,9.81l3.12,5.88-.8,4.83,2.66,3c-.34,1.88-.77,4.32-.95,5.31l-7,7.72L157.24,618l-4.1,3.54-3.58,3.09c-.63-3.27-2.16-11.57-3.54-22.54-.14-1.13-.29-2.3-.45-3.49-.22-1.71-.45-3.48-.68-5.3A131.23,131.23,0,0,1,143.79,576c.33-27.42,21.68-42.4,29.12-45.49,7.07-2.92,20.27-7,22.61-7.73l4,2.17-3.1,6.31-2.66,3.41,3.19-2.18,1.6-2.2,2.55,1.7,2.14,2.74-1.31-3-2.68-2.67,1.9-3.24,2.56-4.4c16-1.27,34.49,3.14,49.6,11.84,6.65,3.83,13.44,12.16,17.73,21.73a70.29,70.29,0,0,1,6,25.83A120.83,120.83,0,0,1,276.06,594Zm-107.39-2c-4.76-2.1-9.91-5.58-10.23-8.65-.59-5.57,2-10.83,7-14.17a47,47,0,0,1,14.93,1.29A74.62,74.62,0,0,1,195,576.67c1.31.68,2.46,1.29,3.49,1.77.06,1.07.4,8.68-4.35,12.12-4.33,3.12-11.85,4-17.29,3.57l-5.18,3.59Z"/><path class="cls-1" d="M218.71,607.65c1.55-.57-1.94-7-2.83-6.58S215.49,608.84,218.71,607.65Z"/><path class="cls-1" d="M203.79,603.31c-.14,2.2-1.08,5.12-3.2,4.34-.94-.34,0-2.87,1.05-4.69l2,.49Z"/><path class="cls-2" d="M220.43,672.14a7.2,7.2,0,0,1-.63,1.75s0,0,0,.06c-.23.52-.54,1.11-.88,1.74-.93,1.72-2.17,3.76-3.39,5.68-1.54,2.42-2.66,8.48-2.45,14.14.12,2.87,1.23,6.7,1.45,8.71s-.28,4.38-3.77,4.39c-2.76,0-4.21-2.86-4.21-5,0-2.38,2.92-5.44,2.28-9.08-.17-1-1.1-5.48-1.1-6.69s-1.94-4.26-3.16-5.11-3.52,0-5.24.37-4.38-.13-5.48.48-3.29,3.65-2.92,5.48a66.81,66.81,0,0,1,.37,8.49c0,1.56-1.34,4-1.47,6.79-.1,2.34,1.65,4.19,2.52,6a4.65,4.65,0,0,1,.36,1,3.12,3.12,0,0,1,.07,1.09c-.17,1.89-1.75,4-1.85,6.83-.12,3.41,5.24,16.19-2.07,16.19s-1.71-13.63-1.21-15.46c.34-1.28-1.2-6.07-2.58-10.71-.24-.81-.48-1.61-.71-2.38-.33-1.15-.61-2.24-.84-3.22a16.86,16.86,0,0,1,.72-10.6c.5-.86-.12-5-.12-6.09s1.21-5.36.61-7.54c-.5-1.79-2.71-3.19-4.29-5.5a9.73,9.73,0,0,1-.95-1.7l2.13-.27,2.25-.3,3.51-.45.83,1,2.35,2.86a6.34,6.34,0,0,0,.64.1l1.06.08a23.2,23.2,0,0,0,6.38-.6l.83-.19c1.05-.26,2.09-.53,3.11-.82l1.33-.37,1.49-.37a22.4,22.4,0,0,1,4.54-.72l.65,0c.37,0,.75,0,1.12,0l.35,0,.13-.06,1.39-.69Z"/><path class="cls-1" d="M478.1,632.82a28.31,28.31,0,0,1-2.53,4.39c-.73,1.13-1.51,2.35-2.24,3.61-1.61,2.77-2.94,5.7-2.82,8.27l-.58.45-3.4.85-1.36-1.28-5,1.44-3.61-2L454,649.79l-3.45-.33-4.48,2.24-2.19-.41-2.56,1.11-1.51,1.29v-1.49l-2.36-2.86-3.94.51-3.27-.92-1.77-1.47c-.2-2-1.76-4.57-3.5-7.09-.51-.74-1-1.48-1.55-2.2a29.69,29.69,0,0,1-3.36-5.34,8.47,8.47,0,0,1-.44-4.6,7.76,7.76,0,0,0,.09-2l.91-.79,2-1.72,3.64,1.05L430,620.7l4,.44,3.45-2.87.87.11a1.72,1.72,0,0,0,.63,1.85,3.5,3.5,0,0,0,2,.68,6.66,6.66,0,0,1,2.29.62,8.41,8.41,0,0,1,.87.61c1.16.89,3.4,2.18,5,2.18s2.83-1.25,4-2.11a8.47,8.47,0,0,1,1-.66,16.5,16.5,0,0,1,1.93-.43,4.62,4.62,0,0,0,2.41-.89,1.71,1.71,0,0,0,.63-1l1.76.89,3.15-.26,1.25,2.42,3.31-1.28,1.63-4.49,1.26-.73-.63,1.74.48,1.85-1,2.73,4,.19,2.16,2.3,1.35.57.82.34a11.81,11.81,0,0,0,0,2.07A11.14,11.14,0,0,1,478.1,632.82Z"/><path class="cls-2" d="M469.82,628.42c1.05,3.75-.15,8.12-3.53,12.69a9.34,9.34,0,0,0-1,3.4c-.49,2.71-1.11,6.09-4.3,7.24-3,1.09-5.73.35-8.11-.3a10.34,10.34,0,0,0-7.51,0,18.34,18.34,0,0,1-4.89.86,9.42,9.42,0,0,1-3.22-.55c-3.2-1.15-3.81-4.52-4.31-7.24a9.16,9.16,0,0,0-1-3.4c-3.37-4.58-4.58-8.94-3.53-12.69a25.22,25.22,0,0,0-3.34,1.35c.27-.2,4.81-3.51,9.46-3.3a15.63,15.63,0,0,1,4.83,1.29c3,1.14,5.76,2.21,9.28,0v-.87a1.86,1.86,0,0,1,.41-1.16l.07-.08.07.08a1.83,1.83,0,0,1,.41,1.16v.87c3.53,2.18,6.33,1.11,9.28,0a15.67,15.67,0,0,1,4.83-1.29c4.66-.21,9.2,3.1,9.46,3.3A25.32,25.32,0,0,0,469.82,628.42Z"/><path class="cls-1" d="M464.17,633.11a7.44,7.44,0,0,1-3.51,5.15s.43-4.47,0-5.45c-.18-.42-.56-1-.87-1.68a5.36,5.36,0,0,1-2,3.46s-1.26-.44-1.86-2.85c-.5,2.45-1.68,2.85-1.68,2.85s-.9-.34-1.46-2.12c-.63,2.39-1.84,2.8-1.84,2.8s-1.09-.42-1.74-2.58c-.64,2.07-1.68,2.47-1.68,2.47s-1.16-.39-1.77-2.67c-.56,1.76-1.46,2.1-1.46,2.1s-1.18-.41-1.68-2.86c-.61,2.42-1.86,2.86-1.86,2.86a5.77,5.77,0,0,1-2-3.5c-.32.68-.7,1.29-.89,1.72-.43,1,0,5.45,0,5.45a7.42,7.42,0,0,1-3.51-5.15,8,8,0,0,1,1-5.61,15,15,0,0,1,3.05.9l.66.25.12,0a22.06,22.06,0,0,0,3.22,1l.5.11a9.77,9.77,0,0,0,1.64.15c.28,0,.56,0,.85,0s.53-.07.79-.12a8.85,8.85,0,0,0,2.53-1l.44-.25.52.3a8.78,8.78,0,0,0,2.68,1,7.49,7.49,0,0,0,.78.1l.63,0a9.5,9.5,0,0,0,1.86-.19l.51-.11a23.88,23.88,0,0,0,3.12-1l.12,0,.75-.29a13.72,13.72,0,0,1,3-.84A8,8,0,0,1,464.17,633.11Z"/><path class="cls-1" d="M462.75,649.23a4.24,4.24,0,0,1-2.1,1.63,8.08,8.08,0,0,1-1.61.41l-.53.06A11.32,11.32,0,0,1,455,651l-.1,0c-.61-.14-1.2-.3-1.79-.46l-.43-.12-.75-.2a13.42,13.42,0,0,0-2.27-.41l-.56,0h-.32a11.59,11.59,0,0,0-2.27.36l-.75.19-.66.18-1.56.41-.42.1a11.56,11.56,0,0,1-3.19.3l-.53,0a8.74,8.74,0,0,1-1.84-.44,4.17,4.17,0,0,1-1.81-1.25,8.69,8.69,0,0,1-.07-3.25,7.36,7.36,0,0,1,3.2-5.15s-.39,4.47,0,5.45c.17.43.53,1,.82,1.72a5.84,5.84,0,0,1,1.85-3.5s1.14.44,1.7,2.86c.45-2.46,1.53-2.86,1.53-2.86s.81.34,1.32,2.11c.56-2.28,1.62-2.67,1.62-2.67s.92.39,1.5,2.38c.57-2,1.5-2.38,1.5-2.38s1.06.39,1.62,2.67c.51-1.76,1.32-2.11,1.32-2.11s1.08.41,1.53,2.84c.55-2.43,1.7-2.87,1.7-2.87a5.81,5.81,0,0,1,1.85,3.5c.29-.68.64-1.29.81-1.72.4-1,0-5.45,0-5.45a7.37,7.37,0,0,1,3.2,5.15A8.78,8.78,0,0,1,462.75,649.23Z"/><path class="cls-1" d="M470.32,650.36l-3.49.88.14,1.35-.57.73.6,3.11-.65-1.56-.37-1.16-.66.47-1.34.32,1.27-.77,1-1.11-.3-1.55-1-1-4.92,1.4-3.52-2-2.26,1.15-3.45-.34-4.51,2.26-2.23-.41-2.24,1L439,655.66v-3.16l-1.84-2.23-3.63.47-3.63-1-2-1.65c.27,7.29,3.51,16.6,8.06,19.05,3.43,1.85,7,3.76,19.22,3.51l1.31-1.12-1-.13-1-1.31L453.7,667h0l-.54-.93-.54-2.31.88,1.75.76,1,.81.83.9,1.21,1.62.21,2.71.25c5.16-1.59,11-10.36,11.31-19.65Zm-13,14.67a1.27,1.27,0,1,1,1.27-1.27A1.27,1.27,0,0,1,457.28,665Z"/><path class="cls-1" d="M470.47,580.36a44.7,44.7,0,0,0-24.8-5.92l-1.28,2.2-1,1.62,1.34,1.34.66,1.49-1.07-1.37-1.27-.85-.8,1.1-1.59,1.09,1.33-1.7,1.55-3.15-2-1.08c-1.17.36-7.77,2.4-11.31,3.86-3.72,1.55-14.39,9-14.56,22.75a65.34,65.34,0,0,0,.56,8.64c.11.91.22,1.79.34,2.65l.22,1.74c.69,5.48,1.45,9.64,1.77,11.27l1.79-1.54,2.05-1.77,3.57,1,3.49-3.86c.09-.49.31-1.71.48-2.65l-1.33-1.51.4-2.41-1.56-2.94c-2.41-1.11-5.14-2.92-5.35-4.91A8.23,8.23,0,0,1,425,598.4a39.46,39.46,0,0,0-4.61.71,20.14,20.14,0,0,1,13.94-1,36.08,36.08,0,0,1,7.48,3.19c1.55.82,2.77,1.46,3.37,1.32,1.13-.28,1.51-3.17,1.51-3.17.21,1.15.27,3.65-1.3,4a1.65,1.65,0,0,1-.4,0,3.11,3.11,0,0,1-.94-.18c0,1.3-.15,4.67-2.56,6.41-2,1.47-5.19,2-7.83,2-.37,0-.74,0-1.09,0l-2.59,1.79-.32,2,1.34,1.52,0,.22c-.26,1.46-.4,2.25-.48,2.67l3.25.36,3.46-2.88,1.64.2,3.62-3.83,3,.76,3.85-3.08,2.28,1.49,3.55.5,2.13,3.94,3.76,1.9,3.49-.28,1.15,2.23,2.17-.84,1.59-4.41,2.5-1.45.64-2,1.86-.89,2.32-1.1-2.31,1.74-1.12.84-.22.7-1.36,3.8.48,1.85-.66,1.85,3.13.15,2.28,2.43,1.07.45,1.82.76c.32-2,1.4-8.69,2-14.36a61.24,61.24,0,0,0,.47-6.57,35.15,35.15,0,0,0-3-12.92C477.2,586.44,473.8,582.27,470.47,580.36Z"/><circle class="cls-2" cx="442.85" cy="657.63" r="1.27"/><circle class="cls-2" cx="449.75" cy="590.22" r="1.27"/><circle class="cls-2" cx="459.54" cy="587.67" r="1.27"/><circle class="cls-2" cx="467.88" cy="585.12" r="1.27"/><circle class="cls-2" cx="439.96" cy="587.67" r="1.27"/><circle class="cls-2" cx="431.62" cy="585.12" r="1.27"/><circle class="cls-2" cx="442.85" cy="663.76" r="1.27"/><circle class="cls-2" cx="457.28" cy="663.76" r="1.27"/><circle class="cls-2" cx="457.28" cy="657.63" r="1.27"/><path class="cls-2" d="M465,598.06a36,36,0,0,0-7.48,3.19c-1.55.82-2.77,1.46-3.37,1.32-1.13-.28-1.51-3.17-1.51-3.17-.21,1.15-.28,3.65,1.29,4a1.65,1.65,0,0,0,.4,0,3.11,3.11,0,0,0,.94-.18c0,1.3.15,4.67,2.56,6.41,2,1.47,5.19,2,7.83,2a15.27,15.27,0,0,0,3.16-.3c2.16-.47,8-3,8.31-6a8.23,8.23,0,0,0-2.81-7.06,38.51,38.51,0,0,1,4.62.71A20.12,20.12,0,0,0,465,598.06Zm11.24,7.31c-.22,2.12-5.07,4.63-7.61,5.18s-7.63.34-10.27-1.56c-2.37-1.72-2.2-5.52-2.17-6.06.51-.24,1.09-.54,1.74-.89a37.24,37.24,0,0,1,7.31-3.12,23.44,23.44,0,0,1,7.46-.65A7.52,7.52,0,0,1,476.22,605.37Z"/><path class="cls-2" d="M476.22,605.37c-.22,2.12-5.07,4.63-7.61,5.18s-7.63.34-10.27-1.56c-2.37-1.72-2.2-5.52-2.17-6.06.51-.24,1.09-.54,1.74-.89a37.24,37.24,0,0,1,7.31-3.12,23.44,23.44,0,0,1,7.46-.65A7.52,7.52,0,0,1,476.22,605.37Z"/><path class="cls-2" d="M456.26,598.92s1.47-4.09,9.24-5.71c7.43-1.55,11.58,1.36,11.58,1.36C466.81,590.19,456.37,598.83,456.26,598.92Z"/><path class="cls-2" d="M423,605.37c.16,1.53,2.74,3.27,5.12,4.33a15.63,15.63,0,0,0,1.52,2.88,14.42,14.42,0,0,0,2.59-1.79c2.73.21,6.49-.23,8.65-1.79,2.37-1.72,2.2-5.52,2.17-6.06-.51-.24-1.09-.54-1.74-.89a37.24,37.24,0,0,0-7.31-3.12,23.44,23.44,0,0,0-7.46-.65A7.52,7.52,0,0,0,423,605.37Z"/><path class="cls-2" d="M443,598.92s-1.47-4.09-9.24-5.71c-7.43-1.55-11.58,1.36-11.58,1.36C432.46,590.19,442.9,598.83,443,598.92Z"/><path class="cls-2" d="M449.65,603.52h0a.41.41,0,0,1-.41-.45l.12-1.49a.41.41,0,0,0,0-.07l-.12-1.49a.41.41,0,0,1,.41-.45h0a.41.41,0,0,1,.41.45l-.14,1.48a.41.41,0,0,0,0,.08l.14,1.48A.41.41,0,0,1,449.65,603.52Z"/><path class="cls-2" d="M496.16,638.82s.51,0,.51-.4a16,16,0,0,0-2.36-3.37c-.28-.17-.17-1.46-.17-1.46s.06.4.62,0-.17-1.4-.84-2a9,9,0,0,1-1.35-1.8s.45-.28.4-.62a20.55,20.55,0,0,0-2.59-3,4.29,4.29,0,0,1-.68-2c0-.28,1.85-.28,1.85-.63s-1.8-2.29-1.57-2.29,1.07-.22,1.12-.66-1.07-1.81-1.51-2.2,0-.34,0-.76-1.18-1.44-1.18-1.44a.62.62,0,0,0,.56-.63c0-.58-.68-1.05-1.12-1.22s.1-.45-.17-.84.5-.68,0-1-.45,0-.62,0-.28-.39-.39-.73-1.75-1.07-2.32-1.63,0-1-.4-1.46A2.18,2.18,0,0,0,483,608c.13-1.51.21-2.85.2-3.89a36.17,36.17,0,0,0-3.07-13.28c-2.25-5-5.7-9.24-9.24-11.28a45.51,45.51,0,0,0-25.56-6l-.23,0-1.08,1.85-2.37-1.28-.18.05c-.07,0-7.65,2.33-11.56,4s-14.95,9.37-15.12,23.57a59.13,59.13,0,0,0,.3,6.34,2.11,2.11,0,0,0-.86.58c-.39.5.17.9-.39,1.46s-2.18,1.3-2.28,1.63-.23.73-.4.73-.11-.34-.62,0,.28.61,0,1,.27.68-.17.85-1.12.64-1.12,1.22a.63.63,0,0,0,.56.63s-1.18,1-1.18,1.44.45.36,0,.75-1.57,1.76-1.52,2.2.9.67,1.12.67-1.57,1.94-1.57,2.29,1.85.35,1.85.63a4.28,4.28,0,0,1-.68,2,20.18,20.18,0,0,0-2.58,3c-.06.33.39.61.39.61a9,9,0,0,1-1.35,1.8c-.67.61-1.41,1.63-.84,2s.62,0,.62,0,.11,1.29-.17,1.46a15.85,15.85,0,0,0-2.37,3.37c0,.4.51.4.51.4s-1.07,2.36-.51,2.58.57,0,.57,0,.17,3.32.06,3.6-.68,1.74-.34,2.14a.79.79,0,0,0,.68.33,5.71,5.71,0,0,0,1,1.74c.5.4.34,2.53,1.07,2.53s.44-.38.4-.44c.21.18,3.59,3,5.5,3.31s1.86-.28,1.91,0a3.58,3.58,0,0,0,2.36.84,2.61,2.61,0,0,0,1.52-.79s2.08.84,2.25.56a.86.86,0,0,0,0-.67s.56-.06.73-.28a2.27,2.27,0,0,0,2.15.25c1-.55.81-1.34.73-1.48a1,1,0,0,0,.06-1.67c1.52.12,1.74-.43,1.74-.69s-.29-.68-.18-1c.17.54.3,1.08.6.87s.47-.94.07-2.66c.66-1,.86-4,.92-5.39a17,17,0,0,1,2,4l-.45-.38v1c0,9.69,4.42,18.59,8.56,20.82,3.92,2.12,8.74,3.64,17.45,3.64l2.36,0h.16l2.19-1.86,2.71.25.08,0c6.88-2,12.13-13.2,12.05-21.46v-.9l-1.12.86a13.09,13.09,0,0,1,1.41-4.74,11.16,11.16,0,0,0,.91,4.27c-.39,1.71-.24,2.45.07,2.66s.44-.33.6-.87c.11.28-.16.65-.17,1s.22.81,1.74.69a1,1,0,0,0,.06,1.67c-.09.14-.24.93.73,1.48a2.26,2.26,0,0,0,2.14-.26c.17.23.73.29.73.29a.83.83,0,0,0,0,.67c.17.28,2.25-.56,2.25-.56a2.63,2.63,0,0,0,1.51.79,3.6,3.6,0,0,0,2.36-.84c.06-.29-.06.28,1.91,0s5.29-3.13,5.5-3.31c0,.06-.27.44.4.44s.56-2.14,1.07-2.53.34-1.35.34-1.35a.8.8,0,0,0,.67-.34c.34-.4-.22-1.86-.33-2.13a33,33,0,0,1,.8-4s0,.22.56,0S496.16,638.82,496.16,638.82Zm-24.54,10.55c-.29,9.29-6.16,18.05-11.32,19.65l-2.71-.25-1.62-.21-.91-1.21-.81-.83-.76-1-.88-1.75.54,2.31.54.93h0l.81,1.08,1,1.31,1,.13-1.31,1.12c-10.92.26-15.79-1.66-19.22-3.51-4.56-2.46-7.79-11.76-8.06-19.05l2,1.65,3.63,1,3.63-.47,1.84,2.23v3.15l2.83-2.48,2.24-1,2.23.41,4.51-2.26,3.45.34,2.26-1.15,3.52,2,4.92-1.4,1,1,.3,1.55-1,1.11-1.27.77,1.34-.32.66-.47.37,1.16.65,1.56-.6-3.1.57-.73-.14-1.35,3.49-.88Zm6.47-16.55a28.31,28.31,0,0,1-2.53,4.39c-.73,1.13-1.51,2.35-2.24,3.61-1.61,2.77-2.94,5.7-2.82,8.27l-.58.45-3.4.85-1.36-1.28-5,1.44-3.61-2L454,649.79l-3.45-.33-4.48,2.24-2.19-.41-2.56,1.11-1.51,1.29v-1.49l-2.36-2.86-3.94.51-3.27-.92-1.77-1.47c-.2-2-1.76-4.57-3.5-7.09-.51-.74-1-1.48-1.55-2.2a29.69,29.69,0,0,1-3.36-5.34,8.47,8.47,0,0,1-.44-4.6,7.76,7.76,0,0,0,.09-2l.91-.79,2-1.72,3.64,1.05L430,620.7l4,.44,3.45-2.87.87.11a1.72,1.72,0,0,0,.63,1.85,3.5,3.5,0,0,0,2,.68,6.66,6.66,0,0,1,2.29.62,8.41,8.41,0,0,1,.87.61c1.16.89,3.4,2.18,5,2.18s2.83-1.25,4-2.11a8.47,8.47,0,0,1,1-.66,16.5,16.5,0,0,1,1.93-.43,4.62,4.62,0,0,0,2.41-.89,1.71,1.71,0,0,0,.63-1l1.76.89,3.15-.26,1.25,2.42,3.31-1.28,1.63-4.49,1.26-.73-.63,1.74.48,1.85-1,2.73,4,.19,2.16,2.3,1.35.57.82.34a11.81,11.81,0,0,0,0,2.07A11.14,11.14,0,0,1,478.1,632.82Zm3.76-22.11c-.63,5.67-1.72,12.4-2,14.36L478,624.3l-1.07-.45-2.28-2.43-3.13-.15.66-1.85-.48-1.85,1.36-3.8.22-.7,1.12-.84,2.31-1.74-2.32,1.1-1.86.89-.64,2-2.5,1.45-1.59,4.41-2.17.84-1.15-2.23-3.5.29-3.76-1.9-2.13-3.94-3.55-.5-2.28-1.49-3.67,2.93-.18.14-.2,0-2.82-.71-3.62,3.83-1.64-.2-3.46,2.88-3.25-.36c.08-.42.22-1.21.48-2.67l0-.22-1.34-1.51.32-2,2.59-1.8c.35,0,.71,0,1.09,0,2.64,0,5.79-.53,7.83-2,2.41-1.74,2.59-5.11,2.56-6.41a3.17,3.17,0,0,0,.94.17,1.65,1.65,0,0,0,.4,0c1.57-.39,1.5-2.89,1.29-4,0,0-.38,2.88-1.51,3.17-.59.14-1.82-.5-3.37-1.32a36.06,36.06,0,0,0-7.48-3.19,20.15,20.15,0,0,0-13.94,1,39.8,39.8,0,0,1,4.61-.7,8.23,8.23,0,0,0-2.81,7.07c.21,2,2.93,3.8,5.35,4.9l1.56,2.94-.4,2.41,1.33,1.51-.47,2.65L426,623.75l-3.57-1-2.05,1.77L418.61,626c-.31-1.63-1.08-5.79-1.77-11.27-.07-.57-.15-1.15-.22-1.74-.11-.85-.23-1.74-.34-2.65a65.62,65.62,0,0,1-.56-8.64c.17-13.71,10.84-21.2,14.56-22.75,3.54-1.46,10.13-3.5,11.31-3.86l2,1.08L442,579.35l-1.33,1.7,1.59-1.09.8-1.1,1.27.85,1.07,1.37-.66-1.49-1.34-1.33,1-1.62,1.28-2.2a44.69,44.69,0,0,1,24.8,5.92c3.33,1.91,6.72,6.08,8.86,10.87a35.14,35.14,0,0,1,3,12.92A60.42,60.42,0,0,1,481.86,610.71Zm-53.7-1c-2.38-1.05-5-2.79-5.12-4.33a7.51,7.51,0,0,1,3.52-7.09,23.47,23.47,0,0,1,7.46.65,37.31,37.31,0,0,1,7.31,3.12c.66.34,1.23.65,1.74.89,0,.54.2,4.34-2.17,6.06-2.16,1.56-5.92,2-8.65,1.79l-2.59,1.79Z"/><path class="cls-1" d="M453.19,617.54c.77-.28-1-3.5-1.41-3.29S451.57,618.13,453.19,617.54Z"/><path class="cls-1" d="M445.72,615.37c-.07,1.1-.54,2.56-1.6,2.17-.47-.17,0-1.43.53-2.35l1,.25Z"/><path class="cls-2" d="M454,649.79a3.6,3.6,0,0,1-.31.87l0,0c-.12.26-.27.55-.44.87-.47.86-1.09,1.88-1.7,2.84-.77,1.21-1.33,4.24-1.22,7.07.06,1.43.62,3.35.73,4.36s-.14,2.19-1.88,2.19a2.37,2.37,0,0,1-2.11-2.51c0-1.19,1.46-2.72,1.14-4.54-.08-.48-.55-2.74-.55-3.35a5,5,0,0,0-1.58-2.56c-.61-.43-1.76,0-2.62.18s-2.19-.06-2.74.24a3.62,3.62,0,0,0-1.46,2.74,33.41,33.41,0,0,1,.19,4.24c0,.78-.67,2-.73,3.4,0,1.17.83,2.09,1.26,3a2.32,2.32,0,0,1,.18.48,1.56,1.56,0,0,1,0,.54c-.09.94-.88,2-.93,3.41-.06,1.7,2.62,8.1-1,8.1s-.85-6.82-.61-7.73c.17-.64-.6-3-1.29-5.36l-.36-1.19c-.16-.57-.31-1.12-.42-1.61a8.43,8.43,0,0,1,.36-5.3c.25-.43-.06-2.5-.06-3s.61-2.68.31-3.77c-.25-.89-1.35-1.6-2.14-2.75a4.87,4.87,0,0,1-.47-.85l1.06-.13,1.12-.15,1.75-.22.41.5,1.18,1.43.32,0,.53,0a11.6,11.6,0,0,0,3.19-.3l.41-.1,1.56-.41.67-.19.75-.19a11.2,11.2,0,0,1,2.27-.36h.33l.56,0,.17,0,.07,0,.69-.35Z"/></svg>