<svg id="Layer_1" data-name="Layer 1" xmlns="http://www.w3.org/2000/svg" width="100" height="100" viewBox="0 0 100 100"><title>i-gram</title><path d="M71.9,9A19.1,19.1,0,0,1,91,28.1V71.9A19.1,19.1,0,0,1,71.9,91H28.1A19.1,19.1,0,0,1,9,71.9V28.1A19.1,19.1,0,0,1,28.1,9H71.9m0-9H28.1A28.1,28.1,0,0,0,0,28.1V71.9A28.1,28.1,0,0,0,28.1,100H71.9A28.1,28.1,0,0,0,100,71.9V28.1A28.1,28.1,0,0,0,71.9,0Z" fill="#fff"/><path d="M50,33.5A16.5,16.5,0,1,1,33.5,50,16.5,16.5,0,0,1,50,33.5m0-9A25.5,25.5,0,1,0,75.5,50,25.5,25.5,0,0,0,50,24.5Z" fill="#fff"/><path d="M76.7,29.4a6.3,6.3,0,0,1-6.1-6.3,6.1,6.1,0,0,1,6.2-5.9,6,6,0,0,1,5.9,6.1A6.1,6.1,0,0,1,76.7,29.4Z" fill="#fff"/></svg>