<svg xmlns="http://www.w3.org/2000/svg"><symbol id="cv" viewBox="0 0 256 256"><path d="M91.9 4L32.1 63.7h54.2a5.5 5.5 0 0 0 5.6-5.5V4z"/><path d="M97.7 3.7v56.9a9 9 0 0 1-9 9H32.1v176.8a5.7 5.7 0 0 0 5.4 5.9h180.8a5.6 5.6 0 0 0 5.6-5.6V9.6a5.7 5.7 0 0 0-5.4-5.9H97.7zM86 174.7a10.6 10.6 0 0 0 4.3 5.9 21 21 0 0 0 9.3 1.3l21.2-.8.6 24.2a125 125 0 0 1-29.8 3.4c-10.1 0-17.8-1.3-23.3-4.2a25.3 25.3 0 0 1-11.7-14.4 89.8 89.8 0 0 1-3.7-29.2c0-18 2.9-30.2 8.5-37.1s16.2-9.9 31.8-9.9a115 115 0 0 1 23.4 2.7l4.8.8-.8 24.4a205.4 205.4 0 0 0-20.7-1.3c-6.4 0-10.4 1.3-12.3 3.7s-2.6 7.4-2.6 14.9a74 74 0 0 0 1 15.6zm104.1 32.2h-46.7l-18.3-91.4h33.4l7.2 59.5h2.4l6.4-59.5h33.4z"/></symbol><symbol id="email" viewBox="0 0 256 256"><path d="M155.2 136.4l-8.5 5.7-18.7 12.5-18.7-12.5-8.5-5.7L6.5 73.6v128.3h243V73.6l-94.3 62.8z"/><path d="M249.5 54.1v4.4L151 124.2l-7.2 4.8-15.8 10.5-15.8-10.5-7.2-4.8L6.5 58.5v-4.4h243z"/></symbol><symbol id="instagram" viewBox="0 0 256 256"><path d="M181.4 28.1a46.5 46.5 0 0 1 46.5 46.5v106.8a46.5 46.5 0 0 1-46.5 46.5H74.6a46.5 46.5 0 0 1-46.5-46.5V74.6a46.5 46.5 0 0 1 46.5-46.5h106.8m0-22.1H74.6A68.6 68.6 0 0 0 6 74.6v106.8A68.6 68.6 0 0 0 74.6 250h106.8a68.6 68.6 0 0 0 68.6-68.6V74.6A68.6 68.6 0 0 0 181.4 6z"/><path d="M128 87.9A40.1 40.1 0 1 1 87.9 128 40.2 40.2 0 0 1 128 87.9m0-22.1a62.2 62.2 0 1 0 62.2 62.2A62.3 62.3 0 0 0 128 65.8zm65 12c-8 0-15.1-7.4-14.8-15.4a15 15 0 0 1 15.2-14.3A14.7 14.7 0 0 1 207.8 63 15 15 0 0 1 193 77.8z"/></symbol><symbol id="linkedin" viewBox="0 0 256 256"><path d="M10.5 87.3h50.8v162.5H10.5z"/><circle cx="35.9" cy="36.1" r="29.9"/><path d="M250 249.8h-50.8v-92.2s1.8-29.4-26.1-30.1-29.5 30.1-29.5 30.1v92.2H92.8V87.3h50.8v19.5s15.4-23.6 45.7-23.6c39.8 0 46.6 18.9 51.4 25.7s9.3 24.5 9.3 48.7z"/></symbol><symbol id="github" viewBox="0 0 256 256"><path d="M128 9.5a121.4 121.4 0 0 0-38.4 236.7c6.1 1.1 8.3-2.7 8.3-5.9s0-10.5-.3-20.7c-33.6 7.5-40.8-16.1-40.8-16.1-5.7-14-13.4-17.7-13.4-17.7-11.1-7.6.8-7.6.8-7.6 12 .8 18.5 12.7 18.5 12.7 11 18.5 28.5 13.1 35.5 9.9a25.8 25.8 0 0 1 7.5-16.1c-26.9-3-55.1-13.5-55.1-59.9A46.8 46.8 0 0 1 63 92c-1.4-3-5.4-15.3 1.3-32 0 0 9.9-3.5 33.3 12.4a115.7 115.7 0 0 1 60.7 0C181.7 56.5 191.7 60 191.7 60c6.7 16.7 2.6 29 1.3 32a47.3 47.3 0 0 1 12.4 32.8c0 46.4-28.2 56.7-55.4 59.9 4.3 3.7 8.3 11 8.3 22.3 0 16.4-.2 29.5-.2 33.3s2.1 7.2 8.3 5.9A121.4 121.4 0 0 0 128 9.5z"/></symbol><symbol id="vimeo" viewBox="0 0 256 256"><path d="M249.9 71.1c-1.3 23.9-17.8 56.4-49.8 97.8s-61.2 64.8-84.3 64.8c-14 0-26.2-13.2-36.1-39.4s-13-48.2-19.6-72.4-15.2-39.4-23.4-39.4c-2 0-8.3 3.9-19.3 11.5L6 79.2l35.6-31.7c16-14 28.2-21.4 36-22.1q28.7-2.7 35.1 39.1c4.3 27.9 8.1 48.5 9.9 55.9 5.6 24.9 11.5 37.3 18.1 37.3s12.9-8.1 23.1-24.1 15.5-28.4 16.2-36.8c1.6-14-3.8-21.1-16.2-21.1a43.4 43.4 0 0 0-18.1 4q18-58.9 68.6-57.4c25.2.8 36.9 17 35.6 48.8z"/></symbol></svg>