<svg id="Layer_1" data-name="Layer 1" xmlns="http://www.w3.org/2000/svg" width="5in" height="5in" viewBox="0 0 362.4 362.4"><title>logo-w</title><path d="M349.4,13V349.4H13V13H349.4m13-13H0V362.4H362.4V0Z" fill="#fff"/><path d="M26.5,26.5V335.9H335.9V26.5ZM61.1,234.8a10,10,0,1,1,10-10A10,10,0,0,1,61.1,234.8Zm7.1-108.3a20.7,20.7,0,0,1,4.3.4l-.7,5.5a17.8,17.8,0,0,0-4-.5,9.8,9.8,0,0,0-5.4,1.6,10.9,10.9,0,0,0-3.9,4.4,13.9,13.9,0,0,0-1.4,6.3v19.6h-6V127.2H56l.7,6.7H57a15.9,15.9,0,0,1,5-5.5A11.2,11.2,0,0,1,68.2,126.6Zm42.3,18.9q0,9-4.5,14t-12.6,5a16.7,16.7,0,0,1-8.8-2.3,15.2,15.2,0,0,1-5.9-6.7,23.2,23.2,0,0,1-2.1-10.1q0-8.9,4.5-13.9t12.6-5q7.7,0,12.3,5.1T110.5,145.5Zm-27.7,0q0,6.9,2.7,10.5t8,3.6q5.2,0,8-3.6t2.7-10.5q0-6.9-2.8-10.4t-8.1-3.5Q82.8,131.6,82.8,145.5Zm54.6-18.9q7.2,0,11.2,5t3.9,13.9q0,9.1-4,14t-11.1,5a15.7,15.7,0,0,1-6.6-1.3,11.6,11.6,0,0,1-4.7-4h-.5l-1.2,4.6H120V111.9h6v12.6q0,3.8-.3,7.5h.3Q129.7,126.6,137.4,126.6Zm-1,5q-5.5,0-7.9,3.1T126,145.4v.3q0,7.5,2.5,10.7t8,3.2a8.2,8.2,0,0,0,7.4-3.6q2.4-3.6,2.4-10.5t-2.4-10.4Q141.4,131.6,136.4,131.6Zm25.2-14.3a3.3,3.3,0,0,1,3.5-3.8,3.4,3.4,0,0,1,3.5,3.8,3.7,3.7,0,0,1-1.1,2.9,3.8,3.8,0,0,1-5,0A3.8,3.8,0,0,1,161.6,117.3Zm6.5,46.6h-6V127.2h6Zm17.6,0h-6V111.9h6Zm17.6,0h-6V111.9h6Zm34.3,0-1.2-5.2h-.3a15.4,15.4,0,0,1-5.5,4.7,16.8,16.8,0,0,1-6.9,1.2q-5.4,0-8.5-2.8t-3.1-8q0-11.2,17.6-11.7l6.2-.2v-2.2q0-4.2-1.8-6.2t-5.8-2a17.1,17.1,0,0,0-5.5.9,45,45,0,0,0-4.9,1.9l-1.8-4.5a27.2,27.2,0,0,1,6-2.3,26.1,26.1,0,0,1,6.5-.8q6.6,0,9.9,2.9t3.2,9.3v25Zm-12.4-4.2a11.1,11.1,0,0,0,7.9-2.7q2.9-2.7,2.9-7.7V146l-5.4.2q-6.3.2-9.2,2a6.1,6.1,0,0,0-2.9,5.6,5.5,5.5,0,0,0,1.8,4.4A7.2,7.2,0,0,0,225.2,159.7Zm45.2-33.2a20.7,20.7,0,0,1,4.3.4l-.7,5.5a17.8,17.8,0,0,0-4-.5,9.8,9.8,0,0,0-5.4,1.6,10.9,10.9,0,0,0-3.9,4.4,13.9,13.9,0,0,0-1.4,6.3v19.6h-6V127.2h4.9l.7,6.7h.3a15.9,15.9,0,0,1,5-5.5A11.2,11.2,0,0,1,270.4,126.6Zm23.5,38q-7.1,0-11.1-4.9t-3.9-14q0-9,4-14t11.1-5q7.4,0,11.4,5.4h.4q-.1-.7-.3-2.7t-.2-2.7V111.9h6v51.9h-4.8l-.9-4.9h-.3Q301.5,164.5,293.9,164.5Zm1-5q5.5,0,8-3t2.5-9.8v-1.1q0-7.6-2.6-10.9t-8-3.3a8.2,8.2,0,0,0-7.2,3.7q-2.5,3.7-2.5,10.5t2.5,10.3A8.4,8.4,0,0,0,294.9,159.6ZM97.4,234.8a12.7,12.7,0,0,1-10.8-5.3q-3.9-5.3-3.9-14.8t4-15a13,13,0,0,1,11-5.4,12.7,12.7,0,0,1,11.2,5.7h.3a43.6,43.6,0,0,1-.8-7.8V179.8h10.7v54.4H111l-2.1-5.1h-.5Q104.9,234.8,97.4,234.8Zm3.7-8.5q4.1,0,6-2.4t2.1-8.1v-1.2q0-6.3-1.9-9T101,203a6.3,6.3,0,0,0-5.5,3q-2,3-2,8.8t2,8.6A6.5,6.5,0,0,0,101.1,226.4Zm46.8,8.5q-9.4,0-14.7-5.2t-5.3-14.7q0-9.8,4.9-15.2t13.6-5.4q8.3,0,12.9,4.7t4.6,13v5.2H138.7a10.3,10.3,0,0,0,2.7,7.1,9.5,9.5,0,0,0,7.1,2.6,29.3,29.3,0,0,0,6.7-.7,33.4,33.4,0,0,0,6.6-2.3v8.2a25,25,0,0,1-6,2.1A37.7,37.7,0,0,1,148,234.8Zm-1.5-32.9a6.8,6.8,0,0,0-5.3,2.1,9.9,9.9,0,0,0-2.2,6.1h15a8.9,8.9,0,0,0-2.1-6.1A7,7,0,0,0,146.5,201.9Zm53.3,20.6q0,6-4.2,9.2t-12.5,3.1a39.2,39.2,0,0,1-7.3-.6,27.5,27.5,0,0,1-5.6-1.7v-8.8a37.1,37.1,0,0,0,6.7,2.3,27.1,27.1,0,0,0,6.6.9q5.8,0,5.8-3.4a2.8,2.8,0,0,0-.8-2,11.1,11.1,0,0,0-2.7-1.8l-5-2.3a31.6,31.6,0,0,1-6.6-3.5,9.8,9.8,0,0,1-3.1-3.7,12.2,12.2,0,0,1-1-5.1,9.3,9.3,0,0,1,4-8.1q4-2.8,11.4-2.8a32.5,32.5,0,0,1,13.7,3.1l-3.2,7.7q-2.9-1.3-5.5-2.1a17.2,17.2,0,0,0-5.2-.8q-4.7,0-4.7,2.6a3,3,0,0,0,1.5,2.5,41.3,41.3,0,0,0,6.7,3.1,30.9,30.9,0,0,1,6.7,3.5,10.2,10.2,0,0,1,3.1,3.7A11.4,11.4,0,0,1,199.8,222.5Zm7.9-37.6q0-5.2,5.8-5.2t5.8,5.2a5.1,5.1,0,0,1-1.4,3.9,6.1,6.1,0,0,1-4.3,1.4Q207.7,190.2,207.7,185Zm11.1,49.2H208.2V195.1h10.7Zm45.3.1q0,8.4-4.9,12.8t-14.6,4.3A41.1,41.1,0,0,1,230,249v-8.5a38.6,38.6,0,0,0,15.2,3q8.2,0,8.2-8.9v-.8l.3-4.8h-.3q-3.7,5.8-11.1,5.8a12.6,12.6,0,0,1-10.9-5.4q-3.9-5.4-3.9-14.7t4-15a13,13,0,0,1,11-5.4,13.2,13.2,0,0,1,11.3,5.7h.3l.9-5h9Zm-18-7.7q4.3,0,6.1-2.5t1.9-8v-1.3q0-6.3-1.9-9T246,203q-7.5,0-7.5,11.8,0,5.9,1.9,8.8A6.4,6.4,0,0,0,246.2,226.5Zm65.2,7.7H300.7V211.3q0-4.2-1.5-6.3a5.5,5.5,0,0,0-4.8-2.1q-4.5,0-6.5,3t-2,9.9v18.4H275.3V195.1h8.1l1.4,5h.6a11.3,11.3,0,0,1,4.9-4.3,16.7,16.7,0,0,1,7.1-1.4q6.8,0,10.3,3.7t3.5,10.6Z" fill="#fff"/></svg>