<svg xmlns="http://www.w3.org/2000/svg" width="5in" height="5in" viewBox="0 0 362.4 362.4"><path fill="#fff" d="M349.4 13v336.4H13V13h336.4m13-13H0v362.4h362.4V0z"/><path fill="#fff" d="M26.5 26.5v309.4h309.4V26.5zm41.6 97.1a20.7 20.7 0 0 1 4.3.4l-.7 5.5a17.8 17.8 0 0 0-4-.5 9.8 9.8 0 0 0-5.4 1.6 10.9 10.9 0 0 0-3.9 4.4 13.9 13.9 0 0 0-1.4 6.3V161h-6v-36.7h5l.7 6.7h.3a15.9 15.9 0 0 1 5-5.5 11.2 11.2 0 0 1 6.2-1.8zm42.3 18.9q0 9-4.5 14t-12.6 5a16.7 16.7 0 0 1-8.8-2.3 15.2 15.2 0 0 1-5.9-6.7 23.2 23.2 0 0 1-2.1-10.1q0-8.9 4.5-13.9t12.6-5q7.7 0 12.3 5.1t4.6 14zm-27.7 0q0 6.9 2.7 10.5t8 3.6q5.2 0 8-3.6t2.7-10.5q0-6.9-2.8-10.4t-8.1-3.5q-10.4.1-10.4 14zm54.6-18.9q7.2 0 11.2 5t3.9 13.9q0 9.1-4 14t-11.1 5a15.7 15.7 0 0 1-6.6-1.3 11.6 11.6 0 0 1-4.7-4h-.5l-1.2 4.6H120V109h6v12.6q0 3.8-.3 7.5h.3q3.7-5.4 11.4-5.4zm-1 5q-5.5 0-7.9 3.1t-2.4 10.7v.3q0 7.5 2.5 10.7t8 3.2a8.2 8.2 0 0 0 7.4-3.6q2.4-3.6 2.4-10.5t-2.4-10.4q-2.5-3.4-7.5-3.4zm25.2-14.3a3.3 3.3 0 0 1 3.5-3.8 3.4 3.4 0 0 1 3.5 3.8 3.7 3.7 0 0 1-1.1 2.9 3.8 3.8 0 0 1-5 0 3.8 3.8 0 0 1-.8-2.8zm6.5 46.6h-6v-36.6h6zm17.6 0h-6V109h6zm17.6 0h-6V109h6zm34.3 0l-1.2-5.2h-.3a15.4 15.4 0 0 1-5.5 4.7 16.8 16.8 0 0 1-6.9 1.2q-5.4 0-8.5-2.8t-3.1-8q0-11.2 17.6-11.7l6.2-.2v-2.2q0-4.2-1.8-6.2t-5.8-2a17.1 17.1 0 0 0-5.5.9 45 45 0 0 0-4.9 1.9l-1.8-4.5a27.2 27.2 0 0 1 6-2.3 26.1 26.1 0 0 1 6.5-.8q6.6 0 9.9 2.9t3.6 9.4v25zm-12.4-4.2a11.1 11.1 0 0 0 7.9-2.7q2.9-2.7 2.9-7.7V143l-5.4.2q-6.3.2-9.2 2a6.1 6.1 0 0 0-2.9 5.6 5.5 5.5 0 0 0 1.8 4.4 7.2 7.2 0 0 0 5 1.6zm45.2-33.2a20.7 20.7 0 0 1 4.3.4l-.7 5.5a17.8 17.8 0 0 0-4-.5 9.8 9.8 0 0 0-5.4 1.6 10.9 10.9 0 0 0-3.9 4.4 13.9 13.9 0 0 0-1.4 6.3V161h-6v-36.7h4.9l.7 6.7h.3a15.9 15.9 0 0 1 5-5.5 11.2 11.2 0 0 1 6.3-1.8zm23.5 38q-7.1 0-11.1-4.9t-3.9-14q0-9 4-14t11.1-5q7.4 0 11.4 5.4h.4q-.1-.7-.3-2.7t-.2-2.7V109h6v52h-4.8l-.9-4.9h-.3q-3.7 5.5-11.3 5.5zm1-5q5.5 0 8-3t2.5-9.8v-1.1q0-7.6-2.6-10.9t-8-3.3a8.2 8.2 0 0 0-7.2 3.7q-2.5 3.7-2.5 10.5t2.5 10.3a8.4 8.4 0 0 0 7.4 3.8zm-101.4 21.4q0-5.9 6.6-5.9t6.6 5.9a5.8 5.8 0 0 1-1.7 4.4 6.9 6.9 0 0 1-5 1.6q-6.5-.1-6.5-6zM67.9 234.6a14.4 14.4 0 0 1-12.3-6.1q-4.5-6.1-4.5-16.9t4.6-17a14.8 14.8 0 0 1 12.5-6.1q8.4 0 12.8 6.5h.4a49.6 49.6 0 0 1-.9-8.9v-14.2h12.1v61.9h-9.3L81 228h-.5q-4.2 6.6-12.6 6.6zm4.3-9.7q4.7 0 6.8-2.7t2.4-9.2v-1.3q0-7.2-2.2-10.3t-7.2-3.1a7.1 7.1 0 0 0-6.3 3.4q-2.2 3.4-2.2 10t2.3 9.8a7.4 7.4 0 0 0 6.3 3.4zm53.3 9.7q-10.7 0-16.8-5.9t-6-16.8q0-11.2 5.6-17.3t15.4-6.1q9.4 0 14.7 5.4t5.2 14.8v5.9h-28.7a11.7 11.7 0 0 0 3.1 8.1q2.9 2.9 8 2.9a33.3 33.3 0 0 0 7.6-.8 38 38 0 0 0 7.5-2.7v9.4a28.5 28.5 0 0 1-6.8 2.4 42.9 42.9 0 0 1-8.9.7zm-1.7-37.5a7.7 7.7 0 0 0-6 2.4 11.3 11.3 0 0 0-2.5 6.9h17a10.1 10.1 0 0 0-2.3-6.9 7.9 7.9 0 0 0-6.3-2.4zm60.7 23.5q0 6.8-4.8 10.4t-14.2 3.6a44.6 44.6 0 0 1-8.3-.7 31.3 31.3 0 0 1-6.4-1.9v-10a42.3 42.3 0 0 0 7.6 2.7 30.8 30.8 0 0 0 7.5 1.1q6.6 0 6.6-3.8a3.2 3.2 0 0 0-.9-2.3 12.7 12.7 0 0 0-3-2l-5.7-2.6a36 36 0 0 1-7.5-4 11.2 11.2 0 0 1-3.5-4.2 13.8 13.8 0 0 1-1.1-5.8 10.6 10.6 0 0 1 4.6-9.2q4.6-3.2 13-3.2A37 37 0 0 1 184 192l-3.7 8.7q-3.3-1.4-6.2-2.3a19.6 19.6 0 0 0-5.9-.9q-5.4 0-5.4 2.9a3.4 3.4 0 0 0 1.7 2.8 47 47 0 0 0 7.6 3.5 35.2 35.2 0 0 1 7.6 3.9 11.6 11.6 0 0 1 3.6 4.2 13 13 0 0 1 1.1 5.8zm21.5 13.2h-12.1v-44.4H206zm51.6.1q0 9.6-5.6 14.5t-16.6 5a46.7 46.7 0 0 1-16.6-2.6V241a44 44 0 0 0 17.3 3.4q9.3 0 9.3-10.1v-.9l.4-5.4h-.4q-4.3 6.6-12.6 6.6a14.3 14.3 0 0 1-12.4-6.2q-4.4-6.2-4.4-16.8t4.6-17a14.8 14.8 0 0 1 12.5-6.1A15 15 0 0 1 246 195h.3l1-5.7h10.3zm-20.4-8.8q4.9 0 7-2.8t2.1-9.1v-1.5q0-7.1-2.2-10.2t-7.1-3.1q-8.5 0-8.5 13.4 0 6.7 2.1 10a7.3 7.3 0 0 0 6.6 3.3zm74.2 8.7h-12.2v-26q0-4.8-1.7-7.2t-5.4-2.4q-5.1 0-7.4 3.4t-2.3 11.3v20.9h-12.1v-44.4h9.3l1.6 5.7h.7a12.8 12.8 0 0 1 5.6-4.9 19 19 0 0 1 8.1-1.7q7.8 0 11.8 4.2t4 12.1z"/></svg>