<svg xmlns="http://www.w3.org/2000/svg" viewBox="0 0 720 720"><defs><style>.cls-1{isolation:isolate;}.cls-2{fill:#5e0d8b;}.cls-17,.cls-3{fill:#fff;}.cls-4{fill:#f47d30;}.cls-11,.cls-12,.cls-13,.cls-14,.cls-15,.cls-16,.cls-5{fill:none;}.cls-14,.cls-17,.cls-5{stroke:#fff;}.cls-11,.cls-12,.cls-13,.cls-14,.cls-17,.cls-5{stroke-miterlimit:10;}.cls-5{stroke-width:9.11px;}.cls-6,.cls-8{opacity:0.25;}.cls-7{fill:#bbb6b4;}.cls-8{mix-blend-mode:darken;}.cls-9{fill:#cdc9c8;}.cls-10{fill:#98918f;}.cls-11,.cls-13,.cls-15{stroke:#000;}.cls-11,.cls-12{stroke-width:2.02px;}.cls-12,.cls-16{stroke:#5e0d8b;}.cls-13{stroke-linecap:round;stroke-width:0.51px;}.cls-14{stroke-width:7.81px;}.cls-15,.cls-16{stroke-linejoin:round;}.cls-15{stroke-width:19.52px;}.cls-16{stroke-width:13.01px;}</style></defs><title>osba-flag</title><g class="cls-1"><g id="Layer_1" data-name="Layer 1"><path d="M353.49,243.66c110.91,0,200.83,89.91,200.83,200.83S464.41,645.32,353.49,645.32,152.67,555.4,152.67,444.49s89.91-200.83,200.83-200.83m0-22.12a222.32,222.32,0,1,0,86.79,17.53,221.57,221.57,0,0,0-86.79-17.53Z"/><path class="cls-2" d="M353.49,243.66c110.91,0,200.83,89.91,200.83,200.83S464.41,645.32,353.49,645.32,152.67,555.4,152.67,444.49s89.91-200.83,200.83-200.83m0-15.62a215.81,215.81,0,1,0,84.25,17,215.1,215.1,0,0,0-84.25-17Z"/><path class="cls-3" d="M353.49,243.66c110.91,0,200.83,89.91,200.83,200.83S464.41,645.32,353.49,645.32,152.67,555.4,152.67,444.49s89.91-200.83,200.83-200.83m0-6.51a206.7,206.7,0,1,0,80.71,16.3,206,206,0,0,0-80.71-16.3Z"/><circle class="cls-4" cx="353.49" cy="444.49" r="200.83"/><ellipse class="cls-5" cx="353.49" cy="437.66" rx="202.56" ry="135.01"/><path class="cls-6" d="M403.76,434,388,433.85,383.63,227.7c3.59.49,7.17,1.08,10.71,1.76Z"/><path class="cls-7" d="M318.58,385.33l-1,48.52c-42.78.75-83.11,2.83-119.4,6l-1-48.41C234,388.21,275.05,386.06,318.58,385.33Z"/><path class="cls-8" d="M152.84,376.81l-7,.84L158.22,348l12.45-1.55s-6.26,11.66-7.12,13.5S152.84,376.81,152.84,376.81Z"/><path class="cls-2" d="M196.83,372.11c-15.44,1.37-30.16,2.93-44,4.69v0l5.4-25.9q16-1.94,33.45-3.55Z"/><path class="cls-9" d="M388,433.85q-17.33-.32-35.19-.31t-35.19.31l5.13-254.34h60.12Z"/><rect class="cls-2" x="319.48" y="173.79" width="66.63" height="14.61"/><path class="cls-2" d="M319,365.94l-.39,19.39c-43.53.73-84.54,2.87-121.36,6.13l-.39-19.35C233.86,368.83,275.14,366.67,319,365.94Z"/><path class="cls-9" d="M198.21,439.87c-15.43,1.35-30.14,2.9-44,4.62l-1.38-67.68c13.84-1.76,28.55-3.33,44-4.69Z"/><path class="cls-10" d="M186.15,426.82q-10.45.81-20.58,1.72l-.68-32.43c3.51-.31,7.06-7.74,10.63-8,3.3-.28,6.62,6.58,10,6.32Z"/><path class="cls-7" d="M387,385.33l1,48.52c42.78.75,83.11,2.83,119.4,6l1-48.41C471.54,388.21,430.54,386.06,387,385.33Z"/><path class="cls-8" d="M552.78,376.82l6.89.74-9.13-29.32-14.14-1.66s6.19,11.85,7,13.7S552.78,376.82,552.78,376.82Z"/><path class="cls-2" d="M508.76,372.11c15.44,1.37,30.16,2.93,44,4.69v0l-5.4-25.9q-16-1.94-33.45-3.55Z"/><path class="cls-2" d="M386.61,365.94l.39,19.39c43.53.73,84.54,2.87,121.36,6.13l.39-19.35C471.73,368.83,430.45,366.67,386.61,365.94Z"/><path class="cls-9" d="M507.38,439.87c15.43,1.35,30.14,2.9,44,4.62l1.38-67.68c-13.84-1.76-28.55-3.33-44-4.69Z"/><polygon class="cls-2" points="339.27 122.43 326.35 179.51 379.25 179.51 366.32 122.43 339.27 122.43"/><polygon class="cls-8" points="196.83 372.11 204.38 371.46 205.26 439.27 198.21 439.87 196.83 372.11"/><path class="cls-10" d="M223.4,425.19q-6.94.54-13.65,1.14l-.45-21.52c2.33-.21,3.91-5.13,6.28-5.33,2.19-.18,5.17,4.36,7.39,4.19Z"/><path class="cls-10" d="M250.72,423.32c-4.61.27-9.17.55-13.67.87l-.44-21.53c2.33-.16,3.91-5,6.28-5.19,2.19-.14,5.17,4.45,7.39,4.32Z"/><path class="cls-10" d="M278.05,421.94c-4.6.19-9.15.4-13.65.64L263.95,401c2.34-.11,3.92-4.95,6.29-5.06,2.19-.1,5.17,4.53,7.38,4.44Z"/><path class="cls-10" d="M305.4,421q-6.88.17-13.67.4l-.44-21.53c2.34-.08,3.92-4.88,6.28-4.95,2.19-.07,5.17,4.59,7.38,4.54Z"/><path class="cls-10" d="M482.2,425.19q6.94.54,13.65,1.14l.45-21.52c-2.33-.21-3.91-5.13-6.28-5.33-2.19-.18-5.17,4.36-7.39,4.19Z"/><path class="cls-10" d="M454.88,423.32c4.61.27,9.17.55,13.67.87l.44-21.53c-2.33-.16-3.91-5-6.28-5.19-2.19-.14-5.17,4.45-7.39,4.32Z"/><path class="cls-10" d="M427.55,421.94c4.6.19,9.15.4,13.65.64l.45-21.54c-2.34-.11-3.92-4.95-6.29-5.06-2.19-.1-5.17,4.53-7.38,4.44Z"/><path class="cls-10" d="M400.2,421q6.88.17,13.67.4l.44-21.53c-2.34-.08-3.92-4.88-6.28-4.95-2.19-.07-5.17,4.59-7.38,4.54Z"/><polygon class="cls-8" points="386.61 365.94 400.64 366.22 403.76 434.04 387.98 433.85 386.61 365.94"/><g class="cls-8"><circle class="cls-11" cx="353.81" cy="226.01" r="17.71"/><circle class="cls-11" cx="352.8" cy="225" r="17.71"/></g><circle class="cls-3" cx="352.8" cy="225" r="17.71"/><circle class="cls-12" cx="352.8" cy="225" r="17.71"/><circle cx="352.8" cy="225" r="2.17"/><path d="M355,226.29a2.55,2.55,0,0,1-1.23,1.08l11.55,4.88-10-7.57A2.55,2.55,0,0,1,355,226.29Z"/><path d="M343.32,225l7.07.88a2.44,2.44,0,0,1,0-1.76Z"/><line class="cls-13" x1="352.8" y1="236.79" x2="352.8" y2="240.25"/><line class="cls-13" x1="352.8" y1="238.52" x2="352.8" y2="240.25"/><line class="cls-13" x1="362.36" y1="234.56" x2="363.58" y2="235.78"/><line class="cls-13" x1="362.36" y1="215.44" x2="363.58" y2="214.21"/><line class="cls-13" x1="343.24" y1="215.44" x2="342.01" y2="214.21"/><line class="cls-13" x1="343.24" y1="234.56" x2="342.01" y2="235.78"/><line class="cls-13" x1="364.59" y1="225" x2="368.05" y2="225"/><line class="cls-13" x1="352.8" y1="213.2" x2="352.8" y2="209.75"/><line class="cls-13" x1="341" y1="225" x2="337.55" y2="225"/><path class="cls-10" d="M519.44,426.82q10.45.81,20.58,1.72l.68-32.43c-3.51-.31-7.06-7.74-10.63-8-3.3-.28-6.62,6.58-10,6.32Z"/><path class="cls-10" d="M371.41,433.63V381.12c-8.17-1.18-13.16-11.35-18.61-11.35s-10.45,10.17-18.61,11.35v52.51q9.24-.08,18.61-.09T371.41,433.63Z"/><g class="cls-8"><path d="M360.24,173.79v-21c-3.27-.47-5.26-4.54-7.44-4.54s-4.18,4.07-7.44,4.54v21q3.7,0,7.44,0T360.24,173.79Z"/></g><polygon class="cls-10" points="347.16 347.33 335.93 347.33 336.99 260.17 347.53 260.17 347.16 347.33"/><polygon class="cls-10" points="369.63 347.33 358.39 347.33 358.07 260.17 368.61 260.17 369.63 347.33"/><path class="cls-14" d="M554.32,444.49c0-.07,0-.13,0-.2-53.59-7.76-123.86-12.46-200.82-12.46s-147.24,4.71-200.82,12.46c0,.07,0,.13,0,.2"/><path class="cls-15" d="M127.93,482.09c-1-11.21,5.48-17.82,18.76-19l15.82-1.46c13.28-1.22,20.89,4.09,21.92,15.29L189,526c1,11.21-5.48,17.82-18.76,19l-15.82,1.46c-13.28,1.22-20.89-4.09-21.92-15.29ZM165.68,530c3.67-.34,5.51-2.07,5.21-5.29l-4-43.16c-.29-3.1-2.42-4.59-6.09-4.25l-9,.83c-3.67.34-5.5,2.19-5.21,5.29l4,43.16c.3,3.22,2.42,4.59,6.09,4.25Z"/><path class="cls-15" d="M258.12,455.4c1.56-.08,2.3.6,2.37,1.79l.63,12c.06,1.2-.61,2-2.17,2l-16.43.87L246,538c.07,1.31-.61,2-2.17,2l-14.73.78c-1.42.08-2.3-.48-2.37-1.79l-3.48-66-16.43.87c-1.42.08-2.3-.6-2.37-1.79l-.63-12c-.06-1.2.75-2,2.17-2Z"/><path class="cls-15" d="M328.78,453.54c1.56,0,2.29.67,2.31,1.86l.27,12c0,1.2-.67,1.93-2.23,2l-16.45.37,1.5,66.07c0,1.32-.67,1.93-2.23,2l-14.75.33c-1.42,0-2.28-.55-2.31-1.86l-1.5-66.07-16.45.37c-1.42,0-2.29-.67-2.31-1.86l-.27-12c0-1.2.81-1.93,2.23-2Z"/><path class="cls-15" d="M392.68,537.4a2.09,2.09,0,0,1-2.26-1.69L386,520.61l-26.67-.13-4.47,15.06a2.09,2.09,0,0,1-2.28,1.67l-13.9-.07c-1.56,0-2.27-.73-1.83-2l23.92-80a2.14,2.14,0,0,1,2.42-1.66l19.72.09a2.14,2.14,0,0,1,2.4,1.69l23.17,80.2c.42,1.32-.29,2-2,2Zm-19.84-63.31-9.09,32.52,17.87.08Z"/><path class="cls-15" d="M512,457.61c2,.08,2.94,1.08,2.59,2.63l-17,78.49c-.34,1.42-1.37,2.1-3.21,2l-15.3-.65a2.87,2.87,0,0,1-3-2.29l-11-49.59-15.26,48.48a2.87,2.87,0,0,1-3.21,2L431,538.07c-1.84-.08-2.8-.84-3-2.4l-9.69-79.5c-.22-1.57.81-2.48,2.8-2.4l13.32.56c1.7.07,2.66.83,2.88,2.4L442.16,507l.71,0,16-49.65a2.9,2.9,0,0,1,3.2-1.9l8.64.37a2.9,2.9,0,0,1,3,2.17l11.76,50.83.71,0,9.34-49.69c.35-1.54,1.23-2.22,3.07-2.15Z"/><path class="cls-15" d="M574.2,547.13a2.09,2.09,0,0,1-2.11-1.87l-3.18-15.43-26.56-2.37-5.72,14.63a2.09,2.09,0,0,1-2.41,1.47l-13.84-1.24c-1.55-.14-2.2-.92-1.66-2.19l30.58-77.68a2.14,2.14,0,0,1,2.55-1.46l19.64,1.75a2.14,2.14,0,0,1,2.25,1.88l16.33,81.87c.31,1.35-.46,2-2.16,1.85Zm-14.44-64.75L548,514l17.8,1.59Z"/><path class="cls-16" d="M127.93,482.09c-1-11.21,5.48-17.82,18.76-19l15.82-1.46c13.28-1.22,20.89,4.09,21.92,15.29L189,526c1,11.21-5.48,17.82-18.76,19l-15.82,1.46c-13.28,1.22-20.89-4.09-21.92-15.29ZM165.68,530c3.67-.34,5.51-2.07,5.21-5.29l-4-43.16c-.29-3.1-2.42-4.59-6.09-4.25l-9,.83c-3.67.34-5.5,2.19-5.21,5.29l4,43.16c.3,3.22,2.42,4.59,6.09,4.25Z"/><path class="cls-16" d="M258.12,455.4c1.56-.08,2.3.6,2.37,1.79l.63,12c.06,1.2-.61,2-2.17,2l-16.43.87L246,538c.07,1.31-.61,2-2.17,2l-14.73.78c-1.42.08-2.3-.48-2.37-1.79l-3.48-66-16.43.87c-1.42.08-2.3-.6-2.37-1.79l-.63-12c-.06-1.2.75-2,2.17-2Z"/><path class="cls-16" d="M328.78,453.54c1.56,0,2.29.67,2.31,1.86l.27,12c0,1.2-.67,1.93-2.23,2l-16.45.37,1.5,66.07c0,1.32-.67,1.93-2.23,2l-14.75.33c-1.42,0-2.28-.55-2.31-1.86l-1.5-66.07-16.45.37c-1.42,0-2.29-.67-2.31-1.86l-.27-12c0-1.2.81-1.93,2.23-2Z"/><path class="cls-16" d="M392.68,537.4a2.09,2.09,0,0,1-2.26-1.69L386,520.61l-26.67-.13-4.47,15.06a2.09,2.09,0,0,1-2.28,1.67l-13.9-.07c-1.56,0-2.27-.73-1.83-2l23.92-80a2.14,2.14,0,0,1,2.42-1.66l19.72.09a2.14,2.14,0,0,1,2.4,1.69l23.17,80.2c.42,1.32-.29,2-2,2Zm-19.84-63.31-9.09,32.52,17.87.08Z"/><path class="cls-16" d="M512,457.61c2,.08,2.94,1.08,2.59,2.63l-17,78.49c-.34,1.42-1.37,2.1-3.21,2l-15.3-.65a2.87,2.87,0,0,1-3-2.29l-11-49.59-15.26,48.48a2.87,2.87,0,0,1-3.21,2L431,538.07c-1.84-.08-2.8-.84-3-2.4l-9.69-79.5c-.22-1.57.81-2.48,2.8-2.4l13.32.56c1.7.07,2.66.83,2.88,2.4L442.16,507l.71,0,16-49.65a2.9,2.9,0,0,1,3.2-1.9l8.64.37a2.9,2.9,0,0,1,3,2.17l11.76,50.83.71,0,9.34-49.69c.35-1.54,1.23-2.22,3.07-2.15Z"/><path class="cls-16" d="M574.2,547.13a2.09,2.09,0,0,1-2.11-1.87l-3.18-15.43-26.56-2.37-5.72,14.63a2.09,2.09,0,0,1-2.41,1.47l-13.84-1.24c-1.55-.14-2.2-.92-1.66-2.19l30.58-77.68a2.14,2.14,0,0,1,2.55-1.46l19.64,1.75a2.14,2.14,0,0,1,2.25,1.88l16.33,81.87c.31,1.35-.46,2-2.16,1.85Zm-14.44-64.75L548,514l17.8,1.59Z"/><path class="cls-3" d="M127.93,482.09c-1-11.21,5.48-17.82,18.76-19l15.82-1.46c13.28-1.22,20.89,4.09,21.92,15.29L189,526c1,11.21-5.48,17.82-18.76,19l-15.82,1.46c-13.28,1.22-20.89-4.09-21.92-15.29ZM165.68,530c3.67-.34,5.51-2.07,5.21-5.29l-4-43.16c-.29-3.1-2.42-4.59-6.09-4.25l-9,.83c-3.67.34-5.5,2.19-5.21,5.29l4,43.16c.3,3.22,2.42,4.59,6.09,4.25Z"/><path class="cls-3" d="M258.12,455.4c1.56-.08,2.3.6,2.37,1.79l.63,12c.06,1.2-.61,2-2.17,2l-16.43.87L246,538c.07,1.31-.61,2-2.17,2l-14.73.78c-1.42.08-2.3-.48-2.37-1.79l-3.48-66-16.43.87c-1.42.08-2.3-.6-2.37-1.79l-.63-12c-.06-1.2.75-2,2.17-2Z"/><path class="cls-3" d="M328.78,453.54c1.56,0,2.29.67,2.31,1.86l.27,12c0,1.2-.67,1.93-2.23,2l-16.45.37,1.5,66.07c0,1.32-.67,1.93-2.23,2l-14.75.33c-1.42,0-2.28-.55-2.31-1.86l-1.5-66.07-16.45.37c-1.42,0-2.29-.67-2.31-1.86l-.27-12c0-1.2.81-1.93,2.23-2Z"/><path class="cls-3" d="M392.68,537.4a2.09,2.09,0,0,1-2.26-1.69L386,520.61l-26.67-.13-4.47,15.06a2.09,2.09,0,0,1-2.28,1.67l-13.9-.07c-1.56,0-2.27-.73-1.83-2l23.92-80a2.14,2.14,0,0,1,2.42-1.66l19.72.09a2.14,2.14,0,0,1,2.4,1.69l23.17,80.2c.42,1.32-.29,2-2,2Zm-19.84-63.31-9.09,32.52,17.87.08Z"/><path class="cls-3" d="M512,457.61c2,.08,2.94,1.08,2.59,2.63l-17,78.49c-.34,1.42-1.37,2.1-3.21,2l-15.3-.65a2.87,2.87,0,0,1-3-2.29l-11-49.59-15.26,48.48a2.87,2.87,0,0,1-3.21,2L431,538.07c-1.84-.08-2.8-.84-3-2.4l-9.69-79.5c-.22-1.57.81-2.48,2.8-2.4l13.32.56c1.7.07,2.66.83,2.88,2.4L442.16,507l.71,0,16-49.65a2.9,2.9,0,0,1,3.2-1.9l8.64.37a2.9,2.9,0,0,1,3,2.17l11.76,50.83.71,0,9.34-49.69c.35-1.54,1.23-2.22,3.07-2.15Z"/><path class="cls-3" d="M574.2,547.13a2.09,2.09,0,0,1-2.11-1.87l-3.18-15.43-26.56-2.37-5.72,14.63a2.09,2.09,0,0,1-2.41,1.47l-13.84-1.24c-1.55-.14-2.2-.92-1.66-2.19l30.58-77.68a2.14,2.14,0,0,1,2.55-1.46l19.64,1.75a2.14,2.14,0,0,1,2.25,1.88l16.33,81.87c.31,1.35-.46,2-2.16,1.85Zm-14.44-64.75L548,514l17.8,1.59Z"/><path class="cls-15" d="M231.82,562.93c10.42-.58,16.22,3.79,16.71,12.58l.34,6.17c.05.94-.47,1.53-1.69,1.6l-11.19.62c-1.11.06-1.8-.46-1.86-1.4l-.22-3.93c-.14-2.43-1.65-3.66-4.64-3.5l-6.1.34c-2.77.15-4.36,1.56-4.23,4l.44,8,27.23,5.8c1.92.46,3,1.52,3.07,3.3l1,17.59c.49,8.79-4.79,13.78-15.21,14.36l-12.41.69c-10.31.57-16.22-3.79-16.71-12.58l-.34-6.08c-.06-1,.58-1.53,1.69-1.6l11.19-.62c1.22-.07,1.8.37,1.86,1.4l.22,3.93c.14,2.53,1.87,3.65,4.64,3.5l6-.33c2.88-.16,4.37-1.46,4.23-4l-.53-9.45-27-5.82c-2-.45-3.09-1.52-3.19-3.29L204.2,578c-.49-8.79,4.9-13.79,15.21-14.36Z"/><path class="cls-15" d="M271.8,574.59c-.23-8.8,5.2-13.63,15.63-13.9l12.43-.32c10.43-.27,16.1,4.27,16.33,13.07l1,38.59c.23,8.8-5.2,13.63-15.63,13.9l-12.43.32c-10.43.27-16.1-4.27-16.33-13.07Zm27,39.32c2.89-.07,4.41-1.33,4.34-3.86l-.88-33.9c-.06-2.44-1.65-3.71-4.54-3.63l-7.1.18c-2.89.08-4.4,1.43-4.34,3.86l.88,33.9c.07,2.53,1.65,3.71,4.54,3.63Z"/><path class="cls-15" d="M381.57,559.71a2.08,2.08,0,0,1,2.22,1.88l-.06,50.22c0,8.81-5.57,13.48-16,13.47l-12.43,0c-10.44,0-16-4.7-16-13.51l.06-50.22a2.07,2.07,0,0,1,2.22-1.87h10.66a2.08,2.08,0,0,1,2.22,1.88l-.05,47.59c0,2.53,1.55,3.75,4.44,3.75h5.77c2.89,0,4.44-1.21,4.44-3.74l.05-47.59a2.08,2.08,0,0,1,2.22-1.87Z"/><path class="cls-15" d="M447.65,561.13c1.22,0,1.76.61,1.74,1.55l-.25,9.37c0,.94-.59,1.48-1.82,1.45l-12.87-.35-1.39,51.7c0,1-.59,1.48-1.82,1.45L419.7,626c-1.11,0-1.76-.52-1.73-1.55l1.39-51.7-12.87-.35c-1.11,0-1.76-.61-1.74-1.55l.25-9.37c0-.94.71-1.48,1.82-1.45Z"/><path class="cls-15" d="M500,565.16c.05-.94.75-1.46,1.86-1.4l11.42.63c1.33.07,1.85.67,1.8,1.6l-3.47,62.49c-.05.94-.64,1.47-2,1.39l-11.42-.63c-1.11-.06-1.74-.66-1.69-1.6l1.38-24.88L483.71,602l-1.38,24.88c-.05.94-.75,1.46-1.86,1.4l-11.42-.63c-1.33-.07-1.85-.67-1.8-1.6l3.47-62.49c.05-.94.64-1.47,2-1.39l11.42.63c1.11.06,1.74.66,1.69,1.59l-1.4,25.26,14.19.79Z"/><path class="cls-16" d="M231.82,562.93c10.42-.58,16.22,3.79,16.71,12.58l.34,6.17c.05.94-.47,1.53-1.69,1.6l-11.19.62c-1.11.06-1.8-.46-1.86-1.4l-.22-3.93c-.14-2.43-1.65-3.66-4.64-3.5l-6.1.34c-2.77.15-4.36,1.56-4.23,4l.44,8,27.23,5.8c1.92.46,3,1.52,3.07,3.3l1,17.59c.49,8.79-4.79,13.78-15.21,14.36l-12.41.69c-10.31.57-16.22-3.79-16.71-12.58l-.34-6.08c-.06-1,.58-1.53,1.69-1.6l11.19-.62c1.22-.07,1.8.37,1.86,1.4l.22,3.93c.14,2.53,1.87,3.65,4.64,3.5l6-.33c2.88-.16,4.37-1.46,4.23-4l-.53-9.45-27-5.82c-2-.45-3.09-1.52-3.19-3.29L204.2,578c-.49-8.79,4.9-13.79,15.21-14.36Z"/><path class="cls-16" d="M271.8,574.59c-.23-8.8,5.2-13.63,15.63-13.9l12.43-.32c10.43-.27,16.1,4.27,16.33,13.07l1,38.59c.23,8.8-5.2,13.63-15.63,13.9l-12.43.32c-10.43.27-16.1-4.27-16.33-13.07Zm27,39.32c2.89-.07,4.41-1.33,4.34-3.86l-.88-33.9c-.06-2.44-1.65-3.71-4.54-3.63l-7.1.18c-2.89.08-4.4,1.43-4.34,3.86l.88,33.9c.07,2.53,1.65,3.71,4.54,3.63Z"/><path class="cls-16" d="M381.57,559.71a2.08,2.08,0,0,1,2.22,1.88l-.06,50.22c0,8.81-5.57,13.48-16,13.47l-12.43,0c-10.44,0-16-4.7-16-13.51l.06-50.22a2.07,2.07,0,0,1,2.22-1.87h10.66a2.08,2.08,0,0,1,2.22,1.88l-.05,47.59c0,2.53,1.55,3.75,4.44,3.75h5.77c2.89,0,4.44-1.21,4.44-3.74l.05-47.59a2.08,2.08,0,0,1,2.22-1.87Z"/><path class="cls-16" d="M447.65,561.13c1.22,0,1.76.61,1.74,1.55l-.25,9.37c0,.94-.59,1.48-1.82,1.45l-12.87-.35-1.39,51.7c0,1-.59,1.48-1.82,1.45L419.7,626c-1.11,0-1.76-.52-1.73-1.55l1.39-51.7-12.87-.35c-1.11,0-1.76-.61-1.74-1.55l.25-9.37c0-.94.71-1.48,1.82-1.45Z"/><path class="cls-16" d="M500,565.16c.05-.94.75-1.46,1.86-1.4l11.42.63c1.33.07,1.85.67,1.8,1.6l-3.47,62.49c-.05.94-.64,1.47-2,1.39l-11.42-.63c-1.11-.06-1.74-.66-1.69-1.6l1.38-24.88L483.71,602l-1.38,24.88c-.05.94-.75,1.46-1.86,1.4l-11.42-.63c-1.33-.07-1.85-.67-1.8-1.6l3.47-62.49c.05-.94.64-1.47,2-1.39l11.42.63c1.11.06,1.74.66,1.69,1.59l-1.4,25.26,14.19.79Z"/><path class="cls-3" d="M231.82,562.93c10.42-.58,16.22,3.79,16.71,12.58l.34,6.17c.05.94-.47,1.53-1.69,1.6l-11.19.62c-1.11.06-1.8-.46-1.86-1.4l-.22-3.93c-.14-2.43-1.65-3.66-4.64-3.5l-6.1.34c-2.77.15-4.36,1.56-4.23,4l.44,8,27.23,5.8c1.92.46,3,1.52,3.07,3.3l1,17.59c.49,8.79-4.79,13.78-15.21,14.36l-12.41.69c-10.31.57-16.22-3.79-16.71-12.58l-.34-6.08c-.06-1,.58-1.53,1.69-1.6l11.19-.62c1.22-.07,1.8.37,1.86,1.4l.22,3.93c.14,2.53,1.87,3.65,4.64,3.5l6-.33c2.88-.16,4.37-1.46,4.23-4l-.53-9.45-27-5.82c-2-.45-3.09-1.52-3.19-3.29L204.2,578c-.49-8.79,4.9-13.79,15.21-14.36Z"/><path class="cls-3" d="M271.8,574.59c-.23-8.8,5.2-13.63,15.63-13.9l12.43-.32c10.43-.27,16.1,4.27,16.33,13.07l1,38.59c.23,8.8-5.2,13.63-15.63,13.9l-12.43.32c-10.43.27-16.1-4.27-16.33-13.07Zm27,39.32c2.89-.07,4.41-1.33,4.34-3.86l-.88-33.9c-.06-2.44-1.65-3.71-4.54-3.63l-7.1.18c-2.89.08-4.4,1.43-4.34,3.86l.88,33.9c.07,2.53,1.65,3.71,4.54,3.63Z"/><path class="cls-3" d="M381.57,559.71a2.08,2.08,0,0,1,2.22,1.88l-.06,50.22c0,8.81-5.57,13.48-16,13.47l-12.43,0c-10.44,0-16-4.7-16-13.51l.06-50.22a2.07,2.07,0,0,1,2.22-1.87h10.66a2.08,2.08,0,0,1,2.22,1.88l-.05,47.59c0,2.53,1.55,3.75,4.44,3.75h5.77c2.89,0,4.44-1.21,4.44-3.74l.05-47.59a2.08,2.08,0,0,1,2.22-1.87Z"/><path class="cls-3" d="M447.65,561.13c1.22,0,1.76.61,1.74,1.55l-.25,9.37c0,.94-.59,1.48-1.82,1.45l-12.87-.35-1.39,51.7c0,1-.59,1.48-1.82,1.45L419.7,626c-1.11,0-1.76-.52-1.73-1.55l1.39-51.7-12.87-.35c-1.11,0-1.76-.61-1.74-1.55l.25-9.37c0-.94.71-1.48,1.82-1.45Z"/><path class="cls-3" d="M500,565.16c.05-.94.75-1.46,1.86-1.4l11.42.63c1.33.07,1.85.67,1.8,1.6l-3.47,62.49c-.05.94-.64,1.47-2,1.39l-11.42-.63c-1.11-.06-1.74-.66-1.69-1.6l1.38-24.88L483.71,602l-1.38,24.88c-.05.94-.75,1.46-1.86,1.4l-11.42-.63c-1.33-.07-1.85-.67-1.8-1.6l3.47-62.49c.05-.94.64-1.47,2-1.39l11.42.63c1.11.06,1.74.66,1.69,1.59l-1.4,25.26,14.19.79Z"/><rect class="cls-9" x="351.4" y="77.56" width="2.79" height="44.88"/><circle class="cls-2" cx="352.8" cy="76.47" r="1.78"/><path class="cls-2" d="M384.12,78.7V92.77c-10,4.45-20-3.55-29.93.9V77.8C364.17,74,374.14,82.55,384.12,78.7Z"/><path class="cls-17" d="M376.64,94.16c-5-.11-10-1.78-15-1.89V76.86c5,.41,10,2.37,15,2.78Z"/><path class="cls-2" d="M368.93,91.34c0-.08,0-.15,0-.22s0-.42,0-.63,0-.47,0-.71l0-.58c0-.15,0-.3,0-.45a.33.33,0,0,0-.17-.27h-.08l-.46,0-.5,0-.47,0-.45,0-.45,0h-.11s0,0,0,0l.12-.37c0-.11.07-.21.1-.32a.36.36,0,0,0-.12-.35l-1.87-1.85-.62-.6,0,0,.26-.09.3-.1c.1,0,.13-.09.11-.21s-.07-.29-.11-.44l-.34-1.3s0,0,0,0l1.12.42.3.12a.19.19,0,0,0,.27-.12l.18-.59v0l0,.06.64.85.48.64a.46.46,0,0,0,.16.14c.11.06.2,0,.23-.09a.62.62,0,0,0,0-.26l-.13-.71-.13-.71-.13-.73-.1-.56v0h0l.66.49a.67.67,0,0,0,.19.1.2.2,0,0,0,.24-.06l.14-.22.77-1.27,0,0,.1.21.81,1.68a.34.34,0,0,0,.25.21.45.45,0,0,0,.22,0l.66-.2h0l0,.12-.17.85-.19,1-.12.63a.46.46,0,0,0,0,.19.21.21,0,0,0,.23.18.27.27,0,0,0,.16-.07l1-.88.18-.16h0l.07.25.12.42a.27.27,0,0,0,.26.2l1.41-.06c.05,0,0,0,0,0l-.42,1.45a.47.47,0,0,0,0,.12.2.2,0,0,0,.11.2l.21.12.33.19,0,0-.15.1-1,.64-1,.64-.37.23a.27.27,0,0,0-.11.33l.21.71s0,0,0,0l-.51-.15-.56-.19-.52-.17-.42-.14-.4-.13-.05,0a.12.12,0,0,0-.12,0,.21.21,0,0,0-.1.2c0,.2,0,.39,0,.59l0,.8v.55q0,.33,0,.67Z"/></g></g></svg>