<svg xmlns="http://www.w3.org/2000/svg" width="100" height="100" viewBox="0 0 100 100"><path fill="#fff" d="M0 22.4L.5 19A25.8 25.8 0 0 1 5 7.8a29.2 29.2 0 0 1 5.6-5.9 7.7 7.7 0 0 1 10.4.5l9.6 9.6 5.5 5.5a7.9 7.9 0 0 1 .4 11.4c-2 2.2-4.1 4.2-6.2 6.3l-1.8 1.6a73.2 73.2 0 0 0 34.8 34.7l5.1-5.2 2.7-2.6a7.8 7.8 0 0 1 9.4-1.3 15.9 15.9 0 0 1 3.3 2.8l13.7 13.6a10.1 10.1 0 0 1 2.5 4.6v2.2a14.8 14.8 0 0 1-1.2 3 25.4 25.4 0 0 1-7 6.9 24.4 24.4 0 0 1-16.7 4.2 61.6 61.6 0 0 1-18.7-5.4A84.5 84.5 0 0 1 43 86.7a112.6 112.6 0 0 1-14.8-12.3 175.7 175.7 0 0 1-12.7-13.8A80.1 80.1 0 0 1 4 42.8 43.6 43.6 0 0 1 .5 31L0 27.5z"/></svg>