<svg id="Layer_1" data-name="Layer 1" xmlns="http://www.w3.org/2000/svg" width="100" height="100" viewBox="0 0 100 100"><title>phone</title><g id="sjt93n.tif"><path d="M0,22.4.5,19A25.8,25.8,0,0,1,5,7.8a29.2,29.2,0,0,1,5.6-5.9A7.7,7.7,0,0,1,21,2.4L30.6,12l5.5,5.5a7.9,7.9,0,0,1,.4,11.4c-2,2.2-4.1,4.2-6.2,6.3l-1.8,1.6A73.2,73.2,0,0,0,63.3,71.5l5.1-5.2,2.7-2.6a7.8,7.8,0,0,1,9.4-1.3,15.9,15.9,0,0,1,3.3,2.8L97.5,78.8a10.1,10.1,0,0,1,2.5,4.6v2.2a14.8,14.8,0,0,1-1.2,3,25.4,25.4,0,0,1-7,6.9,24.4,24.4,0,0,1-16.7,4.2,61.6,61.6,0,0,1-18.7-5.4A84.5,84.5,0,0,1,43,86.7,112.6,112.6,0,0,1,28.2,74.4,175.7,175.7,0,0,1,15.5,60.6,80.1,80.1,0,0,1,4,42.8,43.6,43.6,0,0,1,.5,31L0,27.5Z" fill="#fff"/></g></svg>