<svg xmlns="http://www.w3.org/2000/svg" viewBox="0 0 211.33 142.72"><defs><style>.cls-1{fill:#fff;}</style></defs><title>Asset 3</title><g id="Layer_2" data-name="Layer 2"><g id="Layer_1-2" data-name="Layer 1"><path class="cls-1" d="M.16,54.47V23q0-1.46,1.76-1.46a2,2,0,0,1,1.24.4A1.29,1.29,0,0,1,3.67,23v3.73a10.84,10.84,0,0,1,3.92-4,11.23,11.23,0,0,1,6-1.61h2.64a1.55,1.55,0,0,1,1.13.48,1.77,1.77,0,0,1,0,2.42,1.55,1.55,0,0,1-1.13.48H13.63a9.48,9.48,0,0,0-6.92,3,10.45,10.45,0,0,0-3,7.72V54.47a1.49,1.49,0,0,1-.55,1.1,1.82,1.82,0,0,1-1.28.51A1.76,1.76,0,0,1,.67,55.6,1.49,1.49,0,0,1,.16,54.47Z"/><path class="cls-1" d="M20.51,43V34.48a12.93,12.93,0,0,1,4-9.41,12.83,12.83,0,0,1,9.44-4,13,13,0,0,1,9.44,4,12.78,12.78,0,0,1,4,9.44V43a13,13,0,0,1-4.06,9.44,12.84,12.84,0,0,1-18.78,0A13,13,0,0,1,20.51,43Zm3.59,0A10.09,10.09,0,0,0,27,50a9.12,9.12,0,0,0,6.92,3.11,9.24,9.24,0,0,0,7-3.11A10,10,0,0,0,43.79,43V34.48a9.83,9.83,0,0,0-2.93-7,9.29,9.29,0,0,0-7-3.07A9.17,9.17,0,0,0,27,27.53a9.89,9.89,0,0,0-2.89,7Z"/><path class="cls-1" d="M55.65,54.47V1.54a1.39,1.39,0,0,1,.51-1.1A1.85,1.85,0,0,1,57.4,0a2,2,0,0,1,1.32.44,1.39,1.39,0,0,1,.51,1.1V26.65a10.73,10.73,0,0,1,3.84-4A10.91,10.91,0,0,1,69,21.08,12.63,12.63,0,0,1,78.27,25a13,13,0,0,1,3.88,9.48V43a13.27,13.27,0,0,1-3.92,9.44,12.24,12.24,0,0,1-9.11,4.1,11.58,11.58,0,0,1-6-1.61,10.16,10.16,0,0,1-4-4v3.51a1.54,1.54,0,0,1-.51,1.1,1.69,1.69,0,0,1-1.24.51,1.76,1.76,0,0,1-1.25-.48A1.49,1.49,0,0,1,55.65,54.47Zm3.59-9q0,2.12,2.93,4.9a9.41,9.41,0,0,0,6.66,2.78A9.08,9.08,0,0,0,75.63,50,10,10,0,0,0,78.56,43V34.48a9.83,9.83,0,0,0-2.93-7,9.26,9.26,0,0,0-13.51-.29,9.6,9.6,0,0,0-2.89,7.25Z"/><path class="cls-1" d="M89.4,7.91a2.4,2.4,0,0,1,.81-1.79,2.75,2.75,0,0,1,2-.77,2.67,2.67,0,0,1,1.9.77,2.41,2.41,0,0,1,.81,1.79,2.61,2.61,0,0,1-.81,1.9,2.6,2.6,0,0,1-1.9.81,2.68,2.68,0,0,1-2-.81A2.6,2.6,0,0,1,89.4,7.91Zm1,46.56V23q0-1.46,1.76-1.46T94,23V54.47a1.49,1.49,0,0,1-.55,1.1,1.82,1.82,0,0,1-1.28.51,1.76,1.76,0,0,1-1.25-.48A1.49,1.49,0,0,1,90.42,54.47Z"/><path class="cls-1" d="M104.26,54.47V1.54a1.39,1.39,0,0,1,.51-1.1A1.84,1.84,0,0,1,106,0a2,2,0,0,1,1.32.44,1.39,1.39,0,0,1,.51,1.1V54.47a1.49,1.49,0,0,1-.55,1.1,1.81,1.81,0,0,1-1.28.51,1.76,1.76,0,0,1-1.25-.48A1.49,1.49,0,0,1,104.26,54.47Z"/><path class="cls-1" d="M118.68,54.47V1.54a1.39,1.39,0,0,1,.51-1.1A1.84,1.84,0,0,1,120.44,0a2,2,0,0,1,1.32.44,1.39,1.39,0,0,1,.51,1.1V54.47a1.49,1.49,0,0,1-.55,1.1,1.81,1.81,0,0,1-1.28.51,1.76,1.76,0,0,1-1.25-.48A1.49,1.49,0,0,1,118.68,54.47Z"/><path class="cls-1" d="M130.1,46.85q0-5.49,4.36-7.65T147.16,37h4v-1.9a12.57,12.57,0,0,0-2.31-7.58,8,8,0,0,0-6.92-3.18,13.17,13.17,0,0,0-5.2,1q-2.42,1-2.49,1a1.35,1.35,0,0,1-1.17-.66,2.37,2.37,0,0,1-.44-1.32q0-1.24,3-2.31A19.3,19.3,0,0,1,142,21.08q6.52,0,9.59,4a16,16,0,0,1,3.07,10.07V54.47a1.5,1.5,0,0,1-.51,1.13,1.86,1.86,0,0,1-2.49,0,1.49,1.49,0,0,1-.51-1.13V51q-4.83,5.56-11,5.56a10.69,10.69,0,0,1-7.28-2.45Q130.1,51.61,130.1,46.85Zm3.59-.15a6.12,6.12,0,0,0,1.94,4.94,7.59,7.59,0,0,0,5.09,1.65,11.11,11.11,0,0,0,7.06-2.67q3.33-2.67,3.33-5.23V40h-3.59a52.6,52.6,0,0,0-5.27.22A23.83,23.83,0,0,0,138,41a6.06,6.06,0,0,0-3.22,2A5.77,5.77,0,0,0,133.68,46.71Z"/><path class="cls-1" d="M164.07,54.47V23q0-1.46,1.76-1.46a2,2,0,0,1,1.24.4,1.29,1.29,0,0,1,.51,1.06v3.73a10.84,10.84,0,0,1,3.92-4,11.23,11.23,0,0,1,6-1.61h2.64a1.55,1.55,0,0,1,1.13.48,1.77,1.77,0,0,1,0,2.42,1.55,1.55,0,0,1-1.13.48h-2.64a9.48,9.48,0,0,0-6.92,3,10.45,10.45,0,0,0-3,7.72V54.47a1.49,1.49,0,0,1-.55,1.1,1.82,1.82,0,0,1-1.28.51,1.76,1.76,0,0,1-1.25-.48A1.49,1.49,0,0,1,164.07,54.47Z"/><path class="cls-1" d="M184.49,43V34.48A13,13,0,0,1,188.37,25a12.63,12.63,0,0,1,9.3-3.92,10.92,10.92,0,0,1,5.89,1.57,10.73,10.73,0,0,1,3.84,4V1.54a1.39,1.39,0,0,1,.51-1.1A2,2,0,0,1,209.24,0a1.85,1.85,0,0,1,1.24.44,1.39,1.39,0,0,1,.51,1.1V54.47a1.5,1.5,0,0,1-.51,1.13,1.76,1.76,0,0,1-1.24.48,1.69,1.69,0,0,1-1.25-.51,1.54,1.54,0,0,1-.51-1.1V51a10.17,10.17,0,0,1-4,4,11.58,11.58,0,0,1-6,1.61,12.23,12.23,0,0,1-9.11-4.1A13.27,13.27,0,0,1,184.49,43Zm3.59,0A10,10,0,0,0,191,50a9.08,9.08,0,0,0,6.81,3.11,9.41,9.41,0,0,0,6.66-2.78q2.93-2.78,2.93-4.9v-11a9.61,9.61,0,0,0-2.89-7.25,9.26,9.26,0,0,0-13.51.29,9.83,9.83,0,0,0-2.93,7Z"/><path class="cls-1" d="M30.64,113.3v-5.79a14.82,14.82,0,0,1,3.7-10.09,11.39,11.39,0,0,1,8.86-4.23,9.68,9.68,0,0,1,5.47,1.57A11.06,11.06,0,0,1,52.3,98.6V77a2.32,2.32,0,0,1,1.3-2,6.34,6.34,0,0,1,3.28-.78,6.16,6.16,0,0,1,3.25.77,2.33,2.33,0,0,1,1.27,2v47.28a2.47,2.47,0,0,1-1.31,2,5.61,5.61,0,0,1-3.21.88A4.63,4.63,0,0,1,54,126.2a2.56,2.56,0,0,1-1.24-2v-2.07A9.91,9.91,0,0,1,49,126.09a11.16,11.16,0,0,1-6,1.67q-4.87,0-8.61-4.37A15.07,15.07,0,0,1,30.64,113.3Zm9.1,0a6.41,6.41,0,0,0,1.83,4.45,5.67,5.67,0,0,0,4.3,2,6.22,6.22,0,0,0,4.45-1.92q2-1.92,2-3.26v-7A5.85,5.85,0,0,0,50.36,103,6.41,6.41,0,0,0,46,101.23a5.84,5.84,0,0,0-4.37,1.93,6.17,6.17,0,0,0-1.83,4.38Z"/><path class="cls-1" d="M67.26,113.3v-6a13.07,13.07,0,0,1,4.52-9.95,15.55,15.55,0,0,1,10.94-4.16A14.93,14.93,0,0,1,93,97a12.21,12.21,0,0,1,4.27,9.53,9.65,9.65,0,0,1-.53,3.46,3.44,3.44,0,0,1-1.62,1.92,6.72,6.72,0,0,1-2,.7,16.47,16.47,0,0,1-2.4.14H76.36v1.06a6.06,6.06,0,0,0,2.26,4.9,9.1,9.1,0,0,0,6,1.87,11.47,11.47,0,0,0,5.29-1.34,10.63,10.63,0,0,1,3.39-1.34,3,3,0,0,1,2.47,1.38,4.58,4.58,0,0,1,1,2.65q0,2-3.56,3.92a18.32,18.32,0,0,1-8.85,1.94q-7.55,0-12.31-4A13,13,0,0,1,67.26,113.3Zm9.1-5.93h10.3a2.62,2.62,0,0,0,1.59-.36,1.74,1.74,0,0,0,.46-1.42,4.6,4.6,0,0,0-1.8-3.76,7.34,7.34,0,0,0-8.71,0,4.48,4.48,0,0,0-1.83,3.72Z"/><path class="cls-1" d="M100.56,121.69a4.75,4.75,0,0,1,.93-2.65,2.61,2.61,0,0,1,2.14-1.38,4.07,4.07,0,0,1,2,.71,20.17,20.17,0,0,0,3.11,1.45,12.75,12.75,0,0,0,4.57.74q5.21,0,5.21-3a2.91,2.91,0,0,0-1.73-2.61,17.39,17.39,0,0,0-4.16-1.58q-2.43-.62-4.9-1.48a9.57,9.57,0,0,1-4.2-2.88,7.7,7.7,0,0,1-1.73-5.18,10.5,10.5,0,0,1,3-7.54q3-3.16,9.6-3.16a21.26,21.26,0,0,1,7.8,1.34q3.42,1.34,3.42,3.25a5.62,5.62,0,0,1-1,2.79,2.76,2.76,0,0,1-2.36,1.59,14.56,14.56,0,0,1-3.07-.88,14.18,14.18,0,0,0-4.69-.88,6,6,0,0,0-3.67,1,2.69,2.69,0,0,0-1.27,2.13,2.21,2.21,0,0,0,1.27,1.92,10.58,10.58,0,0,0,3.14,1.17,38.88,38.88,0,0,1,4,1.13,27.21,27.21,0,0,1,4,1.68,8,8,0,0,1,3.08,3,9.2,9.2,0,0,1,1.25,4.91,9.4,9.4,0,0,1-3.42,7.69q-3.42,2.8-9.56,2.8a20.36,20.36,0,0,1-9-1.83Q100.56,124.09,100.56,121.69Z"/><path class="cls-1" d="M131.39,82.11a3.52,3.52,0,0,1,1.5-2.84,5.78,5.78,0,0,1,3.69-1.18,5,5,0,0,1,3.36,1.18,3.56,3.56,0,0,1,0,5.65,4.94,4.94,0,0,1-3.36,1.21,5.68,5.68,0,0,1-3.69-1.21A3.55,3.55,0,0,1,131.39,82.11Zm.85,42.12V96.43a2.34,2.34,0,0,1,1.22-2,5.73,5.73,0,0,1,3.12-.78,5.91,5.91,0,0,1,3.15.78,2.33,2.33,0,0,1,1.25,2v27.8a2.51,2.51,0,0,1-1.32,2,5.74,5.74,0,0,1-6.17,0A2.48,2.48,0,0,1,132.24,124.23Z"/><path class="cls-1" d="M145.57,132.77q0-4.87,5.15-7.48a4.71,4.71,0,0,1-3-4.52q0-3.1,3.6-5.5a10.77,10.77,0,0,1-4.37-9v-1.48a10.52,10.52,0,0,1,3.81-8.4,14.81,14.81,0,0,1,9.95-3.25,15.26,15.26,0,0,1,8,2q2.12-4.8,4.3-4.8a3.69,3.69,0,0,1,2.61.92,2.63,2.63,0,0,1,1,1.9,2.44,2.44,0,0,1-1.13,2,19.94,19.94,0,0,0-3.32,2.68,10.3,10.3,0,0,1,2.47,6.91v1.48a10.63,10.63,0,0,1-3.92,8.43,14.92,14.92,0,0,1-10.05,3.35,15.44,15.44,0,0,1-4.59-.63,1.93,1.93,0,0,0-.85,1.41q0,1.2,2.19,1.76a42.3,42.3,0,0,0,5.33,1,57.17,57.17,0,0,1,6.24,1.13,10.66,10.66,0,0,1,5.29,3,8.16,8.16,0,0,1,2.19,5.93,9.15,9.15,0,0,1-4.45,8.29,20.2,20.2,0,0,1-10.94,2.79A21.35,21.35,0,0,1,150.09,140Q145.57,137.35,145.57,132.77Zm8.61-.92a4.21,4.21,0,0,0,2,3.67,8.47,8.47,0,0,0,4.87,1.34,8.14,8.14,0,0,0,4.8-1.34,4.19,4.19,0,0,0,1.91-3.6,4,4,0,0,0-.35-1.73,2.84,2.84,0,0,0-1.24-1.23q-.88-.49-1.55-.81a8.82,8.82,0,0,0-2.15-.56q-1.48-.25-2.15-.32L158,127Q154.18,128.75,154.18,131.85Zm1.62-25.61a7.4,7.4,0,0,0,1.34,4.55,4.77,4.77,0,0,0,7.41.07,7.23,7.23,0,0,0,1.34-4.55v-1.48a6.9,6.9,0,0,0-1.37-4.37,4.46,4.46,0,0,0-3.71-1.76,4.39,4.39,0,0,0-3.67,1.73,7,7,0,0,0-1.34,4.41Z"/><path class="cls-1" d="M181.2,124.23V96.43a2.34,2.34,0,0,1,1.24-2,6.1,6.1,0,0,1,3.28-.78,5,5,0,0,1,2.86.78,2.39,2.39,0,0,1,1.17,2.07V98.6a9.55,9.55,0,0,1,3.63-3.84,10.75,10.75,0,0,1,5.82-1.57,10.92,10.92,0,0,1,8.5,4.23,15,15,0,0,1,3.63,10.09v16.72a2.36,2.36,0,0,1-1.38,2.12,6.42,6.42,0,0,1-3.21.78,6.29,6.29,0,0,1-3.14-.77,2.35,2.35,0,0,1-1.37-2.11V107.56a6.22,6.22,0,0,0-1.83-4.4,5.75,5.75,0,0,0-4.3-1.94A5.5,5.5,0,0,0,192,103a6.24,6.24,0,0,0-1.73,4.57v16.68a2.5,2.5,0,0,1-1.38,2,5.67,5.67,0,0,1-3.21.91,5.6,5.6,0,0,1-3.21-.88A2.47,2.47,0,0,1,181.2,124.23Z"/><circle class="cls-1" cx="10" cy="117.13" r="10"/></g></g></svg>