<svg id="Layer_1" data-name="Layer 1" xmlns="http://www.w3.org/2000/svg" viewBox="0 0 81.79 13.2"><defs><style>.cls-1{fill:#fff;}.cls-2{fill:#933;}</style></defs><title>robillard-design</title><path class="cls-1" d="M1,10.53V4.18h.6V5.61A2.7,2.7,0,0,1,2.3,4.49a1.66,1.66,0,0,1,1.07-.42h.34v.69l-.1,0-.06,0a1.71,1.71,0,0,0-1.27.6,2.87,2.87,0,0,0-.73,1.51v3.73Z"/><path class="cls-1" d="M5.17,9.74a3.39,3.39,0,0,1-.82-2.39,3.63,3.63,0,0,1,.82-2.47A2.72,2.72,0,0,1,7.33,4a2.75,2.75,0,0,1,2.16.92,3.67,3.67,0,0,1,.81,2.47A3.43,3.43,0,0,1,9.5,9.74a2.79,2.79,0,0,1-2.16.89A2.76,2.76,0,0,1,5.17,9.74Zm3.89-.36a3,3,0,0,0,.64-2,3.18,3.18,0,0,0-.64-2.09,2.14,2.14,0,0,0-1.73-.79,2.11,2.11,0,0,0-1.73.79,3.13,3.13,0,0,0-.66,2.09,3,3,0,0,0,.66,2,2.14,2.14,0,0,0,1.73.76A2.17,2.17,0,0,0,9.06,9.38Z"/><path class="cls-1" d="M13.31,10.35a2.49,2.49,0,0,1-.91-1.06v1.24h-.6V1.69h.6V5.61a2.34,2.34,0,0,1,2.22-1.54,2.45,2.45,0,0,1,2,.91,3.67,3.67,0,0,1,.76,2.43,3.67,3.67,0,0,1-.76,2.43,2.45,2.45,0,0,1-2,.91A2.34,2.34,0,0,1,13.31,10.35Zm2.92-.88a3.28,3.28,0,0,0,.6-2.06,3.29,3.29,0,0,0-.6-2.06,2,2,0,0,0-1.61-.77,1.92,1.92,0,0,0-1.57.83,3.1,3.1,0,0,0-.66,2,3.1,3.1,0,0,0,.66,2,1.91,1.91,0,0,0,1.57.83A2,2,0,0,0,16.23,9.47Z"/><path class="cls-1" d="M18.9,1.69h.6V2.6h-.6Zm0,8.84V4.18h.6v6.35Z"/><path class="cls-1" d="M21.41,10.53V1.69H22v8.84Z"/><path class="cls-1" d="M23.91,10.53V1.69h.6v8.84Z"/><path class="cls-1" d="M26.56,10.23a1.54,1.54,0,0,1,0-2.53,2.85,2.85,0,0,1,1.61-.63,6.66,6.66,0,0,0,1.54-.3q.61-.21.61-.49V5.72a1,1,0,0,0-.54-.83,2.53,2.53,0,0,0-2.52,0,1,1,0,0,0-.51.8V6h-.57V5.61a1.29,1.29,0,0,1,.67-1.09,2.93,2.93,0,0,1,1.64-.45,3.15,3.15,0,0,1,1.68.43,1.24,1.24,0,0,1,.7,1V9.4A1.21,1.21,0,0,0,31,10a.47.47,0,0,0,.4.27h.13l.09,0v.28a1.34,1.34,0,0,1-.57.1.76.76,0,0,1-.6-.3,1.11,1.11,0,0,1-.24-.72,1.51,1.51,0,0,1-.76.82,2.79,2.79,0,0,1-1.34.31A2.48,2.48,0,0,1,26.56,10.23Zm3-.45a2.09,2.09,0,0,0,.75-1.3V7a1.81,1.81,0,0,1-.76.3,10.55,10.55,0,0,1-1.39.19A2,2,0,0,0,27,8a1.21,1.21,0,0,0-.48,1,1.17,1.17,0,0,0,.49,1,1.74,1.74,0,0,0,1.16.4A2.1,2.1,0,0,0,29.56,9.79Z"/><path class="cls-1" d="M32.81,10.53V4.18h.6V5.61a2.7,2.7,0,0,1,.75-1.12,1.66,1.66,0,0,1,1.07-.42h.34v.69l-.1,0-.06,0a1.71,1.71,0,0,0-1.27.6,2.87,2.87,0,0,0-.73,1.51v3.73Z"/><path class="cls-1" d="M37,9.71a3.52,3.52,0,0,1-.82-2.36A3.66,3.66,0,0,1,37,5a2.47,2.47,0,0,1,2-1,2.28,2.28,0,0,1,1.34.43,2.54,2.54,0,0,1,.86,1.16V1.69h.6v8.84h-.6V9.23a2.11,2.11,0,0,1-.85,1.06,2.37,2.37,0,0,1-1.36.4A2.48,2.48,0,0,1,37,9.71Zm3.53-.31a3.29,3.29,0,0,0,.64-2,3.23,3.23,0,0,0-.64-2A1.93,1.93,0,0,0,39,4.48a1.89,1.89,0,0,0-1.55.85,3.23,3.23,0,0,0-.64,2,3.29,3.29,0,0,0,.64,2,1.89,1.89,0,0,0,1.55.85A1.93,1.93,0,0,0,40.53,9.4Z"/><path class="cls-1" d="M46.89,7.13a3.69,3.69,0,0,1,.77-2.35,2.48,2.48,0,0,1,2-1,1.93,1.93,0,0,1,1,.3,2.08,2.08,0,0,1,.77.78V1.47h1v9.06h-1V9.46a2.47,2.47,0,0,1-.76.83,1.86,1.86,0,0,1-1.06.34,2.45,2.45,0,0,1-2.05-1.09A3.92,3.92,0,0,1,46.89,7.13Zm1,0a3.23,3.23,0,0,0,.45,1.74,1.55,1.55,0,0,0,2.71,0,3.15,3.15,0,0,0,.46-1.74,3.09,3.09,0,0,0-.46-1.71,1.58,1.58,0,0,0-1.36-.77,1.54,1.54,0,0,0-1.34.77A3.09,3.09,0,0,0,47.9,7.13Z"/><path class="cls-1" d="M53.75,7.13a3.92,3.92,0,0,1,.77-2.55,2.69,2.69,0,0,1,4.11,0,3.92,3.92,0,0,1,.78,2.55v.34H54.76a2.51,2.51,0,0,0,.49,1.63,1.63,1.63,0,0,0,1.33.62,1.83,1.83,0,0,0,1.18-.37,1.37,1.37,0,0,0,.52-1h1A2.28,2.28,0,0,1,58.46,10a2.83,2.83,0,0,1-1.88.61,2.52,2.52,0,0,1-2.06-1A3.92,3.92,0,0,1,53.75,7.13Zm1-.57h3.62a2.44,2.44,0,0,0-.57-1.48,1.66,1.66,0,0,0-2.47,0A2.39,2.39,0,0,0,54.76,6.57Z"/><path class="cls-1" d="M60.05,8h1a1.53,1.53,0,0,0,.43,1.14,1.56,1.56,0,0,0,1.15.43,2.2,2.2,0,0,0,1.16-.27.8.8,0,0,0,.43-.7,1,1,0,0,0-.61-.94,3.34,3.34,0,0,0-1.31-.36,2.31,2.31,0,0,1-1.43-.62,1.78,1.78,0,0,1-.61-1.35A1.65,1.65,0,0,1,60.9,4a2.49,2.49,0,0,1,1.64-.51,2.54,2.54,0,0,1,1.8.63A2.09,2.09,0,0,1,65,5.78H64a1.28,1.28,0,0,0-.4-1,1.52,1.52,0,0,0-1.07-.37,1.49,1.49,0,0,0-.91.25.86.86,0,0,0,.21,1.49A3,3,0,0,0,63,6.45a2.71,2.71,0,0,1,1.57.63,1.88,1.88,0,0,1,0,2.89,3.24,3.24,0,0,1-3.78-.12A2.33,2.33,0,0,1,60.05,8Z"/><path class="cls-1" d="M66.37,2.48v-1h1v1Zm0,8V3.73h1v6.8Z"/><path class="cls-1" d="M68.53,7.13a3.69,3.69,0,0,1,.78-2.35,2.47,2.47,0,0,1,2-1,2.4,2.4,0,0,1,1,.22,1.64,1.64,0,0,1,.78.67V3.94h1v6.59a2,2,0,0,1-.88,1.65,3.18,3.18,0,0,1-2,.61,3.23,3.23,0,0,1-1.8-.49,1.87,1.87,0,0,1-.91-1.45h1a1.1,1.1,0,0,0,.61.79,2.26,2.26,0,0,0,1.07.24,2.16,2.16,0,0,0,1.25-.36,1.14,1.14,0,0,0,.57-1V9.62a1.64,1.64,0,0,1-.77.69,2.36,2.36,0,0,1-1,.22,2.47,2.47,0,0,1-2-1A3.7,3.7,0,0,1,68.53,7.13Zm1,0A3.11,3.11,0,0,0,70,8.84a1.54,1.54,0,0,0,1.34.78,1.57,1.57,0,0,0,1.36-.78,3.11,3.11,0,0,0,.46-1.72,3,3,0,0,0-.46-1.7,1.57,1.57,0,0,0-1.36-.78A1.54,1.54,0,0,0,70,5.42,3,3,0,0,0,69.55,7.13Z"/><path class="cls-1" d="M75.72,10.53V4h1v.69a1.7,1.7,0,0,1,.79-.7,2.74,2.74,0,0,1,1.08-.21,2.4,2.4,0,0,1,1.8.77,2.53,2.53,0,0,1,.74,1.83v4.19h-1V6.34a1.56,1.56,0,0,0-.49-1.16,1.65,1.65,0,0,0-1.19-.48,1.7,1.7,0,0,0-1.21.48,1.54,1.54,0,0,0-.51,1.16v4.19Z"/><circle class="cls-2" cx="44.65" cy="9.24" r="1.29"/></svg>