<svg id="Layer_1" data-name="Layer 1" xmlns="http://www.w3.org/2000/svg" width="231.1" height="231.1" viewBox="0 0 231.1 231.1"><title>sport-pattern-red</title><path d="M63.4,123a2.7,2.7,0,0,0-.8-1.1,3.5,3.5,0,0,0-1.4-.6,22.6,22.6,0,0,0-26,0,3.5,3.5,0,0,0-1.4.6,2.7,2.7,0,0,0-.8,1.1,22.6,22.6,0,0,0,0,33.6,3.3,3.3,0,0,0,.9,1.1,3.2,3.2,0,0,0,1.2.6,22.6,22.6,0,0,0,26.1,0,3.2,3.2,0,0,0,1.2-.6,3.3,3.3,0,0,0,.9-1.1,22.6,22.6,0,0,0,0-33.6ZM34.7,152.5l-.8,1.3a20.1,20.1,0,0,1,0-28.1l.8,1.3c2.4,3.9,5.1,8.3,5.1,12.7S37.1,148.6,34.7,152.5Zm13.5,7.4a20,20,0,0,1-10.8-3.2l1.1-1.9c2.7-4.4,5.7-9.4,5.7-15.1s-3-10.7-5.7-15.1l-1.1-1.9a20,20,0,0,1,21.6,0l-1.1,1.9c-2.7,4.4-5.7,9.4-5.7,15.1s3,10.7,5.7,15.1l1.1,1.9A20,20,0,0,1,48.2,159.9Zm14.4-6.1-.8-1.4c-2.4-3.9-5.1-8.3-5.1-12.7s2.7-8.8,5.1-12.8l.8-1.3a20.1,20.1,0,0,1,0,28.1Z" fill="#972f2f"/><circle cx="96.5" cy="185.8" r="5" fill="#972f2f"/><path d="M120.6,217.9l-8.7-.7a4.6,4.6,0,0,1-3.2-1.6L98.5,203.4l21.5-25.6a.6.6,0,0,0,.8-.1l1.1-1.4a.6.6,0,0,0-.1-.8l-2.3-2a.6.6,0,0,0-.8.1l-1.1,1.4a.6.6,0,0,0,.1.8L96.5,201,75.3,175.8a.6.6,0,0,0,.1-.8l-1.1-1.4a.6.6,0,0,0-.8-.1l-2.3,2a.6.6,0,0,0-.1.8l1.1,1.4a.6.6,0,0,0,.8.1l21.5,25.6L84.3,215.6a4.6,4.6,0,0,1-3.2,1.6l-8.7.7a1.7,1.7,0,0,0-1.5,1.8v1a1.7,1.7,0,0,0,1.8,1.5l8.7-.7a4.6,4.6,0,0,0,3.2-1.6l11.9-14.1,11.9,14.1a4.6,4.6,0,0,0,3.2,1.6l8.7.7a1.7,1.7,0,0,0,1.8-1.5v-1A1.7,1.7,0,0,0,120.6,217.9Z" fill="#972f2f"/><path d="M183.6,16.5a15.2,15.2,0,0,0-28.1-5L92.7,119.9a3.4,3.4,0,0,0-4,1.3l-2.1,3.2a3.4,3.4,0,0,0,1,4.7l12,7.9a3.4,3.4,0,0,0,4.7-1l2.1-3.2a3.4,3.4,0,0,0-.3-4.2L180.8,28.2A15.1,15.1,0,0,0,183.6,16.5ZM105,126.7,95,120.1l1-1.7,10.2,6.7Zm-4.1-17,1.1-1.9,11.4,7.5-1.3,1.7Zm6.1-10.5,1.1-1.9,12.6,8.3-1.3,1.7Zm19.6-1.6-13.5-8.9,44.1-76.1A13.1,13.1,0,1,1,179.2,27Z" fill="#972f2f"/><path d="M163.8,105.6A19.4,19.4,0,1,0,183.2,125,19.4,19.4,0,0,0,163.8,105.6Zm9.6,20.5H181a17.1,17.1,0,0,1-3,8.7A12.5,12.5,0,0,1,173.5,126.1Zm0-2.2a12.6,12.6,0,0,1,4.7-8.3,17.1,17.1,0,0,1,2.7,8.3Zm3.5-10a14.7,14.7,0,0,0-5.6,10h-6.4V107.8A17.2,17.2,0,0,1,177,113.9Zm-14.2-6.1v16.1h-6.4a14.7,14.7,0,0,0-5.6-10A17.2,17.2,0,0,1,162.7,107.8Zm-13.1,27a17.1,17.1,0,0,1-3-8.7h7.5A12.5,12.5,0,0,1,149.7,134.8Zm-3-10.9a17.1,17.1,0,0,1,2.7-8.3,12.6,12.6,0,0,1,4.7,8.3Zm4.4,12.6a14.7,14.7,0,0,0,5.3-10.4h6.4v16.1A17.2,17.2,0,0,1,151,136.5Zm13.9,5.7V126.1h6.4a14.7,14.7,0,0,0,5.3,10.4A17.2,17.2,0,0,1,164.9,142.2Z" fill="#972f2f"/><circle cx="8.6" cy="199.5" r="3.7" fill="#972f2f"/><path d="M42.3,190c-6.1-6.9-20.2-7.6-35.1-8.3-9.3-.5-18.9-.9-27.2-2.9a79.2,79.2,0,0,0-13.6-2V148.6l21.9-7-24-7.7v42.8c-17.8-.5-33.4,5-42.3,12.1-4.9,3.9-7.6,8-7.6,11.7,0,12,29.4,21.8,65.5,21.8s64.7-9.5,65.5-21.7C45.7,196.2,44.7,192.7,42.3,190Zm-75.9-43.6v-9.6l15,4.8Zm13.5,74.8c-35.6,0-64.5-9.3-64.5-20.7,0-3.3,2.6-7.2,7.2-10.9,8.4-6.6,22.7-11.9,39.3-11.9h2.4V197c-3.7.3-6.5,1.8-6.5,3.8s3.3,3.9,7.6,3.9,7.6-1.7,7.6-3.9-2.8-3.6-6.5-3.8V177.9a78.3,78.3,0,0,1,13.4,2c8.4,2,18,2.5,27.4,2.9,14.7.7,28.5,1.4,34.3,8,2.2,2.5,3.2,5.7,2.9,9.8C43.6,211.9,14.7,221.2-20.1,221.2Zm-15.6-17.6c-3.3-.2-5.4-1.5-5.4-2.7s2.2-2.5,5.4-2.7Zm2.1-5.5c3.3.2,5.4,1.5,5.4,2.7s-2.2,2.5-5.4,2.7Z" fill="#972f2f"/><path d="M14.9,114.6c-1.5-5.7-7.8-25-9.8-31.9C3.8,78.2,1.6,71.1-.8,63.3c5.3-17.3,11.4-37,11.4-37,2.2-7,4.5-14.8,4.4-22.3C10.7,10,8.2,17.8,6,24.8L-3.4,55-7.9,40.4l6-24.5a.6.6,0,0,0,.6-.5l.7-2.7c0,.4.1.8.1,1.2s.1,3,1,3.8a2,2,0,0,0,1.3.4h.5a1.7,1.7,0,0,0,1.3-.9c.6-1.2-.4-3.2-1.3-4.8l-.5-1.1A13.4,13.4,0,0,0,.4,8.5V8.2A.6.6,0,0,0,0,7.5l-.7-.2a.6.6,0,0,0-.7.5L-3.1,15a.6.6,0,0,0,.3.7L-8.5,38.6-11.2,30V15.1a.6.6,0,0,0,.5-.6V11.7l.4,1.2c.4,1.4.8,2.9,1.9,3.4l.8.2,1-.2a1.7,1.7,0,0,0,1.1-1.2c.3-1.3-1.2-3-2.4-4.4l-.8-.9a13.3,13.3,0,0,0-2-2.5V7.1a.6.6,0,0,0-.6-.6H-12a.6.6,0,0,0-.6.6v7.4a.6.6,0,0,0,.4.6V26.8l-.6-1.9c-2.2-7-4.6-14.8-9-20.9-.1,7.5,2.2,15.3,4.4,22.3l5.1,16.8V53.7L-22.5,96.3l-1.3-.3-.2,1,1.3.3-.3,2.5h.4l.8-2.3,1.3.3.2-1-1.3-.3L-12.2,58V83.7c-2.3,7.6-8.1,25.4-9.5,30.9a1.8,1.8,0,0,0,1.2,2.2l1,.3a1.8,1.8,0,0,0,2.2-1.1c1-2.9,3.1-9.7,5.2-16.4l.2,2.1h.4l.3-2.5h1.4v-1h-1.3V96.5c1.5-5,3-9.7,3.8-12.4l4-12.5,4,12.5c2.2,6.8,7.9,26.2,9.9,31.8a1.8,1.8,0,0,0,2.2,1.1l1-.3A1.8,1.8,0,0,0,14.9,114.6ZM.8,11.7l.6,1.2C2,14,3,16.1,2.7,16.8s-.2.3-.6.3a1.2,1.2,0,0,1-1-.2c-.6-.5-.6-1.8-.6-3s0-1.1-.1-1.6a17.1,17.1,0,0,0-.4-2V9.9ZM-9.5,10.4l.9,1c.8.9,2.3,2.6,2.1,3.5s-.1.3-.5.5a1.2,1.2,0,0,1-1,.1c-.7-.3-1-1.6-1.3-2.8s-.3-1.1-.5-1.5a17,17,0,0,0-.9-1.9V8.8Zm-1.7,35.9.5,1.5-.5,1.8Zm0,34V53.9l1-4.2,4.2,13.6Z" fill="#972f2f"/><path d="M272.3,190c-6.1-6.9-20.2-7.6-35.1-8.3-9.3-.5-18.9-.9-27.2-2.9a79.2,79.2,0,0,0-13.6-2V148.6l21.9-7-24-7.7v42.8c-17.8-.5-33.4,5-42.3,12.1-4.9,3.9-7.6,8-7.6,11.7,0,12,29.4,21.8,65.5,21.8s64.7-9.5,65.5-21.7C275.8,196.2,274.7,192.7,272.3,190Zm-75.9-43.6v-9.6l15,4.8Zm78,54.1c-.8,11.4-29.7,20.7-64.5,20.7s-64.5-9.3-64.5-20.7c0-3.3,2.6-7.2,7.2-10.9,8.4-6.6,22.7-11.9,39.3-11.9h2.4V197c-3.7.3-6.5,1.8-6.5,3.8s3.3,3.9,7.6,3.9,7.6-1.7,7.6-3.9-2.8-3.6-6.5-3.8V177.9a78.3,78.3,0,0,1,13.4,2c8.4,2,18,2.5,27.4,2.9,14.7.7,28.5,1.4,34.3,8C273.8,193.2,274.7,196.4,274.5,200.5Zm-80.1,3.1c-3.3-.2-5.4-1.5-5.4-2.7s2.2-2.5,5.4-2.7Zm2.1-5.5c3.3.2,5.4,1.5,5.4,2.7s-2.2,2.5-5.4,2.7Z" fill="#972f2f"/><path d="M92.1,22.8c-4.1-4.1-11.3-5.3-20.4-3.3h-.1l-3.5.9c-8.9,2.6-18,7.6-23.1,12.7S33.8,49.4,31.5,59.8l-.2.2h.1c-1.8,8-1.3,15.8,3.2,20.3,3,3,7.3,4.2,12.2,4.2,12.3,0,28.1-7.7,35-14.6C91.4,60.4,102.6,33.3,92.1,22.8ZM79.8,21.8c4.4,0,7.9,1.1,10.1,3.3s4,8.5,2.8,15.4L74.5,22.3A32.7,32.7,0,0,1,79.8,21.8ZM36.9,78.1c-3-3-4-8.5-2.8-15.4L52.3,80.9C45.4,82.1,39.9,81.1,36.9,78.1ZM79.5,67.7C75,72.3,66.7,76.9,58.6,79.4l.6-.6L35.9,55.5c2.6-7.8,7-15.7,11.4-20.1s12.3-8.8,20.1-11.4L90.6,47.4l.6-.6C88.7,54.8,84.1,63.2,79.5,67.7Z" fill="#972f2f"/><polygon points="78.3 38.9 76.1 36.7 75.2 37.6 73 35.4 70.8 37.7 72.9 39.8 70.5 42.3 68.4 40.1 66.1 42.4 68.3 44.5 65.8 46.9 63.7 44.8 61.4 47 63.6 49.2 61.1 51.6 59 49.5 56.7 51.7 58.9 53.9 56.4 56.3 54.3 54.2 52.1 56.4 54.2 58.6 51.7 61 49.6 58.9 47.4 61.1 49.5 63.2 48.5 64.3 50.7 66.5 51.7 65.5 53.9 67.6 56.1 65.4 54 63.2 56.4 60.8 58.6 62.9 60.8 60.7 58.7 58.6 61.1 56.1 63.3 58.2 65.5 56 63.3 53.9 65.8 51.4 67.9 53.6 70.2 51.3 68 49.2 70.5 46.7 72.6 48.9 74.9 46.6 72.7 44.5 75.2 42 77.3 44.2 79.6 41.9 77.4 39.8 78.3 38.9" fill="#972f2f"/><path d="M245,114.6c-1.5-5.7-7.8-25-9.8-31.9-1.3-4.5-3.5-11.6-5.9-19.4,5.3-17.3,11.4-37,11.4-37,2.2-7,4.5-14.8,4.4-22.3-4.3,6.1-6.8,13.9-9,20.9L226.7,55l-4.5-14.5,6-24.5a.6.6,0,0,0,.6-.5l.7-2.7c0,.4.1.8.1,1.2s.1,3,1,3.8a2,2,0,0,0,1.3.4h.5a1.7,1.7,0,0,0,1.3-.9c.6-1.2-.4-3.2-1.3-4.8l-.5-1.1a13.1,13.1,0,0,0-1.3-2.9V8.2a.6.6,0,0,0-.5-.7l-.7-.2a.6.6,0,0,0-.7.5L226.9,15a.6.6,0,0,0,.3.7l-5.6,22.9L218.9,30V15.1a.6.6,0,0,0,.5-.6V11.7l.4,1.2c.4,1.4.8,2.9,1.9,3.4l.8.2,1-.2a1.7,1.7,0,0,0,1.1-1.2c.3-1.3-1.2-3-2.4-4.4l-.8-.9a13.3,13.3,0,0,0-2-2.5V7.1a.6.6,0,0,0-.6-.6h-.7a.6.6,0,0,0-.6.6v7.4a.6.6,0,0,0,.4.6V26.8l-.6-1.9c-2.2-7-4.6-14.8-9-20.9-.1,7.5,2.2,15.3,4.4,22.3l5.1,16.8V53.7L207.5,96.3l-1.3-.3-.2,1,1.3.3-.3,2.5h.4l.8-2.3,1.3.3.2-1-1.3-.3L217.9,58V83.7c-2.3,7.6-8.1,25.4-9.5,30.9a1.8,1.8,0,0,0,1.2,2.2l1,.3a1.8,1.8,0,0,0,2.2-1.1c1-2.9,3.1-9.7,5.2-16.4l.2,2.1h.4l.3-2.5h1.4v-1h-1.3V96.5c1.5-5,3-9.7,3.8-12.4l4-12.5,4,12.5c2.2,6.8,7.9,26.2,9.9,31.8a1.8,1.8,0,0,0,2.2,1.1l1-.3A1.8,1.8,0,0,0,245,114.6ZM230.1,9.9l.8,1.8.6,1.2c.6,1.1,1.6,3.1,1.2,3.9s-.2.3-.6.3a1.2,1.2,0,0,1-1-.2c-.6-.5-.6-1.8-.6-3s0-1.1-.1-1.6a17.1,17.1,0,0,0-.4-2ZM219.4,8.8l1.2,1.6.9,1c.8.9,2.3,2.6,2.1,3.5s-.1.3-.5.5a1.2,1.2,0,0,1-1,.1c-.7-.3-1-1.6-1.3-2.8s-.3-1.1-.5-1.5a17.1,17.1,0,0,0-.9-1.9Zm-.1,39-.5,1.8V46.3Zm-.5,32.5V53.9l1-4.2,4.2,13.6Z" fill="#972f2f"/></svg>