<svg id="Layer_1" data-name="Layer 1" xmlns="http://www.w3.org/2000/svg" width="440.6" height="440.6" viewBox="0 0 440.6 440.6"><title>qc-logo</title><path id="Leaf_LL" data-name="Leaf LL" d="M161.8,330.5,9.1,170.4l58.6,12.1a22.5,22.5,0,0,0,4.5.5h3a5.9,5.9,0,0,0,3.9-1.5l.6-.5a8,8,0,0,0,2.4-3.8l8.2-28.5,48.2,55.8,7,4.4a9.6,9.6,0,0,0,4.1,1.4h1l52.1,120H164.9" fill="#e02e26"/><path id="Leaf_DL" data-name="Leaf DL" d="M0,265.2l25.7-12.3a3.4,3.4,0,0,0,1.3-1.1l.2-.3a8.3,8.3,0,0,0,1.5-4.2v-1.2a3.5,3.5,0,0,0-.1-1.1L9.1,170.2,162,330.5H76.8" fill="#b42225"/><path id="Leaf_DM" data-name="Leaf DM" d="M150.5,210.5l.3-.3a10.8,10.8,0,0,0,2.7-3.9l1-2.4a5.8,5.8,0,0,0,.4-2.2v-1.9a4.9,4.9,0,0,0-.1-.8L133.9,77l23.1,13.1,8.5,4.4a13.6,13.6,0,0,0,5.8,1.5h0a6.9,6.9,0,0,0,2.8-.5h.3a15,15,0,0,0,2.6-1.4h.2a17.1,17.1,0,0,0,5.7-6.4l2.4-4.8,34.4-68.7L221,330.5H202.6Z" fill="#b42225"/><path d="M440.6,265.4l-76.6,65H288.5l143-160.1-18.4,69.5a17.1,17.1,0,0,0-.4,6.6l.2,1.4v.4a11.8,11.8,0,0,0,4.4,5.8l2.5,1.7Z" fill="#b42225"/><path d="M431.5,170.3l-143,160.1H221L219.9,13.9l39.3,76.8a8.1,8.1,0,0,0,2.6,3l.5.4a9.2,9.2,0,0,0,6.2,1.6l4.1-.4a15.5,15.5,0,0,0,5.8-1.8l28.9-15.5L285.7,195.8a9.1,9.1,0,0,0-.1,2.3l.5,5.4a7.5,7.5,0,0,0,2,4.5l.6.6a5.5,5.5,0,0,0,2.8,1.6h1.6a9.6,9.6,0,0,0,6-2.2l4.4-3.6.9-.9,46.9-55.2,6.8,25.6a18.6,18.6,0,0,0,3.9,7.4,5.3,5.3,0,0,0,3.6,1.8l3.8.3a10.6,10.6,0,0,0,3-.2Z" fill="#e02e26"/><line x1="220.7" y1="337.6" x2="220.7" y2="193.3" fill="none" stroke="#fff" stroke-miterlimit="10" stroke-width="4.07"/><circle cx="220.7" cy="161" r="32.4" fill="none" stroke="#fff" stroke-miterlimit="10" stroke-width="4.07"/><line x1="116.3" y1="330.5" x2="116.3" y2="300.1" fill="none" stroke="#fff" stroke-miterlimit="10" stroke-width="4.07"/><circle cx="116.3" cy="267.7" r="32.4" fill="none" stroke="#fff" stroke-miterlimit="10" stroke-width="4.07"/><line x1="324.2" y1="330.5" x2="324.2" y2="282.6" fill="none" stroke="#fff" stroke-miterlimit="10" stroke-width="4.07"/><circle cx="324.2" cy="250.3" r="32.4" fill="none" stroke="#fff" stroke-miterlimit="10" stroke-width="4.07"/><path d="M83.3,339.9A19,19,0,0,1,97,334.5a18.8,18.8,0,0,1,13.6,5.4,18,18,0,0,1,5.6,13.4,17.6,17.6,0,0,1-4.9,12.4l3.6,4.3-4.4,3.7-3.7-4.3a17.5,17.5,0,0,1-9.9,2.8,19,19,0,0,1-13.7-5.4,18.9,18.9,0,0,1,0-26.8Zm4.5,22.6a12.4,12.4,0,0,0,9.1,3.7,11.4,11.4,0,0,0,5.8-1.5l-5.1-6.1L102,355l5.2,6.1a12.1,12.1,0,0,0,2.5-7.7,12.7,12.7,0,0,0-3.7-9.2,12.1,12.1,0,0,0-9-3.8,12.3,12.3,0,0,0-9.1,3.8,12.7,12.7,0,0,0-3.7,9.2A12.5,12.5,0,0,0,87.8,362.5Z" fill="#b42225"/><path d="M121.9,335.1h6.5v21.8c0,6.3,3.1,9.3,8.3,9.3s8.2-3,8.2-9.3V335.1h6.5v22.5c0,4.6-1.4,8.3-4.1,10.8a16.9,16.9,0,0,1-21.3,0c-2.8-2.5-4.1-6.1-4.1-10.8Z" fill="#b42225"/><path d="M159.4,371.5V335.1h6.5v36.4Z" fill="#b42225"/><path d="M174.2,371.5V335.1h13c6,0,10.7,1.7,14,5.1s5.1,7.7,5.1,13.2-1.7,9.9-5,13.2-8,5-14.1,5Zm6.5-5.9h6.1c9,0,13-4.8,13-12.2S195.9,341,186.8,341h-6Z" fill="#b42225"/><path d="M212.5,371.5V335.1h13c6,0,10.7,1.7,14,5.1s5.1,7.7,5.1,13.2-1.7,9.9-5,13.2-8,5-14.1,5Zm6.5-5.9h6.1c9,0,13-4.8,13-12.2S234.2,341,225.1,341h-6Z" fill="#b42225"/><path d="M251,371.5V335.1h6.5v36.4Z" fill="#b42225"/><path d="M272.7,371.5V341h-9.9v-5.9h26.3V341h-9.9v30.5Z" fill="#b42225"/><path d="M324.6,341l-4.4,3.8a12.7,12.7,0,0,0-10-4.4,12.9,12.9,0,1,0,10.1,21.3l4.4,3.8a18.9,18.9,0,0,1-14.5,6.6,19.3,19.3,0,0,1-13.7-5.3,19,19,0,0,1,0-27,19.1,19.1,0,0,1,13.7-5.4A18.4,18.4,0,0,1,324.6,341Z" fill="#b42225"/><path d="M330,371.5V335.1h6.5v14.2H354V335.1h6.5v36.4H354V355.2H336.5v16.3Z" fill="#b42225"/><path d="M121.1,386.6l-5.6,4.9a16.1,16.1,0,0,0-12.7-5.7A15.9,15.9,0,0,0,91,390.6a17.5,17.5,0,0,0,.1,23.8,15.9,15.9,0,0,0,11.7,4.7,16,16,0,0,0,12.8-5.9l5.6,4.9a24,24,0,0,1-18.4,8.6,24.5,24.5,0,0,1-17.5-6.8,24.6,24.6,0,0,1-.1-34.6,24.3,24.3,0,0,1,17.5-7A23.4,23.4,0,0,1,121.1,386.6Z" fill="#231f20"/><path d="M124.5,425.8l19.2-46.8h7.1l19.5,46.7h-8.8l-3.8-9.3H137.1l-3.8,9.3Zm15.1-16.3h15.5l-7.8-19Z" fill="#231f20"/><path d="M177,425.6V378.8h7.3l24.7,32.4V378.7h8.1v46.8h-6.8l-25.2-33v33.1Z" fill="#231f20"/><path d="M223.7,425.4l19.2-46.8H250l19.5,46.7h-8.8l-3.8-9.3H236.2l-3.8,9.3Zm15.1-16.3h15.5l-7.8-19Z" fill="#231f20"/><path d="M276.2,425.3V378.5h16.6c7.7,0,13.7,2.1,17.9,6.5s6.5,9.9,6.5,17-2.1,12.7-6.3,16.9-10.2,6.4-17.9,6.4Zm8.3-7.6h7.7c11.5,0,16.6-6.2,16.5-15.8S303.7,386,292,386h-7.7Z" fill="#231f20"/><path d="M318.6,425.1l19.2-46.8h7.1L364.4,425h-8.8l-3.8-9.3H331.2l-3.8,9.3Zm15.1-16.3h15.5l-7.8-19Z" fill="#231f20"/></svg>