<svg xmlns="http://www.w3.org/2000/svg" width="440.6" height="440.6" viewBox="0 0 440.6 440.6"><path fill="#e02e26" d="M161.8 330.5L9.1 170.4l58.6 12.1a22.5 22.5 0 0 0 4.5.5h3a5.9 5.9 0 0 0 3.9-1.5l.6-.5a8 8 0 0 0 2.4-3.8l8.2-28.5 48.2 55.8 7 4.4a9.6 9.6 0 0 0 4.1 1.4h1l52.1 120h-37.8"/><path fill="#b42225" d="M0 265.2l25.7-12.3a3.4 3.4 0 0 0 1.3-1.1l.2-.3a8.3 8.3 0 0 0 1.5-4.2v-1.2a3.5 3.5 0 0 0-.1-1.1L9.1 170.2 162 330.5H76.8m73.7-120l.3-.3a10.8 10.8 0 0 0 2.7-3.9l1-2.4a5.8 5.8 0 0 0 .4-2.2v-1.9a4.9 4.9 0 0 0-.1-.8L133.9 77 157 90.1l8.5 4.4a13.6 13.6 0 0 0 5.8 1.5 6.9 6.9 0 0 0 2.8-.5h.3a15 15 0 0 0 2.6-1.4h.2a17.1 17.1 0 0 0 5.7-6.4l2.4-4.8 34.4-68.7 1.3 316.3h-18.4zm290.1 54.9l-76.6 65h-75.5l143-160.1-18.4 69.5a17.1 17.1 0 0 0-.4 6.6l.2 1.4v.4a11.8 11.8 0 0 0 4.4 5.8l2.5 1.7z"/><path fill="#e02e26" d="M431.5 170.3l-143 160.1H221l-1.1-316.5 39.3 76.8a8.1 8.1 0 0 0 2.6 3l.5.4a9.2 9.2 0 0 0 6.2 1.6l4.1-.4a15.5 15.5 0 0 0 5.8-1.8L307.3 78l-21.6 117.8a9.1 9.1 0 0 0-.1 2.3l.5 5.4a7.5 7.5 0 0 0 2 4.5l.6.6a5.5 5.5 0 0 0 2.8 1.6h1.6a9.6 9.6 0 0 0 6-2.2l4.4-3.6.9-.9 46.9-55.2 6.8 25.6a18.6 18.6 0 0 0 3.9 7.4 5.3 5.3 0 0 0 3.6 1.8l3.8.3a10.6 10.6 0 0 0 3-.2z"/><path fill="none" stroke="#fff" stroke-miterlimit="10" stroke-width="4.07" d="M220.7 337.6V193.3"/><circle cx="220.7" cy="161" r="32.4" fill="none" stroke="#fff" stroke-miterlimit="10" stroke-width="4.07"/><path fill="none" stroke="#fff" stroke-miterlimit="10" stroke-width="4.07" d="M116.3 330.5v-30.4"/><circle cx="116.3" cy="267.7" r="32.4" fill="none" stroke="#fff" stroke-miterlimit="10" stroke-width="4.07"/><path fill="none" stroke="#fff" stroke-miterlimit="10" stroke-width="4.07" d="M324.2 330.5v-47.9"/><circle cx="324.2" cy="250.3" r="32.4" fill="none" stroke="#fff" stroke-miterlimit="10" stroke-width="4.07"/><path fill="#b42225" d="M83.3 339.9a19 19 0 0 1 13.7-5.4 18.8 18.8 0 0 1 13.6 5.4 18 18 0 0 1 5.6 13.4 17.6 17.6 0 0 1-4.9 12.4l3.6 4.3-4.4 3.7-3.7-4.3a17.5 17.5 0 0 1-9.9 2.8 19 19 0 0 1-13.7-5.4 18.9 18.9 0 0 1 0-26.8zm4.5 22.6a12.4 12.4 0 0 0 9.1 3.7 11.4 11.4 0 0 0 5.8-1.5l-5.1-6.1 4.4-3.6 5.2 6.1a12.1 12.1 0 0 0 2.5-7.7 12.7 12.7 0 0 0-3.7-9.2 12.1 12.1 0 0 0-9-3.8 12.3 12.3 0 0 0-9.1 3.8 12.7 12.7 0 0 0-3.7 9.2 12.5 12.5 0 0 0 3.6 9.1zm34.1-27.4h6.5v21.8c0 6.3 3.1 9.3 8.3 9.3s8.2-3 8.2-9.3v-21.8h6.5v22.5c0 4.6-1.4 8.3-4.1 10.8a16.9 16.9 0 0 1-21.3 0c-2.8-2.5-4.1-6.1-4.1-10.8zm37.5 36.4v-36.4h6.5v36.4zm14.8 0v-36.4h13c6 0 10.7 1.7 14 5.1s5.1 7.7 5.1 13.2-1.7 9.9-5 13.2-8 5-14.1 5zm6.5-5.9h6.1c9 0 13-4.8 13-12.2s-3.9-12.4-13-12.4h-6zm31.8 5.9v-36.4h13c6 0 10.7 1.7 14 5.1s5.1 7.7 5.1 13.2-1.7 9.9-5 13.2-8 5-14.1 5zm6.5-5.9h6.1c9 0 13-4.8 13-12.2s-3.9-12.4-13-12.4h-6zm32 5.9v-36.4h6.5v36.4zm21.7 0V341h-9.9v-5.9h26.3v5.9h-9.9v30.5zm51.9-30.5l-4.4 3.8a12.7 12.7 0 0 0-10-4.4 12.9 12.9 0 1 0 10.1 21.3l4.4 3.8a18.9 18.9 0 0 1-14.5 6.6 19.3 19.3 0 0 1-13.7-5.3 19 19 0 0 1 0-27 19.1 19.1 0 0 1 13.7-5.4 18.4 18.4 0 0 1 14.4 6.6zm5.4 30.5v-36.4h6.5v14.2H354v-14.2h6.5v36.4H354v-16.3h-17.5v16.3z"/><path fill="#231f20" d="M121.1 386.6l-5.6 4.9a16.1 16.1 0 0 0-12.7-5.7 15.9 15.9 0 0 0-11.8 4.8 17.5 17.5 0 0 0 .1 23.8 15.9 15.9 0 0 0 11.7 4.7 16 16 0 0 0 12.8-5.9l5.6 4.9a24 24 0 0 1-18.4 8.6 24.5 24.5 0 0 1-17.5-6.8 24.6 24.6 0 0 1-.1-34.6 24.3 24.3 0 0 1 17.5-7 23.4 23.4 0 0 1 18.4 8.3zm3.4 39.2l19.2-46.8h7.1l19.5 46.7h-8.8l-3.8-9.3h-20.6l-3.8 9.3zm15.1-16.3h15.5l-7.8-19zm37.4 16.1v-46.8h7.3l24.7 32.4v-32.5h8.1v46.8h-6.8l-25.2-33v33.1zm46.7-.2l19.2-46.8h7.1l19.5 46.7h-8.8l-3.8-9.3h-20.7l-3.8 9.3zm15.1-16.3h15.5l-7.8-19zm37.4 16.2v-46.8h16.6c7.7 0 13.7 2.1 17.9 6.5s6.5 9.9 6.5 17-2.1 12.7-6.3 16.9-10.2 6.4-17.9 6.4zm8.3-7.6h7.7c11.5 0 16.6-6.2 16.5-15.8s-5-15.9-16.7-15.9h-7.7zm34.1 7.4l19.2-46.8h7.1l19.5 46.7h-8.8l-3.8-9.3h-20.6l-3.8 9.3zm15.1-16.3h15.5l-7.8-19z"/></svg>