<svg xmlns="http://www.w3.org/2000/svg" width="12.7in" height="6.4in" viewBox="0 0 916.1 458.5"><defs><clipPath id="a"><path fill="none" d="M192.4 238.7s16.7-7 22-26c2.9-10.4 3.4-32.2 2.9-43-.7-12.5-5.3-49.8-5.3-49.8l70.1-15s-8.7 57 37.8 57 38-57 38-57l69.6 14.8s-4.7 37.5-4.8 50c-.1 10.7-.3 26.8 3.5 42.7s21.3 26.2 21.3 26.2l-5.5 96.7 4.4 122.6H193.9l4-121.8z"/></clipPath><clipPath id="b"><path fill="none" d="M860.6 238.7s-16.7-7-22-26c-2.9-10.4-3.4-32.2-2.9-43 .7-12.5 5.3-49.8 5.3-49.8l-70.1-15s-13.9 11-39.2 10.9-36.6-10.9-36.6-10.9l-69.6 14.8s4.7 37.5 4.8 50c.1 10.7.3 26.8-3.5 42.7s-21.3 26.2-21.3 26.2l5.5 96.7-4.4 122.6h252.5l-4-121.8z"/></clipPath></defs><path fill="#231f20" d="M68.5 192.3l-13 7.8v-12.2l13 4.4zm23.2 7l-1.5-.7c-7.6-3.3-21.7-6.3-21.7-6.3l2-13.8z"/><path fill="#333132" d="M116.1 216.4s-14.8-12.4-24.4-17.1l19.9-20.8z"/><path fill="#231f20" d="M134 188l-1.8 2.1a101 101 0 0 0-16.1 26.3l-4.6-37.9zm19.1-23.8c-5.5 7.7-12 15.5-19 23.7l-9.8-36.9zm19.9-44.1c-2.3 15.8-9.6 29.8-19.9 44.1l-9.1-59.4z"/><path fill="#333132" d="M173.8 108.9a75.4 75.4 0 0 1-.8 11.3l-29-15.3 25.5-22.2a76.1 76.1 0 0 1 4.3 26.2z"/><path fill="#231f20" d="M169.4 82.7l-25.5 22.2-6.7-70.3c16.3 18.5 26.8 33 32.2 48.1zm-32.1-48.1L109 34 116.1.8s2.8 13.1 17.7 29.9z"/><path fill="#333132" d="M116.1.8L109 34 88.7 19.2l4.2-2C99.2 13.9 116.1.8 116.1.8zm21.2 33.8l-22.7 40.8L109 34l28.3.6z"/><path fill="#414042" d="M143.9 104.9l-29.3-29.5 22.7-40.8 6.6 70.3z"/><path fill="#231f20" d="M70.4 178.5l-14.9 9.4v-26.3l14.9 16.9zm3.8-36.4l-18.7 19.5v-44.7l18.7 25.2z"/><path fill="#414042" d="M83 102.5l-27.5 14.4V78.3L83 102.5z"/><path fill="#231f20" d="M74.6 54.2L55.5 78.3V47.8l19.1 6.4z"/><path fill="#4d4d4f" d="M88.7 19.2l-14.1 35-5.8-29.8a80.9 80.9 0 0 0 19.9-5.2z"/><path fill="#231f20" d="M68.8 24.4L55.5 47.8V17.1l13.3 7.3zM124.3 151l-12.8 27.5-29.7-16.9 42.5-10.6z"/><path fill="#333132" d="M74.6 54.2l-19.1-6.4 13.3-23.4 5.8 29.8zm8.8 23l-27.9 1.1 19.1-24.1 8.8 23z"/><path fill="#4d4d4f" d="M83.4 77.2l-.4 25.3-27.5-24.2 27.9-1.1z"/><path fill="#231f20" d="M98.2 121.9l-42.7-5L83 102.5l15.2 19.4z"/><path fill="#414042" d="M70.4 178.5l-1.9 13.8-13-4.4 14.9-9.4z"/><path fill="#4d4d4f" d="M81.8 161.6H55.5l18.7-19.5 7.6 19.5z"/><path fill="#333132" d="M98.2 121.9l-24 20.2-18.7-25.2 42.7 5z"/><path fill="#414042" d="M111.8 135.6l-37.6 6.5 24-20.2 13.6 13.7zm-30 26l-11.4 16.9-14.9-16.9h26.3z"/><path fill="#333132" d="M91.7 199.3l-21.3-20.8 11.4-16.9 9.9 37.7z"/><path fill="#231f20" d="M109 34L74.6 54.2l14.1-35L109 34z"/><path fill="#414042" d="M114.6 75.4l-31.2 1.8-8.8-23 40 21.2z"/><path fill="#231f20" d="M114.6 75.4L83 102.5l.4-25.3 31.2-1.8z"/><path fill="#414042" d="M114.6 75.4l-16.4 46.5L83 102.5l31.6-27.1z"/><path fill="#4d4d4f" d="M143.9 104.9l-45.7 17 16.4-46.5 29.3 29.5z"/><path fill="#231f20" d="M143.9 104.9l-32.1 30.7-13.6-13.7 45.7-17z"/><path fill="#333132" d="M111.8 135.6l-30 26-7.6-19.5 37.6-6.5z"/><path fill="#414042" d="M124.3 151l-42.5 10.6 30-26 12.5 15.4z"/><path fill="#4d4d4f" d="M111.5 178.5l-19.8 20.8-9.9-37.7 29.7 16.9zm32.4-73.6L124.3 151l-12.5-15.4 32.1-30.7z"/><path fill="#333132" d="M134 188l-22.5-9.5 12.8-27.5 9.7 37z"/><path fill="#4d4d4f" d="M114.6 75.4l-40-21.2L109 34l5.6 41.4z"/><path fill="#333132" d="M153.1 164.2L124.3 151l19.6-46.1 9.2 59.3z"/><path fill="#e13026" d="M96.4 100.7l21.9-20.9-1.7 8a3.1 3.1 0 0 0-.1.6v.4a.8.8 0 0 0 .2.5h.1l.5.3 3.9 1.1-7.7 6.6-.6 1a1.3 1.3 0 0 0-.2.6L96.3 106v-5.2"/><path fill="#b62325" d="M105.3 78.5L107 82l.2.2.6.2h.3l10.3-2.7-22 21V89m16.4 10.1l.5.4h1l16.7-2.9-1.8 3.2-.6 1.2a1.9 1.9 0 0 0-.2.8.9.9 0 0 0 .1.4l.2.4a2.3 2.3 0 0 0 .9.8l.7.3 9.4 4.7-43.4.2v-2.5zm-7.5 39.8l-8.9-10.5v-10.3l22 19.6-9.5-2.5h-1.1a1.6 1.6 0 0 0-.8.6l-.2.3z"/><path fill="#e13026" d="M118.3 137.7l-22-19.6v-9.3l43.4-.2-10.5 5.4-.4.4h-.1a1.3 1.3 0 0 0-.2.8v.6a2.1 2.1 0 0 0 .2.8l2.1 4-16.2-2.9h-1.1l-.6.3h-.1l-.2.4v.2a1.3 1.3 0 0 0 .3.8l.5.6h.1l7.6 6.4-3.5.9-1 .5a.7.7 0 0 0-.2.5v.5a1.5 1.5 0 0 0 0 .4z"/><path fill="none" stroke="#fff" stroke-miterlimit="10" stroke-width=".56" d="M95.4 108.8h19.8"/><circle cx="119.6" cy="108.8" r="4.4" fill="none" stroke="#fff" stroke-miterlimit="10" stroke-width=".56"/><path fill="none" stroke="#fff" stroke-miterlimit="10" stroke-width=".56" d="M96.4 94.4h4.1"/><circle cx="105" cy="94.4" r="4.4" fill="none" stroke="#fff" stroke-miterlimit="10" stroke-width=".56"/><path fill="none" stroke="#fff" stroke-miterlimit="10" stroke-width=".56" d="M96.4 123h6.5"/><circle cx="107.4" cy="123" r="4.4" fill="none" stroke="#fff" stroke-miterlimit="10" stroke-width=".56"/><path fill="#fff" d="M94.9 89.9a2.8 2.8 0 0 1 .7 1.9 2.8 2.8 0 0 1-.7 1.9 2 2 0 0 1-1.6.8 2 2 0 0 1-1.5-.7l-.5.5-.4-.6.5-.5a2.7 2.7 0 0 1-.3-1.4 2.8 2.8 0 0 1 .6-1.9 2.1 2.1 0 0 1 3.2 0zm-2.7.6a1.8 1.8 0 0 0-.4 1.3 1.7 1.7 0 0 0 .2.8l.7-.7.4.6-.7.7a1.3 1.3 0 0 0 .9.3 1.4 1.4 0 0 0 1.1-.5 1.8 1.8 0 0 0 .5-1.2 1.8 1.8 0 0 0-.5-1.3 1.4 1.4 0 0 0-1.1-.5 1.4 1.4 0 0 0-1.1.5zm3.3 4.7v.9h-2.6a1.1 1.1 0 0 0 0 2.3h2.6v.9h-2.7a1.6 1.6 0 0 1-1.3-.6 2.6 2.6 0 0 1 0-2.9 1.6 1.6 0 0 1 1.3-.6zm-4.4 5.2h4.4v.9h-4.4zm0 2h4.4v1.8a2.8 2.8 0 0 1-.6 1.9 2.2 2.2 0 0 1-3.2 0 2.9 2.9 0 0 1-.6-1.9zm.7.9v.8c0 1.2.6 1.8 1.5 1.8s1.5-.5 1.5-1.8v-.8zm-.7 4.4h4.4v1.8a2.8 2.8 0 0 1-.6 1.9 2.2 2.2 0 0 1-3.2 0 2.9 2.9 0 0 1-.6-1.9zm.7.9v.8c0 1.2.6 1.8 1.5 1.8s1.5-.5 1.5-1.8v-.8zm-.7 4.4h4.4v.9h-4.4zm0 3h3.7v-1.4h.7v3.6h-.7v-1.4h-3.7zm3.7 7.1l-.5-.6a2 2 0 0 0 .1-2.6 1.5 1.5 0 0 0-2.2 0 2 2 0 0 0 .1 2.7l-.5.6a2.8 2.8 0 0 1-.8-2 2.9 2.9 0 0 1 .6-1.9 2.1 2.1 0 0 1 3.2 0 2.8 2.8 0 0 1 .6 1.9 2.7 2.7 0 0 1-.6 1.9zm-3.7.8h4.4v.9h-1.7v2.4h1.7v.9h-4.4v-.9h2v-2.4h-2z"/><path fill="#fff" stroke="#fff" stroke-miterlimit="10" stroke-width=".12" d="M89.3 95.1l-.7-.8a2.2 2.2 0 0 0 .8-1.7 2.2 2.2 0 0 0-.7-1.6 2.4 2.4 0 0 0-3.3 0 2.2 2.2 0 0 0-.6 1.6 2.2 2.2 0 0 0 .8 1.8l-.7.8a3.3 3.3 0 0 1-1.2-2.5 3.4 3.4 0 0 1 .9-2.4 3.4 3.4 0 0 1 4.7 0 3.3 3.3 0 0 1 1 2.4 3.2 3.2 0 0 1-1 2.4zm-5.4.4l6.4 2.6v1l-6.4 2.7v-1.2l1.3-.5v-2.8l-1.3-.5zm2.2 2.1v2.1l2.6-1.1zm-2.2 5.1h6.4v1l-4.4 3.4h4.5v1.1h-6.5v-.9l4.5-3.5h-4.5zm0 6.4l6.4 2.6v1l-6.3 2.7v-1.2l1.3-.5v-2.8l-1.3-.5zm2.2 2.1v2.1l2.6-1.1zm-2.1 5.1h6.4v2.3a3.3 3.3 0 0 1-.9 2.5 3.5 3.5 0 0 1-4.6 0 3.4 3.4 0 0 1-.9-2.5zm1 1.1v1.1a2.2 2.2 0 1 0 4.3 0v-1.1zm-1 4.8l6.4 2.6v1l-6.4 2.6v-1.2l1.3-.5v-2.8l-1.3-.5zm2.2 2.1v2.1l2.6-1.1z"/><path fill="#fff" stroke="#231f20" stroke-miterlimit="10" stroke-width=".96" d="M466 108.3c0 27.8 12.5 47.4 39.9 78.2 15 16.8 17.7 29.9 17.7 29.9s16.9-13.1 23.2-16.4c11-5.7 24.2-7.1 24.2-7.1l13.3 7.2v-183l-13 7.8s-14.1-3-21.7-6.3c-9.4-4.1-26-17.8-26-17.8a101.2 101.2 0 0 1-16.1 26.3c-24 28-41.5 50.9-41.5 81.2z"/><path fill="#fff" d="M571.3 24.9l13-7.8v12.2l-13-4.4z"/><path fill="#fff" d="M548.1 17.9l1.5.7c7.6 3.3 21.7 6.3 21.7 6.3l-2 13.8z"/><path fill="#bdbec1" d="M523.6.8s14.9 12.4 24.5 17.1l-19.8 20.8z"/><path fill="#fff" d="M505.7 29.2l1.8-2.1A101 101 0 0 0 523.6.8l4.6 37.9zm-19 23.8c5.5-7.7 12-15.5 19-23.7l9.8 36.9z"/><path fill="#e8e9ea" d="M466.8 97.1c2.3-15.8 9.6-29.8 19.9-44.1l9.1 59.4z"/><path fill="#959699" d="M466 108.3a75.4 75.4 0 0 1 .8-11.3l29 15.3-25.5 22.2a76.1 76.1 0 0 1-4.3-26.2z"/><path fill="#bdbec1" d="M470.4 134.5l25.5-22.2 6.7 70.3c-16.3-18.4-26.8-33-32.2-48.1z"/><path fill="#fff" d="M502.5 182.6l28.3.6-7.1 33.2s-2.8-13.1-17.7-29.9z"/><path fill="#bdbec1" d="M523.6 216.4l7.1-33.2 20.4 14.8-4.2 2c-6.3 3.3-23.3 16.4-23.3 16.4z"/><path fill="#e8e9ea" d="M502.5 182.6l22.7-40.8 5.6 41.4-28.3-.6z"/><path fill="#959699" d="M495.9 112.3l29.3 29.5-22.7 40.8-6.6-70.3z"/><path fill="#bdbec1" d="M569.3 38.7l15-9.4v26.3l-15-16.9z"/><path fill="#fff" d="M565.6 75.1l18.7-19.5v44.7l-18.7-25.2z"/><path fill="#e8e9ea" d="M556.8 114.7l27.5-14.4v38.6l-27.5-24.2z"/><path fill="#fff" d="M565.2 163l19.1-24.1v30.5l-19.1-6.4zm-14.1 35l14.1-35 5.9 29.9a80.9 80.9 0 0 0-20 5.1z"/><path fill="#fff" d="M571 192.9l13.3-23.5v30.7l-13.3-7.2z"/><path fill="#e8e9ea" d="M515.5 66.2l12.8-27.5L558 55.6l-42.5 10.6z"/><path fill="#959699" d="M565.2 163l19.1 6.4-13.3 23.5-5.8-29.9z"/><path fill="#bdbec1" d="M556.4 140l27.9-1.1-19.1 24.1-8.8-23z"/><path fill="#fff" d="M556.4 140l.4-25.3 27.5 24.2-27.9 1.1z"/><path fill="#bdbec1" d="M541.6 95.3l42.7 5-27.5 14.4-15.2-19.4z"/><path fill="#e8e9ea" d="M569.3 38.7l2-13.8 13 4.4-15 9.4z"/><path fill="#bdbec1" d="M558 55.6h26.3l-18.7 19.5-7.6-19.5z"/><path fill="#e8e9ea" d="M541.6 95.3l24-20.2 18.7 25.2-42.7-5z"/><path fill="#bdbec1" d="M528 81.6l37.6-6.5-24 20.2L528 81.6z"/><path fill="#e8e9ea" d="M558 55.6l11.3-16.9 15 16.9H558z"/><path fill="#bdbec1" d="M548.1 17.9l21.2 20.8L558 55.6l-9.9-37.7z"/><path fill="#e8e9ea" d="M530.8 183.2l34.4-20.2-14.1 35-20.3-14.8z"/><path fill="#bdbec1" d="M525.2 141.8l31.2-1.8 8.8 23-40-21.2z"/><path fill="#fff" d="M525.2 141.8l31.6-27.1-.4 25.3-31.2 1.8z"/><path fill="#e8e9ea" d="M525.2 141.8l16.4-46.5 15.2 19.4-31.6 27.1z"/><path fill="#bdbec1" d="M495.9 112.3l45.7-17-16.4 46.5-29.3-29.5z"/><path fill="#fff" d="M495.9 112.3L528 81.6l13.6 13.7-45.7 17z"/><path fill="#e8e9ea" d="M528 81.6l30-26 7.6 19.5-37.6 6.5z"/><path fill="#bdbec1" d="M515.5 66.2L558 55.6l-30 26-12.5-15.4z"/><path fill="#959699" d="M528.3 38.7l19.8-20.8 9.9 37.7-29.7-16.9zm-32.4 73.6l19.6-46.1L528 81.6l-32.1 30.7z"/><path fill="#959699" d="M505.7 29.2l22.6 9.5-12.8 27.5-9.8-37zm19.5 112.6l40 21.2-34.4 20.2-5.6-41.4z"/><path fill="#bdbec1" d="M486.7 53l28.8 13.2-19.6 46.1-9.2-59.3z"/><path fill="#fff" d="M522.9 102.5h28.8v16.47h-28.8z"/><path fill="#fdc212" d="M544.5 108.1V105a.4.4 0 0 0-.3-.5l-2.6-.9h-.3v2.6l-1.3-.5-6-2.1a5.1 5.1 0 0 0-1.8-.2 1.3 1.3 0 0 0-1.2 1.2c-.1.8-.1 1.6-.2 2.4s0 .7 0 1H523V93.8a14.4 14.4 0 0 1 27.4-6.1 13.6 13.6 0 0 1 1.4 5.8c0 4.7 0 9.4.1 14.2v.3zm.1-16.7l-1.2-.4-9.9-3.6c-1.8-.6-2.8.1-2.8 1.9v9.9l3.2 1.1v-2l10.6 3.8v-3.7l-3.8-1.3c-.2-.1-.4-.2-.4-.5a10.7 10.7 0 0 0 0-1.3v-1.7l4.3 1.5z"/><path fill="#2c803f" d="M522.9 110.8h7.8v1.2a2.3 2.3 0 0 0 1.8 2.5l8.9 3.1a4.1 4.1 0 0 0 1.5.3c1.1 0 1.6-.7 1.6-1.9v-5.1h7.3v11.2a14.8 14.8 0 0 1-3.4 9.8 14.4 14.4 0 0 1-21.5.7 13.6 13.6 0 0 1-3.8-8 22.6 22.6 0 0 1-.1-2.7v-11.2m7.8 12.1l3.2 1.2v-1.3h.2l5.4 1.9 3 .9a1.5 1.5 0 0 0 1.9-1.6v-1.5c0-.5.1-.8-.1-1.1s-.7-.3-1-.4h-.2l-2-.7v1.3h-.2l-5.5-2-2.9-.9a1.5 1.5 0 0 0-1.8 1.3c-.1.9 0 1.9 0 2.9"/><path fill="#2c803f" d="M541.2 111.8v.9c0 .7-.3.9-1 .7l-3.2-1.1-1.9-.7a1.4 1.4 0 0 1-1.1-1.6v-1.6c0-.6.4-1 1-.8l4.6 1.6c1.8.6 1.7.8 1.7 2.5"/><path fill="#fffefe" d="M544.6 91.4v3.7l-4.3-1.5v1.7a10.7 10.7 0 0 1 0 1.3c0 .4.2.4.4.5l3.8 1.3v3.8l-10.6-3.8v2.1l-3.2-1.1V89.3c0-1.9 1.1-2.6 2.8-1.9l9.9 3.6 1.2.4m-7.9 4.2v-3.1a.4.4 0 0 0-.2-.3l-1.7-.6c-.6-.2-.9.1-.9.7v1.6a.9.9 0 0 0 .6.9l2.2.8m-5.9 27.3c0-1-.1-2 0-2.9a1.5 1.5 0 0 1 1.8-1.3l2.9.9 5.5 2h.2v-1.3l2 .7h.2c.3.1.8.2 1 .4s0 .7.1 1.1 0 1 0 1.5a1.5 1.5 0 0 1-1.9 1.6l-3-.9-5.4-1.9h-.2v1.2l-3.2-1.1"/><path fill="#fdc212" d="M536.7 95.6l-2.2-.8a.9.9 0 0 1-.6-.9v-1.6c0-.5.3-.8.9-.7l1.7.6a.4.4 0 0 1 .2.3v3.1"/><path fill="#fff" stroke="#231f20" stroke-miterlimit="10" stroke-width=".96" d="M192.4 238.7s16.7-7 22-26c2.9-10.4 3.4-32.2 2.9-43-.7-12.5-5.3-49.8-5.3-49.8l70.1-15s-8.7 57 37.8 57 38-57 38-57l69.6 14.8s-4.7 37.5-4.8 50c-.1 10.7-.3 26.8 3.5 42.7s21.3 26.2 21.3 26.2l-5.5 96.7 4.4 122.6H193.9l4-121.8z"/><g clip-path="url(#a)"><path fill="#bd2c22" d="M277.9 443.4L245.8 433l21.2-20.4 10.9 30.8z"/><path fill="#c13027" d="M297.1 397.4l-19.2 46-10.9-30.8 30.1-15.2z"/><path fill="#a4271e" d="M329.2 460l-51.3-16.6 39.5-6.4 11.8 23z"/><path fill="#c13027" d="M374.5 460h-45.3l41.6-21.2 3.7 21.2z"/><path fill="#c4402e" d="M370.8 438.8L329.2 460l9.1-39.4 32.5 18.2z"/><path fill="#c5422f" d="M356.6 310.8l-7.3 63.5-25.2-105.5 32.5 42z"/><path fill="#c13027" d="M356.6 275v35.8l-32.5-42 32.5 6.2z"/><path fill="#c13027" d="M381.4 210.4l5.9 54.5-30.7 10.1 24.8-64.6zM486 443l-29.3 15.7-48.2 1.3 42.3-9.3L486 443z"/><path fill="#a4271e" d="M506.3 457.3l-49.6 1.4L486 443l20.3 14.3z"/><path fill="#bd2c22" d="M558.9 326l-45.2 40.3-14.4-24.8 59.6-15.5z"/><path fill="#c13027" d="M513.7 366.3l-19.1 17-46.6-19.8 65.7 2.8z"/><path fill="#a4271e" d="M499.3 341.5l-51.3 22 39-48.8 12.3 26.8z"/><path fill="#c5422f" d="M387.3 264.9l7.3 66.5-38-56.4 30.7-10.1z"/><path fill="#ae312a" d="M267 412.6l-34.1-51.2 23.6 13.2v.1l10.5 37.9z"/><path fill="#c02a2c" d="M297.1 397.4L267 412.6l-10.5-37.9 40.6 22.7z"/><path fill="#c13027" d="M338.3 420.6l-9.1 39.4-11.8-23-20.3-39.6 41.2 23.2z"/><path fill="#ad322b" d="M408.5 460h-34l-3.7-21.2 37.7 21.2z"/><path fill="#a4271e" d="M444.1 428.3L408.5 460l15.8-38.6 19.8 6.9z"/><path fill="#c5422f" d="M317.4 437l-39.5 6.4 19.2-46 20.3 39.6z"/><path fill="#bd2c22" d="M394.6 331.4l-38-20.6V275l38 56.4z"/><path fill="#c13027" d="M394.6 331.4l-20 79.6-25.3-36.7 45.3-42.9z"/><path fill="#a4271e" d="M394.6 331.4l-45.3 42.9 7.3-63.5 38 20.6z"/><path fill="#bd2c22" d="M394.6 331.4l9.7 90.1-29.7-10.5 20-79.6z"/><path fill="#ae312a" d="M404.3 421.5l4.2 38.5-33.9-49 29.7 10.5z"/><path fill="#c13027" d="M513.7 366.3l-65.7-2.8 51.3-22 14.4 24.8z"/><path fill="#c5422f" d="M494.6 383.3h-.1l-70.2 38.1 23.7-57.9 46.6 19.8z"/><path fill="#c13027" d="M494.5 383.3l-32.8 29.3-17.6 15.7-19.8-6.9 70.2-38.1z"/><path fill="#9a2420" d="M294.4 363.7l2.7 33.7-40.6-22.7v-.1l13.3 7.5 24.6-18.4z"/><path fill="#580200" d="M321.9 369l-27.5-5.3 6.3-28.8 21.1 33.7.1.4z"/><path fill="#9a2420" d="M349.3 374.3l-27.4-5.3-.1-.4-21.1-33.7 48.6 39.4z"/><path fill="#6d1009" d="M349.3 374.3l-11 46.3-16.4-51.6 27.4 5.3z"/><path fill="#7e1913" d="M419.5 268.2l-28.4 31.5-9.7-89.3 38.1 57.8z"/><path fill="#580200" d="M449.9 255.2l-23.2 38.4-7.2-25.4 30.4-13z"/><path fill="#9a2420" d="M449.9 255.2L448 363.5l-21.3-69.9 23.2-38.4z"/><path fill="#7e1913" d="M448 363.5l-26.7-16 5.4-53.9 21.3 69.9z"/><path fill="#580200" d="M421.3 347.5l-17 74-9.7-90.1 26.7 16.1z"/><path fill="#9a2420" d="M486 443l-35.2 7.7 10.9-38.1L486 443z"/><path fill="#6d1009" d="M561.7 398.7L486 443l40.6-41.5 35.1-2.8z"/><path fill="#7e1913" d="M561.7 398.7l-35.1 2.8-35.1 2.7 45.1-20.9 25.1 15.4z"/><path fill="#580200" d="M558.9 326l-22.3 57.3h-42l19.1-17 45.2-40.3z"/><path fill="#9a2420" d="M408.5 460l-37.7-21.2 3.8-27.8 33.9 49zm15.8-38.6L408.5 460l-4.2-38.5 20-.1z"/><path fill="#660c03" d="M461.7 412.6l-10.9 38.1-42.3 9.3 35.6-31.7 17.6-15.7z"/><path fill="#7e1913" d="M338.3 420.6l-41.2-23.2-2.7-33.7 43.9 56.9zm-43.9-56.9l-24.6 18.4-13.3-7.5-23.6-13.2 61.5 2.3z"/><path fill="#9a2420" d="M338.3 420.6l-43.9-56.9 27.5 5.3 16.4 51.6z"/><path fill="#660c03" d="M374.6 411l-3.8 27.8-32.5-18.2 36.3-9.6z"/><path fill="#881d18" d="M374.6 411l-36.3 9.6 11-46.3 25.3 36.7z"/><path fill="#9a2420" d="M426.7 293.6l-35.6 6.1 28.4-31.5 7.2 25.4z"/><path fill="#9a2420" d="M421.3 347.5l-26.7-16.1-3.5-31.7 30.2 47.8z"/><path fill="#6d1009" d="M426.7 293.6l-5.4 53.9-30.2-47.8 35.6-6.1z"/><path fill="#9a2420" d="M536.6 383.3l-45.1 20.9 3.1-20.9h42zM448 363.5l-43.7 58 17-74 26.7 16z"/><path fill="#660c03" d="M448 363.5l-23.7 57.9-20 .1 43.7-58z"/><path fill="#580200" d="M494.6 383.3l-3.1 20.9L486 443l-24.3-30.4 32.8-29.3h.1z"/><path fill="#9a2420" d="M526.6 401.5L486 443l5.5-38.8 35.1-2.7z"/><path fill="#fff" d="M450.8 450.7l-.2.4"/></g><path fill="none" d="M277.9 443.4l-29.2 14.7m-2.9-25.1l-.3-.2m-30.3-285.5h-.1m232.3 108.9l-1 .5"/><path fill="#fff" d="M326.3 458h-77.6l-2.9-25 80.5 25z"/><path fill="#bcbec0" d="M214.6 448l-20.7 10 4-121.8 14.7 38.1-16.3 10.4 18.3 63.3z"/><path fill="#fff" d="M219.8 407.4l-5.2 40.6-18.3-63.3 23.5 22.7z"/><path fill="#939598" d="M245.5 432.6l-.7.7-30.2 14.5 5.2-40.6 25.7 25.4z"/><path fill="#e6e7e8" d="M267 412.6l-21.5 20.2-25.7-25.4 47.2 5.2z"/><path fill="#fff" d="M267 412.6l-47.2-5.2 32-17.7 15.2 22.9z"/><path fill="#e6e7e8" d="M248.7 458h-54.8l20.7-10 30.2-14.5 1-.5 2.9 25z"/><path fill="#bcbec0" d="M251.8 389.7l-32 17.7-23.5-22.7 55.5 5z"/><path fill="#939598" d="M251.8 389.5l-55.5-5 16.3-10.4 20.3-12.9 18.9 28.3z"/><path fill="#fff" d="M232.9 361.4l-20.3 12.9-14.7-38.1 35 25.2z"/><path fill="#808285" d="M247.3 323.8l-14.4 37.6-35-25.2 27.3-6.9 22.1-5.5z"/><path fill="#bcbec0" d="M266.8 348.1l-33.9 13.3 14.4-37.6 19.5 24.3z"/><path fill="#fff" d="M294.4 363.7l-61.5-2.3 33.9-13.3 27.6 15.6z"/><path fill="#e6e7e8" d="M300.7 334.9l-6.3 28.8-27.6-15.6 33.9-13.2z"/><path fill="#939598" d="M300.7 334.7l-33.9 13.2-19.5-24.3 53.4 11.1z"/><path fill="#bcbec0" d="M225.2 329.3l-27.3 6.9-1.9-33.5 29.2 26.6zm22.1-5.5l-22.1 5.5 7.6-56.8 14.5 51.3z"/><path fill="#808285" d="M261.8 298.4l-14.5 25.4-14.5-51.3 29 25.9z"/><path fill="#fff" d="M300.7 334.9l-53.4-11.1 14.5-25.4 38.9 36.5z"/><path fill="#bcbec0" d="M310.6 307l-9.9 27.9-38.9-36.5 48.8 8.6z"/><path fill="#e6e7e8" d="M332.7 304.8l-7.2 50.1-24.8-20 32-30.1z"/><path fill="#fff" d="M349.3 374.3l-23.8-19.4 7.2-50.1 16.6 69.5z"/><path fill="#fff" d="M332.7 304.8l-32 30.1 9.9-27.9 13.6-38.2 8.5 36z"/><path fill="#939598" d="M324.2 268.6l-13.6 38.2-48.8-8.6 62.4-29.6z"/><path fill="#bcbec0" d="M324.2 268.8l-62.4 29.6 12.1-48.1 50.3 18.5z"/><path fill="#fff" d="M273.9 250.3l-12.1 48.1-29-25.9 41.1-22.2z"/><path fill="#939598" d="M273.9 250.3l-41.1 22.2-40.4-33.8 81.5 11.6z"/><path fill="#414042" d="M273.9 250.3l-81.5-11.6 51.1-5.3 30.4 16.9z"/><path fill="#333132" d="M243.5 233.4l-51.2 5.3a42.1 42.1 0 0 0 20.8-22.3z"/><path fill="#414042" d="M286.5 210.9l-43 22.5-30.3-17 73.3-5.5z"/><path fill="#58595b" d="M286.5 210.9l-12.6 39.4-30.4-16.9 43-22.5z"/><path fill="#939598" d="M312.7 234.3l-38.8 16 12.6-39.4 26.2 23.4z"/><path fill="#808285" d="M324.2 268.8l-50.3-18.5 38.8-16 11.5 34.5z"/><path fill="#bcbec0" d="M351.6 218.3l-27.4 50.5-11.5-34.5 38.9-16z"/><path fill="#e6e7e8" d="M356.6 275l-32.4-6.2 27.4-50.5 5 56.7z"/><path fill="#fff" d="M381.4 210.4L356.6 275l-5-56.7 29.8-7.9z"/><path fill="#fff" d="M447.4 238.7l-27.9 29.5-38.1-57.8 66 28.3z"/><path fill="#e6e7e8" d="M447.4 238.7l-66-28.3 42.4-11.1a118.8 118.8 0 0 0 2.3 13.2c3.6 14.8 20.3 25.5 21.3 26.2z"/><path fill="#bcbec0" d="M423.8 199.3l-42.4 11.1-9.1-31.3 25.7 10.1 25.8 10.1z"/><path fill="#939598" d="M423.8 199.3L398 189.2l25-27.6-40.3-3.1 44.7-38.8s-4.7 37.5-4.8 50a217.5 217.5 0 0 0 1.2 29.6z"/><path fill="#58595b" d="M423.1 161.6L398 189.2l-25.7-10.1 50.8-17.5z"/><path fill="#414042" d="M423.1 161.6l-50.8 17.5-29.8-23.7 40.3 3.1 40.3 3.1z"/><path fill="#939598" d="M372.3 179.1l-44.9 17.2 15.1-40.9 29.8 23.7z"/><path fill="#58595b" d="M372.3 179.1l-20.7 39.2-24.2-22 44.9-17.2zm-20.7 39.2l-38.9 16-26.2-23.4 65.1 7.4z"/><path fill="#bcbec0" d="M351.6 218.3l-65.1-7.4 40.9-14.6 24.2 22z"/><path fill="#414042" d="M327.4 196.3l-40.9 14.5 16.1-52.4z"/><path fill="#333132" d="M302.6 158.5l-16.1 52.4-.2-35.5 16.3-16.9z"/><path fill="#414042" d="M302.6 158.5l-16.3 16.9-30.6-13.1 46.9-3.8z"/><path fill="#333132" d="M286.2 175.4l-30.3 19.3-.3-32.4 30.6 13.1z"/><path fill="#808285" d="M286.5 210.9l-30.6-16.2 30.3-19.3.3 35.5z"/><path fill="#58595b" d="M286.5 210.9l-73.3 5.5 42.7-21.7 30.6 16.2z"/><path fill="#414042" d="M255.9 194.7l-42.7 21.7c.5-1.2.9-2.4 1.3-3.7 2.9-10.4 3.4-32.2 2.8-43-.3-4.9-1.1-13.6-2.1-22.4l40.5 15-38.2 17.5z"/><path fill="#231f20" d="M255.9 194.7l-38.4-14.9 38.1-17.5.3 32.4z"/><path fill="#333132" d="M255.6 162.3l-40.4-15 32.1-35 8.3 50z"/><path fill="#231f20" d="M247.3 112.3l-32.2 35c-1.5-13.6-3.2-27.4-3.2-27.4z"/><path fill="#58595b" d="M283.3 132.6l-27.7 29.7-8.3-50 36 20.3z"/><path fill="#231f20" d="M283.3 132.6l-36-20.3 34.8-7.5a81.1 81.1 0 0 0 1.2 27.8zm19.2 25.9l-46.9 3.8 27.7-29.7c2.5 10.3 7.9 20.7 19.2 25.9z"/><path fill="#58595b" d="M342.5 155.4l-15.1 40.9-24.8-37.8a41.1 41.1 0 0 0 17.3 3.4c9.8 0 17.1-2.5 22.6-6.5z"/><path fill="#808285" d="M381.4 210.4l-29.8 7.9 20.7-39.2 9.1 31.3z"/><path fill="#414042" d="M427.5 119.7l-44.7 38.8-24.9-53.6 69.6 14.8z"/><path fill="#231f20" d="M382.8 158.5l-40.3-3.1c20.7-14.9 15.4-50.5 15.4-50.5z"/><path fill="#bcbec0" d="M447.4 238.7l-1 18-26.9 11.5 27.9-29.5z"/><path fill="none" d="M441.9 335.4l4.4 122.6h-120l-80.5-25-1 .5.7-.7 21.5-20.2-15.2-22.9-18.9-28.3 61.5 2.3 6.3-28.8 24.8 20 23.8 19.4-16.6-69.5-8.5-36 32.4 6.2 24.8-64.6 38.1 57.8 26.9-11.5-4.5 78.7z"/><path fill="gray" d="M209.4 285.6L196 302.7l29.2 26.6-15.8-43.7z"/><path fill="#333132" d="M192.4 238.7l3.6 64 13.4-17.1-17-46.9z"/><path fill="#58595b" d="M192.4 238.7l17 46.9 23.4-13.1-40.4-33.8z"/><path fill="#808285" d="M232.8 272.5l-23.4 13.1 15.8 43.7 7.6-56.8z"/><path fill="#414042" d="M626.7 274.1l-16.8 41.2-2.8-49.7 19.6 8.5z"/><path fill="#58595b" d="M634.3 255.2l-27.2 10.4-1.5-26.9 28.7 16.5z"/><path fill="#414042" d="M634.3 255.2l-28.7-16.5a64.9 64.9 0 0 0 12.3-10.5z"/><path fill="#a7a9ac" d="M634.3 255.2l-16.4-27.1c3.9-4.3 7.5-9.7 9-15.7.4-1.6.7-3.2 1-4.8l2.8 20.8z"/><path fill="#808285" d="M627.9 207.6c2.7-14.3 2.5-28.2 2.4-37.8l19 21.2z"/><path fill="#414042" d="M655.1 157.7l-24.8 12.1c-.1-5.9-1.2-17.4-2.3-27.9z"/><path fill="#6d6e71" d="M655.1 157.7v12l-24.8.1 24.8-12.1zm0-25.2l-27 9.4c-1.2-11.7-2.5-22.2-2.5-22.2z"/><path fill="#414042" d="M666.3 111l-11.2 21.5-29.6-12.8 40.8-8.7z"/><path fill="#231f20" d="M841.4 219.8l-17.9-9.3 13.1-9.9a75.9 75.9 0 0 0 2 12.1 39.7 39.7 0 0 0 2.8 7.1zm-4.8-19.2l-17.6-8.9 16.5-16.5a229.7 229.7 0 0 0 1.1 25.4z"/><path fill="#414042" d="M835.6 175.3L819 191.7l-7.9-22 24.5 5.6z"/><path fill="#6d6e71" d="M819 191.7l-16.4-8.3 8.5-13.7 7.9 22zm5-31.2l-12.9 9.2v-21.3l12.9 12.1z"/><path fill="#231f20" d="M838.8 138.5c-1.3 11.2-2.7 24.6-3.1 31.2-.1 1.6-.1 3.5-.2 5.6L824 160.5z"/><path fill="#414042" d="M841.1 119.9s-1 8.4-2.2 18.6l-13.9-3-13.9-3z"/><path fill="#231f20" d="M841.1 119.9l-30 12.6 5.2-17.9 24.8 5.3zm-24.8-5.3l-11 9-17.2-9.4-17.2-9.3 45.4 9.7z"/><path fill="#414042" d="M805.3 123.6l-10.9 8.9-6.3-18.3 17.2 9.4z"/><path fill="#58595b" d="M772.9 132.5l-18.8-19.8c11-3.2 16.9-7.9 16.9-7.9z"/><path fill="#231f20" d="M772.9 132.5l-17.9-8.4-17.9-8.4a75.9 75.9 0 0 0 16.9-2.9z"/><path fill="#6d6e71" d="M772.9 132.5h-29.1l11.2-8.4 17.9 8.4z"/><path fill="#414042" d="M755 124.1l-11.2 8.4-6.6-16.9 17.8 8.5z"/><path fill="#231f20" d="M737.2 115.6l-11.7 16.9-9.6-18.3a78 78 0 0 0 15.9 1.6z"/><path fill="#6d6e71" d="M715.8 114.2l-15.2 13.1-5.5-22.3s6.3 6.2 20.7 9.2z"/><path fill="#58595b" d="M725.4 132.5h-52l27.2-5.3 24.8 5.3zm-24.8-5.3L666.3 111l28.8-6.1 5.5 22.3z"/><path fill="#414042" d="M700.6 127.2l-27.2 5.3-7.1-21.5 34.3 16.2z"/><path fill="#58595b" d="M860.6 238.7l-1.5 27.7-10-2.1 11.5-25.6z"/><path fill="#6d6e71" d="M859.1 266.4l-2.8 50-9.1-23.1 11.9-26.9z"/><path fill="#d1d3d4" d="M706.6 458.1h-54l26.4-15.5 27.6 15.5z"/><path fill="#e6e7e8" d="M706.6 458.1L679 442.6l18.6-10.9 9 26.4z"/><path fill="#fff" d="M768 458.1h-61.4l19-42.7 42.4 42.7zm91.1 0H768l39.3-44.9 51.8 44.9z"/><path fill="#d1d3d4" d="M859.1 458.1l-51.8-44.9 49.9-14.3 1.9 59.2z"/><path fill="#fff" d="M857.2 398.9l-49.9 14.3 48.8-48 1.1 33.7z"/><path fill="#e6e7e8" d="M856.1 365.2l-48.8 48-6.7-46.2 55.5-1.8z"/><path fill="#d1d3d4" d="M807.3 413.2l-59.1-23.3 52.4-22.9 6.7 46.2z"/><path fill="#e6e7e8" d="M855.1 336.2l1 29-46-38 46.2-10.8-1.2 19.8z"/><path fill="#bcbec0" d="M856.1 365.2l-55.5 1.8 9.5-39.8 46 38z"/><path fill="#fff" d="M810.1 327.2l-9.5 39.8-26.3-22.6 35.8-17.2z"/><path fill="#e6e7e8" d="M800.6 367l-52.4 22.9 26.1-45.5 26.3 22.6z"/><path fill="#bcbec0" d="M624.2 363L609 381.1l1.1-18.6 14.1.5z"/><path fill="#a7a9ac" d="M650.9 331.3l-40.8 31.2 1-27 39.8-4.2z"/><path fill="#d1d3d4" d="M650.9 331.3l-39.8 4.2-1.2-20.2 41 16z"/><path fill="#fff" d="M650.9 331.3l-41-16 26.1-19.8 14.9 35.8z"/><path fill="#a7a9ac" d="M636 295.5l-26.1 19.8 16.8-41.2 9.3 21.4z"/><path fill="#d1d3d4" d="M647.6 272.1L636 295.5l-9.3-21.4 20.9-2z"/><path fill="#808285" d="M647.6 272.1l-20.9 2 7.6-18.9 13.3 16.9z"/><path fill="#a7a9ac" d="M670 201.1l-4 32.1-31.7 22 35.7-54.1z"/><path fill="#808285" d="M687.6 218.2l-21.6 15 4-32.1 17.6 17.1z"/><path fill="#e6e7e8" d="M687.6 218.2l-5 26.8-16.6-11.8 21.6-15z"/><path fill="#d1d3d4" d="M682.6 245L670 257.9l-4-24.7 16.6 11.8z"/><path fill="#e6e7e8" d="M672.2 298.9l-21.3 32.4-14.9-35.8 36.2 3.4z"/><path fill="#bcbec0" d="M695.4 337.4l-44.5-6.1 21.3-32.3 23.2 38.4z"/><path fill="#e6e7e8" d="M695.4 337.2l-23.2-38.3 23.1 7.8.1 30.5z"/><path fill="#bcbec0" d="M722.8 342.7l-27.5 7.1.1-12.6 27.4 5.5z"/><path fill="#d1d3d4" d="M856.3 316.4l-46.2 10.8 13.9-30.3 32.3 19.5z"/><path fill="#808285" d="M856.3 316.4L824 296.9l10.6-35.7 12.6 32.1 9.1 23.1z"/><path fill="#d1d3d4" d="M834.6 261.2L824 296.9l-26.5-29.3 37.1-6.4z"/><path fill="#fff" d="M824 296.9l-41 2.1 14.5-31.4 26.5 29.3z"/><path fill="#a7a9ac" d="M834.6 261.2l-37.1 6.4 25.1-24.1 12 17.7z"/><path fill="#d1d3d4" d="M822.6 243.5l-28 2.1 11-27.4 10.2 15 6.8 10.3z"/><path fill="#a7a9ac" d="M805.6 218.2l-11 27.4-20.9-16.3 31.9-11.1z"/><path fill="#808285" d="M805.6 218.2l-31.9 11.1 1.3-38.6 30.6 27.5z"/><path fill="#bcbec0" d="M775 190.7L745.5 217v-27.4l29.5 1.1z"/><path fill="#a7a9ac" d="M745.5 217l-31.3 2.1 6.3-30.4 25 28.3zm-37.4 19.7l-7.2 39.5-18.3-31.2 25.5-8.3z"/><path fill="#bcbec0" d="M700.9 276.2l-5.6 30.5-23.1-7.8 28.7-22.7z"/><path fill="#d1d3d4" d="M717.2 314l-21.9-7.3 5.6-30.5 16.3 37.8z"/><path fill="#e6e7e8" d="M797.5 267.6L783 299l-31.7-25.2 46.2-6.2z"/><path fill="#6d6e71" d="M794.6 245.6l-28.8-2.1 7.9-14.2 20.9 16.3z"/><path fill="#e6e7e8" d="M797.5 267.6l-31.7-24.1 28.8 2.1 2.9 22z"/><path fill="#58595b" d="M860.6 238.7l-28.6-7.1 9.4-11.8a42.2 42.2 0 0 0 19.2 18.9zM670 201.1l-42.1 6.5 21.4-16.6 20.7 10.1z"/><path fill="#d1d3d4" d="M695.4 194.9l-7.7 23.3-17.6-17.1 25.3-6.2z"/><path fill="#808285" d="M670 201.1l-35.7 54.1-3.6-26.7 39.3-27.4z"/><path fill="#6d6e71" d="M695.3 194.9l-25.3 6.2 5-22.9 20.3 16.7z"/><path fill="#414042" d="M720.5 188.7l-25.2 6.2-20.3-16.7 45.5 10.5z"/><path fill="#a7a9ac" d="M859.1 266.4l-11.9 26.9-12.6-32.1 14.5 3.1 10 2.1z"/><path fill="#808285" d="M832 231.6l-16.2 1.8-10.2-15.2 26.4 13.4z"/><path fill="#414042" d="M832 231.6l-9.4 12-6.8-10.2 16.2-1.8z"/><path fill="#58595b" d="M834.6 261.2l-12-17.7 9.4-11.9 2.6 29.6z"/><path fill="#414042" d="M805.6 218.2L775 190.7l26.7 10.4 3.9 17.1zm-57.4-48.5l-2.7 19.9-25-.9 27.7-19z"/><path fill="#6d6e71" d="M775 190.7l-29.5-1.1 2.7-19.9 26.8 21z"/><path fill="#959699" d="M675 178.2l-5 22.9-20.7-10.1 25.7-12.8z"/><path fill="#58595b" d="M673.4 132.5h-18.3l11.2-21.5 7.1 21.5z"/><path fill="#414042" d="M670 201.1l-39.3 27.3-2.8-20.8z"/><path fill="#6d6e71" d="M634.3 255.2l-7.6 18.9-19.6-8.5 27.2-10.4z"/><path fill="#e6e7e8" d="M655.1 132.5h156v37.2h-156z"/><path fill="#58595b" d="M655.1 132.5v25.2l-27-15.8 27-9.4z"/><path fill="#414042" d="M675 178.2L649.3 191l5.8-21.3 19.9 8.5z"/><path fill="#58595b" d="M655.1 169.7l-5.8 21.3-19-21.2 24.8-.1z"/><path fill="#6d6e71" d="M720.5 188.7L675 178.2l23.1-8.5 22.4 19z"/><path fill="#808285" d="M748.2 169.7l-27.7 19-22.4-19h50.1z"/><path fill="#6d6e71" d="M802.6 183.4l-14.2 3.8-13.4 3.5-1.3-21 28.9 13.7z"/><path fill="#414042" d="M836.6 200.6l-13.1 9.9-4.5-18.8 17.6 8.9z"/><path fill="#58595b" d="M743.8 132.5h-18.4l11.8-16.9 6.6 16.9z"/><path fill="#414042" d="M725.4 132.5l-24.8-5.3 15.2-13 9.6 18.3zm62.7-18.3l-15.2 18.3-2-27.6 17.2 9.3z"/><path fill="#58595b" d="M816.3 114.6l-5.2 17.9h-16.7l10.9-8.9 11-9z"/><path fill="#231f20" d="M794.4 132.5h-21.5l15.2-18.3 6.3 18.3z"/><path fill="#58595b" d="M811.1 169.7l-8.5 13.7-28.9-13.7h37.4z"/><path fill="#414042" d="M819 191.7l-44-1 27.6-7.3 16.4 8.3z"/><path fill="#808285" d="M698.1 169.7l-23.1 8.5-19.9-8.5h43zm76.9 21l-26.8-21h25.5l1.3 21z"/><path fill="#231f20" d="M838.8 138.5l-14.8 22 1-25 13.8 3z"/><path fill="#58595b" d="M825 135.5l-13.9 12.9v-15.9l13.9 3zm10.6 39.8l-24.5-5.6 12.9-9.2 11.6 14.8z"/><path fill="#414042" d="M825 135.5l-1 25-12.9-12.1 13.9-12.9zm35.6 103.2l-11.5 25.6-14.5-3.1 26-22.5z"/><path fill="#58595b" d="M819 191.7l-17.3 9.4-26.7-10.4 44 1z"/><path fill="#a7a9ac" d="M823.5 210.5l-17.9 7.7 13.4-26.5 4.5 18.8z"/><path fill="#58595b" d="M841.4 219.8l-16.3-.7-19.5-.9 17.9-7.7 17.9 9.3z"/><path fill="#a7a9ac" d="M841.4 219.8l-9.4 11.8-26.4-13.4 35.8 1.6z"/><path fill="#6d6e71" d="M860.6 238.7l-26 22.5-2.6-29.6 28.6 7.1z"/><path fill="#58595b" d="M670 257.9l-35.7-2.7 31.7-22 4 24.7z"/><path fill="#a7a9ac" d="M720.5 188.7l-32.9 29.5 7.7-23.3 25.2-6.2z"/><path fill="#6d6e71" d="M745.5 189.6V217l-25-28.3 25 .9z"/><path fill="#bcbec0" d="M670 257.9l-22.4 14.2-13.3-16.9 35.7 2.7z"/><path fill="#58595b" d="M708.1 236.7l-25.5 8.3 5-26.8 20.5 18.5z"/><path fill="#d1d3d4" d="M720.6 188.7l-6.3 30.4-26.6-.9 32.9-29.5z"/><path fill="#bcbec0" d="M714.2 219.1l-6.1 17.6-20.5-18.5 26.6.9z"/><path fill="#a7a9ac" d="M775 190.7l-1.3 38.6-28.2-12.3 29.5-26.3z"/><path fill="#6d6e71" d="M745.5 217l-36.7 19.4-.7.3 6.1-17.6 31.3-2.1z"/><path fill="#a7a9ac" d="M751.3 273.8l-25-14.8 19.2-16.9 5.8 31.7z"/><path fill="#bcbec0" d="M773.7 229.3l-7.9 14.2-20.3-1.4 28.2-12.8z"/><path fill="#e6e7e8" d="M745.5 217v25.1l-36.7-5.7 36.7-19.4z"/><path fill="#d1d3d4" d="M773.7 229.3l-28.2 12.8V217l28.2 12.3zm-7.9 14.2l-14.5 30.3-5.8-31.7 20.3 1.4z"/><path fill="#bcbec0" d="M700.9 276.2L670 257.9l12.6-12.9 18.3 31.2z"/><path fill="#a7a9ac" d="M700.9 276.2l-28.7 22.7-2.2-41 30.9 18.3z"/><path fill="#e6e7e8" d="M672.2 298.9l-24.6-26.8 22.4-14.2 2.2 41z"/><path fill="#fff" d="M672.2 298.9l-36.2-3.4 11.6-23.4 24.6 26.8z"/><path fill="#d1d3d4" d="M725.6 415.4l-19 42.7-9-26.4 28-16.3zm81.7-2.2L768 458.1l-42.4-42.7 81.7-2.2z"/><path fill="#e6e7e8" d="M807.3 413.2l-81.7 2.2 22.6-25.5 59.1 23.3z"/><path fill="#fff" d="M748.2 389.9l-22.6 25.5-25.1-15.4 47.7-10.1z"/><path fill="#808285" d="M822.6 243.5l-25.1 24.1-2.9-22 28-2.1z"/><path fill="#d1d3d4" d="M745.5 242.1L726.3 259l-18.2-22.3.7-.3 36.7 5.7zm52 25.5l-46.2 6.2 14.5-30.3 31.7 24.1z"/><path fill="#e6e7e8" d="M726.3 259l-25.4 17.2 7.2-39.5 18.2 22.3z"/><path fill="#fff" d="M746.7 306.9l-29.5 7.1-16.3-37.8 45.8 30.7z"/><path fill="#d1d3d4" d="M746.7 306.9l-45.8-30.7 25.4-17.2 20.4 47.9z"/><path fill="#bcbec0" d="M751.3 273.8l-4.6 33.1-20.4-47.9 25 14.8z"/><path fill="#a7a9ac" d="M783 299l-36.3 7.9 4.6-33.1L783 299z"/><path fill="#bcbec0" d="M824 296.9l-13.9 30.3L783 299l41-2.1z"/><path fill="#f1f2f2" d="M695.4 337.2l-32.2 20.9-12.3-26.8 44.5 5.9z"/><path fill="#fff" d="M783 299l-8.7 45.4-27.6-37.5L783 299z"/><path fill="#d1d3d4" d="M717.2 314l-21.8 23.2-.1-30.5 21.9 7.3z"/><path fill="#fff" d="M722.8 342.7l-27.4-5.5 21.8-23.2 5.6 28.7z"/><path fill="#bcbec0" d="M746.7 306.9l-23.9 35.8-5.6-28.7 29.5-7.1z"/><path fill="#e6e7e8" d="M774.3 344.4l-51.5-1.7 23.9-35.8 27.6 37.5z"/><path fill="#bcbec0" d="M810.1 327.2l-35.8 17.2L783 299l27.1 28.2z"/><path fill="#d1d3d4" d="M650.9 331.3L624.2 363l-14.1-.5 40.8-31.2zm97.3 58.6l-38.5-13.7 13.1-33.5 25.4 47.2z"/><path fill="#a7a9ac" d="M748.2 389.9L700.5 400l9.2-23.8 38.5 13.7z"/><path fill="#fff" d="M695.4 337.2l-.1 12.6-32.1 8.3 32.2-20.9z"/><path fill="#a7a9ac" d="M774.3 344.4l-26.1 45.5-25.4-47.2 51.5 1.7z"/><path fill="#6d6e71" d="M819 191.7l-13.4 26.5-3.9-17.1 17.3-9.4z"/><g clip-path="url(#b)"><path fill="#bd2c22" d="M722.8 342.7l-45.2 40.2-14.4-24.8 59.6-15.4z"/><path fill="#c13027" d="M677.6 382.9L658.4 400 609 381.1l68.6 1.8z"/><path fill="#a4271e" d="M663.2 358.1l-54.2 23 41.9-49.8 12.3 26.8zM608 445l-35.6 31.7 15.8-38.6L608 445z"/><path fill="#c5422f" d="M677.6 382.9l-68.6-1.8 54.2-23 14.4 24.8zM658.4 400l-70.2 38.1 20.8-57 49.4 18.9z"/><path fill="#c13027" d="M658.4 400l-32.8 29.2v.1L608 445l-19.8-6.9 70.2-38.1z"/><path fill="#9a2420" d="M649.8 459.6l-35.2 7.8 11-38.1 24.2 30.3z"/><path fill="#6d1009" d="M725.6 415.4l-75.8 44.2 40.7-41.5 35.1-2.7z"/><path fill="#7e1913" d="M725.6 415.4l-35.1 2.7-35.1 2.8 45.1-20.9 25.1 15.4z"/><path fill="#580200" d="M722.8 342.7L700.5 400h-42.1l19.2-17.1 45.2-40.2z"/><path fill="#660c03" d="M625.6 429.3l-11 38.1-42.2 9.3L608 445l17.6-15.7z"/><path fill="#9a2420" d="M700.5 400l-45.1 20.9 3-20.9h42.1z"/><path fill="#580200" d="M658.4 400l-3 20.9-5.6 38.7-24.2-30.3v-.1l32.8-29.2z"/><path fill="#9a2420" d="M690.5 418.1l-40.7 41.5 5.6-38.7 35.1-2.8z"/></g><path fill="#414042" d="M678.8 148.4l-23.7 9.3v-25.2l23.7 15.9z"/><path fill="#6d6e71" d="M678.8 148.4l-23.7-15.9h18.4l5.3 15.9z"/><path fill="#58595b" d="M678.8 148.4l-3.8 12.9-19.9-3.6 23.7-9.3z"/><path fill="#959699" d="M675 161.3l-19.9 8.4v-12l19.9 3.6z"/><path fill="#58595b" d="M698.1 169.7h-43l19.9-8.4 23.1 8.4z"/><path fill="#6d6e71" d="M698.1 169.7l-23.1-8.4 3.8-12.9 19.3 21.3z"/><path fill="#58595b" d="M708.1 151.5l-10 18.2-19.3-21.3 29.3 3.1zm-10.3-10.6l-19 7.5-5.3-15.9 24.3 8.4z"/><path fill="#959699" d="M725.4 132.5l-27.6 8.4-24.3-8.4h51.9zm-17.3 19l-29.3-3.1 19-7.5 10.3 10.6z"/><path fill="#6d6e71" d="M725.4 132.5l-17.3 19-10.3-10.6 27.6-8.4zm-2.2 30.4l-25.1 6.8 10-18.2 15.1 11.4z"/><path fill="#414042" d="M748.2 169.7h-50.1l25.1-6.8 25 6.8z"/><path fill="#58595b" d="M743.8 150.9l-20.6 12-15.1-11.4 35.7-.6z"/><path fill="#6d6e71" d="M748.2 169.7l-25-6.8 20.6-12 4.4 18.8z"/><path fill="#808285" d="M743.8 150.9l-35.7.6 17.3-19 18.4 18.4z"/><path fill="#414042" d="M743.8 132.5v18.4l-18.4-18.4h18.4z"/><path fill="#6d6e71" d="M769.9 149.9l-26.1 1v-18.4l26.1 17.4z"/><path fill="#58595b" d="M773.7 169.7h-25.5l-4.4-18.8 29.9 18.8z"/><path fill="#414042" d="M773.7 169.7l-29.9-18.8 26.1-1 3.8 19.8z"/><path fill="#58595b" d="M771.8 132.5l-1.9 17.4-26.1-17.4h28z"/><path fill="#414042" d="M789.7 141.9l-19.8 8 1.9-17.4 17.9 9.4z"/><path fill="#808285" d="M789.7 141.9v15.8l-19.8-7.8 19.8-8z"/><path fill="#58595b" d="M789.7 157.7l-16 12-3.8-19.8 19.8 7.8z"/><path fill="#6d6e71" d="M811.1 169.7h-37.4l16-12 21.4 12z"/><path fill="#414042" d="M811.1 148.4v21.3l-21.4-12 21.4-9.3z"/><path fill="#6d6e71" d="M811.1 148.4l-21.4 9.3v-15.8l21.4 6.5z"/><path fill="#231f20" d="M811.1 132.5v15.9l-21.4-6.5 21.4-9.4z"/><path fill="#414042" d="M811.1 132.5l-21.4 9.4 4.7-9.4h16.7z"/><path fill="#58595b" d="M794.4 132.5l-4.7 9.4-17.9-9.4h22.6z"/><path fill="#fff" d="M787.4 154l23.7-9.4v25.2L787.4 154z"/><path fill="#bdbec1" d="M787.4 154l23.7 15.8h-18.3l-5.4-15.8zm0 0l3.8-12.9 19.9 3.5-23.7 9.4z"/><path fill="#e8e9ea" d="M791.2 141.1l19.9-8.5v12l-19.9-3.5z"/><path fill="#bdbec1" d="M768.1 132.6h43l-19.9 8.5-23.1-8.5z"/><path fill="#fff" d="M768.1 132.6l23.1 8.5-3.8 12.9-19.3-21.4z"/><path fill="#bdbec1" d="M758.1 150.8l10-18.2 19.3 21.4-29.3-3.2z"/><path fill="#e8e9ea" d="M768.4 161.4l19-7.4 5.4 15.8-24.4-8.4z"/><path fill="#959699" d="M740.8 169.8l27.6-8.4 24.4 8.4h-52zm17.3-19l29.3 3.2-19 7.4-10.3-10.6z"/><path fill="#bdbec1" d="M740.8 169.8l17.3-19 10.3 10.6-27.6 8.4z"/><path fill="#fff" d="M743 139.4l25.1-6.8-10 18.2-15.1-11.4z"/><path fill="#e8e9ea" d="M718 132.6h50.1l-25.1 6.8-25-6.8z"/><path fill="#bdbec1" d="M722.4 151.4l20.6-12 15.1 11.4-35.7.6z"/><path fill="#959699" d="M718 132.6l25 6.8-20.6 12-4.4-18.8z"/><path fill="#e8e9ea" d="M722.4 151.4l35.7-.6-17.3 19-18.4-18.4z"/><path fill="#fff" d="M722.4 169.8v-18.4l18.4 18.4h-18.4z"/><path fill="#e8e9ea" d="M696.3 152.4l26.1-1v18.4l-26.1-17.4z"/><path fill="#bdbec1" d="M692.5 132.6H718l4.4 18.8-29.9-18.8z"/><path fill="#959699" d="M692.5 132.6l29.9 18.8-26.1 1-3.8-19.8zm1.9 37.2l1.9-17.4 26.1 17.4h-28z"/><path fill="#bdbec1" d="M676.5 160.5l19.8-8.1-1.9 17.4-17.9-9.3z"/><path fill="#e8e9ea" d="M676.5 160.5v-15.9l19.8 7.8-19.8 8.1z"/><path fill="#fff" d="M676.5 144.6l16-12 3.8 19.8-19.8-7.8z"/><path fill="#959699" d="M655.1 132.6h37.4l-16 12-21.4-12z"/><path fill="#e8e9ea" d="M655.1 154v-21.4l21.4 12-21.4 9.4z"/><path fill="#bdbec1" d="M655.1 154l21.4-9.4v15.9l-21.4-6.5z"/><path fill="#fff" d="M655.1 169.8V154l21.4 6.5-21.4 9.3z"/><path fill="#959699" d="M655.1 169.8l21.4-9.3-4.7 9.3h-16.7z"/><path fill="#e8e9ea" d="M671.8 169.8l4.7-9.3 17.9 9.3h-22.6z"/><path fill="#231f20" d="M670.5 163.1l-2.6-8.7H666v8.7h-4.9v-23h7.8a7.8 7.8 0 0 1 3.5.7 5.2 5.2 0 0 1 2.3 2.5 8.8 8.8 0 0 1 .9 3.9 6.6 6.6 0 0 1-2.8 5.9l3.2 10zm-2.6-13.4a4.3 4.3 0 0 0 1.5-.2 1.6 1.6 0 0 0 .7-.7 3 3 0 0 0 .4-1.5 2.7 2.7 0 0 0-.3-1.4 1.4 1.4 0 0 0-.6-.7H666v4.6z"/><path fill="#d1d3d4" d="M668.9 140.7a7.3 7.3 0 0 1 3.3.6 4.7 4.7 0 0 1 2 2.3 8.3 8.3 0 0 1 .8 3.7 6.1 6.1 0 0 1-2.9 5.7l3.1 9.7h-4.3l-2.6-8.7h-2.8v8.7h-3.9v-22h7.3m-3.4 9.5h2.4a4.8 4.8 0 0 0 1.7-.2 2 2 0 0 0 .9-1 3.5 3.5 0 0 0 .4-1.7 3.2 3.2 0 0 0-.4-1.6 1.8 1.8 0 0 0-.9-.9l-1.8-.2h-2.3v5.6m3.4-10.5h-8.3v24h5.9V155h1l2.3 8 .2.7h6.4l-.4-1.3-2.9-9a7.2 7.2 0 0 0 2.7-6.1 9.3 9.3 0 0 0-.9-4.1 5.7 5.7 0 0 0-2.5-2.7 8.1 8.1 0 0 0-3.7-.7zm-2.4 5.9h2.8l.4.4a2.2 2.2 0 0 1 .3 1.1 2.5 2.5 0 0 1-.3 1.2c-.2.4-.4.5-.5.5h-2.7v-3.6z"/><path fill="#231f20" d="M686.8 163.1l-1-4.5h-4.6l-1 4.5h-4.5l5.6-23h5.3l5.5 23zm-2.2-9.6l-1.1-5-1.1 5z"/><path fill="#d1d3d4" d="M686.2 140.7l5.2 22h-4.2l-1-4.5h-5.4l-1 4.5h-3.4l5.3-22h4.5m-4.5 13.3h3.5l-1.8-7.7-1.8 7.7m5.3-14.4h-6.1l-.2.8-5.3 22-.3 1.2h5.5l.2-.8.9-3.7h3.8l.9 3.7.2.8h6.3l-.3-1.2-5.2-22-.2-.8zM683 153l.5-2.2.5 2.2z"/><path fill="#231f20" d="M692.7 163.1v-23h5.6a8.3 8.3 0 0 1 4.9 1.2 10.2 10.2 0 0 1 2.9 3.8 16.6 16.6 0 0 1-.9 14.6 7.1 7.1 0 0 1-6.2 3.4zm5.9-5.1a2.9 2.9 0 0 0 2.7-1.8 10.6 10.6 0 0 0 1-4.7 10.7 10.7 0 0 0-.6-3.5 4.6 4.6 0 0 0-1.3-2.2 2.8 2.8 0 0 0-1.8-.6h-1.1V158z"/><path fill="#d1d3d4" d="M698.3 140.7a7.8 7.8 0 0 1 4.6 1.1 9.7 9.7 0 0 1 2.7 3.6 16.1 16.1 0 0 1-.9 14.1 6.6 6.6 0 0 1-5.8 3.2h-5.7v-22h5.1m-1.3 17.8h1.6a3.4 3.4 0 0 0 3.2-2.1 11 11 0 0 0 1-4.9 11.1 11.1 0 0 0-.6-3.7 5.1 5.1 0 0 0-1.5-2.4 3.3 3.3 0 0 0-2.1-.7H697v13.8m1.3-18.8h-6.1v24h6.8a7.6 7.6 0 0 0 6.7-3.6 17 17 0 0 0 1-15.1 10.7 10.7 0 0 0-3-3.9 8.6 8.6 0 0 0-5.2-1.3zm-.3 6h.6a2.3 2.3 0 0 1 1.5.5 4.2 4.2 0 0 1 1.1 1.9 10.2 10.2 0 0 1 .5 3.4 10.1 10.1 0 0 1-.9 4.5 2.4 2.4 0 0 1-2.3 1.5h-.6v-11.8z"/><path fill="#231f20" d="M715.7 163.5a6.2 6.2 0 0 1-5.6-3.6 17 17 0 0 1-1.9-8.3 16.3 16.3 0 0 1 1.9-8.3 6.3 6.3 0 0 1 5.8-3.5 6.1 6.1 0 0 1 5.7 3.7 17.4 17.4 0 0 1 1.8 8.1 16.9 16.9 0 0 1-1.9 8.3 6.3 6.3 0 0 1-5.8 3.6zm.1-18.4c-1.7 0-2.6 2.2-2.6 6.6s.9 6.6 2.6 6.6 2.5-2.2 2.5-6.6-.8-6.7-2.5-6.7z"/><path fill="#d1d3d4" d="M715.8 140.3a5.7 5.7 0 0 1 5.3 3.4 16.9 16.9 0 0 1 1.8 7.9 16.3 16.3 0 0 1-1.8 8.1 5.8 5.8 0 0 1-5.3 3.3 5.7 5.7 0 0 1-5.2-3.3 16.4 16.4 0 0 1-1.8-8.1 15.8 15.8 0 0 1 1.9-8 5.9 5.9 0 0 1 5.3-3.2m0 18.4q3 0 3-7.1t-3-7.1q-3.1 0-3.1 7.1t3.1 7.1m0-19.4a6.8 6.8 0 0 0-6.2 3.7 16.8 16.8 0 0 0-2 8.5 17.5 17.5 0 0 0 2 8.5 6.7 6.7 0 0 0 6.1 3.8 6.8 6.8 0 0 0 6.2-3.8 17.4 17.4 0 0 0 2-8.5 17.9 17.9 0 0 0-1.9-8.3 6.6 6.6 0 0 0-6.2-4zm0 18.4c-1.8 0-2.1-3.8-2.1-6.1s.3-6.1 2.1-6.1 2 3.8 2 6.1-.3 6.1-2 6.1z"/><path fill="#231f20" d="M726.6 163.5a11.9 11.9 0 0 1-2.8-.4h-.4v-5.3h.6l1.9.2a1.3 1.3 0 0 0 .8-.2 1.5 1.5 0 0 0 .5-.6 4.7 4.7 0 0 0 .2-1.6v-15.4h4.9v16.2a8.9 8.9 0 0 1-1.3 5.3 5.1 5.1 0 0 1-4.4 1.8z"/><path fill="#d1d3d4" d="M731.8 140.7v15.7a8.4 8.4 0 0 1-1.2 5 4.7 4.7 0 0 1-4 1.6 11.4 11.4 0 0 1-2.6-.3v-4.3l2 .3a1.8 1.8 0 0 0 1.2-.3 2 2 0 0 0 .6-.8 5.3 5.3 0 0 0 .2-1.7v-15h3.9m1-1H727v16a4.4 4.4 0 0 1-.1 1.4l-.3.4h-.5l-1.8-.2-1.2-.3v6.3l.8.2a12.4 12.4 0 0 0 2.9.4 5.6 5.6 0 0 0 4.8-2 9.2 9.2 0 0 0 1.4-5.6v-16.8z"/><path fill="#231f20" d="M734.5 163.1v-22.9h12.9v5.1h-8v3.6h6.3v5.1h-6.3v3.8h8v5.3h-12.9z"/><path fill="#d1d3d4" d="M746.9 140.7v4.2H739v4.5h6.2v4.1H739v4.8h7.9v4.3H735v-22h11.9m1-1H734v24h13.9v-6.3H740v-2.8h6.2v-6.1H740v-2.5h7.9v-6.2z"/><path fill="#231f20" d="M760.8 163.1l-2.3-12.3-2.3 12.3h-4.6l-4.5-22.9h5l2.2 12.5 2.3-12.5h4.4l2.4 12.5 2.2-12.5h4.2l-4.3 22.9h-4.7z"/><path fill="#d1d3d4" d="M769.2 140.7l-4.2 22h-3.8l-2.7-14.5-2.6 14.5H752l-4.3-22h4l2.3 13.4v1.4l2.7-14.8h3.6l2.8 14.8.2-1.4 2.4-13.4h3.2m1.2-1h-5.3v.8l-1.7 9.4-1.8-9.4-.2-.8h-5.3l-.2.8-1.7 9.4-1.6-9.3v-.8h-6l.2 1.2 4.3 22 .2.8h5.5v-.8l1.7-9.2 1.7 9.2.2.8h5.5l.2-.8 4.2-22 .2-1.2z"/><path fill="#231f20" d="M776 163.5a7 7 0 0 1-4.7-1.7 8.1 8.1 0 0 1-2.5-4.8v-.4l4.6-1.4v.5c.4 1.8 1.3 2.7 2.9 2.7a2.2 2.2 0 0 0 1.6-.5 1.8 1.8 0 0 0 .5-1.3 1.4 1.4 0 0 0-.4-1.1 5.5 5.5 0 0 0-2.1-.9 9.8 9.8 0 0 1-4.8-2.5 6.9 6.9 0 0 1-1.5-4.7 8.1 8.1 0 0 1 1.7-5.2 5.8 5.8 0 0 1 4.8-2.2c3.5 0 5.8 1.9 6.8 5.5v.4l-4.3 1.9v-.6c-.5-2-1.6-2.2-2.4-2.2s-1.8.7-1.8 1.5a1.6 1.6 0 0 0 .3 1 3.3 3.3 0 0 0 1.7.8 16.3 16.3 0 0 1 3.9 1.4 5.9 5.9 0 0 1 2.2 2.4 7.8 7.8 0 0 1 .9 3.7 8.5 8.5 0 0 1-1.8 5.5 6.7 6.7 0 0 1-5.6 2.2z"/><path fill="#d1d3d4" d="M776.2 140.3q4.9 0 6.3 5.2l-3.3 1.5q-.7-2.6-2.8-2.6t-2.3 2a2.1 2.1 0 0 0 .4 1.3 3.8 3.8 0 0 0 2 1 16 16 0 0 1 3.7 1.4 5.4 5.4 0 0 1 2 2.2 7.2 7.2 0 0 1 .8 3.4 8 8 0 0 1-1.7 5.1 6.2 6.2 0 0 1-5.3 2.2 6.5 6.5 0 0 1-4.4-1.5 7.6 7.6 0 0 1-2.4-4.6l3.6-1.1q.6 3.1 3.4 3.1a2.7 2.7 0 0 0 2-.7 2.3 2.3 0 0 0 .7-1.6 1.9 1.9 0 0 0-.6-1.5 6.1 6.1 0 0 0-2.3-1 9.3 9.3 0 0 1-4.5-2.4 6.4 6.4 0 0 1-1.4-4.4 7.6 7.6 0 0 1 1.6-4.9 5.3 5.3 0 0 1 4.4-2m0-1a6.3 6.3 0 0 0-5.2 2.4 8.6 8.6 0 0 0-1.8 5.6 7.3 7.3 0 0 0 1.6 5.1 10.2 10.2 0 0 0 5 2.7 5.1 5.1 0 0 1 1.9.8.9.9 0 0 1 .3.7 1.3 1.3 0 0 1-.4.9 1.7 1.7 0 0 1-1.3.4c-1 0-2-.3-2.4-2.3l-.2-1.1-1.1.3-3.6 1.1-.9.3.2.9a8.6 8.6 0 0 0 2.7 5.1 7.5 7.5 0 0 0 5 1.8 7.2 7.2 0 0 0 5.9-2.5 9 9 0 0 0 2-5.8 8.3 8.3 0 0 0-.9-3.9 6.4 6.4 0 0 0-2.4-2.6l-2-.9.9-.4 3.3-1.5.8-.3-.2-.8c-1-3.9-3.6-5.9-7.3-5.9zm2.3 8.8l-1.8-.5c-1.2-.3-1.4-.6-1.4-.6a1.1 1.1 0 0 1-.2-.7c0-.5 0-1 1.3-1s1.5.2 1.9 1.9l.2 1z"/><path fill="#231f20" d="M794.6 163.1l-3-8.8-1.8 3.4v5.4H785v-22.9h4.8v8.7l4.4-8.7h4.9l-4.3 8.3 5.2 14.6h-5.4z"/><path fill="#d1d3d4" d="M798.3 140.7l-4 7.8 5 14.1H795l-3.3-9.5-2.3 4.5v5h-3.8v-22h3.8V151l5.2-10.3h3.7m1.6-1h-6l-.3.5-3.3 6.6v-7.1h-5.8v24h5.8v-5.8l1.2-2.2 2.5 7.3.2.7h6.4l-.5-1.3-4.9-13.7 3.8-7.5.7-1.5z"/><path fill="#231f20" d="M800.8 140.2h4.9v22.95h-4.9z"/><path fill="#d1d3d4" d="M805.2 140.7v22h-3.9v-22h3.9m1-1h-5.9v24h5.9v-24z"/><path fill="none" stroke="#e6e7e8" stroke-width="6.68" d="M676.2 301.6c3.4 9.2 10.8 14.5 20.1 14.5s18.2-8.8 18.2-22-7.7-22.3-19.8-22.3c-6.7 0-12.1.9-16.1 2.8l24.2-41.9h-31.1v-19.6h58.4L705 255.9h.1c7 .5 12.8 4.3 17.6 11.8s7.2 16.1 7.2 26c0 12.3-3 22.3-9.3 30.3a28.9 28.9 0 0 1-24.1 11.9c-15.2 0-27.5-9.5-33-24.8zm64-22.5a80 80 0 0 1 3.9-11.6c1.4-3.1 3.6-7.8 6.6-14l.9-1.9c3.8-7.8 10-20.6 18.5-38.4h17.6l-19 38.6a16.3 16.3 0 0 1 5-.7c7.2 0 14 4 20.2 11.8s9.3 17.5 9.3 29.3-3.2 22.3-9.5 30.8-14 12.5-23 12.5-16.5-4.2-22.9-12.5-9.5-18.5-9.5-30.5a50.2 50.2 0 0 1 1.9-13.4zm18.7 29.9c3.2 4.3 7.1 6.6 11.8 6.6s8.6-2.3 11.9-6.8a27.4 27.4 0 0 0 5-16.3 26.5 26.5 0 0 0-5-16.1c-3.3-4.5-7.2-6.7-11.9-6.7s-8.8 2.3-11.9 6.6-4.7 9.9-4.7 16.3 1.6 12.1 4.8 16.4z"/><path fill="#231f20" d="M676.2 301.6c3.4 9.2 10.8 14.5 20.1 14.5s18.2-8.8 18.2-22-7.7-22.3-19.8-22.3c-6.7 0-12.1.9-16.1 2.8l24.2-41.9h-31.1v-19.6h58.4L705 255.9h.1c7 .5 12.8 4.3 17.6 11.8s7.2 16.1 7.2 26c0 12.3-3 22.3-9.3 30.3a28.9 28.9 0 0 1-24.1 11.9c-15.2 0-27.5-9.5-33-24.8zm64-22.5a80 80 0 0 1 3.9-11.6c1.4-3.1 3.6-7.8 6.6-14l.9-1.9c3.8-7.8 10-20.6 18.5-38.4h17.6l-19 38.6a16.3 16.3 0 0 1 5-.7c7.2 0 14 4 20.2 11.8s9.3 17.5 9.3 29.3-3.2 22.3-9.5 30.8-14 12.5-23 12.5-16.5-4.2-22.9-12.5-9.5-18.5-9.5-30.5a50.2 50.2 0 0 1 1.9-13.4zm18.7 29.9c3.2 4.3 7.1 6.6 11.8 6.6s8.6-2.3 11.9-6.8a27.4 27.4 0 0 0 5-16.3 26.5 26.5 0 0 0-5-16.1c-3.3-4.5-7.2-6.7-11.9-6.7s-8.8 2.3-11.9 6.6-4.7 9.9-4.7 16.3 1.6 12.1 4.8 16.4z"/></svg>