<svg id="Layer_1" data-name="Layer 1" xmlns="http://www.w3.org/2000/svg" xmlns:xlink="http://www.w3.org/1999/xlink" width="12.7in" height="6.4in" viewBox="0 0 916.1 458.5"><defs><clipPath id="clip-path"><path d="M192.4,238.7s16.7-7,22-26c2.9-10.4,3.4-32.2,2.9-43-.7-12.5-5.3-49.8-5.3-49.8l70.1-15s-8.7,57,37.8,57,38-57,38-57l69.6,14.8s-4.7,37.5-4.8,50c-.1,10.7-.3,26.8,3.5,42.7s21.3,26.2,21.3,26.2l-5.5,96.7,4.4,122.6H193.9l4-121.8Z" fill="none"/></clipPath><clipPath id="clip-path-2"><path d="M860.6,238.7s-16.7-7-22-26c-2.9-10.4-3.4-32.2-2.9-43,.7-12.5,5.3-49.8,5.3-49.8l-70.1-15s-13.9,11-39.2,10.9-36.6-10.9-36.6-10.9l-69.6,14.8s4.7,37.5,4.8,50c.1,10.7.3,26.8-3.5,42.7s-21.3,26.2-21.3,26.2l5.5,96.7-4.4,122.6H859.1l-4-121.8Z" fill="none"/></clipPath></defs><title>tc-jersey</title><polygon points="68.5 192.3 55.5 200.1 55.5 187.9 68.5 192.3" fill="#231f20"/><path d="M91.7,199.3l-1.5-.7c-7.6-3.3-21.7-6.3-21.7-6.3l2-13.8Z" fill="#231f20"/><path d="M116.1,216.4S101.3,204,91.7,199.3l19.9-20.8Z" fill="#333132"/><path d="M134,188l-1.8,2.1a101,101,0,0,0-16.1,26.3l-4.6-37.9Z" fill="#231f20"/><path d="M153.1,164.2c-5.5,7.7-12,15.5-19,23.7L124.3,151Z" fill="#231f20"/><path d="M173,120.1c-2.3,15.8-9.6,29.8-19.9,44.1l-9.1-59.4Z" fill="#231f20"/><path d="M173.8,108.9a75.4,75.4,0,0,1-.8,11.3l-29-15.3,25.5-22.2A76.1,76.1,0,0,1,173.8,108.9Z" fill="#333132"/><path d="M169.4,82.7l-25.5,22.2-6.7-70.3C153.5,53.1,164,67.6,169.4,82.7Z" fill="#231f20"/><path d="M137.3,34.6,109,34,116.1.8s2.8,13.1,17.7,29.9Z" fill="#231f20"/><path d="M116.1.8,109,34,88.7,19.2l4.2-2C99.2,13.9,116.1.8,116.1.8Z" fill="#333132"/><polygon points="137.3 34.6 114.6 75.4 109 34 137.3 34.6" fill="#333132"/><polygon points="143.9 104.9 114.6 75.4 137.3 34.6 143.9 104.9" fill="#414042"/><polygon points="70.4 178.5 55.5 187.9 55.5 161.6 70.4 178.5" fill="#231f20"/><polygon points="74.2 142.1 55.5 161.6 55.5 116.9 74.2 142.1" fill="#231f20"/><polygon points="83 102.5 55.5 116.9 55.5 78.3 83 102.5" fill="#414042"/><polygon points="74.6 54.2 55.5 78.3 55.5 47.8 74.6 54.2" fill="#231f20"/><path d="M88.7,19.2l-14.1,35L68.8,24.4A80.9,80.9,0,0,0,88.7,19.2Z" fill="#4d4d4f"/><polygon points="68.8 24.4 55.5 47.8 55.5 17.1 68.8 24.4" fill="#231f20"/><polygon points="124.3 151 111.5 178.5 81.8 161.6 124.3 151" fill="#231f20"/><polygon points="74.6 54.2 55.5 47.8 68.8 24.4 74.6 54.2" fill="#333132"/><polygon points="83.4 77.2 55.5 78.3 74.6 54.2 83.4 77.2" fill="#333132"/><polygon points="83.4 77.2 83 102.5 55.5 78.3 83.4 77.2" fill="#4d4d4f"/><polygon points="98.2 121.9 55.5 116.9 83 102.5 98.2 121.9" fill="#231f20"/><polygon points="70.4 178.5 68.5 192.3 55.5 187.9 70.4 178.5" fill="#414042"/><polygon points="81.8 161.6 55.5 161.6 74.2 142.1 81.8 161.6" fill="#4d4d4f"/><polygon points="98.2 121.9 74.2 142.1 55.5 116.9 98.2 121.9" fill="#333132"/><polygon points="111.8 135.6 74.2 142.1 98.2 121.9 111.8 135.6" fill="#414042"/><polygon points="81.8 161.6 70.4 178.5 55.5 161.6 81.8 161.6" fill="#414042"/><polygon points="91.7 199.3 70.4 178.5 81.8 161.6 91.7 199.3" fill="#333132"/><polygon points="109 34 74.6 54.2 88.7 19.2 109 34" fill="#231f20"/><polygon points="114.6 75.4 83.4 77.2 74.6 54.2 114.6 75.4" fill="#414042"/><polygon points="114.6 75.4 83 102.5 83.4 77.2 114.6 75.4" fill="#231f20"/><polygon points="114.6 75.4 98.2 121.9 83 102.5 114.6 75.4" fill="#414042"/><polygon points="143.9 104.9 98.2 121.9 114.6 75.4 143.9 104.9" fill="#4d4d4f"/><polygon points="143.9 104.9 111.8 135.6 98.2 121.9 143.9 104.9" fill="#231f20"/><polygon points="111.8 135.6 81.8 161.6 74.2 142.1 111.8 135.6" fill="#333132"/><polygon points="124.3 151 81.8 161.6 111.8 135.6 124.3 151" fill="#414042"/><polygon points="111.5 178.5 91.7 199.3 81.8 161.6 111.5 178.5" fill="#4d4d4f"/><polygon points="143.9 104.9 124.3 151 111.8 135.6 143.9 104.9" fill="#4d4d4f"/><polygon points="134 188 111.5 178.5 124.3 151 134 188" fill="#333132"/><polygon points="114.6 75.4 74.6 54.2 109 34 114.6 75.4" fill="#4d4d4f"/><polygon points="153.1 164.2 124.3 151 143.9 104.9 153.1 164.2" fill="#333132"/><path id="Leaf_LL" data-name="Leaf LL" d="M96.4,100.7l21.9-20.9-1.7,8a3.1,3.1,0,0,0-.1.6v.4a.8.8,0,0,0,.2.5h.1l.5.3,3.9,1.1-7.7,6.6-.6,1a1.3,1.3,0,0,0-.2.6h0l-16.4,7.1v-5.2" fill="#e13026"/><path id="Leaf_DL" data-name="Leaf DL" d="M105.3,78.5,107,82l.2.2h0l.6.2h.3l10.3-2.7-22,21V89h0" fill="#b62325"/><path id="Leaf_DM" data-name="Leaf DM" d="M112.8,99.1h0l.5.4h1l16.7-2.9-1.8,3.2-.6,1.2a1.9,1.9,0,0,0-.2.8h0a.9.9,0,0,0,.1.4h0l.2.4h0a2.3,2.3,0,0,0,.9.8l.7.3,9.4,4.7-43.4.2v-2.5Z" fill="#b62325"/><path d="M105.3,138.9l-8.9-10.5V118.1l22,19.6-9.5-2.5h-1.1a1.6,1.6,0,0,0-.8.6l-.2.3Z" fill="#b62325"/><path d="M118.3,137.7l-22-19.6v-9.3l43.4-.2L129.2,114l-.4.4h-.1a1.3,1.3,0,0,0-.2.8v.6a2.1,2.1,0,0,0,.2.8l2.1,4-16.2-2.9h-1.1l-.6.3h-.1l-.2.4v.2h0a1.3,1.3,0,0,0,.3.8l.5.6h.1l7.6,6.4-3.5.9-1,.5a.7.7,0,0,0-.2.5v.5a1.5,1.5,0,0,0,0,.4Z" fill="#e13026"/><line x1="95.4" y1="108.8" x2="115.2" y2="108.8" fill="none" stroke="#fff" stroke-miterlimit="10" stroke-width="0.56"/><circle cx="119.6" cy="108.8" r="4.4" fill="none" stroke="#fff" stroke-miterlimit="10" stroke-width="0.56"/><line x1="96.4" y1="94.4" x2="100.5" y2="94.4" fill="none" stroke="#fff" stroke-miterlimit="10" stroke-width="0.56"/><circle cx="105" cy="94.4" r="4.4" fill="none" stroke="#fff" stroke-miterlimit="10" stroke-width="0.56"/><line x1="96.4" y1="123" x2="102.9" y2="123" fill="none" stroke="#fff" stroke-miterlimit="10" stroke-width="0.56"/><circle cx="107.4" cy="123" r="4.4" fill="none" stroke="#fff" stroke-miterlimit="10" stroke-width="0.56"/><path d="M94.9,89.9a2.8,2.8,0,0,1,.7,1.9,2.8,2.8,0,0,1-.7,1.9,2,2,0,0,1-1.6.8,2,2,0,0,1-1.5-.7l-.5.5-.4-.6.5-.5a2.7,2.7,0,0,1-.3-1.4,2.8,2.8,0,0,1,.6-1.9,2.1,2.1,0,0,1,3.2,0Zm-2.7.6a1.8,1.8,0,0,0-.4,1.3,1.7,1.7,0,0,0,.2.8l.7-.7.4.6-.7.7a1.3,1.3,0,0,0,.9.3,1.4,1.4,0,0,0,1.1-.5,1.8,1.8,0,0,0,.5-1.2,1.8,1.8,0,0,0-.5-1.3,1.4,1.4,0,0,0-1.1-.5A1.4,1.4,0,0,0,92.2,90.5Z" fill="#fff"/><path d="M95.5,95.2v.9H92.9a1.1,1.1,0,0,0,0,2.3h2.6v.9H92.8a1.6,1.6,0,0,1-1.3-.6,2.6,2.6,0,0,1,0-2.9,1.6,1.6,0,0,1,1.3-.6Z" fill="#fff"/><path d="M91.1,100.4h4.4v.9H91.1Z" fill="#fff"/><path d="M91.1,102.4h4.4v1.8a2.8,2.8,0,0,1-.6,1.9,2.2,2.2,0,0,1-3.2,0,2.9,2.9,0,0,1-.6-1.9Zm.7.9v.8c0,1.2.6,1.8,1.5,1.8s1.5-.5,1.5-1.8v-.8Z" fill="#fff"/><path d="M91.1,107.7h4.4v1.8a2.8,2.8,0,0,1-.6,1.9,2.2,2.2,0,0,1-3.2,0,2.9,2.9,0,0,1-.6-1.9Zm.7.9v.8c0,1.2.6,1.8,1.5,1.8s1.5-.5,1.5-1.8v-.8Z" fill="#fff"/><path d="M91.1,113h4.4v.9H91.1Z" fill="#fff"/><path d="M91.1,116h3.7v-1.4h.7v3.6h-.7v-1.4H91.1Z" fill="#fff"/><path d="M94.8,123.1l-.5-.6a2,2,0,0,0,.1-2.6,1.5,1.5,0,0,0-2.2,0,2,2,0,0,0,.1,2.7l-.5.6a2.8,2.8,0,0,1-.8-2,2.9,2.9,0,0,1,.6-1.9,2.1,2.1,0,0,1,3.2,0,2.8,2.8,0,0,1,.6,1.9A2.7,2.7,0,0,1,94.8,123.1Z" fill="#fff"/><path d="M91.1,123.9h4.4v.9H93.8v2.4h1.7v.9H91.1v-.9h2v-2.4h-2Z" fill="#fff"/><path d="M89.3,95.1l-.7-.8a2.2,2.2,0,0,0,.8-1.7,2.2,2.2,0,0,0-.7-1.6,2.4,2.4,0,0,0-3.3,0,2.2,2.2,0,0,0-.6,1.6,2.2,2.2,0,0,0,.8,1.8l-.7.8a3.3,3.3,0,0,1-1.2-2.5,3.4,3.4,0,0,1,.9-2.4,3.4,3.4,0,0,1,4.7,0,3.3,3.3,0,0,1,1,2.4A3.2,3.2,0,0,1,89.3,95.1Z" fill="#fff" stroke="#fff" stroke-miterlimit="10" stroke-width="0.12"/><path d="M83.9,95.5l6.4,2.6v1l-6.4,2.7v-1.2l1.3-.5V97.3l-1.3-.5Zm2.2,2.1v2.1l2.6-1.1Z" fill="#fff" stroke="#fff" stroke-miterlimit="10" stroke-width="0.12"/><path d="M83.9,102.7h6.4v1l-4.4,3.4h4.5v1.1H83.9v-.9l4.5-3.5H83.9Z" fill="#fff" stroke="#fff" stroke-miterlimit="10" stroke-width="0.12"/><path d="M83.9,109.1l6.4,2.6v1L84,115.4v-1.2l1.3-.5v-2.8l-1.3-.5Zm2.2,2.1v2.1l2.6-1.1Z" fill="#fff" stroke="#fff" stroke-miterlimit="10" stroke-width="0.12"/><path d="M84,116.3h6.4v2.3a3.3,3.3,0,0,1-.9,2.5,3.5,3.5,0,0,1-4.6,0,3.4,3.4,0,0,1-.9-2.5Zm1,1.1v1.1a2.2,2.2,0,1,0,4.3,0v-1.1Z" fill="#fff" stroke="#fff" stroke-miterlimit="10" stroke-width="0.12"/><path d="M84,122.2l6.4,2.6v1L84,128.4v-1.2l1.3-.5v-2.8l-1.3-.5Zm2.2,2.1v2.1l2.6-1.1Z" fill="#fff" stroke="#fff" stroke-miterlimit="10" stroke-width="0.12"/><path d="M466,108.3c0,27.8,12.5,47.4,39.9,78.2,15,16.8,17.7,29.9,17.7,29.9s16.9-13.1,23.2-16.4c11-5.7,24.2-7.1,24.2-7.1l13.3,7.2V17.1l-13,7.8s-14.1-3-21.7-6.3c-9.4-4.1-26-17.8-26-17.8a101.2,101.2,0,0,1-16.1,26.3C483.5,55.1,466,78,466,108.3Z" fill="#fff" stroke="#231f20" stroke-miterlimit="10" stroke-width="0.96"/><polygon points="571.3 24.9 584.3 17.1 584.3 29.3 571.3 24.9" fill="#fff"/><path d="M548.1,17.9l1.5.7c7.6,3.3,21.7,6.3,21.7,6.3l-2,13.8Z" fill="#fff"/><path d="M523.6.8s14.9,12.4,24.5,17.1L528.3,38.7Z" fill="#bdbec1"/><path d="M505.7,29.2l1.8-2.1A101,101,0,0,0,523.6.8l4.6,37.9Z" fill="#fff"/><path d="M486.7,53c5.5-7.7,12-15.5,19-23.7l9.8,36.9Z" fill="#fff"/><path d="M466.8,97.1c2.3-15.8,9.6-29.8,19.9-44.1l9.1,59.4Z" fill="#e8e9ea"/><path d="M466,108.3a75.4,75.4,0,0,1,.8-11.3l29,15.3-25.5,22.2A76.1,76.1,0,0,1,466,108.3Z" fill="#959699"/><path d="M470.4,134.5l25.5-22.2,6.7,70.3C486.3,164.2,475.8,149.6,470.4,134.5Z" fill="#bdbec1"/><path d="M502.5,182.6l28.3.6-7.1,33.2s-2.8-13.1-17.7-29.9Z" fill="#fff"/><path d="M523.6,216.4l7.1-33.2L551.1,198l-4.2,2C540.6,203.3,523.6,216.4,523.6,216.4Z" fill="#bdbec1"/><polygon points="502.5 182.6 525.2 141.8 530.8 183.2 502.5 182.6" fill="#e8e9ea"/><polygon points="495.9 112.3 525.2 141.8 502.5 182.6 495.9 112.3" fill="#959699"/><polygon points="569.3 38.7 584.3 29.3 584.3 55.6 569.3 38.7" fill="#bdbec1"/><polygon points="565.6 75.1 584.3 55.6 584.3 100.3 565.6 75.1" fill="#fff"/><polygon points="556.8 114.7 584.3 100.3 584.3 138.9 556.8 114.7" fill="#e8e9ea"/><polygon points="565.2 163 584.3 138.9 584.3 169.4 565.2 163" fill="#fff"/><path d="M551.1,198l14.1-35,5.9,29.9A80.9,80.9,0,0,0,551.1,198Z" fill="#fff"/><polygon points="571 192.9 584.3 169.4 584.3 200.1 571 192.9" fill="#fff"/><polygon points="515.5 66.2 528.3 38.7 558 55.6 515.5 66.2" fill="#e8e9ea"/><polygon points="565.2 163 584.3 169.4 571 192.9 565.2 163" fill="#959699"/><polygon points="556.4 140 584.3 138.9 565.2 163 556.4 140" fill="#bdbec1"/><polygon points="556.4 140 556.8 114.7 584.3 138.9 556.4 140" fill="#fff"/><polygon points="541.6 95.3 584.3 100.3 556.8 114.7 541.6 95.3" fill="#bdbec1"/><polygon points="569.3 38.7 571.3 24.9 584.3 29.3 569.3 38.7" fill="#e8e9ea"/><polygon points="558 55.6 584.3 55.6 565.6 75.1 558 55.6" fill="#bdbec1"/><polygon points="541.6 95.3 565.6 75.1 584.3 100.3 541.6 95.3" fill="#e8e9ea"/><polygon points="528 81.6 565.6 75.1 541.6 95.3 528 81.6" fill="#bdbec1"/><polygon points="558 55.6 569.3 38.7 584.3 55.6 558 55.6" fill="#e8e9ea"/><polygon points="548.1 17.9 569.3 38.7 558 55.6 548.1 17.9" fill="#bdbec1"/><polygon points="530.8 183.2 565.2 163 551.1 198 530.8 183.2" fill="#e8e9ea"/><polygon points="525.2 141.8 556.4 140 565.2 163 525.2 141.8" fill="#bdbec1"/><polygon points="525.2 141.8 556.8 114.7 556.4 140 525.2 141.8" fill="#fff"/><polygon points="525.2 141.8 541.6 95.3 556.8 114.7 525.2 141.8" fill="#e8e9ea"/><polygon points="495.9 112.3 541.6 95.3 525.2 141.8 495.9 112.3" fill="#bdbec1"/><polygon points="495.9 112.3 528 81.6 541.6 95.3 495.9 112.3" fill="#fff"/><polygon points="528 81.6 558 55.6 565.6 75.1 528 81.6" fill="#e8e9ea"/><polygon points="515.5 66.2 558 55.6 528 81.6 515.5 66.2" fill="#bdbec1"/><polygon points="528.3 38.7 548.1 17.9 558 55.6 528.3 38.7" fill="#959699"/><polygon points="495.9 112.3 515.5 66.2 528 81.6 495.9 112.3" fill="#959699"/><polygon points="505.7 29.2 528.3 38.7 515.5 66.2 505.7 29.2" fill="#959699"/><polygon points="525.2 141.8 565.2 163 530.8 183.2 525.2 141.8" fill="#959699"/><polygon points="486.7 53 515.5 66.2 495.9 112.3 486.7 53" fill="#bdbec1"/><rect x="522.9" y="102.5" width="28.8" height="16.47" fill="#fff"/><path d="M544.5,108.1c0-1.1,0-2.1,0-3.1a.4.4,0,0,0-.3-.5l-2.6-.9h-.3v2.6l-1.3-.5-6-2.1a5.1,5.1,0,0,0-1.8-.2,1.3,1.3,0,0,0-1.2,1.2c-.1.8-.1,1.6-.2,2.4s0,.7,0,1h-7.8v-.5c0-4.6,0-9.1,0-13.7a14.4,14.4,0,0,1,27.4-6.1,13.6,13.6,0,0,1,1.4,5.8c0,4.7,0,9.4.1,14.2v.3Zm.1-16.7-1.2-.4-9.9-3.6c-1.8-.6-2.8.1-2.8,1.9v9.9l3.2,1.1V98.3l10.6,3.8V98.4l-3.8-1.3c-.2-.1-.4-.2-.4-.5a10.7,10.7,0,0,0,0-1.3V93.6l4.3,1.5Z" fill="#fdc212"/><path d="M522.9,110.8h7.8c0,.4,0,.8,0,1.2a2.3,2.3,0,0,0,1.8,2.5l8.9,3.1a4.1,4.1,0,0,0,1.5.3c1.1,0,1.6-.7,1.6-1.9s0-2.9,0-4.3v-.8h7.3v.4c0,3.6,0,7.2,0,10.8a14.8,14.8,0,0,1-3.4,9.8,14.4,14.4,0,0,1-21.5.7,13.6,13.6,0,0,1-3.8-8,22.6,22.6,0,0,1-.1-2.7c0-3.2,0-6.4,0-9.7,0-.5,0-1,0-1.5m7.8,12.1L534,124v-1.3h.2l5.4,1.9,3,.9a1.5,1.5,0,0,0,1.9-1.6c0-.5,0-1,0-1.5s.1-.8-.1-1.1-.7-.3-1-.4h-.2l-2-.7v1.3H541l-5.5-2-2.9-.9a1.5,1.5,0,0,0-1.8,1.3c-.1.9,0,1.9,0,2.9" fill="#2c803f"/><path d="M541.2,111.8v.9c0,.7-.3.9-1,.7l-3.2-1.1-1.9-.7a1.4,1.4,0,0,1-1.1-1.6c0-.5,0-1,0-1.6s.4-1,1-.8l4.6,1.6c1.8.6,1.7.8,1.7,2.5" fill="#2c803f"/><path d="M544.6,91.4v3.7l-4.3-1.5v1.7a10.7,10.7,0,0,1,0,1.3c0,.4.2.4.4.5l3.8,1.3v3.8l-10.6-3.8v2.1l-3.2-1.1V89.3c0-1.9,1.1-2.6,2.8-1.9l9.9,3.6,1.2.4m-7.9,4.2c0-1.1,0-2.1,0-3.1a.4.4,0,0,0-.2-.3l-1.7-.6c-.6-.2-.9.1-.9.7s0,1.1,0,1.6a.9.9,0,0,0,.6.9l2.2.8" fill="#fffefe"/><path d="M530.8,122.9c0-1-.1-2,0-2.9a1.5,1.5,0,0,1,1.8-1.3l2.9.9,5.5,2h.2v-1.3l2,.7h.2c.3.1.8.2,1,.4s0,.7.1,1.1,0,1,0,1.5a1.5,1.5,0,0,1-1.9,1.6l-3-.9-5.4-1.9H534V124l-3.2-1.1" fill="#fffefe"/><path d="M536.7,95.6l-2.2-.8a.9.9,0,0,1-.6-.9c0-.5,0-1.1,0-1.6s.3-.8.9-.7l1.7.6a.4.4,0,0,1,.2.3c0,1,0,2,0,3.1" fill="#fdc212"/><path d="M192.4,238.7s16.7-7,22-26c2.9-10.4,3.4-32.2,2.9-43-.7-12.5-5.3-49.8-5.3-49.8l70.1-15s-8.7,57,37.8,57,38-57,38-57l69.6,14.8s-4.7,37.5-4.8,50c-.1,10.7-.3,26.8,3.5,42.7s21.3,26.2,21.3,26.2l-5.5,96.7,4.4,122.6H193.9l4-121.8Z" fill="#fff" stroke="#231f20" stroke-miterlimit="10" stroke-width="0.96"/><g clip-path="url(#clip-path)"><polygon points="277.9 443.4 245.8 433 267 412.6 277.9 443.4" fill="#bd2c22"/><polygon points="297.1 397.4 297.1 397.4 277.9 443.4 267 412.6 297.1 397.4" fill="#c13027"/><polygon points="329.2 460 277.9 443.4 317.4 437 329.2 460" fill="#a4271e"/><polygon points="374.5 460 329.2 460 370.8 438.8 374.5 460" fill="#c13027"/><polygon points="370.8 438.8 329.2 460 338.3 420.6 370.8 438.8" fill="#c4402e"/><polygon points="356.6 310.8 349.3 374.3 324.1 268.8 356.6 310.8" fill="#c5422f"/><polygon points="356.6 275 356.6 310.8 324.1 268.8 356.6 275" fill="#c13027"/><polygon points="381.4 210.4 387.3 264.9 356.6 275 381.4 210.4" fill="#c13027"/><polygon points="486 443 456.7 458.7 408.5 460 450.8 450.7 486 443" fill="#c13027"/><polygon points="506.3 457.3 456.7 458.7 486 443 506.3 457.3" fill="#a4271e"/><polygon points="558.9 326 513.7 366.3 499.3 341.5 558.9 326" fill="#bd2c22"/><polygon points="513.7 366.3 494.6 383.3 494.6 383.3 448 363.5 513.7 366.3" fill="#c13027"/><polygon points="499.3 341.5 448 363.5 487 314.7 499.3 341.5" fill="#a4271e"/><polygon points="387.3 264.9 394.6 331.4 356.6 275 387.3 264.9" fill="#c5422f"/><polygon points="267 412.6 232.9 361.4 256.5 374.6 256.5 374.7 267 412.6" fill="#ae312a"/><polygon points="297.1 397.4 267 412.6 256.5 374.7 297.1 397.4" fill="#c02a2c"/><polygon points="338.3 420.6 329.2 460 317.4 437 297.1 397.4 338.3 420.6" fill="#c13027"/><polygon points="408.5 460 374.5 460 370.8 438.8 408.5 460" fill="#ad322b"/><polygon points="444.1 428.3 408.5 460 424.3 421.4 444.1 428.3" fill="#a4271e"/><polygon points="317.4 437 277.9 443.4 297.1 397.4 297.1 397.4 317.4 437" fill="#c5422f"/><polygon points="394.6 331.4 356.6 310.8 356.6 275 394.6 331.4" fill="#bd2c22"/><polygon points="394.6 331.4 374.6 411 349.3 374.3 394.6 331.4" fill="#c13027"/><polygon points="394.6 331.4 349.3 374.3 356.6 310.8 394.6 331.4" fill="#a4271e"/><polygon points="394.6 331.4 404.3 421.5 374.6 411 394.6 331.4" fill="#bd2c22"/><polygon points="404.3 421.5 408.5 460 374.6 411 404.3 421.5" fill="#ae312a"/><polygon points="513.7 366.3 448 363.5 499.3 341.5 513.7 366.3" fill="#c13027"/><polygon points="494.6 383.3 494.5 383.3 424.3 421.4 448 363.5 494.6 383.3" fill="#c5422f"/><polygon points="494.5 383.3 461.7 412.6 461.7 412.6 461.7 412.6 444.1 428.3 424.3 421.4 494.5 383.3" fill="#c13027"/><polygon points="294.4 363.7 297.1 397.4 256.5 374.7 256.5 374.6 269.8 382.1 294.4 363.7" fill="#9a2420"/><polygon points="321.9 369 294.4 363.7 300.7 334.9 321.8 368.6 321.9 369" fill="#580200"/><polygon points="349.3 374.3 321.9 369 321.8 368.6 300.7 334.9 349.3 374.3" fill="#9a2420"/><polygon points="349.3 374.3 338.3 420.6 321.9 369 349.3 374.3" fill="#6d1009"/><polygon points="419.5 268.2 391.1 299.7 381.4 210.4 419.5 268.2" fill="#7e1913"/><polygon points="449.9 255.2 426.7 293.6 419.5 268.2 449.9 255.2" fill="#580200"/><polygon points="449.9 255.2 448 363.5 426.7 293.6 449.9 255.2" fill="#9a2420"/><polygon points="448 363.5 421.3 347.5 421.3 347.5 426.7 293.6 448 363.5" fill="#7e1913"/><polygon points="421.3 347.5 421.3 347.5 404.3 421.5 394.6 331.4 421.3 347.5" fill="#580200"/><polygon points="486 443 450.8 450.7 461.7 412.6 461.7 412.6 486 443" fill="#9a2420"/><polygon points="561.7 398.7 486 443 526.6 401.5 561.7 398.7" fill="#6d1009"/><polygon points="561.7 398.7 526.6 401.5 491.5 404.2 536.6 383.3 561.7 398.7" fill="#7e1913"/><polygon points="558.9 326 536.6 383.3 494.6 383.3 513.7 366.3 558.9 326" fill="#580200"/><polygon points="408.5 460 370.8 438.8 374.6 411 408.5 460" fill="#9a2420"/><polygon points="424.3 421.4 408.5 460 404.3 421.5 424.3 421.4" fill="#9a2420"/><polygon points="461.7 412.6 450.8 450.7 408.5 460 444.1 428.3 461.7 412.6" fill="#660c03"/><polygon points="338.3 420.6 297.1 397.4 297.1 397.4 297.1 397.4 294.4 363.7 338.3 420.6" fill="#7e1913"/><polygon points="294.4 363.7 269.8 382.1 256.5 374.6 232.9 361.4 294.4 363.7" fill="#7e1913"/><polygon points="338.3 420.6 294.4 363.7 321.9 369 338.3 420.6" fill="#9a2420"/><polygon points="374.6 411 370.8 438.8 338.3 420.6 374.6 411" fill="#660c03"/><polygon points="374.6 411 338.3 420.6 349.3 374.3 374.6 411" fill="#881d18"/><polygon points="426.7 293.6 391.1 299.7 419.5 268.2 426.7 293.6" fill="#9a2420"/><polygon points="421.3 347.5 394.6 331.4 391.1 299.7 421.3 347.5" fill="#9a2420"/><polygon points="426.7 293.6 421.3 347.5 391.1 299.7 426.7 293.6" fill="#6d1009"/><polygon points="536.6 383.3 491.5 404.2 494.6 383.3 536.6 383.3" fill="#9a2420"/><polygon points="448 363.5 404.3 421.5 421.3 347.5 448 363.5" fill="#9a2420"/><polygon points="448 363.5 424.3 421.4 404.3 421.5 448 363.5" fill="#660c03"/><polygon points="494.6 383.3 491.5 404.2 486 443 461.7 412.6 461.7 412.6 494.5 383.3 494.6 383.3 494.6 383.3" fill="#580200"/><polygon points="526.6 401.5 486 443 491.5 404.2 526.6 401.5" fill="#9a2420"/><line x1="450.8" y1="450.7" x2="450.6" y2="451.1" fill="#fff"/></g><line x1="277.9" y1="443.4" x2="248.7" y2="458.1" fill="none"/><line x1="245.8" y1="433" x2="245.5" y2="432.8" fill="none"/><line x1="215.2" y1="147.3" x2="215.1" y2="147.3" fill="none"/><line x1="447.4" y1="256.2" x2="446.4" y2="256.7" fill="none"/><polygon points="326.3 458 248.7 458 245.8 433 326.3 458" fill="#fff"/><polygon points="214.6 448 193.9 458 197.9 336.2 212.6 374.3 196.3 384.7 214.6 448" fill="#bcbec0"/><polygon points="219.8 407.4 214.6 448 196.3 384.7 219.8 407.4" fill="#fff"/><polygon points="245.5 432.6 244.8 433.3 214.6 447.8 219.8 407.2 245.5 432.6" fill="#939598"/><polygon points="267 412.6 245.5 432.8 219.8 407.4 267 412.6" fill="#e6e7e8"/><polygon points="267 412.6 219.8 407.4 251.8 389.7 251.8 389.7 267 412.6" fill="#fff"/><polygon points="248.7 458 193.9 458 214.6 448 244.8 433.5 245.8 433 248.7 458" fill="#e6e7e8"/><polygon points="251.8 389.7 219.8 407.4 196.3 384.7 251.8 389.7" fill="#bcbec0"/><polygon points="251.8 389.5 196.3 384.5 212.6 374.1 232.9 361.2 251.8 389.5" fill="#939598"/><polygon points="232.9 361.4 212.6 374.3 197.9 336.2 232.9 361.4" fill="#fff"/><polygon points="247.3 323.8 232.9 361.4 197.9 336.2 225.2 329.3 247.3 323.8" fill="#808285"/><polygon points="266.8 348.1 232.9 361.4 247.3 323.8 266.8 348.1" fill="#bcbec0"/><polygon points="294.4 363.7 232.9 361.4 266.8 348.1 294.4 363.7" fill="#fff"/><polygon points="300.7 334.9 294.4 363.7 266.8 348.1 300.7 334.9" fill="#e6e7e8"/><polygon points="300.7 334.7 266.8 347.9 247.3 323.6 300.7 334.7" fill="#939598"/><polygon points="225.2 329.3 197.9 336.2 196 302.7 225.2 329.3" fill="#bcbec0"/><polygon points="247.3 323.8 225.2 329.3 232.8 272.5 247.3 323.8" fill="#bcbec0"/><polygon points="261.8 298.4 247.3 323.8 232.8 272.5 261.8 298.4" fill="#808285"/><polygon points="300.7 334.9 247.3 323.8 261.8 298.4 300.7 334.9" fill="#fff"/><polygon points="310.6 307 300.7 334.9 261.8 298.4 310.6 307" fill="#bcbec0"/><polygon points="332.7 304.8 325.5 354.9 300.7 334.9 332.7 304.8" fill="#e6e7e8"/><polygon points="349.3 374.3 325.5 354.9 332.7 304.8 349.3 374.3" fill="#fff"/><polygon points="332.7 304.8 300.7 334.9 310.6 307 324.2 268.8 332.7 304.8" fill="#fff"/><polygon points="324.2 268.6 310.6 306.8 261.8 298.2 324.2 268.6" fill="#939598"/><polygon points="324.2 268.8 261.8 298.4 273.9 250.3 324.2 268.8" fill="#bcbec0"/><polygon points="273.9 250.3 261.8 298.4 232.8 272.5 273.9 250.3" fill="#fff"/><polygon points="273.9 250.3 232.8 272.5 192.4 238.7 273.9 250.3" fill="#939598"/><polygon points="273.9 250.3 192.4 238.7 243.5 233.4 273.9 250.3" fill="#414042"/><path d="M243.5,233.4l-51.2,5.3a42.1,42.1,0,0,0,20.8-22.3h0Z" fill="#333132"/><polygon points="286.5 210.9 243.5 233.4 213.2 216.4 286.5 210.9" fill="#414042"/><polygon points="286.5 210.9 273.9 250.3 243.5 233.4 286.5 210.9" fill="#58595b"/><polygon points="312.7 234.3 273.9 250.3 286.5 210.9 312.7 234.3" fill="#939598"/><polygon points="324.2 268.8 273.9 250.3 312.7 234.3 324.2 268.8" fill="#808285"/><polygon points="351.6 218.3 324.2 268.8 312.7 234.3 351.6 218.3" fill="#bcbec0"/><polygon points="356.6 275 324.2 268.8 351.6 218.3 356.6 275" fill="#e6e7e8"/><polygon points="381.4 210.4 356.6 275 351.6 218.3 381.4 210.4" fill="#fff"/><path d="M447.4,238.7l-27.9,29.5-38.1-57.8,66,28.3h0Z" fill="#fff"/><path d="M447.4,238.7l-66-28.3,42.4-11.1a118.8,118.8,0,0,0,2.3,13.2C429.7,227.3,446.4,238,447.4,238.7Z" fill="#e6e7e8"/><polygon points="423.8 199.3 381.4 210.4 372.3 179.1 398 189.2 423.8 199.3" fill="#bcbec0"/><path d="M423.8,199.3,398,189.2l25-27.6-40.3-3.1,44.7-38.8s-4.7,37.5-4.8,50A217.5,217.5,0,0,0,423.8,199.3Z" fill="#939598"/><polygon points="423.1 161.6 398 189.2 372.3 179.1 423.1 161.6" fill="#58595b"/><polygon points="423.1 161.6 372.3 179.1 342.5 155.4 382.8 158.5 423.1 161.6" fill="#414042"/><polygon points="372.3 179.1 327.4 196.3 342.5 155.4 372.3 179.1" fill="#939598"/><polygon points="372.3 179.1 351.6 218.3 327.4 196.3 372.3 179.1" fill="#58595b"/><polygon points="351.6 218.3 312.7 234.3 286.5 210.9 351.6 218.3" fill="#58595b"/><polygon points="351.6 218.3 286.5 210.9 327.4 196.3 351.6 218.3" fill="#bcbec0"/><path d="M327.4,196.3l-40.9,14.5,16.1-52.4h0Z" fill="#414042"/><path d="M302.6,158.5l-16.1,52.4-.2-35.5,16.3-16.9Z" fill="#333132"/><path d="M302.6,158.5l-16.3,16.9-30.6-13.1,46.9-3.8Z" fill="#414042"/><polygon points="286.2 175.4 255.9 194.7 255.6 162.3 286.2 175.4" fill="#333132"/><polygon points="286.5 210.9 255.9 194.7 286.2 175.4 286.5 210.9" fill="#808285"/><polygon points="286.5 210.9 213.2 216.4 213.2 216.4 255.9 194.7 286.5 210.9" fill="#58595b"/><path d="M255.9,194.7l-42.7,21.7c.5-1.2.9-2.4,1.3-3.7,2.9-10.4,3.4-32.2,2.8-43-.3-4.9-1.1-13.6-2.1-22.4l40.5,15-38.2,17.5Z" fill="#414042"/><polygon points="255.9 194.7 217.5 179.8 255.6 162.3 255.9 194.7" fill="#231f20"/><polygon points="255.6 162.3 215.2 147.3 215.2 147.3 247.3 112.3 255.6 162.3" fill="#333132"/><path d="M247.3,112.3l-32.2,35c-1.5-13.6-3.2-27.4-3.2-27.4Z" fill="#231f20"/><polygon points="283.3 132.6 255.6 162.3 247.3 112.3 283.3 132.6" fill="#58595b"/><path d="M283.3,132.6l-36-20.3,34.8-7.5A81.1,81.1,0,0,0,283.3,132.6Z" fill="#231f20"/><path d="M302.5,158.5l-46.9,3.8,27.7-29.7C285.8,142.9,291.2,153.3,302.5,158.5Z" fill="#231f20"/><path d="M342.5,155.4l-15.1,40.9-24.8-37.8a41.1,41.1,0,0,0,17.3,3.4C329.7,161.9,337,159.4,342.5,155.4Z" fill="#58595b"/><polygon points="381.4 210.4 351.6 218.3 372.3 179.1 381.4 210.4" fill="#808285"/><polygon points="427.5 119.7 382.8 158.5 357.9 104.9 427.5 119.7" fill="#414042"/><path d="M382.8,158.5l-40.3-3.1c20.7-14.9,15.4-50.5,15.4-50.5Z" fill="#231f20"/><polygon points="447.4 238.7 446.4 256.7 446.4 256.7 419.5 268.2 447.4 238.7" fill="#bcbec0"/><polygon points="441.9 335.4 446.3 458 326.3 458 245.8 433 244.8 433.5 245.5 432.8 267 412.6 251.8 389.7 251.8 389.7 232.9 361.4 294.4 363.7 300.7 334.9 325.5 354.9 349.3 374.3 332.7 304.8 324.2 268.8 356.6 275 381.4 210.4 419.5 268.2 446.4 256.7 441.9 335.4" fill="none"/><polygon points="209.4 285.6 196 302.7 225.2 329.3 209.4 285.6" fill="gray"/><polygon points="192.4 238.7 196 302.7 209.4 285.6 192.4 238.7" fill="#333132"/><polygon points="192.4 238.7 209.4 285.6 232.8 272.5 192.4 238.7" fill="#58595b"/><polygon points="232.8 272.5 209.4 285.6 225.2 329.3 232.8 272.5" fill="#808285"/><polygon points="626.7 274.1 609.9 315.3 607.1 265.6 626.7 274.1" fill="#414042"/><polygon points="634.3 255.2 607.1 265.6 605.6 238.7 634.3 255.2" fill="#58595b"/><path d="M634.3,255.2l-28.7-16.5a64.9,64.9,0,0,0,12.3-10.5Z" fill="#414042"/><path d="M634.3,255.2l-16.4-27.1c3.9-4.3,7.5-9.7,9-15.7.4-1.6.7-3.2,1-4.8l2.8,20.8Z" fill="#a7a9ac"/><path d="M627.9,207.6c2.7-14.3,2.5-28.2,2.4-37.8l19,21.2Z" fill="#808285"/><path d="M655.1,157.7l-24.8,12.1c-.1-5.9-1.2-17.4-2.3-27.9Z" fill="#414042"/><polygon points="655.1 157.7 655.1 169.7 630.3 169.8 655.1 157.7" fill="#6d6e71"/><path d="M655.1,132.5l-27,9.4c-1.2-11.7-2.5-22.2-2.5-22.2Z" fill="#6d6e71"/><polygon points="666.3 111 655.1 132.5 625.5 119.7 666.3 111" fill="#414042"/><path d="M841.4,219.8l-17.9-9.3,13.1-9.9a75.9,75.9,0,0,0,2,12.1A39.7,39.7,0,0,0,841.4,219.8Z" fill="#231f20"/><path d="M836.6,200.6,819,191.7l16.5-16.5A229.7,229.7,0,0,0,836.6,200.6Z" fill="#231f20"/><polygon points="835.6 175.3 819 191.7 811.1 169.7 835.6 175.3" fill="#414042"/><polygon points="819 191.7 802.6 183.4 811.1 169.7 819 191.7" fill="#6d6e71"/><polygon points="824 160.5 811.1 169.7 811.1 148.4 824 160.5" fill="#6d6e71"/><path d="M838.8,138.5c-1.3,11.2-2.7,24.6-3.1,31.2-.1,1.6-.1,3.5-.2,5.6L824,160.5Z" fill="#231f20"/><path d="M841.1,119.9s-1,8.4-2.2,18.6l-13.9-3-13.9-3Z" fill="#414042"/><polygon points="841.1 119.9 811.1 132.5 816.3 114.6 841.1 119.9" fill="#231f20"/><polygon points="816.3 114.6 805.3 123.6 788.1 114.2 770.9 104.9 816.3 114.6" fill="#231f20"/><polygon points="805.3 123.6 794.4 132.5 788.1 114.2 805.3 123.6" fill="#414042"/><path d="M772.9,132.5l-18.8-19.8c11-3.2,16.9-7.9,16.9-7.9Z" fill="#58595b"/><path d="M772.9,132.5,755,124.1l-17.9-8.4a75.9,75.9,0,0,0,16.9-2.9Z" fill="#231f20"/><polygon points="772.9 132.5 743.8 132.5 755 124.1 772.9 132.5" fill="#6d6e71"/><polygon points="755 124.1 743.8 132.5 737.2 115.6 755 124.1" fill="#414042"/><path d="M737.2,115.6l-11.7,16.9-9.6-18.3a78,78,0,0,0,15.9,1.6Z" fill="#231f20"/><path d="M715.8,114.2l-15.2,13.1-5.5-22.3S701.4,111.2,715.8,114.2Z" fill="#6d6e71"/><polygon points="725.4 132.5 673.4 132.5 700.6 127.2 725.4 132.5" fill="#58595b"/><polygon points="700.6 127.2 666.3 111 695.1 104.9 700.6 127.2" fill="#58595b"/><polygon points="700.6 127.2 673.4 132.5 666.3 111 700.6 127.2" fill="#414042"/><polygon points="860.6 238.7 859.1 266.4 849.1 264.3 860.6 238.7" fill="#58595b"/><polygon points="859.1 266.4 856.3 316.4 847.2 293.3 859.1 266.4" fill="#6d6e71"/><polygon points="706.6 458.1 652.6 458.1 679 442.6 706.6 458.1" fill="#d1d3d4"/><polygon points="706.6 458.1 679 442.6 697.6 431.7 706.6 458.1" fill="#e6e7e8"/><polygon points="768 458.1 706.6 458.1 725.6 415.4 768 458.1" fill="#fff"/><polygon points="859.1 458.1 768 458.1 807.3 413.2 859.1 458.1" fill="#fff"/><polygon points="859.1 458.1 807.3 413.2 857.2 398.9 859.1 458.1" fill="#d1d3d4"/><polygon points="857.2 398.9 807.3 413.2 856.1 365.2 857.2 398.9" fill="#fff"/><polygon points="856.1 365.2 807.3 413.2 800.6 367 856.1 365.2" fill="#e6e7e8"/><polygon points="807.3 413.2 748.2 389.9 800.6 367 807.3 413.2" fill="#d1d3d4"/><polygon points="855.1 336.2 856.1 365.2 810.1 327.2 856.3 316.4 855.1 336.2" fill="#e6e7e8"/><polygon points="856.1 365.2 800.6 367 810.1 327.2 856.1 365.2" fill="#bcbec0"/><polygon points="810.1 327.2 800.6 367 774.3 344.4 810.1 327.2" fill="#fff"/><polygon points="800.6 367 748.2 389.9 774.3 344.4 800.6 367" fill="#e6e7e8"/><polygon points="624.2 363 609 381.1 610.1 362.5 624.2 363" fill="#bcbec0"/><polygon points="650.9 331.3 610.1 362.5 611.1 335.5 650.9 331.3" fill="#a7a9ac"/><polygon points="650.9 331.3 611.1 335.5 609.9 315.3 609.9 315.3 650.9 331.3" fill="#d1d3d4"/><polygon points="650.9 331.3 609.9 315.3 636 295.5 650.9 331.3" fill="#fff"/><polygon points="636 295.5 609.9 315.3 626.7 274.1 636 295.5" fill="#a7a9ac"/><polygon points="647.6 272.1 636 295.5 626.7 274.1 647.6 272.1" fill="#d1d3d4"/><polygon points="647.6 272.1 626.7 274.1 634.3 255.2 647.6 272.1" fill="#808285"/><polygon points="670 201.1 666 233.2 634.3 255.2 670 201.1" fill="#a7a9ac"/><polygon points="687.6 218.2 666 233.2 670 201.1 687.6 218.2" fill="#808285"/><polygon points="687.6 218.2 682.6 245 666 233.2 687.6 218.2" fill="#e6e7e8"/><polygon points="682.6 245 670 257.9 666 233.2 682.6 245" fill="#d1d3d4"/><polygon points="672.2 298.9 650.9 331.3 636 295.5 672.2 298.9" fill="#e6e7e8"/><polygon points="695.4 337.4 650.9 331.3 672.2 299 695.4 337.4" fill="#bcbec0"/><polygon points="695.4 337.2 672.2 298.9 695.3 306.7 695.4 337.2" fill="#e6e7e8"/><polygon points="722.8 342.7 695.3 349.8 695.4 337.2 722.8 342.7" fill="#bcbec0"/><polygon points="856.3 316.4 810.1 327.2 824 296.9 856.3 316.4" fill="#d1d3d4"/><polygon points="856.3 316.4 824 296.9 834.6 261.2 847.2 293.3 856.3 316.4" fill="#808285"/><polygon points="834.6 261.2 824 296.9 797.5 267.6 834.6 261.2" fill="#d1d3d4"/><polygon points="824 296.9 783 299 797.5 267.6 824 296.9" fill="#fff"/><polygon points="834.6 261.2 797.5 267.6 822.6 243.5 834.6 261.2" fill="#a7a9ac"/><polygon points="822.6 243.5 794.6 245.6 805.6 218.2 815.8 233.2 822.6 243.5" fill="#d1d3d4"/><polygon points="805.6 218.2 794.6 245.6 773.7 229.3 805.6 218.2" fill="#a7a9ac"/><polygon points="805.6 218.2 773.7 229.3 775 190.7 805.6 218.2" fill="#808285"/><polygon points="775 190.7 745.5 217 745.5 189.6 775 190.7" fill="#bcbec0"/><polygon points="745.5 217 714.2 219.1 720.5 188.7 745.5 217" fill="#a7a9ac"/><polygon points="708.1 236.7 700.9 276.2 682.6 245 708.1 236.7" fill="#a7a9ac"/><polygon points="700.9 276.2 695.3 306.7 672.2 298.9 700.9 276.2" fill="#bcbec0"/><polygon points="717.2 314 695.3 306.7 700.9 276.2 717.2 314" fill="#d1d3d4"/><polygon points="797.5 267.6 783 299 751.3 273.8 797.5 267.6" fill="#e6e7e8"/><polygon points="794.6 245.6 765.8 243.5 773.7 229.3 794.6 245.6" fill="#6d6e71"/><polygon points="797.5 267.6 765.8 243.5 794.6 245.6 797.5 267.6" fill="#e6e7e8"/><path d="M860.6,238.7,832,231.6l9.4-11.8A42.2,42.2,0,0,0,860.6,238.7Z" fill="#58595b"/><polygon points="670 201.1 627.9 207.6 627.9 207.6 649.3 191 670 201.1" fill="#58595b"/><polygon points="695.4 194.9 687.7 218.2 670.1 201.1 695.4 194.9" fill="#d1d3d4"/><line x1="627.9" y1="207.6" x2="627.9" y2="207.6" fill="none"/><polygon points="670 201.1 634.3 255.2 630.7 228.5 670 201.1" fill="#808285"/><polygon points="695.3 194.9 670 201.1 675 178.2 695.3 194.9" fill="#6d6e71"/><polygon points="720.5 188.7 695.3 194.9 675 178.2 720.5 188.7" fill="#414042"/><polygon points="859.1 266.4 859.1 266.4 847.2 293.3 834.6 261.2 849.1 264.3 859.1 266.4" fill="#a7a9ac"/><polygon points="832 231.6 815.8 233.4 805.6 218.2 832 231.6" fill="#808285"/><polygon points="832 231.6 822.6 243.6 815.8 233.4 832 231.6" fill="#414042"/><polygon points="834.6 261.2 822.6 243.5 832 231.6 834.6 261.2" fill="#58595b"/><polygon points="805.6 218.2 775 190.7 801.7 201.1 805.6 218.2" fill="#414042"/><polygon points="748.2 169.7 745.5 189.6 720.5 188.7 748.2 169.7" fill="#414042"/><polygon points="775 190.7 745.5 189.6 748.2 169.7 775 190.7" fill="#6d6e71"/><polygon points="675 178.2 670 201.1 649.3 191 675 178.2" fill="#959699"/><polygon points="673.4 132.5 655.1 132.5 666.3 111 673.4 132.5" fill="#58595b"/><line x1="627.9" y1="207.6" x2="627.9" y2="207.6" fill="none"/><path d="M670,201.1l-39.3,27.3-2.8-20.8h0Z" fill="#414042"/><line x1="627.9" y1="207.6" x2="627.9" y2="207.6" fill="none"/><polygon points="634.3 255.2 626.7 274.1 607.1 265.6 634.3 255.2" fill="#6d6e71"/><rect x="655.1" y="132.5" width="156" height="37.2" fill="#e6e7e8"/><polygon points="655.1 132.5 655.1 157.7 628.1 141.9 655.1 132.5" fill="#58595b"/><polygon points="675 178.2 649.3 191 655.1 169.7 675 178.2" fill="#414042"/><polygon points="655.1 169.7 649.3 191 630.3 169.8 655.1 169.7" fill="#58595b"/><polygon points="720.5 188.7 675 178.2 698.1 169.7 720.5 188.7" fill="#6d6e71"/><polygon points="748.2 169.7 720.5 188.7 698.1 169.7 748.2 169.7" fill="#808285"/><polygon points="802.6 183.4 788.4 187.2 775 190.7 773.7 169.7 802.6 183.4" fill="#6d6e71"/><polygon points="836.6 200.6 823.5 210.5 819 191.7 836.6 200.6" fill="#414042"/><polygon points="743.8 132.5 725.4 132.5 737.2 115.6 743.8 132.5" fill="#58595b"/><polygon points="725.4 132.5 700.6 127.2 715.8 114.2 715.8 114.2 725.4 132.5" fill="#414042"/><polygon points="788.1 114.2 772.9 132.5 770.9 104.9 788.1 114.2" fill="#414042"/><polygon points="816.3 114.6 811.1 132.5 794.4 132.5 805.3 123.6 816.3 114.6" fill="#58595b"/><polygon points="794.4 132.5 772.9 132.5 788.1 114.2 794.4 132.5" fill="#231f20"/><polygon points="811.1 169.7 802.6 183.4 773.7 169.7 811.1 169.7" fill="#58595b"/><polygon points="819 191.7 775 190.7 802.6 183.4 819 191.7" fill="#414042"/><polygon points="698.1 169.7 675 178.2 655.1 169.7 698.1 169.7" fill="#808285"/><polygon points="775 190.7 748.2 169.7 773.7 169.7 775 190.7" fill="#808285"/><polygon points="838.8 138.5 824 160.5 825 135.5 838.8 138.5" fill="#231f20"/><polygon points="825 135.5 811.1 148.4 811.1 132.5 825 135.5" fill="#58595b"/><polygon points="835.6 175.3 835.6 175.3 811.1 169.7 824 160.5 835.6 175.3" fill="#58595b"/><polygon points="825 135.5 824 160.5 811.1 148.4 825 135.5" fill="#414042"/><polygon points="860.6 238.7 849.1 264.3 834.6 261.2 860.6 238.7" fill="#414042"/><polygon points="819 191.7 801.7 201.1 775 190.7 819 191.7" fill="#58595b"/><polygon points="823.5 210.5 805.6 218.2 819 191.7 823.5 210.5" fill="#a7a9ac"/><polygon points="841.4 219.8 841.4 219.8 825.1 219.1 805.6 218.2 823.5 210.5 841.4 219.8" fill="#58595b"/><polygon points="841.4 219.8 832 231.6 805.6 218.2 841.4 219.8 841.4 219.8" fill="#a7a9ac"/><polygon points="860.6 238.7 834.6 261.2 832 231.6 860.6 238.7" fill="#6d6e71"/><polygon points="670 257.9 634.3 255.2 666 233.2 670 257.9" fill="#58595b"/><polygon points="720.5 188.7 687.6 218.2 695.3 194.9 720.5 188.7" fill="#a7a9ac"/><polygon points="745.5 189.6 745.5 217 720.5 188.7 745.5 189.6" fill="#6d6e71"/><polygon points="670 257.9 647.6 272.1 634.3 255.2 670 257.9" fill="#bcbec0"/><polygon points="708.1 236.7 682.6 245 687.6 218.2 708.1 236.7" fill="#58595b"/><polygon points="720.6 188.7 714.3 219.1 687.7 218.2 720.6 188.7" fill="#d1d3d4"/><polygon points="714.2 219.1 708.1 236.7 687.6 218.2 714.2 219.1" fill="#bcbec0"/><polygon points="775 190.7 773.7 229.3 745.5 217 775 190.7" fill="#a7a9ac"/><polygon points="745.5 217 708.8 236.4 708.1 236.7 714.2 219.1 745.5 217" fill="#6d6e71"/><polygon points="751.3 273.8 726.3 259 745.5 242.1 751.3 273.8" fill="#a7a9ac"/><polygon points="773.7 229.3 765.8 243.5 745.5 242.1 773.7 229.3" fill="#bcbec0"/><polygon points="745.5 217 745.5 242.1 708.8 236.4 745.5 217" fill="#e6e7e8"/><polygon points="773.7 229.3 745.5 242.1 745.5 217 773.7 229.3" fill="#d1d3d4"/><polygon points="765.8 243.5 751.3 273.8 745.5 242.1 765.8 243.5" fill="#d1d3d4"/><polygon points="700.9 276.2 670 257.9 682.6 245 700.9 276.2" fill="#bcbec0"/><polygon points="700.9 276.2 672.2 298.9 670 257.9 700.9 276.2" fill="#a7a9ac"/><polygon points="672.2 298.9 647.6 272.1 670 257.9 672.2 298.9" fill="#e6e7e8"/><polygon points="672.2 298.9 636 295.5 647.6 272.1 672.2 298.9" fill="#fff"/><polygon points="725.6 415.4 706.6 458.1 697.6 431.7 725.6 415.4" fill="#d1d3d4"/><polygon points="807.3 413.2 768 458.1 725.6 415.4 807.3 413.2" fill="#d1d3d4"/><polygon points="807.3 413.2 725.6 415.4 748.2 389.9 807.3 413.2" fill="#e6e7e8"/><polygon points="748.2 389.9 725.6 415.4 700.5 400 748.2 389.9" fill="#fff"/><polygon points="822.6 243.5 797.5 267.6 794.6 245.6 822.6 243.5" fill="#808285"/><polygon points="745.5 242.1 726.3 259 708.1 236.7 708.8 236.4 745.5 242.1" fill="#d1d3d4"/><polygon points="797.5 267.6 751.3 273.8 765.8 243.5 797.5 267.6" fill="#d1d3d4"/><polygon points="726.3 259 700.9 276.2 708.1 236.7 726.3 259" fill="#e6e7e8"/><polygon points="746.7 306.9 717.2 314 700.9 276.2 746.7 306.9" fill="#fff"/><polygon points="746.7 306.9 700.9 276.2 726.3 259 746.7 306.9" fill="#d1d3d4"/><polygon points="751.3 273.8 746.7 306.9 726.3 259 751.3 273.8" fill="#bcbec0"/><polygon points="783 299 746.7 306.9 751.3 273.8 783 299" fill="#a7a9ac"/><polygon points="824 296.9 810.1 327.2 783 299 824 296.9" fill="#bcbec0"/><polygon points="695.4 337.2 663.2 358.1 650.9 331.3 695.4 337.2" fill="#f1f2f2"/><polygon points="783 299 774.3 344.4 746.7 306.9 783 299" fill="#fff"/><polygon points="717.2 314 695.4 337.2 695.3 306.7 717.2 314" fill="#d1d3d4"/><polygon points="722.8 342.7 695.4 337.2 717.2 314 722.8 342.7" fill="#fff"/><polygon points="746.7 306.9 722.8 342.7 717.2 314 746.7 306.9" fill="#bcbec0"/><polygon points="774.3 344.4 722.8 342.7 746.7 306.9 774.3 344.4" fill="#e6e7e8"/><polygon points="810.1 327.2 774.3 344.4 783 299 810.1 327.2" fill="#bcbec0"/><polygon points="650.9 331.3 624.2 363 610.1 362.5 650.9 331.3" fill="#d1d3d4"/><polygon points="748.2 389.9 709.7 376.2 722.8 342.7 748.2 389.9" fill="#d1d3d4"/><polygon points="748.2 389.9 700.5 400 709.7 376.2 748.2 389.9" fill="#a7a9ac"/><polygon points="695.4 337.2 695.3 349.8 663.2 358.1 695.4 337.2" fill="#fff"/><polygon points="774.3 344.4 748.2 389.9 722.8 342.7 774.3 344.4" fill="#a7a9ac"/><polygon points="819 191.7 805.6 218.2 801.7 201.1 819 191.7" fill="#6d6e71"/><g clip-path="url(#clip-path-2)"><polygon points="722.8 342.7 677.6 382.9 663.2 358.1 722.8 342.7" fill="#bd2c22"/><polygon points="677.6 382.9 658.4 400 658.4 400 609 381.1 677.6 382.9" fill="#c13027"/><polygon points="663.2 358.1 609 381.1 650.9 331.3 663.2 358.1" fill="#a4271e"/><polygon points="608 445 572.4 476.7 588.2 438.1 608 445" fill="#a4271e"/><polygon points="677.6 382.9 609 381.1 663.2 358.1 677.6 382.9" fill="#c5422f"/><polygon points="658.4 400 658.4 400 588.2 438.1 609 381.1 658.4 400" fill="#c5422f"/><polygon points="658.4 400 625.6 429.2 625.6 429.3 625.6 429.3 608 445 588.2 438.1 658.4 400" fill="#c13027"/><polygon points="649.8 459.6 614.6 467.4 625.6 429.3 625.6 429.3 649.8 459.6" fill="#9a2420"/><polygon points="725.6 415.4 649.8 459.6 690.5 418.1 725.6 415.4" fill="#6d1009"/><polygon points="725.6 415.4 690.5 418.1 655.4 420.9 700.5 400 725.6 415.4" fill="#7e1913"/><polygon points="722.8 342.7 700.5 400 658.4 400 677.6 382.9 722.8 342.7" fill="#580200"/><polygon points="625.6 429.3 614.6 467.4 572.4 476.7 608 445 625.6 429.3" fill="#660c03"/><polygon points="700.5 400 655.4 420.9 658.4 400 700.5 400" fill="#9a2420"/><polygon points="658.4 400 655.4 420.9 649.8 459.6 625.6 429.3 625.6 429.2 658.4 400 658.4 400 658.4 400" fill="#580200"/><polygon points="690.5 418.1 649.8 459.6 655.4 420.9 690.5 418.1" fill="#9a2420"/></g><polygon points="678.8 148.4 655.1 157.7 655.1 132.5 678.8 148.4" fill="#414042"/><polygon points="678.8 148.4 655.1 132.5 673.5 132.5 678.8 148.4" fill="#6d6e71"/><polygon points="678.8 148.4 675 161.3 655.1 157.7 678.8 148.4" fill="#58595b"/><polygon points="675 161.3 655.1 169.7 655.1 157.7 675 161.3" fill="#959699"/><polygon points="698.1 169.7 655.1 169.7 675 161.3 698.1 169.7" fill="#58595b"/><polygon points="698.1 169.7 675 161.3 678.8 148.4 698.1 169.7" fill="#6d6e71"/><polygon points="708.1 151.5 698.1 169.7 678.8 148.4 708.1 151.5" fill="#58595b"/><polygon points="697.8 140.9 678.8 148.4 673.5 132.5 697.8 140.9" fill="#58595b"/><polygon points="725.4 132.5 697.8 140.9 673.5 132.5 725.4 132.5" fill="#959699"/><polygon points="708.1 151.5 678.8 148.4 697.8 140.9 708.1 151.5" fill="#959699"/><polygon points="725.4 132.5 708.1 151.5 697.8 140.9 725.4 132.5" fill="#6d6e71"/><polygon points="723.2 162.9 698.1 169.7 708.1 151.5 723.2 162.9" fill="#6d6e71"/><polygon points="748.2 169.7 698.1 169.7 723.2 162.9 748.2 169.7" fill="#414042"/><polygon points="743.8 150.9 723.2 162.9 708.1 151.5 743.8 150.9" fill="#58595b"/><polygon points="748.2 169.7 723.2 162.9 743.8 150.9 748.2 169.7" fill="#6d6e71"/><polygon points="743.8 150.9 708.1 151.5 725.4 132.5 743.8 150.9" fill="#808285"/><polygon points="743.8 132.5 743.8 150.9 725.4 132.5 743.8 132.5" fill="#414042"/><polygon points="769.9 149.9 743.8 150.9 743.8 132.5 769.9 149.9" fill="#6d6e71"/><polygon points="773.7 169.7 748.2 169.7 743.8 150.9 773.7 169.7" fill="#58595b"/><polygon points="773.7 169.7 743.8 150.9 769.9 149.9 773.7 169.7" fill="#414042"/><polygon points="771.8 132.5 769.9 149.9 743.8 132.5 771.8 132.5" fill="#58595b"/><polygon points="789.7 141.9 769.9 149.9 771.8 132.5 789.7 141.9" fill="#414042"/><polygon points="789.7 141.9 789.7 157.7 769.9 149.9 789.7 141.9" fill="#808285"/><polygon points="789.7 157.7 773.7 169.7 769.9 149.9 789.7 157.7" fill="#58595b"/><polygon points="811.1 169.7 773.7 169.7 789.7 157.7 811.1 169.7" fill="#6d6e71"/><polygon points="811.1 148.4 811.1 169.7 789.7 157.7 811.1 148.4" fill="#414042"/><polygon points="811.1 148.4 789.7 157.7 789.7 141.9 811.1 148.4" fill="#6d6e71"/><polygon points="811.1 132.5 811.1 148.4 789.7 141.9 811.1 132.5" fill="#231f20"/><polygon points="811.1 132.5 789.7 141.9 794.4 132.5 811.1 132.5" fill="#414042"/><polygon points="794.4 132.5 789.7 141.9 771.8 132.5 794.4 132.5" fill="#58595b"/><polygon points="787.4 154 811.1 144.6 811.1 169.8 787.4 154" fill="#fff"/><polygon points="787.4 154 811.1 169.8 792.8 169.8 787.4 154" fill="#bdbec1"/><polygon points="787.4 154 791.2 141.1 811.1 144.6 787.4 154" fill="#bdbec1"/><polygon points="791.2 141.1 811.1 132.6 811.1 144.6 791.2 141.1" fill="#e8e9ea"/><polygon points="768.1 132.6 811.1 132.6 791.2 141.1 768.1 132.6" fill="#bdbec1"/><polygon points="768.1 132.6 791.2 141.1 787.4 154 768.1 132.6" fill="#fff"/><polygon points="758.1 150.8 768.1 132.6 787.4 154 758.1 150.8" fill="#bdbec1"/><polygon points="768.4 161.4 787.4 154 792.8 169.8 768.4 161.4" fill="#e8e9ea"/><polygon points="740.8 169.8 768.4 161.4 792.8 169.8 740.8 169.8" fill="#959699"/><polygon points="758.1 150.8 787.4 154 768.4 161.4 758.1 150.8" fill="#959699"/><polygon points="740.8 169.8 758.1 150.8 768.4 161.4 740.8 169.8" fill="#bdbec1"/><polygon points="743 139.4 768.1 132.6 758.1 150.8 743 139.4" fill="#fff"/><polygon points="718 132.6 768.1 132.6 743 139.4 718 132.6" fill="#e8e9ea"/><polygon points="722.4 151.4 743 139.4 758.1 150.8 722.4 151.4" fill="#bdbec1"/><polygon points="718 132.6 743 139.4 722.4 151.4 718 132.6" fill="#959699"/><polygon points="722.4 151.4 758.1 150.8 740.8 169.8 722.4 151.4" fill="#e8e9ea"/><polygon points="722.4 169.8 722.4 151.4 740.8 169.8 722.4 169.8" fill="#fff"/><polygon points="696.3 152.4 722.4 151.4 722.4 169.8 696.3 152.4" fill="#e8e9ea"/><polygon points="692.5 132.6 718 132.6 722.4 151.4 692.5 132.6" fill="#bdbec1"/><polygon points="692.5 132.6 722.4 151.4 696.3 152.4 692.5 132.6" fill="#959699"/><polygon points="694.4 169.8 696.3 152.4 722.4 169.8 694.4 169.8" fill="#959699"/><polygon points="676.5 160.5 696.3 152.4 694.4 169.8 676.5 160.5" fill="#bdbec1"/><polygon points="676.5 160.5 676.5 144.6 696.3 152.4 676.5 160.5" fill="#e8e9ea"/><polygon points="676.5 144.6 692.5 132.6 696.3 152.4 676.5 144.6" fill="#fff"/><polygon points="655.1 132.6 692.5 132.6 676.5 144.6 655.1 132.6" fill="#959699"/><polygon points="655.1 154 655.1 132.6 676.5 144.6 655.1 154" fill="#e8e9ea"/><polygon points="655.1 154 676.5 144.6 676.5 160.5 655.1 154" fill="#bdbec1"/><polygon points="655.1 169.8 655.1 154 676.5 160.5 655.1 169.8" fill="#fff"/><polygon points="655.1 169.8 676.5 160.5 671.8 169.8 655.1 169.8" fill="#959699"/><polygon points="671.8 169.8 676.5 160.5 694.4 169.8 671.8 169.8" fill="#e8e9ea"/><path d="M670.5,163.1l-2.6-8.7H666v8.7h-4.9v-23h7.8a7.8,7.8,0,0,1,3.5.7,5.2,5.2,0,0,1,2.3,2.5,8.8,8.8,0,0,1,.9,3.9,6.6,6.6,0,0,1-2.8,5.9l3.2,10Zm-2.6-13.4a4.3,4.3,0,0,0,1.5-.2,1.6,1.6,0,0,0,.7-.7,3,3,0,0,0,.4-1.5,2.7,2.7,0,0,0-.3-1.4,1.4,1.4,0,0,0-.6-.7H666v4.6Z" fill="#231f20"/><path d="M668.9,140.7a7.3,7.3,0,0,1,3.3.6,4.7,4.7,0,0,1,2,2.3,8.3,8.3,0,0,1,.8,3.7,6.1,6.1,0,0,1-2.9,5.7l3.1,9.7h-4.3l-2.6-8.7h-2.8v8.7h-3.9v-22h7.3m-3.4,9.5h2.4a4.8,4.8,0,0,0,1.7-.2,2,2,0,0,0,.9-1,3.5,3.5,0,0,0,.4-1.7,3.2,3.2,0,0,0-.4-1.6,1.8,1.8,0,0,0-.9-.9l-1.8-.2h-2.3v5.6m3.4-10.5h-8.3v24h5.9v-8.7h1l2.3,8,.2.7h6.4l-.4-1.3-2.9-9a7.2,7.2,0,0,0,2.7-6.1,9.3,9.3,0,0,0-.9-4.1,5.7,5.7,0,0,0-2.5-2.7,8.1,8.1,0,0,0-3.7-.7Zm-2.4,5.9h2.8s.1.1.4.4a2.2,2.2,0,0,1,.3,1.1,2.5,2.5,0,0,1-.3,1.2c-.2.4-.4.5-.5.5h-2.7v-3.6Z" fill="#d1d3d4"/><path d="M686.8,163.1l-1-4.5h-4.6l-1,4.5h-4.5l5.6-23h5.3l5.5,23Zm-2.2-9.6-1.1-5-1.1,5Z" fill="#231f20"/><path d="M686.2,140.7l5.2,22h-4.2l-1-4.5h-5.4l-1,4.5h-3.4l5.3-22h4.5M681.7,154h3.5l-1.8-7.7-1.8,7.7m5.3-14.4h-6.1l-.2.8-5.3,22-.3,1.2h5.5l.2-.8.9-3.7h3.8l.9,3.7.2.8h6.3l-.3-1.2-5.2-22-.2-.8ZM683,153l.5-2.2.5,2.2Z" fill="#d1d3d4"/><path d="M692.7,163.1v-23h5.6a8.3,8.3,0,0,1,4.9,1.2,10.2,10.2,0,0,1,2.9,3.8,16.6,16.6,0,0,1-.9,14.6,7.1,7.1,0,0,1-6.2,3.4Zm5.9-5.1a2.9,2.9,0,0,0,2.7-1.8,10.6,10.6,0,0,0,1-4.7,10.7,10.7,0,0,0-.6-3.5,4.6,4.6,0,0,0-1.3-2.2,2.8,2.8,0,0,0-1.8-.6h-1.1V158Z" fill="#231f20"/><path d="M698.3,140.7a7.8,7.8,0,0,1,4.6,1.1,9.7,9.7,0,0,1,2.7,3.6,16.1,16.1,0,0,1-.9,14.1,6.6,6.6,0,0,1-5.8,3.2h-5.7v-22h5.1m-1.3,17.8h1.6a3.4,3.4,0,0,0,3.2-2.1,11,11,0,0,0,1-4.9,11.1,11.1,0,0,0-.6-3.7,5.1,5.1,0,0,0-1.5-2.4,3.3,3.3,0,0,0-2.1-.7h-1.6v13.8m1.3-18.8h-6.1v24H699a7.6,7.6,0,0,0,6.7-3.6,17,17,0,0,0,1-15.1,10.7,10.7,0,0,0-3-3.9,8.6,8.6,0,0,0-5.2-1.3Zm-.3,6h.6a2.3,2.3,0,0,1,1.5.5,4.2,4.2,0,0,1,1.1,1.9,10.2,10.2,0,0,1,.5,3.4,10.1,10.1,0,0,1-.9,4.5,2.4,2.4,0,0,1-2.3,1.5h-.6V145.7Z" fill="#d1d3d4"/><path d="M715.7,163.5a6.2,6.2,0,0,1-5.6-3.6,17,17,0,0,1-1.9-8.3,16.3,16.3,0,0,1,1.9-8.3,6.3,6.3,0,0,1,5.8-3.5,6.1,6.1,0,0,1,5.7,3.7,17.4,17.4,0,0,1,1.8,8.1,16.9,16.9,0,0,1-1.9,8.3A6.3,6.3,0,0,1,715.7,163.5Zm.1-18.4c-1.7,0-2.6,2.2-2.6,6.6s.9,6.6,2.6,6.6,2.5-2.2,2.5-6.6S717.5,145,715.8,145Z" fill="#231f20"/><path d="M715.8,140.3a5.7,5.7,0,0,1,5.3,3.4,16.9,16.9,0,0,1,1.8,7.9,16.3,16.3,0,0,1-1.8,8.1,5.8,5.8,0,0,1-5.3,3.3,5.7,5.7,0,0,1-5.2-3.3,16.4,16.4,0,0,1-1.8-8.1,15.8,15.8,0,0,1,1.9-8,5.9,5.9,0,0,1,5.3-3.2m0,18.4q3,0,3-7.1t-3-7.1q-3.1,0-3.1,7.1t3.1,7.1m0-19.4a6.8,6.8,0,0,0-6.2,3.7,16.8,16.8,0,0,0-2,8.5,17.5,17.5,0,0,0,2,8.5,6.7,6.7,0,0,0,6.1,3.8,6.8,6.8,0,0,0,6.2-3.8,17.4,17.4,0,0,0,2-8.5,17.9,17.9,0,0,0-1.9-8.3,6.6,6.6,0,0,0-6.2-4Zm0,18.4c-1.8,0-2.1-3.8-2.1-6.1s.3-6.1,2.1-6.1,2,3.8,2,6.1-.3,6.1-2,6.1Z" fill="#d1d3d4"/><path d="M726.6,163.5a11.9,11.9,0,0,1-2.8-.4h-.4v-5.3h.6l1.9.2a1.3,1.3,0,0,0,.8-.2,1.5,1.5,0,0,0,.5-.6,4.7,4.7,0,0,0,.2-1.6V140.2h4.9v16.2a8.9,8.9,0,0,1-1.3,5.3A5.1,5.1,0,0,1,726.6,163.5Z" fill="#231f20"/><path d="M731.8,140.7v15.7a8.4,8.4,0,0,1-1.2,5,4.7,4.7,0,0,1-4,1.6,11.4,11.4,0,0,1-2.6-.3v-4.3l2,.3a1.8,1.8,0,0,0,1.2-.3,2,2,0,0,0,.6-.8,5.3,5.3,0,0,0,.2-1.7v-15h3.9m1-1h-5.9v16a4.4,4.4,0,0,1-.1,1.4l-.3.4h-.5l-1.8-.2-1.2-.3v6.3l.8.2a12.4,12.4,0,0,0,2.9.4,5.6,5.6,0,0,0,4.8-2,9.2,9.2,0,0,0,1.4-5.6V139.7Z" fill="#d1d3d4"/><polygon points="734.5 163.1 734.5 140.2 747.4 140.2 747.4 145.3 739.4 145.3 739.4 148.9 745.7 148.9 745.7 154 739.4 154 739.4 157.8 747.4 157.8 747.4 163.1 734.5 163.1" fill="#231f20"/><path d="M746.9,140.7v4.2h-7.9v4.5h6.2v4.1h-6.2v4.8h7.9v4.3H735v-22h11.9m1-1H734v24h13.9v-6.3h-7.9v-2.8h6.2v-6.1h-6.2v-2.5h7.9v-6.2Z" fill="#d1d3d4"/><polygon points="760.8 163.1 758.5 150.8 756.2 163.1 751.6 163.1 747.1 140.2 752.1 140.2 754.3 152.7 756.6 140.2 761 140.2 763.4 152.7 765.6 140.2 769.8 140.2 765.5 163.1 760.8 163.1" fill="#231f20"/><path d="M769.2,140.7l-4.2,22h-3.8l-2.7-14.5-2.6,14.5H752l-4.3-22h4l2.3,13.4v1.4l2.7-14.8h3.6l2.8,14.8.2-1.4,2.4-13.4h3.2m1.2-1h-5.3v.8l-1.7,9.4-1.8-9.4-.2-.8h-5.3l-.2.8-1.7,9.4-1.6-9.3v-.8h-6l.2,1.2,4.3,22,.2.8h5.5v-.8l1.7-9.2,1.7,9.2.2.8h5.5l.2-.8,4.2-22,.2-1.2Z" fill="#d1d3d4"/><path d="M776,163.5a7,7,0,0,1-4.7-1.7,8.1,8.1,0,0,1-2.5-4.8v-.4l4.6-1.4v.5c.4,1.8,1.3,2.7,2.9,2.7a2.2,2.2,0,0,0,1.6-.5,1.8,1.8,0,0,0,.5-1.3,1.4,1.4,0,0,0-.4-1.1,5.5,5.5,0,0,0-2.1-.9,9.8,9.8,0,0,1-4.8-2.5,6.9,6.9,0,0,1-1.5-4.7,8.1,8.1,0,0,1,1.7-5.2,5.8,5.8,0,0,1,4.8-2.2c3.5,0,5.8,1.9,6.8,5.5v.4l-4.3,1.9v-.6c-.5-2-1.6-2.2-2.4-2.2s-1.8.7-1.8,1.5a1.6,1.6,0,0,0,.3,1,3.3,3.3,0,0,0,1.7.8,16.3,16.3,0,0,1,3.9,1.4,5.9,5.9,0,0,1,2.2,2.4,7.8,7.8,0,0,1,.9,3.7,8.5,8.5,0,0,1-1.8,5.5A6.7,6.7,0,0,1,776,163.5Z" fill="#231f20"/><path d="M776.2,140.3q4.9,0,6.3,5.2l-3.3,1.5q-.7-2.6-2.8-2.6t-2.3,2a2.1,2.1,0,0,0,.4,1.3,3.8,3.8,0,0,0,2,1,16,16,0,0,1,3.7,1.4,5.4,5.4,0,0,1,2,2.2,7.2,7.2,0,0,1,.8,3.4,8,8,0,0,1-1.7,5.1A6.2,6.2,0,0,1,776,163a6.5,6.5,0,0,1-4.4-1.5,7.6,7.6,0,0,1-2.4-4.6l3.6-1.1q.6,3.1,3.4,3.1a2.7,2.7,0,0,0,2-.7,2.3,2.3,0,0,0,.7-1.6,1.9,1.9,0,0,0-.6-1.5,6.1,6.1,0,0,0-2.3-1,9.3,9.3,0,0,1-4.5-2.4,6.4,6.4,0,0,1-1.4-4.4,7.6,7.6,0,0,1,1.6-4.9,5.3,5.3,0,0,1,4.4-2m0-1a6.3,6.3,0,0,0-5.2,2.4,8.6,8.6,0,0,0-1.8,5.6,7.3,7.3,0,0,0,1.6,5.1,10.2,10.2,0,0,0,5,2.7,5.1,5.1,0,0,1,1.9.8.9.9,0,0,1,.3.7,1.3,1.3,0,0,1-.4.9,1.7,1.7,0,0,1-1.3.4c-1,0-2-.3-2.4-2.3l-.2-1.1-1.1.3-3.6,1.1-.9.3.2.9a8.6,8.6,0,0,0,2.7,5.1,7.5,7.5,0,0,0,5,1.8,7.2,7.2,0,0,0,5.9-2.5,9,9,0,0,0,2-5.8,8.3,8.3,0,0,0-.9-3.9,6.4,6.4,0,0,0-2.4-2.6l-2-.9.9-.4,3.3-1.5.8-.3-.2-.8c-1-3.9-3.6-5.9-7.3-5.9Zm2.3,8.8-1.8-.5c-1.2-.3-1.4-.6-1.4-.6a1.1,1.1,0,0,1-.2-.7c0-.5,0-1,1.3-1s1.5.2,1.9,1.9l.2,1Z" fill="#d1d3d4"/><polygon points="794.6 163.1 791.6 154.3 789.8 157.7 789.8 163.1 785 163.1 785 140.2 789.8 140.2 789.8 148.9 794.2 140.2 799.1 140.2 794.8 148.5 800 163.1 794.6 163.1" fill="#231f20"/><path d="M798.3,140.7l-4,7.8,5,14.1H795l-3.3-9.5-2.3,4.5v5h-3.8v-22h3.8V151l5.2-10.3h3.7m1.6-1h-6l-.3.5-3.3,6.6v-7.1h-5.8v24h5.8v-5.8l1.2-2.2L794,163l.2.7h6.4l-.5-1.3-4.9-13.7,3.8-7.5.7-1.5Z" fill="#d1d3d4"/><rect x="800.8" y="140.2" width="4.9" height="22.95" fill="#231f20"/><path d="M805.2,140.7v22h-3.9v-22h3.9m1-1h-5.9v24h5.9v-24Z" fill="#d1d3d4"/><path d="M672.1,301.6c3.4,9.2,10.8,14.5,20.1,14.5s18.2-8.8,18.2-22-7.7-22.3-19.8-22.3c-6.7,0-12.1.9-16.1,2.8l24.2-41.9H667.5V213.1h58.4l-25.1,42.8h.1c7,.5,12.8,4.3,17.6,11.8s7.2,16.1,7.2,26c0,12.3-3,22.3-9.3,30.3a28.9,28.9,0,0,1-24.1,11.9c-15.2,0-27.5-9.5-33-24.8Z" fill="none" stroke="#e6e7e8" stroke-width="6.68"/><path d="M736.1,279.1a80,80,0,0,1,3.9-11.6c1.4-3.1,3.6-7.8,6.6-14l.9-1.9c3.8-7.8,10-20.6,18.5-38.4h17.6l-19,38.6a16.3,16.3,0,0,1,5-.7c7.2,0,14,4,20.2,11.8s9.3,17.5,9.3,29.3-3.2,22.3-9.5,30.8-14,12.5-23,12.5-16.5-4.2-22.9-12.5-9.5-18.5-9.5-30.5A50.2,50.2,0,0,1,736.1,279.1ZM754.7,309c3.2,4.3,7.1,6.6,11.8,6.6s8.6-2.3,11.9-6.8a27.4,27.4,0,0,0,5-16.3,26.5,26.5,0,0,0-5-16.1c-3.3-4.5-7.2-6.7-11.9-6.7s-8.8,2.3-11.9,6.6-4.7,9.9-4.7,16.3S751.5,304.7,754.7,309Z" fill="none" stroke="#e6e7e8" stroke-width="6.68"/><path d="M672.1,301.6c3.4,9.2,10.8,14.5,20.1,14.5s18.2-8.8,18.2-22-7.7-22.3-19.8-22.3c-6.7,0-12.1.9-16.1,2.8l24.2-41.9H667.5V213.1h58.4l-25.1,42.8h.1c7,.5,12.8,4.3,17.6,11.8s7.2,16.1,7.2,26c0,12.3-3,22.3-9.3,30.3a28.9,28.9,0,0,1-24.1,11.9c-15.2,0-27.5-9.5-33-24.8Z" fill="#231f20"/><path d="M736.1,279.1a80,80,0,0,1,3.9-11.6c1.4-3.1,3.6-7.8,6.6-14l.9-1.9c3.8-7.8,10-20.6,18.5-38.4h17.6l-19,38.6a16.3,16.3,0,0,1,5-.7c7.2,0,14,4,20.2,11.8s9.3,17.5,9.3,29.3-3.2,22.3-9.5,30.8-14,12.5-23,12.5-16.5-4.2-22.9-12.5-9.5-18.5-9.5-30.5A50.2,50.2,0,0,1,736.1,279.1ZM754.7,309c3.2,4.3,7.1,6.6,11.8,6.6s8.6-2.3,11.9-6.8a27.4,27.4,0,0,0,5-16.3,26.5,26.5,0,0,0-5-16.1c-3.3-4.5-7.2-6.7-11.9-6.7s-8.8,2.3-11.9,6.6-4.7,9.9-4.7,16.3S751.5,304.7,754.7,309Z" fill="#231f20"/></svg>