<svg xmlns="http://www.w3.org/2000/svg" width="2.2in" height="624" viewBox="0 0 161.8 468.1"><path fill="#ac212d" d="M35.3 14.1c1.3 7-1 13.9-8.4 16a14.7 14.7 0 0 1-14.9-4c-5.5-6.3-3.7-17.3 3.9-21s17.8 1.1 24 6.6c.7.7 1.3-2.8.4-3.6-7.4-6.5-20.7-12.5-28.8-3.6-5.4 5.9-5.7 17-1.2 23.5a15.5 15.5 0 0 0 18.4 5.3c8-3.3 9.6-12.4 8.2-20.1-.5-2.5-1.9-.7-1.6 1z"/><path fill="#ac212d" d="M17.2 18.1a35.9 35.9 0 0 0 8.5-7.2l-1.9-1.5a91.4 91.4 0 0 1-2 14.8c-.4 1.9 1.8 3.3 2.3.9a97.2 97.2 0 0 0 2.1-15.8c0-.8-.9-2.6-1.9-1.5a33.7 33.7 0 0 1-7.9 6.8c-1.3.8-.7 4.4.7 3.5zM52 19.7a83 83 0 0 1 52.2 31.4c13.1 16.9 20.5 37.6 25.2 58.3 8.8 39.2 8.6 80.4 4.8 120.2-.8 8.9-1.8 17.8-3.3 26.6-.4 2.2 1.6 4.7 2.1 1.3 4.3-25.5 5.7-51.9 5.6-77.7-.2-42.9-4.8-91.1-29.4-127.7C95.7 32.3 75.8 18.8 52 14.7c-1.4-.2-1.7 4.7 0 5z"/><path fill="#ac212d" d="M141.8 249.2l-10.6 11 1.1.4-5.1-12.6c-.6-1.5-1.8.2-1.4 1.3l5.1 12.6c.2.4.7.9 1.1.4l10.6-11c.7-.7 0-3.1-.9-2.1zM30.6 356c1.4 7.6-1 15-8.9 17.4a16 16 0 0 1-16.3-4.3c-5.9-6.7-4.2-18.6 3.9-22.8s19.6 1 26.4 7.1c.8.7 1.4-3 .5-3.9-8.1-7.2-22.5-13.7-31.4-4-5.9 6.5-6.2 18.7-1.2 25.8a16.9 16.9 0 0 0 20 5.5c8.7-3.7 10.4-13.5 8.9-21.9-.5-2.7-2-.7-1.7 1.1z"/><path fill="#ac212d" d="M12.9 354.4c2.3-1.3 5.7-3.4 8.5-2.4s1.9 1.2 1.3 3 .6 3.2-.9 4.3-1.9 1.9-2.9 2.8-2.2 2.5-3.4 3.1l-2 .5a3.9 3.9 0 0 1 4.7.9c1.9 1.5 3.1 3.5 5.2 4.8s2.6-2.6 1.2-3.5c-3.3-2.1-9.7-11.2-13.5-4.3-2.4 4.5 1.9 8.2 5.8 5.1s11.4-9.3 9.5-15.9-9.8-4.8-14.4-2.2c-1.5.8-.8 4.8.8 3.8z"/><path fill="none" stroke="#ac212d" stroke-dasharray="12 3" stroke-miterlimit="10" stroke-width="3" d="M39.6 342.7l68.7-66.7"/><path fill="#ac212d" d="M95 277.4a51.6 51.6 0 0 0 9-2.6 47.1 47.1 0 0 0 4.8-2.2c1.1-.6 2.6-2 3.8-2.3s1 1.1.5 2.3a15.5 15.5 0 0 0-.8 4.1 16.1 16.1 0 0 0 1.3 7.2c.6 1.5 1.8-.2 1.4-1.3a12.5 12.5 0 0 1-.4-8.8 14.2 14.2 0 0 0 1.2-3.4c.1-1.4-.4-2.8-1.9-3s-4.9 2.5-6.6 3.4a48.5 48.5 0 0 1-12.3 4.1c-1.1.2-1 2.7.1 2.5zm61.4 171c1.2 6.8-1 13.4-8 15.5a14.2 14.2 0 0 1-14.3-3.7c-5.5-6-3.9-16.9 3.5-20.5s17.3 1 23.3 6.4c.7.6 1.3-2.7.4-3.5-7.3-6.5-20.4-12.3-28.2-3.2-5 5.8-5.2 16.4-.8 22.6a15 15 0 0 0 17.8 4.9c7.7-3.3 9.1-12 7.8-19.4-.4-2.4-1.8-.7-1.5 1z"/><path fill="#ac212d" d="M139.9 443.2c2.9-.4 7.9-1.1 9.4 2.2v-1.8c-.5 1.9-5.6 2.8-7 3s-1.5 3.3.1 3.6 4.3 3.8 1.6 5.4c-.6.4-4.5 1.2-4.4-.4s-2.1-3.2-2.3-.9c-.4 5.4 5.9 7.2 9.2 3.3s.7-10.1-4.2-10.9v3.6c3.1-.5 10-1.8 9-6.4s-7.9-4.6-11.6-4.1c-1.6.2-1.4 3.8.1 3.6zm6.5-19.1c-1.2-9.7-6.7-18.1-12.8-25.4-8.5-10.2-18.6-19.1-28.8-27.6-23-19.4-48.3-37.1-68.2-60-8.4-9.7-17.1-21.7-17.4-35.1 0-2.2-1.7-2.3-1.7 0 .4 24.2 21.9 43.7 38.5 58.6 22.6 20.2 47.9 37.6 69.2 59.3 8.3 8.5 18 19 19.5 31.3.3 2.5 1.8.7 1.6-1z"/><path fill="#ac212d" d="M13.6 282.9a25.8 25.8 0 0 0 6.6-10.3l-2.2-.4a12 12 0 0 0 7.4 9.9c1.6.7 2-3 .6-3.6a8.8 8.8 0 0 1-5.6-7.3c-.2-1.4-1.8-1.8-2.2-.4a22.3 22.3 0 0 1-5.7 9c-1.1 1.1-.1 4.6 1.3 3.2z"/></svg>