<svg xmlns="http://www.w3.org/2000/svg" width="7in" height="432" viewBox="0 0 505.5 324.7"><defs><clipPath id="a"><path fill="none" d="M0 0h532.7v689.44H0z"/></clipPath></defs><g clip-path="url(#a)"><path fill="#231f20" d="M465.7 178.1h-16.3l-.2-.2c-.2-.2-5.9-4.2-5.9-15.8s5.7-15.6 5.9-15.8l.2-.2h16.3v1.9H450c-1 .8-4.9 4.8-4.9 14.1s3.9 13.2 4.9 14.1h15.6zM24.2 1.9h7.6v320.84h-7.6zm196.4 0h7.6v320.84h-7.6zm-94.7 217.7a57.2 57.2 0 1 1 57.2-57.2 57.3 57.3 0 0 1-57.2 57.2zm0-112.6a55.3 55.3 0 1 0 55.3 55.3 55.4 55.4 0 0 0-55.3-55.3zm263.3 195.6a57.2 57.2 0 1 1 57.2-57.2 57.3 57.3 0 0 1-57.2 57.2zm0-112.6a55.3 55.3 0 1 0 55.3 55.3 55.4 55.4 0 0 0-55.3-55.3z"/><circle cx="389.2" cy="245.3" r="3.8" fill="#231f20"/><path fill="#231f20" d="M395.6 259.6a1 1 0 0 1-1-1v-10.4h17.2a1 1 0 1 1 0 1.9h-15.2v8.6a1 1 0 0 1-1 .9zm16.3-17.1h-17.2V232a1 1 0 1 1 1.9 0v8.6h15.3a1 1 0 1 1 0 1.9zm-29.2 17.1a1 1 0 0 1-1-1V250h-15.3a1 1 0 0 1 0-1.9h17.2v10.5a1 1 0 0 1-.9 1zm1-17.1h-17.3a1 1 0 0 1 0-1.9h15.3V232a1 1 0 1 1 1.9 0zm11.9 68.4a1 1 0 0 1-1-1v-8.7a1 1 0 1 1 1.9 0v8.7a1 1 0 0 1-.9 1zm-12.9 0a1 1 0 0 1-1-1v-8.7a1 1 0 0 1 1.9 0v8.7a1 1 0 0 1-.9 1zm12.9-120.5a1 1 0 0 1-1-1v-8.7a1 1 0 1 1 1.9 0v8.7a1 1 0 0 1-.9 1zm-12.9 0a1 1 0 0 1-1-1v-8.7a1 1 0 0 1 1.9 0v8.7a1 1 0 0 1-.9 1zm6.5-54.1A57.2 57.2 0 1 1 446.4 79a57.3 57.3 0 0 1-57.2 57.3zm0-112.6A55.3 55.3 0 1 0 444.5 79a55.4 55.4 0 0 0-55.3-55.3z"/><circle cx="389.2" cy="79" r="3.8" fill="#231f20"/><path fill="#231f20" d="M395.6 93.3a1 1 0 0 1-1-1V81.9h17.2a1 1 0 1 1 0 1.9h-15.2v8.6a1 1 0 0 1-1 .9zm16.3-17.2h-17.2V65.6a1 1 0 1 1 1.9 0v8.6h15.3a1 1 0 1 1 0 1.9zm-29.2 17.2a1 1 0 0 1-1-1v-8.5h-15.3a1 1 0 0 1 0-1.9h17.2v10.5a1 1 0 0 1-.9.9zm1-17.2h-17.3a1 1 0 0 1 0-1.9h15.3v-8.6a1 1 0 0 1 1.9 0zm11.9 68.4a1 1 0 0 1-1-1v-8.7a1 1 0 1 1 1.9 0v8.7a1 1 0 0 1-.9 1zm-12.9 0a1 1 0 0 1-1-1v-8.7a1 1 0 0 1 1.9 0v8.7a1 1 0 0 1-.9 1zM395.6 24a1 1 0 0 1-1-1v-8.6a1 1 0 1 1 1.9 0v8.7a1 1 0 0 1-.9.9zm-12.9 0a1 1 0 0 1-1-1v-8.6a1 1 0 0 1 1.9 0v8.7a1 1 0 0 1-.9.9zm83 298.2a1 1 0 0 1-1-1V3.3a1 1 0 0 1 1.9 0v317.9a1 1 0 0 1-.9 1z"/><path fill="#231f20" d="M465.7 124.9a1 1 0 0 1-.4-1.8l37.9-17.1a1 1 0 1 1 .8 1.7l-38 17.2zm37.9 93.5h-.4l-37.9-17.1a1 1 0 1 1 .8-1.7l37.9 17a1 1 0 0 1-.4 1.8z"/><path fill="#231f20" d="M454 324.7h-655.7a51.5 51.5 0 0 1-51.4-51.4V51.4A51.5 51.5 0 0 1-201.7 0H454a51.5 51.5 0 0 1 51.4 51.4v221.8a51.5 51.5 0 0 1-51.4 51.5zM-201.7 3.8a47.7 47.7 0 0 0-47.6 47.6v221.8a47.7 47.7 0 0 0 47.6 47.6H454a47.7 47.7 0 0 0 47.6-47.6V51.4A47.7 47.7 0 0 0 454 3.8z"/><path fill="#231f20" d="M122.4 1.9v320.8h7.6V1.9zm3.8 309.8a2.1 2.1 0 1 1 2.1-2.1 2.1 2.1 0 0 1-2.1 2.1zm0-24.6a2.1 2.1 0 1 1 2.1-2.1 2.1 2.1 0 0 1-2.1 2.2zm0-24.6a2.1 2.1 0 1 1 2.1-2.1 2.1 2.1 0 0 1-2.1 2.2zm0-24.6a2.1 2.1 0 1 1 2.1-2.1 2.1 2.1 0 0 1-2.1 2.3zm0-24.6a2.1 2.1 0 1 1 2.1-2.1 2.1 2.1 0 0 1-2.1 2.3zm0-24.6a2.1 2.1 0 1 1 2.1-2.1 2.1 2.1 0 0 1-2.1 2.4zm0-49.1a2.1 2.1 0 1 1 2.1-2.1 2.1 2.1 0 0 1-2.1 2.4zm0-24.6a2.1 2.1 0 1 1 2.1-2.1 2.1 2.1 0 0 1-2.1 2.4zm0-24.6a2.1 2.1 0 1 1 2.1-2.1 2.1 2.1 0 0 1-2.1 2.5zm0-24.6a2.1 2.1 0 1 1 2.1-2.1 2.1 2.1 0 0 1-2.1 2.5zm0-24.6a2.1 2.1 0 1 1 2.1-2.1 2.1 2.1 0 0 1-2.1 2.6zm0-24.6a2.1 2.1 0 1 1 2.1-2.1 2.1 2.1 0 0 1-2.1 2.6z"/><circle cx="126.2" cy="162.3" r="2.1" fill="#231f20"/><path fill="#ac212d" d="M163.6 135v54.6l-14 14h-47.4l-14-14V135l13.9-13.9h47.5zm-23.7 50.3l5-5v-36l-5-5h-29.2l-5 5v36l5 5z"/><path fill="#010101" d="M101.4 205.3l-15-15v-56l14.9-14.9h49l14.9 14.9v56l-15 15h-48.8zm48.2-84.2h-47.4L88.3 135v54.6l14 14h47.5l14-14V135c-.2.1-14.1-13.9-14.1-13.9z"/><path fill="#fff" d="M139.2 141.1h-27.8l-3.9 3.9v34.5l3.9 3.9h27.7l4-4V145z"/><path fill="#010101" d="M110.7 185.3l-5-5v-36l5-5h29.2l5 5v35.9l-5 5h-29.2zm28.5-44.2h-27.8l-3.9 3.9v34.6l3.9 3.9h27.7l4-4V145z"/><path fill="#fff" d="M123.2 144.1c-.3.5-.8.8-2.6 1.5a16.8 16.8 0 0 0-5.6 3.3 21 21 0 0 0-3.7 6.3c-.4 1.5.1 1.2.5 1.2a16.6 16.6 0 0 1 4.7.1c2.1.4 5.9 1.4 7.3 7.4s-1.1 9.1-3.5 11.6-8.2 3.6-11.4 3a12.4 12.4 0 0 1-8.2-4.9c-2.3-2.8-4-9.3-1.5-15.8 1.9-4.9 7.4-10 9.3-11.4a20.7 20.7 0 0 1 5.9-3.1 13 13 0 0 1 5.1-1 9.6 9.6 0 0 1 3.3.8.7.7 0 0 1 .4 1.1"/><path fill="#010101" d="M124.7 144.1c-.3.5-.8.8-2.6 1.5s-4.4 1.9-5.6 3.3a17.9 17.9 0 0 0-3.7 6.3c-.4 1.5.1 1.2.5 1.2a16.6 16.6 0 0 1 4.7.1c2.1.4 5.9 1.4 7.3 7.4s-1.1 9.1-3.5 11.6-8.2 3.7-11.4 2.9-4.7-2-6.9-4.8-3.7-9.8-1.6-15.8a24.7 24.7 0 0 1 8.1-11.4 22.6 22.6 0 0 1 5.9-3.2 13 13 0 0 1 5.1-1 9.6 9.6 0 0 1 3.3.8.8.8 0 0 1 .4 1.2m-10.6 27.1c1.6 0 2.9-1.7 2.9-3.8s-1.3-3.8-2.9-3.8-2.9 1.7-2.9 3.8 1.3 3.8 2.9 3.8"/><path fill="#fff" d="M128.8 152.3l-2.4-2.7s-.4-.4-.1-.8 2-2.1 3.3-3.8a33 33 0 0 0 2.3-3.3s.3-.3.8 0a16.3 16.3 0 0 0 3.7 1.2 22.6 22.6 0 0 0 6.3.4 24.3 24.3 0 0 0 5.9-1.1c.8-.3 1.1-.5 1.4.1l1.1 2 1.3 2.3a.6.6 0 0 1-.1.9c-.4.4-2.7 2.6-3.7 3.8a48.8 48.8 0 0 0-4.5 6.7 33.1 33.1 0 0 0-2.5 7.1 19.6 19.6 0 0 0 .1 6.1c.4 1.8 0 3 .3 3.6s.8 1-.4.8a12.6 12.6 0 0 1-5.2-2.3 7.4 7.4 0 0 1-3.3-6.9c.2-3.3 2.6-7.3 4.2-9.5s3.3-4.1 4.1-5 1.8-1.6.7-2a13.5 13.5 0 0 0-10.2 1.3 11.2 11.2 0 0 0-2 1.5c-.4.2-.6.1-1.1-.3"/><path fill="#010101" d="M124 154.6l-2.6-2.9s-.4-.5-.1-.9 2.2-2.3 3.6-4.2a32.3 32.3 0 0 0 2.5-3.6s.3-.3.9 0a20.9 20.9 0 0 0 3.9 1.3 26 26 0 0 0 6.8.5 23.3 23.3 0 0 0 6.3-1.2c.8-.3 1.2-.6 1.5.1l1.1 2.2 1.4 2.5a.6.6 0 0 1-.1.9c-.5.5-2.9 2.8-3.9 4a51.3 51.3 0 0 0-4.8 7.1 36.1 36.1 0 0 0-2.6 7.7 20.5 20.5 0 0 0 .1 6.5 15.4 15.4 0 0 0 1.2 3.8c.3.6.9 1.1-.4.9a15.3 15.3 0 0 1-6.4-2.5c-2.2-1.7-3.8-3.8-3.5-7.4s2.8-7.8 4.5-10.2a66.8 66.8 0 0 1 4.4-5.4c.8-.9 1.9-1.7.8-2.1a16.6 16.6 0 0 0-5.8-.4 15.1 15.1 0 0 0-5.2 1.8 11.2 11.2 0 0 0-2.2 1.6c-.5.5-.8.4-1.3-.1m22 9.5V163a.5.5 0 0 1 .5-.4h1.5s.4-.1.4.5v1.2a1.2 1.2 0 0 1-.3.8 5.3 5.3 0 0 1-.6 1.2.7.7 0 0 1-.9.4c-.4-.1-.4-.3-.3-.8s.3-.9 0-1.2-.4-.3-.4-.5m13.1 1.8v1.2s.1.4-.5.3a8.9 8.9 0 0 0-2.7-.4c-1.3 0-2.9.6-2.9 1.6s1.1 1.5 3.3 2.5 4 2 4 3.9a3.6 3.6 0 0 1-2.3 3.2 10.7 10.7 0 0 1-4.2.8 10.8 10.8 0 0 1-3.4-.4c-.6-.3-.5-.3-.5-.6v-1.3s-.1-.4.7-.2a8.3 8.3 0 0 0 2.9.5c1.5 0 2.9-.4 2.9-1.9s-1.8-1.9-3.9-2.9-3.4-1.8-3.4-3.5 1.5-2.9 3.2-3.3a13.5 13.5 0 0 1 5.2-.1l1.3.3a.6.6 0 0 1 .2.5"/><path fill="none" stroke="#ac212d" stroke-miterlimit="10" stroke-width="2.5" d="M206.7 194.7c22.9 12.1 52 25.7 102.2 36.5M199 128.1c42 6.2 81.2-1.3 119.4-7.9m-90.6 38.7c19.5 33.7 68.6 82.8 157.2 69.5M236.9 95.2c24.5-8.7 72.4-20.8 148.1 1.7"/><path fill="none" stroke="#ac212d" stroke-dasharray="4.99 1.25" stroke-miterlimit="10" stroke-width="2.5" d="M233.4 302.8L450.7 257"/><path fill="none" stroke="#ac212d" stroke-miterlimit="10" stroke-width="2.5" d="M241.3 226.7c54.5 63 123.7 94.8 218.6 50.3m-21.7-78.6c-9.6 19.5-7.1 34.5 18.3 43.7"/><path fill="#ac212d" d="M198.4 183.3c.7 4-.6 7.9-4.8 9a8.3 8.3 0 0 1-7.9-2c-3.6-3.5-2.5-10.3 2.2-12.3s9.7.9 13.1 3.9c.4.4.7-1.6.2-2-4.2-3.7-11.7-7.1-16.3-2-3 3.3-3.2 9.6-.6 13.2a8.7 8.7 0 0 0 10.6 2.8c4.3-2 5.1-6.9 4.3-11.2-.2-1.4-1-.4-.9.6zm23.4 126.4c.7 4-.6 7.9-4.8 9a8.3 8.3 0 0 1-7.9-2c-3.6-3.5-2.5-10.3 2.2-12.3s9.7.9 13.1 3.9c.4.4.7-1.6.2-2-4.2-3.7-11.7-7.1-16.3-2-3 3.3-3.2 9.6-.6 13.2a8.7 8.7 0 0 0 10.6 2.8c4.3-2 5.1-6.9 4.3-11.2-.2-1.4-1-.4-.9.6z"/><path fill="#ac212d" d="M194.4 180.4c-1.5-.3-3.7-1.2-5.1-.1s-1.3 2.4-1.4 3.7.1 1.4.7 1.3a4.7 4.7 0 0 1 5.4 2.3l.2-1.4a5.5 5.5 0 0 1-5.7 1.8c-1-.3-1.1 1.8-.3 2a6.5 6.5 0 0 0 6.7-2 1.4 1.4 0 0 0 .2-1.4 5.9 5.9 0 0 0-6.6-3.3l.7 1.3c.1-1.2.2-2.5 1.7-2.6a19.8 19.8 0 0 1 3.5.6c.9.1.9-1.9-.1-2.1zm29.5-85.2c.7 4-.6 7.9-4.8 9a8.3 8.3 0 0 1-7.9-2c-3.6-3.5-2.5-10.3 2.2-12.3s9.7.9 13.1 3.9c.4.4.7-1.6.2-2-4.2-3.7-11.7-7.1-16.3-2-3 3.3-3.2 9.6-.6 13.2a8.7 8.7 0 0 0 10.6 2.8c4.3-2 5.1-6.9 4.3-11.2-.2-1.4-1-.4-.9.6z"/><path fill="#ac212d" d="M214.3 92.1c1.7-.2 4.6-.6 5.5 1.3v-1c-.3 1.1-3.3 1.6-4.1 1.7s-.9 1.9.1 2.1 2.5 2.2.9 3.1-2.6.7-2.6-.3-1.2-1.9-1.3-.5c-.2 3.1 3.4 4.2 5.4 1.9a3.9 3.9 0 0 0-2.5-6.3v2.1c1.8-.3 5.8-1.1 5.2-3.7s-4.6-2.7-6.7-2.4-.8 2.2.1 2.1zm-24.9 30.3c.7 4-.6 7.9-4.8 9a8.3 8.3 0 0 1-7.9-2c-3.6-3.5-2.5-10.3 2.2-12.3s9.7.9 13.1 3.9c.4.4.7-1.6.2-2-4.2-3.7-11.7-7.1-16.3-2-3 3.3-3.2 9.6-.6 13.2a8.7 8.7 0 0 0 10.6 2.8c4.3-2 5.1-6.9 4.3-11.2-.2-1.4-1-.4-.9.6z"/><path fill="#ac212d" d="M181.2 117.8c-1 1.6-1.7 3.7-.9 5.5a3 3 0 0 0 3.7 1.8c.8-.3.5-2.3-.4-2a1.7 1.7 0 0 1-2.1-.9c-.5-1 .2-2.2.8-3s-.3-2.5-1-1.4z"/><path fill="#ac212d" d="M185 119.5l-2.3 8.6c-.2.9.9 2.3 1.2 1l2.3-8.6c.2-.9-.9-2.3-1.2-1zm37 30.7c.7 4-.6 7.9-4.8 9a8.3 8.3 0 0 1-7.9-2c-3.6-3.5-2.5-10.3 2.2-12.3s9.7.9 13.1 3.9c.4.4.7-1.6.2-2-4.2-3.7-11.7-7.1-16.3-2-3 3.3-3.2 9.6-.6 13.2a8.7 8.7 0 0 0 10.6 2.8c4.3-2 5.1-6.9 4.3-11.2-.2-1.4-1-.4-.9.6z"/><path fill="#ac212d" d="M211.8 152.4a20.2 20.2 0 0 0 4.8-4l-1-.9a51.3 51.3 0 0 1-1.1 8.3c-.2 1.1 1 1.8 1.3.5a54.6 54.6 0 0 0 1.2-8.8c0-.4-.5-1.5-1-.9a18.9 18.9 0 0 1-4.5 3.8c-.7.5-.4 2.5.4 2zm10.2 66.1c.7 4-.6 7.9-4.8 9a8.3 8.3 0 0 1-7.9-2c-3.6-3.5-2.5-10.3 2.2-12.3s9.7.9 13.1 3.9c.4.4.7-1.6.2-2-4.2-3.7-11.7-7.1-16.3-2-3 3.3-3.2 9.6-.6 13.2a8.7 8.7 0 0 0 10.6 2.8c4.3-2 5.1-6.9 4.3-11.2-.2-1.4-1-.4-.9.6z"/><path fill="#ac212d" d="M212.8 217.6c1.2-.7 2.9-1.8 4.4-1.2s1 .6.7 1.6a1.5 1.5 0 0 1-.5 2.2l-1.5 1.4a9.6 9.6 0 0 1-1.7 1.6l-1 .3a2 2 0 0 1 2.4.5 28.8 28.8 0 0 0 2.7 2.5c1 .6 1.4-1.3.6-1.8s-5-5.8-7-2.2 1 4.2 3 2.6 5.9-4.8 4.9-8.2-5-2.5-7.4-1.1c-.8.4-.4 2.5.4 2zm5.1 90.9a4.1 4.1 0 0 0-5-1.5c-2.1.9-3 3.4-3 5.5s.9 4.3 3.2 4.8 4.7 0 5.2-2.4-1-1.8-1.3-.5-2.7 1-3.5.9-2.6-2-2.2-3.8 4-4 5.7-1.6 1.4-.8.9-1.5zM382 88.9a39.9 39.9 0 0 0 8.2 10.1v-1.9l-10.9 3.1c-.8.2-.6 2.3.4 2l10.9-3.1c.7-.2.5-1.5.1-1.9a38.5 38.5 0 0 1-8-9.8c-.6-1.1-1.3.7-.9 1.5zm-67.5 26.6l10.1 3.4-.2-1.9a28.3 28.3 0 0 1-6.7 5.1c-.8.4-.4 2.4.4 2a29.6 29.6 0 0 0 7-5.3c.4-.4.5-1.6-.2-1.9l-10.1-3.4c-.9-.3-1.1 1.7-.3 2zm63.7 107.6a48.1 48.1 0 0 1 8.3 3.9c.3.2 1.5.7 1.6 1s-1 1.6-1.2 1.9a33.9 33.9 0 0 1-3.6 4.2c-.6.6 0 2.5.7 1.8a36 36 0 0 0 4.3-5.3c.6-1 1.5-2.1 1.1-3.4s-2.4-2-3.5-2.6a48.6 48.6 0 0 0-7.5-3.4c-.9-.3-1.1 1.7-.3 2zM304.5 236a52.1 52.1 0 0 1 8.9-2.4c.9-.1.9-1.7.1-2a29.3 29.3 0 0 1-8.2-5.3c-.8-.7-1.3 1.2-.6 1.8a30.6 30.6 0 0 0 8.5 5.5v-2a54.2 54.2 0 0 0-9.3 2.4c-.8.3-.5 2.3.4 2zM452 274.6l12-1.9-.7-1-.5 8.7c-.1 1.3 1.3 1.2 1.4 0l.5-8.7c0-.3-.2-1.1-.7-1l-12 1.9c-.9.1-.8 2.2.1 2.1zm4.9-38.5a32.9 32.9 0 0 1 2.8 9.1l.6-1.3a45.3 45.3 0 0 1-9.2.5c-.9 0-.9 2 .1 2.1a45.3 45.3 0 0 0 9.2-.5c.6-.1.7-.8.6-1.3a34.7 34.7 0 0 0-2.9-9.6c-.6-1.2-1.6.2-1.1 1.1zm-8.3 17.7l9.3 1.1-.4-1.9a33.3 33.3 0 0 0-6.6 6.6c-.5.7.2 2.4 1 1.4a31.9 31.9 0 0 1 6.3-6.2c.6-.4.4-1.8-.4-1.9l-9.3-1.1c-.9-.1-.9 1.9.1 2.1zm21.9-1.6h-.5l.5.7c0-.1-.1 0 0 0l.2-.2a.8.8 0 0 1 .6-.2c.2 0 .3.2.5.3s-.1.1.1 0a1 1 0 0 1-1.2.2h-.1l.3-.3a.9.9 0 0 1 1.2.2c.1.2.1.1 0 .2a1 1 0 0 1-.6.4c-.4.1-1.1 0-1.3-.5s.5-.6.8-.7.6-2.3-.4-2a2.7 2.7 0 0 0-1.7 3.1 2.4 2.4 0 0 0 2.5 2.1 2.6 2.6 0 0 0 2.1-2.6 2.5 2.5 0 0 0-2.3-2.5c-2.5.1-2.6 4.7 0 4.8s2.7-4.7.1-4.7-2.2 1.7-2 3a1.1 1.1 0 0 0 1.5.8 1.8 1.8 0 0 0 1.1-1.6c.1-.4 0-1.1-.5-1.3s-.8.4-.8.7zM369.7 117.1L382 133c.8 1 1.5-.8.9-1.5l-12.4-15.9c-.8-1-1.5.8-.9 1.5z"/><path fill="#ac212d" d="M383.1 117.4a49.2 49.2 0 0 0-14.1 12.8c-.5.7.2 2.4 1 1.4a47.2 47.2 0 0 1 13.5-12.2c.7-.4.4-2.5-.4-2zm44.8.9a24.7 24.7 0 0 0 10.3 10.6c.8.5 1.1-1.6.3-2a22.8 22.8 0 0 1-9.5-9.7c-.6-1.2-1.6.2-1.1 1.1z"/><path fill="#ac212d" d="M438.4 117a120.6 120.6 0 0 0-11.3 12.3c-.5.7.2 2.4 1 1.4a117.6 117.6 0 0 1 11-11.9c.6-.6.1-2.5-.7-1.8zm-30.2 35.5l8.7 11.7c.7 1 1.4-.8.9-1.5l-8.7-11.7c-.7-1-1.4.8-.9 1.5z"/><path fill="#ac212d" d="M418 150.3a31 31 0 0 0-10.5 11.3c-.4.7.4 2.5 1 1.4a29.4 29.4 0 0 1 9.9-10.7c.7-.5.4-2.5-.4-2zm-42.7 32.4a42.2 42.2 0 0 1 12.3 9.6c.8.9 1.5-.8.9-1.5a44.2 44.2 0 0 0-12.9-10.1c-.8-.4-1.1 1.6-.3 2z"/><path fill="#ac212d" d="M387.9 177.5a77.8 77.8 0 0 0-10.6 13.5c-.5.7.3 2.5 1 1.4a75.9 75.9 0 0 1 10.3-13.2c.6-.6 0-2.5-.7-1.8zm39.3 3.7a87 87 0 0 1 13.4 10.8c.8.8 1.2-1.2.6-1.8a87 87 0 0 0-13.4-10.8c-.9-.6-1.4 1.3-.6 1.8z"/><path fill="#ac212d" d="M440.5 181.2a32.7 32.7 0 0 0-12.1 9c-.5.6 0 2.6.7 1.8a31.7 31.7 0 0 1 11.7-8.8c.8-.3.5-2.4-.4-2zM232.1 312.8l1.3-.4c.8-.3.6-2.3-.4-2l-1.3.4c-.8.3-.6 2.3.4 2zm5.9 1.5c0-.2.2-.3.4-.4h-.4a.7.7 0 0 1-.2-.8h.1c-1-.3-1.1 1.8-.3 2s1.8-1.5 1.4-2.4a1.2 1.2 0 0 0-.5-.6.8.8 0 0 0-.8.1 2.3 2.3 0 0 0-1 1.7c0 .4 0 1.1.5 1.3s.8-.4.8-.7zm-4.9 4.4l.8-.8a1.4 1.4 0 0 0 .2-1.4c-.2-.4-.6-.7-.9-.3l-.8.8a1.4 1.4 0 0 0-.2 1.4c.2.4.6.7.9.3zm-6-1.7a5.7 5.7 0 0 1 2.7-.3l-.2-2-1.6.4c-.8.2-.6 2.2.4 2l1.6-.4c.8-.2.6-1.9-.2-2a6.5 6.5 0 0 0-3 .4c-.8.3-.5 2.3.4 2z"/></g></svg>